G04 ================== begin FILE IDENTIFICATION RECORD ==================*
G04 Layout Name:  netduino_plus2_20Dec16.brd*
G04 Film Name:    L1-TOP*
G04 File Format:  Gerber RS274X*
G04 File Origin:  Cadence Allegro 16.6-2015-S069*
G04 Origin Date:  Tue Dec 20 08:56:26 2016*
G04 *
G04 Layer:  ETCH/TOP*
G04 Layer:  PIN/TOP*
G04 Layer:  VIA CLASS/TOP*
G04 *
G04 Offset:    (0.0000 0.0000)*
G04 Mirror:    No*
G04 Mode:      Positive*
G04 Rotation:  0*
G04 FullContactRelief:  No*
G04 UndefLineWidth:     0.1270*
G04 ================== end FILE IDENTIFICATION RECORD ====================*
%FSLAX25Y25*MOIN*%
%IR0*IPPOS*OFA0.00000B0.00000*MIA0B0*SFA1.00000B1.00000*%
%ADD55R,.011811X.047244*%
%ADD56R,.047244X.011811*%
%ADD26R,.023622X.047244*%
%ADD46R,.047244X.023622*%
%ADD33R,.027559X.047244*%
%ADD31R,.03937X.031496*%
%ADD18R,.05315X.015748*%
%ADD24C,.023622*%
%ADD17C,.035433*%
%ADD49R,.023622X.023622*%
%ADD40R,.065748X.029921*%
%ADD61C,.038189*%
%ADD53R,.017701X.068902*%
%ADD23R,.035402X.039402*%
%ADD16R,.039402X.035402*%
%ADD32R,.03937X.047244*%
%ADD12R,.082677X.043307*%
%ADD28R,.047244X.047244*%
%ADD37R,.041339X.055118*%
%ADD34R,.11811X.062992*%
%ADD30R,.03937X.110236*%
%ADD59R,.059055X.055118*%
%ADD19R,.045276X.055118*%
%ADD11R,.070866X.086614*%
%ADD48R,.129921X.045276*%
%ADD43R,.051181X.074803*%
%ADD25C,.03937*%
%ADD52R,.023622X.015748*%
%ADD39R,.045276X.070866*%
%ADD58R,.070866X.045276*%
%ADD51R,.045276X.057087*%
%ADD50R,.031496X.011811*%
%ADD54R,.074803X.102362*%
%ADD35R,.057087X.045276*%
%ADD20R,.041339X.068898*%
%ADD60R,.09252X.088583*%
%ADD13R,.066929X.052165*%
%ADD42R,.244094X.228346*%
%ADD27R,.023622X.025591*%
%ADD15R,.025591X.023622*%
%ADD57R,.01378X.029528*%
%ADD45R,.029528X.009843*%
%ADD10C,.000004*%
%ADD44R,.029528X.01378*%
%ADD14C,.100394*%
%ADD41C,.072835*%
%ADD36R,.037402X.031496*%
%ADD29C,.101181*%
%ADD38C,.062598*%
%ADD21C,.151575*%
%ADD47R,.072835X.072835*%
%ADD22R,.037402X.035402*%
%ADD62C,.011811*%
%ADD63C,.015748*%
%ADD64C,.019685*%
%ADD65C,.009843*%
%ADD66C,.027559*%
%ADD67C,.031496*%
%ADD68C,.017717*%
%ADD69C,.021654*%
%ADD70C,.00689*%
%ADD71C,.0075*%
G75*
%LPD*%
G75*
G36*
G01X73425Y75787D02*
X71457Y77756D01*
Y106299D01*
X81299D01*
Y116142D01*
X102953D01*
Y75787D01*
X73425D01*
G37*
G36*
G01X100984Y55512D02*
Y71457D01*
X104528Y75000D01*
Y77756D01*
X106496D01*
Y73425D01*
X107480Y72441D01*
X109843D01*
Y55512D01*
X100984D01*
G37*
G36*
G01X105118Y89370D02*
Y99016D01*
X109252D01*
Y89370D01*
X105118D01*
G37*
G36*
G01X118110Y56102D02*
Y71850D01*
X119094D01*
Y75787D01*
X116142D01*
Y77756D01*
X121063D01*
X122047Y78740D01*
Y83661D01*
X134843D01*
Y77756D01*
X129921D01*
Y60039D01*
X121063D01*
Y56102D01*
X118110D01*
G37*
G54D10*
X8858Y32700D03*
X60000Y200000D03*
X260000Y30000D03*
Y140000D03*
G54D20*
X18898Y119685D03*
X7087D03*
G54D11*
X6890Y57087D03*
X24606D03*
G54D21*
X19606Y133268D03*
Y177756D03*
G54D30*
X46260Y13780D03*
G54D12*
X5709Y83356D03*
Y96348D03*
G54D22*
X10827Y198031D03*
Y191732D03*
G54D13*
X4921Y76614D03*
Y103091D03*
G54D40*
X74744Y127382D03*
Y132382D03*
Y137382D03*
Y142382D03*
Y147382D03*
Y152382D03*
Y157382D03*
Y162382D03*
X108327Y137382D03*
Y132382D03*
Y127382D03*
Y157382D03*
Y152382D03*
Y147382D03*
Y142382D03*
Y162382D03*
G54D31*
X46260Y30118D03*
G54D41*
X74000Y200000D03*
X84000D03*
X94000D03*
X104000D03*
X120000Y10000D03*
X114000Y200000D03*
X124000D03*
X140000Y10000D03*
X130000D03*
X134000Y200000D03*
X150000Y10000D03*
X144000Y200000D03*
X154000D03*
X170000Y10000D03*
X160000D03*
X180000D03*
Y200000D03*
X190000D03*
X200000D03*
X220000Y10000D03*
X210000D03*
Y200000D03*
X220000D03*
X240000Y10000D03*
X230000D03*
Y200000D03*
X240000D03*
X250000Y10000D03*
G54D14*
X24606Y32700D03*
X33661Y19708D03*
Y45692D03*
G54D50*
X132150Y55500D03*
X125850Y53531D03*
Y57469D03*
G54D32*
X46260Y54528D03*
X90157Y71457D03*
G54D23*
X16929Y193898D03*
X23228D03*
X16929Y199803D03*
X23228D03*
X38650Y78500D03*
X32350D03*
Y84500D03*
X38650D03*
X117913Y46260D03*
X135630D03*
X129331D03*
X124213D03*
G54D15*
X16732Y69685D03*
Y66142D03*
X25591Y85827D03*
Y89370D03*
X26772Y73819D03*
X30315D03*
X25591Y105512D03*
Y96457D03*
Y92913D03*
Y109055D03*
X54921Y76772D03*
X51378D03*
X64961D03*
X68504D03*
X116732Y132677D03*
X120276D03*
X118898Y155512D03*
X115354D03*
X133587Y62008D03*
X137130D03*
X137992Y135827D03*
X147441Y39370D03*
X143898D03*
X149409Y135827D03*
X145866D03*
X141535D03*
X157677Y39370D03*
X161220D03*
X163386Y121260D03*
Y124803D03*
X169094Y135827D03*
X165551D03*
X161220D03*
X157677D03*
X174606Y54724D03*
X178150D03*
X174606Y58661D03*
X178150D03*
X210827Y37402D03*
X214370D03*
G54D42*
X88898Y93504D03*
G54D60*
X239370Y73819D03*
X258661D03*
G54D51*
X139567Y120866D03*
X146654D03*
X202953Y88386D03*
X195866D03*
G54D24*
G01X116339Y86614D02*
X111417D01*
G01X113386Y76772D02*
X109055D01*
G01D02*
Y78937D01*
X107283Y80709D01*
Y82874D01*
G01X116339Y90354D02*
X127976D01*
X128469Y89862D01*
X19374Y203626D03*
X37402Y52854D03*
X28937Y63386D03*
X34646Y62598D03*
X26181Y77559D03*
X27000Y82500D03*
X36500Y88500D03*
X38650Y74650D03*
X25591Y99508D03*
Y112106D03*
X23228Y190000D03*
X27756Y190551D03*
X46260Y33563D03*
X43500Y73000D03*
X48228Y76772D03*
X48677Y83311D03*
X43000Y103500D03*
X43898Y90240D03*
X44488Y124803D03*
X62402Y67224D03*
X66732Y64370D03*
X62008Y63189D03*
X71063Y67224D03*
X58071Y76772D03*
X72047Y176575D03*
X77953Y63780D03*
X81496Y63976D03*
X78346Y83661D03*
X83268D03*
X88189D03*
Y88583D03*
X83268D03*
X78346D03*
Y103346D03*
Y98425D03*
Y93504D03*
X83268D03*
Y98425D03*
Y103346D03*
X88189D03*
Y93504D03*
Y98425D03*
X102165Y51378D03*
Y45079D03*
X89961Y64173D03*
X93110Y83661D03*
X98031D03*
Y88583D03*
X93110D03*
X98031Y103346D03*
Y98425D03*
Y93504D03*
X93110D03*
Y98425D03*
Y103346D03*
X95472Y127559D03*
X98622Y127756D03*
X105423Y167323D03*
X122835Y38386D03*
X119291Y40945D03*
X113976Y45079D03*
X114150Y49213D03*
X112008Y82874D03*
X113484Y132677D03*
X122047Y156299D03*
X119094Y147441D03*
X122047Y160433D03*
X109449Y170276D03*
X132150Y52496D03*
X133587Y65157D03*
X137130D03*
X132209Y71063D03*
Y74606D03*
X137008Y78346D03*
X136220Y96260D03*
X124409Y100394D03*
X128740Y105512D03*
X139567Y116043D03*
X137992Y132677D03*
X129134Y147441D03*
X131693Y156693D03*
X130315Y152756D03*
X125984Y140650D03*
X139665Y165256D03*
X126969Y161417D03*
X134252Y159055D03*
X154429Y39370D03*
X150689D03*
X155512Y70472D03*
X146260Y75984D03*
X149016Y83268D03*
X151772Y81102D03*
X147835Y87992D03*
X151969Y98031D03*
X155118Y92913D03*
X147047Y92520D03*
Y96949D03*
X140945Y108268D03*
Y111811D03*
X149409Y132677D03*
X145866D03*
X141535D03*
X148819Y155709D03*
X143110Y159055D03*
X147638D03*
X150000Y164173D03*
X150984Y189961D03*
X146260Y177362D03*
X171654Y36417D03*
X164567Y32874D03*
X172244Y40551D03*
X170669Y72047D03*
X160827Y76378D03*
X168701Y96063D03*
X165688Y103248D03*
X165551Y97441D03*
X172244Y90157D03*
X172925Y105709D03*
X165945Y115551D03*
X169094Y132677D03*
X161220D03*
X158071D03*
X165551D03*
X168701Y153543D03*
X159055Y154331D03*
X162697Y165256D03*
X168701Y160433D03*
X172047Y188189D03*
X161417Y188583D03*
X166732Y187795D03*
X179724Y31496D03*
X184843Y39370D03*
Y31890D03*
X174606Y51575D03*
X181496Y54724D03*
X188681Y69193D03*
X174518Y69596D03*
X182125Y79987D03*
X181035Y77137D03*
X180260Y82604D03*
X174409Y76969D03*
X182714Y84417D03*
X176222Y94912D03*
X180540Y93886D03*
X178887Y98577D03*
X176969Y89961D03*
X181398Y100311D03*
X175976Y105708D03*
X178346Y115945D03*
X179724Y141732D03*
X180118Y189173D03*
X205906Y34843D03*
X197047Y29528D03*
X194094Y31890D03*
X197835Y37402D03*
X194094Y42717D03*
X192913Y71752D03*
X207185Y88386D03*
X192913Y81791D03*
X205020Y82382D03*
X202953Y77362D03*
X200591Y82874D03*
X195472Y103937D03*
X198500Y97500D03*
X195472Y107480D03*
X218307Y37402D03*
X224213Y36811D03*
X215748Y64567D03*
X212992Y87205D03*
X209843Y95866D03*
X217717Y117913D03*
X221063Y118307D03*
X217579Y121378D03*
X211614Y129134D03*
X230709Y59449D03*
X235630Y60433D03*
X230709Y62795D03*
X237205Y137598D03*
X230118Y144685D03*
X240945Y171457D03*
X227000Y176000D03*
G54D33*
X50000Y71457D03*
X53740D03*
X58071D03*
X62402D03*
X66732D03*
X71063D03*
X75394D03*
X79724D03*
X84055D03*
G54D70*
G01X16929Y193898D02*
X14764Y191732D01*
X10827D01*
G01X16929Y193898D02*
X19167Y196135D01*
Y196332D01*
X19937Y197102D01*
X20727D01*
X23228Y199603D01*
Y199803D01*
G01X19374Y203626D02*
X16929Y201181D01*
Y199803D01*
G01X10827Y198031D02*
X15157D01*
X16929Y199803D01*
G01X33661Y57087D02*
Y58268D01*
X31299Y60630D01*
Y67520D01*
X29134Y69685D01*
X26575D01*
G01X31299Y193898D02*
X32677Y195276D01*
X33661D01*
X35039Y196654D01*
X41339D01*
X42717Y195276D01*
Y191535D01*
X45276Y188976D01*
Y154528D01*
X46772Y153031D01*
X50118D01*
G01X31299Y199803D02*
X34055Y202559D01*
X41929D01*
X45472Y199016D01*
Y193504D01*
X62205Y176772D01*
X64370D01*
X70472Y170669D01*
X76378D01*
X82087Y164961D01*
Y134252D01*
X80217Y132382D01*
X74744D01*
G01X50000Y71457D02*
Y67126D01*
X59843Y57283D01*
X87205D01*
X99409Y45079D01*
X102165D01*
G01X43500Y73000D02*
X41142Y70642D01*
Y66929D01*
G01X53740Y71457D02*
Y67323D01*
X62008Y59055D01*
X87598D01*
X99213Y47441D01*
X103150D01*
X103346Y47244D01*
X105906D01*
G01X43898Y90240D02*
Y97898D01*
X45000Y99000D01*
Y101398D01*
X48130Y104528D01*
X48425D01*
G01X161417Y110236D02*
Y115945D01*
X160236Y117126D01*
Y124212D01*
X154035Y130413D01*
X131004D01*
X124213Y123622D01*
X53937D01*
X52756Y124803D01*
X44488D01*
G01X40157Y193898D02*
Y191339D01*
X43307Y188189D01*
Y145669D01*
X45945Y143031D01*
X50118D01*
G01X60118Y138031D02*
X55118Y143031D01*
X50118D01*
G01X60118Y158031D02*
X55118Y153031D01*
X50118D01*
G01X74744Y137382D02*
X70689D01*
X69488Y138583D01*
Y145866D01*
X64764Y150591D01*
Y160039D01*
X61772Y163031D01*
X50118D01*
G01X74744Y162382D02*
X70295D01*
X64961Y167717D01*
Y170472D01*
X62402Y173031D01*
X50118D01*
G01X40157Y199803D02*
X42126D01*
X44094Y197835D01*
Y192913D01*
X61614Y175394D01*
X63780D01*
X69882Y169291D01*
X75787D01*
X80709Y164370D01*
Y159449D01*
X78642Y157382D01*
X74744D01*
G01X66732Y71457D02*
Y64370D01*
G01X58071Y71457D02*
Y67126D01*
X62008Y63189D01*
G01X74744Y127382D02*
X70650D01*
X67913Y130118D01*
Y140236D01*
X60118Y148031D01*
G01X74744Y152382D02*
X70650D01*
X69488Y153543D01*
Y158661D01*
X60118Y168031D01*
G01X105906Y49213D02*
X103346D01*
X103150Y49016D01*
X99803D01*
X84055Y64764D01*
Y71457D01*
G01X75394D02*
Y66339D01*
X77953Y63780D01*
G01X79724Y71457D02*
Y65748D01*
X81496Y63976D01*
G01X95472Y127559D02*
X94291Y128740D01*
Y182087D01*
X87402Y188976D01*
X85039D01*
X74016Y200000D01*
X74000D01*
G01X84000D02*
X96850Y187150D01*
Y129528D01*
X98622Y127756D01*
G01X105906Y45079D02*
X102165D01*
G01X89961Y64173D02*
X100394Y53740D01*
X113369D01*
X116961Y50148D01*
X123967D01*
X125850Y52031D01*
Y53531D01*
G01X200000Y200000D02*
X182087Y182087D01*
X125984D01*
X111220Y167323D01*
X105423D01*
G01X110630Y45079D02*
X113976D01*
G01X124213Y46260D02*
Y42378D01*
X122835Y41000D01*
Y38386D01*
G01X114150Y49213D02*
Y48598D01*
X112795Y47244D01*
X110630D01*
G01Y49213D02*
X114150D01*
G01X110630Y51378D02*
X112303D01*
X114150Y49531D01*
Y49213D01*
G01X120079Y127953D02*
Y132480D01*
X120276Y132677D01*
G01D02*
X120079Y132874D01*
Y137795D01*
G01X116535D02*
Y139567D01*
X121457Y144488D01*
Y151772D01*
X134547Y164862D01*
Y170669D01*
G01X116535Y137795D02*
X108740D01*
X108327Y137382D01*
G01X116535Y127953D02*
Y126181D01*
X117323Y125394D01*
X121850D01*
X122835Y126378D01*
Y151201D01*
X137106Y165472D01*
Y170669D01*
G01X116535Y127953D02*
X108898D01*
X108327Y127382D01*
G01Y152382D02*
X113563D01*
X115354Y150591D01*
G01X119094Y147441D02*
X116732D01*
X115354Y148819D01*
Y150591D01*
G01Y155512D02*
Y153937D01*
X116142Y153150D01*
X117913D01*
X118898Y152165D01*
Y150591D01*
G01X108327Y157382D02*
X113484D01*
X115354Y155512D01*
G01Y160433D02*
Y155512D01*
G01X126969Y161417D02*
Y161614D01*
X120669Y167913D01*
X115945D01*
X115354Y167323D01*
Y165354D01*
G01X108327Y162382D02*
X112382D01*
X115354Y165354D01*
G01X109449Y170276D02*
X122638Y183465D01*
X177559D01*
X185630Y191535D01*
Y195630D01*
X190000Y200000D01*
G01X118898Y165354D02*
Y163583D01*
X118110Y162795D01*
X115945D01*
X115354Y162205D01*
Y160433D01*
G01X166732Y187795D02*
X163976D01*
X162402Y186220D01*
X127780D01*
X114000Y200000D01*
G01X130000Y10000D02*
X142835Y22835D01*
X154528D01*
X164567Y32874D01*
G01X135630Y46260D02*
Y50835D01*
X137795Y53000D01*
Y56102D01*
X140945Y59252D01*
X149606D01*
X151575Y61220D01*
Y64961D01*
G01X125850Y57469D02*
X125862Y57480D01*
X128150D01*
X129134Y56496D01*
Y46457D01*
X129331Y46260D01*
G01X137008Y78346D02*
X138583Y76772D01*
X141732D01*
G01X128075Y96260D02*
X128150Y96185D01*
Y95079D01*
X129183Y94045D01*
X135679D01*
X137402Y92323D01*
Y81299D01*
X137992Y80709D01*
X141732D01*
G01X128075Y100394D02*
X124409D01*
G01X128075Y102559D02*
X126575D01*
X124409Y100394D01*
G01X128075Y98425D02*
X126378D01*
X124409Y100394D01*
G01X132799Y98425D02*
X135039D01*
X137190Y100576D01*
Y102741D01*
X138583Y104134D01*
X149016D01*
X149213Y103937D01*
X155925D01*
X162421Y97441D01*
X165551D01*
G01X128740Y105512D02*
Y111024D01*
X126969Y112795D01*
X125000D01*
G01X128740Y105512D02*
X129134Y105118D01*
X129921D01*
X132480Y102559D01*
X132799D01*
G01Y100394D02*
X135039D01*
X135812Y101167D01*
Y105133D01*
X135827Y105266D01*
G01D02*
Y105315D01*
X135433Y105709D01*
Y111614D01*
X134252Y112795D01*
X132480D01*
G01X187008Y92520D02*
X183661D01*
X182874Y93307D01*
Y94882D01*
X181496Y96260D01*
X178006D01*
X175054Y99213D01*
X169094D01*
X168652Y99656D01*
X162156D01*
X156496Y105315D01*
X149803D01*
X149606Y105512D01*
X136073D01*
X135827Y105266D01*
G01X131693Y156693D02*
X137106Y151280D01*
Y142323D01*
G01X134547D02*
Y148524D01*
X130315Y152756D01*
G01X134252Y159055D02*
X141339Y151969D01*
X157480D01*
X160138Y149311D01*
Y142323D01*
G01X161417Y188583D02*
X156102D01*
X155118Y187598D01*
X136402D01*
X124000Y200000D01*
G01X150984Y189961D02*
X144039D01*
X134000Y200000D01*
G01X143898Y39370D02*
Y48819D01*
X144094Y49016D01*
G01X155512Y64961D02*
Y70472D01*
G01X152953Y73425D02*
Y69488D01*
X153543Y68898D01*
Y64961D01*
G01X141732Y86614D02*
X145866D01*
X146900Y85581D01*
X151624D01*
X160827Y76378D01*
G01X146260Y75984D02*
Y77756D01*
X145276Y78740D01*
X141732D01*
G01Y84646D02*
X145669D01*
X147047Y83268D01*
X149016D01*
G01X151772Y81102D02*
X151575Y80906D01*
X148191D01*
X147945Y81152D01*
X147195D01*
X145669Y82677D01*
X141732D01*
G01Y88583D02*
X145276D01*
X145866Y87992D01*
X147835D01*
G01X170669Y72047D02*
X162992D01*
X161614Y73425D01*
X152953D01*
G01D02*
X145669Y80709D01*
X141732D01*
G01X168701Y96063D02*
X167323Y94685D01*
X160433D01*
X152756Y102362D01*
X141732D01*
G01X151969Y98031D02*
X150787Y99213D01*
X146179D01*
X145391Y98425D01*
X141732D01*
G01X155118Y92913D02*
X150394D01*
X148573Y94734D01*
X146130D01*
X145883Y94488D01*
X141732D01*
G01X176222Y94912D02*
X171487D01*
X169882Y93307D01*
X159843D01*
X152559Y100591D01*
X145472D01*
X145276Y100394D01*
X141732D01*
G01X180540Y93886D02*
X179174Y92520D01*
X171063D01*
X168848Y90305D01*
X146130D01*
X145883Y90551D01*
X141732D01*
G01Y92520D02*
X147047D01*
G01Y96949D02*
Y96850D01*
X145276D01*
X144882Y96457D01*
X141732D01*
G01X178887Y98577D02*
X176873Y100591D01*
X169685D01*
X169242Y101033D01*
X162943D01*
X157283Y106693D01*
X154134D01*
X153543Y107283D01*
Y110236D01*
G01X144783Y170669D02*
Y161122D01*
X145423Y160482D01*
Y155561D01*
X147490Y153494D01*
X153100D01*
X153937Y154331D01*
X159055D01*
G01X148819Y155709D02*
X157579Y164469D01*
Y170669D01*
G01X143110Y159055D02*
Y162598D01*
X142224Y163484D01*
Y170669D01*
G01X147638Y159055D02*
Y162205D01*
X147343Y162500D01*
Y170669D01*
G01X150000Y164173D02*
X149902Y164272D01*
Y170669D01*
G01X152461D02*
Y175295D01*
X150394Y177362D01*
X146260D01*
G01X172047Y188189D02*
X165945Y194291D01*
X149709D01*
X144000Y200000D01*
G01X176181Y36417D02*
X171654D01*
G01X176181Y38386D02*
X173622D01*
X171654Y36417D01*
G01X176181Y34252D02*
X173819D01*
X171654Y36417D01*
G01X161417Y64961D02*
Y61811D01*
X162598Y60630D01*
Y57874D01*
X166142Y54331D01*
Y38189D01*
X172835Y31496D01*
X179724D01*
G01X161220Y39370D02*
Y48819D01*
X161024Y49016D01*
G01X163386Y64961D02*
Y62008D01*
X163976Y61417D01*
Y58465D01*
X167520Y54921D01*
Y48031D01*
X171457Y44094D01*
X183268D01*
X187205Y40157D01*
Y22795D01*
X200000Y10000D01*
G01X165354Y64961D02*
Y59055D01*
X168898Y55512D01*
Y48799D01*
X172224Y45472D01*
X183858D01*
X188583Y40748D01*
Y29528D01*
X196654Y21457D01*
X198543D01*
X210000Y10000D01*
G01X220000D02*
X206969Y23031D01*
X197047D01*
X189961Y30118D01*
Y41339D01*
X184449Y46850D01*
X173031D01*
X170276Y49606D01*
Y56102D01*
X167323Y59055D01*
Y64961D01*
G01X169291D02*
Y59055D01*
X171654Y56693D01*
Y50197D01*
X173622Y48228D01*
X185039D01*
X191339Y41929D01*
Y30689D01*
X197421Y24606D01*
X215394D01*
X230000Y10000D01*
G01X172244Y40551D02*
X176181D01*
G01X179134Y64961D02*
Y70061D01*
X176006Y73189D01*
X175039D01*
X171850Y76378D01*
Y84843D01*
X176969Y89961D01*
G01X177165Y64961D02*
Y70081D01*
X175435Y71811D01*
X174252D01*
X170472Y75591D01*
Y88386D01*
X172244Y90157D01*
G01X159449Y110236D02*
Y106496D01*
X160433Y105512D01*
X162598D01*
X164862Y103248D01*
X165688D01*
G01X171260Y110236D02*
Y107283D01*
X170079Y106102D01*
Y104134D01*
X170866Y103346D01*
X179331D01*
X194488Y118504D01*
Y154488D01*
X240000Y200000D01*
G01X250000D02*
X245418Y195418D01*
X242918D01*
X195866Y148366D01*
Y117913D01*
X179921Y101969D01*
X170276D01*
X168701Y103543D01*
Y106693D01*
X169291Y107283D01*
Y110236D01*
G01X172925Y105709D02*
X172933D01*
X173031Y105709D01*
X173228Y105906D01*
Y110236D01*
G01X167323D02*
Y114173D01*
X165945Y115551D01*
G01X180906Y34252D02*
Y32677D01*
X179724Y31496D01*
G01X184843Y39370D02*
X184449D01*
X183465Y38386D01*
X180906D01*
G01Y36417D02*
X183465D01*
X184843Y35039D01*
Y31890D01*
G01X180906Y40551D02*
X183661D01*
X184843Y39370D01*
G01X240000Y10000D02*
X230512Y19488D01*
Y33858D01*
X216535Y47835D01*
X201378D01*
X187598Y61614D01*
Y65945D01*
X178150Y75394D01*
Y78543D01*
X177953Y78740D01*
Y83465D01*
X181299Y86811D01*
X183661D01*
X183858Y86614D01*
X187008D01*
G01X224213Y36811D02*
X214567Y46457D01*
X200807D01*
X186220Y61043D01*
Y65157D01*
X176772Y74606D01*
Y77953D01*
X176575Y78150D01*
Y84055D01*
X181102Y88583D01*
X187008D01*
G01X188681Y69193D02*
X187008Y70866D01*
Y72835D01*
G01X175197Y64961D02*
Y68917D01*
X174518Y69596D01*
G01X182125Y79987D02*
X182350D01*
X183071Y80709D01*
X187008D01*
G01X181035Y77137D02*
X182631D01*
X184235Y78740D01*
X187008D01*
G01X180260Y82604D02*
X180439D01*
X180840Y82202D01*
X183632D01*
X184107Y82677D01*
X187008D01*
G01X174409Y76969D02*
Y84081D01*
X180879Y90551D01*
X187008D01*
G01X182714Y84417D02*
X182943Y84646D01*
X187008D01*
G01X200591Y82874D02*
X199409Y84055D01*
X192520D01*
X191142Y85433D01*
Y93110D01*
X189764Y94488D01*
X187008D01*
G01X181398Y100311D02*
Y98327D01*
X183268Y96457D01*
X187008D01*
G01X175976Y105708D02*
Y105913D01*
X175197Y106693D01*
Y110236D01*
G01X203720Y112653D02*
X192574D01*
X183612Y103691D01*
Y99375D01*
X184562Y98425D01*
X187008D01*
G01X179134Y110236D02*
Y113189D01*
X180709Y114764D01*
Y136220D01*
X189961Y145472D01*
Y179961D01*
X210000Y200000D01*
G01X177165Y110236D02*
Y114764D01*
X178346Y115945D01*
G01X180118Y189173D02*
Y199882D01*
X180000Y200000D01*
G01X197047Y29528D02*
X209843D01*
X214370Y34055D01*
Y37402D01*
G01X194094Y34843D02*
Y37402D01*
G01Y34843D02*
Y31890D01*
G01X201575Y37402D02*
X197835D01*
G01X214370D02*
Y39173D01*
X213583Y39961D01*
X201575D01*
G01X205020Y82382D02*
X207480Y79921D01*
X208268D01*
G01Y75787D02*
X204528D01*
X202953Y77362D01*
G01X200591Y82874D02*
Y76592D01*
X203561Y73622D01*
X208268D01*
G01Y77756D02*
X205709D01*
X200591Y82874D01*
G01X209843Y95866D02*
Y110517D01*
X207707Y112653D01*
X203720D01*
G01X218307Y37402D02*
X214370D01*
G01X212992Y75787D02*
X214961D01*
X215502Y75246D01*
Y70620D01*
X211811Y66929D01*
Y62402D01*
X220079Y54134D01*
X232283D01*
X235630Y57480D01*
Y60433D01*
G01X219685Y64567D02*
X215748D01*
G01X212992Y73622D02*
Y70276D01*
X210827Y68110D01*
X207677D01*
G01X227362Y170472D02*
X226181D01*
X223031Y167323D01*
Y147835D01*
X246457Y124409D01*
X259646D01*
X265551Y118504D01*
Y92520D01*
X259449Y86417D01*
X239173D01*
X233071Y80315D01*
Y57677D01*
X231299Y55906D01*
X220866D01*
X219685Y57087D01*
Y59449D01*
G01X223425Y76772D02*
Y69882D01*
X227165Y66142D01*
Y64567D01*
G01X212992Y77756D02*
X215157D01*
X216880Y76033D01*
Y70049D01*
X213533Y66703D01*
Y63649D01*
X215175Y62008D01*
X219685D01*
G01X227165Y76772D02*
X223425D01*
G01D02*
X219685D01*
G01X212992Y79921D02*
X214961D01*
X218110Y76772D01*
X219685D01*
G01X227000Y176000D02*
X225433Y174433D01*
X224433D01*
X209252Y159252D01*
Y118110D01*
X212992Y114370D01*
Y87205D01*
G01X217717Y117913D02*
Y118093D01*
X220687Y121063D01*
X236811D01*
X247835Y110039D01*
Y97441D01*
X252756Y92520D01*
X259383D01*
X262402Y95538D01*
Y99075D01*
X259035Y102441D01*
G01X221063Y118307D02*
Y112937D01*
X226913Y107087D01*
X234449D01*
X250881Y90654D01*
X260143D01*
X263780Y94291D01*
Y102697D01*
X259035Y107441D01*
G01X217579Y121378D02*
X219429Y123228D01*
X239370D01*
X241634Y120965D01*
X255512D01*
X259035Y117441D01*
G01X211614Y129134D02*
X236811D01*
X242913Y123031D01*
X258025D01*
X262274Y118783D01*
Y115679D01*
X259035Y112441D01*
G01X227165Y59449D02*
X230709D01*
G01X227165Y62008D02*
X229921D01*
X230709Y62795D01*
G01X237205Y137598D02*
X230118Y144685D01*
G54D52*
X132480Y115354D03*
Y112795D03*
Y110236D03*
X125000D03*
Y112795D03*
Y115354D03*
X201575Y37402D03*
Y34843D03*
X194094D03*
Y37402D03*
X201575Y39961D03*
X194094D03*
X219685Y59449D03*
Y62008D03*
Y64567D03*
Y74213D03*
Y76772D03*
Y79331D03*
X227165Y64567D03*
Y62008D03*
Y59449D03*
Y79331D03*
Y76772D03*
Y74213D03*
G54D25*
X36417Y7874D03*
X252559Y178346D03*
X263780Y60039D03*
G54D43*
X99409Y12008D03*
G54D34*
X60630Y84504D03*
Y102504D03*
G54D16*
X22000Y72150D03*
Y65850D03*
X44000Y78350D03*
Y84650D03*
X227362Y164173D03*
Y170472D03*
G54D61*
X254035Y97441D03*
Y102441D03*
Y107441D03*
Y112441D03*
Y117441D03*
X259035Y97441D03*
Y102441D03*
Y107441D03*
Y112441D03*
Y117441D03*
G54D71*
G01X16437Y92411D02*
X19400D01*
X19882Y91929D01*
X24606D01*
X25591Y92913D01*
G01X16437Y89852D02*
X19577D01*
X20079Y90354D01*
X24606D01*
X25591Y89370D01*
G01X157776Y120472D02*
Y124224D01*
X153750Y128250D01*
X131793D01*
X125043Y121500D01*
X39750D01*
X31250Y113000D01*
Y93500D01*
X29679Y91929D01*
X26575D01*
X25591Y92913D01*
G01Y89370D02*
X26575Y90354D01*
X30354D01*
X32750Y92750D01*
Y112250D01*
X40500Y120000D01*
X42000D01*
X42750Y119250D01*
Y118500D01*
X43500Y117750D01*
X44250D01*
X45000Y118500D01*
Y119250D01*
X45750Y120000D01*
X125709D01*
X132459Y126750D01*
X153000D01*
X155217Y124533D01*
Y120472D01*
G01X157480Y64961D02*
Y62402D01*
X156496Y61417D01*
X155118D01*
X151772Y58071D01*
Y52362D01*
X148425Y49016D01*
X144094D01*
G01X156693Y58858D02*
X154724D01*
X153346Y57480D01*
Y52362D01*
X156693Y49016D01*
X161024D01*
G01X159449Y64961D02*
Y59646D01*
X160236Y58858D01*
G54D62*
G01X16732Y66142D02*
Y62205D01*
X17717Y61220D01*
Y57087D01*
G01X26575Y66142D02*
Y65748D01*
X28937Y63386D01*
G01X26772Y73819D02*
X26181Y77559D01*
G01X46260Y30118D02*
Y33563D01*
G01X62402Y71457D02*
Y74213D01*
X64961Y76772D01*
G01X62402Y71457D02*
Y67224D01*
G01X71063Y71457D02*
Y74213D01*
X68504Y76772D01*
G01X71063Y71457D02*
Y67224D01*
G01X116339Y82874D02*
X112008D01*
G01X141732Y72835D02*
X137857D01*
X137070Y72047D01*
X136343D01*
X135358Y71063D01*
G01X137130Y62008D02*
X142323D01*
X145276Y64961D01*
X149606D01*
G01X141732Y74803D02*
X135555D01*
X135358Y74606D01*
G01X139665Y142323D02*
Y138227D01*
X137992Y136554D01*
Y135827D01*
G01X147441Y39370D02*
X150689D01*
G01X157677D02*
X154429D01*
G01X140945Y111811D02*
X144291D01*
X145866Y110236D01*
X149606D01*
G01X151575D02*
Y115551D01*
X146654Y120472D01*
Y120866D01*
G01X174606Y54724D02*
Y51575D01*
G01Y58661D02*
Y54724D01*
G01X178150Y58661D02*
Y54724D01*
G01D02*
X181496D01*
G01X187008Y74803D02*
X192717D01*
X192913Y75000D01*
G01Y78543D02*
X192323Y77953D01*
X191142D01*
X189961Y76772D01*
X187008D01*
G01Y102362D02*
X190748D01*
X192323Y103937D01*
G01X187008Y100394D02*
X190157D01*
X194291Y96260D01*
Y89961D01*
X195866Y88386D01*
G01X235630Y171457D02*
X240945D01*
G01X235630Y163189D02*
X228346D01*
X227362Y164173D01*
G54D44*
X105906Y51378D03*
Y45079D03*
X110630Y51378D03*
Y45079D03*
X132799Y96260D03*
X128075D03*
X132799Y102559D03*
X128075D03*
X180906Y34252D03*
X176181D03*
X180906Y40551D03*
X176181D03*
X212992Y73622D03*
X208268D03*
X212992Y79921D03*
X208268D03*
G54D35*
X49693Y98504D03*
Y91417D03*
G54D53*
X139665Y142323D03*
X137106D03*
X134547D03*
X131988D03*
Y170669D03*
X134547D03*
X137106D03*
X139665D03*
X155020Y142323D03*
X152461D03*
X149902D03*
X147343D03*
X144783D03*
X142224D03*
Y170669D03*
X144783D03*
X147343D03*
X149902D03*
X152461D03*
X155020D03*
X165256Y142323D03*
X162697D03*
X160138D03*
X157579D03*
Y170669D03*
X160138D03*
X162697D03*
X165256D03*
G54D17*
G01X24606Y57087D02*
X17717D01*
G01X49693Y91417D02*
X50000Y89961D01*
X55457Y84504D01*
X60630D01*
G01Y102504D02*
X59898D01*
X56890Y105512D01*
Y112205D01*
G01X60630Y84504D02*
Y90213D01*
G01Y102504D02*
Y96795D01*
G01X64370Y112205D02*
X71457D01*
G01X89764Y177953D02*
Y171850D01*
G01X107087Y108268D02*
Y98622D01*
G01Y108268D02*
Y114052D01*
X107382Y114347D01*
G01X119610Y59055D02*
Y52953D01*
G01X118898Y98622D02*
Y108268D01*
G01Y98622D02*
X113976D01*
G01X118898Y108268D02*
X113976D01*
G01X173819Y119685D02*
X168996D01*
G01X173819Y128740D02*
X168996D01*
G01X185630Y119685D02*
X190453D01*
G01X185630Y128740D02*
X190453D01*
G01X207677Y62008D02*
Y68110D01*
G01X195866Y62008D02*
Y68110D01*
G01X239370Y73819D02*
Y80807D01*
G01X253937Y60039D02*
Y66142D01*
G01X242126Y60039D02*
Y66142D01*
G01X258661Y73819D02*
Y80807D01*
X17717Y57087D03*
X21907Y83407D03*
X39370Y113189D03*
X25787Y119685D03*
X48425Y116142D03*
X73425Y88583D03*
Y83661D03*
X60630Y90213D03*
Y96795D03*
X73425Y103346D03*
Y98425D03*
Y93504D03*
X74409Y78740D03*
X89173D03*
X84252D03*
X79331D03*
X89173Y113189D03*
Y108268D03*
X89764Y171850D03*
X102953Y68898D03*
X102976Y59055D03*
X99016Y78740D03*
X94094D03*
X99016Y113189D03*
X94094D03*
Y108268D03*
X99016D03*
X119610Y52953D03*
X111417Y86614D03*
X113976Y98622D03*
Y108268D03*
X120669Y115354D03*
X107382Y114347D03*
X132480Y106890D03*
X125000D03*
X132480Y118701D03*
X168996Y119685D03*
Y128740D03*
X190453Y119685D03*
Y128740D03*
X207677Y68110D03*
X195866D03*
X219685Y70866D03*
Y82677D03*
X227165Y70866D03*
X239370Y80807D03*
X227165Y82677D03*
X253937Y66142D03*
X242126D03*
X258661Y80807D03*
G54D26*
X37402Y57087D03*
X33661D03*
Y66929D03*
X41142Y57087D03*
Y66929D03*
G54D63*
G01X21907Y83407D02*
X20581Y84734D01*
X16437D01*
G01X21457Y105512D02*
X25591D01*
G01X7087Y119685D02*
Y115157D01*
X9646Y112598D01*
X16535D01*
X21457Y107677D01*
Y105512D01*
G01X16437Y94970D02*
X19380D01*
X21457Y97047D01*
Y105512D01*
G01X30315Y73819D02*
X32480D01*
X37205Y69094D01*
Y64764D01*
X41142Y60827D01*
Y57087D01*
G01X105906Y51378D02*
X102165D01*
G01X117913Y46260D02*
Y42323D01*
X119291Y40945D01*
G01X125000Y115354D02*
X120669D01*
G01X132150Y55500D02*
Y52496D01*
G01X132799Y96260D02*
X136220D01*
G01X132480Y110236D02*
Y106890D01*
G01Y115354D02*
Y118701D01*
G01X125000Y110236D02*
Y106890D01*
G01X139665Y170669D02*
Y176083D01*
X137598Y178150D01*
G01X131988Y170669D02*
Y176083D01*
X134055Y178150D01*
G01X219685Y74213D02*
Y70866D01*
G01Y79331D02*
Y82677D01*
G01X227165Y74213D02*
Y70866D01*
G01Y79331D02*
Y82677D01*
G54D36*
X48425Y104528D03*
X40551Y108268D03*
X48425Y112008D03*
G54D45*
X105906Y47244D03*
Y49213D03*
X110630D03*
Y47244D03*
X132799Y100394D03*
Y98425D03*
X128075D03*
Y100394D03*
X180906Y38386D03*
Y36417D03*
X176181D03*
Y38386D03*
X212992Y77756D03*
Y75787D03*
X208268D03*
Y77756D03*
G54D27*
X26575Y66142D03*
Y69685D03*
X27756Y199803D03*
X31299D03*
X36614D03*
X27756Y193898D03*
X31299D03*
X36614D03*
X40157Y199803D03*
Y193898D03*
X105512Y76772D03*
X113386D03*
X116929D03*
X109055D03*
X120079Y137795D03*
X116535D03*
X120079Y127953D03*
X116535D03*
X118898Y150591D03*
X115354D03*
X118898Y165354D03*
X115354D03*
X135358Y71063D03*
Y74606D03*
X137795Y108268D03*
Y111811D03*
X125984Y147441D03*
Y143898D03*
X137598Y178150D03*
X134055D03*
X156693Y58858D03*
X160236D03*
X192913Y75000D03*
Y78543D03*
X192323Y103937D03*
Y107480D03*
G54D54*
X144094Y49016D03*
X161024D03*
G54D18*
X16437Y84734D03*
Y87293D03*
Y89852D03*
Y92411D03*
Y94970D03*
G54D64*
G01X22000Y65850D02*
X26283D01*
X26575Y66142D01*
G01X22000Y72150D02*
X19197D01*
X16732Y69685D01*
G01X22000Y72150D02*
X24465Y69685D01*
X26575D01*
G01X18898Y119685D02*
X25787D01*
G01X38650Y84500D02*
Y86350D01*
X36500Y88500D01*
G01X38650Y78500D02*
X43850D01*
X44000Y78350D01*
G01X38650Y78500D02*
Y74650D01*
G01X32350Y78500D02*
Y84500D01*
G01Y78500D02*
X29724Y75874D01*
X30315Y73819D01*
G01X37713Y93866D02*
X38500Y91000D01*
X42093Y87407D01*
Y86557D01*
X44000Y84650D01*
G01X39370Y113189D02*
X40551Y108268D01*
G01X23228Y193898D02*
Y190000D01*
G01X44000Y78350D02*
X46650D01*
X48228Y76772D01*
G01X44000Y84650D02*
X47339D01*
X48677Y83311D01*
G01X48425Y112008D02*
Y116142D01*
G01X77953Y177953D02*
X73425D01*
X72047Y176575D01*
G01X203720Y100842D02*
X201842D01*
X198500Y97500D01*
G54D19*
X16339Y80010D03*
Y99695D03*
G54D37*
X56890Y112205D03*
X64370D03*
G54D28*
X37713Y93866D03*
Y102134D03*
X235630Y171457D03*
Y163189D03*
G54D46*
X107283Y82874D03*
Y90354D03*
X116339Y86614D03*
Y82874D03*
Y90354D03*
G54D55*
X155512Y64961D03*
X153543D03*
X151575D03*
X149606D03*
Y110236D03*
X151575D03*
X153543D03*
X155512D03*
X173228Y64961D03*
X171260D03*
X169291D03*
X167323D03*
X165354D03*
X163386D03*
X161417D03*
X159449D03*
X157480D03*
Y110236D03*
X159449D03*
X161417D03*
X163386D03*
X165354D03*
X167323D03*
X169291D03*
X171260D03*
X173228D03*
X179134Y64961D03*
X177165D03*
X175197D03*
Y110236D03*
X177165D03*
X179134D03*
G54D65*
G01X27756Y190551D02*
X30118D01*
X30906Y191339D01*
X34055D01*
X36614Y193898D01*
G01X27756D02*
Y190551D01*
G01Y199803D02*
Y196850D01*
G01D02*
Y193898D01*
G01Y196850D02*
X33071D01*
X35827Y199606D01*
X36417D01*
X36614Y199803D01*
G01X155512Y110236D02*
Y112988D01*
X155217Y113283D01*
Y115748D01*
G01X163386Y124803D02*
X162598D01*
X152461Y134941D01*
Y142323D01*
G01X171260Y64961D02*
Y61220D01*
X173819Y58661D01*
X174606D01*
G01X178150D02*
Y59249D01*
X176178Y61220D01*
X174314D01*
X173228Y62306D01*
Y64961D01*
G01X157480Y110236D02*
Y113230D01*
X157776Y113526D01*
Y115748D01*
G01X163386Y110236D02*
Y121260D01*
G01X201575Y34843D02*
X205906D01*
G01X210827Y37402D02*
X208465D01*
X205906Y34843D01*
G01X194094Y39961D02*
Y42717D01*
G54D47*
X110000Y10000D03*
X164000Y200000D03*
X200000Y10000D03*
X250000Y200000D03*
G54D38*
X50118Y143031D03*
Y153031D03*
Y163031D03*
Y173031D03*
X60118Y138031D03*
Y148031D03*
Y158031D03*
Y168031D03*
G54D29*
X34606Y126220D03*
Y184803D03*
G54D56*
X141732Y72835D03*
Y74803D03*
Y76772D03*
Y78740D03*
Y80709D03*
Y82677D03*
Y84646D03*
Y86614D03*
Y88583D03*
Y90551D03*
Y92520D03*
Y94488D03*
Y96457D03*
Y98425D03*
Y100394D03*
Y102362D03*
X187008Y88583D03*
Y86614D03*
Y84646D03*
Y82677D03*
Y80709D03*
Y78740D03*
Y76772D03*
Y74803D03*
Y72835D03*
Y102362D03*
Y100394D03*
Y98425D03*
Y96457D03*
Y94488D03*
Y92520D03*
Y90551D03*
G54D66*
G01X6890Y57087D02*
Y56102D01*
X16535Y46457D01*
Y28025D01*
X24853Y19708D01*
X33661D01*
G54D57*
X155217Y115748D03*
Y120472D03*
X157776Y115748D03*
Y120472D03*
G54D39*
X71457Y112205D03*
X83268D03*
X89764Y177953D03*
X77953D03*
X107799Y68898D03*
Y59055D03*
X107087Y98622D03*
Y108268D03*
X119610Y68898D03*
Y59055D03*
X118898Y98622D03*
Y108268D03*
X173819Y119685D03*
Y128740D03*
X185630Y119685D03*
Y128740D03*
X207677Y62008D03*
X195866D03*
X242126Y60039D03*
X253937D03*
G54D48*
X128469Y81398D03*
Y89862D03*
G54D67*
G01X37713Y102134D02*
X41634D01*
X43000Y103500D01*
G01X49693Y98504D02*
X56630D01*
X60630Y102504D01*
G54D58*
X174213Y153543D03*
Y141732D03*
Y160433D03*
Y172244D03*
G54D49*
X115354Y160433D03*
X118898D03*
G54D68*
G01X137992Y135827D02*
Y132677D01*
G01X125984Y147441D02*
X129134D01*
G01X125984Y143898D02*
Y140650D01*
G01X131988Y142323D02*
X129724D01*
X128150Y143898D01*
X125984D01*
G01X139665Y170669D02*
Y165256D01*
G01X149409Y135827D02*
Y132677D01*
G01X149902Y142323D02*
Y136319D01*
X149409Y135827D01*
G01X145866D02*
Y132677D01*
G01X144783Y142323D02*
Y136909D01*
X145866Y135827D01*
G01X141535D02*
Y132677D01*
G01X142224Y142323D02*
Y136516D01*
X141535Y135827D01*
G01X147343Y142323D02*
X149902D01*
G01X161220Y135827D02*
Y132677D01*
G01X169094Y135827D02*
Y132677D01*
G01X157677Y135827D02*
Y133268D01*
X158071Y132874D01*
Y132677D01*
G01X157579Y142323D02*
Y135925D01*
X157677Y135827D01*
G01X165551D02*
Y132677D01*
G01X165256Y142323D02*
Y136122D01*
X165551Y135827D01*
G01X165256Y142323D02*
X173622D01*
X174213Y141732D01*
G01X162697Y170669D02*
Y165256D01*
G01X165256Y170669D02*
X165650Y171063D01*
X173031D01*
X174213Y172244D01*
G54D59*
X203720Y100842D03*
Y112653D03*
X230886Y100842D03*
Y112653D03*
G54D69*
G01X37402Y57087D02*
Y52854D01*
G01X33661Y66929D02*
Y63583D01*
X34646Y62598D01*
G01X27000Y82500D02*
X25591Y83909D01*
Y85827D01*
G01Y96457D02*
Y99508D01*
G01Y109055D02*
Y112106D01*
G01X54921Y76772D02*
X58071D01*
G01X51378D02*
X48228D01*
G01X116732Y132677D02*
X113484D01*
G01X118898Y155512D02*
X121260D01*
X122047Y156299D01*
G01X118898Y160433D02*
X122047D01*
G01X133587Y62008D02*
Y65157D01*
G01X135358Y71063D02*
X132209D01*
G01X137130Y62008D02*
Y65157D01*
G01X135358Y74606D02*
X132209D01*
G01X137795Y108268D02*
X140945D01*
G01X139567Y120866D02*
Y116043D01*
G01X137795Y111811D02*
X140945D01*
G01X174213Y153543D02*
X168701D01*
G01X174213Y160433D02*
X168701D01*
G01X174213Y141732D02*
X179724D01*
G01X192913Y75000D02*
Y71752D01*
G01X202953Y88386D02*
X207185D01*
G01X192913Y78543D02*
Y81791D01*
G01X192323Y103937D02*
X195472D01*
G01X192323Y107480D02*
X195472D01*
M02*
