G04 ================== begin FILE IDENTIFICATION RECORD ==================*
G04 Layout Name:  netduino_plus2_20Dec16.brd*
G04 Film Name:    L3-PWR*
G04 File Format:  Gerber RS274X*
G04 File Origin:  Cadence Allegro 16.6-2015-S069*
G04 Origin Date:  Tue Dec 20 08:56:26 2016*
G04 *
G04 Layer:  VIA CLASS/L3-PWR*
G04 Layer:  PIN/L3-PWR*
G04 Layer:  ETCH/L3-PWR*
G04 *
G04 Offset:    (0.0000 0.0000)*
G04 Mirror:    No*
G04 Mode:      Positive*
G04 Rotation:  0*
G04 FullContactRelief:  No*
G04 UndefLineWidth:     0.1270*
G04 ================== end FILE IDENTIFICATION RECORD ====================*
%FSLAX25Y25*MOIN*%
%IR0*IPPOS*OFA0.00000B0.00000*MIA0B0*SFA1.00000B1.00000*%
%ADD10C,.023622*%
%ADD11C,.035433*%
%ADD12C,.038189*%
%ADD13C,.043323*%
%ADD15C,.055134*%
%ADD14C,.120094*%
%ADD16C,.120882*%
%ADD17C,.082299*%
%ADD18R,.064976X.074819*%
G75*
%LPD*%
G75*
G36*
G01X52286Y207677D02*
G02X53517Y205133I0J-1570D01*
G03X67636Y196828I6483J-5132D01*
G02X70331Y197181I1450J-602D01*
G03X77733Y197267I3669J2819D01*
G02X80267I1267J-928D01*
G03X87733I3733J2733D01*
G02X90267I1267J-928D01*
G03X97733I3733J2733D01*
G02X100267I1267J-928D01*
G03X107733I3733J2733D01*
G02X110267I1267J-928D01*
G03X117733I3733J2733D01*
G02X120267I1267J-928D01*
G03X127733I3733J2733D01*
G02X130267I1267J-928D01*
G03X137733I3733J2733D01*
G02X140267I1267J-928D01*
G03X147733I3733J2733D01*
G02X150267I1267J-928D01*
G03X156840Y196347I3733J2733D01*
G02X159350Y195373I963J-1240D01*
G01X168627D01*
Y204627D01*
X159350D01*
G02X156840Y203653I-1547J266D01*
G03X150267Y202733I-2840J-3653D01*
G02X147733I-1267J928D01*
G03X140267I-3733J-2733D01*
G02X137733I-1267J928D01*
G03X130267I-3733J-2733D01*
G02X127733I-1267J928D01*
G03X120267I-3733J-2733D01*
G02X117733I-1267J928D01*
G03X110267I-3733J-2733D01*
G02X107733I-1267J928D01*
G03X100267I-3733J-2733D01*
G02X97733I-1267J928D01*
G03X90267I-3733J-2733D01*
G02X87733I-1267J928D01*
G03X80267I-3733J-2733D01*
G02X77733I-1267J928D01*
G03X70331Y202819I-3733J-2733D01*
G02X67636Y203172I-1245J956D01*
G03X66483Y205133I-7636J-3173D01*
G02X67714Y207677I1231J974D01*
G01X252953D01*
X253323Y207307D01*
G02X252213Y204627I-1110J-1110D01*
G01X245350D01*
G02X242840Y203653I-1547J266D01*
G03X236267Y202733I-2840J-3653D01*
G02X233733I-1267J928D01*
G03X226267I-3733J-2733D01*
G02X223733I-1267J928D01*
G03X216267I-3733J-2733D01*
G02X213733I-1267J928D01*
G03X206267I-3733J-2733D01*
G02X203733I-1267J928D01*
G03X196267I-3733J-2733D01*
G02X193733I-1267J928D01*
G03X186267I-3733J-2733D01*
G02X183733I-1267J928D01*
G03Y197267I-3733J-2733D01*
G02X186267I1267J-928D01*
G03X193733I3733J2733D01*
G02X196267I1267J-928D01*
G03X203733I3733J2733D01*
G02X206267I1267J-928D01*
G03X213733I3733J2733D01*
G02X216267I1267J-928D01*
G03X223733I3733J2733D01*
G02X226267I1267J-928D01*
G03X233733I3733J2733D01*
G02X236267I1267J-928D01*
G03X242840Y196347I3733J2733D01*
G02X245350Y195373I963J-1240D01*
G01X254627D01*
Y202213D01*
G02X257307Y203323I1570J0D01*
G01X257874Y202756D01*
Y157480D01*
X267717Y147638D01*
Y145905D01*
G02X266600Y145194I-785J0D01*
G01X266334Y145318D01*
X266225Y145443D01*
G03X265166Y133544I-6225J-5443D01*
G02X267717Y132318I981J-1226D01*
G01Y37682D01*
G02X265166Y36456I-1570J0D01*
G03Y23544I-5166J-6456D01*
G02X267717Y22318I981J-1226D01*
G01Y20669D01*
X257874Y10827D01*
Y1969D01*
X1969D01*
Y28020D01*
G02X4717Y29057I1570J0D01*
G03Y36343I4141J3643D01*
G02X1969Y37380I-1179J1037D01*
G01Y73021D01*
X9253D01*
Y80207D01*
X1969D01*
Y99497D01*
X9253D01*
Y106684D01*
X1969D01*
Y140748D01*
X11375D01*
G02X12650Y138262I0J-1570D01*
G03X26563I6956J-4994D01*
G02X27838Y140748I1275J916D01*
G01X34449D01*
G03X40354Y146654I0J5906D01*
G01Y164370D01*
G03X34449Y170276I-5906J0D01*
G01X27838D01*
G02X26563Y172761I0J1570D01*
G03X12650I-6956J4994D01*
G02X11375Y170276I-1275J-916D01*
G01X1969D01*
Y207677D01*
X52286D01*
G37*
%LPC*%
G75*
G36*
G01X28004Y78728D02*
G02X25351Y79560I-1823J-1169D01*
G03X25569Y80874I-301J725D01*
G02X25474Y80963I1434J1624D01*
G03X23475Y81140I-1106J-1114D01*
G02X21430Y80693I-1568J2268D01*
G03X19587Y79146I-272J-1546D01*
G01Y76269D01*
X13090D01*
Y83751D01*
X19115D01*
X19294Y84286D01*
G02X24162Y84994I2613J-878D01*
G03X26099Y84470I1284J903D01*
G02X28348Y80805I901J-1970D01*
G03X28004Y78728I978J-1229D01*
G37*
G36*
G01X97580Y125857D02*
G03X96743Y125804I-378J-688D01*
G02X96514Y129458I-1270J1755D01*
G03X97352Y129511I378J688D01*
G02X97580Y125857I1270J-1755D01*
G37*
G36*
G01X38828Y51224D02*
G03X38577Y49141I1034J-1182D01*
G02X33683Y51697I-4916J-3449D01*
G03X35249Y53094I6J1570D01*
G02X38828Y51224I2153J-239D01*
G37*
G36*
G01X196217Y32322D02*
G03X197003Y31693I769J156D01*
G02X194924Y29096I44J-2166D01*
G03X194139Y29724I-769J-156D01*
G02X196217Y32322I-44J2166D01*
G37*
G36*
G01X168385Y186395D02*
G02X164971Y186534I-1653J1400D01*
G03X162737Y186865I-1277J-914D01*
G02X163179Y189844I-1320J1717D01*
G03X165412Y189513I1277J914D01*
G02X168161Y189424I1320J-1717D01*
G03X170394Y189589I1035J1180D01*
G02X170619Y186561I1653J-1400D01*
G03X168385Y186395I-1035J-1180D01*
G37*
G36*
G01X107543Y166879D02*
G02X105637Y169478I-2120J444D01*
G03X107329Y170719I155J1562D01*
G02X109235Y168120I2120J-444D01*
G03X107543Y166879I-155J-1562D01*
G37*
G36*
G01X62419Y92309D02*
G02X58841I-1789J-2097D01*
G03Y94698I-1019J1194D01*
G02X62419I1789J2097D01*
G03Y92309I1019J-1194D01*
G37*
G36*
G01X166777Y33464D02*
X166728Y32731D01*
G02X162406I-2161J143D01*
G01X162357Y33464D01*
X110235D01*
Y47243D01*
X105854D01*
G03X104304Y45423I0J-1570D01*
G02X100027I-2139J-344D01*
G03X98477Y47243I-1550J250D01*
G01X67913D01*
Y60654D01*
G03X66506Y62216I-1570J0D01*
G02X65761Y62434I226J2154D01*
G03X63776Y61937I-704J-1403D01*
G02X60586Y64823I-1768J1252D01*
G03X60691Y65896I-516J592D01*
G02X64515Y67699I1711J1328D01*
G03X66335Y66500I1532J344D01*
G02X66506Y66524I396J-2130D01*
G03X67913Y68086I-164J1561D01*
G01Y70867D01*
X101024D01*
G02X104686Y71041I1929J-1969D01*
G01X104902Y70867D01*
X105891D01*
X113188Y78164D01*
Y82292D01*
G03X111545Y83861I-1570J0D01*
G02Y89368I-128J2754D01*
G03X113188Y90936I73J1568D01*
G01Y95936D01*
X112752Y96152D01*
G02Y101092I1224J2470D01*
G01X113188Y101308D01*
Y105581D01*
X112752Y105798D01*
G02X115709Y110411I1224J2470D01*
G01X115925Y110237D01*
X117125D01*
Y118111D01*
X119094D01*
Y145194D01*
X118518Y145353D01*
G02Y149529I577J2088D01*
G01X119094Y149688D01*
Y163387D01*
X126055D01*
X126191Y163439D01*
G02X127746I778J-2022D01*
G01X127882Y163387D01*
X135941D01*
G03X137506Y165082I0J1570D01*
G02X141824I2159J174D01*
G03X143389Y163387I1565J-126D01*
G01X147834D01*
Y164172D01*
G02X152166I2166J1D01*
G01Y163387D01*
X158973D01*
G03X160538Y165082I0J1570D01*
G02X164856I2159J174D01*
G03X166421Y163387I1565J-126D01*
G01X183072D01*
Y131891D01*
X229331D01*
Y121064D01*
X256891D01*
Y120075D01*
X257826D01*
X257966Y120130D01*
G02X261159Y115474I1069J-2690D01*
G03Y114407I576J-533D01*
G02Y110474I-2124J-1967D01*
G03Y109407I576J-533D01*
G02Y105474I-2124J-1967D01*
G03Y104407I576J-533D01*
G02Y100474I-2124J-1967D01*
G03Y99407I576J-533D01*
G02X258663Y94570I-2124J-1967D01*
G03X256891Y93013I-202J-1557D01*
G01Y85129D01*
G03X258533Y83561I1570J0D01*
G02Y78054I128J-2754D01*
G03X256891Y76485I-73J-1568D01*
G01Y62007D01*
X239366D01*
G03X237796Y60435I0J-1570D01*
G02X234518Y58574I-2166J-2D01*
G03X232450Y58161I-806J-1347D01*
G02X228924Y60677I-1741J1288D01*
G03Y61567I-647J445D01*
G02X230565Y64957I1784J1228D01*
G03X231298Y65740I-52J783D01*
G01Y70458D01*
X228923Y72834D01*
X223993D01*
G03X222430Y71120I0J-1570D01*
G02X217472Y72510I-2745J-254D01*
G01X217876Y73054D01*
X207269Y83661D01*
X204148D01*
X202638Y82150D01*
X202578Y82013D01*
G02X201452Y80887I-1987J861D01*
G01X201315Y80827D01*
X200788Y80301D01*
Y79186D01*
X201768D01*
X201940Y79277D01*
G02X202608Y75224I1013J-1915D01*
G03X200788Y73674I-250J-1550D01*
G01Y62584D01*
X176182Y37978D01*
Y33464D01*
X166777D01*
G37*
G36*
G01X181329Y30041D02*
G02X181087Y33180I-1604J1455D01*
G03X183238Y33345I988J1220D01*
G02X183480Y30206I1604J-1455D01*
G03X181329Y30041I-988J-1220D01*
G37*
G36*
G01X204650Y5373D02*
X195373D01*
Y14627D01*
X204650D01*
G03X207160Y13653I1547J266D01*
G02X213733Y12733I2840J-3653D01*
G03X216267I1267J928D01*
G02X223733I3733J-2733D01*
G03X226267I1267J928D01*
G02X233733I3733J-2733D01*
G03X236267I1267J928D01*
G02X243733I3733J-2733D01*
G03X246267I1267J928D01*
G02Y7267I3733J-2733D01*
G03X243733I-1267J-928D01*
G02X236267I-3733J2733D01*
G03X233733I-1267J-928D01*
G02X226267I-3733J2733D01*
G03X223733I-1267J-928D01*
G02X216267I-3733J2733D01*
G03X213733I-1267J-928D01*
G02X207160Y6347I-3733J2733D01*
G03X204650Y5373I-963J-1240D01*
G37*
G36*
G01X114650D02*
X105373D01*
Y14627D01*
X114650D01*
G03X117160Y13653I1547J266D01*
G02X123733Y12733I2840J-3653D01*
G03X126267I1267J928D01*
G02X133733I3733J-2733D01*
G03X136267I1267J928D01*
G02X143733I3733J-2733D01*
G03X146267I1267J928D01*
G02X153733I3733J-2733D01*
G03X156267I1267J928D01*
G02X163733I3733J-2733D01*
G03X166267I1267J928D01*
G02X173733I3733J-2733D01*
G03X176267I1267J928D01*
G02Y7267I3733J-2733D01*
G03X173733I-1267J-928D01*
G02X166267I-3733J2733D01*
G03X163733I-1267J-928D01*
G02X156267I-3733J2733D01*
G03X153733I-1267J-928D01*
G02X146267I-3733J2733D01*
G03X143733I-1267J-928D01*
G02X136267I-3733J2733D01*
G03X133733I-1267J-928D01*
G02X126267I-3733J2733D01*
G03X123733I-1267J-928D01*
G02X117160Y6347I-3733J2733D01*
G03X114650Y5373I-963J-1240D01*
G37*
G36*
G01X31998Y190256D02*
G02X28784Y186425I2609J-5452D01*
G03X27475Y188403I-1512J421D01*
G02X26651Y188688I281J2148D01*
G03X24748Y188457I-801J-1350D01*
G02X24333Y191863I-1520J1543D01*
G03X26236Y192094I801J1350D01*
G02X29822Y191201I1520J-1543D01*
G03X31998Y190256I1498J471D01*
G37*
G54D13*
X36500Y88500D03*
X43898Y90240D03*
X227000Y176000D03*
X25591Y99508D03*
X28937Y63386D03*
X25591Y112106D03*
X46260Y33563D03*
X44488Y124803D03*
X58071Y76772D03*
X72047Y176575D03*
X113484Y132677D03*
X150984Y189961D03*
X146260Y177362D03*
X184843Y39370D03*
X180118Y189173D03*
X205906Y34843D03*
X197835Y37402D03*
X194094Y42717D03*
X218307Y37402D03*
X224213Y36811D03*
X215748Y64567D03*
X237205Y137598D03*
X230118Y144685D03*
X48677Y83311D03*
X43500Y73000D03*
X19374Y203626D03*
X43000Y103500D03*
G54D15*
X17717Y57087D03*
X39370Y113189D03*
X25787Y119685D03*
X89764Y171850D03*
X207677Y68110D03*
G54D14*
X24606Y32700D03*
X33661Y19708D03*
G54D16*
X34606Y126220D03*
G54D17*
X50118Y143031D03*
Y153031D03*
Y173031D03*
Y163031D03*
X60118Y138031D03*
Y148031D03*
Y158031D03*
Y168031D03*
G54D18*
X16339Y99695D03*
%LPD*%
G75*
G36*
G01X111220Y47244D02*
Y48228D01*
X105551D01*
G02X104128Y50462I0J1570D01*
G03X100202I-1963J916D01*
G02X98780Y48228I-1423J-664D01*
G01X68898D01*
Y64311D01*
X68898Y64320D01*
G03Y64420I-2166J50D01*
G01X68898Y64429D01*
Y69882D01*
X98666D01*
G02X100221Y68524I0J-1570D01*
G03X105709Y68951I2731J373D01*
G01X105702Y69285D01*
X114173Y77756D01*
Y82815D01*
X114174Y82824D01*
G03Y82924I-2166J50D01*
G01X114173Y82933D01*
Y86556D01*
G03Y86672I-2756J58D01*
G01Y95810D01*
X114741Y95973D01*
G03Y101271I-764J2649D01*
G01X114173Y101434D01*
Y105456D01*
X114741Y105619D01*
G03X116708Y107894I-764J2649D01*
G02X118263Y109252I1556J-213D01*
G01X126969D01*
Y106776D01*
X126863Y106594D01*
G03X126586Y105737I1877J-1082D01*
G02X125024Y104331I-1562J163D01*
G01X122047D01*
Y97441D01*
X123031D01*
Y61024D01*
X116142D01*
Y47244D01*
X114035D01*
X114026Y47244D01*
G03X113926I-50J-2166D01*
G01X113917Y47244D01*
X111220D01*
G37*
G36*
G01X199803Y80810D02*
Y62992D01*
X177012Y40201D01*
G02X174365Y40992I-1110J1110D01*
G03X173046Y38539I-2121J-441D01*
G02X175197Y37080I581J-1459D01*
G01Y34449D01*
X166077D01*
X165868Y34606D01*
G03X163266I-1301J-1732D01*
G01X163057Y34449D01*
X111220D01*
Y46259D01*
X117127D01*
Y60039D01*
X124017D01*
Y98426D01*
X123032D01*
Y103346D01*
X128740D01*
G03X128739Y107678I0J2166D01*
G01X127954Y107678D01*
Y110237D01*
X118110D01*
Y117126D01*
X119879D01*
Y117125D01*
X128936D01*
Y115157D01*
X137548D01*
X137782Y114816D01*
G03X138880Y118098I1785J1227D01*
G02X136812Y119587I-498J1489D01*
G01Y129920D01*
X183072D01*
Y130906D01*
X186167D01*
G02X187722Y129119I0J-1570D01*
G03X193183I2730J-379D01*
G02X194738Y130906I1555J216D01*
G01X207883D01*
G02X209451Y129251I0J-1570D01*
G03X213777I2163J-117D01*
G02X215345Y130906I1568J85D01*
G01X228346D01*
Y120079D01*
X255906D01*
Y116895D01*
G02X254230Y115329I-1570J0D01*
G03X251912Y110474I-194J-2888D01*
G02Y109407I-576J-533D01*
G03Y105474I2124J-1967D01*
G02Y104407I-576J-533D01*
G03Y100474I2124J-1967D01*
G02Y99407I-576J-533D01*
G03X254230Y94553I2124J-1966D01*
G02X255906Y92987I105J-1567D01*
G01Y80853D01*
G03Y80761I2756J-46D01*
G01Y70450D01*
G02X254191Y68887I-1570J0D01*
G03X251370Y65135I-254J-2745D01*
G02X249909Y62992I-1462J-573D01*
G01X232936D01*
X232752Y63516D01*
G03X232441Y64096I-2043J-721D01*
G01X232283Y64306D01*
Y70866D01*
X229331Y73819D01*
X218504D01*
X207677Y84646D01*
X203717D01*
G02X201858Y84630I-940J1258D01*
G03X199436Y81041I-1268J-1756D01*
G01X199803Y80810D01*
G37*
G36*
G01X129922Y116143D02*
Y118111D01*
X120079D01*
Y145472D01*
X120393Y145707D01*
G03Y149175I-1299J1734D01*
G01X120079Y149410D01*
Y152584D01*
G02X121816Y154145I1570J0D01*
G03Y158453I231J2154D01*
G02X120079Y160014I-167J1561D01*
G01Y162402D01*
X123278D01*
G02X124829Y161078I0J-1570D01*
G03X129108I2139J340D01*
G02X130659Y162402I1551J-246D01*
G01X130965D01*
G02X132346Y160085I0J-1570D01*
G03X132126Y159473I1905J-1031D01*
G02X131446Y158845I-770J152D01*
G03X129741Y155754I247J-2152D01*
G02X129374Y154707I-707J-340D01*
G03X128524Y151537I941J-1951D01*
G02X128028Y149304I-1298J-883D01*
G03X130924Y148660I1106J-1863D01*
G02X131421Y150893I1298J883D01*
G03X132267Y153694I-1106J1863D01*
G02X132634Y154742I707J340D01*
G03X133819Y156275I-941J1951D01*
G02X134499Y156903I770J-152D01*
G03X136157Y160085I-247J2152D01*
G02X137539Y162402I1381J746D01*
G01X139823D01*
G02X141205Y160085I0J-1570D01*
G03X144423Y157332I1906J-1030D01*
G02X146325I951J-1249D01*
G03X146439Y157251I1314J1723D01*
G02X146753Y156361I-434J-654D01*
G03X150018Y157513I2066J-652D01*
G02X149704Y158403I434J654D01*
G03X149614Y159943I-2066J652D01*
G02X150606Y162094I1432J644D01*
G03X151082Y162296I-606J2080D01*
G01X151264Y162402D01*
X164986D01*
G02X166547Y160664I0J-1570D01*
G03X170855I2154J-231D01*
G02X172416Y162402I1561J167D01*
G01X182087D01*
Y131891D01*
X182086D01*
Y130906D01*
X172825D01*
G02X171257Y132561I0J1570D01*
G03X166931I-2163J117D01*
G02X165364Y130906I-1568J-84D01*
G01X164951D01*
G02X163383Y132561I0J1570D01*
G03X159057I-2163J117D01*
G02X157490Y130906I-1568J-84D01*
G01X153140D01*
G02X151572Y132561I0J1570D01*
G03X147246I-2163J117D01*
G02X145679Y130906I-1568J-84D01*
G01X141723D01*
G02X140155Y132561I0J1570D01*
G03X135826Y132677I-2163J117D01*
G01Y116143D01*
X129922D01*
G37*
%LPC*%
G75*
G36*
G01X80292Y62176D02*
G03X79349Y62124I-436J-653D01*
G02X79157Y65580I-1396J1656D01*
G03X80100Y65632I436J653D01*
G02X80292Y62176I1396J-1656D01*
G37*
G36*
G01X220043Y116396D02*
G03X219152Y116292I-370J-693D01*
G02X215914Y119115I-1436J1622D01*
G03X215878Y120037I-653J435D01*
G02X219711Y121761I1701J1341D01*
G03X221175Y120470I1545J278D01*
G02X220043Y116396I-112J-2163D01*
G37*
G36*
G01X174450Y104171D02*
G02X174452Y107246I-1525J1538D01*
G02X174450Y104171I1525J-1538D01*
G37*
G36*
G01X183016Y78013D02*
G02X180144Y79111I-1981J-876D01*
G02X179961Y79893I1981J876D01*
G03X179465Y80589I-784J-35D01*
G02X180573Y84747I795J2015D01*
G02X184265Y82904I2141J-330D01*
G03X184017Y81043I1123J-1097D01*
G02X183016Y78013I-1892J-1055D01*
G37*
G36*
G01X153057Y37694D02*
G03X152061I-498J-607D01*
G02Y41046I-1372J1676D01*
G03X153057I498J607D01*
G02Y37694I1372J-1676D01*
G37*
G36*
G01X168251Y98182D02*
G02X166839Y94956I450J-2119D01*
G03X166001Y95322I-675J-401D01*
G02X164228Y99156I-450J2119D01*
G03X164286Y101597I-959J1244D01*
G02X167011Y101533I1402J1651D01*
G03X166953Y99092I959J-1244D01*
G02X167413Y98548I-1402J-1652D01*
G03X168251Y98182I675J401D01*
G37*
G36*
G01X179132Y90072D02*
G02X175529Y88342I-2163J-112D01*
G03X173544Y88424I-1043J-1173D01*
G02X174032Y91381I-1300J1733D01*
G03X175289Y91328I648J443D01*
G02X175561Y91607I1679J-1369D01*
G03X175362Y92924I-510J597D01*
G02X175601Y96988I860J1988D01*
G03X176721Y98528I-449J1504D01*
G02X179269Y100709I2166J49D01*
G02X181016Y98179I2129J-398D01*
G02X180594Y97243I-2129J398D01*
G03X181034Y95995I618J-484D01*
G02X180633Y91722I-494J-2109D01*
G03X179132Y90072I67J-1569D01*
G37*
G36*
G01X151837Y83267D02*
G02X149683Y80526I-65J-2165D01*
G03X148950Y81103I-757J-208D01*
G02X147080Y84239I65J2165D01*
G03X146583Y86224I-1403J704D01*
G02X145924Y89012I1252J1768D01*
G03X145593Y90915I-1385J739D01*
G02X145303Y93804I1455J1605D01*
G03Y95665I-1265J931D01*
G02X148130Y98825I1745J1284D01*
G03X150198Y99280I785J1360D01*
G02X150885Y96156I1770J-1248D01*
G03X148818Y95700I-785J-1360D01*
G02X148792Y95665I-1760J1263D01*
G03Y93804I1265J-931D01*
G02X148958Y91500I-1745J-1284D01*
G03X149289Y89597I1385J-739D01*
G02X149771Y87021I-1455J-1605D01*
G03X150267Y85036I1403J-704D01*
G02X151104Y83844I-1252J-1768D01*
G03X151837Y83267I757J208D01*
G37*
G36*
G01X174324Y71754D02*
G02X172481Y68860I194J-2157D01*
G03X170863Y69890I-1477J-534D01*
G02X172706Y72784I-194J2157D01*
G03X174324Y71754I1477J534D01*
G37*
G36*
G01X190748Y68545D02*
G02X189068Y71324I-2067J648D01*
G03X190846Y72400I281J1545D01*
G02X192527Y69620I2067J-648D01*
G03X190748Y68545I-281J-1545D01*
G37*
G36*
G01X122836Y40552D02*
G02X120779Y37704I-2J-2166D01*
G03X119290Y38779I-1490J-495D01*
G02X121347Y41627I2J2166D01*
G03X122836Y40552I1490J495D01*
G37*
G54D13*
X89961Y64173D03*
X132150Y52496D03*
X133587Y65157D03*
X132209Y74606D03*
X137008Y78346D03*
X136220Y96260D03*
X155512Y70472D03*
X146260Y75984D03*
X155118Y92913D03*
X140945Y108268D03*
X160827Y76378D03*
X165945Y115551D03*
X174606Y51575D03*
X174409Y76969D03*
X178346Y115945D03*
X207185Y88386D03*
X195472Y107480D03*
X212992Y87205D03*
X209843Y95866D03*
X159055Y154331D03*
X168701Y153543D03*
G54D15*
X102976Y59055D03*
X190453Y119685D03*
X227165Y82677D03*
%LPD*%
G75*
G54D10*
X34646Y62598D03*
X38650Y74650D03*
X48228Y76772D03*
X71063Y67224D03*
X78346Y83661D03*
X83268D03*
X88189D03*
Y88583D03*
X83268D03*
X78346D03*
Y103346D03*
Y98425D03*
Y93504D03*
X83268D03*
Y98425D03*
Y103346D03*
X88189D03*
Y93504D03*
Y98425D03*
X93110Y83661D03*
X98031D03*
Y88583D03*
X93110D03*
X98031Y103346D03*
Y98425D03*
Y93504D03*
X93110D03*
Y98425D03*
Y103346D03*
X113976Y45079D03*
X114150Y49213D03*
X112008Y82874D03*
X122047Y160433D03*
X137130Y65157D03*
X132209Y71063D03*
X124409Y100394D03*
X125984Y140650D03*
X140945Y111811D03*
X145866Y132677D03*
X141535D03*
X171654Y36417D03*
X158071Y132677D03*
X165551D03*
X181496Y54724D03*
X179724Y141732D03*
X192913Y81791D03*
X205020Y82382D03*
X195472Y103937D03*
X198500Y97500D03*
X240945Y171457D03*
G54D11*
X48425Y116142D03*
X73425Y88583D03*
Y83661D03*
Y103346D03*
Y98425D03*
Y93504D03*
X74409Y78740D03*
X89173D03*
X84252D03*
X79331D03*
X89173Y113189D03*
Y108268D03*
X99016Y78740D03*
X94094D03*
X99016Y113189D03*
X94094D03*
Y108268D03*
X99016D03*
X119610Y52953D03*
X120669Y115354D03*
X107382Y114347D03*
X132480Y106890D03*
X125000D03*
X132480Y118701D03*
X168996Y119685D03*
Y128740D03*
X195866Y68110D03*
X219685Y82677D03*
X227165Y70866D03*
X239370Y80807D03*
X242126Y66142D03*
G54D12*
X254035Y117441D03*
M02*
