G04 ================== begin FILE IDENTIFICATION RECORD ==================*
G04 Layout Name:  netduino_plus2_20Dec16.brd*
G04 Film Name:    NC_DRL_1-4*
G04 File Format:  Gerber RS274X*
G04 File Origin:  Cadence Allegro 16.6-2015-S069*
G04 Origin Date:  Tue Dec 20 08:56:26 2016*
G04 *
G04 Layer:  MANUFACTURING/NCLEGEND-1-4*
G04 *
G04 Offset:    (0.0000 0.0000)*
G04 Mirror:    No*
G04 Mode:      Positive*
G04 Rotation:  0*
G04 FullContactRelief:  No*
G04 UndefLineWidth:     0.1270*
G04 ================== end FILE IDENTIFICATION RECORD ====================*
%FSLAX25Y25*MOIN*%
%IR0*IPPOS*OFA0.00000B0.00000*MIA0B0*SFA1.00000B1.00000*%
%AMMACRO13*
1,1,.005,.019685,0.0*
20,1,.005,.019685,0.0,-.019685,0.0,0.0*
1,1,.005,-.019685,0.0*
1,1,.005,0.0,.019685*
20,1,.005,0.0,.019685,0.0,-.019685,0.0*
1,1,.005,0.0,-.019685*
1,1,.005,.012469,.0105*
20,1,.005,.012469,.0105,.01378,.011484,0.0*
1,1,.005,.01378,.011484*
20,1,.005,.01378,.011484,.014764,.013122,0.0*
1,1,.005,.014764,.013122*
20,1,.005,.014764,.013122,.015421,.015421,0.0*
1,1,.005,.015421,.015421*
20,1,.005,.015421,.015421,.014764,.01739,0.0*
1,1,.005,.014764,.01739*
20,1,.005,.014764,.01739,.013453,.018701,0.0*
1,1,.005,.013453,.018701*
20,1,.005,.013453,.018701,.011154,.019685,0.0*
1,1,.005,.011154,.019685*
20,1,.005,.011154,.019685,.002295,.019685,0.0*
1,1,.005,.002295,.019685*
20,1,.005,.002295,.019685,.002295,0.0,0.0*
1,1,.005,.002295,0.0*
20,1,.005,.002295,0.0,.013122,0.0,0.0*
1,1,.005,.013122,0.0*
20,1,.005,.013122,0.0,.015421,.001311,0.0*
1,1,.005,.015421,.001311*
20,1,.005,.015421,.001311,.016732,.00328,0.0*
1,1,.005,.016732,.00328*
20,1,.005,.016732,.00328,.01739,.005579,0.0*
1,1,.005,.01739,.005579*
20,1,.005,.01739,.005579,.016732,.007874,0.0*
1,1,.005,.016732,.007874*
20,1,.005,.016732,.007874,.014764,.009843,0.0*
1,1,.005,.014764,.009843*
20,1,.005,.014764,.009843,.012469,.0105,0.0*
1,1,.005,.012469,.0105*
20,1,.005,.012469,.0105,.002295,.0105,0.0*
1,1,.005,.002295,.0105*
%
%ADD13MACRO13*%
%AMMACRO21*
1,1,.005,.019685,0.0*
20,1,.005,.019685,0.0,-.019685,0.0,0.0*
1,1,.005,-.019685,0.0*
1,1,.005,0.0,.019685*
20,1,.005,0.0,.019685,0.0,-.019685,0.0*
1,1,.005,0.0,-.019685*
1,1,.005,.017059,.018043*
20,1,.005,.017059,.018043,.015091,.019028,0.0*
1,1,.005,.015091,.019028*
20,1,.005,.015091,.019028,.012795,.019685,0.0*
1,1,.005,.012795,.019685*
20,1,.005,.012795,.019685,.010169,.019685,0.0*
1,1,.005,.010169,.019685*
20,1,.005,.010169,.019685,.007217,.018701,0.0*
1,1,.005,.007217,.018701*
20,1,.005,.007217,.018701,.004921,.017059,0.0*
1,1,.005,.004921,.017059*
20,1,.005,.004921,.017059,.00328,.015091,0.0*
1,1,.005,.00328,.015091*
20,1,.005,.00328,.015091,.001969,.011811,0.0*
1,1,.005,.001969,.011811*
20,1,.005,.001969,.011811,.001642,.008858,0.0*
1,1,.005,.001642,.008858*
20,1,.005,.001642,.008858,.002295,.005906,0.0*
1,1,.005,.002295,.005906*
20,1,.005,.002295,.005906,.00328,.003937,0.0*
1,1,.005,.00328,.003937*
20,1,.005,.00328,.003937,.005248,.001969,0.0*
1,1,.005,.005248,.001969*
20,1,.005,.005248,.001969,.007547,.000657,0.0*
1,1,.005,.007547,.000657*
20,1,.005,.007547,.000657,.009843,0.0,0.0*
1,1,.005,.009843,0.0*
20,1,.005,.009843,0.0,.012138,0.0,0.0*
1,1,.005,.012138,0.0*
20,1,.005,.012138,0.0,.014437,.000657,0.0*
1,1,.005,.014437,.000657*
20,1,.005,.014437,.000657,.016406,.001642,0.0*
1,1,.005,.016406,.001642*
20,1,.005,.016406,.001642,.018043,.002953,0.0*
1,1,.005,.018043,.002953*
%
%ADD21MACRO21*%
%AMMACRO20*
1,1,.005,.019685,0.0*
20,1,.005,.019685,0.0,-.019685,0.0,0.0*
1,1,.005,-.019685,0.0*
1,1,.005,0.0,.019685*
20,1,.005,0.0,.019685,0.0,-.019685,0.0*
1,1,.005,0.0,-.019685*
1,1,.005,.002626,0.0*
20,1,.005,.002626,0.0,.002626,.019685,0.0*
1,1,.005,.002626,.019685*
20,1,.005,.002626,.019685,.009185,.019685,0.0*
1,1,.005,.009185,.019685*
20,1,.005,.009185,.019685,.011811,.018701,0.0*
1,1,.005,.011811,.018701*
20,1,.005,.011811,.018701,.01378,.01739,0.0*
1,1,.005,.01378,.01739*
20,1,.005,.01378,.01739,.015421,.015421,0.0*
1,1,.005,.015421,.015421*
20,1,.005,.015421,.015421,.016732,.013122,0.0*
1,1,.005,.016732,.013122*
20,1,.005,.016732,.013122,.017059,.009843,0.0*
1,1,.005,.017059,.009843*
20,1,.005,.017059,.009843,.016732,.006563,0.0*
1,1,.005,.016732,.006563*
20,1,.005,.016732,.006563,.015421,.004264,0.0*
1,1,.005,.015421,.004264*
20,1,.005,.015421,.004264,.01378,.002295,0.0*
1,1,.005,.01378,.002295*
20,1,.005,.01378,.002295,.011811,.000984,0.0*
1,1,.005,.011811,.000984*
20,1,.005,.011811,.000984,.009185,0.0,0.0*
1,1,.005,.009185,0.0*
20,1,.005,.009185,0.0,.002626,0.0,0.0*
1,1,.005,.002626,0.0*
%
%ADD20MACRO20*%
%AMMACRO18*
1,1,.005,.019685,0.0*
20,1,.005,.019685,0.0,-.019685,0.0,0.0*
1,1,.005,-.019685,0.0*
1,1,.005,0.0,.019685*
20,1,.005,0.0,.019685,0.0,-.019685,0.0*
1,1,.005,0.0,-.019685*
1,1,.005,.011811,.009843*
20,1,.005,.011811,.009843,.018374,.009843,0.0*
1,1,.005,.018374,.009843*
20,1,.005,.018374,.009843,.018374,.003937,0.0*
1,1,.005,.018374,.003937*
20,1,.005,.018374,.003937,.016406,.001969,0.0*
1,1,.005,.016406,.001969*
20,1,.005,.016406,.001969,.014106,.000657,0.0*
1,1,.005,.014106,.000657*
20,1,.005,.014106,.000657,.010827,0.0,0.0*
1,1,.005,.010827,0.0*
20,1,.005,.010827,0.0,.007547,.000657,0.0*
1,1,.005,.007547,.000657*
20,1,.005,.007547,.000657,.005248,.001969,0.0*
1,1,.005,.005248,.001969*
20,1,.005,.005248,.001969,.00328,.003937,0.0*
1,1,.005,.00328,.003937*
20,1,.005,.00328,.003937,.001969,.006232,0.0*
1,1,.005,.001969,.006232*
20,1,.005,.001969,.006232,.001311,.008858,0.0*
1,1,.005,.001311,.008858*
20,1,.005,.001311,.008858,.001311,.011154,0.0*
1,1,.005,.001311,.011154*
20,1,.005,.001311,.011154,.001969,.013122,0.0*
1,1,.005,.001969,.013122*
20,1,.005,.001969,.013122,.00328,.015421,0.0*
1,1,.005,.00328,.015421*
20,1,.005,.00328,.015421,.005248,.01739,0.0*
1,1,.005,.005248,.01739*
20,1,.005,.005248,.01739,.007217,.018701,0.0*
1,1,.005,.007217,.018701*
20,1,.005,.007217,.018701,.009843,.019685,0.0*
1,1,.005,.009843,.019685*
20,1,.005,.009843,.019685,.012138,.019685,0.0*
1,1,.005,.012138,.019685*
20,1,.005,.012138,.019685,.014764,.019028,0.0*
1,1,.005,.014764,.019028*
20,1,.005,.014764,.019028,.016732,.017717,0.0*
1,1,.005,.016732,.017717*
%
%ADD18MACRO18*%
%AMMACRO17*
1,1,.005,.019685,0.0*
20,1,.005,.019685,0.0,-.019685,0.0,0.0*
1,1,.005,-.019685,0.0*
1,1,.005,0.0,.019685*
20,1,.005,0.0,.019685,0.0,-.019685,0.0*
1,1,.005,0.0,-.019685*
1,1,.005,.00328,.003937*
20,1,.005,.00328,.003937,.004921,.001969,0.0*
1,1,.005,.004921,.001969*
20,1,.005,.004921,.001969,.00689,.000657,0.0*
1,1,.005,.00689,.000657*
20,1,.005,.00689,.000657,.009185,0.0,0.0*
1,1,.005,.009185,0.0*
20,1,.005,.009185,0.0,.011811,.000657,0.0*
1,1,.005,.011811,.000657*
20,1,.005,.011811,.000657,.01378,.001969,0.0*
1,1,.005,.01378,.001969*
20,1,.005,.01378,.001969,.015748,.003937,0.0*
1,1,.005,.015748,.003937*
20,1,.005,.015748,.003937,.016406,.006563,0.0*
1,1,.005,.016406,.006563*
20,1,.005,.016406,.006563,.016406,.019685,0.0*
1,1,.005,.016406,.019685*
%
%ADD17MACRO17*%
%AMMACRO12*
1,1,.005,.03937,0.0*
20,1,.005,.03937,0.0,-.03937,0.0,0.0*
1,1,.005,-.03937,0.0*
1,1,.005,0.0,.03937*
20,1,.005,0.0,.03937,0.0,-.03937,0.0*
1,1,.005,0.0,-.03937*
1,1,.005,.005248,0.0*
20,1,.005,.005248,0.0,.005248,.03937,0.0*
1,1,.005,.005248,.03937*
1,1,.005,.030185,.03937*
20,1,.005,.030185,.03937,.005248,.015091,0.0*
1,1,.005,.005248,.015091*
1,1,.005,.034122,0.0*
20,1,.005,.034122,0.0,.016406,.026244,0.0*
1,1,.005,.016406,.026244*
%
%ADD12MACRO12*%
%AMMACRO16*
1,1,.005,.009843,0.0*
20,1,.005,.009843,0.0,-.009843,0.0,0.0*
1,1,.005,-.009843,0.0*
1,1,.005,0.0,.009843*
20,1,.005,0.0,.009843,0.0,-.009843,0.0*
1,1,.005,0.0,-.009843*
1,1,.005,.000819,0.0*
20,1,.005,.000819,0.0,.004921,.009843,0.0*
1,1,.005,.004921,.009843*
20,1,.005,.004921,.009843,.009024,0.0,0.0*
1,1,.005,.009024,0.0*
1,1,.005,.007547,.003445*
20,1,.005,.007547,.003445,.002295,.003445,0.0*
1,1,.005,.002295,.003445*
%
%ADD16MACRO16*%
%AMMACRO15*
1,1,.005,.03937,0.0*
20,1,.005,.03937,0.0,-.03937,0.0,0.0*
1,1,.005,-.03937,0.0*
1,1,.005,0.0,.03937*
20,1,.005,0.0,.03937,0.0,-.03937,0.0*
1,1,.005,0.0,-.03937*
1,1,.005,.002626,0.0*
20,1,.005,.002626,0.0,.002626,.03937,0.0*
1,1,.005,.002626,.03937*
20,1,.005,.002626,.03937,.019685,.006563,0.0*
1,1,.005,.019685,.006563*
20,1,.005,.019685,.006563,.036744,.03937,0.0*
1,1,.005,.036744,.03937*
20,1,.005,.036744,.03937,.036744,0.0,0.0*
1,1,.005,.036744,0.0*
%
%ADD15MACRO15*%
%AMMACRO14*
1,1,.005,-.014764,-.004921*
20,1,.005,-.014764,-.004921,-.014764,.004921,0.0*
1,1,.005,-.014764,.004921*
20,1,.005,-.014764,.004921,-.014539,.007485,0.0*
1,1,.005,-.014539,.007485*
20,1,.005,-.014539,.007485,-.013873,.009971,0.0*
1,1,.005,-.013873,.009971*
20,1,.005,-.013873,.009971,-.012786,.012303,0.0*
1,1,.005,-.012786,.012303*
20,1,.005,-.012786,.012303,-.01131,.014411,0.0*
1,1,.005,-.01131,.014411*
20,1,.005,-.01131,.014411,-.00949,.016231,0.0*
1,1,.005,-.00949,.016231*
20,1,.005,-.00949,.016231,-.007382,.017707,0.0*
1,1,.005,-.007382,.017707*
20,1,.005,-.007382,.017707,-.00505,.018795,0.0*
1,1,.005,-.00505,.018795*
20,1,.005,-.00505,.018795,-.002564,.019461,0.0*
1,1,.005,-.002564,.019461*
20,1,.005,-.002564,.019461,0.0,.019685,0.0*
1,1,.005,0.0,.019685*
20,1,.005,0.0,.019685,.002564,.019461,0.0*
1,1,.005,.002564,.019461*
20,1,.005,.002564,.019461,.00505,.018795,0.0*
1,1,.005,.00505,.018795*
20,1,.005,.00505,.018795,.007382,.017707,0.0*
1,1,.005,.007382,.017707*
20,1,.005,.007382,.017707,.00949,.016231,0.0*
1,1,.005,.00949,.016231*
20,1,.005,.00949,.016231,.01131,.014411,0.0*
1,1,.005,.01131,.014411*
20,1,.005,.01131,.014411,.012786,.012303,0.0*
1,1,.005,.012786,.012303*
20,1,.005,.012786,.012303,.013873,.009971,0.0*
1,1,.005,.013873,.009971*
20,1,.005,.013873,.009971,.014539,.007485,0.0*
1,1,.005,.014539,.007485*
20,1,.005,.014539,.007485,.014764,.004921,0.0*
1,1,.005,.014764,.004921*
20,1,.005,.014764,.004921,.014764,-.004921,0.0*
1,1,.005,.014764,-.004921*
20,1,.005,.014764,-.004921,.014539,-.007485,0.0*
1,1,.005,.014539,-.007485*
20,1,.005,.014539,-.007485,.013873,-.009971,0.0*
1,1,.005,.013873,-.009971*
20,1,.005,.013873,-.009971,.012786,-.012303,0.0*
1,1,.005,.012786,-.012303*
20,1,.005,.012786,-.012303,.01131,-.014411,0.0*
1,1,.005,.01131,-.014411*
20,1,.005,.01131,-.014411,.00949,-.016231,0.0*
1,1,.005,.00949,-.016231*
20,1,.005,.00949,-.016231,.007382,-.017707,0.0*
1,1,.005,.007382,-.017707*
20,1,.005,.007382,-.017707,.00505,-.018795,0.0*
1,1,.005,.00505,-.018795*
20,1,.005,.00505,-.018795,.002564,-.019461,0.0*
1,1,.005,.002564,-.019461*
20,1,.005,.002564,-.019461,0.0,-.019685,0.0*
1,1,.005,0.0,-.019685*
20,1,.005,0.0,-.019685,-.002564,-.019461,0.0*
1,1,.005,-.002564,-.019461*
20,1,.005,-.002564,-.019461,-.00505,-.018795,0.0*
1,1,.005,-.00505,-.018795*
20,1,.005,-.00505,-.018795,-.007382,-.017707,0.0*
1,1,.005,-.007382,-.017707*
20,1,.005,-.007382,-.017707,-.00949,-.016231,0.0*
1,1,.005,-.00949,-.016231*
20,1,.005,-.00949,-.016231,-.01131,-.014411,0.0*
1,1,.005,-.01131,-.014411*
20,1,.005,-.01131,-.014411,-.012786,-.012303,0.0*
1,1,.005,-.012786,-.012303*
20,1,.005,-.012786,-.012303,-.013873,-.009971,0.0*
1,1,.005,-.013873,-.009971*
20,1,.005,-.013873,-.009971,-.014539,-.007485,0.0*
1,1,.005,-.014539,-.007485*
20,1,.005,-.014539,-.007485,-.014764,-.004921,0.0*
1,1,.005,-.014764,-.004921*
1,1,.005,-.005169,-.007382*
20,1,.005,-.005169,-.007382,-.005169,.007382,0.0*
1,1,.005,-.005169,.007382*
1,1,.005,.005169,.007382*
20,1,.005,.005169,.007382,.005169,-.007382,0.0*
1,1,.005,.005169,-.007382*
1,1,.005,.005169,0.0*
20,1,.005,.005169,0.0,-.005169,0.0,0.0*
1,1,.005,-.005169,0.0*
%
%ADD14MACRO14*%
%AMMACRO10*
1,1,.005,.03937,0.0*
20,1,.005,.03937,0.0,-.03937,0.0,0.0*
1,1,.005,-.03937,0.0*
1,1,.005,0.0,.03937*
20,1,.005,0.0,.03937,0.0,-.03937,0.0*
1,1,.005,0.0,-.03937*
1,1,.005,.004594,0.0*
20,1,.005,.004594,0.0,.004594,.03937,0.0*
1,1,.005,.004594,.03937*
20,1,.005,.004594,.03937,.034776,0.0,0.0*
1,1,.005,.034776,0.0*
20,1,.005,.034776,0.0,.034776,.03937,0.0*
1,1,.005,.034776,.03937*
%
%ADD10MACRO10*%
%AMMACRO19*
1,1,.005,.03937,0.0*
20,1,.005,.03937,0.0,-.03937,0.0,0.0*
1,1,.005,-.03937,0.0*
1,1,.005,0.0,.03937*
20,1,.005,0.0,.03937,0.0,-.03937,0.0*
1,1,.005,0.0,-.03937*
1,1,.005,.006563,0.0*
20,1,.005,.006563,0.0,.006563,.03937,0.0*
1,1,.005,.006563,.03937*
20,1,.005,.006563,.03937,.022311,.03937,0.0*
1,1,.005,.022311,.03937*
20,1,.005,.022311,.03937,.027559,.037402,0.0*
1,1,.005,.027559,.037402*
20,1,.005,.027559,.037402,.031496,.032807,0.0*
1,1,.005,.031496,.032807*
20,1,.005,.031496,.032807,.032807,.027559,0.0*
1,1,.005,.032807,.027559*
20,1,.005,.032807,.027559,.031496,.022311,0.0*
1,1,.005,.031496,.022311*
20,1,.005,.031496,.022311,.028217,.018374,0.0*
1,1,.005,.028217,.018374*
20,1,.005,.028217,.018374,.022311,.016402,0.0*
1,1,.005,.022311,.016402*
20,1,.005,.022311,.016402,.006563,.016402,0.0*
1,1,.005,.006563,.016402*
%
%ADD19MACRO19*%
%AMMACRO11*
1,1,.005,-.010827,.014764*
20,1,.005,-.010827,.014764,.010827,.014764,0.0*
1,1,.005,.010827,.014764*
20,1,.005,.010827,.014764,.01339,.014539,0.0*
1,1,.005,.01339,.014539*
20,1,.005,.01339,.014539,.015876,.013873,0.0*
1,1,.005,.015876,.013873*
20,1,.005,.015876,.013873,.018209,.012786,0.0*
1,1,.005,.018209,.012786*
20,1,.005,.018209,.012786,.020317,.01131,0.0*
1,1,.005,.020317,.01131*
20,1,.005,.020317,.01131,.022136,.00949,0.0*
1,1,.005,.022136,.00949*
20,1,.005,.022136,.00949,.023613,.007382,0.0*
1,1,.005,.023613,.007382*
20,1,.005,.023613,.007382,.0247,.00505,0.0*
1,1,.005,.0247,.00505*
20,1,.005,.0247,.00505,.025366,.002564,0.0*
1,1,.005,.025366,.002564*
20,1,.005,.025366,.002564,.025591,0.0,0.0*
1,1,.005,.025591,0.0*
20,1,.005,.025591,0.0,.025366,-.002564,0.0*
1,1,.005,.025366,-.002564*
20,1,.005,.025366,-.002564,.0247,-.00505,0.0*
1,1,.005,.0247,-.00505*
20,1,.005,.0247,-.00505,.023613,-.007382,0.0*
1,1,.005,.023613,-.007382*
20,1,.005,.023613,-.007382,.022136,-.00949,0.0*
1,1,.005,.022136,-.00949*
20,1,.005,.022136,-.00949,.020317,-.01131,0.0*
1,1,.005,.020317,-.01131*
20,1,.005,.020317,-.01131,.018209,-.012786,0.0*
1,1,.005,.018209,-.012786*
20,1,.005,.018209,-.012786,.015876,-.013873,0.0*
1,1,.005,.015876,-.013873*
20,1,.005,.015876,-.013873,.01339,-.014539,0.0*
1,1,.005,.01339,-.014539*
20,1,.005,.01339,-.014539,.010827,-.014764,0.0*
1,1,.005,.010827,-.014764*
20,1,.005,.010827,-.014764,-.010827,-.014764,0.0*
1,1,.005,-.010827,-.014764*
20,1,.005,-.010827,-.014764,-.01339,-.014539,0.0*
1,1,.005,-.01339,-.014539*
20,1,.005,-.01339,-.014539,-.015876,-.013873,0.0*
1,1,.005,-.015876,-.013873*
20,1,.005,-.015876,-.013873,-.018209,-.012786,0.0*
1,1,.005,-.018209,-.012786*
20,1,.005,-.018209,-.012786,-.020317,-.01131,0.0*
1,1,.005,-.020317,-.01131*
20,1,.005,-.020317,-.01131,-.022136,-.00949,0.0*
1,1,.005,-.022136,-.00949*
20,1,.005,-.022136,-.00949,-.023613,-.007382,0.0*
1,1,.005,-.023613,-.007382*
20,1,.005,-.023613,-.007382,-.0247,-.00505,0.0*
1,1,.005,-.0247,-.00505*
20,1,.005,-.0247,-.00505,-.025366,-.002564,0.0*
1,1,.005,-.025366,-.002564*
20,1,.005,-.025366,-.002564,-.025591,0.0,0.0*
1,1,.005,-.025591,0.0*
20,1,.005,-.025591,0.0,-.025366,.002564,0.0*
1,1,.005,-.025366,.002564*
20,1,.005,-.025366,.002564,-.0247,.00505,0.0*
1,1,.005,-.0247,.00505*
20,1,.005,-.0247,.00505,-.023613,.007382,0.0*
1,1,.005,-.023613,.007382*
20,1,.005,-.023613,.007382,-.022136,.00949,0.0*
1,1,.005,-.022136,.00949*
20,1,.005,-.022136,.00949,-.020317,.01131,0.0*
1,1,.005,-.020317,.01131*
20,1,.005,-.020317,.01131,-.018209,.012786,0.0*
1,1,.005,-.018209,.012786*
20,1,.005,-.018209,.012786,-.015876,.013873,0.0*
1,1,.005,-.015876,.013873*
20,1,.005,-.015876,.013873,-.01339,.014539,0.0*
1,1,.005,-.01339,.014539*
20,1,.005,-.01339,.014539,-.010827,.014764,0.0*
1,1,.005,-.010827,.014764*
1,1,.005,-.004921,-.004429*
20,1,.005,-.004921,-.004429,-.003689,-.005906,0.0*
1,1,.005,-.003689,-.005906*
20,1,.005,-.003689,-.005906,-.002217,-.00689,0.0*
1,1,.005,-.002217,-.00689*
20,1,.005,-.002217,-.00689,-.000492,-.007382,0.0*
1,1,.005,-.000492,-.007382*
20,1,.005,-.000492,-.007382,.001476,-.00689,0.0*
1,1,.005,.001476,-.00689*
20,1,.005,.001476,-.00689,.002953,-.005906,0.0*
1,1,.005,.002953,-.005906*
20,1,.005,.002953,-.005906,.004429,-.004429,0.0*
1,1,.005,.004429,-.004429*
20,1,.005,.004429,-.004429,.004921,-.002461,0.0*
1,1,.005,.004921,-.002461*
20,1,.005,.004921,-.002461,.004921,.007382,0.0*
1,1,.005,.004921,.007382*
%
%ADD11MACRO11*%
%ADD22C,.007087*%
%ADD23C,.005*%
G75*
%LPD*%
G75*
G54D10*
X8858Y32700D03*
X309449Y64764D03*
G54D11*
X4921Y76270D03*
Y103435D03*
X309449Y29331D03*
G54D20*
X74000Y200000D03*
X84000D03*
X94000D03*
X104000D03*
X120000Y10000D03*
X110000D03*
X114000Y200000D03*
X124000D03*
X140000Y10000D03*
X130000D03*
X134000Y200000D03*
X150000Y10000D03*
X144000Y200000D03*
X154000D03*
X170000Y10000D03*
X160000D03*
X164000Y200000D03*
X180000Y10000D03*
Y200000D03*
X190000D03*
X200000Y10000D03*
Y200000D03*
X220000Y10000D03*
X210000D03*
Y200000D03*
X220000D03*
X240000Y10000D03*
X230000D03*
Y200000D03*
X240000D03*
X250000Y10000D03*
Y200000D03*
X309449Y123819D03*
G54D12*
X24606Y32700D03*
X33661Y19708D03*
Y45692D03*
X309449Y88386D03*
G54D21*
X254035Y97441D03*
Y102441D03*
Y107441D03*
Y112441D03*
Y117441D03*
X259035Y97441D03*
Y102441D03*
Y107441D03*
Y112441D03*
Y117441D03*
X309449Y135630D03*
G54D22*
G01X298609Y167520D02*
Y172244D01*
X300604D01*
G01X299869Y169961D02*
X298609D01*
G01X302913Y172244D02*
X304173D01*
G01X303543D02*
Y167520D01*
G01X302913D02*
X304173D01*
G01X307795Y169882D02*
X308845D01*
Y168465D01*
X308530Y167992D01*
X308163Y167677D01*
X307638Y167520D01*
X307113Y167677D01*
X306745Y167992D01*
X306430Y168465D01*
X306220Y169016D01*
X306115Y169646D01*
Y170197D01*
X306220Y170669D01*
X306430Y171220D01*
X306745Y171693D01*
X307060Y172008D01*
X307480Y172244D01*
X307848D01*
X308268Y172087D01*
X308583Y171772D01*
G01X310263Y172244D02*
Y168858D01*
X310472Y168150D01*
X310893Y167677D01*
X311417Y167520D01*
X311942Y167677D01*
X312362Y168150D01*
X312572Y168858D01*
Y172244D01*
G01X314304Y167520D02*
Y172244D01*
X315617D01*
X316037Y172008D01*
X316299Y171693D01*
X316404Y171063D01*
X316299Y170433D01*
X315984Y170039D01*
X315617Y169803D01*
X314304D01*
G01X315617D02*
X316404Y167520D01*
G01X320341D02*
X318241D01*
Y172244D01*
X320341D01*
G01X319501Y169961D02*
X318241D01*
G01X339764Y38780D02*
Y43504D01*
X339134Y42559D01*
G01Y38780D02*
X340394D01*
G01X343701Y38622D02*
X343596Y38701D01*
Y38858D01*
X343701Y38937D01*
X343806Y38858D01*
Y38701D01*
X343701Y38622D01*
G01X347638Y43504D02*
X347218Y43346D01*
X346903Y42953D01*
X346693Y42480D01*
X346535Y41850D01*
X346483Y41142D01*
X346535Y40433D01*
X346693Y39803D01*
X346903Y39331D01*
X347218Y38937D01*
X347638Y38780D01*
X348058Y38937D01*
X348373Y39331D01*
X348583Y39803D01*
X348740Y40433D01*
X348793Y41142D01*
X348740Y41850D01*
X348583Y42480D01*
X348373Y42953D01*
X348058Y43346D01*
X347638Y43504D01*
G01X350787Y41929D02*
X352362Y38780D01*
G01Y41929D02*
X350787Y38780D01*
G01X355512Y43504D02*
X355092Y43346D01*
X354777Y42953D01*
X354567Y42480D01*
X354409Y41850D01*
X354357Y41142D01*
X354409Y40433D01*
X354567Y39803D01*
X354777Y39331D01*
X355092Y38937D01*
X355512Y38780D01*
X355932Y38937D01*
X356247Y39331D01*
X356457Y39803D01*
X356614Y40433D01*
X356667Y41142D01*
X356614Y41850D01*
X356457Y42480D01*
X356247Y42953D01*
X355932Y43346D01*
X355512Y43504D01*
G01X359449Y38622D02*
X359344Y38701D01*
Y38858D01*
X359449Y38937D01*
X359554Y38858D01*
Y38701D01*
X359449Y38622D01*
G01X363281Y38780D02*
X363386Y39803D01*
X363543Y40669D01*
X363753Y41457D01*
X364016Y42323D01*
X364436Y43504D01*
X362336D01*
G01X366168Y39488D02*
X366483Y39094D01*
X366850Y38858D01*
X367323Y38780D01*
X367795Y38937D01*
X368163Y39252D01*
X368425Y39803D01*
X368478Y40433D01*
X368373Y41063D01*
X368110Y41457D01*
X367743Y41772D01*
X367375Y41850D01*
X367008Y41772D01*
X366535Y41457D01*
X366693Y43504D01*
X368110D01*
G01X339764Y26969D02*
Y31693D01*
X339134Y30748D01*
G01Y26969D02*
X340394D01*
G01X343701Y26811D02*
X343596Y26890D01*
Y27047D01*
X343701Y27126D01*
X343806Y27047D01*
Y26890D01*
X343701Y26811D01*
G01X346483Y27913D02*
X346798Y27362D01*
X347218Y27047D01*
X347690Y26969D01*
X348110Y27047D01*
X348530Y27441D01*
X348793Y27913D01*
X348845Y28386D01*
X348740Y28937D01*
X348373Y29331D01*
X348005Y29488D01*
X347533D01*
G01X348005D02*
X348320Y29724D01*
X348583Y30118D01*
X348688Y30591D01*
X348583Y31063D01*
X348320Y31457D01*
X347848Y31693D01*
X347375Y31614D01*
X346903Y31299D01*
G01X350787Y30118D02*
X352362Y26969D01*
G01Y30118D02*
X350787Y26969D01*
G01X355512Y31693D02*
X355092Y31535D01*
X354777Y31142D01*
X354567Y30669D01*
X354409Y30039D01*
X354357Y29331D01*
X354409Y28622D01*
X354567Y27992D01*
X354777Y27520D01*
X355092Y27126D01*
X355512Y26969D01*
X355932Y27126D01*
X356247Y27520D01*
X356457Y27992D01*
X356614Y28622D01*
X356667Y29331D01*
X356614Y30039D01*
X356457Y30669D01*
X356247Y31142D01*
X355932Y31535D01*
X355512Y31693D01*
G01X359449Y26811D02*
X359344Y26890D01*
Y27047D01*
X359449Y27126D01*
X359554Y27047D01*
Y26890D01*
X359449Y26811D01*
G01X363281Y26969D02*
X363386Y27992D01*
X363543Y28858D01*
X363753Y29646D01*
X364016Y30512D01*
X364436Y31693D01*
X362336D01*
G01X366168Y27677D02*
X366483Y27283D01*
X366850Y27047D01*
X367323Y26969D01*
X367795Y27126D01*
X368163Y27441D01*
X368425Y27992D01*
X368478Y28622D01*
X368373Y29252D01*
X368110Y29646D01*
X367743Y29961D01*
X367375Y30039D01*
X367008Y29961D01*
X366535Y29646D01*
X366693Y31693D01*
X368110D01*
G01X348452Y51535D02*
X348767Y50984D01*
X349186Y50669D01*
X349659Y50591D01*
X350079Y50669D01*
X350499Y51063D01*
X350761Y51535D01*
X350814Y52008D01*
X350709Y52559D01*
X350341Y52953D01*
X349974Y53110D01*
X349501D01*
G01X349974D02*
X350289Y53346D01*
X350551Y53740D01*
X350656Y54213D01*
X350551Y54685D01*
X350289Y55079D01*
X349816Y55315D01*
X349344Y55236D01*
X348871Y54921D01*
G01X353543Y50433D02*
X353438Y50512D01*
Y50669D01*
X353543Y50748D01*
X353648Y50669D01*
Y50512D01*
X353543Y50433D01*
G01X356483Y54528D02*
X356798Y55000D01*
X357165Y55236D01*
X357585Y55315D01*
X358110Y55157D01*
X358478Y54764D01*
X358583Y54291D01*
X358530Y53819D01*
X358320Y53425D01*
X357270Y52638D01*
X356798Y52087D01*
X356483Y51299D01*
X356378Y50591D01*
X358583D01*
G01X348609Y66339D02*
X348924Y66811D01*
X349291Y67047D01*
X349711Y67126D01*
X350236Y66969D01*
X350604Y66575D01*
X350709Y66102D01*
X350656Y65630D01*
X350446Y65236D01*
X349396Y64449D01*
X348924Y63898D01*
X348609Y63110D01*
X348504Y62402D01*
X350709D01*
G01X353543Y62244D02*
X353438Y62323D01*
Y62480D01*
X353543Y62559D01*
X353648Y62480D01*
Y62323D01*
X353543Y62244D01*
G01X358110Y62402D02*
Y67126D01*
X356168Y63740D01*
X358793D01*
G01X349606Y86024D02*
Y90748D01*
X348976Y89803D01*
G01Y86024D02*
X350236D01*
G01X353543Y85866D02*
X353438Y85945D01*
Y86102D01*
X353543Y86181D01*
X353648Y86102D01*
Y85945D01*
X353543Y85866D01*
G01X357480Y86024D02*
X357848Y86102D01*
X358268Y86339D01*
X358530Y86732D01*
X358635Y87283D01*
X358530Y87835D01*
X358215Y88307D01*
X357743Y88543D01*
X357218D01*
X356903Y88701D01*
X356641Y89094D01*
X356535Y89646D01*
X356693Y90197D01*
X357060Y90591D01*
X357480Y90748D01*
X357900Y90591D01*
X358268Y90197D01*
X358425Y89646D01*
X358320Y89094D01*
X358058Y88701D01*
X357743Y88543D01*
X357218D01*
X356745Y88307D01*
X356430Y87835D01*
X356326Y87283D01*
X356430Y86732D01*
X356693Y86339D01*
X357113Y86102D01*
X357480Y86024D01*
G01X346483Y75157D02*
X346798Y74606D01*
X347218Y74291D01*
X347690Y74213D01*
X348110Y74291D01*
X348530Y74685D01*
X348793Y75157D01*
X348845Y75630D01*
X348740Y76181D01*
X348373Y76575D01*
X348005Y76732D01*
X347533D01*
G01X348005D02*
X348320Y76969D01*
X348583Y77362D01*
X348688Y77835D01*
X348583Y78307D01*
X348320Y78701D01*
X347848Y78937D01*
X347375Y78858D01*
X346903Y78543D01*
G01X351575Y74055D02*
X351470Y74134D01*
Y74291D01*
X351575Y74370D01*
X351680Y74291D01*
Y74134D01*
X351575Y74055D01*
G01X354515Y78150D02*
X354830Y78622D01*
X355197Y78858D01*
X355617Y78937D01*
X356142Y78780D01*
X356509Y78386D01*
X356614Y77913D01*
X356562Y77441D01*
X356352Y77047D01*
X355302Y76260D01*
X354830Y75709D01*
X354515Y74921D01*
X354409Y74213D01*
X356614D01*
G01X358294Y74921D02*
X358609Y74528D01*
X358976Y74291D01*
X359449Y74213D01*
X359921Y74370D01*
X360289Y74685D01*
X360551Y75236D01*
X360604Y75866D01*
X360499Y76496D01*
X360236Y76890D01*
X359869Y77205D01*
X359501Y77283D01*
X359134Y77205D01*
X358661Y76890D01*
X358819Y78937D01*
X360236D01*
G01X347638Y97835D02*
Y102559D01*
X347008Y101614D01*
G01Y97835D02*
X348268D01*
G01X351575Y97677D02*
X351470Y97756D01*
Y97913D01*
X351575Y97992D01*
X351680Y97913D01*
Y97756D01*
X351575Y97677D01*
G01X354357Y98543D02*
X354672Y98150D01*
X355039Y97913D01*
X355512Y97835D01*
X355984Y97992D01*
X356352Y98307D01*
X356614Y98858D01*
X356667Y99488D01*
X356562Y100118D01*
X356299Y100512D01*
X355932Y100827D01*
X355564Y100906D01*
X355197Y100827D01*
X354724Y100512D01*
X354882Y102559D01*
X356299D01*
G01X359344Y97835D02*
X359449Y98858D01*
X359606Y99724D01*
X359816Y100512D01*
X360079Y101378D01*
X360499Y102559D01*
X358399D01*
G01X349606Y126181D02*
X349186Y126024D01*
X348871Y125630D01*
X348661Y125157D01*
X348504Y124528D01*
X348452Y123819D01*
X348504Y123110D01*
X348661Y122480D01*
X348871Y122008D01*
X349186Y121614D01*
X349606Y121457D01*
X350026Y121614D01*
X350341Y122008D01*
X350551Y122480D01*
X350709Y123110D01*
X350761Y123819D01*
X350709Y124528D01*
X350551Y125157D01*
X350341Y125630D01*
X350026Y126024D01*
X349606Y126181D01*
G01X353543Y121299D02*
X353438Y121378D01*
Y121535D01*
X353543Y121614D01*
X353648Y121535D01*
Y121378D01*
X353543Y121299D01*
G01X357480Y121457D02*
X357848Y121535D01*
X358268Y121772D01*
X358530Y122165D01*
X358635Y122717D01*
X358530Y123268D01*
X358215Y123740D01*
X357743Y123976D01*
X357218D01*
X356903Y124134D01*
X356641Y124528D01*
X356535Y125079D01*
X356693Y125630D01*
X357060Y126024D01*
X357480Y126181D01*
X357900Y126024D01*
X358268Y125630D01*
X358425Y125079D01*
X358320Y124528D01*
X358058Y124134D01*
X357743Y123976D01*
X357218D01*
X356745Y123740D01*
X356430Y123268D01*
X356326Y122717D01*
X356430Y122165D01*
X356693Y121772D01*
X357113Y121535D01*
X357480Y121457D01*
G01X347638Y114370D02*
X347218Y114213D01*
X346903Y113819D01*
X346693Y113346D01*
X346535Y112717D01*
X346483Y112008D01*
X346535Y111299D01*
X346693Y110669D01*
X346903Y110197D01*
X347218Y109803D01*
X347638Y109646D01*
X348058Y109803D01*
X348373Y110197D01*
X348583Y110669D01*
X348740Y111299D01*
X348793Y112008D01*
X348740Y112717D01*
X348583Y113346D01*
X348373Y113819D01*
X348058Y114213D01*
X347638Y114370D01*
G01X351575Y109488D02*
X351470Y109567D01*
Y109724D01*
X351575Y109803D01*
X351680Y109724D01*
Y109567D01*
X351575Y109488D01*
G01X355512Y109646D02*
X355879Y109724D01*
X356299Y109961D01*
X356562Y110354D01*
X356667Y110906D01*
X356562Y111457D01*
X356247Y111929D01*
X355774Y112165D01*
X355249D01*
X354934Y112323D01*
X354672Y112717D01*
X354567Y113268D01*
X354724Y113819D01*
X355092Y114213D01*
X355512Y114370D01*
X355932Y114213D01*
X356299Y113819D01*
X356457Y113268D01*
X356352Y112717D01*
X356089Y112323D01*
X355774Y112165D01*
X355249D01*
X354777Y111929D01*
X354462Y111457D01*
X354357Y110906D01*
X354462Y110354D01*
X354724Y109961D01*
X355144Y109724D01*
X355512Y109646D01*
G01X358556Y110197D02*
X358924Y109803D01*
X359344Y109646D01*
X359764Y109803D01*
X360131Y110276D01*
X360394Y110984D01*
X360499Y111693D01*
Y112559D01*
X360394Y113268D01*
X360131Y113898D01*
X359816Y114213D01*
X359449Y114370D01*
X359029Y114213D01*
X358714Y113898D01*
X358504Y113425D01*
X358399Y112795D01*
X358504Y112244D01*
X358767Y111693D01*
X359081Y111378D01*
X359449Y111299D01*
X359869Y111457D01*
X360184Y111850D01*
X360499Y112559D01*
G01X347638Y137992D02*
X347218Y137835D01*
X346903Y137441D01*
X346693Y136969D01*
X346535Y136339D01*
X346483Y135630D01*
X346535Y134921D01*
X346693Y134291D01*
X346903Y133819D01*
X347218Y133425D01*
X347638Y133268D01*
X348058Y133425D01*
X348373Y133819D01*
X348583Y134291D01*
X348740Y134921D01*
X348793Y135630D01*
X348740Y136339D01*
X348583Y136969D01*
X348373Y137441D01*
X348058Y137835D01*
X347638Y137992D01*
G01X351575Y133110D02*
X351470Y133189D01*
Y133346D01*
X351575Y133425D01*
X351680Y133346D01*
Y133189D01*
X351575Y133110D01*
G01X354515Y135236D02*
X354882Y135787D01*
X355197Y136102D01*
X355617Y136260D01*
X355984Y136102D01*
X356247Y135787D01*
X356457Y135315D01*
X356509Y134764D01*
X356457Y134291D01*
X356247Y133819D01*
X355932Y133425D01*
X355564Y133268D01*
X355144Y133425D01*
X354777Y133898D01*
X354567Y134606D01*
X354515Y135394D01*
X354619Y136417D01*
X354777Y136969D01*
X355039Y137520D01*
X355407Y137913D01*
X355774Y137992D01*
X356142Y137835D01*
X356404Y137441D01*
G01X358294Y133976D02*
X358609Y133583D01*
X358976Y133346D01*
X359449Y133268D01*
X359921Y133425D01*
X360289Y133740D01*
X360551Y134291D01*
X360604Y134921D01*
X360499Y135551D01*
X360236Y135945D01*
X359869Y136260D01*
X359501Y136339D01*
X359134Y136260D01*
X358661Y135945D01*
X358819Y137992D01*
X360236D01*
G01X347638Y161614D02*
X347218Y161457D01*
X346903Y161063D01*
X346693Y160591D01*
X346535Y159961D01*
X346483Y159252D01*
X346535Y158543D01*
X346693Y157913D01*
X346903Y157441D01*
X347218Y157047D01*
X347638Y156890D01*
X348058Y157047D01*
X348373Y157441D01*
X348583Y157913D01*
X348740Y158543D01*
X348793Y159252D01*
X348740Y159961D01*
X348583Y160591D01*
X348373Y161063D01*
X348058Y161457D01*
X347638Y161614D01*
G01X351575Y156732D02*
X351470Y156811D01*
Y156969D01*
X351575Y157047D01*
X351680Y156969D01*
Y156811D01*
X351575Y156732D01*
G01X354515Y160827D02*
X354830Y161299D01*
X355197Y161535D01*
X355617Y161614D01*
X356142Y161457D01*
X356509Y161063D01*
X356614Y160591D01*
X356562Y160118D01*
X356352Y159724D01*
X355302Y158937D01*
X354830Y158386D01*
X354515Y157598D01*
X354409Y156890D01*
X356614D01*
G01X358294Y157598D02*
X358609Y157205D01*
X358976Y156969D01*
X359449Y156890D01*
X359921Y157047D01*
X360289Y157362D01*
X360551Y157913D01*
X360604Y158543D01*
X360499Y159173D01*
X360236Y159567D01*
X359869Y159882D01*
X359501Y159961D01*
X359134Y159882D01*
X358661Y159567D01*
X358819Y161614D01*
X360236D01*
G01X349606Y149803D02*
X349186Y149646D01*
X348871Y149252D01*
X348661Y148780D01*
X348504Y148150D01*
X348452Y147441D01*
X348504Y146732D01*
X348661Y146102D01*
X348871Y145630D01*
X349186Y145236D01*
X349606Y145079D01*
X350026Y145236D01*
X350341Y145630D01*
X350551Y146102D01*
X350709Y146732D01*
X350761Y147441D01*
X350709Y148150D01*
X350551Y148780D01*
X350341Y149252D01*
X350026Y149646D01*
X349606Y149803D01*
G01X353543Y144921D02*
X353438Y145000D01*
Y145157D01*
X353543Y145236D01*
X353648Y145157D01*
Y145000D01*
X353543Y144921D01*
G01X356326Y145787D02*
X356641Y145394D01*
X357008Y145157D01*
X357480Y145079D01*
X357953Y145236D01*
X358320Y145551D01*
X358583Y146102D01*
X358635Y146732D01*
X358530Y147362D01*
X358268Y147756D01*
X357900Y148071D01*
X357533Y148150D01*
X357165Y148071D01*
X356693Y147756D01*
X356850Y149803D01*
X358268D01*
G01X346535Y168150D02*
X346956Y167756D01*
X347428Y167520D01*
X347848D01*
X348268Y167756D01*
X348583Y168150D01*
X348740Y168701D01*
X348635Y169252D01*
X348373Y169724D01*
X347900Y170039D01*
X347270Y170197D01*
X346903Y170512D01*
X346745Y171063D01*
X346850Y171614D01*
X347113Y172008D01*
X347480Y172244D01*
X347848D01*
X348215Y172087D01*
X348530Y171693D01*
G01X350945Y172244D02*
X352205D01*
G01X351575D02*
Y167520D01*
G01X350945D02*
X352205D01*
G01X354515Y172244D02*
X356509D01*
X354515Y167520D01*
X356509D01*
G01X360499D02*
X358399D01*
Y172244D01*
X360499D01*
G01X359659Y169961D02*
X358399D01*
G01X347113Y176969D02*
X348425Y181693D01*
X349737Y176969D01*
G01X349265Y178622D02*
X347585D01*
G01X351312Y181693D02*
Y176969D01*
X353412D01*
G01X355249Y181693D02*
Y176969D01*
X357349D01*
G01X363019Y181693D02*
Y178307D01*
X363228Y177598D01*
X363648Y177126D01*
X364173Y176969D01*
X364698Y177126D01*
X365118Y177598D01*
X365328Y178307D01*
Y181693D01*
G01X366903Y176969D02*
Y181693D01*
X369318Y176969D01*
Y181693D01*
G01X371417D02*
X372677D01*
G01X372047D02*
Y176969D01*
G01X371417D02*
X372677D01*
G01X375984Y181693D02*
Y176969D01*
G01X374777Y181693D02*
X377192D01*
G01X378819Y177598D02*
X379239Y177205D01*
X379711Y176969D01*
X380131D01*
X380551Y177205D01*
X380866Y177598D01*
X381024Y178150D01*
X380919Y178701D01*
X380656Y179173D01*
X380184Y179488D01*
X379554Y179646D01*
X379186Y179961D01*
X379029Y180512D01*
X379134Y181063D01*
X379396Y181457D01*
X379764Y181693D01*
X380131D01*
X380499Y181535D01*
X380814Y181142D01*
G01X386483Y176969D02*
X387795Y181693D01*
X389107Y176969D01*
G01X388635Y178622D02*
X386956D01*
G01X390682Y176969D02*
Y181693D01*
X391995D01*
X392415Y181457D01*
X392677Y181142D01*
X392782Y180512D01*
X392677Y179882D01*
X392362Y179488D01*
X391995Y179252D01*
X390682D01*
G01X391995D02*
X392782Y176969D01*
G01X396719D02*
X394619D01*
Y181693D01*
X396719D01*
G01X395879Y179409D02*
X394619D01*
G01X402913Y181693D02*
X404173D01*
G01X403543D02*
Y176969D01*
G01X402913D02*
X404173D01*
G01X406273D02*
Y181693D01*
X408688Y176969D01*
Y181693D01*
G01X413989Y176969D02*
Y181693D01*
X415354Y177756D01*
X416719Y181693D01*
Y176969D01*
G01X418661Y181693D02*
X419921D01*
G01X419291D02*
Y176969D01*
G01X418661D02*
X419921D01*
G01X422178Y181693D02*
Y176969D01*
X424278D01*
G01X426115Y181693D02*
Y176969D01*
X428215D01*
G01X430472Y181693D02*
X431732D01*
G01X431102D02*
Y176969D01*
G01X430472D02*
X431732D01*
G01X433674D02*
Y181693D01*
X435039Y177756D01*
X436404Y181693D01*
Y176969D01*
G01X440026D02*
X437926D01*
Y181693D01*
X440026D01*
G01X439186Y179409D02*
X437926D01*
G01X442913Y181693D02*
Y176969D01*
G01X441706Y181693D02*
X444121D01*
G01X447900Y176969D02*
X445800D01*
Y181693D01*
X447900D01*
G01X447060Y179409D02*
X445800D01*
G01X449737Y176969D02*
Y181693D01*
X451050D01*
X451470Y181457D01*
X451732Y181142D01*
X451837Y180512D01*
X451732Y179882D01*
X451417Y179488D01*
X451050Y179252D01*
X449737D01*
G01X451050D02*
X451837Y176969D01*
G01X453622Y177598D02*
X454042Y177205D01*
X454515Y176969D01*
X454934D01*
X455354Y177205D01*
X455669Y177598D01*
X455827Y178150D01*
X455722Y178701D01*
X455459Y179173D01*
X454987Y179488D01*
X454357Y179646D01*
X453989Y179961D01*
X453832Y180512D01*
X453937Y181063D01*
X454200Y181457D01*
X454567Y181693D01*
X454934D01*
X455302Y181535D01*
X455617Y181142D01*
G01X351207Y202559D02*
Y207283D01*
X352257D01*
X352677Y207047D01*
X352992Y206732D01*
X353255Y206260D01*
X353465Y205709D01*
X353517Y204921D01*
X353465Y204134D01*
X353255Y203583D01*
X352992Y203110D01*
X352677Y202795D01*
X352257Y202559D01*
X351207D01*
G01X355249D02*
Y207283D01*
X356562D01*
X356981Y207047D01*
X357244Y206732D01*
X357349Y206102D01*
X357244Y205472D01*
X356929Y205079D01*
X356562Y204843D01*
X355249D01*
G01X356562D02*
X357349Y202559D01*
G01X359606Y207283D02*
X360866D01*
G01X360236D02*
Y202559D01*
G01X359606D02*
X360866D01*
G01X363123Y207283D02*
Y202559D01*
X365223D01*
G01X367060Y207283D02*
Y202559D01*
X369160D01*
G01X377139Y206890D02*
X376824Y207126D01*
X376457Y207283D01*
X376037D01*
X375564Y207047D01*
X375197Y206654D01*
X374934Y206181D01*
X374724Y205394D01*
X374672Y204685D01*
X374777Y203976D01*
X374934Y203504D01*
X375249Y203031D01*
X375617Y202717D01*
X375984Y202559D01*
X376352D01*
X376719Y202717D01*
X377034Y202953D01*
X377296Y203268D01*
G01X378819Y202559D02*
Y207283D01*
G01X381024D02*
Y202559D01*
G01Y204921D02*
X378819D01*
G01X382546Y202559D02*
X383858Y207283D01*
X385170Y202559D01*
G01X384698Y204213D02*
X383019D01*
G01X386745Y202559D02*
Y207283D01*
X388058D01*
X388478Y207047D01*
X388740Y206732D01*
X388845Y206102D01*
X388740Y205472D01*
X388425Y205079D01*
X388058Y204843D01*
X386745D01*
G01X388058D02*
X388845Y202559D01*
G01X391732Y207283D02*
Y202559D01*
G01X390525Y207283D02*
X392940D01*
G01X395669Y202402D02*
X395564Y202480D01*
Y202638D01*
X395669Y202717D01*
X395774Y202638D01*
Y202480D01*
X395669Y202402D01*
G01Y204528D02*
X395564Y204606D01*
Y204764D01*
X395669Y204843D01*
X395774Y204764D01*
Y204606D01*
X395669Y204528D01*
G01X403543Y207283D02*
Y202559D01*
G01X402336Y207283D02*
X404751D01*
G01X407480Y202559D02*
X407060Y202638D01*
X406693Y202953D01*
X406378Y203425D01*
X406168Y203976D01*
X406063Y204606D01*
Y205236D01*
X406168Y205866D01*
X406378Y206417D01*
X406693Y206890D01*
X407060Y207205D01*
X407480Y207283D01*
X407900Y207205D01*
X408268Y206890D01*
X408583Y206417D01*
X408793Y205866D01*
X408898Y205236D01*
Y204606D01*
X408793Y203976D01*
X408583Y203425D01*
X408268Y202953D01*
X407900Y202638D01*
X407480Y202559D01*
G01X410367D02*
Y207283D01*
X411627D01*
X412047Y207047D01*
X412362Y206496D01*
X412467Y205866D01*
X412362Y205236D01*
X412100Y204764D01*
X411627Y204528D01*
X410367D01*
G01X419291Y207283D02*
Y202559D01*
G01X418556Y205709D02*
X420026D01*
G01X423228Y202559D02*
X422913Y202638D01*
X422598Y202953D01*
X422389Y203504D01*
X422283Y204134D01*
X422389Y204764D01*
X422598Y205315D01*
X422913Y205630D01*
X423228Y205709D01*
X423543Y205630D01*
X423858Y205315D01*
X424068Y204764D01*
X424121Y204134D01*
X424068Y203504D01*
X423858Y202953D01*
X423543Y202638D01*
X423228Y202559D01*
G01X431522Y205079D02*
X431732Y205315D01*
X431890Y205709D01*
X431995Y206260D01*
X431890Y206732D01*
X431680Y207047D01*
X431312Y207283D01*
X429895D01*
Y202559D01*
X431627D01*
X431995Y202874D01*
X432205Y203346D01*
X432310Y203898D01*
X432205Y204449D01*
X431890Y204921D01*
X431522Y205079D01*
X429895D01*
G01X435039Y202559D02*
X434619Y202638D01*
X434252Y202953D01*
X433937Y203425D01*
X433727Y203976D01*
X433622Y204606D01*
Y205236D01*
X433727Y205866D01*
X433937Y206417D01*
X434252Y206890D01*
X434619Y207205D01*
X435039Y207283D01*
X435459Y207205D01*
X435827Y206890D01*
X436142Y206417D01*
X436352Y205866D01*
X436457Y205236D01*
Y204606D01*
X436352Y203976D01*
X436142Y203425D01*
X435827Y202953D01*
X435459Y202638D01*
X435039Y202559D01*
G01X438976Y207283D02*
Y202559D01*
G01X437769Y207283D02*
X440184D01*
G01X442913D02*
Y202559D01*
G01X441706Y207283D02*
X444121D01*
G01X446850Y202559D02*
X446430Y202638D01*
X446063Y202953D01*
X445748Y203425D01*
X445538Y203976D01*
X445433Y204606D01*
Y205236D01*
X445538Y205866D01*
X445748Y206417D01*
X446063Y206890D01*
X446430Y207205D01*
X446850Y207283D01*
X447270Y207205D01*
X447638Y206890D01*
X447953Y206417D01*
X448163Y205866D01*
X448268Y205236D01*
Y204606D01*
X448163Y203976D01*
X447953Y203425D01*
X447638Y202953D01*
X447270Y202638D01*
X446850Y202559D01*
G01X449422D02*
Y207283D01*
X450787Y203346D01*
X452152Y207283D01*
Y202559D01*
G01X393123Y40354D02*
X394383D01*
G01X393701Y41378D02*
Y39331D01*
G01X397638Y43504D02*
X397218Y43346D01*
X396903Y42953D01*
X396693Y42480D01*
X396535Y41850D01*
X396483Y41142D01*
X396535Y40433D01*
X396693Y39803D01*
X396903Y39331D01*
X397218Y38937D01*
X397638Y38780D01*
X398058Y38937D01*
X398373Y39331D01*
X398583Y39803D01*
X398740Y40433D01*
X398793Y41142D01*
X398740Y41850D01*
X398583Y42480D01*
X398373Y42953D01*
X398058Y43346D01*
X397638Y43504D01*
G01X401575Y38622D02*
X401470Y38701D01*
Y38858D01*
X401575Y38937D01*
X401680Y38858D01*
Y38701D01*
X401575Y38622D01*
G01X405512Y43504D02*
X405092Y43346D01*
X404777Y42953D01*
X404567Y42480D01*
X404409Y41850D01*
X404357Y41142D01*
X404409Y40433D01*
X404567Y39803D01*
X404777Y39331D01*
X405092Y38937D01*
X405512Y38780D01*
X405932Y38937D01*
X406247Y39331D01*
X406457Y39803D01*
X406614Y40433D01*
X406667Y41142D01*
X406614Y41850D01*
X406457Y42480D01*
X406247Y42953D01*
X405932Y43346D01*
X405512Y43504D01*
G01X409449Y38780D02*
X409816Y38858D01*
X410236Y39094D01*
X410499Y39488D01*
X410604Y40039D01*
X410499Y40591D01*
X410184Y41063D01*
X409711Y41299D01*
X409186D01*
X408871Y41457D01*
X408609Y41850D01*
X408504Y42402D01*
X408661Y42953D01*
X409029Y43346D01*
X409449Y43504D01*
X409869Y43346D01*
X410236Y42953D01*
X410394Y42402D01*
X410289Y41850D01*
X410026Y41457D01*
X409711Y41299D01*
X409186D01*
X408714Y41063D01*
X408399Y40591D01*
X408294Y40039D01*
X408399Y39488D01*
X408661Y39094D01*
X409081Y38858D01*
X409449Y38780D01*
G01X412441Y38622D02*
X414331Y43504D01*
G01X416641Y40354D02*
X418005D01*
G01X421260Y43504D02*
X420840Y43346D01*
X420525Y42953D01*
X420315Y42480D01*
X420157Y41850D01*
X420105Y41142D01*
X420157Y40433D01*
X420315Y39803D01*
X420525Y39331D01*
X420840Y38937D01*
X421260Y38780D01*
X421680Y38937D01*
X421995Y39331D01*
X422205Y39803D01*
X422362Y40433D01*
X422415Y41142D01*
X422362Y41850D01*
X422205Y42480D01*
X421995Y42953D01*
X421680Y43346D01*
X421260Y43504D01*
G01X425197Y38622D02*
X425092Y38701D01*
Y38858D01*
X425197Y38937D01*
X425302Y38858D01*
Y38701D01*
X425197Y38622D01*
G01X429134Y43504D02*
X428714Y43346D01*
X428399Y42953D01*
X428189Y42480D01*
X428031Y41850D01*
X427979Y41142D01*
X428031Y40433D01*
X428189Y39803D01*
X428399Y39331D01*
X428714Y38937D01*
X429134Y38780D01*
X429554Y38937D01*
X429869Y39331D01*
X430079Y39803D01*
X430236Y40433D01*
X430289Y41142D01*
X430236Y41850D01*
X430079Y42480D01*
X429869Y42953D01*
X429554Y43346D01*
X429134Y43504D01*
G01X433071Y38780D02*
X433438Y38858D01*
X433858Y39094D01*
X434121Y39488D01*
X434226Y40039D01*
X434121Y40591D01*
X433806Y41063D01*
X433333Y41299D01*
X432808D01*
X432493Y41457D01*
X432231Y41850D01*
X432126Y42402D01*
X432283Y42953D01*
X432651Y43346D01*
X433071Y43504D01*
X433491Y43346D01*
X433858Y42953D01*
X434016Y42402D01*
X433911Y41850D01*
X433648Y41457D01*
X433333Y41299D01*
X432808D01*
X432336Y41063D01*
X432021Y40591D01*
X431916Y40039D01*
X432021Y39488D01*
X432283Y39094D01*
X432704Y38858D01*
X433071Y38780D01*
G01X393123Y28543D02*
X394383D01*
G01X393701Y29567D02*
Y27520D01*
G01X397638Y31693D02*
X397218Y31535D01*
X396903Y31142D01*
X396693Y30669D01*
X396535Y30039D01*
X396483Y29331D01*
X396535Y28622D01*
X396693Y27992D01*
X396903Y27520D01*
X397218Y27126D01*
X397638Y26969D01*
X398058Y27126D01*
X398373Y27520D01*
X398583Y27992D01*
X398740Y28622D01*
X398793Y29331D01*
X398740Y30039D01*
X398583Y30669D01*
X398373Y31142D01*
X398058Y31535D01*
X397638Y31693D01*
G01X401575Y26811D02*
X401470Y26890D01*
Y27047D01*
X401575Y27126D01*
X401680Y27047D01*
Y26890D01*
X401575Y26811D01*
G01X405512Y31693D02*
X405092Y31535D01*
X404777Y31142D01*
X404567Y30669D01*
X404409Y30039D01*
X404357Y29331D01*
X404409Y28622D01*
X404567Y27992D01*
X404777Y27520D01*
X405092Y27126D01*
X405512Y26969D01*
X405932Y27126D01*
X406247Y27520D01*
X406457Y27992D01*
X406614Y28622D01*
X406667Y29331D01*
X406614Y30039D01*
X406457Y30669D01*
X406247Y31142D01*
X405932Y31535D01*
X405512Y31693D01*
G01X409449Y26969D02*
X409816Y27047D01*
X410236Y27283D01*
X410499Y27677D01*
X410604Y28228D01*
X410499Y28780D01*
X410184Y29252D01*
X409711Y29488D01*
X409186D01*
X408871Y29646D01*
X408609Y30039D01*
X408504Y30591D01*
X408661Y31142D01*
X409029Y31535D01*
X409449Y31693D01*
X409869Y31535D01*
X410236Y31142D01*
X410394Y30591D01*
X410289Y30039D01*
X410026Y29646D01*
X409711Y29488D01*
X409186D01*
X408714Y29252D01*
X408399Y28780D01*
X408294Y28228D01*
X408399Y27677D01*
X408661Y27283D01*
X409081Y27047D01*
X409449Y26969D01*
G01X412441Y26811D02*
X414331Y31693D01*
G01X416641Y28543D02*
X418005D01*
G01X421260Y31693D02*
X420840Y31535D01*
X420525Y31142D01*
X420315Y30669D01*
X420157Y30039D01*
X420105Y29331D01*
X420157Y28622D01*
X420315Y27992D01*
X420525Y27520D01*
X420840Y27126D01*
X421260Y26969D01*
X421680Y27126D01*
X421995Y27520D01*
X422205Y27992D01*
X422362Y28622D01*
X422415Y29331D01*
X422362Y30039D01*
X422205Y30669D01*
X421995Y31142D01*
X421680Y31535D01*
X421260Y31693D01*
G01X425197Y26811D02*
X425092Y26890D01*
Y27047D01*
X425197Y27126D01*
X425302Y27047D01*
Y26890D01*
X425197Y26811D01*
G01X429134Y31693D02*
X428714Y31535D01*
X428399Y31142D01*
X428189Y30669D01*
X428031Y30039D01*
X427979Y29331D01*
X428031Y28622D01*
X428189Y27992D01*
X428399Y27520D01*
X428714Y27126D01*
X429134Y26969D01*
X429554Y27126D01*
X429869Y27520D01*
X430079Y27992D01*
X430236Y28622D01*
X430289Y29331D01*
X430236Y30039D01*
X430079Y30669D01*
X429869Y31142D01*
X429554Y31535D01*
X429134Y31693D01*
G01X433071Y26969D02*
X433438Y27047D01*
X433858Y27283D01*
X434121Y27677D01*
X434226Y28228D01*
X434121Y28780D01*
X433806Y29252D01*
X433333Y29488D01*
X432808D01*
X432493Y29646D01*
X432231Y30039D01*
X432126Y30591D01*
X432283Y31142D01*
X432651Y31535D01*
X433071Y31693D01*
X433491Y31535D01*
X433858Y31142D01*
X434016Y30591D01*
X433911Y30039D01*
X433648Y29646D01*
X433333Y29488D01*
X432808D01*
X432336Y29252D01*
X432021Y28780D01*
X431916Y28228D01*
X432021Y27677D01*
X432283Y27283D01*
X432704Y27047D01*
X433071Y26969D01*
G01X393123Y52165D02*
X394383D01*
G01X393701Y53189D02*
Y51142D01*
G01X397638Y55315D02*
X397218Y55157D01*
X396903Y54764D01*
X396693Y54291D01*
X396535Y53661D01*
X396483Y52953D01*
X396535Y52244D01*
X396693Y51614D01*
X396903Y51142D01*
X397218Y50748D01*
X397638Y50591D01*
X398058Y50748D01*
X398373Y51142D01*
X398583Y51614D01*
X398740Y52244D01*
X398793Y52953D01*
X398740Y53661D01*
X398583Y54291D01*
X398373Y54764D01*
X398058Y55157D01*
X397638Y55315D01*
G01X401575Y50433D02*
X401470Y50512D01*
Y50669D01*
X401575Y50748D01*
X401680Y50669D01*
Y50512D01*
X401575Y50433D01*
G01X405512Y55315D02*
X405092Y55157D01*
X404777Y54764D01*
X404567Y54291D01*
X404409Y53661D01*
X404357Y52953D01*
X404409Y52244D01*
X404567Y51614D01*
X404777Y51142D01*
X405092Y50748D01*
X405512Y50591D01*
X405932Y50748D01*
X406247Y51142D01*
X406457Y51614D01*
X406614Y52244D01*
X406667Y52953D01*
X406614Y53661D01*
X406457Y54291D01*
X406247Y54764D01*
X405932Y55157D01*
X405512Y55315D01*
G01X409449Y50591D02*
X409816Y50669D01*
X410236Y50906D01*
X410499Y51299D01*
X410604Y51850D01*
X410499Y52402D01*
X410184Y52874D01*
X409711Y53110D01*
X409186D01*
X408871Y53268D01*
X408609Y53661D01*
X408504Y54213D01*
X408661Y54764D01*
X409029Y55157D01*
X409449Y55315D01*
X409869Y55157D01*
X410236Y54764D01*
X410394Y54213D01*
X410289Y53661D01*
X410026Y53268D01*
X409711Y53110D01*
X409186D01*
X408714Y52874D01*
X408399Y52402D01*
X408294Y51850D01*
X408399Y51299D01*
X408661Y50906D01*
X409081Y50669D01*
X409449Y50591D01*
G01X412441Y50433D02*
X414331Y55315D01*
G01X416641Y52165D02*
X418005D01*
G01X421260Y55315D02*
X420840Y55157D01*
X420525Y54764D01*
X420315Y54291D01*
X420157Y53661D01*
X420105Y52953D01*
X420157Y52244D01*
X420315Y51614D01*
X420525Y51142D01*
X420840Y50748D01*
X421260Y50591D01*
X421680Y50748D01*
X421995Y51142D01*
X422205Y51614D01*
X422362Y52244D01*
X422415Y52953D01*
X422362Y53661D01*
X422205Y54291D01*
X421995Y54764D01*
X421680Y55157D01*
X421260Y55315D01*
G01X425197Y50433D02*
X425092Y50512D01*
Y50669D01*
X425197Y50748D01*
X425302Y50669D01*
Y50512D01*
X425197Y50433D01*
G01X429134Y55315D02*
X428714Y55157D01*
X428399Y54764D01*
X428189Y54291D01*
X428031Y53661D01*
X427979Y52953D01*
X428031Y52244D01*
X428189Y51614D01*
X428399Y51142D01*
X428714Y50748D01*
X429134Y50591D01*
X429554Y50748D01*
X429869Y51142D01*
X430079Y51614D01*
X430236Y52244D01*
X430289Y52953D01*
X430236Y53661D01*
X430079Y54291D01*
X429869Y54764D01*
X429554Y55157D01*
X429134Y55315D01*
G01X433071Y50591D02*
X433438Y50669D01*
X433858Y50906D01*
X434121Y51299D01*
X434226Y51850D01*
X434121Y52402D01*
X433806Y52874D01*
X433333Y53110D01*
X432808D01*
X432493Y53268D01*
X432231Y53661D01*
X432126Y54213D01*
X432283Y54764D01*
X432651Y55157D01*
X433071Y55315D01*
X433491Y55157D01*
X433858Y54764D01*
X434016Y54213D01*
X433911Y53661D01*
X433648Y53268D01*
X433333Y53110D01*
X432808D01*
X432336Y52874D01*
X432021Y52402D01*
X431916Y51850D01*
X432021Y51299D01*
X432283Y50906D01*
X432704Y50669D01*
X433071Y50591D01*
G01X393123Y63976D02*
X394383D01*
G01X393701Y65000D02*
Y62953D01*
G01X397638Y67126D02*
X397218Y66969D01*
X396903Y66575D01*
X396693Y66102D01*
X396535Y65472D01*
X396483Y64764D01*
X396535Y64055D01*
X396693Y63425D01*
X396903Y62953D01*
X397218Y62559D01*
X397638Y62402D01*
X398058Y62559D01*
X398373Y62953D01*
X398583Y63425D01*
X398740Y64055D01*
X398793Y64764D01*
X398740Y65472D01*
X398583Y66102D01*
X398373Y66575D01*
X398058Y66969D01*
X397638Y67126D01*
G01X401575Y62244D02*
X401470Y62323D01*
Y62480D01*
X401575Y62559D01*
X401680Y62480D01*
Y62323D01*
X401575Y62244D01*
G01X405512Y67126D02*
X405092Y66969D01*
X404777Y66575D01*
X404567Y66102D01*
X404409Y65472D01*
X404357Y64764D01*
X404409Y64055D01*
X404567Y63425D01*
X404777Y62953D01*
X405092Y62559D01*
X405512Y62402D01*
X405932Y62559D01*
X406247Y62953D01*
X406457Y63425D01*
X406614Y64055D01*
X406667Y64764D01*
X406614Y65472D01*
X406457Y66102D01*
X406247Y66575D01*
X405932Y66969D01*
X405512Y67126D01*
G01X409449Y62402D02*
X409816Y62480D01*
X410236Y62717D01*
X410499Y63110D01*
X410604Y63661D01*
X410499Y64213D01*
X410184Y64685D01*
X409711Y64921D01*
X409186D01*
X408871Y65079D01*
X408609Y65472D01*
X408504Y66024D01*
X408661Y66575D01*
X409029Y66969D01*
X409449Y67126D01*
X409869Y66969D01*
X410236Y66575D01*
X410394Y66024D01*
X410289Y65472D01*
X410026Y65079D01*
X409711Y64921D01*
X409186D01*
X408714Y64685D01*
X408399Y64213D01*
X408294Y63661D01*
X408399Y63110D01*
X408661Y62717D01*
X409081Y62480D01*
X409449Y62402D01*
G01X412441Y62244D02*
X414331Y67126D01*
G01X416641Y63976D02*
X418005D01*
G01X421260Y67126D02*
X420840Y66969D01*
X420525Y66575D01*
X420315Y66102D01*
X420157Y65472D01*
X420105Y64764D01*
X420157Y64055D01*
X420315Y63425D01*
X420525Y62953D01*
X420840Y62559D01*
X421260Y62402D01*
X421680Y62559D01*
X421995Y62953D01*
X422205Y63425D01*
X422362Y64055D01*
X422415Y64764D01*
X422362Y65472D01*
X422205Y66102D01*
X421995Y66575D01*
X421680Y66969D01*
X421260Y67126D01*
G01X425197Y62244D02*
X425092Y62323D01*
Y62480D01*
X425197Y62559D01*
X425302Y62480D01*
Y62323D01*
X425197Y62244D01*
G01X429134Y67126D02*
X428714Y66969D01*
X428399Y66575D01*
X428189Y66102D01*
X428031Y65472D01*
X427979Y64764D01*
X428031Y64055D01*
X428189Y63425D01*
X428399Y62953D01*
X428714Y62559D01*
X429134Y62402D01*
X429554Y62559D01*
X429869Y62953D01*
X430079Y63425D01*
X430236Y64055D01*
X430289Y64764D01*
X430236Y65472D01*
X430079Y66102D01*
X429869Y66575D01*
X429554Y66969D01*
X429134Y67126D01*
G01X433071Y62402D02*
X433438Y62480D01*
X433858Y62717D01*
X434121Y63110D01*
X434226Y63661D01*
X434121Y64213D01*
X433806Y64685D01*
X433333Y64921D01*
X432808D01*
X432493Y65079D01*
X432231Y65472D01*
X432126Y66024D01*
X432283Y66575D01*
X432651Y66969D01*
X433071Y67126D01*
X433491Y66969D01*
X433858Y66575D01*
X434016Y66024D01*
X433911Y65472D01*
X433648Y65079D01*
X433333Y64921D01*
X432808D01*
X432336Y64685D01*
X432021Y64213D01*
X431916Y63661D01*
X432021Y63110D01*
X432283Y62717D01*
X432704Y62480D01*
X433071Y62402D01*
G01X393123Y87598D02*
X394383D01*
G01X393701Y88622D02*
Y86575D01*
G01X397638Y90748D02*
X397218Y90591D01*
X396903Y90197D01*
X396693Y89724D01*
X396535Y89094D01*
X396483Y88386D01*
X396535Y87677D01*
X396693Y87047D01*
X396903Y86575D01*
X397218Y86181D01*
X397638Y86024D01*
X398058Y86181D01*
X398373Y86575D01*
X398583Y87047D01*
X398740Y87677D01*
X398793Y88386D01*
X398740Y89094D01*
X398583Y89724D01*
X398373Y90197D01*
X398058Y90591D01*
X397638Y90748D01*
G01X401575Y85866D02*
X401470Y85945D01*
Y86102D01*
X401575Y86181D01*
X401680Y86102D01*
Y85945D01*
X401575Y85866D01*
G01X405512Y90748D02*
X405092Y90591D01*
X404777Y90197D01*
X404567Y89724D01*
X404409Y89094D01*
X404357Y88386D01*
X404409Y87677D01*
X404567Y87047D01*
X404777Y86575D01*
X405092Y86181D01*
X405512Y86024D01*
X405932Y86181D01*
X406247Y86575D01*
X406457Y87047D01*
X406614Y87677D01*
X406667Y88386D01*
X406614Y89094D01*
X406457Y89724D01*
X406247Y90197D01*
X405932Y90591D01*
X405512Y90748D01*
G01X409449Y86024D02*
X409816Y86102D01*
X410236Y86339D01*
X410499Y86732D01*
X410604Y87283D01*
X410499Y87835D01*
X410184Y88307D01*
X409711Y88543D01*
X409186D01*
X408871Y88701D01*
X408609Y89094D01*
X408504Y89646D01*
X408661Y90197D01*
X409029Y90591D01*
X409449Y90748D01*
X409869Y90591D01*
X410236Y90197D01*
X410394Y89646D01*
X410289Y89094D01*
X410026Y88701D01*
X409711Y88543D01*
X409186D01*
X408714Y88307D01*
X408399Y87835D01*
X408294Y87283D01*
X408399Y86732D01*
X408661Y86339D01*
X409081Y86102D01*
X409449Y86024D01*
G01X412441Y85866D02*
X414331Y90748D01*
G01X416641Y87598D02*
X418005D01*
G01X421260Y90748D02*
X420840Y90591D01*
X420525Y90197D01*
X420315Y89724D01*
X420157Y89094D01*
X420105Y88386D01*
X420157Y87677D01*
X420315Y87047D01*
X420525Y86575D01*
X420840Y86181D01*
X421260Y86024D01*
X421680Y86181D01*
X421995Y86575D01*
X422205Y87047D01*
X422362Y87677D01*
X422415Y88386D01*
X422362Y89094D01*
X422205Y89724D01*
X421995Y90197D01*
X421680Y90591D01*
X421260Y90748D01*
G01X425197Y85866D02*
X425092Y85945D01*
Y86102D01*
X425197Y86181D01*
X425302Y86102D01*
Y85945D01*
X425197Y85866D01*
G01X429134Y90748D02*
X428714Y90591D01*
X428399Y90197D01*
X428189Y89724D01*
X428031Y89094D01*
X427979Y88386D01*
X428031Y87677D01*
X428189Y87047D01*
X428399Y86575D01*
X428714Y86181D01*
X429134Y86024D01*
X429554Y86181D01*
X429869Y86575D01*
X430079Y87047D01*
X430236Y87677D01*
X430289Y88386D01*
X430236Y89094D01*
X430079Y89724D01*
X429869Y90197D01*
X429554Y90591D01*
X429134Y90748D01*
G01X433071Y86024D02*
X433438Y86102D01*
X433858Y86339D01*
X434121Y86732D01*
X434226Y87283D01*
X434121Y87835D01*
X433806Y88307D01*
X433333Y88543D01*
X432808D01*
X432493Y88701D01*
X432231Y89094D01*
X432126Y89646D01*
X432283Y90197D01*
X432651Y90591D01*
X433071Y90748D01*
X433491Y90591D01*
X433858Y90197D01*
X434016Y89646D01*
X433911Y89094D01*
X433648Y88701D01*
X433333Y88543D01*
X432808D01*
X432336Y88307D01*
X432021Y87835D01*
X431916Y87283D01*
X432021Y86732D01*
X432283Y86339D01*
X432704Y86102D01*
X433071Y86024D01*
G01X393123Y75787D02*
X394383D01*
G01X393701Y76811D02*
Y74764D01*
G01X397638Y78937D02*
X397218Y78780D01*
X396903Y78386D01*
X396693Y77913D01*
X396535Y77283D01*
X396483Y76575D01*
X396535Y75866D01*
X396693Y75236D01*
X396903Y74764D01*
X397218Y74370D01*
X397638Y74213D01*
X398058Y74370D01*
X398373Y74764D01*
X398583Y75236D01*
X398740Y75866D01*
X398793Y76575D01*
X398740Y77283D01*
X398583Y77913D01*
X398373Y78386D01*
X398058Y78780D01*
X397638Y78937D01*
G01X401575Y74055D02*
X401470Y74134D01*
Y74291D01*
X401575Y74370D01*
X401680Y74291D01*
Y74134D01*
X401575Y74055D01*
G01X405512Y78937D02*
X405092Y78780D01*
X404777Y78386D01*
X404567Y77913D01*
X404409Y77283D01*
X404357Y76575D01*
X404409Y75866D01*
X404567Y75236D01*
X404777Y74764D01*
X405092Y74370D01*
X405512Y74213D01*
X405932Y74370D01*
X406247Y74764D01*
X406457Y75236D01*
X406614Y75866D01*
X406667Y76575D01*
X406614Y77283D01*
X406457Y77913D01*
X406247Y78386D01*
X405932Y78780D01*
X405512Y78937D01*
G01X409449Y74213D02*
X409816Y74291D01*
X410236Y74528D01*
X410499Y74921D01*
X410604Y75472D01*
X410499Y76024D01*
X410184Y76496D01*
X409711Y76732D01*
X409186D01*
X408871Y76890D01*
X408609Y77283D01*
X408504Y77835D01*
X408661Y78386D01*
X409029Y78780D01*
X409449Y78937D01*
X409869Y78780D01*
X410236Y78386D01*
X410394Y77835D01*
X410289Y77283D01*
X410026Y76890D01*
X409711Y76732D01*
X409186D01*
X408714Y76496D01*
X408399Y76024D01*
X408294Y75472D01*
X408399Y74921D01*
X408661Y74528D01*
X409081Y74291D01*
X409449Y74213D01*
G01X412441Y74055D02*
X414331Y78937D01*
G01X416641Y75787D02*
X418005D01*
G01X421260Y78937D02*
X420840Y78780D01*
X420525Y78386D01*
X420315Y77913D01*
X420157Y77283D01*
X420105Y76575D01*
X420157Y75866D01*
X420315Y75236D01*
X420525Y74764D01*
X420840Y74370D01*
X421260Y74213D01*
X421680Y74370D01*
X421995Y74764D01*
X422205Y75236D01*
X422362Y75866D01*
X422415Y76575D01*
X422362Y77283D01*
X422205Y77913D01*
X421995Y78386D01*
X421680Y78780D01*
X421260Y78937D01*
G01X425197Y74055D02*
X425092Y74134D01*
Y74291D01*
X425197Y74370D01*
X425302Y74291D01*
Y74134D01*
X425197Y74055D01*
G01X429134Y78937D02*
X428714Y78780D01*
X428399Y78386D01*
X428189Y77913D01*
X428031Y77283D01*
X427979Y76575D01*
X428031Y75866D01*
X428189Y75236D01*
X428399Y74764D01*
X428714Y74370D01*
X429134Y74213D01*
X429554Y74370D01*
X429869Y74764D01*
X430079Y75236D01*
X430236Y75866D01*
X430289Y76575D01*
X430236Y77283D01*
X430079Y77913D01*
X429869Y78386D01*
X429554Y78780D01*
X429134Y78937D01*
G01X433071Y74213D02*
X433438Y74291D01*
X433858Y74528D01*
X434121Y74921D01*
X434226Y75472D01*
X434121Y76024D01*
X433806Y76496D01*
X433333Y76732D01*
X432808D01*
X432493Y76890D01*
X432231Y77283D01*
X432126Y77835D01*
X432283Y78386D01*
X432651Y78780D01*
X433071Y78937D01*
X433491Y78780D01*
X433858Y78386D01*
X434016Y77835D01*
X433911Y77283D01*
X433648Y76890D01*
X433333Y76732D01*
X432808D01*
X432336Y76496D01*
X432021Y76024D01*
X431916Y75472D01*
X432021Y74921D01*
X432283Y74528D01*
X432704Y74291D01*
X433071Y74213D01*
G01X393123Y99409D02*
X394383D01*
G01X393701Y100433D02*
Y98386D01*
G01X397638Y102559D02*
X397218Y102402D01*
X396903Y102008D01*
X396693Y101535D01*
X396535Y100906D01*
X396483Y100197D01*
X396535Y99488D01*
X396693Y98858D01*
X396903Y98386D01*
X397218Y97992D01*
X397638Y97835D01*
X398058Y97992D01*
X398373Y98386D01*
X398583Y98858D01*
X398740Y99488D01*
X398793Y100197D01*
X398740Y100906D01*
X398583Y101535D01*
X398373Y102008D01*
X398058Y102402D01*
X397638Y102559D01*
G01X401575Y97677D02*
X401470Y97756D01*
Y97913D01*
X401575Y97992D01*
X401680Y97913D01*
Y97756D01*
X401575Y97677D01*
G01X405512Y102559D02*
X405092Y102402D01*
X404777Y102008D01*
X404567Y101535D01*
X404409Y100906D01*
X404357Y100197D01*
X404409Y99488D01*
X404567Y98858D01*
X404777Y98386D01*
X405092Y97992D01*
X405512Y97835D01*
X405932Y97992D01*
X406247Y98386D01*
X406457Y98858D01*
X406614Y99488D01*
X406667Y100197D01*
X406614Y100906D01*
X406457Y101535D01*
X406247Y102008D01*
X405932Y102402D01*
X405512Y102559D01*
G01X409449Y97835D02*
X409816Y97913D01*
X410236Y98150D01*
X410499Y98543D01*
X410604Y99094D01*
X410499Y99646D01*
X410184Y100118D01*
X409711Y100354D01*
X409186D01*
X408871Y100512D01*
X408609Y100906D01*
X408504Y101457D01*
X408661Y102008D01*
X409029Y102402D01*
X409449Y102559D01*
X409869Y102402D01*
X410236Y102008D01*
X410394Y101457D01*
X410289Y100906D01*
X410026Y100512D01*
X409711Y100354D01*
X409186D01*
X408714Y100118D01*
X408399Y99646D01*
X408294Y99094D01*
X408399Y98543D01*
X408661Y98150D01*
X409081Y97913D01*
X409449Y97835D01*
G01X412441Y97677D02*
X414331Y102559D01*
G01X416641Y99409D02*
X418005D01*
G01X421260Y102559D02*
X420840Y102402D01*
X420525Y102008D01*
X420315Y101535D01*
X420157Y100906D01*
X420105Y100197D01*
X420157Y99488D01*
X420315Y98858D01*
X420525Y98386D01*
X420840Y97992D01*
X421260Y97835D01*
X421680Y97992D01*
X421995Y98386D01*
X422205Y98858D01*
X422362Y99488D01*
X422415Y100197D01*
X422362Y100906D01*
X422205Y101535D01*
X421995Y102008D01*
X421680Y102402D01*
X421260Y102559D01*
G01X425197Y97677D02*
X425092Y97756D01*
Y97913D01*
X425197Y97992D01*
X425302Y97913D01*
Y97756D01*
X425197Y97677D01*
G01X429134Y102559D02*
X428714Y102402D01*
X428399Y102008D01*
X428189Y101535D01*
X428031Y100906D01*
X427979Y100197D01*
X428031Y99488D01*
X428189Y98858D01*
X428399Y98386D01*
X428714Y97992D01*
X429134Y97835D01*
X429554Y97992D01*
X429869Y98386D01*
X430079Y98858D01*
X430236Y99488D01*
X430289Y100197D01*
X430236Y100906D01*
X430079Y101535D01*
X429869Y102008D01*
X429554Y102402D01*
X429134Y102559D01*
G01X433071Y97835D02*
X433438Y97913D01*
X433858Y98150D01*
X434121Y98543D01*
X434226Y99094D01*
X434121Y99646D01*
X433806Y100118D01*
X433333Y100354D01*
X432808D01*
X432493Y100512D01*
X432231Y100906D01*
X432126Y101457D01*
X432283Y102008D01*
X432651Y102402D01*
X433071Y102559D01*
X433491Y102402D01*
X433858Y102008D01*
X434016Y101457D01*
X433911Y100906D01*
X433648Y100512D01*
X433333Y100354D01*
X432808D01*
X432336Y100118D01*
X432021Y99646D01*
X431916Y99094D01*
X432021Y98543D01*
X432283Y98150D01*
X432704Y97913D01*
X433071Y97835D01*
G01X397060Y123031D02*
X398320D01*
G01X397638Y124055D02*
Y122008D01*
G01X401575Y126181D02*
X401155Y126024D01*
X400840Y125630D01*
X400630Y125157D01*
X400472Y124528D01*
X400420Y123819D01*
X400472Y123110D01*
X400630Y122480D01*
X400840Y122008D01*
X401155Y121614D01*
X401575Y121457D01*
X401995Y121614D01*
X402310Y122008D01*
X402520Y122480D01*
X402677Y123110D01*
X402730Y123819D01*
X402677Y124528D01*
X402520Y125157D01*
X402310Y125630D01*
X401995Y126024D01*
X401575Y126181D01*
G01X405512Y121299D02*
X405407Y121378D01*
Y121535D01*
X405512Y121614D01*
X405617Y121535D01*
Y121378D01*
X405512Y121299D01*
G01X409449Y121457D02*
Y126181D01*
X408819Y125236D01*
G01Y121457D02*
X410079D01*
G01X412441Y121299D02*
X414331Y126181D01*
G01X416641Y123031D02*
X418005D01*
G01X421260Y126181D02*
X420840Y126024D01*
X420525Y125630D01*
X420315Y125157D01*
X420157Y124528D01*
X420105Y123819D01*
X420157Y123110D01*
X420315Y122480D01*
X420525Y122008D01*
X420840Y121614D01*
X421260Y121457D01*
X421680Y121614D01*
X421995Y122008D01*
X422205Y122480D01*
X422362Y123110D01*
X422415Y123819D01*
X422362Y124528D01*
X422205Y125157D01*
X421995Y125630D01*
X421680Y126024D01*
X421260Y126181D01*
G01X425197Y121299D02*
X425092Y121378D01*
Y121535D01*
X425197Y121614D01*
X425302Y121535D01*
Y121378D01*
X425197Y121299D01*
G01X429134Y126181D02*
X428714Y126024D01*
X428399Y125630D01*
X428189Y125157D01*
X428031Y124528D01*
X427979Y123819D01*
X428031Y123110D01*
X428189Y122480D01*
X428399Y122008D01*
X428714Y121614D01*
X429134Y121457D01*
X429554Y121614D01*
X429869Y122008D01*
X430079Y122480D01*
X430236Y123110D01*
X430289Y123819D01*
X430236Y124528D01*
X430079Y125157D01*
X429869Y125630D01*
X429554Y126024D01*
X429134Y126181D01*
G01X393123Y111220D02*
X394383D01*
G01X393701Y112244D02*
Y110197D01*
G01X397638Y114370D02*
X397218Y114213D01*
X396903Y113819D01*
X396693Y113346D01*
X396535Y112717D01*
X396483Y112008D01*
X396535Y111299D01*
X396693Y110669D01*
X396903Y110197D01*
X397218Y109803D01*
X397638Y109646D01*
X398058Y109803D01*
X398373Y110197D01*
X398583Y110669D01*
X398740Y111299D01*
X398793Y112008D01*
X398740Y112717D01*
X398583Y113346D01*
X398373Y113819D01*
X398058Y114213D01*
X397638Y114370D01*
G01X401575Y109488D02*
X401470Y109567D01*
Y109724D01*
X401575Y109803D01*
X401680Y109724D01*
Y109567D01*
X401575Y109488D01*
G01X405512Y114370D02*
X405092Y114213D01*
X404777Y113819D01*
X404567Y113346D01*
X404409Y112717D01*
X404357Y112008D01*
X404409Y111299D01*
X404567Y110669D01*
X404777Y110197D01*
X405092Y109803D01*
X405512Y109646D01*
X405932Y109803D01*
X406247Y110197D01*
X406457Y110669D01*
X406614Y111299D01*
X406667Y112008D01*
X406614Y112717D01*
X406457Y113346D01*
X406247Y113819D01*
X405932Y114213D01*
X405512Y114370D01*
G01X409449Y109646D02*
X409816Y109724D01*
X410236Y109961D01*
X410499Y110354D01*
X410604Y110906D01*
X410499Y111457D01*
X410184Y111929D01*
X409711Y112165D01*
X409186D01*
X408871Y112323D01*
X408609Y112717D01*
X408504Y113268D01*
X408661Y113819D01*
X409029Y114213D01*
X409449Y114370D01*
X409869Y114213D01*
X410236Y113819D01*
X410394Y113268D01*
X410289Y112717D01*
X410026Y112323D01*
X409711Y112165D01*
X409186D01*
X408714Y111929D01*
X408399Y111457D01*
X408294Y110906D01*
X408399Y110354D01*
X408661Y109961D01*
X409081Y109724D01*
X409449Y109646D01*
G01X412441Y109488D02*
X414331Y114370D01*
G01X416641Y111220D02*
X418005D01*
G01X421260Y114370D02*
X420840Y114213D01*
X420525Y113819D01*
X420315Y113346D01*
X420157Y112717D01*
X420105Y112008D01*
X420157Y111299D01*
X420315Y110669D01*
X420525Y110197D01*
X420840Y109803D01*
X421260Y109646D01*
X421680Y109803D01*
X421995Y110197D01*
X422205Y110669D01*
X422362Y111299D01*
X422415Y112008D01*
X422362Y112717D01*
X422205Y113346D01*
X421995Y113819D01*
X421680Y114213D01*
X421260Y114370D01*
G01X425197Y109488D02*
X425092Y109567D01*
Y109724D01*
X425197Y109803D01*
X425302Y109724D01*
Y109567D01*
X425197Y109488D01*
G01X429134Y114370D02*
X428714Y114213D01*
X428399Y113819D01*
X428189Y113346D01*
X428031Y112717D01*
X427979Y112008D01*
X428031Y111299D01*
X428189Y110669D01*
X428399Y110197D01*
X428714Y109803D01*
X429134Y109646D01*
X429554Y109803D01*
X429869Y110197D01*
X430079Y110669D01*
X430236Y111299D01*
X430289Y112008D01*
X430236Y112717D01*
X430079Y113346D01*
X429869Y113819D01*
X429554Y114213D01*
X429134Y114370D01*
G01X433071Y109646D02*
X433438Y109724D01*
X433858Y109961D01*
X434121Y110354D01*
X434226Y110906D01*
X434121Y111457D01*
X433806Y111929D01*
X433333Y112165D01*
X432808D01*
X432493Y112323D01*
X432231Y112717D01*
X432126Y113268D01*
X432283Y113819D01*
X432651Y114213D01*
X433071Y114370D01*
X433491Y114213D01*
X433858Y113819D01*
X434016Y113268D01*
X433911Y112717D01*
X433648Y112323D01*
X433333Y112165D01*
X432808D01*
X432336Y111929D01*
X432021Y111457D01*
X431916Y110906D01*
X432021Y110354D01*
X432283Y109961D01*
X432704Y109724D01*
X433071Y109646D01*
G01X395092Y134843D02*
X396352D01*
G01X395669Y135866D02*
Y133819D01*
G01X399606Y137992D02*
X399186Y137835D01*
X398871Y137441D01*
X398661Y136969D01*
X398504Y136339D01*
X398452Y135630D01*
X398504Y134921D01*
X398661Y134291D01*
X398871Y133819D01*
X399186Y133425D01*
X399606Y133268D01*
X400026Y133425D01*
X400341Y133819D01*
X400551Y134291D01*
X400709Y134921D01*
X400761Y135630D01*
X400709Y136339D01*
X400551Y136969D01*
X400341Y137441D01*
X400026Y137835D01*
X399606Y137992D01*
G01X403543Y133110D02*
X403438Y133189D01*
Y133346D01*
X403543Y133425D01*
X403648Y133346D01*
Y133189D01*
X403543Y133110D01*
G01X407480Y137992D02*
X407060Y137835D01*
X406745Y137441D01*
X406535Y136969D01*
X406378Y136339D01*
X406326Y135630D01*
X406378Y134921D01*
X406535Y134291D01*
X406745Y133819D01*
X407060Y133425D01*
X407480Y133268D01*
X407900Y133425D01*
X408215Y133819D01*
X408425Y134291D01*
X408583Y134921D01*
X408635Y135630D01*
X408583Y136339D01*
X408425Y136969D01*
X408215Y137441D01*
X407900Y137835D01*
X407480Y137992D01*
G01X410263Y133976D02*
X410578Y133583D01*
X410945Y133346D01*
X411417Y133268D01*
X411890Y133425D01*
X412257Y133740D01*
X412520Y134291D01*
X412572Y134921D01*
X412467Y135551D01*
X412205Y135945D01*
X411837Y136260D01*
X411470Y136339D01*
X411102Y136260D01*
X410630Y135945D01*
X410787Y137992D01*
X412205D01*
G01X414409Y133110D02*
X416299Y137992D01*
G01X418609Y134843D02*
X419974D01*
G01X423228Y137992D02*
X422808Y137835D01*
X422493Y137441D01*
X422283Y136969D01*
X422126Y136339D01*
X422074Y135630D01*
X422126Y134921D01*
X422283Y134291D01*
X422493Y133819D01*
X422808Y133425D01*
X423228Y133268D01*
X423648Y133425D01*
X423963Y133819D01*
X424173Y134291D01*
X424331Y134921D01*
X424383Y135630D01*
X424331Y136339D01*
X424173Y136969D01*
X423963Y137441D01*
X423648Y137835D01*
X423228Y137992D01*
G01X427165Y133110D02*
X427060Y133189D01*
Y133346D01*
X427165Y133425D01*
X427270Y133346D01*
Y133189D01*
X427165Y133110D01*
G01X431102Y137992D02*
X430682Y137835D01*
X430367Y137441D01*
X430157Y136969D01*
X430000Y136339D01*
X429948Y135630D01*
X430000Y134921D01*
X430157Y134291D01*
X430367Y133819D01*
X430682Y133425D01*
X431102Y133268D01*
X431522Y133425D01*
X431837Y133819D01*
X432047Y134291D01*
X432205Y134921D01*
X432257Y135630D01*
X432205Y136339D01*
X432047Y136969D01*
X431837Y137441D01*
X431522Y137835D01*
X431102Y137992D01*
G01X393123Y158465D02*
X394383D01*
G01X393701Y159488D02*
Y157441D01*
G01X397638Y161614D02*
X397218Y161457D01*
X396903Y161063D01*
X396693Y160591D01*
X396535Y159961D01*
X396483Y159252D01*
X396535Y158543D01*
X396693Y157913D01*
X396903Y157441D01*
X397218Y157047D01*
X397638Y156890D01*
X398058Y157047D01*
X398373Y157441D01*
X398583Y157913D01*
X398740Y158543D01*
X398793Y159252D01*
X398740Y159961D01*
X398583Y160591D01*
X398373Y161063D01*
X398058Y161457D01*
X397638Y161614D01*
G01X401575Y156732D02*
X401470Y156811D01*
Y156969D01*
X401575Y157047D01*
X401680Y156969D01*
Y156811D01*
X401575Y156732D01*
G01X405512Y161614D02*
X405092Y161457D01*
X404777Y161063D01*
X404567Y160591D01*
X404409Y159961D01*
X404357Y159252D01*
X404409Y158543D01*
X404567Y157913D01*
X404777Y157441D01*
X405092Y157047D01*
X405512Y156890D01*
X405932Y157047D01*
X406247Y157441D01*
X406457Y157913D01*
X406614Y158543D01*
X406667Y159252D01*
X406614Y159961D01*
X406457Y160591D01*
X406247Y161063D01*
X405932Y161457D01*
X405512Y161614D01*
G01X409449Y156890D02*
X409816Y156969D01*
X410236Y157205D01*
X410499Y157598D01*
X410604Y158150D01*
X410499Y158701D01*
X410184Y159173D01*
X409711Y159409D01*
X409186D01*
X408871Y159567D01*
X408609Y159961D01*
X408504Y160512D01*
X408661Y161063D01*
X409029Y161457D01*
X409449Y161614D01*
X409869Y161457D01*
X410236Y161063D01*
X410394Y160512D01*
X410289Y159961D01*
X410026Y159567D01*
X409711Y159409D01*
X409186D01*
X408714Y159173D01*
X408399Y158701D01*
X408294Y158150D01*
X408399Y157598D01*
X408661Y157205D01*
X409081Y156969D01*
X409449Y156890D01*
G01X412441Y156732D02*
X414331Y161614D01*
G01X416641Y158465D02*
X418005D01*
G01X421260Y161614D02*
X420840Y161457D01*
X420525Y161063D01*
X420315Y160591D01*
X420157Y159961D01*
X420105Y159252D01*
X420157Y158543D01*
X420315Y157913D01*
X420525Y157441D01*
X420840Y157047D01*
X421260Y156890D01*
X421680Y157047D01*
X421995Y157441D01*
X422205Y157913D01*
X422362Y158543D01*
X422415Y159252D01*
X422362Y159961D01*
X422205Y160591D01*
X421995Y161063D01*
X421680Y161457D01*
X421260Y161614D01*
G01X425197Y156732D02*
X425092Y156811D01*
Y156969D01*
X425197Y157047D01*
X425302Y156969D01*
Y156811D01*
X425197Y156732D01*
G01X429134Y161614D02*
X428714Y161457D01*
X428399Y161063D01*
X428189Y160591D01*
X428031Y159961D01*
X427979Y159252D01*
X428031Y158543D01*
X428189Y157913D01*
X428399Y157441D01*
X428714Y157047D01*
X429134Y156890D01*
X429554Y157047D01*
X429869Y157441D01*
X430079Y157913D01*
X430236Y158543D01*
X430289Y159252D01*
X430236Y159961D01*
X430079Y160591D01*
X429869Y161063D01*
X429554Y161457D01*
X429134Y161614D01*
G01X433071Y156890D02*
X433438Y156969D01*
X433858Y157205D01*
X434121Y157598D01*
X434226Y158150D01*
X434121Y158701D01*
X433806Y159173D01*
X433333Y159409D01*
X432808D01*
X432493Y159567D01*
X432231Y159961D01*
X432126Y160512D01*
X432283Y161063D01*
X432651Y161457D01*
X433071Y161614D01*
X433491Y161457D01*
X433858Y161063D01*
X434016Y160512D01*
X433911Y159961D01*
X433648Y159567D01*
X433333Y159409D01*
X432808D01*
X432336Y159173D01*
X432021Y158701D01*
X431916Y158150D01*
X432021Y157598D01*
X432283Y157205D01*
X432704Y156969D01*
X433071Y156890D01*
G01X393123Y146654D02*
X394383D01*
G01X393701Y147677D02*
Y145630D01*
G01X397638Y149803D02*
X397218Y149646D01*
X396903Y149252D01*
X396693Y148780D01*
X396535Y148150D01*
X396483Y147441D01*
X396535Y146732D01*
X396693Y146102D01*
X396903Y145630D01*
X397218Y145236D01*
X397638Y145079D01*
X398058Y145236D01*
X398373Y145630D01*
X398583Y146102D01*
X398740Y146732D01*
X398793Y147441D01*
X398740Y148150D01*
X398583Y148780D01*
X398373Y149252D01*
X398058Y149646D01*
X397638Y149803D01*
G01X401575Y144921D02*
X401470Y145000D01*
Y145157D01*
X401575Y145236D01*
X401680Y145157D01*
Y145000D01*
X401575Y144921D01*
G01X405512Y149803D02*
X405092Y149646D01*
X404777Y149252D01*
X404567Y148780D01*
X404409Y148150D01*
X404357Y147441D01*
X404409Y146732D01*
X404567Y146102D01*
X404777Y145630D01*
X405092Y145236D01*
X405512Y145079D01*
X405932Y145236D01*
X406247Y145630D01*
X406457Y146102D01*
X406614Y146732D01*
X406667Y147441D01*
X406614Y148150D01*
X406457Y148780D01*
X406247Y149252D01*
X405932Y149646D01*
X405512Y149803D01*
G01X409449Y145079D02*
X409816Y145157D01*
X410236Y145394D01*
X410499Y145787D01*
X410604Y146339D01*
X410499Y146890D01*
X410184Y147362D01*
X409711Y147598D01*
X409186D01*
X408871Y147756D01*
X408609Y148150D01*
X408504Y148701D01*
X408661Y149252D01*
X409029Y149646D01*
X409449Y149803D01*
X409869Y149646D01*
X410236Y149252D01*
X410394Y148701D01*
X410289Y148150D01*
X410026Y147756D01*
X409711Y147598D01*
X409186D01*
X408714Y147362D01*
X408399Y146890D01*
X408294Y146339D01*
X408399Y145787D01*
X408661Y145394D01*
X409081Y145157D01*
X409449Y145079D01*
G01X412441Y144921D02*
X414331Y149803D01*
G01X416641Y146654D02*
X418005D01*
G01X421260Y149803D02*
X420840Y149646D01*
X420525Y149252D01*
X420315Y148780D01*
X420157Y148150D01*
X420105Y147441D01*
X420157Y146732D01*
X420315Y146102D01*
X420525Y145630D01*
X420840Y145236D01*
X421260Y145079D01*
X421680Y145236D01*
X421995Y145630D01*
X422205Y146102D01*
X422362Y146732D01*
X422415Y147441D01*
X422362Y148150D01*
X422205Y148780D01*
X421995Y149252D01*
X421680Y149646D01*
X421260Y149803D01*
G01X425197Y144921D02*
X425092Y145000D01*
Y145157D01*
X425197Y145236D01*
X425302Y145157D01*
Y145000D01*
X425197Y144921D01*
G01X429134Y149803D02*
X428714Y149646D01*
X428399Y149252D01*
X428189Y148780D01*
X428031Y148150D01*
X427979Y147441D01*
X428031Y146732D01*
X428189Y146102D01*
X428399Y145630D01*
X428714Y145236D01*
X429134Y145079D01*
X429554Y145236D01*
X429869Y145630D01*
X430079Y146102D01*
X430236Y146732D01*
X430289Y147441D01*
X430236Y148150D01*
X430079Y148780D01*
X429869Y149252D01*
X429554Y149646D01*
X429134Y149803D01*
G01X433071Y145079D02*
X433438Y145157D01*
X433858Y145394D01*
X434121Y145787D01*
X434226Y146339D01*
X434121Y146890D01*
X433806Y147362D01*
X433333Y147598D01*
X432808D01*
X432493Y147756D01*
X432231Y148150D01*
X432126Y148701D01*
X432283Y149252D01*
X432651Y149646D01*
X433071Y149803D01*
X433491Y149646D01*
X433858Y149252D01*
X434016Y148701D01*
X433911Y148150D01*
X433648Y147756D01*
X433333Y147598D01*
X432808D01*
X432336Y147362D01*
X432021Y146890D01*
X431916Y146339D01*
X432021Y145787D01*
X432283Y145394D01*
X432704Y145157D01*
X433071Y145079D01*
G01X397638Y172244D02*
Y167520D01*
G01X396430Y172244D02*
X398845D01*
G01X401575Y167520D02*
X401155Y167598D01*
X400787Y167913D01*
X400472Y168386D01*
X400263Y168937D01*
X400157Y169567D01*
Y170197D01*
X400263Y170827D01*
X400472Y171378D01*
X400787Y171850D01*
X401155Y172165D01*
X401575Y172244D01*
X401995Y172165D01*
X402362Y171850D01*
X402677Y171378D01*
X402887Y170827D01*
X402992Y170197D01*
Y169567D01*
X402887Y168937D01*
X402677Y168386D01*
X402362Y167913D01*
X401995Y167598D01*
X401575Y167520D01*
G01X404462Y172244D02*
Y167520D01*
X406562D01*
G01X410499D02*
X408399D01*
Y172244D01*
X410499D01*
G01X409659Y169961D02*
X408399D01*
G01X412336Y167520D02*
Y172244D01*
X413648D01*
X414068Y172008D01*
X414331Y171693D01*
X414436Y171063D01*
X414331Y170433D01*
X414016Y170039D01*
X413648Y169803D01*
X412336D01*
G01X413648D02*
X414436Y167520D01*
G01X416011D02*
X417323Y172244D01*
X418635Y167520D01*
G01X418163Y169173D02*
X416483D01*
G01X420052Y167520D02*
Y172244D01*
X422467Y167520D01*
Y172244D01*
G01X426352Y171850D02*
X426037Y172087D01*
X425669Y172244D01*
X425249D01*
X424777Y172008D01*
X424409Y171614D01*
X424147Y171142D01*
X423937Y170354D01*
X423885Y169646D01*
X423989Y168937D01*
X424147Y168465D01*
X424462Y167992D01*
X424830Y167677D01*
X425197Y167520D01*
X425564D01*
X425932Y167677D01*
X426247Y167913D01*
X426509Y168228D01*
G01X430184Y167520D02*
X428084D01*
Y172244D01*
X430184D01*
G01X429344Y169961D02*
X428084D01*
G01X452493Y38780D02*
Y43504D01*
X453753D01*
X454173Y43268D01*
X454488Y42717D01*
X454593Y42087D01*
X454488Y41457D01*
X454226Y40984D01*
X453753Y40748D01*
X452493D01*
G01X456430Y43504D02*
Y38780D01*
X458530D01*
G01X460105D02*
X461417Y43504D01*
X462730Y38780D01*
G01X462257Y40433D02*
X460578D01*
G01X465354Y43504D02*
Y38780D01*
G01X464147Y43504D02*
X466562D01*
G01X470341Y38780D02*
X468241D01*
Y43504D01*
X470341D01*
G01X469501Y41220D02*
X468241D01*
G01X472074Y38780D02*
Y43504D01*
X473123D01*
X473543Y43268D01*
X473858Y42953D01*
X474121Y42480D01*
X474331Y41929D01*
X474383Y41142D01*
X474331Y40354D01*
X474121Y39803D01*
X473858Y39331D01*
X473543Y39016D01*
X473123Y38780D01*
X472074D01*
G01X452493Y26969D02*
Y31693D01*
X453753D01*
X454173Y31457D01*
X454488Y30906D01*
X454593Y30276D01*
X454488Y29646D01*
X454226Y29173D01*
X453753Y28937D01*
X452493D01*
G01X456430Y31693D02*
Y26969D01*
X458530D01*
G01X460105D02*
X461417Y31693D01*
X462730Y26969D01*
G01X462257Y28622D02*
X460578D01*
G01X465354Y31693D02*
Y26969D01*
G01X464147Y31693D02*
X466562D01*
G01X470341Y26969D02*
X468241D01*
Y31693D01*
X470341D01*
G01X469501Y29409D02*
X468241D01*
G01X472074Y26969D02*
Y31693D01*
X473123D01*
X473543Y31457D01*
X473858Y31142D01*
X474121Y30669D01*
X474331Y30118D01*
X474383Y29331D01*
X474331Y28543D01*
X474121Y27992D01*
X473858Y27520D01*
X473543Y27205D01*
X473123Y26969D01*
X472074D01*
G01X444462Y50591D02*
Y55315D01*
X446877Y50591D01*
Y55315D01*
G01X449606Y50591D02*
X449186Y50669D01*
X448819Y50984D01*
X448504Y51457D01*
X448294Y52008D01*
X448189Y52638D01*
Y53268D01*
X448294Y53898D01*
X448504Y54449D01*
X448819Y54921D01*
X449186Y55236D01*
X449606Y55315D01*
X450026Y55236D01*
X450394Y54921D01*
X450709Y54449D01*
X450919Y53898D01*
X451024Y53268D01*
Y52638D01*
X450919Y52008D01*
X450709Y51457D01*
X450394Y50984D01*
X450026Y50669D01*
X449606Y50591D01*
G01X452336D02*
Y55315D01*
X454751Y50591D01*
Y55315D01*
G01X456798Y52165D02*
X458163D01*
G01X460367Y50591D02*
Y55315D01*
X461627D01*
X462047Y55079D01*
X462362Y54528D01*
X462467Y53898D01*
X462362Y53268D01*
X462100Y52795D01*
X461627Y52559D01*
X460367D01*
G01X464304Y55315D02*
Y50591D01*
X466404D01*
G01X467979D02*
X469291Y55315D01*
X470604Y50591D01*
G01X470131Y52244D02*
X468452D01*
G01X473228Y55315D02*
Y50591D01*
G01X472021Y55315D02*
X474436D01*
G01X478215Y50591D02*
X476115D01*
Y55315D01*
X478215D01*
G01X477375Y53031D02*
X476115D01*
G01X479948Y50591D02*
Y55315D01*
X480997D01*
X481417Y55079D01*
X481732Y54764D01*
X481995Y54291D01*
X482205Y53740D01*
X482257Y52953D01*
X482205Y52165D01*
X481995Y51614D01*
X481732Y51142D01*
X481417Y50827D01*
X480997Y50591D01*
X479948D01*
G01X444462Y62402D02*
Y67126D01*
X446877Y62402D01*
Y67126D01*
G01X449606Y62402D02*
X449186Y62480D01*
X448819Y62795D01*
X448504Y63268D01*
X448294Y63819D01*
X448189Y64449D01*
Y65079D01*
X448294Y65709D01*
X448504Y66260D01*
X448819Y66732D01*
X449186Y67047D01*
X449606Y67126D01*
X450026Y67047D01*
X450394Y66732D01*
X450709Y66260D01*
X450919Y65709D01*
X451024Y65079D01*
Y64449D01*
X450919Y63819D01*
X450709Y63268D01*
X450394Y62795D01*
X450026Y62480D01*
X449606Y62402D01*
G01X452336D02*
Y67126D01*
X454751Y62402D01*
Y67126D01*
G01X456798Y63976D02*
X458163D01*
G01X460367Y62402D02*
Y67126D01*
X461627D01*
X462047Y66890D01*
X462362Y66339D01*
X462467Y65709D01*
X462362Y65079D01*
X462100Y64606D01*
X461627Y64370D01*
X460367D01*
G01X464304Y67126D02*
Y62402D01*
X466404D01*
G01X467979D02*
X469291Y67126D01*
X470604Y62402D01*
G01X470131Y64055D02*
X468452D01*
G01X473228Y67126D02*
Y62402D01*
G01X472021Y67126D02*
X474436D01*
G01X478215Y62402D02*
X476115D01*
Y67126D01*
X478215D01*
G01X477375Y64843D02*
X476115D01*
G01X479948Y62402D02*
Y67126D01*
X480997D01*
X481417Y66890D01*
X481732Y66575D01*
X481995Y66102D01*
X482205Y65551D01*
X482257Y64764D01*
X482205Y63976D01*
X481995Y63425D01*
X481732Y62953D01*
X481417Y62638D01*
X480997Y62402D01*
X479948D01*
G01X452493Y86024D02*
Y90748D01*
X453753D01*
X454173Y90512D01*
X454488Y89961D01*
X454593Y89331D01*
X454488Y88701D01*
X454226Y88228D01*
X453753Y87992D01*
X452493D01*
G01X456430Y90748D02*
Y86024D01*
X458530D01*
G01X460105D02*
X461417Y90748D01*
X462730Y86024D01*
G01X462257Y87677D02*
X460578D01*
G01X465354Y90748D02*
Y86024D01*
G01X464147Y90748D02*
X466562D01*
G01X470341Y86024D02*
X468241D01*
Y90748D01*
X470341D01*
G01X469501Y88465D02*
X468241D01*
G01X472074Y86024D02*
Y90748D01*
X473123D01*
X473543Y90512D01*
X473858Y90197D01*
X474121Y89724D01*
X474331Y89173D01*
X474383Y88386D01*
X474331Y87598D01*
X474121Y87047D01*
X473858Y86575D01*
X473543Y86260D01*
X473123Y86024D01*
X472074D01*
G01X452493Y74213D02*
Y78937D01*
X453753D01*
X454173Y78701D01*
X454488Y78150D01*
X454593Y77520D01*
X454488Y76890D01*
X454226Y76417D01*
X453753Y76181D01*
X452493D01*
G01X456430Y78937D02*
Y74213D01*
X458530D01*
G01X460105D02*
X461417Y78937D01*
X462730Y74213D01*
G01X462257Y75866D02*
X460578D01*
G01X465354Y78937D02*
Y74213D01*
G01X464147Y78937D02*
X466562D01*
G01X470341Y74213D02*
X468241D01*
Y78937D01*
X470341D01*
G01X469501Y76654D02*
X468241D01*
G01X472074Y74213D02*
Y78937D01*
X473123D01*
X473543Y78701D01*
X473858Y78386D01*
X474121Y77913D01*
X474331Y77362D01*
X474383Y76575D01*
X474331Y75787D01*
X474121Y75236D01*
X473858Y74764D01*
X473543Y74449D01*
X473123Y74213D01*
X472074D01*
G01X452493Y97835D02*
Y102559D01*
X453753D01*
X454173Y102323D01*
X454488Y101772D01*
X454593Y101142D01*
X454488Y100512D01*
X454226Y100039D01*
X453753Y99803D01*
X452493D01*
G01X456430Y102559D02*
Y97835D01*
X458530D01*
G01X460105D02*
X461417Y102559D01*
X462730Y97835D01*
G01X462257Y99488D02*
X460578D01*
G01X465354Y102559D02*
Y97835D01*
G01X464147Y102559D02*
X466562D01*
G01X470341Y97835D02*
X468241D01*
Y102559D01*
X470341D01*
G01X469501Y100276D02*
X468241D01*
G01X472074Y97835D02*
Y102559D01*
X473123D01*
X473543Y102323D01*
X473858Y102008D01*
X474121Y101535D01*
X474331Y100984D01*
X474383Y100197D01*
X474331Y99409D01*
X474121Y98858D01*
X473858Y98386D01*
X473543Y98071D01*
X473123Y97835D01*
X472074D01*
G01X452493Y121457D02*
Y126181D01*
X453753D01*
X454173Y125945D01*
X454488Y125394D01*
X454593Y124764D01*
X454488Y124134D01*
X454226Y123661D01*
X453753Y123425D01*
X452493D01*
G01X456430Y126181D02*
Y121457D01*
X458530D01*
G01X460105D02*
X461417Y126181D01*
X462730Y121457D01*
G01X462257Y123110D02*
X460578D01*
G01X465354Y126181D02*
Y121457D01*
G01X464147Y126181D02*
X466562D01*
G01X470341Y121457D02*
X468241D01*
Y126181D01*
X470341D01*
G01X469501Y123898D02*
X468241D01*
G01X472074Y121457D02*
Y126181D01*
X473123D01*
X473543Y125945D01*
X473858Y125630D01*
X474121Y125157D01*
X474331Y124606D01*
X474383Y123819D01*
X474331Y123031D01*
X474121Y122480D01*
X473858Y122008D01*
X473543Y121693D01*
X473123Y121457D01*
X472074D01*
G01X452493Y109646D02*
Y114370D01*
X453753D01*
X454173Y114134D01*
X454488Y113583D01*
X454593Y112953D01*
X454488Y112323D01*
X454226Y111850D01*
X453753Y111614D01*
X452493D01*
G01X456430Y114370D02*
Y109646D01*
X458530D01*
G01X460105D02*
X461417Y114370D01*
X462730Y109646D01*
G01X462257Y111299D02*
X460578D01*
G01X465354Y114370D02*
Y109646D01*
G01X464147Y114370D02*
X466562D01*
G01X470341Y109646D02*
X468241D01*
Y114370D01*
X470341D01*
G01X469501Y112087D02*
X468241D01*
G01X472074Y109646D02*
Y114370D01*
X473123D01*
X473543Y114134D01*
X473858Y113819D01*
X474121Y113346D01*
X474331Y112795D01*
X474383Y112008D01*
X474331Y111220D01*
X474121Y110669D01*
X473858Y110197D01*
X473543Y109882D01*
X473123Y109646D01*
X472074D01*
G01X452493Y133268D02*
Y137992D01*
X453753D01*
X454173Y137756D01*
X454488Y137205D01*
X454593Y136575D01*
X454488Y135945D01*
X454226Y135472D01*
X453753Y135236D01*
X452493D01*
G01X456430Y137992D02*
Y133268D01*
X458530D01*
G01X460105D02*
X461417Y137992D01*
X462730Y133268D01*
G01X462257Y134921D02*
X460578D01*
G01X465354Y137992D02*
Y133268D01*
G01X464147Y137992D02*
X466562D01*
G01X470341Y133268D02*
X468241D01*
Y137992D01*
X470341D01*
G01X469501Y135709D02*
X468241D01*
G01X472074Y133268D02*
Y137992D01*
X473123D01*
X473543Y137756D01*
X473858Y137441D01*
X474121Y136969D01*
X474331Y136417D01*
X474383Y135630D01*
X474331Y134843D01*
X474121Y134291D01*
X473858Y133819D01*
X473543Y133504D01*
X473123Y133268D01*
X472074D01*
G01X452493Y156890D02*
Y161614D01*
X453753D01*
X454173Y161378D01*
X454488Y160827D01*
X454593Y160197D01*
X454488Y159567D01*
X454226Y159094D01*
X453753Y158858D01*
X452493D01*
G01X456430Y161614D02*
Y156890D01*
X458530D01*
G01X460105D02*
X461417Y161614D01*
X462730Y156890D01*
G01X462257Y158543D02*
X460578D01*
G01X465354Y161614D02*
Y156890D01*
G01X464147Y161614D02*
X466562D01*
G01X470341Y156890D02*
X468241D01*
Y161614D01*
X470341D01*
G01X469501Y159331D02*
X468241D01*
G01X472074Y156890D02*
Y161614D01*
X473123D01*
X473543Y161378D01*
X473858Y161063D01*
X474121Y160591D01*
X474331Y160039D01*
X474383Y159252D01*
X474331Y158465D01*
X474121Y157913D01*
X473858Y157441D01*
X473543Y157126D01*
X473123Y156890D01*
X472074D01*
G01X452493Y145079D02*
Y149803D01*
X453753D01*
X454173Y149567D01*
X454488Y149016D01*
X454593Y148386D01*
X454488Y147756D01*
X454226Y147283D01*
X453753Y147047D01*
X452493D01*
G01X456430Y149803D02*
Y145079D01*
X458530D01*
G01X460105D02*
X461417Y149803D01*
X462730Y145079D01*
G01X462257Y146732D02*
X460578D01*
G01X465354Y149803D02*
Y145079D01*
G01X464147Y149803D02*
X466562D01*
G01X470341Y145079D02*
X468241D01*
Y149803D01*
X470341D01*
G01X469501Y147520D02*
X468241D01*
G01X472074Y145079D02*
Y149803D01*
X473123D01*
X473543Y149567D01*
X473858Y149252D01*
X474121Y148780D01*
X474331Y148228D01*
X474383Y147441D01*
X474331Y146654D01*
X474121Y146102D01*
X473858Y145630D01*
X473543Y145315D01*
X473123Y145079D01*
X472074D01*
G01X452493Y167520D02*
Y172244D01*
X453753D01*
X454173Y172008D01*
X454488Y171457D01*
X454593Y170827D01*
X454488Y170197D01*
X454226Y169724D01*
X453753Y169488D01*
X452493D01*
G01X456430Y172244D02*
Y167520D01*
X458530D01*
G01X460105D02*
X461417Y172244D01*
X462730Y167520D01*
G01X462257Y169173D02*
X460578D01*
G01X465354Y172244D02*
Y167520D01*
G01X464147Y172244D02*
X466562D01*
G01X470341Y167520D02*
X468241D01*
Y172244D01*
X470341D01*
G01X469501Y169961D02*
X468241D01*
G01X472074Y167520D02*
Y172244D01*
X473123D01*
X473543Y172008D01*
X473858Y171693D01*
X474121Y171220D01*
X474331Y170669D01*
X474383Y169882D01*
X474331Y169094D01*
X474121Y168543D01*
X473858Y168071D01*
X473543Y167756D01*
X473123Y167520D01*
X472074D01*
G01X492546Y122402D02*
X492861Y121850D01*
X493281Y121535D01*
X493753Y121457D01*
X494173Y121535D01*
X494593Y121929D01*
X494856Y122402D01*
X494908Y122874D01*
X494803Y123425D01*
X494436Y123819D01*
X494068Y123976D01*
X493596D01*
G01X494068D02*
X494383Y124213D01*
X494646Y124606D01*
X494751Y125079D01*
X494646Y125551D01*
X494383Y125945D01*
X493911Y126181D01*
X493438Y126102D01*
X492966Y125787D01*
G01X496641Y125394D02*
X496956Y125866D01*
X497323Y126102D01*
X497743Y126181D01*
X498268Y126024D01*
X498635Y125630D01*
X498740Y125157D01*
X498688Y124685D01*
X498478Y124291D01*
X497428Y123504D01*
X496956Y122953D01*
X496641Y122165D01*
X496535Y121457D01*
X498740D01*
G01X493701Y133268D02*
Y137992D01*
X493071Y137047D01*
G01Y133268D02*
X494331D01*
G01X497638Y137992D02*
X497218Y137835D01*
X496903Y137441D01*
X496693Y136969D01*
X496535Y136339D01*
X496483Y135630D01*
X496535Y134921D01*
X496693Y134291D01*
X496903Y133819D01*
X497218Y133425D01*
X497638Y133268D01*
X498058Y133425D01*
X498373Y133819D01*
X498583Y134291D01*
X498740Y134921D01*
X498793Y135630D01*
X498740Y136339D01*
X498583Y136969D01*
X498373Y137441D01*
X498058Y137835D01*
X497638Y137992D01*
G01X491732Y156890D02*
Y161614D01*
X491102Y160669D01*
G01Y156890D02*
X492362D01*
G01X495669D02*
X496037Y156969D01*
X496457Y157205D01*
X496719Y157598D01*
X496824Y158150D01*
X496719Y158701D01*
X496404Y159173D01*
X495932Y159409D01*
X495407D01*
X495092Y159567D01*
X494830Y159961D01*
X494724Y160512D01*
X494882Y161063D01*
X495249Y161457D01*
X495669Y161614D01*
X496089Y161457D01*
X496457Y161063D01*
X496614Y160512D01*
X496509Y159961D01*
X496247Y159567D01*
X495932Y159409D01*
X495407D01*
X494934Y159173D01*
X494619Y158701D01*
X494515Y158150D01*
X494619Y157598D01*
X494882Y157205D01*
X495302Y156969D01*
X495669Y156890D01*
G01X499606D02*
Y161614D01*
X498976Y160669D01*
G01Y156890D02*
X500236D01*
G01X492546Y145787D02*
X492861Y145394D01*
X493228Y145157D01*
X493701Y145079D01*
X494173Y145236D01*
X494541Y145551D01*
X494803Y146102D01*
X494856Y146732D01*
X494751Y147362D01*
X494488Y147756D01*
X494121Y148071D01*
X493753Y148150D01*
X493386Y148071D01*
X492913Y147756D01*
X493071Y149803D01*
X494488D01*
G01X497638D02*
X497218Y149646D01*
X496903Y149252D01*
X496693Y148780D01*
X496535Y148150D01*
X496483Y147441D01*
X496535Y146732D01*
X496693Y146102D01*
X496903Y145630D01*
X497218Y145236D01*
X497638Y145079D01*
X498058Y145236D01*
X498373Y145630D01*
X498583Y146102D01*
X498740Y146732D01*
X498793Y147441D01*
X498740Y148150D01*
X498583Y148780D01*
X498373Y149252D01*
X498058Y149646D01*
X497638Y149803D01*
G01X491732Y167520D02*
X491312Y167598D01*
X490945Y167913D01*
X490630Y168386D01*
X490420Y168937D01*
X490315Y169567D01*
Y170197D01*
X490420Y170827D01*
X490630Y171378D01*
X490945Y171850D01*
X491312Y172165D01*
X491732Y172244D01*
X492152Y172165D01*
X492520Y171850D01*
X492835Y171378D01*
X493044Y170827D01*
X493150Y170197D01*
Y169567D01*
X493044Y168937D01*
X492835Y168386D01*
X492520Y167913D01*
X492152Y167598D01*
X491732Y167520D01*
G01X492152Y168780D02*
X492782Y167520D01*
G01X495669Y172244D02*
Y167520D01*
G01X494462Y172244D02*
X496877D01*
G01X499606Y167520D02*
Y169646D01*
X498556Y172244D01*
G01X500656D02*
X499606Y169646D01*
G01X494672Y42717D02*
X494987Y43189D01*
X495354Y43425D01*
X495774Y43504D01*
X496299Y43346D01*
X496667Y42953D01*
X496772Y42480D01*
X496719Y42008D01*
X496509Y41614D01*
X495459Y40827D01*
X494987Y40276D01*
X494672Y39488D01*
X494567Y38780D01*
X496772D01*
G01X494672Y30906D02*
X494987Y31378D01*
X495354Y31614D01*
X495774Y31693D01*
X496299Y31535D01*
X496667Y31142D01*
X496772Y30669D01*
X496719Y30197D01*
X496509Y29803D01*
X495459Y29016D01*
X494987Y28465D01*
X494672Y27677D01*
X494567Y26969D01*
X496772D01*
G01X494515Y51535D02*
X494830Y50984D01*
X495249Y50669D01*
X495722Y50591D01*
X496142Y50669D01*
X496562Y51063D01*
X496824Y51535D01*
X496877Y52008D01*
X496772Y52559D01*
X496404Y52953D01*
X496037Y53110D01*
X495564D01*
G01X496037D02*
X496352Y53346D01*
X496614Y53740D01*
X496719Y54213D01*
X496614Y54685D01*
X496352Y55079D01*
X495879Y55315D01*
X495407Y55236D01*
X494934Y54921D01*
G01X495669Y62402D02*
Y67126D01*
X495039Y66181D01*
G01Y62402D02*
X496299D01*
G01X494515Y86969D02*
X494830Y86417D01*
X495249Y86102D01*
X495722Y86024D01*
X496142Y86102D01*
X496562Y86496D01*
X496824Y86969D01*
X496877Y87441D01*
X496772Y87992D01*
X496404Y88386D01*
X496037Y88543D01*
X495564D01*
G01X496037D02*
X496352Y88780D01*
X496614Y89173D01*
X496719Y89646D01*
X496614Y90118D01*
X496352Y90512D01*
X495879Y90748D01*
X495407Y90669D01*
X494934Y90354D01*
G01X494672Y78150D02*
X494987Y78622D01*
X495354Y78858D01*
X495774Y78937D01*
X496299Y78780D01*
X496667Y78386D01*
X496772Y77913D01*
X496719Y77441D01*
X496509Y77047D01*
X495459Y76260D01*
X494987Y75709D01*
X494672Y74921D01*
X494567Y74213D01*
X496772D01*
G01X494672Y101772D02*
X494987Y102244D01*
X495354Y102480D01*
X495774Y102559D01*
X496299Y102402D01*
X496667Y102008D01*
X496772Y101535D01*
X496719Y101063D01*
X496509Y100669D01*
X495459Y99882D01*
X494987Y99331D01*
X494672Y98543D01*
X494567Y97835D01*
X496772D01*
G01X495669Y109646D02*
X496037Y109724D01*
X496457Y109961D01*
X496719Y110354D01*
X496824Y110906D01*
X496719Y111457D01*
X496404Y111929D01*
X495932Y112165D01*
X495407D01*
X495092Y112323D01*
X494830Y112717D01*
X494724Y113268D01*
X494882Y113819D01*
X495249Y114213D01*
X495669Y114370D01*
X496089Y114213D01*
X496457Y113819D01*
X496614Y113268D01*
X496509Y112717D01*
X496247Y112323D01*
X495932Y112165D01*
X495407D01*
X494934Y111929D01*
X494619Y111457D01*
X494515Y110906D01*
X494619Y110354D01*
X494882Y109961D01*
X495302Y109724D01*
X495669Y109646D01*
G54D13*
X17717Y57087D03*
X21907Y83407D03*
X39370Y113189D03*
X25787Y119685D03*
X48425Y116142D03*
X73425Y88583D03*
Y83661D03*
X60630Y90213D03*
Y96795D03*
X73425Y103346D03*
Y98425D03*
Y93504D03*
X74409Y78740D03*
X89173D03*
X84252D03*
X79331D03*
X89173Y113189D03*
Y108268D03*
X89764Y171850D03*
X102953Y68898D03*
X102976Y59055D03*
X99016Y78740D03*
X94094D03*
X99016Y113189D03*
X94094D03*
Y108268D03*
X99016D03*
X119610Y52953D03*
X111417Y86614D03*
X113976Y98622D03*
Y108268D03*
X120669Y115354D03*
X107382Y114347D03*
X132480Y106890D03*
X125000D03*
X132480Y118701D03*
X168996Y119685D03*
Y128740D03*
X190453Y119685D03*
Y128740D03*
X207677Y68110D03*
X195866D03*
X219685Y70866D03*
Y82677D03*
X227165Y70866D03*
X239370Y80807D03*
X227165Y82677D03*
X253937Y66142D03*
X242126D03*
X258661Y80807D03*
X309449Y147441D03*
G54D23*
G01X295276Y23425D02*
Y209646D01*
X507874D01*
Y23425D01*
X295276D01*
G01Y35236D02*
X507874D01*
G01X295276Y47047D02*
X507874D01*
G01X295276Y70669D02*
X507874D01*
G01X295276Y58858D02*
X507874D01*
G01X295276Y82480D02*
X507874D01*
G01X295276Y94291D02*
X507874D01*
G01X295276Y117913D02*
X507874D01*
G01X295276Y106102D02*
X507874D01*
G01X295276Y129724D02*
X507874D01*
G01X295276Y153346D02*
X507874D01*
G01X295276Y141535D02*
X507874D01*
G01X295276Y165157D02*
X507874D01*
G01X295276Y184055D02*
X507874D01*
G01X295276Y174606D02*
X507874D01*
G01X323622D02*
Y23425D01*
G01X383465Y174606D02*
Y23425D01*
G01X443307Y174606D02*
Y23425D01*
G01X483465Y174606D02*
Y23425D01*
G54D14*
X16339Y80010D03*
Y99695D03*
X309449Y41142D03*
G54D15*
X19606Y133268D03*
Y177756D03*
X309449Y76575D03*
G54D16*
X19374Y203626D03*
X37402Y52854D03*
X28937Y63386D03*
X34646Y62598D03*
X26181Y77559D03*
X27000Y82500D03*
X36500Y88500D03*
X38650Y74650D03*
X25591Y99508D03*
Y112106D03*
X23228Y190000D03*
X27756Y190551D03*
X46260Y33563D03*
X43500Y73000D03*
X48228Y76772D03*
X48677Y83311D03*
X43000Y103500D03*
X43898Y90240D03*
X44488Y124803D03*
X62402Y67224D03*
X66732Y64370D03*
X62008Y63189D03*
X71063Y67224D03*
X58071Y76772D03*
X72047Y176575D03*
X77953Y63780D03*
X81496Y63976D03*
X78346Y83661D03*
X83268D03*
X88189D03*
Y88583D03*
X83268D03*
X78346D03*
Y103346D03*
Y98425D03*
Y93504D03*
X83268D03*
Y98425D03*
Y103346D03*
X88189D03*
Y93504D03*
Y98425D03*
X102165Y51378D03*
Y45079D03*
X89961Y64173D03*
X93110Y83661D03*
X98031D03*
Y88583D03*
X93110D03*
X98031Y103346D03*
Y98425D03*
Y93504D03*
X93110D03*
Y98425D03*
Y103346D03*
X95472Y127559D03*
X98622Y127756D03*
X105423Y167323D03*
X122835Y38386D03*
X119291Y40945D03*
X113976Y45079D03*
X114150Y49213D03*
X112008Y82874D03*
X113484Y132677D03*
X122047Y156299D03*
X119094Y147441D03*
X122047Y160433D03*
X109449Y170276D03*
X132150Y52496D03*
X133587Y65157D03*
X137130D03*
X132209Y71063D03*
Y74606D03*
X137008Y78346D03*
X136220Y96260D03*
X124409Y100394D03*
X128740Y105512D03*
X139567Y116043D03*
X137992Y132677D03*
X129134Y147441D03*
X131693Y156693D03*
X130315Y152756D03*
X125984Y140650D03*
X139665Y165256D03*
X126969Y161417D03*
X134252Y159055D03*
X154429Y39370D03*
X150689D03*
X155512Y70472D03*
X146260Y75984D03*
X149016Y83268D03*
X151772Y81102D03*
X147835Y87992D03*
X151969Y98031D03*
X155118Y92913D03*
X147047Y92520D03*
Y96949D03*
X140945Y108268D03*
Y111811D03*
X149409Y132677D03*
X145866D03*
X141535D03*
X148819Y155709D03*
X143110Y159055D03*
X147638D03*
X150000Y164173D03*
X150984Y189961D03*
X146260Y177362D03*
X171654Y36417D03*
X164567Y32874D03*
X172244Y40551D03*
X170669Y72047D03*
X160827Y76378D03*
X168701Y96063D03*
X165688Y103248D03*
X165551Y97441D03*
X172244Y90157D03*
X172925Y105709D03*
X165945Y115551D03*
X169094Y132677D03*
X161220D03*
X158071D03*
X165551D03*
X168701Y153543D03*
X159055Y154331D03*
X162697Y165256D03*
X168701Y160433D03*
X172047Y188189D03*
X161417Y188583D03*
X166732Y187795D03*
X179724Y31496D03*
X184843Y39370D03*
Y31890D03*
X174606Y51575D03*
X181496Y54724D03*
X188681Y69193D03*
X174518Y69596D03*
X182125Y79987D03*
X181035Y77137D03*
X180260Y82604D03*
X174409Y76969D03*
X182714Y84417D03*
X176222Y94912D03*
X180540Y93886D03*
X178887Y98577D03*
X176969Y89961D03*
X181398Y100311D03*
X175976Y105708D03*
X178346Y115945D03*
X179724Y141732D03*
X180118Y189173D03*
X205906Y34843D03*
X197047Y29528D03*
X194094Y31890D03*
X197835Y37402D03*
X194094Y42717D03*
X192913Y71752D03*
X207185Y88386D03*
X192913Y81791D03*
X205020Y82382D03*
X202953Y77362D03*
X200591Y82874D03*
X195472Y103937D03*
X198500Y97500D03*
X195472Y107480D03*
X218307Y37402D03*
X224213Y36811D03*
X215748Y64567D03*
X212992Y87205D03*
X209843Y95866D03*
X217717Y117913D03*
X221063Y118307D03*
X217579Y121378D03*
X211614Y129134D03*
X230709Y59449D03*
X235630Y60433D03*
X230709Y62795D03*
X237205Y137598D03*
X230118Y144685D03*
X240945Y171457D03*
X227000Y176000D03*
X309449Y159252D03*
G54D17*
X34606Y126220D03*
Y184803D03*
X309449Y100197D03*
G54D18*
X50118Y143031D03*
Y153031D03*
Y163031D03*
Y173031D03*
X60118Y138031D03*
Y148031D03*
Y158031D03*
Y168031D03*
X309449Y112008D03*
G54D19*
X60000Y200000D03*
X260000Y30000D03*
Y140000D03*
X309449Y52953D03*
M02*
