G04 ================== begin FILE IDENTIFICATION RECORD ==================*
G04 Layout Name:  netduino_plus2_20Dec16.brd*
G04 Film Name:    ASM_TOP*
G04 File Format:  Gerber RS274X*
G04 File Origin:  Cadence Allegro 16.6-2015-S069*
G04 Origin Date:  Tue Dec 20 08:56:26 2016*
G04 *
G04 Layer:  REF DES/ASSEMBLY_TOP*
G04 Layer:  PACKAGE GEOMETRY/ASSEMBLY_TOP*
G04 Layer:  BOARD GEOMETRY/OUTLINE*
G04 Layer:  BOARD GEOMETRY/SOLDERMASK_TOP*
G04 *
G04 Offset:    (0.0000 0.0000)*
G04 Mirror:    No*
G04 Mode:      Positive*
G04 Rotation:  0*
G04 FullContactRelief:  No*
G04 UndefLineWidth:     0.0000*
G04 ================== end FILE IDENTIFICATION RECORD ====================*
%FSLAX25Y25*MOIN*%
%IR0*IPPOS*OFA0.00000B0.00000*MIA0B0*SFA1.00000B1.00000*%
%ADD10C,.003937*%
%ADD11C,.003543*%
%ADD12C,.001*%
G75*
%LPD*%
G75*
G54D10*
G01X-6890Y18920D02*
Y46480D01*
X38386D01*
Y18920D01*
X-6890D01*
G01X16929Y104813D02*
Y74892D01*
X-2756D01*
Y104813D01*
X16929D01*
G01X-2756D02*
X-5118Y105600D01*
Y74104D01*
X-2756Y74892D01*
G01X0Y104813D02*
Y74892D01*
G01Y184213D02*
Y167913D01*
X33937D01*
G02X37874Y163976I0J-3937D01*
G01Y147047D01*
G02X33937Y143110I-3937J0D01*
G01X0D01*
Y126811D01*
G01X-9882Y184213D02*
Y126811D01*
X69646D01*
Y184213D01*
X-9882D01*
G01X26142Y62795D02*
X5354D01*
Y51378D01*
X26142D01*
Y62795D01*
G01X18307Y64764D02*
Y71063D01*
X15157D01*
Y64764D01*
X18307D01*
G01X19441Y74512D02*
Y63488D01*
X24559D01*
Y74512D01*
X19441D01*
G01X6398Y123091D02*
X19587D01*
Y116280D01*
X6398D01*
Y123091D01*
G01X13386Y189370D02*
Y200394D01*
X8268D01*
Y189370D01*
X13386D01*
G01Y191732D02*
X8268D01*
G01X13386Y191339D02*
X8268D01*
G01X13386Y190945D02*
X8268D01*
G01X13386Y190551D02*
X8268D01*
G01X13386Y190157D02*
X8268D01*
G01X13386Y189764D02*
X8268D01*
G01X14567Y191339D02*
X25591D01*
Y196457D01*
X14567D01*
Y191339D01*
G01Y197244D02*
X25591D01*
Y202362D01*
X14567D01*
Y197244D01*
G01X22992Y62795D02*
Y51378D01*
G01X23386Y62795D02*
Y51378D01*
G01X23780Y62795D02*
Y51378D01*
G01X24173Y62795D02*
Y51378D01*
G01X24567Y62795D02*
Y51378D01*
G01X24961Y62795D02*
Y51378D01*
G01X25354Y62795D02*
Y51378D01*
G01X25748Y62795D02*
Y51378D01*
G01X25000Y71457D02*
Y64370D01*
X28150D01*
Y71457D01*
X25000D01*
G01X33760Y58563D02*
X31398Y60925D01*
G01X33366Y58563D02*
X31398Y60531D01*
G01X32972Y58563D02*
X31398Y60138D01*
G01X32579Y58563D02*
X31398Y59744D01*
G01X32185Y58563D02*
X31398Y59350D01*
G01X31791Y58563D02*
X31398Y58957D01*
G01X43406Y58563D02*
Y65453D01*
X31398D01*
Y58563D01*
X43406D01*
G01X24016Y90748D02*
Y84449D01*
X27165D01*
Y90748D01*
X24016D01*
G01X32087Y75394D02*
X25000D01*
Y72244D01*
X32087D01*
Y75394D01*
G01X41012Y81059D02*
X29988D01*
Y75941D01*
X41012D01*
Y81059D01*
G01X29988Y81941D02*
X41012D01*
Y87059D01*
X29988D01*
Y81941D01*
G01X34760Y102724D02*
X40665D01*
G01X34760Y103118D02*
X40665D01*
G01X34760Y103512D02*
X40665D01*
G01X34760Y103906D02*
X40665D01*
G01X34760Y104299D02*
X40665D01*
G01X34760Y104693D02*
X40665D01*
G01X34760Y105087D02*
Y90913D01*
X40665D01*
Y105087D01*
X34760D01*
G01X27165Y104134D02*
Y110433D01*
X24016D01*
Y104134D01*
X27165D01*
G01Y91535D02*
Y97835D01*
X24016D01*
Y91535D01*
X27165D01*
G01X32677Y201378D02*
X26378D01*
Y198228D01*
X32677D01*
Y201378D01*
G01X41535D02*
X35236D01*
Y198228D01*
X41535D01*
Y201378D01*
G01X32677Y195472D02*
X26378D01*
Y192323D01*
X32677D01*
Y195472D01*
G01X41535D02*
X35236D01*
Y192323D01*
X41535D01*
Y195472D01*
G01X45866Y71850D02*
X100394D01*
Y8268D01*
X45866D01*
Y71850D01*
G01X49606Y75197D02*
X56693D01*
Y78346D01*
X49606D01*
Y75197D01*
G01X53236Y88465D02*
Y101457D01*
X46150D01*
Y88465D01*
X53236D01*
G01X46559Y75988D02*
Y87012D01*
X41441D01*
Y75988D01*
X46559D01*
G01X47244Y104724D02*
X44882Y102362D01*
G01X47244Y104331D02*
X45276Y102362D01*
G01X47244Y103937D02*
X45669Y102362D01*
G01X47244Y103543D02*
X46063Y102362D01*
G01X47244Y103150D02*
X46457Y102362D01*
G01X47244Y102756D02*
X46850Y102362D01*
G01X47244Y114173D02*
X41732D01*
Y102362D01*
X47244D01*
Y114173D01*
G01X54134Y108858D02*
X67126D01*
Y115551D01*
X54134D01*
Y108858D01*
G01X66299Y200000D02*
G03I-6299J0D01*
G01X70276Y78346D02*
X63189D01*
Y75197D01*
X70276D01*
Y78346D01*
G01X100000Y80709D02*
X71457D01*
Y106299D01*
X100000D01*
Y80709D01*
G01X84055Y115748D02*
X70669D01*
Y108661D01*
X84055D01*
Y115748D01*
G01X169000Y195000D02*
X69000D01*
Y205000D01*
X169000D01*
Y195000D01*
G01X76772Y119291D02*
X106299D01*
Y170472D01*
X76772D01*
Y119291D01*
G01X82677Y166535D02*
G02I-1969J0D01*
G01X77165Y174409D02*
X90551D01*
Y181496D01*
X77165D01*
Y174409D01*
G01X105000Y15000D02*
X185000D01*
Y5000D01*
X105000D01*
Y15000D01*
G01X110433Y78346D02*
X104134D01*
Y75197D01*
X110433D01*
Y78346D01*
G01X107874Y44291D02*
X110236Y46654D01*
G01X108268Y44291D02*
X110236Y46260D01*
G01X108661Y44291D02*
X110236Y45866D01*
G01X109055Y44291D02*
X110236Y45472D01*
G01X109449Y44291D02*
X110236Y45079D01*
G01X109843Y44291D02*
X110236Y44685D01*
G01Y52165D02*
X106299D01*
Y44291D01*
X110236D01*
Y52165D01*
G01X126575Y48819D02*
X115551D01*
Y43701D01*
X126575D01*
Y48819D01*
G01X120398Y72441D02*
X107012D01*
Y65354D01*
X120398D01*
Y72441D01*
G01Y62598D02*
X107012D01*
Y55512D01*
X120398D01*
Y62598D01*
G01X118307Y78346D02*
X112008D01*
Y75197D01*
X118307D01*
Y78346D01*
G01X115256Y83071D02*
X112894Y80709D01*
G01X115256Y82677D02*
X113287Y80709D01*
G01X115256Y82283D02*
X113681Y80709D01*
G01X115256Y81890D02*
X114075Y80709D01*
G01X115256Y81496D02*
X114469Y80709D01*
G01X115256Y81102D02*
X114862Y80709D01*
G01X115256Y92520D02*
X108366D01*
Y80709D01*
X115256D01*
Y92520D01*
G01X106299Y95079D02*
X119685D01*
Y102165D01*
X106299D01*
Y95079D01*
G01Y104724D02*
X119685D01*
Y111811D01*
X106299D01*
Y104724D01*
G01X115157Y136220D02*
X121457D01*
Y139370D01*
X115157D01*
Y136220D01*
G01Y126378D02*
X121457D01*
Y129528D01*
X115157D01*
Y126378D01*
G01X122047Y134252D02*
X114961D01*
Y131102D01*
X122047D01*
Y134252D01*
G01X113976Y149016D02*
X120276D01*
Y152165D01*
X113976D01*
Y149016D01*
G01X113583Y153937D02*
X120669D01*
Y157087D01*
X113583D01*
Y153937D01*
G01X113976Y163780D02*
X120276D01*
Y166929D01*
X113976D01*
Y163780D01*
G01X120276Y161811D02*
X113976D01*
Y159055D01*
X120276D01*
Y161811D01*
G01X127228Y52252D02*
X130772D01*
Y58748D01*
X127228D01*
Y52252D01*
G01X137992Y48819D02*
X126969D01*
Y43701D01*
X137992D01*
Y48819D01*
G01X138902Y63583D02*
X131815D01*
Y60433D01*
X138902D01*
Y63583D01*
G01X136933Y69291D02*
Y76378D01*
X133783D01*
Y69291D01*
X136933D01*
G01X127228Y56386D02*
X129591Y58748D01*
G01X127228Y56780D02*
X129197Y58748D01*
G01X127228Y57173D02*
X128803Y58748D01*
G01X127228Y57567D02*
X128409Y58748D01*
G01X127228Y57961D02*
X128016Y58748D01*
G01X127228Y58354D02*
X127622Y58748D01*
G01X122563Y91535D02*
Y79724D01*
X134374D01*
Y91535D01*
X122563D01*
G01X130831Y103346D02*
X128469Y100984D01*
G01X130437Y103346D02*
X128469Y101378D01*
G01X130043Y103346D02*
X128469Y101772D01*
G01X129650Y103346D02*
X128469Y102165D01*
G01X129256Y103346D02*
X128469Y102559D01*
G01X128862Y103346D02*
X128469Y102953D01*
G01Y95472D02*
X132406D01*
Y103346D01*
X128469D01*
Y95472D01*
G01X136220Y113583D02*
Y106496D01*
X139370D01*
Y113583D01*
X136220D01*
G01X149606Y124409D02*
X136614D01*
Y117323D01*
X149606D01*
Y124409D01*
G01X126280Y114370D02*
X128642Y116732D01*
G01X126280Y114764D02*
X128248Y116732D01*
G01X126280Y115157D02*
X127854Y116732D01*
G01X126280Y115551D02*
X127461Y116732D01*
G01X126280Y115945D02*
X127067Y116732D01*
G01X126280Y116339D02*
X126673Y116732D01*
G01X126280Y108858D02*
X131201D01*
Y116732D01*
X126280D01*
Y108858D01*
G01X143307Y137402D02*
X136220D01*
Y134252D01*
X143307D01*
Y137402D01*
G01X129134Y167520D02*
Y145472D01*
X167913D01*
Y167520D01*
X129134D01*
G01X127559Y142126D02*
Y149213D01*
X124409D01*
Y142126D01*
X127559D01*
G01X132677Y176575D02*
X138976D01*
Y179724D01*
X132677D01*
Y176575D01*
G01X142126Y37795D02*
X149213D01*
Y40945D01*
X142126D01*
Y37795D01*
G01X162992Y40945D02*
X155906D01*
Y37795D01*
X162992D01*
Y40945D01*
G01X164370Y55906D02*
X140748D01*
Y42126D01*
X164370D01*
Y55906D01*
G01X155315Y57283D02*
X161614D01*
Y60433D01*
X155315D01*
Y57283D01*
G01X151575Y72835D02*
G03I-1969J0D01*
G01X184055Y67913D02*
Y107283D01*
X144685D01*
Y67913D01*
X184055D01*
G01X158465Y117717D02*
X156102Y120079D01*
G01X154528D02*
Y116142D01*
X158465D01*
Y120079D01*
X154528D01*
G01X155906Y134252D02*
X162992D01*
Y137402D01*
X155906D01*
Y134252D01*
G01X144094D02*
X151181D01*
Y137402D01*
X144094D01*
Y134252D01*
G01X179921Y56299D02*
X172835D01*
Y53150D01*
X179921D01*
Y56299D01*
G01Y60236D02*
X172835D01*
Y57087D01*
X179921D01*
Y60236D01*
G01X161811Y126181D02*
Y119882D01*
X164961D01*
Y126181D01*
X161811D01*
G01X158465Y118110D02*
X156496Y120079D01*
G01X158465Y118504D02*
X156890Y120079D01*
G01X158465Y118898D02*
X157283Y120079D01*
G01X158465Y119291D02*
X157677Y120079D01*
G01X158465Y119685D02*
X158071Y120079D01*
G01X163780Y134252D02*
X170866D01*
Y137402D01*
X163780D01*
Y134252D01*
G01X177756Y140945D02*
Y154331D01*
X170669D01*
Y140945D01*
X177756D01*
G01X163976Y161614D02*
G02I0J1969D01*
G01X170669Y173031D02*
Y159646D01*
X177756D01*
Y173031D01*
X170669D01*
G01X176575Y33465D02*
X180512D01*
Y41339D01*
X176575D01*
Y33465D01*
G01X178937Y41339D02*
X176575Y38976D01*
G01X178543Y41339D02*
X176575Y39370D01*
G01X178150Y41339D02*
X176575Y39764D01*
G01X177756Y41339D02*
X176575Y40157D01*
G01X177362Y41339D02*
X176575Y40551D01*
G01X176969Y41339D02*
X176575Y40945D01*
G01X173031Y116142D02*
X186417D01*
Y123228D01*
X173031D01*
Y116142D01*
G01Y125197D02*
X186417D01*
Y132283D01*
X173031D01*
Y125197D01*
G01X255000Y195000D02*
X175000D01*
Y205000D01*
X255000D01*
Y195000D01*
G01X195000Y15000D02*
X255000D01*
Y5000D01*
X195000D01*
Y15000D01*
G01X195374Y33465D02*
X200295D01*
Y41339D01*
X195374D01*
Y33465D01*
G01Y38976D02*
X197736Y41339D01*
G01X195374Y39370D02*
X197343Y41339D01*
G01X195374Y39764D02*
X196949Y41339D01*
G01X195374Y40157D02*
X196555Y41339D01*
G01X195374Y40551D02*
X196161Y41339D01*
G01X195374Y40945D02*
X195768Y41339D01*
G01X195079Y58465D02*
X208465D01*
Y65551D01*
X195079D01*
Y58465D01*
G01X191339Y80315D02*
Y73228D01*
X194488D01*
Y80315D01*
X191339D01*
G01X192913Y84843D02*
X205906D01*
Y91929D01*
X192913D01*
Y84843D01*
G01X193898Y102165D02*
Y109252D01*
X190748D01*
Y102165D01*
X193898D01*
G01X208445Y102220D02*
X202539D01*
Y99464D01*
X208445D01*
G01Y114031D02*
X202539D01*
Y111275D01*
X208445D01*
G01X216142Y38976D02*
X209055D01*
Y35827D01*
X216142D01*
Y38976D01*
G01X220965Y63583D02*
X223327Y65945D01*
G01X220965Y63976D02*
X222933Y65945D01*
G01X220965Y64370D02*
X222539Y65945D01*
G01X220965Y64764D02*
X222146Y65945D01*
G01X220965Y65157D02*
X221752Y65945D01*
G01X220965Y65551D02*
X221358Y65945D01*
G01X220965Y58071D02*
X225886D01*
Y65945D01*
X220965D01*
Y58071D01*
G01Y78346D02*
X223327Y80709D01*
G01X220965Y78740D02*
X222933Y80709D01*
G01X220965Y79134D02*
X222539Y80709D01*
G01X220965Y79528D02*
X222146Y80709D01*
G01X220965Y79921D02*
X221752Y80709D01*
G01X220965Y80315D02*
X221358Y80709D01*
G01X220965Y72835D02*
X225886D01*
Y80709D01*
X220965D01*
Y72835D01*
G01X211024Y80709D02*
X208661Y78346D01*
G01X210630Y80709D02*
X208661Y78740D01*
G01X210236Y80709D02*
X208661Y79134D01*
G01X209843Y80709D02*
X208661Y79528D01*
G01X209449Y80709D02*
X208661Y79921D01*
G01X209055Y80709D02*
X208661Y80315D01*
G01Y72835D02*
X212598D01*
Y80709D01*
X208661D01*
Y72835D01*
G01X226161Y97889D02*
X208445D01*
Y115606D01*
X226161D01*
Y97889D01*
G01X239764Y66929D02*
Y80709D01*
G01X239370Y66929D02*
Y80709D01*
G01X238976Y66929D02*
Y80709D01*
G01X238583Y66929D02*
Y80709D01*
G01X238189Y66929D02*
Y80709D01*
G01X237795Y66929D02*
Y80709D01*
G01X237402Y66929D02*
Y80709D01*
G01X237008Y66929D02*
Y80709D01*
G01X236614Y66929D02*
X261417D01*
Y80709D01*
X236614D01*
Y66929D01*
G01X226161Y99464D02*
X232067D01*
Y102220D01*
X226161D01*
G01Y111275D02*
X232067D01*
Y114031D01*
X226161D01*
G01X238583Y162598D02*
X232677D01*
G01X238583Y162205D02*
X232677D01*
G01X238583Y161811D02*
X232677D01*
G01X238583Y161417D02*
X232677D01*
G01X238583Y161024D02*
X232677D01*
G01X238583Y160630D02*
X232677D01*
G01X238583Y160236D02*
Y174409D01*
X232677D01*
Y160236D01*
X238583D01*
G01X229921Y161811D02*
Y172835D01*
X224803D01*
Y161811D01*
X229921D01*
G01X266299Y30000D02*
G03I-6299J0D01*
G01X241339Y56496D02*
X254724D01*
Y63583D01*
X241339D01*
Y56496D01*
G01X249843Y119941D02*
X263228D01*
Y94941D01*
X249843D01*
Y119941D01*
G01X266299Y140000D02*
G03I-6299J0D01*
G54D11*
G01X14456Y32218D02*
X14587Y32021D01*
X14744Y31890D01*
X14928Y31824D01*
X15138Y31890D01*
X15295Y32021D01*
X15453Y32218D01*
X15505Y32480D01*
Y33793D01*
G01X16909Y31824D02*
Y33793D01*
X16594Y33399D01*
G01Y31824D02*
X17224D01*
G01X14009Y56627D02*
Y58596D01*
X14534D01*
X14744Y58497D01*
X14902Y58366D01*
X15033Y58169D01*
X15138Y57939D01*
X15164Y57611D01*
X15138Y57283D01*
X15033Y57054D01*
X14902Y56857D01*
X14744Y56726D01*
X14534Y56627D01*
X14009D01*
G01X16516D02*
Y58596D01*
X16201Y58202D01*
G01Y56627D02*
X16831D01*
G01X17585Y66424D02*
X15617D01*
Y67080D01*
X15715Y67290D01*
X15846Y67421D01*
X16109Y67474D01*
X16372Y67421D01*
X16535Y67264D01*
X16634Y67080D01*
Y66424D01*
G01Y67080D02*
X17585Y67474D01*
G01Y68878D02*
X17553Y69062D01*
X17454Y69272D01*
X17290Y69403D01*
X17061Y69456D01*
X16831Y69403D01*
X16634Y69245D01*
X16535Y69009D01*
Y68747D01*
X16470Y68589D01*
X16306Y68458D01*
X16076Y68406D01*
X15846Y68484D01*
X15683Y68668D01*
X15617Y68878D01*
X15683Y69088D01*
X15846Y69272D01*
X16076Y69350D01*
X16306Y69298D01*
X16470Y69167D01*
X16535Y69009D01*
Y68747D01*
X16634Y68511D01*
X16831Y68353D01*
X17061Y68300D01*
X17290Y68353D01*
X17454Y68484D01*
X17553Y68694D01*
X17585Y68878D01*
G01X22500Y66546D02*
X20531D01*
Y67202D01*
X20630Y67412D01*
X20761Y67543D01*
X21024Y67596D01*
X21286Y67543D01*
X21450Y67386D01*
X21548Y67202D01*
Y66546D01*
G01Y67202D02*
X22500Y67596D01*
G01X20859Y68501D02*
X20663Y68659D01*
X20564Y68843D01*
X20531Y69052D01*
X20597Y69315D01*
X20761Y69499D01*
X20958Y69551D01*
X21155Y69525D01*
X21319Y69420D01*
X21647Y68895D01*
X21877Y68659D01*
X22205Y68501D01*
X22500Y68449D01*
Y69551D01*
G01Y70929D02*
X22467Y71113D01*
X22369Y71323D01*
X22205Y71454D01*
X21975Y71507D01*
X21745Y71454D01*
X21548Y71296D01*
X21450Y71060D01*
Y70798D01*
X21385Y70641D01*
X21220Y70509D01*
X20991Y70457D01*
X20761Y70535D01*
X20597Y70719D01*
X20531Y70929D01*
X20597Y71139D01*
X20761Y71323D01*
X20991Y71402D01*
X21220Y71349D01*
X21385Y71218D01*
X21450Y71060D01*
Y70798D01*
X21548Y70562D01*
X21745Y70404D01*
X21975Y70352D01*
X22205Y70404D01*
X22369Y70535D01*
X22467Y70745D01*
X22500Y70929D01*
G01X8763Y85394D02*
X8894Y85197D01*
X9051Y85066D01*
X9235Y85000D01*
X9445Y85066D01*
X9602Y85197D01*
X9760Y85394D01*
X9812Y85656D01*
Y86969D01*
G01X10639Y85394D02*
X10796Y85164D01*
X11007Y85033D01*
X11243Y85000D01*
X11453Y85033D01*
X11663Y85197D01*
X11794Y85394D01*
X11820Y85591D01*
X11768Y85820D01*
X11584Y85984D01*
X11400Y86050D01*
X11164D01*
G01X11400D02*
X11558Y86148D01*
X11689Y86312D01*
X11741Y86509D01*
X11689Y86706D01*
X11558Y86870D01*
X11322Y86969D01*
X11085Y86936D01*
X10849Y86804D01*
G01X12119Y118832D02*
Y120800D01*
X13117D01*
G01X12749Y119849D02*
X12119D01*
G01X14547Y118832D02*
Y120800D01*
X14232Y120407D01*
G01Y118832D02*
X14862D01*
G01X9285Y194422D02*
Y196391D01*
X9810D01*
X10020Y196293D01*
X10177Y196161D01*
X10308Y195965D01*
X10413Y195735D01*
X10440Y195407D01*
X10413Y195079D01*
X10308Y194849D01*
X10177Y194652D01*
X10020Y194521D01*
X9810Y194422D01*
X9285D01*
G01X11739D02*
X11791Y194849D01*
X11870Y195210D01*
X11975Y195538D01*
X12106Y195899D01*
X12316Y196391D01*
X11267D01*
G01X17546Y193500D02*
Y195469D01*
X18202D01*
X18412Y195370D01*
X18543Y195239D01*
X18596Y194976D01*
X18543Y194714D01*
X18386Y194550D01*
X18202Y194452D01*
X17546D01*
G01X18202D02*
X18596Y193500D01*
G01X20000D02*
Y195469D01*
X19685Y195075D01*
G01Y193500D02*
X20315D01*
G01X21430Y194320D02*
X21614Y194550D01*
X21772Y194681D01*
X21981Y194747D01*
X22165Y194681D01*
X22296Y194550D01*
X22402Y194353D01*
X22428Y194123D01*
X22402Y193926D01*
X22296Y193730D01*
X22139Y193566D01*
X21956Y193500D01*
X21745Y193566D01*
X21562Y193763D01*
X21457Y194058D01*
X21430Y194386D01*
X21483Y194812D01*
X21562Y195042D01*
X21693Y195272D01*
X21877Y195436D01*
X22060Y195469D01*
X22244Y195403D01*
X22375Y195239D01*
G01X17546Y199000D02*
Y200969D01*
X18202D01*
X18412Y200870D01*
X18543Y200739D01*
X18596Y200476D01*
X18543Y200214D01*
X18386Y200050D01*
X18202Y199952D01*
X17546D01*
G01X18202D02*
X18596Y199000D01*
G01X20000D02*
Y200969D01*
X19685Y200575D01*
G01Y199000D02*
X20315D01*
G01X21352Y199295D02*
X21509Y199131D01*
X21693Y199033D01*
X21929Y199000D01*
X22165Y199066D01*
X22349Y199197D01*
X22480Y199426D01*
X22507Y199689D01*
X22454Y199952D01*
X22323Y200115D01*
X22139Y200247D01*
X21956Y200280D01*
X21772Y200247D01*
X21535Y200115D01*
X21614Y200969D01*
X22323D01*
G01X25820Y67526D02*
X25722Y67369D01*
X25656Y67185D01*
Y66975D01*
X25755Y66739D01*
X25919Y66555D01*
X26116Y66424D01*
X26444Y66319D01*
X26739Y66293D01*
X27034Y66345D01*
X27231Y66424D01*
X27428Y66581D01*
X27559Y66765D01*
X27625Y66949D01*
Y67133D01*
X27559Y67316D01*
X27461Y67474D01*
X27330Y67605D01*
G01X27395Y68432D02*
X27559Y68615D01*
X27625Y68826D01*
X27559Y69035D01*
X27362Y69219D01*
X27067Y69350D01*
X26772Y69403D01*
X26411D01*
X26116Y69350D01*
X25853Y69219D01*
X25722Y69062D01*
X25656Y68878D01*
X25722Y68668D01*
X25853Y68511D01*
X26050Y68406D01*
X26313Y68353D01*
X26542Y68406D01*
X26772Y68537D01*
X26903Y68694D01*
X26936Y68878D01*
X26870Y69088D01*
X26706Y69245D01*
X26411Y69403D01*
G01X35663Y63320D02*
Y61909D01*
X35768Y61614D01*
X35978Y61417D01*
X36240Y61352D01*
X36503Y61417D01*
X36713Y61614D01*
X36818Y61909D01*
Y63320D01*
G01X37592Y61745D02*
X37749Y61516D01*
X37959Y61384D01*
X38196Y61352D01*
X38406Y61384D01*
X38615Y61548D01*
X38747Y61745D01*
X38773Y61942D01*
X38720Y62172D01*
X38537Y62336D01*
X38353Y62402D01*
X38117D01*
G01X38353D02*
X38511Y62500D01*
X38642Y62664D01*
X38694Y62861D01*
X38642Y63057D01*
X38511Y63222D01*
X38274Y63320D01*
X38038Y63287D01*
X37802Y63156D01*
G01X26641Y86253D02*
X24672D01*
Y86778D01*
X24770Y86988D01*
X24902Y87146D01*
X25098Y87277D01*
X25328Y87382D01*
X25656Y87408D01*
X25984Y87382D01*
X26214Y87277D01*
X26411Y87146D01*
X26542Y86988D01*
X26641Y86778D01*
Y86253D01*
G01X25820Y88261D02*
X25591Y88445D01*
X25459Y88602D01*
X25394Y88812D01*
X25459Y88996D01*
X25591Y89127D01*
X25787Y89232D01*
X26017Y89259D01*
X26214Y89232D01*
X26411Y89127D01*
X26575Y88970D01*
X26641Y88786D01*
X26575Y88576D01*
X26378Y88393D01*
X26083Y88287D01*
X25755Y88261D01*
X25328Y88314D01*
X25098Y88393D01*
X24869Y88524D01*
X24705Y88707D01*
X24672Y88891D01*
X24738Y89075D01*
X24902Y89206D01*
G01X28162Y74770D02*
X28005Y74869D01*
X27821Y74934D01*
X27611D01*
X27375Y74836D01*
X27191Y74672D01*
X27060Y74475D01*
X26955Y74147D01*
X26928Y73852D01*
X26981Y73556D01*
X27060Y73359D01*
X27217Y73163D01*
X27401Y73031D01*
X27585Y72966D01*
X27769D01*
X27952Y73031D01*
X28109Y73130D01*
X28241Y73261D01*
G01X28936Y73359D02*
X29094Y73130D01*
X29304Y72998D01*
X29540Y72966D01*
X29750Y72998D01*
X29960Y73163D01*
X30091Y73359D01*
X30117Y73556D01*
X30065Y73786D01*
X29881Y73950D01*
X29698Y74016D01*
X29461D01*
G01X29698D02*
X29855Y74114D01*
X29986Y74278D01*
X30039Y74475D01*
X29986Y74672D01*
X29855Y74836D01*
X29619Y74934D01*
X29383Y74902D01*
X29146Y74770D01*
G01X33046Y77000D02*
Y78969D01*
X33702D01*
X33912Y78870D01*
X34043Y78739D01*
X34096Y78476D01*
X34043Y78214D01*
X33886Y78050D01*
X33702Y77952D01*
X33046D01*
G01X33702D02*
X34096Y77000D01*
G01X34922Y77394D02*
X35080Y77164D01*
X35290Y77033D01*
X35526Y77000D01*
X35736Y77033D01*
X35946Y77197D01*
X36078Y77394D01*
X36104Y77591D01*
X36051Y77820D01*
X35867Y77984D01*
X35684Y78050D01*
X35448D01*
G01X35684D02*
X35841Y78148D01*
X35972Y78312D01*
X36025Y78509D01*
X35972Y78706D01*
X35841Y78870D01*
X35605Y78969D01*
X35369Y78936D01*
X35133Y78804D01*
G01X37429Y77000D02*
Y78969D01*
X37114Y78575D01*
G01Y77000D02*
X37744D01*
G01X33046Y83500D02*
Y85469D01*
X33702D01*
X33912Y85370D01*
X34043Y85239D01*
X34096Y84976D01*
X34043Y84714D01*
X33886Y84550D01*
X33702Y84452D01*
X33046D01*
G01X33702D02*
X34096Y83500D01*
G01X35001Y85141D02*
X35159Y85337D01*
X35343Y85436D01*
X35552Y85469D01*
X35815Y85403D01*
X35999Y85239D01*
X36051Y85042D01*
X36025Y84845D01*
X35920Y84681D01*
X35395Y84353D01*
X35159Y84123D01*
X35001Y83795D01*
X34949Y83500D01*
X36051D01*
G01X37377D02*
X37429Y83926D01*
X37508Y84287D01*
X37613Y84615D01*
X37744Y84976D01*
X37954Y85469D01*
X36904D01*
G01X38000Y96458D02*
X36031D01*
Y96983D01*
X36130Y97193D01*
X36261Y97350D01*
X36458Y97481D01*
X36688Y97587D01*
X37016Y97613D01*
X37344Y97587D01*
X37574Y97481D01*
X37770Y97350D01*
X37902Y97193D01*
X38000Y96983D01*
Y96458D01*
G01X36359Y98466D02*
X36163Y98623D01*
X36064Y98807D01*
X36031Y99017D01*
X36097Y99280D01*
X36261Y99463D01*
X36458Y99516D01*
X36655Y99489D01*
X36819Y99385D01*
X37147Y98859D01*
X37377Y98623D01*
X37705Y98466D01*
X38000Y98413D01*
Y99516D01*
G01X26641Y93537D02*
X24672D01*
Y94062D01*
X24770Y94272D01*
X24902Y94429D01*
X25098Y94560D01*
X25328Y94665D01*
X25656Y94692D01*
X25984Y94665D01*
X26214Y94560D01*
X26411Y94429D01*
X26542Y94272D01*
X26641Y94062D01*
Y93537D01*
G01X26345Y95466D02*
X26509Y95623D01*
X26608Y95807D01*
X26641Y96043D01*
X26575Y96280D01*
X26444Y96463D01*
X26214Y96594D01*
X25952Y96621D01*
X25689Y96568D01*
X25525Y96437D01*
X25394Y96253D01*
X25361Y96070D01*
X25394Y95886D01*
X25525Y95650D01*
X24672Y95728D01*
Y96437D01*
G01X26641Y105938D02*
X24672D01*
Y106463D01*
X24770Y106673D01*
X24902Y106831D01*
X25098Y106962D01*
X25328Y107067D01*
X25656Y107093D01*
X25984Y107067D01*
X26214Y106962D01*
X26411Y106831D01*
X26542Y106673D01*
X26641Y106463D01*
Y105938D01*
G01Y108760D02*
X24672D01*
X26083Y107789D01*
Y109101D01*
G01X32566Y155643D02*
X32697Y155446D01*
X32854Y155315D01*
X33038Y155249D01*
X33248Y155315D01*
X33406Y155446D01*
X33563Y155643D01*
X33615Y155906D01*
Y157218D01*
G01X34574Y155479D02*
X34757Y155315D01*
X34967Y155249D01*
X35177Y155315D01*
X35361Y155512D01*
X35492Y155807D01*
X35544Y156102D01*
Y156463D01*
X35492Y156758D01*
X35361Y157021D01*
X35204Y157152D01*
X35020Y157218D01*
X34810Y157152D01*
X34652Y157021D01*
X34547Y156824D01*
X34495Y156561D01*
X34547Y156332D01*
X34678Y156102D01*
X34836Y155971D01*
X35020Y155938D01*
X35230Y156004D01*
X35387Y156168D01*
X35544Y156463D01*
G01X27074Y198753D02*
Y200722D01*
X27730D01*
X27940Y200623D01*
X28071Y200492D01*
X28123Y200230D01*
X28071Y199967D01*
X27913Y199803D01*
X27730Y199705D01*
X27074D01*
G01X27730D02*
X28123Y198753D01*
G01X29029Y200394D02*
X29186Y200591D01*
X29370Y200689D01*
X29580Y200722D01*
X29843Y200656D01*
X30026Y200492D01*
X30079Y200295D01*
X30052Y200098D01*
X29948Y199934D01*
X29422Y199606D01*
X29186Y199376D01*
X29029Y199048D01*
X28976Y198753D01*
X30079D01*
G01X30958Y200394D02*
X31115Y200591D01*
X31299Y200689D01*
X31509Y200722D01*
X31772Y200656D01*
X31956Y200492D01*
X32008Y200295D01*
X31981Y200098D01*
X31877Y199934D01*
X31352Y199606D01*
X31115Y199376D01*
X30958Y199048D01*
X30906Y198753D01*
X32008D01*
G01X35932D02*
Y200722D01*
X36588D01*
X36798Y200623D01*
X36929Y200492D01*
X36981Y200230D01*
X36929Y199967D01*
X36772Y199803D01*
X36588Y199705D01*
X35932D01*
G01X36588D02*
X36981Y198753D01*
G01X37887Y200394D02*
X38044Y200591D01*
X38228Y200689D01*
X38438Y200722D01*
X38701Y200656D01*
X38885Y200492D01*
X38937Y200295D01*
X38911Y200098D01*
X38806Y199934D01*
X38281Y199606D01*
X38044Y199376D01*
X37887Y199048D01*
X37835Y198753D01*
X38937D01*
G01X39737Y199147D02*
X39895Y198917D01*
X40105Y198786D01*
X40341Y198753D01*
X40551Y198786D01*
X40761Y198950D01*
X40893Y199147D01*
X40919Y199344D01*
X40866Y199573D01*
X40682Y199737D01*
X40499Y199803D01*
X40263D01*
G01X40499D02*
X40656Y199902D01*
X40787Y200065D01*
X40840Y200262D01*
X40787Y200459D01*
X40656Y200623D01*
X40420Y200722D01*
X40184Y200689D01*
X39948Y200557D01*
G01X26877Y192848D02*
Y194816D01*
X27533D01*
X27743Y194718D01*
X27874Y194587D01*
X27926Y194324D01*
X27874Y194061D01*
X27717Y193898D01*
X27533Y193799D01*
X26877D01*
G01X27533D02*
X27926Y192848D01*
G01X28832Y194488D02*
X28989Y194685D01*
X29173Y194783D01*
X29383Y194816D01*
X29646Y194750D01*
X29830Y194587D01*
X29882Y194390D01*
X29856Y194193D01*
X29751Y194029D01*
X29226Y193701D01*
X28989Y193471D01*
X28832Y193143D01*
X28780Y192848D01*
X29882D01*
G01X31575D02*
Y194816D01*
X30604Y193406D01*
X31916D01*
G01X35932Y192848D02*
Y194816D01*
X36588D01*
X36798Y194718D01*
X36929Y194587D01*
X36981Y194324D01*
X36929Y194061D01*
X36772Y193898D01*
X36588Y193799D01*
X35932D01*
G01X36588D02*
X36981Y192848D01*
G01X37887Y194488D02*
X38044Y194685D01*
X38228Y194783D01*
X38438Y194816D01*
X38701Y194750D01*
X38885Y194587D01*
X38937Y194390D01*
X38911Y194193D01*
X38806Y194029D01*
X38281Y193701D01*
X38044Y193471D01*
X37887Y193143D01*
X37835Y192848D01*
X38937D01*
G01X39737Y193143D02*
X39895Y192979D01*
X40079Y192880D01*
X40315Y192848D01*
X40551Y192913D01*
X40735Y193044D01*
X40866Y193274D01*
X40893Y193537D01*
X40840Y193799D01*
X40709Y193963D01*
X40525Y194094D01*
X40341Y194127D01*
X40157Y194094D01*
X39921Y193963D01*
X40000Y194816D01*
X40709D01*
G01X52763Y77526D02*
X52605Y77624D01*
X52421Y77690D01*
X52211D01*
X51975Y77592D01*
X51791Y77428D01*
X51660Y77231D01*
X51555Y76903D01*
X51529Y76607D01*
X51581Y76312D01*
X51660Y76115D01*
X51818Y75919D01*
X52001Y75787D01*
X52185Y75722D01*
X52369D01*
X52552Y75787D01*
X52710Y75886D01*
X52841Y76017D01*
G01X54429Y75722D02*
Y77690D01*
X53458Y76280D01*
X54770D01*
G01X45000Y81011D02*
X43031D01*
Y81667D01*
X43130Y81877D01*
X43261Y82008D01*
X43524Y82060D01*
X43786Y82008D01*
X43950Y81850D01*
X44048Y81667D01*
Y81011D01*
G01Y81667D02*
X45000Y82060D01*
G01X43359Y82966D02*
X43163Y83123D01*
X43064Y83307D01*
X43031Y83517D01*
X43097Y83780D01*
X43261Y83963D01*
X43458Y84016D01*
X43655Y83989D01*
X43819Y83885D01*
X44147Y83359D01*
X44377Y83123D01*
X44705Y82966D01*
X45000Y82913D01*
Y84016D01*
G01X49306Y96109D02*
X49148Y96207D01*
X48965Y96273D01*
X48755D01*
X48519Y96174D01*
X48335Y96010D01*
X48204Y95813D01*
X48098Y95485D01*
X48072Y95190D01*
X48125Y94895D01*
X48204Y94698D01*
X48361Y94501D01*
X48544Y94370D01*
X48728Y94304D01*
X48912D01*
X49096Y94370D01*
X49253Y94469D01*
X49385Y94600D01*
G01X50657Y94304D02*
Y96273D01*
X50343Y95879D01*
G01Y94304D02*
X50972D01*
G01X43524Y107415D02*
X43314Y107447D01*
X43130Y107579D01*
X42972Y107776D01*
X42867Y108005D01*
X42815Y108268D01*
Y108530D01*
X42867Y108793D01*
X42972Y109022D01*
X43130Y109219D01*
X43314Y109350D01*
X43524Y109383D01*
X43733Y109350D01*
X43917Y109219D01*
X44075Y109022D01*
X44180Y108793D01*
X44232Y108530D01*
Y108268D01*
X44180Y108005D01*
X44075Y107776D01*
X43917Y107579D01*
X43733Y107447D01*
X43524Y107415D01*
G01X43733Y107939D02*
X44048Y107415D01*
G01X45768D02*
Y109383D01*
X44796Y107972D01*
X46109D01*
G01X70735Y37926D02*
X70866Y37730D01*
X71024Y37598D01*
X71207Y37533D01*
X71417Y37598D01*
X71575Y37730D01*
X71732Y37926D01*
X71785Y38189D01*
Y39501D01*
G01X73189Y37533D02*
X73373Y37565D01*
X73583Y37664D01*
X73714Y37828D01*
X73767Y38057D01*
X73714Y38287D01*
X73556Y38484D01*
X73320Y38583D01*
X73058D01*
X72900Y38648D01*
X72769Y38812D01*
X72717Y39042D01*
X72795Y39272D01*
X72979Y39435D01*
X73189Y39501D01*
X73399Y39435D01*
X73583Y39272D01*
X73661Y39042D01*
X73609Y38812D01*
X73478Y38648D01*
X73320Y38583D01*
X73058D01*
X72822Y38484D01*
X72664Y38287D01*
X72611Y38057D01*
X72664Y37828D01*
X72795Y37664D01*
X73005Y37565D01*
X73189Y37533D01*
G01X65381Y77526D02*
X65223Y77624D01*
X65039Y77690D01*
X64830D01*
X64593Y77592D01*
X64409Y77428D01*
X64278Y77231D01*
X64173Y76903D01*
X64147Y76607D01*
X64200Y76312D01*
X64278Y76115D01*
X64436Y75919D01*
X64619Y75787D01*
X64803Y75722D01*
X64987D01*
X65170Y75787D01*
X65328Y75886D01*
X65459Y76017D01*
G01X66155Y76115D02*
X66312Y75886D01*
X66522Y75754D01*
X66759Y75722D01*
X66969Y75754D01*
X67178Y75919D01*
X67310Y76115D01*
X67336Y76312D01*
X67283Y76542D01*
X67100Y76706D01*
X66916Y76772D01*
X66680D01*
G01X66916D02*
X67074Y76870D01*
X67205Y77034D01*
X67257Y77231D01*
X67205Y77428D01*
X67074Y77592D01*
X66837Y77690D01*
X66601Y77657D01*
X66365Y77526D01*
G01X68084Y76115D02*
X68241Y75886D01*
X68452Y75754D01*
X68688Y75722D01*
X68898Y75754D01*
X69107Y75919D01*
X69239Y76115D01*
X69265Y76312D01*
X69213Y76542D01*
X69029Y76706D01*
X68845Y76772D01*
X68609D01*
G01X68845D02*
X69003Y76870D01*
X69134Y77034D01*
X69186Y77231D01*
X69134Y77428D01*
X69003Y77592D01*
X68767Y77690D01*
X68530Y77657D01*
X68294Y77526D01*
G01X59141Y111352D02*
Y113320D01*
X59796D01*
X60007Y113222D01*
X60138Y113091D01*
X60190Y112828D01*
X60138Y112565D01*
X59980Y112402D01*
X59796Y112303D01*
X59141D01*
G01X59796D02*
X60190Y111352D01*
G01X61017Y111745D02*
X61174Y111516D01*
X61385Y111384D01*
X61621Y111352D01*
X61831Y111384D01*
X62041Y111548D01*
X62172Y111745D01*
X62198Y111942D01*
X62146Y112172D01*
X61962Y112336D01*
X61778Y112402D01*
X61542D01*
G01X61778D02*
X61936Y112500D01*
X62067Y112664D01*
X62119Y112861D01*
X62067Y113057D01*
X61936Y113222D01*
X61700Y113320D01*
X61463Y113287D01*
X61227Y113156D01*
G01X84285Y94816D02*
Y93406D01*
X84390Y93110D01*
X84600Y92913D01*
X84862Y92848D01*
X85125Y92913D01*
X85335Y93110D01*
X85440Y93406D01*
Y94816D01*
G01X86791Y92848D02*
Y94816D01*
X86476Y94422D01*
G01Y92848D02*
X87106D01*
G01X76975Y113156D02*
X76818Y113254D01*
X76634Y113320D01*
X76424D01*
X76188Y113222D01*
X76004Y113057D01*
X75873Y112861D01*
X75768Y112533D01*
X75741Y112237D01*
X75794Y111942D01*
X75873Y111745D01*
X76030Y111548D01*
X76214Y111417D01*
X76398Y111352D01*
X76581D01*
X76765Y111417D01*
X76922Y111516D01*
X77054Y111647D01*
G01X77828Y112992D02*
X77985Y113189D01*
X78169Y113287D01*
X78379Y113320D01*
X78642Y113254D01*
X78826Y113091D01*
X78878Y112894D01*
X78852Y112697D01*
X78747Y112533D01*
X78222Y112205D01*
X77985Y111975D01*
X77828Y111647D01*
X77776Y111352D01*
X78878D01*
G01X82704Y178904D02*
X82546Y179002D01*
X82362Y179068D01*
X82152D01*
X81916Y178970D01*
X81732Y178806D01*
X81601Y178609D01*
X81496Y178281D01*
X81470Y177985D01*
X81522Y177690D01*
X81601Y177493D01*
X81759Y177296D01*
X81942Y177165D01*
X82126Y177100D01*
X82310D01*
X82493Y177165D01*
X82651Y177264D01*
X82782Y177395D01*
G01X83478Y177493D02*
X83635Y177264D01*
X83845Y177132D01*
X84081Y177100D01*
X84291Y177132D01*
X84501Y177296D01*
X84633Y177493D01*
X84659Y177690D01*
X84606Y177920D01*
X84422Y178084D01*
X84239Y178150D01*
X84003D01*
G01X84239D02*
X84396Y178248D01*
X84528Y178412D01*
X84580Y178609D01*
X84528Y178806D01*
X84396Y178970D01*
X84160Y179068D01*
X83924Y179035D01*
X83688Y178904D01*
G01X85932Y177100D02*
X85984Y177526D01*
X86063Y177887D01*
X86168Y178215D01*
X86299Y178576D01*
X86509Y179068D01*
X85459D01*
G01X104830Y75919D02*
Y77887D01*
X105485D01*
X105696Y77789D01*
X105827Y77657D01*
X105879Y77395D01*
X105827Y77132D01*
X105669Y76969D01*
X105485Y76870D01*
X104830D01*
G01X105485D02*
X105879Y75919D01*
G01X107283D02*
Y77887D01*
X106969Y77493D01*
G01Y75919D02*
X107598D01*
G01X109213Y77887D02*
X109003Y77821D01*
X108845Y77657D01*
X108740Y77461D01*
X108661Y77198D01*
X108635Y76903D01*
X108661Y76607D01*
X108740Y76345D01*
X108845Y76148D01*
X109003Y75984D01*
X109213Y75919D01*
X109422Y75984D01*
X109580Y76148D01*
X109685Y76345D01*
X109764Y76607D01*
X109790Y76903D01*
X109764Y77198D01*
X109685Y77461D01*
X109580Y77657D01*
X109422Y77821D01*
X109213Y77887D01*
G01X91752Y145800D02*
Y143832D01*
G01X91148Y145800D02*
X92356D01*
G01X93681Y143832D02*
Y145800D01*
X93366Y145407D01*
G01Y143832D02*
X93996D01*
G01X109318Y46936D02*
X107349D01*
Y47592D01*
X107448Y47802D01*
X107579Y47933D01*
X107841Y47985D01*
X108104Y47933D01*
X108268Y47776D01*
X108366Y47592D01*
Y46936D01*
G01Y47592D02*
X109318Y47985D01*
G01Y49337D02*
X108891Y49390D01*
X108530Y49469D01*
X108202Y49574D01*
X107841Y49705D01*
X107349Y49915D01*
Y48865D01*
G01X119046Y45500D02*
Y47469D01*
X119702D01*
X119912Y47370D01*
X120043Y47239D01*
X120096Y46976D01*
X120043Y46714D01*
X119886Y46550D01*
X119702Y46452D01*
X119046D01*
G01X119702D02*
X120096Y45500D01*
G01X121001Y47141D02*
X121159Y47337D01*
X121343Y47436D01*
X121552Y47469D01*
X121815Y47403D01*
X121999Y47239D01*
X122051Y47042D01*
X122025Y46845D01*
X121920Y46681D01*
X121395Y46353D01*
X121159Y46123D01*
X121001Y45795D01*
X120949Y45500D01*
X122051D01*
G01X122930Y46320D02*
X123114Y46550D01*
X123272Y46681D01*
X123481Y46747D01*
X123665Y46681D01*
X123796Y46550D01*
X123902Y46353D01*
X123928Y46123D01*
X123902Y45926D01*
X123796Y45730D01*
X123639Y45566D01*
X123456Y45500D01*
X123245Y45566D01*
X123062Y45763D01*
X122957Y46058D01*
X122930Y46386D01*
X122983Y46812D01*
X123062Y47042D01*
X123193Y47272D01*
X123377Y47436D01*
X123560Y47469D01*
X123744Y47403D01*
X123875Y47239D01*
G01X112999Y70046D02*
X112841Y70144D01*
X112657Y70210D01*
X112448D01*
X112211Y70111D01*
X112028Y69947D01*
X111896Y69750D01*
X111791Y69422D01*
X111765Y69127D01*
X111818Y68832D01*
X111896Y68635D01*
X112054Y68438D01*
X112237Y68307D01*
X112421Y68241D01*
X112605D01*
X112789Y68307D01*
X112946Y68406D01*
X113078Y68537D01*
G01X114298Y68241D02*
X114350Y68668D01*
X114429Y69029D01*
X114534Y69357D01*
X114665Y69718D01*
X114875Y70210D01*
X113826D01*
G01X113393Y60203D02*
X113235Y60302D01*
X113051Y60367D01*
X112841D01*
X112605Y60269D01*
X112421Y60105D01*
X112290Y59908D01*
X112185Y59580D01*
X112159Y59285D01*
X112211Y58989D01*
X112290Y58793D01*
X112448Y58596D01*
X112631Y58465D01*
X112815Y58399D01*
X112999D01*
X113182Y58465D01*
X113340Y58563D01*
X113471Y58694D01*
G01X114744Y58399D02*
X114928Y58431D01*
X115138Y58530D01*
X115269Y58694D01*
X115322Y58924D01*
X115269Y59154D01*
X115111Y59350D01*
X114875Y59449D01*
X114613D01*
X114456Y59514D01*
X114324Y59678D01*
X114272Y59908D01*
X114350Y60138D01*
X114534Y60302D01*
X114744Y60367D01*
X114954Y60302D01*
X115138Y60138D01*
X115217Y59908D01*
X115164Y59678D01*
X115033Y59514D01*
X114875Y59449D01*
X114613D01*
X114377Y59350D01*
X114219Y59154D01*
X114167Y58924D01*
X114219Y58694D01*
X114350Y58530D01*
X114560Y58431D01*
X114744Y58399D01*
G01X113668Y75919D02*
Y77887D01*
X114324D01*
X114534Y77789D01*
X114665Y77657D01*
X114718Y77395D01*
X114665Y77132D01*
X114508Y76969D01*
X114324Y76870D01*
X113668D01*
G01X114324D02*
X114718Y75919D01*
G01X115676Y76148D02*
X115859Y75984D01*
X116070Y75919D01*
X116280Y75984D01*
X116463Y76181D01*
X116594Y76476D01*
X116647Y76772D01*
Y77132D01*
X116594Y77428D01*
X116463Y77690D01*
X116306Y77821D01*
X116122Y77887D01*
X115912Y77821D01*
X115755Y77690D01*
X115650Y77493D01*
X115597Y77231D01*
X115650Y77001D01*
X115781Y76772D01*
X115938Y76640D01*
X116122Y76607D01*
X116332Y76673D01*
X116489Y76837D01*
X116647Y77132D01*
G01X110072Y87926D02*
Y86516D01*
X110177Y86220D01*
X110387Y86024D01*
X110650Y85958D01*
X110912Y86024D01*
X111122Y86220D01*
X111227Y86516D01*
Y87926D01*
G01X112080Y87598D02*
X112237Y87795D01*
X112421Y87894D01*
X112631Y87926D01*
X112894Y87861D01*
X113078Y87697D01*
X113130Y87500D01*
X113104Y87303D01*
X112999Y87139D01*
X112474Y86811D01*
X112237Y86581D01*
X112080Y86253D01*
X112028Y85958D01*
X113130D01*
G01X112605Y99573D02*
X112448Y99672D01*
X112264Y99737D01*
X112054D01*
X111818Y99639D01*
X111634Y99475D01*
X111503Y99278D01*
X111398Y98950D01*
X111371Y98655D01*
X111424Y98359D01*
X111503Y98163D01*
X111660Y97966D01*
X111844Y97835D01*
X112028Y97769D01*
X112211D01*
X112395Y97835D01*
X112552Y97933D01*
X112684Y98064D01*
G01X113379D02*
X113537Y97900D01*
X113720Y97802D01*
X113957Y97769D01*
X114193Y97835D01*
X114377Y97966D01*
X114508Y98195D01*
X114534Y98458D01*
X114481Y98720D01*
X114350Y98884D01*
X114167Y99016D01*
X113983Y99048D01*
X113799Y99016D01*
X113563Y98884D01*
X113642Y99737D01*
X114350D01*
G01X112605Y109219D02*
X112448Y109317D01*
X112264Y109383D01*
X112054D01*
X111818Y109285D01*
X111634Y109120D01*
X111503Y108924D01*
X111398Y108596D01*
X111371Y108300D01*
X111424Y108005D01*
X111503Y107808D01*
X111660Y107611D01*
X111844Y107480D01*
X112028Y107415D01*
X112211D01*
X112395Y107480D01*
X112552Y107579D01*
X112684Y107710D01*
G01X113458Y108235D02*
X113642Y108465D01*
X113799Y108596D01*
X114009Y108661D01*
X114193Y108596D01*
X114324Y108465D01*
X114429Y108268D01*
X114456Y108038D01*
X114429Y107841D01*
X114324Y107644D01*
X114167Y107480D01*
X113983Y107415D01*
X113773Y107480D01*
X113589Y107677D01*
X113484Y107972D01*
X113458Y108300D01*
X113511Y108727D01*
X113589Y108957D01*
X113720Y109186D01*
X113904Y109350D01*
X114088Y109383D01*
X114272Y109317D01*
X114403Y109154D01*
G01X115853Y136745D02*
Y138714D01*
X116509D01*
X116719Y138615D01*
X116850Y138484D01*
X116903Y138222D01*
X116850Y137959D01*
X116693Y137795D01*
X116509Y137697D01*
X115853D01*
G01X116509D02*
X116903Y136745D01*
G01X118307D02*
Y138714D01*
X117992Y138320D01*
G01Y136745D02*
X118622D01*
G01X120236D02*
X120420Y136778D01*
X120630Y136876D01*
X120761Y137041D01*
X120814Y137270D01*
X120761Y137500D01*
X120604Y137697D01*
X120367Y137795D01*
X120105D01*
X119948Y137861D01*
X119816Y138025D01*
X119764Y138254D01*
X119843Y138484D01*
X120026Y138648D01*
X120236Y138714D01*
X120446Y138648D01*
X120630Y138484D01*
X120709Y138254D01*
X120656Y138025D01*
X120525Y137861D01*
X120367Y137795D01*
X120105D01*
X119869Y137697D01*
X119711Y137500D01*
X119659Y137270D01*
X119711Y137041D01*
X119843Y136876D01*
X120052Y136778D01*
X120236Y136745D01*
G01X115853Y127100D02*
Y129068D01*
X116509D01*
X116719Y128970D01*
X116850Y128839D01*
X116903Y128576D01*
X116850Y128313D01*
X116693Y128150D01*
X116509Y128051D01*
X115853D01*
G01X116509D02*
X116903Y127100D01*
G01X118307D02*
Y129068D01*
X117992Y128674D01*
G01Y127100D02*
X118622D01*
G01X119790Y127329D02*
X119974Y127165D01*
X120184Y127100D01*
X120394Y127165D01*
X120578Y127362D01*
X120709Y127657D01*
X120761Y127953D01*
Y128313D01*
X120709Y128609D01*
X120578Y128871D01*
X120420Y129002D01*
X120236Y129068D01*
X120026Y129002D01*
X119869Y128871D01*
X119764Y128674D01*
X119711Y128412D01*
X119764Y128182D01*
X119895Y127953D01*
X120052Y127821D01*
X120236Y127789D01*
X120446Y127854D01*
X120604Y128018D01*
X120761Y128313D01*
G01X116956Y133431D02*
X116798Y133530D01*
X116614Y133596D01*
X116404D01*
X116168Y133497D01*
X115984Y133333D01*
X115853Y133136D01*
X115748Y132808D01*
X115722Y132513D01*
X115774Y132218D01*
X115853Y132021D01*
X116011Y131824D01*
X116194Y131693D01*
X116378Y131627D01*
X116562D01*
X116745Y131693D01*
X116903Y131791D01*
X117034Y131922D01*
G01X117730Y132021D02*
X117887Y131791D01*
X118097Y131660D01*
X118333Y131627D01*
X118543Y131660D01*
X118753Y131824D01*
X118885Y132021D01*
X118911Y132218D01*
X118858Y132447D01*
X118674Y132611D01*
X118491Y132677D01*
X118255D01*
G01X118491D02*
X118648Y132776D01*
X118780Y132939D01*
X118832Y133136D01*
X118780Y133333D01*
X118648Y133497D01*
X118412Y133596D01*
X118176Y133563D01*
X117940Y133431D01*
G01X119659Y131922D02*
X119816Y131758D01*
X120000Y131660D01*
X120236Y131627D01*
X120472Y131693D01*
X120656Y131824D01*
X120787Y132054D01*
X120814Y132316D01*
X120761Y132579D01*
X120630Y132743D01*
X120446Y132874D01*
X120263Y132907D01*
X120079Y132874D01*
X119843Y132743D01*
X119921Y133596D01*
X120630D01*
G01X114672Y149541D02*
Y151509D01*
X115328D01*
X115538Y151411D01*
X115669Y151280D01*
X115722Y151017D01*
X115669Y150754D01*
X115512Y150591D01*
X115328Y150492D01*
X114672D01*
G01X115328D02*
X115722Y149541D01*
G01X116627Y151181D02*
X116785Y151378D01*
X116969Y151476D01*
X117178Y151509D01*
X117441Y151443D01*
X117625Y151280D01*
X117677Y151083D01*
X117651Y150886D01*
X117546Y150722D01*
X117021Y150394D01*
X116785Y150164D01*
X116627Y149836D01*
X116575Y149541D01*
X117677D01*
G01X119055D02*
Y151509D01*
X118740Y151115D01*
G01Y149541D02*
X119370D01*
G01X115774Y156266D02*
X115617Y156365D01*
X115433Y156430D01*
X115223D01*
X114987Y156332D01*
X114803Y156168D01*
X114672Y155971D01*
X114567Y155643D01*
X114541Y155348D01*
X114593Y155052D01*
X114672Y154856D01*
X114830Y154659D01*
X115013Y154528D01*
X115197Y154462D01*
X115381D01*
X115564Y154528D01*
X115722Y154626D01*
X115853Y154757D01*
G01X116548Y154856D02*
X116706Y154626D01*
X116916Y154494D01*
X117152Y154462D01*
X117362Y154494D01*
X117572Y154659D01*
X117704Y154856D01*
X117730Y155052D01*
X117677Y155282D01*
X117493Y155446D01*
X117310Y155512D01*
X117074D01*
G01X117310D02*
X117467Y155610D01*
X117598Y155774D01*
X117651Y155971D01*
X117598Y156168D01*
X117467Y156332D01*
X117231Y156430D01*
X116995Y156398D01*
X116759Y156266D01*
G01X118556Y155282D02*
X118740Y155512D01*
X118898Y155643D01*
X119107Y155709D01*
X119291Y155643D01*
X119422Y155512D01*
X119528Y155315D01*
X119554Y155085D01*
X119528Y154888D01*
X119422Y154691D01*
X119265Y154528D01*
X119081Y154462D01*
X118871Y154528D01*
X118688Y154724D01*
X118583Y155020D01*
X118556Y155348D01*
X118609Y155774D01*
X118688Y156004D01*
X118819Y156233D01*
X119003Y156398D01*
X119186Y156430D01*
X119370Y156365D01*
X119501Y156201D01*
G01X114672Y164304D02*
Y166273D01*
X115328D01*
X115538Y166174D01*
X115669Y166043D01*
X115722Y165781D01*
X115669Y165518D01*
X115512Y165354D01*
X115328Y165256D01*
X114672D01*
G01X115328D02*
X115722Y164304D01*
G01X116627Y165945D02*
X116785Y166142D01*
X116969Y166240D01*
X117178Y166273D01*
X117441Y166207D01*
X117625Y166043D01*
X117677Y165846D01*
X117651Y165650D01*
X117546Y165485D01*
X117021Y165157D01*
X116785Y164928D01*
X116627Y164600D01*
X116575Y164304D01*
X117677D01*
G01X119055Y166273D02*
X118845Y166207D01*
X118688Y166043D01*
X118583Y165846D01*
X118504Y165584D01*
X118478Y165289D01*
X118504Y164993D01*
X118583Y164731D01*
X118688Y164534D01*
X118845Y164370D01*
X119055Y164304D01*
X119265Y164370D01*
X119422Y164534D01*
X119528Y164731D01*
X119606Y164993D01*
X119633Y165289D01*
X119606Y165584D01*
X119528Y165846D01*
X119422Y166043D01*
X119265Y166207D01*
X119055Y166273D01*
G01X115637Y161548D02*
Y159580D01*
X116686D01*
G01X117592Y161220D02*
X117749Y161417D01*
X117933Y161516D01*
X118143Y161548D01*
X118406Y161483D01*
X118589Y161319D01*
X118642Y161122D01*
X118615Y160925D01*
X118511Y160761D01*
X117985Y160433D01*
X117749Y160203D01*
X117592Y159875D01*
X117539Y159580D01*
X118642D01*
G01X112487Y199934D02*
X112618Y199737D01*
X112776Y199606D01*
X112959Y199541D01*
X113169Y199606D01*
X113327Y199737D01*
X113484Y199934D01*
X113537Y200197D01*
Y201509D01*
G01X115256Y199541D02*
Y201509D01*
X114285Y200098D01*
X115597D01*
G01X129987Y54744D02*
X129954Y54534D01*
X129823Y54350D01*
X129626Y54193D01*
X129396Y54088D01*
X129134Y54035D01*
X128872D01*
X128609Y54088D01*
X128380Y54193D01*
X128183Y54350D01*
X128051Y54534D01*
X128019Y54744D01*
X128051Y54954D01*
X128183Y55138D01*
X128380Y55295D01*
X128609Y55400D01*
X128872Y55453D01*
X129134D01*
X129396Y55400D01*
X129626Y55295D01*
X129823Y55138D01*
X129954Y54954D01*
X129987Y54744D01*
G01X129462Y54954D02*
X129987Y55269D01*
G01Y56673D02*
X128019D01*
X128412Y56358D01*
G01X129987D02*
Y56988D01*
G01X132011Y45000D02*
Y46969D01*
X132667D01*
X132877Y46870D01*
X133008Y46739D01*
X133060Y46476D01*
X133008Y46214D01*
X132850Y46050D01*
X132667Y45952D01*
X132011D01*
G01X132667D02*
X133060Y45000D01*
G01X133887Y45295D02*
X134044Y45131D01*
X134228Y45033D01*
X134465Y45000D01*
X134701Y45066D01*
X134885Y45197D01*
X135016Y45426D01*
X135042Y45689D01*
X134989Y45952D01*
X134858Y46115D01*
X134674Y46247D01*
X134491Y46280D01*
X134307Y46247D01*
X134071Y46115D01*
X134150Y46969D01*
X134858D01*
G01X133885Y62762D02*
X133727Y62861D01*
X133543Y62926D01*
X133333D01*
X133097Y62828D01*
X132913Y62664D01*
X132782Y62467D01*
X132677Y62139D01*
X132651Y61844D01*
X132704Y61548D01*
X132782Y61352D01*
X132940Y61155D01*
X133123Y61024D01*
X133307Y60958D01*
X133491D01*
X133674Y61024D01*
X133832Y61122D01*
X133963Y61253D01*
G01X135236Y60958D02*
Y62926D01*
X134921Y62533D01*
G01Y60958D02*
X135551D01*
G01X137165Y62926D02*
X136956Y62861D01*
X136798Y62697D01*
X136693Y62500D01*
X136614Y62237D01*
X136588Y61942D01*
X136614Y61647D01*
X136693Y61384D01*
X136798Y61187D01*
X136956Y61024D01*
X137165Y60958D01*
X137375Y61024D01*
X137533Y61187D01*
X137638Y61384D01*
X137717Y61647D01*
X137743Y61942D01*
X137717Y62237D01*
X137638Y62500D01*
X137533Y62697D01*
X137375Y62861D01*
X137165Y62926D01*
G01X134482Y71680D02*
X134383Y71522D01*
X134318Y71339D01*
Y71129D01*
X134416Y70893D01*
X134580Y70709D01*
X134777Y70578D01*
X135105Y70472D01*
X135400Y70446D01*
X135696Y70499D01*
X135893Y70578D01*
X136089Y70735D01*
X136220Y70919D01*
X136286Y71102D01*
Y71286D01*
X136220Y71470D01*
X136122Y71627D01*
X135991Y71759D01*
G01X136286Y73031D02*
X134318D01*
X134711Y72717D01*
G01X136286D02*
Y73346D01*
G01Y75276D02*
X134318D01*
X135728Y74304D01*
Y75617D01*
G01X126660Y86942D02*
Y84974D01*
X127710D01*
G01X129114D02*
Y86942D01*
X128799Y86548D01*
G01Y84974D02*
X129429D01*
G01X131365Y96956D02*
X129396D01*
Y97611D01*
X129495Y97822D01*
X129626Y97953D01*
X129889Y98005D01*
X130151Y97953D01*
X130315Y97795D01*
X130413Y97611D01*
Y96956D01*
G01Y97611D02*
X131365Y98005D01*
G01Y99409D02*
X129396D01*
X129790Y99094D01*
G01X131365D02*
Y99724D01*
G01X129724Y100840D02*
X129528Y100997D01*
X129429Y101181D01*
X129396Y101391D01*
X129462Y101654D01*
X129626Y101837D01*
X129823Y101890D01*
X130020Y101863D01*
X130184Y101759D01*
X130512Y101233D01*
X130742Y100997D01*
X131070Y100840D01*
X131365Y100787D01*
Y101890D01*
G01X136844Y108688D02*
X136746Y108530D01*
X136680Y108346D01*
Y108137D01*
X136778Y107900D01*
X136943Y107717D01*
X137139Y107585D01*
X137467Y107480D01*
X137763Y107454D01*
X138058Y107507D01*
X138255Y107585D01*
X138452Y107743D01*
X138583Y107926D01*
X138648Y108110D01*
Y108294D01*
X138583Y108478D01*
X138484Y108635D01*
X138353Y108767D01*
G01X138648Y110039D02*
X136680D01*
X137074Y109724D01*
G01X138648D02*
Y110354D01*
G01X138255Y111391D02*
X138484Y111548D01*
X138616Y111759D01*
X138648Y111995D01*
X138616Y112205D01*
X138452Y112415D01*
X138255Y112546D01*
X138058Y112572D01*
X137828Y112520D01*
X137664Y112336D01*
X137598Y112152D01*
Y111916D01*
G01Y112152D02*
X137500Y112310D01*
X137336Y112441D01*
X137139Y112493D01*
X136943Y112441D01*
X136778Y112310D01*
X136680Y112074D01*
X136713Y111837D01*
X136844Y111601D01*
G01X127850Y111942D02*
X127641Y111975D01*
X127457Y112106D01*
X127299Y112303D01*
X127194Y112533D01*
X127142Y112795D01*
Y113057D01*
X127194Y113320D01*
X127299Y113550D01*
X127457Y113746D01*
X127641Y113878D01*
X127850Y113911D01*
X128060Y113878D01*
X128244Y113746D01*
X128402Y113550D01*
X128507Y113320D01*
X128559Y113057D01*
Y112795D01*
X128507Y112533D01*
X128402Y112303D01*
X128244Y112106D01*
X128060Y111975D01*
X127850Y111942D01*
G01X128060Y112467D02*
X128375Y111942D01*
G01X129281Y112762D02*
X129465Y112992D01*
X129622Y113123D01*
X129832Y113189D01*
X130016Y113123D01*
X130147Y112992D01*
X130252Y112795D01*
X130278Y112565D01*
X130252Y112369D01*
X130147Y112172D01*
X129989Y112008D01*
X129806Y111942D01*
X129596Y112008D01*
X129412Y112205D01*
X129307Y112500D01*
X129281Y112828D01*
X129333Y113254D01*
X129412Y113484D01*
X129543Y113714D01*
X129727Y113878D01*
X129911Y113911D01*
X130094Y113845D01*
X130226Y113681D01*
G01X138609Y136581D02*
X138452Y136680D01*
X138268Y136745D01*
X138058D01*
X137822Y136647D01*
X137638Y136483D01*
X137507Y136286D01*
X137402Y135958D01*
X137375Y135663D01*
X137428Y135367D01*
X137507Y135170D01*
X137664Y134974D01*
X137848Y134843D01*
X138031Y134777D01*
X138215D01*
X138399Y134843D01*
X138556Y134941D01*
X138688Y135072D01*
G01X139383Y135170D02*
X139541Y134941D01*
X139751Y134809D01*
X139987Y134777D01*
X140197Y134809D01*
X140407Y134974D01*
X140538Y135170D01*
X140564Y135367D01*
X140512Y135597D01*
X140328Y135761D01*
X140144Y135827D01*
X139908D01*
G01X140144D02*
X140302Y135925D01*
X140433Y136089D01*
X140485Y136286D01*
X140433Y136483D01*
X140302Y136647D01*
X140066Y136745D01*
X139830Y136713D01*
X139593Y136581D01*
G01X141890Y134777D02*
Y136745D01*
X141575Y136352D01*
G01Y134777D02*
X142205D01*
G01X125033Y144318D02*
X124935Y144160D01*
X124869Y143976D01*
Y143767D01*
X124967Y143530D01*
X125131Y143346D01*
X125328Y143215D01*
X125656Y143110D01*
X125952Y143084D01*
X126247Y143137D01*
X126444Y143215D01*
X126641Y143373D01*
X126772Y143556D01*
X126837Y143740D01*
Y143924D01*
X126772Y144107D01*
X126673Y144265D01*
X126542Y144396D01*
G01X126444Y145092D02*
X126673Y145249D01*
X126805Y145459D01*
X126837Y145696D01*
X126805Y145906D01*
X126641Y146115D01*
X126444Y146247D01*
X126247Y146273D01*
X126017Y146220D01*
X125853Y146037D01*
X125787Y145853D01*
Y145617D01*
G01Y145853D02*
X125689Y146011D01*
X125525Y146142D01*
X125328Y146194D01*
X125131Y146142D01*
X124967Y146011D01*
X124869Y145774D01*
X124902Y145538D01*
X125033Y145302D01*
G01X125197Y147100D02*
X125000Y147257D01*
X124902Y147441D01*
X124869Y147651D01*
X124935Y147913D01*
X125098Y148097D01*
X125295Y148150D01*
X125492Y148123D01*
X125656Y148019D01*
X125984Y147493D01*
X126214Y147257D01*
X126542Y147100D01*
X126837Y147047D01*
Y148150D01*
G01X133373Y177100D02*
Y179068D01*
X134029D01*
X134239Y178970D01*
X134370Y178839D01*
X134422Y178576D01*
X134370Y178313D01*
X134213Y178150D01*
X134029Y178051D01*
X133373D01*
G01X134029D02*
X134422Y177100D01*
G01X135827D02*
Y179068D01*
X135512Y178674D01*
G01Y177100D02*
X136142D01*
G01X137704D02*
X137756Y177526D01*
X137835Y177887D01*
X137940Y178215D01*
X138071Y178576D01*
X138281Y179068D01*
X137231D01*
G01X143589Y9974D02*
X143720Y9777D01*
X143878Y9646D01*
X144062Y9580D01*
X144272Y9646D01*
X144429Y9777D01*
X144587Y9974D01*
X144639Y10236D01*
Y11548D01*
G01X145544Y10400D02*
X145728Y10630D01*
X145886Y10761D01*
X146096Y10827D01*
X146280Y10761D01*
X146411Y10630D01*
X146516Y10433D01*
X146542Y10203D01*
X146516Y10006D01*
X146411Y9809D01*
X146253Y9646D01*
X146070Y9580D01*
X145859Y9646D01*
X145676Y9843D01*
X145571Y10138D01*
X145544Y10466D01*
X145597Y10892D01*
X145676Y11122D01*
X145807Y11352D01*
X145991Y11516D01*
X146174Y11548D01*
X146358Y11483D01*
X146489Y11319D01*
G01X144121Y40321D02*
X143963Y40420D01*
X143780Y40485D01*
X143570D01*
X143333Y40387D01*
X143150Y40223D01*
X143019Y40026D01*
X142913Y39698D01*
X142887Y39403D01*
X142940Y39107D01*
X143019Y38911D01*
X143176Y38714D01*
X143359Y38583D01*
X143543Y38517D01*
X143727D01*
X143911Y38583D01*
X144068Y38681D01*
X144200Y38812D01*
G01X144974Y40157D02*
X145131Y40354D01*
X145315Y40453D01*
X145525Y40485D01*
X145787Y40420D01*
X145971Y40256D01*
X146024Y40059D01*
X145997Y39862D01*
X145893Y39698D01*
X145367Y39370D01*
X145131Y39140D01*
X144974Y38812D01*
X144921Y38517D01*
X146024D01*
G01X146824Y38911D02*
X146981Y38681D01*
X147192Y38550D01*
X147428Y38517D01*
X147638Y38550D01*
X147848Y38714D01*
X147979Y38911D01*
X148005Y39107D01*
X147953Y39337D01*
X147769Y39501D01*
X147585Y39567D01*
X147349D01*
G01X147585D02*
X147743Y39665D01*
X147874Y39829D01*
X147926Y40026D01*
X147874Y40223D01*
X147743Y40387D01*
X147507Y40485D01*
X147270Y40453D01*
X147034Y40321D01*
G01X151791Y48359D02*
Y49245D01*
X151267Y50328D01*
G01X152316D02*
X151791Y49245D01*
G01X153720Y48359D02*
Y50328D01*
X153406Y49934D01*
G01Y48359D02*
X154035D01*
G01X156011Y57808D02*
Y59777D01*
X156667D01*
X156877Y59678D01*
X157008Y59547D01*
X157060Y59285D01*
X157008Y59022D01*
X156850Y58858D01*
X156667Y58760D01*
X156011D01*
G01X156667D02*
X157060Y57808D01*
G01X158465D02*
Y59777D01*
X158150Y59383D01*
G01Y57808D02*
X158780D01*
G01X159816Y58202D02*
X159974Y57972D01*
X160184Y57841D01*
X160420Y57808D01*
X160630Y57841D01*
X160840Y58005D01*
X160971Y58202D01*
X160997Y58399D01*
X160945Y58628D01*
X160761Y58793D01*
X160578Y58858D01*
X160341D01*
G01X160578D02*
X160735Y58957D01*
X160866Y59120D01*
X160919Y59317D01*
X160866Y59514D01*
X160735Y59678D01*
X160499Y59777D01*
X160263Y59744D01*
X160026Y59613D01*
G01X141562Y122014D02*
X141404Y122113D01*
X141220Y122178D01*
X141011D01*
X140774Y122080D01*
X140591Y121916D01*
X140459Y121719D01*
X140354Y121391D01*
X140328Y121096D01*
X140381Y120800D01*
X140459Y120604D01*
X140617Y120407D01*
X140800Y120276D01*
X140984Y120210D01*
X141168D01*
X141352Y120276D01*
X141509Y120374D01*
X141641Y120505D01*
G01X142913Y120210D02*
Y122178D01*
X142598Y121785D01*
G01Y120210D02*
X143228D01*
G01X144843D02*
X145026Y120243D01*
X145236Y120341D01*
X145367Y120505D01*
X145420Y120735D01*
X145367Y120965D01*
X145210Y121161D01*
X144974Y121260D01*
X144711D01*
X144554Y121325D01*
X144422Y121489D01*
X144370Y121719D01*
X144449Y121949D01*
X144633Y122113D01*
X144843Y122178D01*
X145052Y122113D01*
X145236Y121949D01*
X145315Y121719D01*
X145263Y121489D01*
X145131Y121325D01*
X144974Y121260D01*
X144711D01*
X144475Y121161D01*
X144318Y120965D01*
X144265Y120735D01*
X144318Y120505D01*
X144449Y120341D01*
X144659Y120243D01*
X144843Y120210D01*
G01X154046Y113500D02*
Y115469D01*
X154702D01*
X154912Y115370D01*
X155043Y115239D01*
X155096Y114976D01*
X155043Y114714D01*
X154886Y114550D01*
X154702Y114452D01*
X154046D01*
G01X154702D02*
X155096Y113500D01*
G01X156500D02*
Y115469D01*
X156185Y115075D01*
G01Y113500D02*
X156815D01*
G01X158744D02*
Y115469D01*
X157773Y114058D01*
X159085D01*
G01X146089Y136581D02*
X145932Y136680D01*
X145748Y136745D01*
X145538D01*
X145302Y136647D01*
X145118Y136483D01*
X144987Y136286D01*
X144882Y135958D01*
X144856Y135663D01*
X144908Y135367D01*
X144987Y135170D01*
X145144Y134974D01*
X145328Y134843D01*
X145512Y134777D01*
X145696D01*
X145879Y134843D01*
X146037Y134941D01*
X146168Y135072D01*
G01X146863Y135170D02*
X147021Y134941D01*
X147231Y134809D01*
X147467Y134777D01*
X147677Y134809D01*
X147887Y134974D01*
X148019Y135170D01*
X148044Y135367D01*
X147992Y135597D01*
X147808Y135761D01*
X147625Y135827D01*
X147389D01*
G01X147625D02*
X147782Y135925D01*
X147913Y136089D01*
X147966Y136286D01*
X147913Y136483D01*
X147782Y136647D01*
X147546Y136745D01*
X147310Y136713D01*
X147074Y136581D01*
G01X149370Y136745D02*
X149160Y136680D01*
X149003Y136516D01*
X148898Y136319D01*
X148819Y136056D01*
X148793Y135761D01*
X148819Y135466D01*
X148898Y135203D01*
X149003Y135006D01*
X149160Y134843D01*
X149370Y134777D01*
X149580Y134843D01*
X149737Y135006D01*
X149843Y135203D01*
X149921Y135466D01*
X149948Y135761D01*
X149921Y136056D01*
X149843Y136319D01*
X149737Y136516D01*
X149580Y136680D01*
X149370Y136745D01*
G01X148064Y157808D02*
Y156398D01*
X148169Y156102D01*
X148379Y155906D01*
X148642Y155840D01*
X148904Y155906D01*
X149114Y156102D01*
X149219Y156398D01*
Y157808D01*
G01X149993Y156135D02*
X150151Y155971D01*
X150335Y155872D01*
X150571Y155840D01*
X150807Y155906D01*
X150991Y156037D01*
X151122Y156266D01*
X151148Y156529D01*
X151096Y156791D01*
X150965Y156955D01*
X150781Y157087D01*
X150597Y157119D01*
X150413Y157087D01*
X150177Y156955D01*
X150256Y157808D01*
X150965D01*
G01X158097Y40321D02*
X157940Y40420D01*
X157756Y40485D01*
X157546D01*
X157310Y40387D01*
X157126Y40223D01*
X156995Y40026D01*
X156890Y39698D01*
X156863Y39403D01*
X156916Y39107D01*
X156995Y38911D01*
X157152Y38714D01*
X157336Y38583D01*
X157520Y38517D01*
X157704D01*
X157887Y38583D01*
X158044Y38681D01*
X158176Y38812D01*
G01X158950Y40157D02*
X159107Y40354D01*
X159291Y40453D01*
X159501Y40485D01*
X159764Y40420D01*
X159948Y40256D01*
X160000Y40059D01*
X159974Y39862D01*
X159869Y39698D01*
X159344Y39370D01*
X159107Y39140D01*
X158950Y38812D01*
X158898Y38517D01*
X160000D01*
G01X161693D02*
Y40485D01*
X160722Y39075D01*
X162034D01*
G01X163615Y88517D02*
Y87106D01*
X163720Y86811D01*
X163930Y86614D01*
X164193Y86548D01*
X164456Y86614D01*
X164665Y86811D01*
X164770Y87106D01*
Y88517D01*
G01X166437Y86548D02*
Y88517D01*
X165466Y87106D01*
X166778D01*
G01X164239Y120774D02*
X162270D01*
Y121430D01*
X162369Y121641D01*
X162500Y121772D01*
X162763Y121824D01*
X163025Y121772D01*
X163189Y121614D01*
X163287Y121430D01*
Y120774D01*
G01Y121430D02*
X164239Y121824D01*
G01X163845Y122651D02*
X164075Y122808D01*
X164206Y123019D01*
X164239Y123255D01*
X164206Y123465D01*
X164042Y123674D01*
X163845Y123806D01*
X163648Y123832D01*
X163419Y123780D01*
X163255Y123596D01*
X163189Y123412D01*
Y123176D01*
G01Y123412D02*
X163091Y123570D01*
X162927Y123701D01*
X162730Y123753D01*
X162533Y123701D01*
X162369Y123570D01*
X162270Y123333D01*
X162303Y123097D01*
X162435Y122861D01*
G01X162270Y125157D02*
X162336Y124948D01*
X162500Y124790D01*
X162697Y124685D01*
X162959Y124606D01*
X163255Y124580D01*
X163550Y124606D01*
X163813Y124685D01*
X164009Y124790D01*
X164173Y124948D01*
X164239Y125157D01*
X164173Y125367D01*
X164009Y125525D01*
X163813Y125630D01*
X163550Y125709D01*
X163255Y125735D01*
X162959Y125709D01*
X162697Y125630D01*
X162500Y125525D01*
X162336Y125367D01*
X162270Y125157D01*
G01X165971Y136581D02*
X165814Y136680D01*
X165630Y136745D01*
X165420D01*
X165184Y136647D01*
X165000Y136483D01*
X164869Y136286D01*
X164764Y135958D01*
X164737Y135663D01*
X164790Y135367D01*
X164869Y135170D01*
X165026Y134974D01*
X165210Y134843D01*
X165394Y134777D01*
X165578D01*
X165761Y134843D01*
X165919Y134941D01*
X166050Y135072D01*
G01X166824Y136417D02*
X166981Y136614D01*
X167165Y136713D01*
X167375Y136745D01*
X167638Y136680D01*
X167822Y136516D01*
X167874Y136319D01*
X167848Y136122D01*
X167743Y135958D01*
X167218Y135630D01*
X166981Y135400D01*
X166824Y135072D01*
X166772Y134777D01*
X167874D01*
G01X169252D02*
X169436Y134809D01*
X169646Y134908D01*
X169777Y135072D01*
X169830Y135302D01*
X169777Y135531D01*
X169619Y135728D01*
X169383Y135827D01*
X169121D01*
X168963Y135892D01*
X168832Y136056D01*
X168780Y136286D01*
X168858Y136516D01*
X169042Y136680D01*
X169252Y136745D01*
X169462Y136680D01*
X169646Y136516D01*
X169724Y136286D01*
X169672Y136056D01*
X169541Y135892D01*
X169383Y135827D01*
X169121D01*
X168885Y135728D01*
X168727Y135531D01*
X168674Y135302D01*
X168727Y135072D01*
X168858Y134908D01*
X169068Y134809D01*
X169252Y134777D01*
G01X158097Y136581D02*
X157940Y136680D01*
X157756Y136745D01*
X157546D01*
X157310Y136647D01*
X157126Y136483D01*
X156995Y136286D01*
X156890Y135958D01*
X156863Y135663D01*
X156916Y135367D01*
X156995Y135170D01*
X157152Y134974D01*
X157336Y134843D01*
X157520Y134777D01*
X157704D01*
X157887Y134843D01*
X158044Y134941D01*
X158176Y135072D01*
G01X158950Y136417D02*
X159107Y136614D01*
X159291Y136713D01*
X159501Y136745D01*
X159764Y136680D01*
X159948Y136516D01*
X160000Y136319D01*
X159974Y136122D01*
X159869Y135958D01*
X159344Y135630D01*
X159107Y135400D01*
X158950Y135072D01*
X158898Y134777D01*
X160000D01*
G01X160932Y135006D02*
X161115Y134843D01*
X161326Y134777D01*
X161535Y134843D01*
X161719Y135039D01*
X161850Y135335D01*
X161903Y135630D01*
Y135991D01*
X161850Y136286D01*
X161719Y136548D01*
X161562Y136680D01*
X161378Y136745D01*
X161168Y136680D01*
X161011Y136548D01*
X160906Y136352D01*
X160853Y136089D01*
X160906Y135859D01*
X161037Y135630D01*
X161194Y135498D01*
X161378Y135466D01*
X161588Y135531D01*
X161745Y135695D01*
X161903Y135991D01*
G01X173058Y148786D02*
X172900Y148884D01*
X172717Y148950D01*
X172507D01*
X172270Y148852D01*
X172087Y148687D01*
X171956Y148491D01*
X171850Y148163D01*
X171824Y147867D01*
X171877Y147572D01*
X171956Y147375D01*
X172113Y147178D01*
X172296Y147047D01*
X172480Y146981D01*
X172664D01*
X172848Y147047D01*
X173005Y147146D01*
X173137Y147277D01*
G01X173911Y148622D02*
X174068Y148819D01*
X174252Y148917D01*
X174462Y148950D01*
X174724Y148884D01*
X174908Y148720D01*
X174961Y148524D01*
X174934Y148327D01*
X174830Y148163D01*
X174304Y147835D01*
X174068Y147605D01*
X173911Y147277D01*
X173858Y146981D01*
X174961D01*
G01X176286D02*
X176339Y147408D01*
X176417Y147769D01*
X176522Y148097D01*
X176654Y148458D01*
X176863Y148950D01*
X175814D01*
G01X172861Y167290D02*
X172704Y167388D01*
X172520Y167454D01*
X172310D01*
X172074Y167356D01*
X171890Y167191D01*
X171759Y166994D01*
X171654Y166667D01*
X171627Y166371D01*
X171680Y166076D01*
X171759Y165879D01*
X171916Y165682D01*
X172100Y165551D01*
X172283Y165485D01*
X172467D01*
X172651Y165551D01*
X172808Y165650D01*
X172940Y165781D01*
G01X173635Y165879D02*
X173793Y165650D01*
X174003Y165518D01*
X174239Y165485D01*
X174449Y165518D01*
X174659Y165682D01*
X174790Y165879D01*
X174816Y166076D01*
X174764Y166306D01*
X174580Y166470D01*
X174396Y166535D01*
X174160D01*
G01X174396D02*
X174554Y166634D01*
X174685Y166798D01*
X174737Y166994D01*
X174685Y167191D01*
X174554Y167356D01*
X174318Y167454D01*
X174081Y167421D01*
X173845Y167290D01*
G01X176457Y165485D02*
Y167454D01*
X175485Y166043D01*
X176798D01*
G01X179593Y35912D02*
X177625D01*
Y36568D01*
X177723Y36778D01*
X177854Y36909D01*
X178117Y36962D01*
X178380Y36909D01*
X178543Y36752D01*
X178642Y36568D01*
Y35912D01*
G01Y36568D02*
X179593Y36962D01*
G01Y38681D02*
X177625D01*
X179035Y37710D01*
Y39022D01*
G01X175026Y55676D02*
X174869Y55774D01*
X174685Y55840D01*
X174475D01*
X174239Y55741D01*
X174055Y55577D01*
X173924Y55380D01*
X173819Y55052D01*
X173793Y54757D01*
X173845Y54462D01*
X173924Y54265D01*
X174081Y54068D01*
X174265Y53937D01*
X174449Y53871D01*
X174633D01*
X174816Y53937D01*
X174974Y54035D01*
X175105Y54167D01*
G01X175879Y55512D02*
X176037Y55709D01*
X176220Y55807D01*
X176430Y55840D01*
X176693Y55774D01*
X176877Y55610D01*
X176929Y55413D01*
X176903Y55217D01*
X176798Y55052D01*
X176273Y54724D01*
X176037Y54494D01*
X175879Y54167D01*
X175827Y53871D01*
X176929D01*
G01X178307D02*
Y55840D01*
X177992Y55446D01*
G01Y53871D02*
X178622D01*
G01X174830Y59613D02*
X174672Y59711D01*
X174488Y59777D01*
X174278D01*
X174042Y59678D01*
X173858Y59514D01*
X173727Y59317D01*
X173622Y58989D01*
X173596Y58694D01*
X173648Y58399D01*
X173727Y58202D01*
X173885Y58005D01*
X174068Y57874D01*
X174252Y57808D01*
X174436D01*
X174619Y57874D01*
X174777Y57972D01*
X174908Y58104D01*
G01X175682Y59449D02*
X175840Y59646D01*
X176024Y59744D01*
X176233Y59777D01*
X176496Y59711D01*
X176680Y59547D01*
X176732Y59350D01*
X176706Y59154D01*
X176601Y58989D01*
X176076Y58661D01*
X175840Y58431D01*
X175682Y58104D01*
X175630Y57808D01*
X176732D01*
G01X178110Y59777D02*
X177900Y59711D01*
X177743Y59547D01*
X177638Y59350D01*
X177559Y59088D01*
X177533Y58793D01*
X177559Y58497D01*
X177638Y58235D01*
X177743Y58038D01*
X177900Y57874D01*
X178110Y57808D01*
X178320Y57874D01*
X178478Y58038D01*
X178583Y58235D01*
X178661Y58497D01*
X178688Y58793D01*
X178661Y59088D01*
X178583Y59350D01*
X178478Y59547D01*
X178320Y59711D01*
X178110Y59777D01*
G01X178176Y120439D02*
X178019Y120538D01*
X177835Y120604D01*
X177625D01*
X177389Y120505D01*
X177205Y120341D01*
X177074Y120144D01*
X176969Y119816D01*
X176942Y119521D01*
X176995Y119226D01*
X177074Y119029D01*
X177231Y118832D01*
X177415Y118701D01*
X177598Y118635D01*
X177782D01*
X177966Y118701D01*
X178123Y118799D01*
X178255Y118930D01*
G01X179528Y118635D02*
Y120604D01*
X179213Y120210D01*
G01Y118635D02*
X179843D01*
G01X181404D02*
X181457Y119061D01*
X181535Y119422D01*
X181641Y119750D01*
X181772Y120111D01*
X181981Y120604D01*
X180932D01*
G01X178373Y129691D02*
X178215Y129790D01*
X178031Y129856D01*
X177822D01*
X177585Y129757D01*
X177402Y129593D01*
X177270Y129396D01*
X177165Y129068D01*
X177139Y128773D01*
X177192Y128478D01*
X177270Y128281D01*
X177428Y128084D01*
X177611Y127953D01*
X177795Y127887D01*
X177979D01*
X178163Y127953D01*
X178320Y128051D01*
X178452Y128182D01*
G01X179724Y127887D02*
Y129856D01*
X179409Y129462D01*
G01Y127887D02*
X180039D01*
G01X181155Y128707D02*
X181339Y128937D01*
X181496Y129068D01*
X181706Y129134D01*
X181890Y129068D01*
X182021Y128937D01*
X182126Y128740D01*
X182152Y128510D01*
X182126Y128313D01*
X182021Y128117D01*
X181863Y127953D01*
X181680Y127887D01*
X181470Y127953D01*
X181286Y128150D01*
X181181Y128445D01*
X181155Y128773D01*
X181207Y129199D01*
X181286Y129429D01*
X181417Y129659D01*
X181601Y129823D01*
X181785Y129856D01*
X181969Y129790D01*
X182100Y129626D01*
G01X198885Y36437D02*
X198852Y36227D01*
X198720Y36043D01*
X198524Y35886D01*
X198294Y35781D01*
X198031Y35728D01*
X197769D01*
X197507Y35781D01*
X197277Y35886D01*
X197080Y36043D01*
X196949Y36227D01*
X196916Y36437D01*
X196949Y36647D01*
X197080Y36831D01*
X197277Y36988D01*
X197507Y37093D01*
X197769Y37146D01*
X198031D01*
X198294Y37093D01*
X198524Y36988D01*
X198720Y36831D01*
X198852Y36647D01*
X198885Y36437D01*
G01X198360Y36647D02*
X198885Y36962D01*
G01X197244Y37867D02*
X197047Y38025D01*
X196949Y38209D01*
X196916Y38419D01*
X196982Y38681D01*
X197146Y38865D01*
X197343Y38917D01*
X197539Y38891D01*
X197704Y38786D01*
X198031Y38261D01*
X198261Y38025D01*
X198589Y37867D01*
X198885Y37815D01*
Y38917D01*
G01X200617Y62959D02*
X200459Y63057D01*
X200276Y63123D01*
X200066D01*
X199830Y63025D01*
X199646Y62861D01*
X199515Y62664D01*
X199409Y62336D01*
X199383Y62041D01*
X199436Y61745D01*
X199515Y61548D01*
X199672Y61352D01*
X199856Y61220D01*
X200039Y61155D01*
X200223D01*
X200407Y61220D01*
X200564Y61319D01*
X200696Y61450D01*
G01X201969Y61155D02*
Y63123D01*
X201654Y62730D01*
G01Y61155D02*
X202283D01*
G01X203320Y61450D02*
X203478Y61286D01*
X203661Y61187D01*
X203898Y61155D01*
X204134Y61220D01*
X204318Y61352D01*
X204449Y61581D01*
X204475Y61844D01*
X204422Y62106D01*
X204291Y62270D01*
X204107Y62402D01*
X203924Y62434D01*
X203740Y62402D01*
X203504Y62270D01*
X203583Y63123D01*
X204291D01*
G01X192159Y75617D02*
X192061Y75459D01*
X191995Y75276D01*
Y75066D01*
X192093Y74830D01*
X192257Y74646D01*
X192454Y74515D01*
X192782Y74409D01*
X193078Y74383D01*
X193373Y74436D01*
X193570Y74515D01*
X193767Y74672D01*
X193898Y74856D01*
X193963Y75039D01*
Y75223D01*
X193898Y75407D01*
X193799Y75564D01*
X193668Y75696D01*
G01X193963Y76969D02*
X191995D01*
X192389Y76654D01*
G01X193963D02*
Y77283D01*
G01Y78898D02*
X191995D01*
X192389Y78583D01*
G01X193963D02*
Y79213D01*
G01X198255Y89337D02*
X198097Y89435D01*
X197913Y89501D01*
X197704D01*
X197467Y89403D01*
X197283Y89239D01*
X197152Y89042D01*
X197047Y88714D01*
X197021Y88419D01*
X197074Y88123D01*
X197152Y87926D01*
X197310Y87730D01*
X197493Y87598D01*
X197677Y87533D01*
X197861D01*
X198044Y87598D01*
X198202Y87697D01*
X198333Y87828D01*
G01X199606Y87533D02*
Y89501D01*
X199291Y89107D01*
G01Y87533D02*
X199921D01*
G01X201089Y87762D02*
X201273Y87598D01*
X201483Y87533D01*
X201693Y87598D01*
X201877Y87795D01*
X202008Y88091D01*
X202060Y88386D01*
Y88746D01*
X202008Y89042D01*
X201877Y89304D01*
X201719Y89435D01*
X201535Y89501D01*
X201326Y89435D01*
X201168Y89304D01*
X201063Y89107D01*
X201011Y88845D01*
X201063Y88615D01*
X201194Y88386D01*
X201352Y88254D01*
X201535Y88222D01*
X201745Y88287D01*
X201903Y88451D01*
X202060Y88746D01*
G01X191569Y104357D02*
X191470Y104200D01*
X191404Y104016D01*
Y103806D01*
X191503Y103570D01*
X191667Y103386D01*
X191864Y103255D01*
X192192Y103150D01*
X192487Y103123D01*
X192782Y103176D01*
X192979Y103255D01*
X193176Y103412D01*
X193307Y103596D01*
X193373Y103780D01*
Y103963D01*
X193307Y104147D01*
X193209Y104304D01*
X193078Y104436D01*
G01X193373Y105709D02*
X191404D01*
X191798Y105394D01*
G01X193373D02*
Y106024D01*
G01X191732Y107139D02*
X191535Y107296D01*
X191437Y107480D01*
X191404Y107690D01*
X191470Y107953D01*
X191634Y108137D01*
X191831Y108189D01*
X192028Y108163D01*
X192192Y108058D01*
X192520Y107533D01*
X192750Y107296D01*
X193078Y107139D01*
X193373Y107087D01*
Y108189D01*
G01X211438Y38256D02*
X211280Y38355D01*
X211096Y38420D01*
X210887D01*
X210650Y38322D01*
X210467Y38158D01*
X210335Y37961D01*
X210230Y37633D01*
X210204Y37338D01*
X210257Y37043D01*
X210335Y36846D01*
X210493Y36649D01*
X210676Y36518D01*
X210860Y36452D01*
X211044D01*
X211228Y36518D01*
X211385Y36616D01*
X211517Y36747D01*
G01X212291Y38093D02*
X212448Y38289D01*
X212632Y38388D01*
X212842Y38420D01*
X213104Y38355D01*
X213288Y38191D01*
X213341Y37994D01*
X213314Y37797D01*
X213209Y37633D01*
X212684Y37305D01*
X212448Y37075D01*
X212291Y36747D01*
X212238Y36452D01*
X213341D01*
G01X214220Y38093D02*
X214377Y38289D01*
X214561Y38388D01*
X214771Y38420D01*
X215033Y38355D01*
X215217Y38191D01*
X215270Y37994D01*
X215243Y37797D01*
X215139Y37633D01*
X214613Y37305D01*
X214377Y37075D01*
X214220Y36747D01*
X214167Y36452D01*
X215270D01*
G01X222461Y61155D02*
X222251Y61187D01*
X222067Y61319D01*
X221909Y61516D01*
X221804Y61745D01*
X221752Y62008D01*
Y62270D01*
X221804Y62533D01*
X221909Y62762D01*
X222067Y62959D01*
X222251Y63091D01*
X222461Y63123D01*
X222670Y63091D01*
X222854Y62959D01*
X223012Y62762D01*
X223117Y62533D01*
X223169Y62270D01*
Y62008D01*
X223117Y61745D01*
X223012Y61516D01*
X222854Y61319D01*
X222670Y61187D01*
X222461Y61155D01*
G01X222670Y61680D02*
X222985Y61155D01*
G01X223812Y61548D02*
X223970Y61319D01*
X224180Y61187D01*
X224416Y61155D01*
X224626Y61187D01*
X224836Y61352D01*
X224967Y61548D01*
X224993Y61745D01*
X224941Y61975D01*
X224757Y62139D01*
X224574Y62205D01*
X224337D01*
G01X224574D02*
X224731Y62303D01*
X224862Y62467D01*
X224915Y62664D01*
X224862Y62861D01*
X224731Y63025D01*
X224495Y63123D01*
X224259Y63091D01*
X224022Y62959D01*
G01X222461Y75919D02*
X222251Y75951D01*
X222067Y76083D01*
X221909Y76280D01*
X221804Y76509D01*
X221752Y76772D01*
Y77034D01*
X221804Y77296D01*
X221909Y77526D01*
X222067Y77723D01*
X222251Y77854D01*
X222461Y77887D01*
X222670Y77854D01*
X222854Y77723D01*
X223012Y77526D01*
X223117Y77296D01*
X223169Y77034D01*
Y76772D01*
X223117Y76509D01*
X223012Y76280D01*
X222854Y76083D01*
X222670Y75951D01*
X222461Y75919D01*
G01X222670Y76443D02*
X222985Y75919D01*
G01X223812Y76214D02*
X223970Y76050D01*
X224154Y75951D01*
X224390Y75919D01*
X224626Y75984D01*
X224810Y76115D01*
X224941Y76345D01*
X224967Y76607D01*
X224915Y76870D01*
X224783Y77034D01*
X224600Y77165D01*
X224416Y77198D01*
X224232Y77165D01*
X223996Y77034D01*
X224075Y77887D01*
X224783D01*
G01X211680Y74711D02*
X209711D01*
Y75367D01*
X209810Y75578D01*
X209941Y75709D01*
X210204Y75761D01*
X210466Y75709D01*
X210630Y75551D01*
X210728Y75367D01*
Y74711D01*
G01Y75367D02*
X211680Y75761D01*
G01Y77165D02*
X209711D01*
X210105Y76850D01*
G01X211680D02*
Y77480D01*
G01Y79094D02*
X209711D01*
X210105Y78780D01*
G01X211680D02*
Y79409D01*
G01X218237Y104236D02*
X218402Y104446D01*
X218500Y104682D01*
Y104893D01*
X218402Y105102D01*
X218237Y105260D01*
X218008Y105339D01*
X217778Y105286D01*
X217581Y105155D01*
X217450Y104919D01*
X217385Y104604D01*
X217253Y104420D01*
X217024Y104341D01*
X216794Y104394D01*
X216630Y104525D01*
X216531Y104709D01*
Y104893D01*
X216597Y105076D01*
X216761Y105233D01*
G01X216531Y105929D02*
X218500Y106296D01*
X216531Y106717D01*
X218500Y107137D01*
X216531Y107504D01*
G01X218500Y108646D02*
X216531D01*
X216925Y108331D01*
G01X218500D02*
Y108961D01*
G01X214456Y199934D02*
X214587Y199737D01*
X214744Y199606D01*
X214928Y199541D01*
X215138Y199606D01*
X215295Y199737D01*
X215453Y199934D01*
X215505Y200197D01*
Y201509D01*
G01X216411Y201181D02*
X216568Y201378D01*
X216752Y201476D01*
X216962Y201509D01*
X217224Y201443D01*
X217408Y201280D01*
X217461Y201083D01*
X217434Y200886D01*
X217330Y200722D01*
X216804Y200394D01*
X216568Y200164D01*
X216411Y199836D01*
X216358Y199541D01*
X217461D01*
G01X227448Y9777D02*
X227579Y9580D01*
X227736Y9449D01*
X227920Y9383D01*
X228130Y9449D01*
X228287Y9580D01*
X228445Y9777D01*
X228497Y10039D01*
Y11352D01*
G01X229324Y9678D02*
X229481Y9514D01*
X229665Y9416D01*
X229902Y9383D01*
X230138Y9449D01*
X230322Y9580D01*
X230453Y9809D01*
X230479Y10072D01*
X230426Y10335D01*
X230295Y10498D01*
X230111Y10630D01*
X229928Y10663D01*
X229744Y10630D01*
X229508Y10498D01*
X229587Y11352D01*
X230295D01*
G01X234285Y166863D02*
Y168832D01*
X234810D01*
X235020Y168733D01*
X235177Y168602D01*
X235308Y168406D01*
X235413Y168176D01*
X235440Y167848D01*
X235413Y167520D01*
X235308Y167290D01*
X235177Y167093D01*
X235020Y166962D01*
X234810Y166863D01*
X234285D01*
G01X236214Y167257D02*
X236371Y167028D01*
X236581Y166896D01*
X236818Y166863D01*
X237028Y166896D01*
X237237Y167060D01*
X237369Y167257D01*
X237395Y167454D01*
X237343Y167683D01*
X237159Y167848D01*
X236975Y167913D01*
X236739D01*
G01X236975D02*
X237133Y168012D01*
X237264Y168176D01*
X237316Y168372D01*
X237264Y168569D01*
X237133Y168733D01*
X236896Y168832D01*
X236660Y168799D01*
X236424Y168668D01*
G01X246483Y61187D02*
X246326Y61286D01*
X246142Y61352D01*
X245932D01*
X245696Y61253D01*
X245512Y61089D01*
X245381Y60892D01*
X245276Y60564D01*
X245249Y60269D01*
X245302Y59974D01*
X245381Y59777D01*
X245538Y59580D01*
X245722Y59449D01*
X245906Y59383D01*
X246089D01*
X246273Y59449D01*
X246430Y59547D01*
X246562Y59678D01*
G01X247336Y61024D02*
X247493Y61220D01*
X247677Y61319D01*
X247887Y61352D01*
X248150Y61286D01*
X248333Y61122D01*
X248386Y60925D01*
X248359Y60728D01*
X248255Y60564D01*
X247730Y60236D01*
X247493Y60006D01*
X247336Y59678D01*
X247283Y59383D01*
X248386D01*
G01X249265Y60203D02*
X249449Y60433D01*
X249606Y60564D01*
X249816Y60630D01*
X250000Y60564D01*
X250131Y60433D01*
X250236Y60236D01*
X250263Y60006D01*
X250236Y59809D01*
X250131Y59613D01*
X249974Y59449D01*
X249790Y59383D01*
X249580Y59449D01*
X249396Y59646D01*
X249291Y59941D01*
X249265Y60269D01*
X249318Y60695D01*
X249396Y60925D01*
X249528Y61155D01*
X249711Y61319D01*
X249895Y61352D01*
X250079Y61286D01*
X250210Y61122D01*
G01X248648Y74770D02*
X248491Y74869D01*
X248307Y74934D01*
X248097D01*
X247861Y74836D01*
X247677Y74672D01*
X247546Y74475D01*
X247441Y74147D01*
X247415Y73852D01*
X247467Y73556D01*
X247546Y73359D01*
X247704Y73163D01*
X247887Y73031D01*
X248071Y72966D01*
X248255D01*
X248438Y73031D01*
X248596Y73130D01*
X248727Y73261D01*
G01X249501Y74606D02*
X249659Y74803D01*
X249843Y74902D01*
X250052Y74934D01*
X250315Y74869D01*
X250499Y74705D01*
X250551Y74508D01*
X250525Y74311D01*
X250420Y74147D01*
X249895Y73819D01*
X249659Y73589D01*
X249501Y73261D01*
X249449Y72966D01*
X250551D01*
G01X251352Y73261D02*
X251509Y73097D01*
X251693Y72998D01*
X251929Y72966D01*
X252165Y73031D01*
X252349Y73163D01*
X252480Y73392D01*
X252507Y73655D01*
X252454Y73917D01*
X252323Y74081D01*
X252139Y74213D01*
X251956Y74245D01*
X251772Y74213D01*
X251535Y74081D01*
X251614Y74934D01*
X252323D01*
G01X254810Y107021D02*
X254941Y106824D01*
X255098Y106693D01*
X255282Y106627D01*
X255492Y106693D01*
X255650Y106824D01*
X255807Y107021D01*
X255859Y107283D01*
Y108596D01*
G01X257211Y106627D02*
X257264Y107054D01*
X257343Y107415D01*
X257448Y107743D01*
X257579Y108104D01*
X257789Y108596D01*
X256739D01*
G54D12*
G01X0Y0D02*
Y143099D01*
G01Y0D02*
X260000D01*
Y10000D01*
X270000Y20000D01*
Y149000D01*
X260000Y159000D01*
Y204000D01*
X254000Y210000D01*
X0D01*
Y167902D01*
X33937D01*
G02X37874Y163965I0J-3937D01*
G01Y147036D01*
G02X33937Y143099I-3937J0D01*
G01X0D01*
M02*
