G04 ================== begin FILE IDENTIFICATION RECORD ==================*
G04 Layout Name:  netduino_plus2_20Dec16.brd*
G04 Film Name:    L4-BOT*
G04 File Format:  Gerber RS274X*
G04 File Origin:  Cadence Allegro 16.6-2015-S069*
G04 Origin Date:  Tue Dec 20 08:56:26 2016*
G04 *
G04 Layer:  VIA CLASS/BOTTOM*
G04 Layer:  PIN/BOTTOM*
G04 Layer:  ETCH/BOTTOM*
G04 *
G04 Offset:    (0.0000 0.0000)*
G04 Mirror:    No*
G04 Mode:      Positive*
G04 Rotation:  0*
G04 FullContactRelief:  No*
G04 UndefLineWidth:     0.1270*
G04 ================== end FILE IDENTIFICATION RECORD ====================*
%FSLAX25Y25*MOIN*%
%IR0*IPPOS*OFA0.00000B0.00000*MIA0B0*SFA1.00000B1.00000*%
%ADD16C,.023622*%
%ADD13C,.035433*%
%ADD21C,.038189*%
%ADD14R,.045276X.055118*%
%ADD11R,.066929X.052165*%
%ADD10C,.000004*%
%ADD12C,.100394*%
%ADD19C,.072835*%
%ADD17C,.101181*%
%ADD18C,.062598*%
%ADD15C,.151575*%
%ADD20R,.072835X.072835*%
%ADD22C,.019685*%
%ADD23C,.00689*%
%ADD26C,.043323*%
%ADD28C,.055134*%
%ADD24C,.120094*%
%ADD27C,.082299*%
%ADD25R,.064976X.074819*%
G75*
%LPD*%
G75*
G36*
G01X35615Y77217D02*
Y84827D01*
G02X36897Y86370I1570J0D01*
G03X38552Y89193I-397J2130D01*
G01X38396Y89655D01*
X40646Y91905D01*
X41866D01*
Y91000D01*
X41830Y90886D01*
G03X42568Y88530I2068J-646D01*
G01Y86726D01*
X43011Y86283D01*
Y76606D01*
X42170Y75766D01*
Y74710D01*
G03X45290Y74220I1330J-1710D01*
G01X44923Y74758D01*
X45670Y75505D01*
Y79862D01*
G02X47844Y81311I1570J0D01*
G03X49924Y81539I833J2000D01*
G01X50127Y81682D01*
X56004D01*
X56870Y80817D01*
G02X56731Y78474I-1110J-1110D01*
G03X59773Y75431I1340J-1702D01*
G02X62117Y75570I1234J-971D01*
G01X67313Y70374D01*
X65914Y68976D01*
G02X63794Y68883I-1110J1110D01*
G03X60691Y65896I-1393J-1659D01*
G02X60586Y64823I-620J-481D01*
G03X63776Y61937I1422J-1634D01*
G02X65761Y62434I1282J-907D01*
G03X68443Y63041I971J1936D01*
G01X72401D01*
X73244Y63884D01*
G02X75867Y63196I1110J-1110D01*
G03X78326Y61646I2086J583D01*
G02X80167Y60099I271J-1547D01*
G01Y53189D01*
X101811Y31544D01*
X138780D01*
Y19095D01*
X126032D01*
X121375Y14438D01*
X120958Y14526D01*
G03X117160Y13653I-958J-4526D01*
G02X114650Y14627I-963J1240D01*
G01X105373D01*
Y5709D01*
X61330D01*
X45166Y21874D01*
X39283D01*
X39069Y22318D01*
G03Y17098I-5408J-2610D01*
G01X39283Y17542D01*
X43371D01*
X56264Y4649D01*
G02X55154Y1969I-1110J-1110D01*
G01X1969D01*
Y28020D01*
G02X4717Y29057I1570J0D01*
G03Y36343I4141J3643D01*
G02X1969Y37380I-1179J1037D01*
G01Y73021D01*
X9253D01*
Y80207D01*
X1969D01*
Y99497D01*
X9253D01*
Y106684D01*
X1969D01*
Y140748D01*
X11375D01*
G02X12650Y138262I0J-1570D01*
G03X26563I6956J-4994D01*
G02X27838Y140748I1275J916D01*
G01X34449D01*
G03X40354Y146654I0J5906D01*
G01Y164370D01*
G03X34449Y170276I-5906J0D01*
G01X27838D01*
G02X26563Y172761I0J1570D01*
G03X12650I-6956J4994D01*
G02X11375Y170276I-1275J-916D01*
G01X1969D01*
Y202756D01*
X17347D01*
X17581Y202411D01*
G03X20411Y201724I1793J1215D01*
G01X20587Y201820D01*
X32717D01*
X37220Y197317D01*
G02X36110Y194637I-1110J-1110D01*
G01X29057D01*
X27010Y192590D01*
X26876Y192531D01*
G03X26236Y192094I880J-1979D01*
G02X24333Y191863I-1102J1119D01*
G03X24748Y188457I-1105J-1863D01*
G02X26651Y188688I1102J-1119D01*
G03X27475Y188403I1106J1863D01*
G02X28784Y186425I-204J-1557D01*
G03X40647Y185009I5822J-1622D01*
G02X43326Y186172I1569J53D01*
G01X49843Y179656D01*
G02X49115Y177022I-1110J-1110D01*
G03X54233Y173034I1003J-3991D01*
G02X55803Y174606I1570J1D01*
G01X70987D01*
X71265Y174554D01*
X71323Y174533D01*
G03X71269Y178596I724J2042D01*
G01X71133Y178544D01*
X56524D01*
X54039Y181030D01*
G02X55149Y183710I1110J1110D01*
G01X122481D01*
X132922Y173268D01*
Y160765D01*
G03X132501Y160330I1329J-1710D01*
G02X130122Y160144I-1269J924D01*
G01X129139Y161127D01*
X129135Y161446D01*
G03X125227Y162706I-2166J-29D01*
G02X123159Y162292I-1262J934D01*
G03X120501Y158916I-1112J-1859D01*
G02Y157816I-560J-550D01*
G03X123593I1546J-1517D01*
G02Y158916I560J550D01*
G03X123789Y159145I-1546J1517D01*
G02X125857Y159558I1262J-934D01*
G03X126939Y159251I1112J1859D01*
G01X127259Y159247D01*
X129523Y156983D01*
X129527Y156664D01*
G03X129697Y155851I2166J29D01*
G01X129856Y155474D01*
X129382Y154720D01*
X129217Y154623D01*
G03X128605Y154085I1097J-1868D01*
G01X126418D01*
X121103Y148770D01*
X120805D01*
G03Y146111I-1710J-1330D01*
G01X122204D01*
X127519Y151426D01*
X128605D01*
G03X128945Y151078I1710J1329D01*
G01X129071Y150975D01*
X129397Y150346D01*
X128764Y149589D01*
X128533Y149522D01*
G03X130924Y148660I600J-2081D01*
G02X131421Y150893I1298J883D01*
G03X131459Y150917I-1107J1862D01*
G02X133858Y149583I829J-1333D01*
G01Y141644D01*
X127091Y134877D01*
X127008D01*
X122883Y130752D01*
Y123031D01*
X108967D01*
X102913Y129085D01*
X100332D01*
G03X97352Y129511I-1710J-1330D01*
G02X96514Y129458I-460J636D01*
G03X96431Y129502I-1046J-1897D01*
G01X96315Y129559D01*
X95669Y130206D01*
X110778Y145315D01*
Y168565D01*
G03X107329Y170719I-1329J1710D01*
G02X105637Y169478I-1537J321D01*
G03X104093Y165613I-214J-2156D01*
G01Y144359D01*
X90206Y130472D01*
Y125453D01*
X106938Y108721D01*
Y105158D01*
X110867Y101230D01*
X111724D01*
Y100227D01*
X111568Y99966D01*
X111526Y99884D01*
G03X115911Y96658I2451J-1262D01*
G01X116466Y97205D01*
X133316Y80355D01*
Y78314D01*
G02X131941Y76756I-1570J0D01*
G03X130476Y73306I268J-2149D01*
G02Y72363I-628J-471D01*
G03X133941I1732J-1300D01*
G02Y73306I628J471D01*
G03X134244Y73864I-1732J1301D01*
G01Y73865D01*
X134322Y74078D01*
X135067Y74655D01*
X144550D01*
G03Y77314I1710J1330D01*
G01X140705D01*
G02X139152Y78658I0J1570D01*
G03X138337Y80057I-2144J-311D01*
G01Y81063D01*
X138037Y81363D01*
X138439Y82332D01*
X147021D01*
X147256Y82005D01*
G03X148950Y81103I1760J1263D01*
G02X149683Y80526I-24J-785D01*
G03X152259Y78992I2088J576D01*
G02X154182Y77462I353J-1530D01*
G01Y72183D01*
G03X156841I1330J-1710D01*
G01Y78827D01*
G02X159522Y79937I1570J0D01*
G01X160502Y78957D01*
X159869Y78324D01*
X159773Y78271D01*
G03X159497Y74668I1053J-1893D01*
G01Y50551D01*
X153435Y44489D01*
X116187D01*
X116138Y45222D01*
G03X115658Y46444I-2161J-143D01*
G01X115580Y46540D01*
X115381Y47057D01*
X115625Y47620D01*
X115721Y47721D01*
G03X112468Y47848I-1571J1491D01*
G01X112546Y47751D01*
X112745Y47234D01*
X112500Y46670D01*
X112405Y46570D01*
G03X111819Y45276I1571J-1491D01*
G02X110256Y43849I-1564J143D01*
G01X105275D01*
X104335Y44789D01*
X104331Y45108D01*
G03X100203Y45995I-2166J-29D01*
G02X97670Y45549I-1423J664D01*
G01X88534Y54685D01*
Y60440D01*
G02X90044Y62009I1570J0D01*
G03X91290Y65883I-83J2165D01*
G01Y67086D01*
X86181Y72196D01*
X69252D01*
X57106Y84341D01*
X51742D01*
X51443Y84641D01*
X50387D01*
G03X47844Y85311I-1710J-1330D01*
G02X45670Y86760I-604J1449D01*
G01Y87385D01*
X45227Y87828D01*
Y88500D01*
X45450Y88729D01*
G03X46063Y90295I-1552J1511D01*
G02X47633Y91905I1570J40D01*
G01X55039D01*
X58681Y88263D01*
G03X62579Y92162I1949J1949D01*
G01X62339Y92402D01*
G02X62426Y94704I1110J1110D01*
G03X58100Y97891I-1796J2091D01*
G01X57896Y97418D01*
X38362D01*
X35843Y94898D01*
X33850D01*
X30102Y91150D01*
Y85908D01*
G02X27888Y84476I-1570J0D01*
G03X26099Y84470I-888J-1976D01*
G02X24162Y84994I-653J1428D01*
G03X19294Y84286I-2254J-1587D01*
G01X19115Y83751D01*
X13090D01*
Y76269D01*
X19587D01*
Y79146D01*
G02X21430Y80693I1570J0D01*
G03X23475Y81140I478J2715D01*
G02X25583Y80843I893J-1291D01*
G01X25835Y80285D01*
X25360Y79574D01*
X25181Y79481D01*
G03X24581Y76099I1000J-1922D01*
G02X24531Y73930I-1160J-1058D01*
G01X20078Y69476D01*
Y63346D01*
X15767Y59036D01*
G03X19666Y55137I1949J-1949D01*
G01X25591Y61063D01*
Y61796D01*
G02X26770Y62475I785J0D01*
G01X27045Y62316D01*
X27145Y62168D01*
G03X27907Y65292I1792J1218D01*
G02X25591Y66673I-746J1381D01*
G01Y67193D01*
X35615Y77217D01*
G37*
%LPC*%
G75*
G36*
G01X135830Y63425D02*
G03X134887I-471J-628D01*
G02Y66890I-1300J1732D01*
G03X135830I471J628D01*
G02Y63425I1300J-1732D01*
G37*
G36*
G01X38828Y51224D02*
G03X38577Y49141I1034J-1182D01*
G02X33683Y51697I-4916J-3449D01*
G03X35249Y53094I6J1570D01*
G02X38828Y51224I2153J-239D01*
G37*
G36*
G01X27698Y111605D02*
G02X26451Y114094I-2107J501D01*
G01X26940Y113883D01*
X27872Y114815D01*
X25773Y116915D01*
X25497Y116944D01*
G02X28529Y119976I291J2741D01*
G01X28558Y119700D01*
X33099Y115158D01*
X37441D01*
G02X37724Y115400I1928J-1970D01*
G01X38041Y115636D01*
Y118838D01*
G03X36086Y120360I-1570J0D01*
G02X40462Y124722I-1480J5860D01*
G01X40351Y124289D01*
X41222Y123417D01*
X42318Y124513D01*
X42322Y124832D01*
G02X44517Y122637I2166J-29D01*
G01X44198Y122633D01*
X40700Y119134D01*
Y115636D01*
X41016Y115400D01*
G02X37441Y111220I-1646J-2212D01*
G01X31468D01*
X30335Y112352D01*
G03X27698Y111605I-1110J-1110D01*
G37*
G54D26*
X25591Y99508D03*
X46260Y33563D03*
X102165Y51378D03*
X113484Y132677D03*
X132150Y52496D03*
X125984Y140650D03*
X43000Y103500D03*
G54D28*
X89764Y171850D03*
X102953Y68898D03*
X102976Y59055D03*
X119610Y52953D03*
X111417Y86614D03*
G54D24*
X24606Y32700D03*
G54D27*
X50118Y143031D03*
Y153031D03*
Y163031D03*
X60118Y138031D03*
Y148031D03*
Y158031D03*
Y168031D03*
G54D25*
X16339Y99695D03*
%LPD*%
G75*
G54D10*
X8858Y32700D03*
X60000Y200000D03*
X260000Y30000D03*
Y140000D03*
G54D20*
X110000Y10000D03*
X164000Y200000D03*
X200000Y10000D03*
X250000Y200000D03*
G54D11*
X4921Y76614D03*
Y103091D03*
G54D12*
X24606Y32700D03*
X33661Y19708D03*
Y45692D03*
G54D21*
X254035Y97441D03*
Y102441D03*
Y107441D03*
Y112441D03*
Y117441D03*
X259035Y97441D03*
Y102441D03*
Y107441D03*
Y112441D03*
Y117441D03*
G54D22*
G01X39370Y113189D02*
X32283D01*
X25787Y119685D01*
G01X72047Y176575D02*
X55709D01*
X39616Y192668D01*
X29872D01*
X27756Y190551D01*
G54D13*
G01X17717Y57087D02*
X22835Y62205D01*
Y68335D01*
X32858Y78358D01*
Y90009D01*
X34991Y92142D01*
X36984D01*
X39504Y94661D01*
X56181D01*
X60630Y90213D01*
X17717Y57087D03*
X21907Y83407D03*
X39370Y113189D03*
X25787Y119685D03*
X48425Y116142D03*
X73425Y88583D03*
Y83661D03*
X60630Y90213D03*
Y96795D03*
X73425Y103346D03*
Y98425D03*
Y93504D03*
X74409Y78740D03*
X89173D03*
X84252D03*
X79331D03*
X89173Y113189D03*
Y108268D03*
X89764Y171850D03*
X102953Y68898D03*
X102976Y59055D03*
X99016Y78740D03*
X94094D03*
X99016Y113189D03*
X94094D03*
Y108268D03*
X99016D03*
X119610Y52953D03*
X111417Y86614D03*
X113976Y98622D03*
Y108268D03*
X120669Y115354D03*
X107382Y114347D03*
X132480Y106890D03*
X125000D03*
X132480Y118701D03*
X168996Y119685D03*
Y128740D03*
X190453Y119685D03*
Y128740D03*
X207677Y68110D03*
X195866D03*
X219685Y70866D03*
Y82677D03*
X227165Y70866D03*
X239370Y80807D03*
X227165Y82677D03*
X253937Y66142D03*
X242126D03*
X258661Y80807D03*
G54D23*
G01X19374Y203626D02*
X21589D01*
X22065Y203150D01*
X33268D01*
X51378Y185039D01*
X123031D01*
X134252Y173819D01*
Y159055D01*
G01X43500Y73000D02*
Y75215D01*
X44341Y76056D01*
Y86834D01*
X43898Y87277D01*
Y90240D01*
G01X48677Y83311D02*
X50892D01*
X51191Y83012D01*
X56555D01*
X68701Y70866D01*
X85630D01*
X89961Y66535D01*
Y64173D01*
G01X44488Y124803D02*
X39370Y119685D01*
Y113189D01*
G01X151969Y98031D02*
Y96063D01*
X152756Y95276D01*
Y90551D01*
X164961Y78346D01*
Y43701D01*
X156890Y35630D01*
X103740D01*
X85827Y53543D01*
Y64727D01*
X82985Y67569D01*
X75049D01*
X71850Y64370D01*
X66732D01*
G01X122835Y38386D02*
X102953D01*
X87205Y54134D01*
Y65354D01*
X83071Y69488D01*
X68307D01*
X62008Y63189D01*
G01X77953Y63780D02*
Y63976D01*
X80167Y66191D01*
X82414D01*
X84449Y64156D01*
Y52953D01*
X103150Y34252D01*
X157480D01*
X166929Y43701D01*
Y78346D01*
X155118Y90157D01*
Y92913D01*
G01X174409Y76969D02*
X172244D01*
X168307Y73031D01*
Y43110D01*
X158071Y32874D01*
X102362D01*
X81496Y53740D01*
Y63976D01*
G01X160827Y76378D02*
Y50000D01*
X153986Y43159D01*
X116781D01*
X116142Y42520D01*
X104724D01*
X102165Y45079D01*
G01X105423Y167323D02*
Y143809D01*
X91535Y129921D01*
Y126004D01*
X108268Y109272D01*
Y105709D01*
X111418Y102559D01*
X114173D01*
X117913Y98819D01*
Y97638D01*
X134646Y80906D01*
Y77362D01*
X136024Y75984D01*
X146260D01*
G01X109449Y170276D02*
Y145866D01*
X93110Y129528D01*
Y126378D01*
X96260Y123228D01*
X102559D01*
X110236Y115551D01*
Y111417D01*
X109646Y110827D01*
Y106496D01*
X112205Y103937D01*
X114764D01*
X119291Y99409D01*
Y98228D01*
X137008Y80512D01*
Y78346D01*
G01X149016Y83268D02*
X148622Y83661D01*
X135827D01*
X120669Y98819D01*
Y100000D01*
X115354Y105315D01*
X112795D01*
X111024Y107087D01*
Y110236D01*
X111614Y110827D01*
Y116535D01*
X103346Y124803D01*
X98228D01*
X95472Y127559D01*
G01X98622Y127756D02*
X102362D01*
X116929Y113189D01*
Y105709D01*
X122047Y100591D01*
Y99409D01*
X136417Y85039D01*
X146850D01*
X147441Y85630D01*
X150197D01*
X151772Y84055D01*
Y81102D01*
G01X147047Y92520D02*
X136614D01*
X133858Y95276D01*
Y96026D01*
X125898Y103986D01*
X123936D01*
X122195Y105728D01*
Y110384D01*
X126575Y114764D01*
Y129414D01*
X128937Y131776D01*
X129020D01*
X143110Y145866D01*
Y159055D01*
G01X147835Y87992D02*
X139173D01*
X132480Y94685D01*
Y95455D01*
X125327Y102608D01*
X123365D01*
X120817Y105157D01*
Y110974D01*
X124213Y114370D01*
Y130201D01*
X127559Y133548D01*
X127642D01*
X139961Y145866D01*
Y161220D01*
X146260Y167520D01*
Y177362D01*
G01X130315Y152756D02*
X126969D01*
X121654Y147441D01*
X119094D01*
G01X147047Y96949D02*
X148720D01*
X151378Y94291D01*
Y89961D01*
X163583Y77756D01*
Y44291D01*
X156447Y37156D01*
X137844D01*
X136614Y38386D01*
X122835D01*
G01X128740Y105512D02*
X133661Y100591D01*
X137008D01*
X142864Y94734D01*
X148770D01*
X150000Y93504D01*
Y89370D01*
X155512Y83858D01*
Y70472D01*
G01X131693Y156693D02*
X126969Y161417D01*
G01X181035Y77137D02*
X178375D01*
X175787Y79724D01*
X171260D01*
X157480Y93504D01*
Y118898D01*
X151722Y124656D01*
Y136860D01*
X148819Y139764D01*
Y155709D01*
G01X147638Y159055D02*
X148770Y157923D01*
X150148D01*
X153100Y154970D01*
Y126033D01*
X158858Y120276D01*
Y94094D01*
X171850Y81102D01*
X176378D01*
X177493Y79987D01*
X182125D01*
G01X180260Y82604D02*
X172318D01*
X160236Y94685D01*
Y122047D01*
X154478Y127805D01*
Y156152D01*
X147785Y162844D01*
Y173376D01*
X148622Y174213D01*
Y194622D01*
X154000Y200000D01*
G01X182714Y84417D02*
X181107Y86024D01*
X171063D01*
X161614Y95472D01*
Y123228D01*
X155856Y128986D01*
Y158317D01*
X150000Y164173D01*
G01X150984Y189961D02*
X152953D01*
X173179Y169734D01*
Y111171D01*
X172925Y110917D01*
Y105709D01*
G01X184843Y39370D02*
X181299Y42913D01*
X171260D01*
X169882Y41535D01*
Y38189D01*
X164567Y32874D01*
G01X172244Y40551D02*
X175787Y37008D01*
X185827D01*
X186220Y37402D01*
X197835D01*
G01X209843Y95866D02*
X215207Y90502D01*
Y81348D01*
X197638Y63780D01*
X183467D01*
X175199Y72047D01*
X170669D01*
G01X202953Y77362D02*
X192913Y87402D01*
X171654D01*
X165551Y93504D01*
Y97441D01*
G01X211614Y129134D02*
X205512D01*
X172441Y96063D01*
X168701D01*
G01X165688Y103248D02*
X165551D01*
Y97441D01*
G01X180118Y189173D02*
Y185827D01*
X228061Y137884D01*
Y119380D01*
X200020Y91339D01*
X179921D01*
X178937Y92323D01*
X174409D01*
X172244Y90157D01*
G01X165945Y115551D02*
Y121722D01*
X171801Y127578D01*
Y141585D01*
X159055Y154331D01*
G01X172047Y188189D02*
Y183858D01*
X213976Y141929D01*
Y127953D01*
X210236Y124213D01*
X204331D01*
X186417Y106299D01*
Y105331D01*
X181398Y100311D01*
G01X161417Y188583D02*
Y186811D01*
X174803Y173425D01*
Y114370D01*
X175984Y113189D01*
Y105708D01*
X175976D01*
G01X178346Y115945D02*
Y125787D01*
X177165Y126969D01*
Y174803D01*
X166732Y185236D01*
Y187795D01*
G01X230118Y144685D02*
X181299Y193504D01*
X170496D01*
X164000Y200000D01*
G01X197047Y29528D02*
X181693D01*
X179724Y31496D01*
G01X194094Y31890D02*
X184843D01*
G01X188681Y69193D02*
X192717Y65157D01*
X197047D01*
X212992Y81102D01*
Y87205D01*
G01X237205Y137598D02*
Y124213D01*
X216585Y103593D01*
Y77805D01*
X211811Y73031D01*
Y68277D01*
X205936Y62402D01*
X181713D01*
X174518Y69596D01*
G01X217717Y117913D02*
X202165D01*
X190945Y106693D01*
Y103150D01*
X184055Y96260D01*
X177569D01*
X176222Y94912D01*
G01X221063Y118307D02*
Y116339D01*
X215748Y111024D01*
X205906D01*
X188768Y93886D01*
X180540D01*
G01X217579Y121378D02*
X203661D01*
X189567Y107283D01*
Y103740D01*
X183858Y98031D01*
X180118D01*
X179573Y98577D01*
X178887D01*
G01X220000Y200000D02*
Y166614D01*
X234449Y152165D01*
Y123819D01*
X200591Y89961D01*
X176969D01*
G01X218307Y37402D02*
X220472D01*
X248031Y64961D01*
Y79921D01*
X259035Y90925D01*
Y97441D01*
G01X224213Y36811D02*
X237569Y23455D01*
Y22431D01*
X250000Y10000D01*
G01X235630Y60433D02*
X233268Y62795D01*
X230709D01*
G01X230000Y200000D02*
Y179000D01*
X227000Y176000D01*
G54D14*
X16339Y80010D03*
Y99695D03*
G54D15*
X19606Y133268D03*
Y177756D03*
G54D16*
G01X33661Y19708D02*
X44269D01*
X60433Y3543D01*
X173543D01*
X180000Y10000D01*
G01X140000Y16929D02*
X126929D01*
X120000Y10000D01*
G01X140000Y16929D02*
Y16969D01*
X148425Y25394D01*
X202559D01*
X210630Y33465D01*
Y63764D01*
X215157Y68292D01*
Y72244D01*
X220472Y77559D01*
X222047D01*
X227165Y82677D01*
G01X140000Y10000D02*
Y16929D01*
G01X219685Y70866D02*
Y44291D01*
X215157Y39764D01*
Y32087D01*
X204331Y21260D01*
X161260D01*
X150000Y10000D01*
X19374Y203626D03*
X37402Y52854D03*
X28937Y63386D03*
X34646Y62598D03*
X26181Y77559D03*
X27000Y82500D03*
X36500Y88500D03*
X38650Y74650D03*
X25591Y99508D03*
Y112106D03*
X23228Y190000D03*
X27756Y190551D03*
X46260Y33563D03*
X43500Y73000D03*
X48228Y76772D03*
X48677Y83311D03*
X43000Y103500D03*
X43898Y90240D03*
X44488Y124803D03*
X62402Y67224D03*
X66732Y64370D03*
X62008Y63189D03*
X71063Y67224D03*
X58071Y76772D03*
X72047Y176575D03*
X77953Y63780D03*
X81496Y63976D03*
X78346Y83661D03*
X83268D03*
X88189D03*
Y88583D03*
X83268D03*
X78346D03*
Y103346D03*
Y98425D03*
Y93504D03*
X83268D03*
Y98425D03*
Y103346D03*
X88189D03*
Y93504D03*
Y98425D03*
X102165Y51378D03*
Y45079D03*
X89961Y64173D03*
X93110Y83661D03*
X98031D03*
Y88583D03*
X93110D03*
X98031Y103346D03*
Y98425D03*
Y93504D03*
X93110D03*
Y98425D03*
Y103346D03*
X95472Y127559D03*
X98622Y127756D03*
X105423Y167323D03*
X122835Y38386D03*
X119291Y40945D03*
X113976Y45079D03*
X114150Y49213D03*
X112008Y82874D03*
X113484Y132677D03*
X122047Y156299D03*
X119094Y147441D03*
X122047Y160433D03*
X109449Y170276D03*
X132150Y52496D03*
X133587Y65157D03*
X137130D03*
X132209Y71063D03*
Y74606D03*
X137008Y78346D03*
X136220Y96260D03*
X124409Y100394D03*
X128740Y105512D03*
X139567Y116043D03*
X137992Y132677D03*
X129134Y147441D03*
X131693Y156693D03*
X130315Y152756D03*
X125984Y140650D03*
X139665Y165256D03*
X126969Y161417D03*
X134252Y159055D03*
X154429Y39370D03*
X150689D03*
X155512Y70472D03*
X146260Y75984D03*
X149016Y83268D03*
X151772Y81102D03*
X147835Y87992D03*
X151969Y98031D03*
X155118Y92913D03*
X147047Y92520D03*
Y96949D03*
X140945Y108268D03*
Y111811D03*
X149409Y132677D03*
X145866D03*
X141535D03*
X148819Y155709D03*
X143110Y159055D03*
X147638D03*
X150000Y164173D03*
X150984Y189961D03*
X146260Y177362D03*
X171654Y36417D03*
X164567Y32874D03*
X172244Y40551D03*
X170669Y72047D03*
X160827Y76378D03*
X168701Y96063D03*
X165688Y103248D03*
X165551Y97441D03*
X172244Y90157D03*
X172925Y105709D03*
X165945Y115551D03*
X169094Y132677D03*
X161220D03*
X158071D03*
X165551D03*
X168701Y153543D03*
X159055Y154331D03*
X162697Y165256D03*
X168701Y160433D03*
X172047Y188189D03*
X161417Y188583D03*
X166732Y187795D03*
X179724Y31496D03*
X184843Y39370D03*
Y31890D03*
X174606Y51575D03*
X181496Y54724D03*
X188681Y69193D03*
X174518Y69596D03*
X182125Y79987D03*
X181035Y77137D03*
X180260Y82604D03*
X174409Y76969D03*
X182714Y84417D03*
X176222Y94912D03*
X180540Y93886D03*
X178887Y98577D03*
X176969Y89961D03*
X181398Y100311D03*
X175976Y105708D03*
X178346Y115945D03*
X179724Y141732D03*
X180118Y189173D03*
X205906Y34843D03*
X197047Y29528D03*
X194094Y31890D03*
X197835Y37402D03*
X194094Y42717D03*
X192913Y71752D03*
X207185Y88386D03*
X192913Y81791D03*
X205020Y82382D03*
X202953Y77362D03*
X200591Y82874D03*
X195472Y103937D03*
X198500Y97500D03*
X195472Y107480D03*
X218307Y37402D03*
X224213Y36811D03*
X215748Y64567D03*
X212992Y87205D03*
X209843Y95866D03*
X217717Y117913D03*
X221063Y118307D03*
X217579Y121378D03*
X211614Y129134D03*
X230709Y59449D03*
X235630Y60433D03*
X230709Y62795D03*
X237205Y137598D03*
X230118Y144685D03*
X240945Y171457D03*
X227000Y176000D03*
G54D17*
X34606Y126220D03*
Y184803D03*
G54D18*
X50118Y143031D03*
Y153031D03*
Y163031D03*
Y173031D03*
X60118Y138031D03*
Y148031D03*
Y158031D03*
Y168031D03*
G54D19*
X74000Y200000D03*
X84000D03*
X94000D03*
X104000D03*
X120000Y10000D03*
X114000Y200000D03*
X124000D03*
X140000Y10000D03*
X130000D03*
X134000Y200000D03*
X150000Y10000D03*
X144000Y200000D03*
X154000D03*
X170000Y10000D03*
X160000D03*
X180000D03*
Y200000D03*
X190000D03*
X200000D03*
X220000Y10000D03*
X210000D03*
Y200000D03*
X220000D03*
X240000Y10000D03*
X230000D03*
Y200000D03*
X240000D03*
X250000Y10000D03*
M02*
