G04 ================== begin FILE IDENTIFICATION RECORD ==================*
G04 Layout Name:  netduino_plus2_20Dec16.brd*
G04 Film Name:    SMASK_TOP*
G04 File Format:  Gerber RS274X*
G04 File Origin:  Cadence Allegro 16.6-2015-S069*
G04 Origin Date:  Tue Dec 20 08:56:26 2016*
G04 *
G04 Layer:  VIA CLASS/SOLDERMASK_TOP*
G04 Layer:  PIN/SOLDERMASK_TOP*
G04 Layer:  PACKAGE GEOMETRY/SOLDERMASK_TOP*
G04 Layer:  BOARD GEOMETRY/SOLDERMASK_TOP*
G04 *
G04 Offset:    (0.0000 0.0000)*
G04 Mirror:    No*
G04 Mode:      Positive*
G04 Rotation:  0*
G04 FullContactRelief:  No*
G04 UndefLineWidth:     0.1270*
G04 ================== end FILE IDENTIFICATION RECORD ====================*
%FSLAX25Y25*MOIN*%
%IR0*IPPOS*OFA0.00000B0.00000*MIA0B0*SFA1.00000B1.00000*%
%ADD52R,.011811X.047244*%
%ADD53R,.047244X.011811*%
%ADD23R,.023622X.047244*%
%ADD43R,.047244X.023622*%
%ADD30R,.027559X.047244*%
%ADD28R,.03937X.031496*%
%ADD16R,.05315X.015748*%
%ADD46R,.023622X.023622*%
%ADD37R,.065748X.029921*%
%ADD58C,.038189*%
%ADD50R,.017701X.068902*%
%ADD21R,.035402X.039402*%
%ADD15R,.039402X.035402*%
%ADD29R,.03937X.047244*%
%ADD12R,.082677X.043307*%
%ADD25R,.047244X.047244*%
%ADD34R,.041339X.055118*%
%ADD31R,.11811X.062992*%
%ADD27R,.03937X.110236*%
%ADD56R,.059055X.055118*%
%ADD17R,.045276X.055118*%
%ADD11R,.070866X.086614*%
%ADD45R,.129921X.045276*%
%ADD40R,.051181X.074803*%
%ADD49R,.023622X.015748*%
%ADD36R,.045276X.070866*%
%ADD22C,.07874*%
%ADD55R,.070866X.045276*%
%ADD48R,.045276X.057087*%
%ADD47R,.031496X.011811*%
%ADD51R,.074803X.102362*%
%ADD32R,.057087X.045276*%
%ADD18R,.041339X.068898*%
%ADD57R,.09252X.088583*%
%ADD13R,.066929X.052165*%
%ADD39R,.244094X.228346*%
%ADD24R,.023622X.025591*%
%ADD14R,.025591X.023622*%
%ADD54R,.01378X.029528*%
%ADD42R,.029528X.009843*%
%ADD41R,.029528X.01378*%
%ADD10C,.100394*%
%ADD38C,.072835*%
%ADD33R,.037402X.031496*%
%ADD26C,.101181*%
%ADD35C,.062598*%
%ADD19C,.151575*%
%ADD44R,.072835X.072835*%
%ADD20R,.037402X.035402*%
%LPD*%
G75*
G54D10*
X8858Y32700D03*
X24606D03*
X33661Y19708D03*
Y45692D03*
G54D20*
X10827Y198031D03*
Y191732D03*
G54D11*
X6890Y57087D03*
X24606D03*
G54D12*
X5709Y83356D03*
Y96348D03*
G54D21*
X16929Y193898D03*
X23228D03*
X16929Y199803D03*
X23228D03*
X38650Y78500D03*
X32350D03*
Y84500D03*
X38650D03*
X117913Y46260D03*
X135630D03*
X129331D03*
X124213D03*
G54D30*
X50000Y71457D03*
X53740D03*
X58071D03*
X62402D03*
X66732D03*
X71063D03*
X75394D03*
X79724D03*
X84055D03*
G54D13*
X4921Y76614D03*
Y103091D03*
G54D22*
X36417Y7874D03*
X252559Y178346D03*
X263780Y60039D03*
G54D40*
X99409Y12008D03*
G54D31*
X60630Y84504D03*
Y102504D03*
G54D41*
X105906Y51378D03*
Y45079D03*
X110630Y51378D03*
Y45079D03*
X132799Y96260D03*
X128075D03*
X132799Y102559D03*
X128075D03*
X180906Y34252D03*
X176181D03*
X180906Y40551D03*
X176181D03*
X212992Y73622D03*
X208268D03*
X212992Y79921D03*
X208268D03*
G54D14*
X16732Y69685D03*
Y66142D03*
X25591Y85827D03*
Y89370D03*
X26772Y73819D03*
X30315D03*
X25591Y105512D03*
Y96457D03*
Y92913D03*
Y109055D03*
X54921Y76772D03*
X51378D03*
X64961D03*
X68504D03*
X116732Y132677D03*
X120276D03*
X118898Y155512D03*
X115354D03*
X133587Y62008D03*
X137130D03*
X137992Y135827D03*
X147441Y39370D03*
X143898D03*
X149409Y135827D03*
X145866D03*
X141535D03*
X157677Y39370D03*
X161220D03*
X163386Y121260D03*
Y124803D03*
X169094Y135827D03*
X165551D03*
X161220D03*
X157677D03*
X174606Y54724D03*
X178150D03*
X174606Y58661D03*
X178150D03*
X210827Y37402D03*
X214370D03*
G54D32*
X49693Y98504D03*
Y91417D03*
G54D50*
X139665Y142323D03*
X137106D03*
X134547D03*
X131988D03*
Y170669D03*
X134547D03*
X137106D03*
X139665D03*
X155020Y142323D03*
X152461D03*
X149902D03*
X147343D03*
X144783D03*
X142224D03*
Y170669D03*
X144783D03*
X147343D03*
X149902D03*
X152461D03*
X155020D03*
X165256Y142323D03*
X162697D03*
X160138D03*
X157579D03*
Y170669D03*
X160138D03*
X162697D03*
X165256D03*
G54D23*
X37402Y57087D03*
X33661D03*
Y66929D03*
X41142Y57087D03*
Y66929D03*
G54D33*
X48425Y104528D03*
X40551Y108268D03*
X48425Y112008D03*
G54D42*
X105906Y47244D03*
Y49213D03*
X110630D03*
Y47244D03*
X132799Y100394D03*
Y98425D03*
X128075D03*
Y100394D03*
X180906Y38386D03*
Y36417D03*
X176181D03*
Y38386D03*
X212992Y77756D03*
Y75787D03*
X208268D03*
Y77756D03*
G54D24*
X26575Y66142D03*
Y69685D03*
X27756Y199803D03*
X31299D03*
X36614D03*
X27756Y193898D03*
X31299D03*
X36614D03*
X40157Y199803D03*
Y193898D03*
X105512Y76772D03*
X113386D03*
X116929D03*
X109055D03*
X120079Y137795D03*
X116535D03*
X120079Y127953D03*
X116535D03*
X118898Y150591D03*
X115354D03*
X118898Y165354D03*
X115354D03*
X135358Y71063D03*
Y74606D03*
X137795Y108268D03*
Y111811D03*
X125984Y147441D03*
Y143898D03*
X137598Y178150D03*
X134055D03*
X156693Y58858D03*
X160236D03*
X192913Y75000D03*
Y78543D03*
X192323Y103937D03*
Y107480D03*
G54D51*
X144094Y49016D03*
X161024D03*
G54D15*
X22000Y72150D03*
Y65850D03*
X44000Y78350D03*
Y84650D03*
X227362Y164173D03*
Y170472D03*
G54D34*
X56890Y112205D03*
X64370D03*
G54D25*
X37713Y93866D03*
Y102134D03*
X235630Y171457D03*
Y163189D03*
G54D16*
X16437Y84734D03*
Y87293D03*
Y89852D03*
Y92411D03*
Y94970D03*
G54D43*
X107283Y82874D03*
Y90354D03*
X116339Y86614D03*
Y82874D03*
Y90354D03*
G54D52*
X155512Y64961D03*
X153543D03*
X151575D03*
X149606D03*
Y110236D03*
X151575D03*
X153543D03*
X155512D03*
X173228Y64961D03*
X171260D03*
X169291D03*
X167323D03*
X165354D03*
X163386D03*
X161417D03*
X159449D03*
X157480D03*
Y110236D03*
X159449D03*
X161417D03*
X163386D03*
X165354D03*
X167323D03*
X169291D03*
X171260D03*
X173228D03*
X179134Y64961D03*
X177165D03*
X175197D03*
Y110236D03*
X177165D03*
X179134D03*
G54D44*
X110000Y10000D03*
X164000Y200000D03*
X200000Y10000D03*
X250000Y200000D03*
G54D35*
X50118Y143031D03*
Y153031D03*
Y163031D03*
Y173031D03*
X60118Y138031D03*
Y148031D03*
Y158031D03*
Y168031D03*
G54D26*
X34606Y126220D03*
Y184803D03*
G54D17*
X16339Y80010D03*
Y99695D03*
G54D53*
X141732Y72835D03*
Y74803D03*
Y76772D03*
Y78740D03*
Y80709D03*
Y82677D03*
Y84646D03*
Y86614D03*
Y88583D03*
Y90551D03*
Y92520D03*
Y94488D03*
Y96457D03*
Y98425D03*
Y100394D03*
Y102362D03*
X187008Y88583D03*
Y86614D03*
Y84646D03*
Y82677D03*
Y80709D03*
Y78740D03*
Y76772D03*
Y74803D03*
Y72835D03*
Y102362D03*
Y100394D03*
Y98425D03*
Y96457D03*
Y94488D03*
Y92520D03*
Y90551D03*
G54D54*
X155217Y115748D03*
Y120472D03*
X157776Y115748D03*
Y120472D03*
G54D18*
X18898Y119685D03*
X7087D03*
G54D36*
X71457Y112205D03*
X83268D03*
X89764Y177953D03*
X77953D03*
X107799Y68898D03*
Y59055D03*
X107087Y98622D03*
Y108268D03*
X119610Y68898D03*
Y59055D03*
X118898Y98622D03*
Y108268D03*
X173819Y119685D03*
Y128740D03*
X185630Y119685D03*
Y128740D03*
X207677Y62008D03*
X195866D03*
X242126Y60039D03*
X253937D03*
G54D45*
X128469Y81398D03*
Y89862D03*
G54D27*
X46260Y13780D03*
G54D19*
X19606Y133268D03*
Y177756D03*
G54D55*
X174213Y153543D03*
Y141732D03*
Y160433D03*
Y172244D03*
G54D37*
X74744Y127382D03*
Y132382D03*
Y137382D03*
Y142382D03*
Y147382D03*
Y152382D03*
Y157382D03*
Y162382D03*
X108327Y137382D03*
Y132382D03*
Y127382D03*
Y157382D03*
Y152382D03*
Y147382D03*
Y142382D03*
Y162382D03*
G54D46*
X115354Y160433D03*
X118898D03*
G54D28*
X46260Y30118D03*
G54D38*
X74000Y200000D03*
X84000D03*
X94000D03*
X104000D03*
X120000Y10000D03*
X114000Y200000D03*
X124000D03*
X140000Y10000D03*
X130000D03*
X134000Y200000D03*
X150000Y10000D03*
X144000Y200000D03*
X154000D03*
X170000Y10000D03*
X160000D03*
X180000D03*
Y200000D03*
X190000D03*
X200000D03*
X220000Y10000D03*
X210000D03*
Y200000D03*
X220000D03*
X240000Y10000D03*
X230000D03*
Y200000D03*
X240000D03*
X250000Y10000D03*
G54D47*
X132150Y55500D03*
X125850Y53531D03*
Y57469D03*
G54D56*
X203720Y100842D03*
Y112653D03*
X230886Y100842D03*
Y112653D03*
G54D29*
X46260Y54528D03*
X90157Y71457D03*
G54D39*
X88898Y93504D03*
G54D57*
X239370Y73819D03*
X258661D03*
G54D48*
X139567Y120866D03*
X146654D03*
X202953Y88386D03*
X195866D03*
G54D49*
X132480Y115354D03*
Y112795D03*
Y110236D03*
X125000D03*
Y112795D03*
Y115354D03*
X201575Y37402D03*
Y34843D03*
X194094D03*
Y37402D03*
X201575Y39961D03*
X194094D03*
X219685Y59449D03*
Y62008D03*
Y64567D03*
Y74213D03*
Y76772D03*
Y79331D03*
X227165Y64567D03*
Y62008D03*
Y59449D03*
Y79331D03*
Y76772D03*
Y74213D03*
G54D58*
X254035Y97441D03*
Y102441D03*
Y107441D03*
Y112441D03*
Y117441D03*
X259035Y97441D03*
Y102441D03*
Y107441D03*
Y112441D03*
Y117441D03*
M02*
