G04 ================== begin FILE IDENTIFICATION RECORD ==================*
G04 Layout Name:  Netduino3Ethernet_17Dec16.brd*
G04 Film Name:    ASM_TOP*
G04 File Format:  Gerber RS274X*
G04 File Origin:  Cadence Allegro 16.6-2015-S069*
G04 Origin Date:  Sat Dec 17 09:35:35 2016*
G04 *
G04 Layer:  REF DES/ASSEMBLY_TOP*
G04 Layer:  PACKAGE GEOMETRY/ASSEMBLY_TOP*
G04 Layer:  BOARD GEOMETRY/OUTLINE*
G04 *
G04 Offset:    (0.0000 0.0000)*
G04 Mirror:    No*
G04 Mode:      Positive*
G04 Rotation:  0*
G04 FullContactRelief:  No*
G04 UndefLineWidth:     0.1270*
G04 ================== end FILE IDENTIFICATION RECORD ====================*
%FSLAX25Y25*MOIN*%
%IR0*IPPOS*OFA0.00000B0.00000*MIA0B0*SFA1.00000B1.00000*%
%ADD10C,.003937*%
%ADD11C,.004*%
%ADD12C,.003543*%
%ADD13C,.001*%
G75*
%LPD*%
G75*
G54D10*
G01X-6890Y18920D02*
Y46480D01*
X38386D01*
Y18920D01*
X-6890D01*
G01X-9882Y184213D02*
Y126811D01*
X69646D01*
Y184213D01*
X-9882D01*
G01X26142Y62795D02*
X5354D01*
Y51378D01*
X26142D01*
Y62795D01*
G01X16929Y104813D02*
Y74892D01*
X-2756D01*
Y104813D01*
X16929D01*
G01X-2756D02*
X-5118Y105600D01*
Y74104D01*
X-2756Y74892D01*
G01X0Y104813D02*
Y74892D01*
G01Y184213D02*
Y167913D01*
X33937D01*
G02X37874Y163976I0J-3937D01*
G01Y147047D01*
G02X33937Y143110I-3937J0D01*
G01X0D01*
Y126811D01*
G01X10630Y193504D02*
G03I-394J0D01*
G01X9252Y197638D02*
X12402D01*
G01X9252Y198031D02*
X12402D01*
G01X9252Y198425D02*
X12402D01*
G01Y192520D02*
Y198819D01*
X9252D01*
Y192520D01*
X12402D01*
G01X22992Y62795D02*
Y51378D01*
G01X23386Y62795D02*
Y51378D01*
G01X23780Y62795D02*
Y51378D01*
G01X24173Y62795D02*
Y51378D01*
G01X24567Y62795D02*
Y51378D01*
G01X24961Y62795D02*
Y51378D01*
G01X25354Y62795D02*
Y51378D01*
G01X25748Y62795D02*
Y51378D01*
G01X29134Y73425D02*
X22047D01*
Y70276D01*
X29134D01*
Y73425D01*
G01X28740Y69488D02*
X22441D01*
Y66339D01*
X28740D01*
Y69488D01*
G01X30709Y87795D02*
X24803D01*
Y92126D01*
X30709D01*
Y87795D01*
G01X25197D02*
X24803Y88189D01*
G01X25591Y87795D02*
X24803Y88583D01*
G01X25984Y87795D02*
X24803Y88976D01*
G01X26378Y87795D02*
X24803Y89370D01*
G01Y89764D02*
X26772Y87795D01*
G01X23760Y96949D02*
Y110138D01*
X30571D01*
Y96949D01*
X23760D01*
G01X12992Y117126D02*
X15354Y119488D01*
G01X12992Y117520D02*
X14961Y119488D01*
G01X12992Y117913D02*
X14567Y119488D01*
G01X12992Y118307D02*
X14173Y119488D01*
G01X12992Y118701D02*
X13780Y119488D01*
G01X12992Y119094D02*
X13386Y119488D01*
G01X12992Y107677D02*
X18504D01*
Y119488D01*
X12992D01*
Y107677D01*
G01X26575Y115945D02*
Y122244D01*
X23425D01*
Y115945D01*
X26575D01*
G01X25591Y192783D02*
X19685D01*
Y190028D01*
X25591D01*
G01Y206169D02*
X43307D01*
Y188453D01*
X25591D01*
Y206169D01*
G01Y204594D02*
X19685D01*
Y201839D01*
X25591D01*
G01X36903Y5709D02*
Y8071D01*
X37900D01*
G01X37533Y6929D02*
X36903D01*
G01X38871Y7677D02*
X39029Y7913D01*
X39213Y8031D01*
X39422Y8071D01*
X39685Y7992D01*
X39869Y7795D01*
X39921Y7559D01*
X39895Y7323D01*
X39790Y7126D01*
X39265Y6732D01*
X39029Y6457D01*
X38871Y6063D01*
X38819Y5709D01*
X39921D01*
G01X40354Y6890D02*
G03I-1969J0D01*
G01X32441Y74709D02*
Y63291D01*
X37559D01*
Y74709D01*
X32441D01*
G01X44685Y81693D02*
X30512D01*
Y75787D01*
X44685D01*
Y81693D01*
G01X38976Y104528D02*
X42913D01*
Y112402D01*
X38976D01*
Y104528D01*
G01X33661Y116535D02*
X38780D01*
Y124409D01*
X33661D01*
Y116535D01*
G01X41339Y112402D02*
X38976Y110039D01*
G01X40945Y112402D02*
X38976Y110433D01*
G01X40551Y112402D02*
X38976Y110827D01*
G01X40157Y112402D02*
X38976Y111220D01*
G01X39764Y112402D02*
X38976Y111614D01*
G01X39370Y112402D02*
X38976Y112008D01*
G01X33661Y122244D02*
X35827Y124409D01*
G01X33661Y122638D02*
X35433Y124409D01*
G01X33661Y123031D02*
X35039Y124409D01*
G01X33661Y123425D02*
X34646Y124409D01*
G01X34252D02*
X33661Y123819D01*
G01X45866Y71850D02*
X100394D01*
Y8268D01*
X45866D01*
Y71850D01*
G01X54921Y82874D02*
Y95866D01*
X47835D01*
Y82874D01*
X54921D01*
G01X42323Y81693D02*
Y75787D01*
G01X42717Y81693D02*
Y75787D01*
G01X43110Y81693D02*
Y75787D01*
G01X43504Y81693D02*
Y75787D01*
G01X43898Y81693D02*
Y75787D01*
G01X44291Y81693D02*
Y75787D01*
G01X43110Y125197D02*
Y118110D01*
X46260D01*
Y125197D01*
X43110D01*
G01X47835Y121850D02*
Y115945D01*
X60433D01*
Y121850D01*
X47835D01*
G01X43307Y190028D02*
X49213D01*
Y192783D01*
X43307D01*
G01X66299Y200000D02*
G03I-6299J0D01*
G01X43307Y201839D02*
X49213D01*
Y204594D01*
X43307D01*
G01X102165Y76575D02*
X73622D01*
Y102165D01*
X102165D01*
Y76575D01*
G01X80118Y110039D02*
Y123031D01*
X73031D01*
Y110039D01*
X80118D01*
G01X69882Y109843D02*
Y123228D01*
X62795D01*
Y109843D01*
X69882D01*
G01X169000Y195000D02*
X69000D01*
Y205000D01*
X169000D01*
Y195000D01*
G01X84252Y113583D02*
Y119882D01*
X81102D01*
Y113583D01*
X84252D01*
G01X75787Y125787D02*
X105315D01*
Y176969D01*
X75787D01*
Y125787D01*
G01X76181Y179134D02*
X78543Y181496D01*
G01X76575Y179134D02*
X78543Y181102D01*
G01X76969Y179134D02*
X78543Y180709D01*
G01X77362Y179134D02*
X78543Y180315D01*
G01X77756Y179134D02*
X78543Y179921D01*
G01X78150Y179134D02*
X78543Y179528D01*
G01Y183071D02*
X74606D01*
Y179134D01*
X78543D01*
Y183071D01*
G01X81693Y173031D02*
G02I-1969J0D01*
G01X105000Y15000D02*
X185000D01*
Y5000D01*
X105000D01*
Y15000D01*
G01X104921Y63386D02*
Y70472D01*
X101772D01*
Y63386D01*
X104921D01*
G01X94094Y110827D02*
X100000D01*
Y123425D01*
X94094D01*
Y110827D01*
G01X109646Y59055D02*
X107283Y56693D01*
G01X109252Y59055D02*
X107283Y57087D01*
G01X108858Y59055D02*
X107283Y57480D01*
G01X108465Y59055D02*
X107283Y57874D01*
G01Y51181D02*
X111220D01*
Y59055D01*
X107283D01*
Y51181D01*
G01X118504Y59843D02*
Y46457D01*
X125591D01*
Y59843D01*
X118504D01*
G01X108071Y59055D02*
X107283Y58268D01*
G01X107677Y59055D02*
X107283Y58661D01*
G01X109646Y64469D02*
X107283Y66831D01*
G01X109252Y64469D02*
X107283Y66437D01*
G01X108858Y64469D02*
X107283Y66043D01*
G01X108465Y64469D02*
X107283Y65650D01*
G01X108071Y64469D02*
X107283Y65256D01*
G01X107677Y64469D02*
X107283Y64862D01*
G01X115157Y64469D02*
Y69390D01*
X107283D01*
Y64469D01*
X115157D01*
G01X123031Y88386D02*
X111220D01*
G01X123031Y87992D02*
X111220D01*
G01X123031Y87598D02*
X111220D01*
G01X123031Y87205D02*
X111220D01*
G01X123031Y86811D02*
X111220D01*
G01X123031Y86417D02*
X111220D01*
G01X123031Y86024D02*
X111220D01*
G01X123031Y85630D02*
X111220D01*
G01X123031Y85236D02*
Y99803D01*
X111220D01*
Y85236D01*
X123031D01*
G01X118504Y79724D02*
X116142Y77362D01*
G01X118110Y79724D02*
X116142Y77756D01*
G01X117717Y79724D02*
X116142Y78150D01*
G01X117323Y79724D02*
X116142Y78543D01*
G01X116929Y79724D02*
X116142Y78937D01*
G01X116535Y79724D02*
X116142Y79331D01*
G01Y75787D02*
X120079D01*
Y79724D01*
X116142D01*
Y75787D01*
G01X127559Y118307D02*
X114567D01*
Y111220D01*
X127559D01*
Y118307D01*
G01X114567Y119094D02*
X125984D01*
Y124213D01*
X114567D01*
Y119094D01*
G01X116142Y125000D02*
Y131299D01*
X113386D01*
Y125000D01*
X116142D01*
G01X123228Y150787D02*
Y163780D01*
X116142D01*
Y150787D01*
X123228D01*
G01X117126Y165157D02*
Y171063D01*
X121457D01*
Y165157D01*
X117126D01*
G01X119094Y171063D02*
X117126Y169094D01*
G01Y170669D02*
X117520Y171063D01*
G01X117126Y170276D02*
X117913Y171063D01*
G01X117126Y169882D02*
X118307Y171063D01*
G01X117126Y169488D02*
X118701Y171063D01*
G01X117520Y173425D02*
Y180512D01*
X114370D01*
Y173425D01*
X117520D01*
G01X121063D02*
Y180512D01*
X117913D01*
Y173425D01*
X121063D01*
G01X143110Y50591D02*
X130118D01*
Y43504D01*
X143110D01*
Y50591D01*
G01X131594Y51969D02*
X138484D01*
Y63780D01*
X131594D01*
Y51969D01*
G01X135630Y66732D02*
Y80512D01*
G01X135236Y66732D02*
Y80512D01*
G01X134843Y66732D02*
Y80512D01*
G01X134449Y66732D02*
Y80512D01*
G01X134055Y66732D02*
Y80512D01*
G01X133661Y66732D02*
Y80512D01*
G01X133268Y66732D02*
Y80512D01*
G01X132874Y66732D02*
Y80512D01*
G01X132480Y66732D02*
X157283D01*
Y80512D01*
X132480D01*
Y66732D01*
G01X131594Y61417D02*
X133957Y63780D01*
G01X131594Y61811D02*
X133563Y63780D01*
G01X131594Y62205D02*
X133169Y63780D01*
G01X131594Y62598D02*
X132776Y63780D01*
G01X131594Y62992D02*
X132382Y63780D01*
G01X131594Y63386D02*
X131988Y63780D01*
G01X131078Y101130D02*
X128716Y98768D01*
G01X130685Y101130D02*
X128716Y99161D01*
G01X130291Y101130D02*
X128716Y99555D01*
G01X129897Y101130D02*
X128716Y99949D01*
G01X129504Y101130D02*
X128716Y100343D01*
G01X129110Y101130D02*
X128716Y100736D01*
G01Y93256D02*
X132653D01*
Y101130D01*
X128716D01*
Y93256D01*
G01X134646Y121850D02*
X162205D01*
Y149409D01*
X134646D01*
Y121850D01*
G01X140551Y145472D02*
G03I-1969J0D01*
G01X126969Y175394D02*
Y168307D01*
X130118D01*
Y175394D01*
X126969D01*
G01X131496Y163976D02*
X155118D01*
Y177756D01*
X131496D01*
Y163976D01*
G01X137992Y156299D02*
Y162598D01*
X134843D01*
Y156299D01*
X137992D01*
G01X125984Y173031D02*
Y179331D01*
X123228D01*
Y173031D01*
X125984D01*
G01X127559Y179134D02*
X138976D01*
Y184252D01*
X127559D01*
Y179134D01*
G01X145472Y62795D02*
Y50984D01*
X157283D01*
Y62795D01*
X145472D01*
G01X144685Y91732D02*
X142323Y89370D01*
G01X144291Y91732D02*
X142323Y89764D01*
G01Y83858D02*
X146260D01*
Y91732D01*
X142323D01*
Y83858D01*
G01X143898Y91732D02*
X142323Y90157D01*
G01X143504Y91732D02*
X142323Y90551D01*
G01X143110Y91732D02*
X142323Y90945D01*
G01X142717Y91732D02*
X142323Y91339D01*
G01X142200Y100343D02*
X144563Y102705D01*
G01X142200Y100736D02*
X144169Y102705D01*
G01X142200Y101130D02*
X143775Y102705D01*
G01X142200Y101524D02*
X143381Y102705D01*
G01X142200Y101917D02*
X142988Y102705D01*
G01X142200Y102311D02*
X142594Y102705D01*
G01X142200Y94831D02*
X147122D01*
Y102705D01*
X142200D01*
Y94831D01*
G01X145079Y161024D02*
X138780D01*
Y157874D01*
X145079D01*
Y161024D01*
G01X157972Y38386D02*
X162894D01*
Y46260D01*
X157972D01*
Y38386D01*
G01Y43898D02*
X160335Y46260D01*
G01X157972Y44291D02*
X159941Y46260D01*
G01X157972Y44685D02*
X159547Y46260D01*
G01X157972Y45079D02*
X159154Y46260D01*
G01X157972Y45472D02*
X158760Y46260D01*
G01X157972Y45866D02*
X158366Y46260D01*
G01X164961Y52756D02*
Y59843D01*
X161811D01*
Y52756D01*
X164961D01*
G01X160409Y91681D02*
X158047Y89319D01*
G01X160015Y91681D02*
X158047Y89713D01*
G01Y87744D02*
X161984D01*
Y91681D01*
X158047D01*
Y87744D01*
G01X159622Y91681D02*
X158047Y90106D01*
G01X159228Y91681D02*
X158047Y90500D01*
G01X158834Y91681D02*
X158047Y90894D01*
G01X158441Y91681D02*
X158047Y91287D01*
G01X175197Y115354D02*
X168110D01*
Y112205D01*
X175197D01*
Y115354D01*
G01X156496Y175394D02*
Y168307D01*
X159646D01*
Y175394D01*
X156496D01*
G01X169291Y165945D02*
X162205D01*
Y162795D01*
X169291D01*
Y165945D01*
G01X173425Y162008D02*
X162008D01*
Y156890D01*
X173425D01*
Y162008D01*
G01X173622Y43307D02*
X171260Y40945D01*
G01X173228Y43307D02*
X171260Y41339D01*
G01X172835Y43307D02*
X171260Y41732D01*
G01Y35433D02*
X175197D01*
Y43307D01*
X171260D01*
Y35433D01*
G01X185630Y31496D02*
Y38583D01*
X182480D01*
Y31496D01*
X185630D01*
G01X172441Y43307D02*
X171260Y42126D01*
G01X172047Y43307D02*
X171260Y42520D01*
G01X171654Y43307D02*
X171260Y42913D01*
G01X179260Y56422D02*
G03I-1969J0D01*
G01X227488Y51501D02*
Y106619D01*
X172370D01*
Y51501D01*
X227488D01*
G01X187008Y117126D02*
X184646Y119488D01*
G01X187008Y117520D02*
X185039Y119488D01*
G01X183071D02*
Y115551D01*
X187008D01*
Y119488D01*
X183071D01*
G01X180906Y119094D02*
X173819D01*
Y115945D01*
X180906D01*
Y119094D01*
G01X170276Y169488D02*
Y163189D01*
X173031D01*
Y169488D01*
X170276D01*
G01X255000Y195000D02*
X175000D01*
Y205000D01*
X255000D01*
Y195000D01*
G01X195000Y15000D02*
X255000D01*
Y5000D01*
X195000D01*
Y15000D01*
G01X210756Y40674D02*
X187134D01*
Y26894D01*
X210756D01*
Y40674D01*
G01X196583Y45202D02*
X189496D01*
Y42052D01*
X196583D01*
Y45202D01*
G01X205512Y45276D02*
X199213D01*
Y42126D01*
X205512D01*
Y45276D01*
G01X187008Y117913D02*
X185433Y119488D01*
G01X187008Y118307D02*
X185827Y119488D01*
G01X187008Y118701D02*
X186220Y119488D01*
G01X187008Y119094D02*
X186614Y119488D01*
G01X191634Y118701D02*
X196555D01*
Y126575D01*
X191634D01*
Y118701D01*
G01Y124213D02*
X193996Y126575D01*
G01X191634Y124606D02*
X193602Y126575D01*
G01X191634Y125000D02*
X193209Y126575D01*
G01X191634Y125394D02*
X192815Y126575D01*
G01X191634Y125787D02*
X192421Y126575D01*
G01X191634Y126181D02*
X192028Y126575D01*
G01X215354Y31496D02*
Y38583D01*
X212205D01*
Y31496D01*
X215354D01*
G01X204724Y118898D02*
X208661D01*
Y126772D01*
X204724D01*
Y118898D01*
G01X207087Y126772D02*
X204724Y124409D01*
G01X206693Y126772D02*
X204724Y124803D01*
G01X206299Y126772D02*
X204724Y125197D01*
G01X205906Y126772D02*
X204724Y125591D01*
G01X205512Y126772D02*
X204724Y125984D01*
G01X205118Y126772D02*
X204724Y126378D01*
G01X225787Y41732D02*
Y35433D01*
X228543D01*
Y41732D01*
X225787D01*
G01X230512Y35689D02*
X234449D01*
Y41083D01*
X230512D01*
Y35689D01*
G01X225591Y42323D02*
X232677D01*
Y45472D01*
X225591D01*
Y42323D01*
G01X246102Y175197D02*
X231929D01*
Y169291D01*
X246102D01*
Y175197D01*
G01X249409Y52657D02*
X247047Y55020D01*
G01X249016Y52657D02*
X247047Y54626D01*
G01X248622Y52657D02*
X247047Y54232D01*
G01X248228Y52657D02*
X247047Y53839D01*
G01X247835Y52657D02*
X247047Y53445D01*
G01X247441Y52657D02*
X247047Y53051D01*
G01X254921Y52657D02*
Y57579D01*
X247047D01*
Y52657D01*
X254921D01*
G01X237598Y63583D02*
Y50591D01*
X244685D01*
Y63583D01*
X237598D01*
G01X233661Y61614D02*
Y54528D01*
X236811D01*
Y61614D01*
X233661D01*
G01X236024Y74016D02*
X238386Y71654D01*
G01X236024Y73622D02*
X237992Y71654D01*
G01X236024Y73228D02*
X237598Y71654D01*
G01X236024Y72835D02*
X237205Y71654D01*
G01X236024Y72441D02*
X236811Y71654D01*
G01X236024Y72047D02*
X236417Y71654D01*
G01X243898D02*
Y75591D01*
X236024D01*
Y71654D01*
X243898D01*
G01X249409Y68406D02*
X247047Y70768D01*
G01X249016Y68406D02*
X247047Y70374D01*
G01X248622Y68406D02*
X247047Y69980D01*
G01X248228Y68406D02*
X247047Y69587D01*
G01X247835Y68406D02*
X247047Y69193D01*
G01X247441Y68406D02*
X247047Y68799D01*
G01X254921Y68406D02*
Y73327D01*
X247047D01*
Y68406D01*
X254921D01*
G01X236024Y89764D02*
X238386Y87402D01*
G01X236024Y89370D02*
X237992Y87402D01*
G01X236024Y88976D02*
X237598Y87402D01*
G01X236024Y88583D02*
X237205Y87402D01*
G01X236024Y88189D02*
X236811Y87402D01*
G01X236024Y87795D02*
X236417Y87402D01*
G01X243898D02*
Y91339D01*
X236024D01*
Y87402D01*
X243898D01*
G01X249409Y84154D02*
X247047Y86516D01*
G01X249016Y84154D02*
X247047Y86122D01*
G01X248622Y84154D02*
X247047Y85728D01*
G01X248228Y84154D02*
X247047Y85335D01*
G01X247835Y84154D02*
X247047Y84941D01*
G01X247441Y84154D02*
X247047Y84547D01*
G01X254921Y84154D02*
Y89075D01*
X247047D01*
Y84154D01*
X254921D01*
G01X265551Y124803D02*
Y94803D01*
X245551D01*
Y124803D01*
X265551D01*
G01X241535Y99409D02*
Y106496D01*
X238386D01*
Y99409D01*
X241535D01*
G01X237008Y103543D02*
Y110630D01*
X233858D01*
Y103543D01*
X237008D01*
G01X243740Y175197D02*
Y169291D01*
G01X244134Y175197D02*
Y169291D01*
G01X244528Y175197D02*
Y169291D01*
G01X244921Y175197D02*
Y169291D01*
G01X245315Y175197D02*
Y169291D01*
G01X245709Y175197D02*
Y169291D01*
G01X259344Y5709D02*
Y8071D01*
X260341D01*
G01X259974Y6929D02*
X259344D01*
G01X261233Y6181D02*
X261391Y5906D01*
X261601Y5748D01*
X261837Y5709D01*
X262047Y5748D01*
X262257Y5945D01*
X262389Y6181D01*
X262415Y6417D01*
X262362Y6693D01*
X262178Y6890D01*
X261995Y6969D01*
X261759D01*
G01X261995D02*
X262152Y7087D01*
X262283Y7283D01*
X262336Y7520D01*
X262283Y7756D01*
X262152Y7953D01*
X261916Y8071D01*
X261680Y8031D01*
X261444Y7874D01*
G01X262795Y6890D02*
G03I-1969J0D01*
G01X266299Y30000D02*
G03I-6299J0D01*
G01X261220Y52657D02*
X258858Y55020D01*
G01X260827Y52657D02*
X258858Y54626D01*
G01X260433Y52657D02*
X258858Y54232D01*
G01X260039Y52657D02*
X258858Y53839D01*
G01X259646Y52657D02*
X258858Y53445D01*
G01X259252Y52657D02*
X258858Y53051D01*
G01X266732Y52657D02*
Y57579D01*
X258858D01*
Y52657D01*
X266732D01*
G01X261220Y68406D02*
X258858Y70768D01*
G01X260827Y68406D02*
X258858Y70374D01*
G01X260433Y68406D02*
X258858Y69980D01*
G01X260039Y68406D02*
X258858Y69587D01*
G01X259646Y68406D02*
X258858Y69193D01*
G01X259252Y68406D02*
X258858Y68799D01*
G01X266732Y68406D02*
Y73327D01*
X258858D01*
Y68406D01*
X266732D01*
G01X261220Y84154D02*
X258858Y86516D01*
G01X260827Y84154D02*
X258858Y86122D01*
G01X260433Y84154D02*
X258858Y85728D01*
G01X260039Y84154D02*
X258858Y85335D01*
G01X259646Y84154D02*
X258858Y84941D01*
G01X259252Y84154D02*
X258858Y84547D01*
G01X266732Y84154D02*
Y89075D01*
X258858D01*
Y84154D01*
X266732D01*
G01X266299Y140000D02*
G03I-6299J0D01*
G01X259344Y201575D02*
Y203937D01*
X260341D01*
G01X259974Y202795D02*
X259344D01*
G01X262126Y201575D02*
Y203937D01*
X261155Y202244D01*
X262467D01*
G01X262795Y202756D02*
G03I-1969J0D01*
G01X288189Y7480D02*
Y12598D01*
G01X287795Y7480D02*
Y12598D01*
G01X287402Y7480D02*
Y12598D01*
G01X287008Y7480D02*
Y12598D01*
G01X286614Y7480D02*
Y12598D01*
G01X286220Y7480D02*
Y12598D01*
G01X285827Y7480D02*
X296850D01*
Y12598D01*
X285827D01*
Y7480D01*
G01X281496Y44449D02*
X284252D01*
Y61673D01*
X298425D01*
Y17776D01*
X284252D01*
Y35000D01*
X281496D01*
G01Y14724D02*
X301181D01*
Y64724D01*
X281496D01*
Y14724D01*
G01X281988Y49567D02*
X283465Y50551D01*
Y48583D01*
X281988Y49567D01*
G01X288189Y72835D02*
Y77953D01*
G01X287795Y72835D02*
Y77953D01*
G01X287402Y72835D02*
Y77953D01*
G01X287008Y72835D02*
Y77953D01*
G01X286614Y72835D02*
Y77953D01*
G01X286220Y72835D02*
Y77953D01*
G01X285827Y72835D02*
X296850D01*
Y77953D01*
X285827D01*
Y72835D01*
G01X281496Y109724D02*
X284252D01*
Y126949D01*
X298425D01*
Y83051D01*
X284252D01*
Y100276D01*
X281496D01*
G01Y80000D02*
X301181D01*
Y130000D01*
X281496D01*
Y80000D01*
G01X281988Y114843D02*
X283465Y115827D01*
Y113858D01*
X281988Y114843D01*
G01X281496Y175000D02*
X284252D01*
Y192224D01*
X298425D01*
Y148327D01*
X284252D01*
Y165551D01*
X281496D01*
G01Y145276D02*
X301181D01*
Y195276D01*
X281496D01*
Y145276D01*
G01X288189Y138189D02*
Y143307D01*
G01X287795Y138189D02*
Y143307D01*
G01X287402Y138189D02*
Y143307D01*
G01X287008Y138189D02*
Y143307D01*
G01X286614Y138189D02*
Y143307D01*
G01X286220Y138189D02*
Y143307D01*
G01X285827Y138189D02*
X296850D01*
Y143307D01*
X285827D01*
Y138189D01*
G01X281988Y180118D02*
X283465Y181102D01*
Y179134D01*
X281988Y180118D01*
G54D11*
G01X106750Y119100D02*
X109250D01*
Y117900D01*
X106750D01*
Y119100D01*
G01Y115600D02*
X109250D01*
Y114400D01*
X106750D01*
Y115600D01*
G01X111899Y126447D02*
Y123947D01*
X110699D01*
Y126447D01*
X111899D01*
G01X118750Y127100D02*
X121250D01*
Y125900D01*
X118750D01*
Y127100D01*
G01X119754Y136408D02*
X117254D01*
Y137608D01*
X119754D01*
Y136408D01*
G01X118750Y130600D02*
X121250D01*
Y129400D01*
X118750D01*
Y130600D01*
G01X129183Y157135D02*
X131683D01*
Y155935D01*
X129183D01*
Y157135D01*
G01X152293Y113356D02*
X154793D01*
Y112156D01*
X152293D01*
Y113356D01*
G01X150975Y158199D02*
Y160699D01*
X152175D01*
Y158199D01*
X150975D01*
G01X165699Y32117D02*
X163199D01*
Y33317D01*
X165699D01*
Y32117D01*
G01X170758Y132569D02*
X173258D01*
Y131369D01*
X170758D01*
Y132569D01*
G01X169750Y139100D02*
X172250D01*
Y137900D01*
X169750D01*
Y139100D01*
G01Y142600D02*
X172250D01*
Y141400D01*
X169750D01*
Y142600D01*
G01X192175Y131387D02*
X194675D01*
Y130187D01*
X192175D01*
Y131387D01*
G01X217250Y40600D02*
X219750D01*
Y39400D01*
X217250D01*
Y40600D01*
G01X235246Y119222D02*
X237746D01*
Y118022D01*
X235246D01*
Y119222D01*
G54D12*
G01X5204Y90092D02*
X5335Y89895D01*
X5492Y89764D01*
X5676Y89698D01*
X5886Y89764D01*
X6043Y89895D01*
X6201Y90092D01*
X6253Y90354D01*
Y91667D01*
G01X7080Y89993D02*
X7237Y89829D01*
X7421Y89731D01*
X7657Y89698D01*
X7894Y89764D01*
X8078Y89895D01*
X8209Y90124D01*
X8235Y90387D01*
X8182Y90650D01*
X8051Y90813D01*
X7867Y90945D01*
X7684Y90978D01*
X7500Y90945D01*
X7264Y90813D01*
X7343Y91667D01*
X8051D01*
G01X11877Y193930D02*
X9908D01*
Y194456D01*
X10007Y194665D01*
X10138Y194823D01*
X10335Y194954D01*
X10565Y195059D01*
X10893Y195085D01*
X11220Y195059D01*
X11450Y194954D01*
X11647Y194823D01*
X11778Y194665D01*
X11877Y194456D01*
Y193930D01*
G01X11647Y195991D02*
X11811Y196174D01*
X11877Y196385D01*
X11811Y196594D01*
X11614Y196778D01*
X11319Y196909D01*
X11024Y196962D01*
X10663D01*
X10368Y196909D01*
X10105Y196778D01*
X9974Y196621D01*
X9908Y196437D01*
X9974Y196227D01*
X10105Y196070D01*
X10302Y195965D01*
X10565Y195912D01*
X10794Y195965D01*
X11024Y196096D01*
X11155Y196253D01*
X11188Y196437D01*
X11122Y196647D01*
X10958Y196804D01*
X10663Y196962D01*
G01X14062Y32808D02*
X14193Y32611D01*
X14350Y32480D01*
X14534Y32415D01*
X14744Y32480D01*
X14902Y32611D01*
X15059Y32808D01*
X15111Y33071D01*
Y34383D01*
G01X16516Y32415D02*
Y34383D01*
X16201Y33989D01*
G01Y32415D02*
X16831D01*
G01X14206Y56037D02*
Y58005D01*
X14731D01*
X14941Y57907D01*
X15098Y57776D01*
X15230Y57579D01*
X15335Y57349D01*
X15361Y57021D01*
X15335Y56693D01*
X15230Y56463D01*
X15098Y56266D01*
X14941Y56135D01*
X14731Y56037D01*
X14206D01*
G01X16135Y56430D02*
X16293Y56201D01*
X16503Y56069D01*
X16739Y56037D01*
X16949Y56069D01*
X17159Y56233D01*
X17290Y56430D01*
X17316Y56627D01*
X17264Y56857D01*
X17080Y57021D01*
X16896Y57087D01*
X16660D01*
G01X16896D02*
X17054Y57185D01*
X17185Y57349D01*
X17237Y57546D01*
X17185Y57743D01*
X17054Y57907D01*
X16818Y58005D01*
X16581Y57972D01*
X16345Y57841D01*
G01X24239Y72802D02*
X24081Y72900D01*
X23898Y72966D01*
X23688D01*
X23452Y72867D01*
X23268Y72703D01*
X23137Y72506D01*
X23031Y72178D01*
X23005Y71883D01*
X23058Y71588D01*
X23137Y71391D01*
X23294Y71194D01*
X23478Y71063D01*
X23661Y70997D01*
X23845D01*
X24029Y71063D01*
X24186Y71161D01*
X24318Y71293D01*
G01X25092Y72638D02*
X25249Y72835D01*
X25433Y72933D01*
X25643Y72966D01*
X25906Y72900D01*
X26089Y72736D01*
X26142Y72539D01*
X26115Y72343D01*
X26011Y72178D01*
X25485Y71850D01*
X25249Y71620D01*
X25092Y71293D01*
X25039Y70997D01*
X26142D01*
G01X27520Y72966D02*
X27310Y72900D01*
X27152Y72736D01*
X27047Y72539D01*
X26969Y72277D01*
X26942Y71981D01*
X26969Y71686D01*
X27047Y71424D01*
X27152Y71227D01*
X27310Y71063D01*
X27520Y70997D01*
X27730Y71063D01*
X27887Y71227D01*
X27992Y71424D01*
X28071Y71686D01*
X28097Y71981D01*
X28071Y72277D01*
X27992Y72539D01*
X27887Y72736D01*
X27730Y72900D01*
X27520Y72966D01*
G01X23137Y66863D02*
Y68832D01*
X23793D01*
X24003Y68733D01*
X24134Y68602D01*
X24186Y68340D01*
X24134Y68077D01*
X23976Y67913D01*
X23793Y67815D01*
X23137D01*
G01X23793D02*
X24186Y66863D01*
G01X25591D02*
Y68832D01*
X25276Y68438D01*
G01Y66863D02*
X25906D01*
G01X27520Y68832D02*
X27310Y68766D01*
X27152Y68602D01*
X27047Y68406D01*
X26969Y68143D01*
X26942Y67848D01*
X26969Y67552D01*
X27047Y67290D01*
X27152Y67093D01*
X27310Y66929D01*
X27520Y66863D01*
X27730Y66929D01*
X27887Y67093D01*
X27992Y67290D01*
X28071Y67552D01*
X28097Y67848D01*
X28071Y68143D01*
X27992Y68406D01*
X27887Y68602D01*
X27730Y68766D01*
X27520Y68832D01*
G01X26214Y89107D02*
Y91076D01*
X26739D01*
X26949Y90978D01*
X27106Y90846D01*
X27237Y90650D01*
X27343Y90420D01*
X27369Y90092D01*
X27343Y89764D01*
X27237Y89534D01*
X27106Y89337D01*
X26949Y89206D01*
X26739Y89107D01*
X26214D01*
G01X29035D02*
Y91076D01*
X28064Y89665D01*
X29377D01*
G01X26293Y102690D02*
Y104659D01*
X27290D01*
G01X26922Y103707D02*
X26293D01*
G01X28720Y102690D02*
Y104659D01*
X28406Y104265D01*
G01Y102690D02*
X29035D01*
G01X14783Y112730D02*
X14574Y112762D01*
X14390Y112894D01*
X14232Y113091D01*
X14127Y113320D01*
X14075Y113583D01*
Y113845D01*
X14127Y114107D01*
X14232Y114337D01*
X14390Y114534D01*
X14574Y114665D01*
X14783Y114698D01*
X14993Y114665D01*
X15177Y114534D01*
X15335Y114337D01*
X15440Y114107D01*
X15492Y113845D01*
Y113583D01*
X15440Y113320D01*
X15335Y113091D01*
X15177Y112894D01*
X14993Y112762D01*
X14783Y112730D01*
G01X14993Y113254D02*
X15308Y112730D01*
G01X16135Y113123D02*
X16293Y112894D01*
X16503Y112762D01*
X16739Y112730D01*
X16949Y112762D01*
X17159Y112926D01*
X17290Y113123D01*
X17316Y113320D01*
X17264Y113550D01*
X17080Y113714D01*
X16896Y113780D01*
X16660D01*
G01X16896D02*
X17054Y113878D01*
X17185Y114042D01*
X17237Y114239D01*
X17185Y114435D01*
X17054Y114600D01*
X16818Y114698D01*
X16581Y114665D01*
X16345Y114534D01*
G01X26050Y117605D02*
X24081D01*
Y118261D01*
X24180Y118471D01*
X24311Y118602D01*
X24574Y118655D01*
X24836Y118602D01*
X25000Y118445D01*
X25098Y118261D01*
Y117605D01*
G01Y118261D02*
X26050Y118655D01*
G01X25230Y119560D02*
X25000Y119744D01*
X24869Y119902D01*
X24803Y120111D01*
X24869Y120295D01*
X25000Y120426D01*
X25197Y120531D01*
X25427Y120558D01*
X25624Y120531D01*
X25820Y120426D01*
X25984Y120269D01*
X26050Y120085D01*
X25984Y119875D01*
X25787Y119692D01*
X25492Y119587D01*
X25164Y119560D01*
X24738Y119613D01*
X24508Y119692D01*
X24278Y119823D01*
X24114Y120007D01*
X24081Y120190D01*
X24147Y120374D01*
X24311Y120505D01*
G01X35669Y67999D02*
X33701D01*
Y68655D01*
X33799Y68865D01*
X33930Y68996D01*
X34193Y69048D01*
X34456Y68996D01*
X34619Y68839D01*
X34718Y68655D01*
Y67999D01*
G01Y68655D02*
X35669Y69048D01*
G01X35276Y69875D02*
X35505Y70033D01*
X35637Y70243D01*
X35669Y70479D01*
X35637Y70689D01*
X35472Y70899D01*
X35276Y71030D01*
X35079Y71056D01*
X34849Y71004D01*
X34685Y70820D01*
X34619Y70637D01*
Y70400D01*
G01Y70637D02*
X34521Y70794D01*
X34357Y70925D01*
X34160Y70978D01*
X33963Y70925D01*
X33799Y70794D01*
X33701Y70558D01*
X33733Y70322D01*
X33865Y70085D01*
G01X35663Y77887D02*
Y79856D01*
X36188D01*
X36398Y79757D01*
X36555Y79626D01*
X36686Y79429D01*
X36791Y79199D01*
X36818Y78871D01*
X36791Y78543D01*
X36686Y78313D01*
X36555Y78117D01*
X36398Y77985D01*
X36188Y77887D01*
X35663D01*
G01X38169D02*
Y79856D01*
X37854Y79462D01*
G01Y77887D02*
X38484D01*
G01X34875Y121588D02*
Y120177D01*
X34980Y119882D01*
X35190Y119685D01*
X35453Y119619D01*
X35715Y119685D01*
X35925Y119882D01*
X36030Y120177D01*
Y121588D01*
G01X36804Y120013D02*
X36962Y119783D01*
X37172Y119652D01*
X37408Y119619D01*
X37618Y119652D01*
X37828Y119816D01*
X37959Y120013D01*
X37985Y120210D01*
X37933Y120439D01*
X37749Y120604D01*
X37566Y120669D01*
X37330D01*
G01X37566D02*
X37723Y120768D01*
X37854Y120931D01*
X37907Y121128D01*
X37854Y121325D01*
X37723Y121489D01*
X37487Y121588D01*
X37251Y121555D01*
X37015Y121424D01*
G01X41995Y106975D02*
X40026D01*
Y107631D01*
X40125Y107841D01*
X40256Y107972D01*
X40519Y108025D01*
X40781Y107972D01*
X40945Y107815D01*
X41043Y107631D01*
Y106975D01*
G01Y107631D02*
X41995Y108025D01*
G01Y109744D02*
X40026D01*
X41437Y108773D01*
Y110085D01*
G01X30617Y155052D02*
X30748Y154856D01*
X30906Y154724D01*
X31089Y154659D01*
X31299Y154724D01*
X31457Y154856D01*
X31614Y155052D01*
X31667Y155315D01*
Y156627D01*
G01X33071Y154659D02*
Y156627D01*
X32756Y156233D01*
G01Y154659D02*
X33386D01*
G01X34422Y155052D02*
X34580Y154823D01*
X34790Y154691D01*
X35026Y154659D01*
X35236Y154691D01*
X35446Y154856D01*
X35578Y155052D01*
X35604Y155249D01*
X35551Y155479D01*
X35367Y155643D01*
X35184Y155709D01*
X34948D01*
G01X35184D02*
X35341Y155807D01*
X35472Y155971D01*
X35525Y156168D01*
X35472Y156365D01*
X35341Y156529D01*
X35105Y156627D01*
X34869Y156594D01*
X34633Y156463D01*
G01X31685Y196740D02*
X31895Y196576D01*
X32131Y196478D01*
X32341D01*
X32551Y196576D01*
X32709Y196740D01*
X32787Y196970D01*
X32735Y197199D01*
X32604Y197396D01*
X32367Y197528D01*
X32052Y197593D01*
X31869Y197724D01*
X31790Y197954D01*
X31843Y198183D01*
X31974Y198348D01*
X32157Y198446D01*
X32341D01*
X32525Y198380D01*
X32682Y198217D01*
G01X33378Y198446D02*
X33745Y196478D01*
X34165Y198446D01*
X34585Y196478D01*
X34953Y198446D01*
G01X36094Y196478D02*
Y198446D01*
X35780Y198052D01*
G01Y196478D02*
X36409D01*
G01X50991Y90321D02*
X50833Y90420D01*
X50650Y90485D01*
X50440D01*
X50204Y90387D01*
X50020Y90223D01*
X49889Y90026D01*
X49783Y89698D01*
X49757Y89403D01*
X49810Y89107D01*
X49889Y88911D01*
X50046Y88714D01*
X50230Y88583D01*
X50413Y88517D01*
X50597D01*
X50781Y88583D01*
X50938Y88681D01*
X51070Y88812D01*
G01X51844Y90157D02*
X52001Y90354D01*
X52185Y90453D01*
X52395Y90485D01*
X52657Y90420D01*
X52841Y90256D01*
X52894Y90059D01*
X52867Y89862D01*
X52763Y89698D01*
X52237Y89370D01*
X52001Y89140D01*
X51844Y88812D01*
X51791Y88517D01*
X52894D01*
G01X43931Y121070D02*
X43832Y120912D01*
X43767Y120728D01*
Y120519D01*
X43865Y120282D01*
X44029Y120098D01*
X44226Y119967D01*
X44554Y119862D01*
X44849Y119836D01*
X45144Y119889D01*
X45341Y119967D01*
X45538Y120125D01*
X45669Y120308D01*
X45735Y120492D01*
Y120676D01*
X45669Y120859D01*
X45571Y121017D01*
X45440Y121148D01*
G01X44915Y121922D02*
X44685Y122106D01*
X44554Y122264D01*
X44488Y122474D01*
X44554Y122657D01*
X44685Y122789D01*
X44882Y122894D01*
X45112Y122920D01*
X45309Y122894D01*
X45506Y122789D01*
X45669Y122631D01*
X45735Y122448D01*
X45669Y122237D01*
X45472Y122054D01*
X45177Y121949D01*
X44849Y121922D01*
X44423Y121975D01*
X44193Y122054D01*
X43963Y122185D01*
X43799Y122369D01*
X43767Y122552D01*
X43832Y122736D01*
X43996Y122867D01*
G01X51483Y118044D02*
Y120013D01*
X52139D01*
X52349Y119915D01*
X52480Y119783D01*
X52533Y119521D01*
X52480Y119258D01*
X52323Y119094D01*
X52139Y118996D01*
X51483D01*
G01X52139D02*
X52533Y118044D01*
G01X53937D02*
Y120013D01*
X53622Y119619D01*
G01Y118044D02*
X54252D01*
G01X55866D02*
X56050Y118077D01*
X56260Y118176D01*
X56391Y118340D01*
X56444Y118569D01*
X56391Y118799D01*
X56233Y118996D01*
X55997Y119094D01*
X55735D01*
X55578Y119160D01*
X55446Y119324D01*
X55394Y119554D01*
X55472Y119783D01*
X55656Y119947D01*
X55866Y120013D01*
X56076Y119947D01*
X56260Y119783D01*
X56339Y119554D01*
X56286Y119324D01*
X56155Y119160D01*
X55997Y119094D01*
X55735D01*
X55499Y118996D01*
X55341Y118799D01*
X55289Y118569D01*
X55341Y118340D01*
X55472Y118176D01*
X55682Y118077D01*
X55866Y118044D01*
G01X57428Y199147D02*
Y201115D01*
X58110Y199475D01*
X58793Y201115D01*
Y199147D01*
G01X60039Y201115D02*
Y199147D01*
G01X59436Y201115D02*
X60643D01*
G01X61969Y199147D02*
Y201115D01*
X61654Y200722D01*
G01Y199147D02*
X62283D01*
G01X72133Y40682D02*
X72264Y40485D01*
X72421Y40354D01*
X72605Y40289D01*
X72815Y40354D01*
X72972Y40485D01*
X73130Y40682D01*
X73182Y40945D01*
Y42257D01*
G01X74141Y40518D02*
X74324Y40354D01*
X74534Y40289D01*
X74744Y40354D01*
X74928Y40551D01*
X75059Y40846D01*
X75111Y41142D01*
Y41502D01*
X75059Y41798D01*
X74928Y42060D01*
X74770Y42191D01*
X74587Y42257D01*
X74377Y42191D01*
X74219Y42060D01*
X74114Y41863D01*
X74062Y41601D01*
X74114Y41371D01*
X74245Y41142D01*
X74403Y41010D01*
X74587Y40978D01*
X74796Y41043D01*
X74954Y41207D01*
X75111Y41502D01*
G01X64987Y117487D02*
X64830Y117585D01*
X64646Y117651D01*
X64436D01*
X64200Y117552D01*
X64016Y117388D01*
X63885Y117191D01*
X63780Y116863D01*
X63753Y116568D01*
X63806Y116273D01*
X63885Y116076D01*
X64042Y115879D01*
X64226Y115748D01*
X64409Y115682D01*
X64593D01*
X64777Y115748D01*
X64934Y115846D01*
X65066Y115978D01*
G01X66654Y115682D02*
Y117651D01*
X65682Y116240D01*
X66995D01*
G01X68268Y117651D02*
X68058Y117585D01*
X67900Y117421D01*
X67795Y117224D01*
X67717Y116962D01*
X67690Y116667D01*
X67717Y116371D01*
X67795Y116109D01*
X67900Y115912D01*
X68058Y115748D01*
X68268Y115682D01*
X68478Y115748D01*
X68635Y115912D01*
X68740Y116109D01*
X68819Y116371D01*
X68845Y116667D01*
X68819Y116962D01*
X68740Y117224D01*
X68635Y117421D01*
X68478Y117585D01*
X68268Y117651D01*
G01X87041Y90682D02*
Y89272D01*
X87146Y88976D01*
X87356Y88780D01*
X87618Y88714D01*
X87881Y88780D01*
X88091Y88976D01*
X88196Y89272D01*
Y90682D01*
G01X89048Y90354D02*
X89206Y90551D01*
X89390Y90650D01*
X89600Y90682D01*
X89862Y90617D01*
X90046Y90453D01*
X90098Y90256D01*
X90072Y90059D01*
X89967Y89895D01*
X89442Y89567D01*
X89206Y89337D01*
X89048Y89009D01*
X88996Y88714D01*
X90098D01*
G01X75223Y117487D02*
X75066Y117585D01*
X74882Y117651D01*
X74672D01*
X74436Y117552D01*
X74252Y117388D01*
X74121Y117191D01*
X74016Y116863D01*
X73989Y116568D01*
X74042Y116273D01*
X74121Y116076D01*
X74278Y115879D01*
X74462Y115748D01*
X74646Y115682D01*
X74830D01*
X75013Y115748D01*
X75170Y115846D01*
X75302Y115978D01*
G01X76890Y115682D02*
Y117651D01*
X75919Y116240D01*
X77231D01*
G01X78504Y115682D02*
Y117651D01*
X78189Y117257D01*
G01Y115682D02*
X78819D01*
G01X83727Y114278D02*
X81759D01*
Y114934D01*
X81857Y115144D01*
X81988Y115276D01*
X82251Y115328D01*
X82513Y115276D01*
X82677Y115118D01*
X82776Y114934D01*
Y114278D01*
G01Y114934D02*
X83727Y115328D01*
G01X82087Y116233D02*
X81890Y116391D01*
X81791Y116575D01*
X81759Y116785D01*
X81824Y117047D01*
X81988Y117231D01*
X82185Y117283D01*
X82382Y117257D01*
X82546Y117152D01*
X82874Y116627D01*
X83104Y116391D01*
X83432Y116233D01*
X83727Y116181D01*
Y117283D01*
G01X81759Y118661D02*
X81824Y118452D01*
X81988Y118294D01*
X82185Y118189D01*
X82448Y118110D01*
X82743Y118084D01*
X83038Y118110D01*
X83301Y118189D01*
X83498Y118294D01*
X83661Y118452D01*
X83727Y118661D01*
X83661Y118871D01*
X83498Y119029D01*
X83301Y119134D01*
X83038Y119213D01*
X82743Y119239D01*
X82448Y119213D01*
X82185Y119134D01*
X81988Y119029D01*
X81824Y118871D01*
X81759Y118661D01*
G01X74318Y180249D02*
Y182218D01*
X74974D01*
X75184Y182119D01*
X75315Y181988D01*
X75367Y181726D01*
X75315Y181463D01*
X75157Y181299D01*
X74974Y181201D01*
X74318D01*
G01X74974D02*
X75367Y180249D01*
G01X76273Y181890D02*
X76430Y182087D01*
X76614Y182185D01*
X76824Y182218D01*
X77087Y182152D01*
X77270Y181988D01*
X77323Y181791D01*
X77296Y181594D01*
X77192Y181430D01*
X76667Y181102D01*
X76430Y180872D01*
X76273Y180544D01*
X76220Y180249D01*
X77323D01*
G01X78202Y181890D02*
X78359Y182087D01*
X78543Y182185D01*
X78753Y182218D01*
X79016Y182152D01*
X79200Y181988D01*
X79252Y181791D01*
X79226Y181594D01*
X79121Y181430D01*
X78596Y181102D01*
X78359Y180872D01*
X78202Y180544D01*
X78150Y180249D01*
X79252D01*
G01X102592Y65774D02*
X102494Y65617D01*
X102428Y65433D01*
Y65223D01*
X102526Y64987D01*
X102691Y64803D01*
X102887Y64672D01*
X103215Y64567D01*
X103511Y64541D01*
X103806Y64593D01*
X104003Y64672D01*
X104200Y64830D01*
X104331Y65013D01*
X104396Y65197D01*
Y65381D01*
X104331Y65564D01*
X104232Y65722D01*
X104101Y65853D01*
G01X102756Y66627D02*
X102559Y66785D01*
X102461Y66969D01*
X102428Y67178D01*
X102494Y67441D01*
X102657Y67625D01*
X102854Y67677D01*
X103051Y67651D01*
X103215Y67546D01*
X103543Y67021D01*
X103773Y66785D01*
X104101Y66627D01*
X104396Y66575D01*
Y67677D01*
G01X102756Y68556D02*
X102559Y68714D01*
X102461Y68898D01*
X102428Y69107D01*
X102494Y69370D01*
X102657Y69554D01*
X102854Y69606D01*
X103051Y69580D01*
X103215Y69475D01*
X103543Y68950D01*
X103773Y68714D01*
X104101Y68556D01*
X104396Y68504D01*
Y69606D01*
G01X98294Y114869D02*
X96326D01*
Y115525D01*
X96424Y115735D01*
X96555Y115866D01*
X96818Y115919D01*
X97080Y115866D01*
X97244Y115709D01*
X97343Y115525D01*
Y114869D01*
G01Y115525D02*
X98294Y115919D01*
G01Y117323D02*
X96326D01*
X96719Y117008D01*
G01X98294D02*
Y117638D01*
G01Y119200D02*
X97868Y119252D01*
X97507Y119331D01*
X97179Y119436D01*
X96818Y119567D01*
X96326Y119777D01*
Y118727D01*
G01X101641Y119560D02*
X101483Y119659D01*
X101299Y119724D01*
X101089D01*
X100853Y119626D01*
X100669Y119462D01*
X100538Y119265D01*
X100433Y118937D01*
X100407Y118642D01*
X100459Y118346D01*
X100538Y118150D01*
X100696Y117953D01*
X100879Y117822D01*
X101063Y117756D01*
X101247D01*
X101430Y117822D01*
X101588Y117920D01*
X101719Y118051D01*
G01X102415Y118150D02*
X102572Y117920D01*
X102782Y117789D01*
X103019Y117756D01*
X103228Y117789D01*
X103438Y117953D01*
X103570Y118150D01*
X103596Y118346D01*
X103543Y118576D01*
X103359Y118740D01*
X103176Y118806D01*
X102940D01*
G01X103176D02*
X103333Y118904D01*
X103465Y119068D01*
X103517Y119265D01*
X103465Y119462D01*
X103333Y119626D01*
X103097Y119724D01*
X102861Y119692D01*
X102625Y119560D01*
G01X104475Y117985D02*
X104659Y117822D01*
X104869Y117756D01*
X105079Y117822D01*
X105263Y118019D01*
X105394Y118314D01*
X105446Y118609D01*
Y118970D01*
X105394Y119265D01*
X105263Y119528D01*
X105105Y119659D01*
X104921Y119724D01*
X104711Y119659D01*
X104554Y119528D01*
X104449Y119331D01*
X104396Y119068D01*
X104449Y118839D01*
X104580Y118609D01*
X104737Y118478D01*
X104921Y118445D01*
X105131Y118511D01*
X105289Y118674D01*
X105446Y118970D01*
G01X101719Y115663D02*
X101562Y115761D01*
X101378Y115827D01*
X101168D01*
X100932Y115728D01*
X100748Y115564D01*
X100617Y115367D01*
X100512Y115039D01*
X100485Y114744D01*
X100538Y114449D01*
X100617Y114252D01*
X100774Y114055D01*
X100958Y113924D01*
X101142Y113858D01*
X101326D01*
X101509Y113924D01*
X101667Y114022D01*
X101798Y114154D01*
G01X102493D02*
X102651Y113989D01*
X102835Y113891D01*
X103071Y113858D01*
X103307Y113924D01*
X103491Y114055D01*
X103622Y114285D01*
X103648Y114547D01*
X103596Y114810D01*
X103465Y114974D01*
X103281Y115105D01*
X103097Y115138D01*
X102913Y115105D01*
X102677Y114974D01*
X102756Y115827D01*
X103465D01*
G01X105000Y113858D02*
Y115827D01*
X104685Y115433D01*
G01Y113858D02*
X105315D01*
G01X90965Y152100D02*
Y150131D01*
G01X90361Y152100D02*
X91568D01*
G01X92894Y150131D02*
Y152100D01*
X92579Y151706D01*
G01Y150131D02*
X93209D01*
G01X110302Y53058D02*
X108333D01*
Y53714D01*
X108432Y53924D01*
X108563Y54055D01*
X108826Y54107D01*
X109088Y54055D01*
X109252Y53898D01*
X109350Y53714D01*
Y53058D01*
G01Y53714D02*
X110302Y54107D01*
G01Y55512D02*
X108333D01*
X108727Y55197D01*
G01X110302D02*
Y55827D01*
G01Y57441D02*
X108333D01*
X108727Y57126D01*
G01X110302D02*
Y57756D01*
G01X121857Y54298D02*
X121700Y54396D01*
X121516Y54462D01*
X121306D01*
X121070Y54363D01*
X120886Y54199D01*
X120755Y54002D01*
X120650Y53674D01*
X120623Y53379D01*
X120676Y53084D01*
X120755Y52887D01*
X120912Y52690D01*
X121096Y52559D01*
X121280Y52493D01*
X121463D01*
X121647Y52559D01*
X121804Y52657D01*
X121936Y52789D01*
G01X123209Y52493D02*
Y54462D01*
X122894Y54068D01*
G01Y52493D02*
X123524D01*
G01X110059Y65879D02*
X109849Y65912D01*
X109665Y66043D01*
X109508Y66240D01*
X109403Y66470D01*
X109350Y66732D01*
Y66994D01*
X109403Y67257D01*
X109508Y67487D01*
X109665Y67683D01*
X109849Y67815D01*
X110059Y67848D01*
X110269Y67815D01*
X110453Y67683D01*
X110610Y67487D01*
X110715Y67257D01*
X110768Y66994D01*
Y66732D01*
X110715Y66470D01*
X110610Y66240D01*
X110453Y66043D01*
X110269Y65912D01*
X110059Y65879D01*
G01X110269Y66404D02*
X110584Y65879D01*
G01X112303D02*
Y67848D01*
X111332Y66437D01*
X112644D01*
G01X115853Y76903D02*
Y78871D01*
X116509D01*
X116719Y78773D01*
X116850Y78642D01*
X116903Y78379D01*
X116850Y78117D01*
X116693Y77953D01*
X116509Y77854D01*
X115853D01*
G01X116509D02*
X116903Y76903D01*
G01X118307D02*
Y78871D01*
X117992Y78478D01*
G01Y76903D02*
X118622D01*
G01X119659Y77296D02*
X119816Y77067D01*
X120026Y76935D01*
X120263Y76903D01*
X120472Y76935D01*
X120682Y77100D01*
X120814Y77296D01*
X120840Y77493D01*
X120787Y77723D01*
X120604Y77887D01*
X120420Y77953D01*
X120184D01*
G01X120420D02*
X120578Y78051D01*
X120709Y78215D01*
X120761Y78412D01*
X120709Y78609D01*
X120578Y78773D01*
X120341Y78871D01*
X120105Y78839D01*
X119869Y78707D01*
G01X115971Y94258D02*
X115814Y94357D01*
X115630Y94422D01*
X115420D01*
X115184Y94324D01*
X115000Y94160D01*
X114869Y93963D01*
X114764Y93635D01*
X114737Y93340D01*
X114790Y93044D01*
X114869Y92848D01*
X115026Y92651D01*
X115210Y92520D01*
X115394Y92454D01*
X115578D01*
X115761Y92520D01*
X115919Y92618D01*
X116050Y92749D01*
G01X117638Y92454D02*
Y94422D01*
X116667Y93012D01*
X117979D01*
G01X118674Y92848D02*
X118832Y92618D01*
X119042Y92487D01*
X119278Y92454D01*
X119488Y92487D01*
X119698Y92651D01*
X119830Y92848D01*
X119856Y93044D01*
X119803Y93274D01*
X119619Y93438D01*
X119436Y93504D01*
X119200D01*
G01X119436D02*
X119593Y93602D01*
X119724Y93766D01*
X119777Y93963D01*
X119724Y94160D01*
X119593Y94324D01*
X119357Y94422D01*
X119121Y94390D01*
X118885Y94258D01*
G01X119711Y115912D02*
X119554Y116010D01*
X119370Y116076D01*
X119160D01*
X118924Y115978D01*
X118740Y115813D01*
X118609Y115617D01*
X118504Y115289D01*
X118478Y114993D01*
X118530Y114698D01*
X118609Y114501D01*
X118767Y114304D01*
X118950Y114173D01*
X119134Y114107D01*
X119318D01*
X119501Y114173D01*
X119659Y114272D01*
X119790Y114403D01*
G01X120564Y115748D02*
X120722Y115945D01*
X120906Y116043D01*
X121115Y116076D01*
X121378Y116010D01*
X121562Y115846D01*
X121614Y115650D01*
X121588Y115453D01*
X121483Y115289D01*
X120958Y114961D01*
X120722Y114731D01*
X120564Y114403D01*
X120512Y114107D01*
X121614D01*
G01X122415Y114501D02*
X122572Y114272D01*
X122782Y114140D01*
X123019Y114107D01*
X123228Y114140D01*
X123438Y114304D01*
X123570Y114501D01*
X123596Y114698D01*
X123543Y114928D01*
X123359Y115092D01*
X123176Y115157D01*
X122940D01*
G01X123176D02*
X123333Y115256D01*
X123465Y115420D01*
X123517Y115617D01*
X123465Y115813D01*
X123333Y115978D01*
X123097Y116076D01*
X122861Y116043D01*
X122625Y115912D01*
G01X118727Y122408D02*
X118570Y122506D01*
X118386Y122572D01*
X118176D01*
X117940Y122474D01*
X117756Y122309D01*
X117625Y122113D01*
X117520Y121785D01*
X117493Y121489D01*
X117546Y121194D01*
X117625Y120997D01*
X117782Y120800D01*
X117966Y120669D01*
X118150Y120604D01*
X118333D01*
X118517Y120669D01*
X118674Y120768D01*
X118806Y120899D01*
G01X119501Y120997D02*
X119659Y120768D01*
X119869Y120636D01*
X120105Y120604D01*
X120315Y120636D01*
X120525Y120800D01*
X120656Y120997D01*
X120682Y121194D01*
X120630Y121424D01*
X120446Y121588D01*
X120263Y121654D01*
X120026D01*
G01X120263D02*
X120420Y121752D01*
X120551Y121916D01*
X120604Y122113D01*
X120551Y122309D01*
X120420Y122474D01*
X120184Y122572D01*
X119948Y122539D01*
X119711Y122408D01*
G01X121509Y121424D02*
X121693Y121654D01*
X121850Y121785D01*
X122060Y121850D01*
X122244Y121785D01*
X122375Y121654D01*
X122480Y121457D01*
X122507Y121227D01*
X122480Y121030D01*
X122375Y120833D01*
X122218Y120669D01*
X122034Y120604D01*
X121824Y120669D01*
X121641Y120866D01*
X121535Y121161D01*
X121509Y121489D01*
X121562Y121916D01*
X121641Y122146D01*
X121772Y122375D01*
X121956Y122539D01*
X122139Y122572D01*
X122323Y122506D01*
X122454Y122343D01*
G01X113845Y126660D02*
X115814D01*
Y127710D01*
G01X115519Y128537D02*
X115683Y128694D01*
X115781Y128878D01*
X115814Y129114D01*
X115748Y129350D01*
X115617Y129534D01*
X115387Y129665D01*
X115125Y129692D01*
X114862Y129639D01*
X114698Y129508D01*
X114567Y129324D01*
X114534Y129141D01*
X114567Y128957D01*
X114698Y128720D01*
X113845Y128799D01*
Y129508D01*
G01X109574Y128570D02*
X109475Y128412D01*
X109409Y128228D01*
Y128019D01*
X109508Y127782D01*
X109672Y127598D01*
X109869Y127467D01*
X110197Y127362D01*
X110492Y127336D01*
X110787Y127389D01*
X110984Y127467D01*
X111181Y127625D01*
X111312Y127808D01*
X111378Y127992D01*
Y128176D01*
X111312Y128359D01*
X111214Y128517D01*
X111083Y128648D01*
G01X110984Y129344D02*
X111214Y129501D01*
X111345Y129711D01*
X111378Y129948D01*
X111345Y130157D01*
X111181Y130367D01*
X110984Y130499D01*
X110787Y130525D01*
X110558Y130472D01*
X110394Y130289D01*
X110328Y130105D01*
Y129869D01*
G01Y130105D02*
X110230Y130263D01*
X110066Y130394D01*
X109869Y130446D01*
X109672Y130394D01*
X109508Y130263D01*
X109409Y130026D01*
X109442Y129790D01*
X109574Y129554D01*
G01X111083Y131273D02*
X111247Y131430D01*
X111345Y131614D01*
X111378Y131850D01*
X111312Y132087D01*
X111181Y132270D01*
X110952Y132402D01*
X110689Y132428D01*
X110426Y132375D01*
X110263Y132244D01*
X110131Y132060D01*
X110098Y131877D01*
X110131Y131693D01*
X110263Y131457D01*
X109409Y131535D01*
Y132244D01*
G01X115735Y139678D02*
X115578Y139777D01*
X115394Y139843D01*
X115184D01*
X114948Y139744D01*
X114764Y139580D01*
X114633Y139383D01*
X114528Y139055D01*
X114501Y138760D01*
X114554Y138465D01*
X114633Y138268D01*
X114790Y138071D01*
X114974Y137940D01*
X115157Y137874D01*
X115341D01*
X115525Y137940D01*
X115682Y138038D01*
X115814Y138169D01*
G01X116588Y139515D02*
X116745Y139711D01*
X116929Y139810D01*
X117139Y139843D01*
X117402Y139777D01*
X117585Y139613D01*
X117638Y139416D01*
X117611Y139219D01*
X117507Y139055D01*
X116981Y138727D01*
X116745Y138497D01*
X116588Y138169D01*
X116535Y137874D01*
X117638D01*
G01X119331D02*
Y139843D01*
X118359Y138432D01*
X119672D01*
G01X117749Y167257D02*
Y169226D01*
X118274D01*
X118484Y169127D01*
X118642Y168996D01*
X118773Y168799D01*
X118878Y168569D01*
X118904Y168241D01*
X118878Y167913D01*
X118773Y167683D01*
X118642Y167487D01*
X118484Y167356D01*
X118274Y167257D01*
X117749D01*
G01X120256D02*
X120440Y167290D01*
X120650Y167388D01*
X120781Y167552D01*
X120833Y167782D01*
X120781Y168012D01*
X120623Y168209D01*
X120387Y168307D01*
X120125D01*
X119967Y168372D01*
X119836Y168537D01*
X119783Y168766D01*
X119862Y168996D01*
X120046Y169160D01*
X120256Y169226D01*
X120466Y169160D01*
X120650Y168996D01*
X120728Y168766D01*
X120676Y168537D01*
X120544Y168372D01*
X120387Y168307D01*
X120125D01*
X119889Y168209D01*
X119731Y168012D01*
X119678Y167782D01*
X119731Y167552D01*
X119862Y167388D01*
X120072Y167290D01*
X120256Y167257D01*
G01X118931Y155735D02*
X118832Y155578D01*
X118767Y155394D01*
Y155184D01*
X118865Y154948D01*
X119029Y154764D01*
X119226Y154633D01*
X119554Y154528D01*
X119849Y154501D01*
X120144Y154554D01*
X120341Y154633D01*
X120538Y154790D01*
X120669Y154974D01*
X120735Y155157D01*
Y155341D01*
X120669Y155525D01*
X120571Y155682D01*
X120440Y155814D01*
G01X119094Y156588D02*
X118898Y156745D01*
X118799Y156929D01*
X118767Y157139D01*
X118832Y157402D01*
X118996Y157585D01*
X119193Y157638D01*
X119390Y157611D01*
X119554Y157507D01*
X119882Y156981D01*
X120112Y156745D01*
X120440Y156588D01*
X120735Y156535D01*
Y157638D01*
G01X120440Y158438D02*
X120604Y158596D01*
X120702Y158780D01*
X120735Y159016D01*
X120669Y159252D01*
X120538Y159436D01*
X120309Y159567D01*
X120046Y159593D01*
X119783Y159541D01*
X119620Y159409D01*
X119488Y159226D01*
X119456Y159042D01*
X119488Y158858D01*
X119620Y158622D01*
X118767Y158701D01*
Y159409D01*
G01X115191Y175617D02*
X115092Y175459D01*
X115026Y175276D01*
Y175066D01*
X115125Y174830D01*
X115289Y174646D01*
X115486Y174515D01*
X115814Y174409D01*
X116109Y174383D01*
X116404Y174436D01*
X116601Y174515D01*
X116798Y174672D01*
X116929Y174856D01*
X116995Y175039D01*
Y175223D01*
X116929Y175407D01*
X116831Y175564D01*
X116700Y175696D01*
G01X115354Y176470D02*
X115157Y176627D01*
X115059Y176811D01*
X115026Y177021D01*
X115092Y177283D01*
X115256Y177467D01*
X115453Y177520D01*
X115650Y177493D01*
X115814Y177389D01*
X116142Y176863D01*
X116372Y176627D01*
X116700Y176470D01*
X116995Y176417D01*
Y177520D01*
G01X116765Y178452D02*
X116929Y178635D01*
X116995Y178845D01*
X116929Y179055D01*
X116732Y179239D01*
X116437Y179370D01*
X116142Y179422D01*
X115781D01*
X115486Y179370D01*
X115223Y179239D01*
X115092Y179081D01*
X115026Y178898D01*
X115092Y178688D01*
X115223Y178530D01*
X115420Y178425D01*
X115683Y178373D01*
X115912Y178425D01*
X116142Y178556D01*
X116273Y178714D01*
X116306Y178898D01*
X116240Y179107D01*
X116076Y179265D01*
X115781Y179422D01*
G01X118734Y175420D02*
X118635Y175263D01*
X118570Y175079D01*
Y174869D01*
X118668Y174633D01*
X118832Y174449D01*
X119029Y174318D01*
X119357Y174213D01*
X119652Y174186D01*
X119948Y174239D01*
X120144Y174318D01*
X120341Y174475D01*
X120472Y174659D01*
X120538Y174843D01*
Y175026D01*
X120472Y175210D01*
X120374Y175367D01*
X120243Y175499D01*
G01X118898Y176273D02*
X118701Y176430D01*
X118602Y176614D01*
X118570Y176824D01*
X118635Y177087D01*
X118799Y177270D01*
X118996Y177323D01*
X119193Y177296D01*
X119357Y177192D01*
X119685Y176667D01*
X119915Y176430D01*
X120243Y176273D01*
X120538Y176220D01*
Y177323D01*
G01Y178701D02*
X120506Y178885D01*
X120407Y179094D01*
X120243Y179226D01*
X120013Y179278D01*
X119783Y179226D01*
X119587Y179068D01*
X119488Y178832D01*
Y178570D01*
X119423Y178412D01*
X119259Y178281D01*
X119029Y178228D01*
X118799Y178307D01*
X118635Y178491D01*
X118570Y178701D01*
X118635Y178911D01*
X118799Y179094D01*
X119029Y179173D01*
X119259Y179121D01*
X119423Y178989D01*
X119488Y178832D01*
Y178570D01*
X119587Y178333D01*
X119783Y178176D01*
X120013Y178123D01*
X120243Y178176D01*
X120407Y178307D01*
X120506Y178517D01*
X120538Y178701D01*
G01X117408Y199344D02*
X117539Y199147D01*
X117697Y199016D01*
X117881Y198950D01*
X118091Y199016D01*
X118248Y199147D01*
X118406Y199344D01*
X118458Y199606D01*
Y200919D01*
G01X119285Y199344D02*
X119442Y199114D01*
X119652Y198983D01*
X119889Y198950D01*
X120098Y198983D01*
X120308Y199147D01*
X120440Y199344D01*
X120466Y199541D01*
X120413Y199770D01*
X120230Y199934D01*
X120046Y200000D01*
X119810D01*
G01X120046D02*
X120204Y200098D01*
X120335Y200262D01*
X120387Y200459D01*
X120335Y200656D01*
X120204Y200820D01*
X119967Y200919D01*
X119731Y200886D01*
X119495Y200754D01*
G01X136227Y48195D02*
X136070Y48294D01*
X135886Y48359D01*
X135676D01*
X135440Y48261D01*
X135256Y48097D01*
X135125Y47900D01*
X135020Y47572D01*
X134993Y47277D01*
X135046Y46981D01*
X135125Y46785D01*
X135282Y46588D01*
X135466Y46457D01*
X135650Y46391D01*
X135833D01*
X136017Y46457D01*
X136174Y46555D01*
X136306Y46686D01*
G01X137894Y46391D02*
Y48359D01*
X136922Y46949D01*
X138235D01*
G01X133694Y58989D02*
Y57579D01*
X133799Y57283D01*
X134009Y57087D01*
X134272Y57021D01*
X134534Y57087D01*
X134744Y57283D01*
X134849Y57579D01*
Y58989D01*
G01X136201Y57021D02*
Y58989D01*
X135886Y58596D01*
G01Y57021D02*
X136516D01*
G01X131759Y94987D02*
X129790D01*
Y95643D01*
X129889Y95853D01*
X130020Y95984D01*
X130282Y96037D01*
X130545Y95984D01*
X130709Y95827D01*
X130807Y95643D01*
Y94987D01*
G01Y95643D02*
X131759Y96037D01*
G01Y97441D02*
X129790D01*
X130184Y97126D01*
G01X131759D02*
Y97756D01*
G01X131529Y98924D02*
X131693Y99107D01*
X131759Y99318D01*
X131693Y99528D01*
X131496Y99711D01*
X131201Y99843D01*
X130906Y99895D01*
X130545D01*
X130250Y99843D01*
X129987Y99711D01*
X129856Y99554D01*
X129790Y99370D01*
X129856Y99160D01*
X129987Y99003D01*
X130184Y98898D01*
X130446Y98845D01*
X130676Y98898D01*
X130906Y99029D01*
X131037Y99186D01*
X131070Y99370D01*
X131004Y99580D01*
X130840Y99737D01*
X130545Y99895D01*
G01X124396Y127356D02*
X124239Y127454D01*
X124055Y127520D01*
X123845D01*
X123609Y127421D01*
X123425Y127257D01*
X123294Y127060D01*
X123189Y126732D01*
X123163Y126437D01*
X123215Y126142D01*
X123294Y125945D01*
X123452Y125748D01*
X123635Y125617D01*
X123819Y125551D01*
X124003D01*
X124186Y125617D01*
X124344Y125715D01*
X124475Y125846D01*
G01X125170Y125945D02*
X125328Y125715D01*
X125538Y125584D01*
X125774Y125551D01*
X125984Y125584D01*
X126194Y125748D01*
X126326Y125945D01*
X126352Y126142D01*
X126299Y126371D01*
X126115Y126535D01*
X125932Y126601D01*
X125696D01*
G01X125932D02*
X126089Y126700D01*
X126220Y126863D01*
X126273Y127060D01*
X126220Y127257D01*
X126089Y127421D01*
X125853Y127520D01*
X125617Y127487D01*
X125381Y127356D01*
G01X127178Y127192D02*
X127336Y127389D01*
X127520Y127487D01*
X127730Y127520D01*
X127992Y127454D01*
X128176Y127290D01*
X128228Y127093D01*
X128202Y126896D01*
X128097Y126732D01*
X127572Y126404D01*
X127336Y126174D01*
X127178Y125846D01*
X127126Y125551D01*
X128228D01*
G01X125263Y131096D02*
X125105Y131194D01*
X124921Y131260D01*
X124711D01*
X124475Y131161D01*
X124291Y130997D01*
X124160Y130800D01*
X124055Y130472D01*
X124029Y130177D01*
X124081Y129882D01*
X124160Y129685D01*
X124318Y129488D01*
X124501Y129357D01*
X124685Y129291D01*
X124869D01*
X125052Y129357D01*
X125210Y129456D01*
X125341Y129587D01*
G01X126037D02*
X126194Y129422D01*
X126378Y129324D01*
X126614Y129291D01*
X126850Y129357D01*
X127034Y129488D01*
X127165Y129718D01*
X127192Y129980D01*
X127139Y130243D01*
X127008Y130407D01*
X126824Y130538D01*
X126641Y130571D01*
X126457Y130538D01*
X126220Y130407D01*
X126299Y131260D01*
X127008D01*
G01X128543D02*
X128333Y131194D01*
X128176Y131030D01*
X128071Y130833D01*
X127992Y130571D01*
X127966Y130276D01*
X127992Y129980D01*
X128071Y129718D01*
X128176Y129521D01*
X128333Y129357D01*
X128543Y129291D01*
X128753Y129357D01*
X128911Y129521D01*
X129016Y129718D01*
X129094Y129980D01*
X129121Y130276D01*
X129094Y130571D01*
X129016Y130833D01*
X128911Y131030D01*
X128753Y131194D01*
X128543Y131260D01*
G01X129042Y154796D02*
X128885Y154895D01*
X128701Y154961D01*
X128491D01*
X128255Y154862D01*
X128071Y154698D01*
X127940Y154501D01*
X127835Y154173D01*
X127808Y153878D01*
X127861Y153583D01*
X127940Y153386D01*
X128097Y153189D01*
X128281Y153058D01*
X128465Y152992D01*
X128648D01*
X128832Y153058D01*
X128989Y153156D01*
X129121Y153287D01*
G01X129895Y154633D02*
X130052Y154830D01*
X130236Y154928D01*
X130446Y154961D01*
X130709Y154895D01*
X130893Y154731D01*
X130945Y154534D01*
X130919Y154337D01*
X130814Y154173D01*
X130289Y153845D01*
X130052Y153615D01*
X129895Y153287D01*
X129843Y152992D01*
X130945D01*
G01X131824Y153812D02*
X132008Y154042D01*
X132165Y154173D01*
X132375Y154239D01*
X132559Y154173D01*
X132690Y154042D01*
X132795Y153845D01*
X132822Y153615D01*
X132795Y153419D01*
X132690Y153222D01*
X132533Y153058D01*
X132349Y152992D01*
X132139Y153058D01*
X131956Y153255D01*
X131850Y153550D01*
X131824Y153878D01*
X131877Y154304D01*
X131956Y154534D01*
X132087Y154764D01*
X132270Y154928D01*
X132454Y154961D01*
X132638Y154895D01*
X132769Y154731D01*
G01X127789Y170499D02*
X127691Y170341D01*
X127625Y170157D01*
Y169948D01*
X127723Y169711D01*
X127887Y169528D01*
X128084Y169396D01*
X128412Y169291D01*
X128707Y169265D01*
X129003Y169318D01*
X129200Y169396D01*
X129396Y169554D01*
X129528Y169737D01*
X129593Y169921D01*
Y170105D01*
X129528Y170289D01*
X129429Y170446D01*
X129298Y170578D01*
G01X129200Y171273D02*
X129429Y171430D01*
X129561Y171641D01*
X129593Y171877D01*
X129561Y172087D01*
X129396Y172296D01*
X129200Y172428D01*
X129003Y172454D01*
X128773Y172402D01*
X128609Y172218D01*
X128543Y172034D01*
Y171798D01*
G01Y172034D02*
X128445Y172192D01*
X128281Y172323D01*
X128084Y172375D01*
X127887Y172323D01*
X127723Y172192D01*
X127625Y171956D01*
X127657Y171719D01*
X127789Y171483D01*
G01X129593Y173780D02*
X129561Y173963D01*
X129462Y174173D01*
X129298Y174304D01*
X129069Y174357D01*
X128839Y174304D01*
X128642Y174147D01*
X128543Y173911D01*
Y173648D01*
X128478Y173491D01*
X128314Y173359D01*
X128084Y173307D01*
X127854Y173386D01*
X127691Y173570D01*
X127625Y173780D01*
X127691Y173989D01*
X127854Y174173D01*
X128084Y174252D01*
X128314Y174200D01*
X128478Y174068D01*
X128543Y173911D01*
Y173648D01*
X128642Y173412D01*
X128839Y173255D01*
X129069Y173202D01*
X129298Y173255D01*
X129462Y173386D01*
X129561Y173596D01*
X129593Y173780D01*
G01X137467Y157192D02*
X135499D01*
Y157848D01*
X135597Y158058D01*
X135728Y158189D01*
X135991Y158241D01*
X136254Y158189D01*
X136417Y158031D01*
X136516Y157848D01*
Y157192D01*
G01Y157848D02*
X137467Y158241D01*
G01X135827Y159147D02*
X135630Y159304D01*
X135531Y159488D01*
X135499Y159698D01*
X135565Y159961D01*
X135728Y160144D01*
X135925Y160197D01*
X136122Y160170D01*
X136286Y160066D01*
X136614Y159541D01*
X136844Y159304D01*
X137172Y159147D01*
X137467Y159094D01*
Y160197D01*
G01Y161575D02*
X135499D01*
X135893Y161260D01*
G01X137467D02*
Y161890D01*
G01X123688Y174692D02*
X125656D01*
Y175741D01*
G01X125263Y176568D02*
X125492Y176726D01*
X125624Y176936D01*
X125656Y177172D01*
X125624Y177382D01*
X125459Y177592D01*
X125263Y177723D01*
X125066Y177749D01*
X124836Y177697D01*
X124672Y177513D01*
X124606Y177330D01*
Y177093D01*
G01Y177330D02*
X124508Y177487D01*
X124344Y177618D01*
X124147Y177670D01*
X123950Y177618D01*
X123786Y177487D01*
X123688Y177251D01*
X123720Y177015D01*
X123852Y176778D01*
G01X131719Y182447D02*
X131562Y182546D01*
X131378Y182611D01*
X131168D01*
X130932Y182513D01*
X130748Y182349D01*
X130617Y182152D01*
X130512Y181824D01*
X130485Y181529D01*
X130538Y181233D01*
X130617Y181037D01*
X130774Y180840D01*
X130958Y180709D01*
X131142Y180643D01*
X131326D01*
X131509Y180709D01*
X131667Y180807D01*
X131798Y180938D01*
G01X132572Y182283D02*
X132730Y182480D01*
X132913Y182579D01*
X133123Y182611D01*
X133386Y182546D01*
X133570Y182382D01*
X133622Y182185D01*
X133596Y181988D01*
X133491Y181824D01*
X132966Y181496D01*
X132730Y181266D01*
X132572Y180938D01*
X132520Y180643D01*
X133622D01*
G01X134948D02*
X135000Y181069D01*
X135079Y181430D01*
X135184Y181758D01*
X135315Y182119D01*
X135525Y182611D01*
X134475D01*
G01X143983Y9580D02*
X144114Y9383D01*
X144272Y9252D01*
X144456Y9186D01*
X144665Y9252D01*
X144823Y9383D01*
X144980Y9580D01*
X145033Y9843D01*
Y11155D01*
G01X145938Y10006D02*
X146122Y10236D01*
X146280Y10367D01*
X146489Y10433D01*
X146673Y10367D01*
X146804Y10236D01*
X146909Y10039D01*
X146936Y9809D01*
X146909Y9613D01*
X146804Y9416D01*
X146647Y9252D01*
X146463Y9186D01*
X146253Y9252D01*
X146070Y9449D01*
X145965Y9744D01*
X145938Y10072D01*
X145991Y10498D01*
X146070Y10728D01*
X146201Y10958D01*
X146385Y11122D01*
X146568Y11155D01*
X146752Y11089D01*
X146883Y10925D01*
G01X150282Y58202D02*
Y56233D01*
X151332D01*
G01X152736D02*
Y58202D01*
X152421Y57808D01*
G01Y56233D02*
X153051D01*
G01X145105Y74770D02*
X144948Y74869D01*
X144764Y74934D01*
X144554D01*
X144318Y74836D01*
X144134Y74672D01*
X144003Y74475D01*
X143898Y74147D01*
X143871Y73852D01*
X143924Y73556D01*
X144003Y73359D01*
X144160Y73163D01*
X144344Y73031D01*
X144528Y72966D01*
X144711D01*
X144895Y73031D01*
X145052Y73130D01*
X145184Y73261D01*
G01X145958Y74606D02*
X146115Y74803D01*
X146299Y74902D01*
X146509Y74934D01*
X146772Y74869D01*
X146956Y74705D01*
X147008Y74508D01*
X146981Y74311D01*
X146877Y74147D01*
X146352Y73819D01*
X146115Y73589D01*
X145958Y73261D01*
X145906Y72966D01*
X147008D01*
G01X148386D02*
Y74934D01*
X148071Y74541D01*
G01Y72966D02*
X148701D01*
G01X145341Y85341D02*
X143373D01*
Y85997D01*
X143471Y86207D01*
X143602Y86339D01*
X143865Y86391D01*
X144128Y86339D01*
X144291Y86181D01*
X144390Y85997D01*
Y85341D01*
G01Y85997D02*
X145341Y86391D01*
G01Y87795D02*
X143373D01*
X143767Y87480D01*
G01X145341D02*
Y88110D01*
G01Y90039D02*
X143373D01*
X144783Y89068D01*
Y90381D01*
G01X145711Y97803D02*
X145678Y97593D01*
X145547Y97409D01*
X145350Y97252D01*
X145120Y97147D01*
X144858Y97094D01*
X144596D01*
X144333Y97147D01*
X144104Y97252D01*
X143907Y97409D01*
X143775Y97593D01*
X143743Y97803D01*
X143775Y98013D01*
X143907Y98197D01*
X144104Y98354D01*
X144333Y98459D01*
X144596Y98512D01*
X144858D01*
X145120Y98459D01*
X145350Y98354D01*
X145547Y98197D01*
X145678Y98013D01*
X145711Y97803D01*
G01X145186Y98013D02*
X145711Y98328D01*
G01Y99732D02*
X143743D01*
X144136Y99417D01*
G01X145711D02*
Y100047D01*
G01X147507Y113694D02*
X147349Y113793D01*
X147165Y113858D01*
X146956D01*
X146719Y113760D01*
X146535Y113596D01*
X146404Y113399D01*
X146299Y113071D01*
X146273Y112776D01*
X146326Y112480D01*
X146404Y112283D01*
X146562Y112087D01*
X146745Y111956D01*
X146929Y111890D01*
X147113D01*
X147296Y111956D01*
X147454Y112054D01*
X147585Y112185D01*
G01X149173Y111890D02*
Y113858D01*
X148202Y112448D01*
X149515D01*
G01X150735Y111890D02*
X150787Y112316D01*
X150866Y112677D01*
X150971Y113005D01*
X151102Y113366D01*
X151312Y113858D01*
X150263D01*
G01X147670Y137139D02*
Y135728D01*
X147776Y135433D01*
X147985Y135236D01*
X148248Y135170D01*
X148511Y135236D01*
X148720Y135433D01*
X148826Y135728D01*
Y137139D01*
G01X149600Y135466D02*
X149757Y135302D01*
X149941Y135203D01*
X150177Y135170D01*
X150413Y135236D01*
X150597Y135367D01*
X150728Y135597D01*
X150755Y135859D01*
X150702Y136122D01*
X150571Y136286D01*
X150387Y136417D01*
X150204Y136450D01*
X150020Y136417D01*
X149783Y136286D01*
X149862Y137139D01*
X150571D01*
G01X139475Y158399D02*
Y160367D01*
X140131D01*
X140341Y160269D01*
X140472Y160138D01*
X140525Y159875D01*
X140472Y159613D01*
X140315Y159449D01*
X140131Y159350D01*
X139475D01*
G01X140131D02*
X140525Y158399D01*
G01X141929D02*
Y160367D01*
X141614Y159974D01*
G01Y158399D02*
X142244D01*
G01X143359Y159219D02*
X143543Y159449D01*
X143701Y159580D01*
X143911Y159646D01*
X144094Y159580D01*
X144226Y159449D01*
X144331Y159252D01*
X144357Y159022D01*
X144331Y158825D01*
X144226Y158628D01*
X144068Y158465D01*
X143885Y158399D01*
X143674Y158465D01*
X143491Y158661D01*
X143386Y158957D01*
X143359Y159285D01*
X143412Y159711D01*
X143491Y159941D01*
X143622Y160170D01*
X143806Y160335D01*
X143989Y160367D01*
X144173Y160302D01*
X144304Y160138D01*
G01X153156Y158648D02*
X153058Y158491D01*
X152992Y158307D01*
Y158097D01*
X153091Y157861D01*
X153255Y157677D01*
X153452Y157546D01*
X153780Y157441D01*
X154075Y157415D01*
X154370Y157467D01*
X154567Y157546D01*
X154764Y157704D01*
X154895Y157887D01*
X154961Y158071D01*
Y158255D01*
X154895Y158438D01*
X154796Y158596D01*
X154665Y158727D01*
G01X154567Y159422D02*
X154796Y159580D01*
X154928Y159790D01*
X154961Y160026D01*
X154928Y160236D01*
X154764Y160446D01*
X154567Y160578D01*
X154370Y160604D01*
X154141Y160551D01*
X153976Y160367D01*
X153911Y160184D01*
Y159948D01*
G01Y160184D02*
X153812Y160341D01*
X153648Y160472D01*
X153452Y160525D01*
X153255Y160472D01*
X153091Y160341D01*
X152992Y160105D01*
X153025Y159869D01*
X153156Y159633D01*
G01X152992Y161929D02*
X153058Y161719D01*
X153222Y161562D01*
X153419Y161457D01*
X153681Y161378D01*
X153976Y161352D01*
X154272Y161378D01*
X154534Y161457D01*
X154731Y161562D01*
X154895Y161719D01*
X154961Y161929D01*
X154895Y162139D01*
X154731Y162296D01*
X154534Y162402D01*
X154272Y162480D01*
X153976Y162507D01*
X153681Y162480D01*
X153419Y162402D01*
X153222Y162296D01*
X153058Y162139D01*
X152992Y161929D01*
G01X142343Y170013D02*
Y170899D01*
X141818Y171981D01*
G01X142867D02*
X142343Y170899D01*
G01X143773Y171654D02*
X143930Y171850D01*
X144114Y171949D01*
X144324Y171981D01*
X144587Y171916D01*
X144770Y171752D01*
X144823Y171555D01*
X144796Y171358D01*
X144692Y171194D01*
X144167Y170866D01*
X143930Y170636D01*
X143773Y170308D01*
X143720Y170013D01*
X144823D01*
G01X161483Y41358D02*
X161450Y41148D01*
X161319Y40965D01*
X161122Y40807D01*
X160893Y40702D01*
X160630Y40650D01*
X160368D01*
X160105Y40702D01*
X159876Y40807D01*
X159679Y40965D01*
X159547Y41148D01*
X159515Y41358D01*
X159547Y41568D01*
X159679Y41752D01*
X159876Y41909D01*
X160105Y42015D01*
X160368Y42067D01*
X160630D01*
X160893Y42015D01*
X161122Y41909D01*
X161319Y41752D01*
X161450Y41568D01*
X161483Y41358D01*
G01X160958Y41568D02*
X161483Y41883D01*
G01X159843Y42789D02*
X159646Y42946D01*
X159547Y43130D01*
X159515Y43340D01*
X159580Y43602D01*
X159744Y43786D01*
X159941Y43839D01*
X160138Y43812D01*
X160302Y43707D01*
X160630Y43182D01*
X160860Y42946D01*
X161188Y42789D01*
X161483Y42736D01*
Y43839D01*
G01X162900Y35505D02*
X162743Y35604D01*
X162559Y35669D01*
X162349D01*
X162113Y35571D01*
X161929Y35407D01*
X161798Y35210D01*
X161693Y34882D01*
X161667Y34587D01*
X161719Y34291D01*
X161798Y34094D01*
X161956Y33898D01*
X162139Y33767D01*
X162323Y33701D01*
X162507D01*
X162690Y33767D01*
X162848Y33865D01*
X162979Y33996D01*
G01X164567Y33701D02*
Y35669D01*
X163596Y34259D01*
X164908D01*
G01X166496Y33701D02*
Y35669D01*
X165525Y34259D01*
X166837D01*
G01X162702Y55022D02*
X162604Y54864D01*
X162538Y54680D01*
Y54470D01*
X162637Y54234D01*
X162801Y54050D01*
X162998Y53919D01*
X163326Y53814D01*
X163621Y53788D01*
X163916Y53841D01*
X164113Y53919D01*
X164310Y54077D01*
X164441Y54260D01*
X164507Y54444D01*
Y54628D01*
X164441Y54811D01*
X164343Y54969D01*
X164211Y55100D01*
G01X164507Y56373D02*
X162538D01*
X162932Y56058D01*
G01X164507D02*
Y56688D01*
G01Y58617D02*
X162538D01*
X163949Y57646D01*
Y58959D01*
G01X158550Y88714D02*
Y90682D01*
X159206D01*
X159416Y90584D01*
X159547Y90453D01*
X159600Y90190D01*
X159547Y89928D01*
X159390Y89764D01*
X159206Y89665D01*
X158550D01*
G01X159206D02*
X159600Y88714D01*
G01X161004D02*
X161188Y88746D01*
X161398Y88845D01*
X161529Y89009D01*
X161581Y89239D01*
X161529Y89469D01*
X161371Y89665D01*
X161135Y89764D01*
X160873D01*
X160715Y89829D01*
X160584Y89993D01*
X160531Y90223D01*
X160610Y90453D01*
X160794Y90617D01*
X161004Y90682D01*
X161214Y90617D01*
X161398Y90453D01*
X161476Y90223D01*
X161424Y89993D01*
X161293Y89829D01*
X161135Y89764D01*
X160873D01*
X160637Y89665D01*
X160479Y89469D01*
X160426Y89239D01*
X160479Y89009D01*
X160610Y88845D01*
X160820Y88746D01*
X161004Y88714D01*
G01X170302Y114534D02*
X170144Y114632D01*
X169961Y114698D01*
X169751D01*
X169515Y114600D01*
X169331Y114435D01*
X169200Y114239D01*
X169094Y113911D01*
X169068Y113615D01*
X169121Y113320D01*
X169200Y113123D01*
X169357Y112926D01*
X169541Y112795D01*
X169724Y112730D01*
X169908D01*
X170092Y112795D01*
X170249Y112894D01*
X170381Y113025D01*
G01X171654Y112730D02*
Y114698D01*
X171339Y114304D01*
G01Y112730D02*
X171969D01*
G01X173005Y113123D02*
X173163Y112894D01*
X173373Y112762D01*
X173609Y112730D01*
X173819Y112762D01*
X174029Y112926D01*
X174160Y113123D01*
X174186Y113320D01*
X174134Y113550D01*
X173950Y113714D01*
X173767Y113780D01*
X173530D01*
G01X173767D02*
X173924Y113878D01*
X174055Y114042D01*
X174107Y114239D01*
X174055Y114435D01*
X173924Y114600D01*
X173688Y114698D01*
X173452Y114665D01*
X173215Y114534D01*
G01X165066Y139600D02*
X164908Y139698D01*
X164724Y139764D01*
X164515D01*
X164278Y139665D01*
X164094Y139501D01*
X163963Y139304D01*
X163858Y138976D01*
X163832Y138681D01*
X163885Y138386D01*
X163963Y138189D01*
X164121Y137992D01*
X164304Y137861D01*
X164488Y137795D01*
X164672D01*
X164856Y137861D01*
X165013Y137959D01*
X165144Y138091D01*
G01X165840Y138189D02*
X165997Y137959D01*
X166207Y137828D01*
X166444Y137795D01*
X166654Y137828D01*
X166863Y137992D01*
X166995Y138189D01*
X167021Y138386D01*
X166969Y138615D01*
X166785Y138780D01*
X166601Y138845D01*
X166365D01*
G01X166601D02*
X166759Y138944D01*
X166890Y139107D01*
X166942Y139304D01*
X166890Y139501D01*
X166759Y139665D01*
X166522Y139764D01*
X166286Y139731D01*
X166050Y139600D01*
G01X168346Y137795D02*
Y139764D01*
X168031Y139370D01*
G01Y137795D02*
X168661D01*
G01X165420Y132985D02*
X165263Y133084D01*
X165079Y133150D01*
X164869D01*
X164633Y133051D01*
X164449Y132887D01*
X164318Y132690D01*
X164213Y132362D01*
X164186Y132067D01*
X164239Y131772D01*
X164318Y131575D01*
X164475Y131378D01*
X164659Y131247D01*
X164843Y131181D01*
X165026D01*
X165210Y131247D01*
X165367Y131345D01*
X165499Y131476D01*
G01X167087Y131181D02*
Y133150D01*
X166115Y131739D01*
X167428D01*
G01X168255Y131411D02*
X168438Y131247D01*
X168648Y131181D01*
X168858Y131247D01*
X169042Y131444D01*
X169173Y131739D01*
X169226Y132034D01*
Y132395D01*
X169173Y132690D01*
X169042Y132953D01*
X168885Y133084D01*
X168701Y133150D01*
X168491Y133084D01*
X168333Y132953D01*
X168228Y132756D01*
X168176Y132493D01*
X168228Y132264D01*
X168359Y132034D01*
X168517Y131903D01*
X168701Y131870D01*
X168911Y131936D01*
X169068Y132100D01*
X169226Y132395D01*
G01X164948Y143104D02*
X164790Y143202D01*
X164606Y143268D01*
X164396D01*
X164160Y143169D01*
X163976Y143005D01*
X163845Y142808D01*
X163740Y142480D01*
X163714Y142185D01*
X163767Y141890D01*
X163845Y141693D01*
X164003Y141496D01*
X164186Y141365D01*
X164370Y141299D01*
X164554D01*
X164737Y141365D01*
X164895Y141463D01*
X165026Y141594D01*
G01X166614Y141299D02*
Y143268D01*
X165643Y141857D01*
X166956D01*
G01X168228Y141299D02*
X168412Y141332D01*
X168622Y141430D01*
X168753Y141594D01*
X168806Y141824D01*
X168753Y142054D01*
X168596Y142251D01*
X168359Y142349D01*
X168097D01*
X167940Y142415D01*
X167808Y142579D01*
X167756Y142808D01*
X167835Y143038D01*
X168019Y143202D01*
X168228Y143268D01*
X168438Y143202D01*
X168622Y143038D01*
X168701Y142808D01*
X168648Y142579D01*
X168517Y142415D01*
X168359Y142349D01*
X168097D01*
X167861Y142251D01*
X167704Y142054D01*
X167651Y141824D01*
X167704Y141594D01*
X167835Y141430D01*
X168044Y141332D01*
X168228Y141299D01*
G01X157317Y170499D02*
X157218Y170341D01*
X157152Y170157D01*
Y169948D01*
X157251Y169711D01*
X157415Y169528D01*
X157612Y169396D01*
X157940Y169291D01*
X158235Y169265D01*
X158530Y169318D01*
X158727Y169396D01*
X158924Y169554D01*
X159055Y169737D01*
X159121Y169921D01*
Y170105D01*
X159055Y170289D01*
X158957Y170446D01*
X158826Y170578D01*
G01X158727Y171273D02*
X158957Y171430D01*
X159088Y171641D01*
X159121Y171877D01*
X159088Y172087D01*
X158924Y172296D01*
X158727Y172428D01*
X158530Y172454D01*
X158301Y172402D01*
X158137Y172218D01*
X158071Y172034D01*
Y171798D01*
G01Y172034D02*
X157972Y172192D01*
X157809Y172323D01*
X157612Y172375D01*
X157415Y172323D01*
X157251Y172192D01*
X157152Y171956D01*
X157185Y171719D01*
X157317Y171483D01*
G01X159121Y173727D02*
X158694Y173780D01*
X158333Y173858D01*
X158006Y173963D01*
X157644Y174094D01*
X157152Y174304D01*
Y173255D01*
G01X164200Y165321D02*
X164042Y165420D01*
X163858Y165485D01*
X163648D01*
X163412Y165387D01*
X163228Y165223D01*
X163097Y165026D01*
X162992Y164698D01*
X162966Y164403D01*
X163019Y164107D01*
X163097Y163911D01*
X163255Y163714D01*
X163438Y163583D01*
X163622Y163517D01*
X163806D01*
X163989Y163583D01*
X164147Y163681D01*
X164278Y163812D01*
G01X164974Y163911D02*
X165131Y163681D01*
X165341Y163550D01*
X165578Y163517D01*
X165787Y163550D01*
X165997Y163714D01*
X166129Y163911D01*
X166155Y164107D01*
X166102Y164337D01*
X165919Y164501D01*
X165735Y164567D01*
X165499D01*
G01X165735D02*
X165893Y164665D01*
X166024Y164829D01*
X166076Y165026D01*
X166024Y165223D01*
X165893Y165387D01*
X165656Y165485D01*
X165420Y165453D01*
X165184Y165321D01*
G01X166903Y163911D02*
X167060Y163681D01*
X167270Y163550D01*
X167507Y163517D01*
X167717Y163550D01*
X167926Y163714D01*
X168058Y163911D01*
X168084Y164107D01*
X168031Y164337D01*
X167848Y164501D01*
X167664Y164567D01*
X167428D01*
G01X167664D02*
X167822Y164665D01*
X167953Y164829D01*
X168005Y165026D01*
X167953Y165223D01*
X167822Y165387D01*
X167585Y165485D01*
X167349Y165453D01*
X167113Y165321D01*
G01X166365Y160400D02*
X166207Y160498D01*
X166024Y160564D01*
X165814D01*
X165578Y160466D01*
X165394Y160302D01*
X165263Y160105D01*
X165157Y159777D01*
X165131Y159481D01*
X165184Y159186D01*
X165263Y158989D01*
X165420Y158793D01*
X165604Y158661D01*
X165787Y158596D01*
X165971D01*
X166155Y158661D01*
X166312Y158760D01*
X166444Y158891D01*
G01X167139Y158989D02*
X167296Y158760D01*
X167507Y158628D01*
X167743Y158596D01*
X167953Y158628D01*
X168163Y158793D01*
X168294Y158989D01*
X168320Y159186D01*
X168268Y159416D01*
X168084Y159580D01*
X167900Y159646D01*
X167664D01*
G01X167900D02*
X168058Y159744D01*
X168189Y159908D01*
X168241Y160105D01*
X168189Y160302D01*
X168058Y160466D01*
X167822Y160564D01*
X167585Y160531D01*
X167349Y160400D01*
G01X169961Y158596D02*
Y160564D01*
X168989Y159154D01*
X170302D01*
G01X174475Y37881D02*
X172507D01*
Y38537D01*
X172605Y38747D01*
X172736Y38878D01*
X172999Y38930D01*
X173261Y38878D01*
X173425Y38720D01*
X173524Y38537D01*
Y37881D01*
G01Y38537D02*
X174475Y38930D01*
G01X174180Y39757D02*
X174344Y39915D01*
X174443Y40098D01*
X174475Y40335D01*
X174409Y40571D01*
X174278Y40755D01*
X174049Y40886D01*
X173786Y40912D01*
X173524Y40859D01*
X173360Y40728D01*
X173228Y40544D01*
X173196Y40361D01*
X173228Y40177D01*
X173360Y39941D01*
X172507Y40020D01*
Y40728D01*
G01X183175Y34156D02*
X183076Y33998D01*
X183011Y33814D01*
Y33604D01*
X183109Y33368D01*
X183273Y33184D01*
X183470Y33053D01*
X183798Y32948D01*
X184093Y32922D01*
X184389Y32974D01*
X184585Y33053D01*
X184782Y33211D01*
X184913Y33394D01*
X184979Y33578D01*
Y33762D01*
X184913Y33945D01*
X184815Y34103D01*
X184684Y34234D01*
G01X184979Y35507D02*
X183011D01*
X183404Y35192D01*
G01X184979D02*
Y35822D01*
G01Y37436D02*
X184946Y37620D01*
X184848Y37830D01*
X184684Y37961D01*
X184454Y38014D01*
X184224Y37961D01*
X184028Y37804D01*
X183929Y37567D01*
Y37305D01*
X183864Y37148D01*
X183700Y37016D01*
X183470Y36964D01*
X183240Y37043D01*
X183076Y37226D01*
X183011Y37436D01*
X183076Y37646D01*
X183240Y37830D01*
X183470Y37909D01*
X183700Y37856D01*
X183864Y37725D01*
X183929Y37567D01*
Y37305D01*
X184028Y37069D01*
X184224Y36911D01*
X184454Y36859D01*
X184684Y36911D01*
X184848Y37043D01*
X184946Y37252D01*
X184979Y37436D01*
G01X183747Y116470D02*
Y118438D01*
X184403D01*
X184613Y118340D01*
X184744Y118209D01*
X184796Y117946D01*
X184744Y117683D01*
X184587Y117520D01*
X184403Y117421D01*
X183747D01*
G01X184403D02*
X184796Y116470D01*
G01X185755Y116699D02*
X185938Y116535D01*
X186148Y116470D01*
X186358Y116535D01*
X186542Y116732D01*
X186673Y117028D01*
X186726Y117323D01*
Y117683D01*
X186673Y117979D01*
X186542Y118241D01*
X186385Y118372D01*
X186201Y118438D01*
X185991Y118372D01*
X185833Y118241D01*
X185728Y118044D01*
X185676Y117782D01*
X185728Y117552D01*
X185859Y117323D01*
X186017Y117191D01*
X186201Y117159D01*
X186411Y117224D01*
X186568Y117388D01*
X186726Y117683D01*
G01X176011Y118274D02*
X175853Y118372D01*
X175669Y118438D01*
X175459D01*
X175223Y118340D01*
X175039Y118176D01*
X174908Y117979D01*
X174803Y117651D01*
X174777Y117356D01*
X174830Y117060D01*
X174908Y116863D01*
X175066Y116667D01*
X175249Y116535D01*
X175433Y116470D01*
X175617D01*
X175800Y116535D01*
X175958Y116634D01*
X176089Y116765D01*
G01X177362Y116470D02*
Y118438D01*
X177047Y118044D01*
G01Y116470D02*
X177677D01*
G01X178793Y117290D02*
X178976Y117520D01*
X179134Y117651D01*
X179344Y117717D01*
X179528Y117651D01*
X179659Y117520D01*
X179764Y117323D01*
X179790Y117093D01*
X179764Y116896D01*
X179659Y116699D01*
X179501Y116535D01*
X179318Y116470D01*
X179107Y116535D01*
X178924Y116732D01*
X178819Y117028D01*
X178793Y117356D01*
X178845Y117782D01*
X178924Y118012D01*
X179055Y118241D01*
X179239Y118406D01*
X179422Y118438D01*
X179606Y118372D01*
X179737Y118209D01*
G01X170735Y164652D02*
X172704D01*
Y165702D01*
G01Y167421D02*
X170735D01*
X172146Y166450D01*
Y167763D01*
G01X198445Y33202D02*
Y34088D01*
X197920Y35170D01*
G01X198970D02*
X198445Y34088D01*
G01X200374Y33202D02*
Y35170D01*
X200059Y34777D01*
G01Y33202D02*
X200689D01*
G01X191365Y44455D02*
X191207Y44554D01*
X191024Y44619D01*
X190814D01*
X190578Y44521D01*
X190394Y44357D01*
X190263Y44160D01*
X190157Y43832D01*
X190131Y43537D01*
X190184Y43241D01*
X190263Y43044D01*
X190420Y42848D01*
X190604Y42717D01*
X190787Y42651D01*
X190971D01*
X191155Y42717D01*
X191312Y42815D01*
X191444Y42946D01*
G01X192717Y42651D02*
Y44619D01*
X192402Y44226D01*
G01Y42651D02*
X193031D01*
G01X194646Y44619D02*
X194436Y44554D01*
X194278Y44390D01*
X194173Y44193D01*
X194094Y43930D01*
X194068Y43635D01*
X194094Y43340D01*
X194173Y43077D01*
X194278Y42880D01*
X194436Y42717D01*
X194646Y42651D01*
X194856Y42717D01*
X195013Y42880D01*
X195118Y43077D01*
X195197Y43340D01*
X195223Y43635D01*
X195197Y43930D01*
X195118Y44193D01*
X195013Y44390D01*
X194856Y44554D01*
X194646Y44619D01*
G01X200873Y42651D02*
Y44619D01*
X201529D01*
X201739Y44521D01*
X201870Y44390D01*
X201922Y44127D01*
X201870Y43865D01*
X201713Y43701D01*
X201529Y43602D01*
X200873D01*
G01X201529D02*
X201922Y42651D01*
G01X203274D02*
X203327Y43077D01*
X203406Y43438D01*
X203511Y43766D01*
X203642Y44127D01*
X203852Y44619D01*
X202802D01*
G01X198458Y80249D02*
Y78839D01*
X198563Y78543D01*
X198773Y78346D01*
X199035Y78281D01*
X199298Y78346D01*
X199508Y78543D01*
X199613Y78839D01*
Y80249D01*
G01X201280Y78281D02*
Y80249D01*
X200308Y78839D01*
X201621D01*
G01X195144Y121673D02*
X195112Y121463D01*
X194980Y121280D01*
X194783Y121122D01*
X194554Y121017D01*
X194291Y120965D01*
X194029D01*
X193767Y121017D01*
X193537Y121122D01*
X193340Y121280D01*
X193209Y121463D01*
X193176Y121673D01*
X193209Y121883D01*
X193340Y122067D01*
X193537Y122224D01*
X193767Y122330D01*
X194029Y122382D01*
X194291D01*
X194554Y122330D01*
X194783Y122224D01*
X194980Y122067D01*
X195112Y121883D01*
X195144Y121673D01*
G01X194620Y121883D02*
X195144Y122198D01*
G01Y123602D02*
X195112Y123786D01*
X195013Y123996D01*
X194849Y124127D01*
X194620Y124180D01*
X194390Y124127D01*
X194193Y123970D01*
X194094Y123733D01*
Y123471D01*
X194029Y123314D01*
X193865Y123182D01*
X193635Y123130D01*
X193406Y123209D01*
X193242Y123393D01*
X193176Y123602D01*
X193242Y123812D01*
X193406Y123996D01*
X193635Y124075D01*
X193865Y124022D01*
X194029Y123891D01*
X194094Y123733D01*
Y123471D01*
X194193Y123235D01*
X194390Y123078D01*
X194620Y123025D01*
X194849Y123078D01*
X195013Y123209D01*
X195112Y123419D01*
X195144Y123602D01*
G01X187349Y131686D02*
X187192Y131785D01*
X187008Y131850D01*
X186798D01*
X186562Y131752D01*
X186378Y131588D01*
X186247Y131391D01*
X186142Y131063D01*
X186115Y130768D01*
X186168Y130472D01*
X186247Y130276D01*
X186404Y130079D01*
X186588Y129948D01*
X186772Y129882D01*
X186956D01*
X187139Y129948D01*
X187296Y130046D01*
X187428Y130177D01*
G01X189016Y129882D02*
Y131850D01*
X188044Y130440D01*
X189357D01*
G01X190131Y130702D02*
X190315Y130932D01*
X190472Y131063D01*
X190682Y131129D01*
X190866Y131063D01*
X190997Y130932D01*
X191102Y130735D01*
X191129Y130505D01*
X191102Y130308D01*
X190997Y130111D01*
X190840Y129948D01*
X190656Y129882D01*
X190446Y129948D01*
X190263Y130144D01*
X190157Y130440D01*
X190131Y130768D01*
X190184Y131194D01*
X190263Y131424D01*
X190394Y131654D01*
X190578Y131818D01*
X190761Y131850D01*
X190945Y131785D01*
X191076Y131621D01*
G01X213025Y33885D02*
X212927Y33727D01*
X212861Y33543D01*
Y33333D01*
X212959Y33097D01*
X213124Y32913D01*
X213320Y32782D01*
X213648Y32677D01*
X213944Y32651D01*
X214239Y32704D01*
X214436Y32782D01*
X214633Y32940D01*
X214764Y33123D01*
X214830Y33307D01*
Y33491D01*
X214764Y33674D01*
X214665Y33832D01*
X214534Y33963D01*
G01X214830Y35236D02*
X212861D01*
X213255Y34921D01*
G01X214830D02*
Y35551D01*
G01X214600Y36719D02*
X214764Y36903D01*
X214830Y37113D01*
X214764Y37323D01*
X214567Y37507D01*
X214272Y37638D01*
X213976Y37690D01*
X213616D01*
X213320Y37638D01*
X213058Y37507D01*
X212927Y37349D01*
X212861Y37165D01*
X212927Y36956D01*
X213058Y36798D01*
X213255Y36693D01*
X213517Y36641D01*
X213747Y36693D01*
X213976Y36824D01*
X214108Y36981D01*
X214141Y37165D01*
X214075Y37375D01*
X213911Y37533D01*
X213616Y37690D01*
G01X217566Y43182D02*
X217408Y43281D01*
X217224Y43346D01*
X217015D01*
X216778Y43248D01*
X216594Y43084D01*
X216463Y42887D01*
X216358Y42559D01*
X216332Y42264D01*
X216385Y41969D01*
X216463Y41772D01*
X216621Y41575D01*
X216804Y41444D01*
X216988Y41378D01*
X217172D01*
X217356Y41444D01*
X217513Y41542D01*
X217644Y41673D01*
G01X218471Y41607D02*
X218655Y41444D01*
X218865Y41378D01*
X219075Y41444D01*
X219259Y41641D01*
X219390Y41936D01*
X219442Y42231D01*
Y42592D01*
X219390Y42887D01*
X219259Y43150D01*
X219101Y43281D01*
X218917Y43346D01*
X218707Y43281D01*
X218550Y43150D01*
X218445Y42953D01*
X218393Y42690D01*
X218445Y42461D01*
X218576Y42231D01*
X218733Y42100D01*
X218917Y42067D01*
X219127Y42133D01*
X219285Y42296D01*
X219442Y42592D01*
G01X207743Y121542D02*
X205774D01*
Y122198D01*
X205873Y122408D01*
X206004Y122539D01*
X206267Y122592D01*
X206529Y122539D01*
X206693Y122382D01*
X206791Y122198D01*
Y121542D01*
G01Y122198D02*
X207743Y122592D01*
G01Y123996D02*
X205774D01*
X206168Y123681D01*
G01X207743D02*
Y124311D01*
G01X213274Y199737D02*
X213406Y199541D01*
X213563Y199409D01*
X213747Y199344D01*
X213957Y199409D01*
X214114Y199541D01*
X214272Y199737D01*
X214324Y200000D01*
Y201312D01*
G01X215230Y200984D02*
X215387Y201181D01*
X215571Y201280D01*
X215781Y201312D01*
X216043Y201246D01*
X216227Y201083D01*
X216280Y200886D01*
X216253Y200689D01*
X216148Y200525D01*
X215623Y200197D01*
X215387Y199967D01*
X215230Y199639D01*
X215177Y199344D01*
X216280D01*
G01X224101Y9580D02*
X224232Y9383D01*
X224390Y9252D01*
X224574Y9186D01*
X224783Y9252D01*
X224941Y9383D01*
X225098Y9580D01*
X225151Y9843D01*
Y11155D01*
G01X226870Y9186D02*
Y11155D01*
X225899Y9744D01*
X227211D01*
G01X226247Y37093D02*
X228215D01*
Y38143D01*
G01X226575Y39048D02*
X226378Y39206D01*
X226280Y39390D01*
X226247Y39600D01*
X226313Y39862D01*
X226476Y40046D01*
X226673Y40098D01*
X226870Y40072D01*
X227034Y39967D01*
X227362Y39442D01*
X227592Y39206D01*
X227920Y39048D01*
X228215Y38996D01*
Y40098D01*
G01X232093Y39337D02*
X231936Y39435D01*
X231752Y39501D01*
X231542D01*
X231306Y39403D01*
X231122Y39239D01*
X230991Y39042D01*
X230886Y38714D01*
X230859Y38419D01*
X230912Y38123D01*
X230991Y37926D01*
X231148Y37730D01*
X231332Y37598D01*
X231516Y37533D01*
X231700D01*
X231883Y37598D01*
X232041Y37697D01*
X232172Y37828D01*
G01X233393Y37533D02*
X233445Y37959D01*
X233524Y38320D01*
X233629Y38648D01*
X233760Y39009D01*
X233970Y39501D01*
X232920D01*
G01X228747Y44652D02*
X228589Y44750D01*
X228406Y44816D01*
X228196D01*
X227959Y44718D01*
X227776Y44554D01*
X227644Y44357D01*
X227539Y44029D01*
X227513Y43733D01*
X227566Y43438D01*
X227644Y43241D01*
X227802Y43044D01*
X227985Y42913D01*
X228169Y42848D01*
X228353D01*
X228537Y42913D01*
X228694Y43012D01*
X228826Y43143D01*
G01X229521D02*
X229678Y42979D01*
X229862Y42880D01*
X230098Y42848D01*
X230335Y42913D01*
X230519Y43044D01*
X230650Y43274D01*
X230676Y43537D01*
X230623Y43799D01*
X230492Y43963D01*
X230308Y44094D01*
X230125Y44127D01*
X229941Y44094D01*
X229705Y43963D01*
X229783Y44816D01*
X230492D01*
G01X239790Y57841D02*
X239633Y57939D01*
X239449Y58005D01*
X239239D01*
X239003Y57907D01*
X238819Y57743D01*
X238688Y57546D01*
X238583Y57218D01*
X238556Y56922D01*
X238609Y56627D01*
X238688Y56430D01*
X238845Y56233D01*
X239029Y56102D01*
X239213Y56037D01*
X239396D01*
X239580Y56102D01*
X239737Y56201D01*
X239869Y56332D01*
G01X241457Y56037D02*
Y58005D01*
X240485Y56594D01*
X241798D01*
G01X242572Y57677D02*
X242730Y57874D01*
X242913Y57972D01*
X243123Y58005D01*
X243386Y57939D01*
X243570Y57776D01*
X243622Y57579D01*
X243596Y57382D01*
X243491Y57218D01*
X242966Y56890D01*
X242730Y56660D01*
X242572Y56332D01*
X242520Y56037D01*
X243622D01*
G01X234482Y56916D02*
X234383Y56759D01*
X234318Y56575D01*
Y56365D01*
X234416Y56129D01*
X234580Y55945D01*
X234777Y55814D01*
X235105Y55709D01*
X235400Y55682D01*
X235696Y55735D01*
X235893Y55814D01*
X236089Y55971D01*
X236220Y56155D01*
X236286Y56339D01*
Y56522D01*
X236220Y56706D01*
X236122Y56863D01*
X235991Y56995D01*
G01X236286Y58268D02*
X234318D01*
X234711Y57953D01*
G01X236286D02*
Y58583D01*
G01Y60197D02*
X234318D01*
X234711Y59882D01*
G01X236286D02*
Y60512D01*
G01X237507Y72769D02*
Y74737D01*
X238163D01*
X238373Y74639D01*
X238504Y74508D01*
X238556Y74245D01*
X238504Y73983D01*
X238346Y73819D01*
X238163Y73720D01*
X237507D01*
G01X238163D02*
X238556Y72769D01*
G01X239961D02*
Y74737D01*
X239646Y74344D01*
G01Y72769D02*
X240276D01*
G01X241391Y74409D02*
X241548Y74606D01*
X241732Y74705D01*
X241942Y74737D01*
X242205Y74672D01*
X242389Y74508D01*
X242441Y74311D01*
X242415Y74114D01*
X242310Y73950D01*
X241785Y73622D01*
X241548Y73392D01*
X241391Y73064D01*
X241339Y72769D01*
X242441D01*
G01X249055Y70013D02*
X248845Y70046D01*
X248661Y70177D01*
X248504Y70374D01*
X248399Y70604D01*
X248346Y70866D01*
Y71128D01*
X248399Y71391D01*
X248504Y71620D01*
X248661Y71817D01*
X248845Y71949D01*
X249055Y71981D01*
X249265Y71949D01*
X249449Y71817D01*
X249606Y71620D01*
X249711Y71391D01*
X249764Y71128D01*
Y70866D01*
X249711Y70604D01*
X249606Y70374D01*
X249449Y70177D01*
X249265Y70046D01*
X249055Y70013D01*
G01X249265Y70538D02*
X249580Y70013D01*
G01X250984D02*
Y71981D01*
X250669Y71588D01*
G01Y70013D02*
X251299D01*
G01X252913Y71981D02*
X252704Y71916D01*
X252546Y71752D01*
X252441Y71555D01*
X252362Y71293D01*
X252336Y70997D01*
X252362Y70702D01*
X252441Y70439D01*
X252546Y70243D01*
X252704Y70079D01*
X252913Y70013D01*
X253123Y70079D01*
X253281Y70243D01*
X253386Y70439D01*
X253465Y70702D01*
X253491Y70997D01*
X253465Y71293D01*
X253386Y71555D01*
X253281Y71752D01*
X253123Y71916D01*
X252913Y71981D01*
G01X237310Y88320D02*
Y90289D01*
X237966D01*
X238176Y90190D01*
X238307Y90059D01*
X238359Y89796D01*
X238307Y89534D01*
X238150Y89370D01*
X237966Y89272D01*
X237310D01*
G01X237966D02*
X238359Y88320D01*
G01X239764D02*
Y90289D01*
X239449Y89895D01*
G01Y88320D02*
X240079D01*
G01X241115Y88615D02*
X241273Y88451D01*
X241457Y88353D01*
X241693Y88320D01*
X241929Y88386D01*
X242113Y88517D01*
X242244Y88746D01*
X242270Y89009D01*
X242218Y89272D01*
X242087Y89435D01*
X241903Y89567D01*
X241719Y89600D01*
X241535Y89567D01*
X241299Y89435D01*
X241378Y90289D01*
X242087D01*
G01X249449Y85761D02*
X249239Y85794D01*
X249055Y85925D01*
X248898Y86122D01*
X248793Y86352D01*
X248740Y86614D01*
Y86876D01*
X248793Y87139D01*
X248898Y87369D01*
X249055Y87565D01*
X249239Y87697D01*
X249449Y87730D01*
X249659Y87697D01*
X249843Y87565D01*
X250000Y87369D01*
X250105Y87139D01*
X250157Y86876D01*
Y86614D01*
X250105Y86352D01*
X250000Y86122D01*
X249843Y85925D01*
X249659Y85794D01*
X249449Y85761D01*
G01X249659Y86286D02*
X249974Y85761D01*
G01X251378D02*
Y87730D01*
X251063Y87336D01*
G01Y85761D02*
X251693D01*
G01X253307D02*
Y87730D01*
X252992Y87336D01*
G01Y85761D02*
X253622D01*
G01X239206Y101601D02*
X239108Y101444D01*
X239042Y101260D01*
Y101050D01*
X239141Y100814D01*
X239305Y100630D01*
X239502Y100499D01*
X239830Y100394D01*
X240125Y100367D01*
X240420Y100420D01*
X240617Y100499D01*
X240814Y100656D01*
X240945Y100840D01*
X241011Y101024D01*
Y101207D01*
X240945Y101391D01*
X240846Y101548D01*
X240715Y101680D01*
G01X241011Y102953D02*
X239042D01*
X239436Y102638D01*
G01X241011D02*
Y103268D01*
G01Y104830D02*
X240584Y104882D01*
X240223Y104961D01*
X239895Y105066D01*
X239534Y105197D01*
X239042Y105407D01*
Y104357D01*
G01X234679Y105735D02*
X234580Y105578D01*
X234515Y105394D01*
Y105184D01*
X234613Y104948D01*
X234777Y104764D01*
X234974Y104633D01*
X235302Y104528D01*
X235597Y104501D01*
X235893Y104554D01*
X236089Y104633D01*
X236286Y104790D01*
X236417Y104974D01*
X236483Y105157D01*
Y105341D01*
X236417Y105525D01*
X236319Y105682D01*
X236188Y105814D01*
G01X236483Y107087D02*
X234515D01*
X234908Y106772D01*
G01X236483D02*
Y107402D01*
G01X234843Y108517D02*
X234646Y108674D01*
X234547Y108858D01*
X234515Y109068D01*
X234580Y109331D01*
X234744Y109515D01*
X234941Y109567D01*
X235138Y109541D01*
X235302Y109436D01*
X235630Y108911D01*
X235860Y108674D01*
X236188Y108517D01*
X236483Y108465D01*
Y109567D01*
G01X234593Y121804D02*
X234436Y121903D01*
X234252Y121969D01*
X234042D01*
X233806Y121870D01*
X233622Y121706D01*
X233491Y121509D01*
X233386Y121181D01*
X233359Y120886D01*
X233412Y120591D01*
X233491Y120394D01*
X233648Y120197D01*
X233832Y120066D01*
X234016Y120000D01*
X234200D01*
X234383Y120066D01*
X234541Y120164D01*
X234672Y120295D01*
G01X236260Y120000D02*
Y121969D01*
X235289Y120558D01*
X236601D01*
G01X237296Y120295D02*
X237454Y120131D01*
X237638Y120033D01*
X237874Y120000D01*
X238110Y120066D01*
X238294Y120197D01*
X238425Y120426D01*
X238452Y120689D01*
X238399Y120952D01*
X238268Y121115D01*
X238084Y121247D01*
X237900Y121280D01*
X237717Y121247D01*
X237480Y121115D01*
X237559Y121969D01*
X238268D01*
G01X236883Y171391D02*
Y173359D01*
X237408D01*
X237618Y173261D01*
X237776Y173130D01*
X237907Y172933D01*
X238012Y172703D01*
X238038Y172375D01*
X238012Y172047D01*
X237907Y171817D01*
X237776Y171620D01*
X237618Y171489D01*
X237408Y171391D01*
X236883D01*
G01X238891Y173031D02*
X239048Y173228D01*
X239232Y173327D01*
X239442Y173359D01*
X239705Y173294D01*
X239889Y173130D01*
X239941Y172933D01*
X239915Y172736D01*
X239810Y172572D01*
X239285Y172244D01*
X239048Y172014D01*
X238891Y171686D01*
X238839Y171391D01*
X239941D01*
G01X257231Y29265D02*
Y31233D01*
X257913Y29593D01*
X258596Y31233D01*
Y29265D01*
G01X259843Y31233D02*
Y29265D01*
G01X259239Y31233D02*
X260446D01*
G01X261194Y29659D02*
X261352Y29429D01*
X261562Y29298D01*
X261798Y29265D01*
X262008Y29298D01*
X262218Y29462D01*
X262349Y29659D01*
X262375Y29856D01*
X262323Y30085D01*
X262139Y30249D01*
X261956Y30315D01*
X261719D01*
G01X261956D02*
X262113Y30413D01*
X262244Y30577D01*
X262296Y30774D01*
X262244Y30971D01*
X262113Y31135D01*
X261877Y31233D01*
X261641Y31201D01*
X261404Y31069D01*
G01X249823Y54265D02*
X249613Y54298D01*
X249429Y54429D01*
X249272Y54626D01*
X249167Y54856D01*
X249114Y55118D01*
Y55380D01*
X249167Y55643D01*
X249272Y55872D01*
X249429Y56069D01*
X249613Y56201D01*
X249823Y56233D01*
X250033Y56201D01*
X250217Y56069D01*
X250374Y55872D01*
X250479Y55643D01*
X250531Y55380D01*
Y55118D01*
X250479Y54856D01*
X250374Y54626D01*
X250217Y54429D01*
X250033Y54298D01*
X249823Y54265D01*
G01X250033Y54790D02*
X250348Y54265D01*
G01X251253Y55085D02*
X251437Y55315D01*
X251594Y55446D01*
X251804Y55512D01*
X251988Y55446D01*
X252119Y55315D01*
X252224Y55118D01*
X252251Y54888D01*
X252224Y54691D01*
X252119Y54494D01*
X251962Y54331D01*
X251778Y54265D01*
X251568Y54331D01*
X251385Y54528D01*
X251280Y54823D01*
X251253Y55151D01*
X251306Y55577D01*
X251385Y55807D01*
X251516Y56037D01*
X251700Y56201D01*
X251883Y56233D01*
X252067Y56168D01*
X252198Y56004D01*
G01X261634Y54265D02*
X261424Y54298D01*
X261240Y54429D01*
X261083Y54626D01*
X260978Y54856D01*
X260925Y55118D01*
Y55380D01*
X260978Y55643D01*
X261083Y55872D01*
X261240Y56069D01*
X261424Y56201D01*
X261634Y56233D01*
X261844Y56201D01*
X262028Y56069D01*
X262185Y55872D01*
X262290Y55643D01*
X262343Y55380D01*
Y55118D01*
X262290Y54856D01*
X262185Y54626D01*
X262028Y54429D01*
X261844Y54298D01*
X261634Y54265D01*
G01X261844Y54790D02*
X262159Y54265D01*
G01X262985Y54560D02*
X263143Y54396D01*
X263327Y54298D01*
X263563Y54265D01*
X263799Y54331D01*
X263983Y54462D01*
X264114Y54691D01*
X264141Y54954D01*
X264088Y55217D01*
X263957Y55380D01*
X263773Y55512D01*
X263589Y55544D01*
X263406Y55512D01*
X263169Y55380D01*
X263248Y56233D01*
X263957D01*
G01X262028Y70013D02*
X261818Y70046D01*
X261634Y70177D01*
X261476Y70374D01*
X261371Y70604D01*
X261319Y70866D01*
Y71128D01*
X261371Y71391D01*
X261476Y71620D01*
X261634Y71817D01*
X261818Y71949D01*
X262028Y71981D01*
X262237Y71949D01*
X262421Y71817D01*
X262579Y71620D01*
X262684Y71391D01*
X262736Y71128D01*
Y70866D01*
X262684Y70604D01*
X262579Y70374D01*
X262421Y70177D01*
X262237Y70046D01*
X262028Y70013D01*
G01X262237Y70538D02*
X262552Y70013D01*
G01X263904D02*
X263957Y70439D01*
X264035Y70800D01*
X264141Y71128D01*
X264272Y71489D01*
X264481Y71981D01*
X263432D01*
G01X261831Y85564D02*
X261621Y85597D01*
X261437Y85728D01*
X261280Y85925D01*
X261174Y86155D01*
X261122Y86417D01*
Y86680D01*
X261174Y86942D01*
X261280Y87172D01*
X261437Y87369D01*
X261621Y87500D01*
X261831Y87533D01*
X262041Y87500D01*
X262224Y87369D01*
X262382Y87172D01*
X262487Y86942D01*
X262539Y86680D01*
Y86417D01*
X262487Y86155D01*
X262382Y85925D01*
X262224Y85728D01*
X262041Y85597D01*
X261831Y85564D01*
G01X262041Y86089D02*
X262356Y85564D01*
G01X263314Y85794D02*
X263497Y85630D01*
X263707Y85564D01*
X263917Y85630D01*
X264101Y85827D01*
X264232Y86122D01*
X264285Y86417D01*
Y86778D01*
X264232Y87073D01*
X264101Y87336D01*
X263944Y87467D01*
X263760Y87533D01*
X263550Y87467D01*
X263393Y87336D01*
X263287Y87139D01*
X263235Y86876D01*
X263287Y86647D01*
X263419Y86417D01*
X263576Y86286D01*
X263760Y86253D01*
X263970Y86319D01*
X264127Y86483D01*
X264285Y86778D01*
G01X253826Y109974D02*
X253957Y109777D01*
X254114Y109646D01*
X254298Y109580D01*
X254508Y109646D01*
X254665Y109777D01*
X254823Y109974D01*
X254875Y110236D01*
Y111548D01*
G01X256227Y109580D02*
X256280Y110006D01*
X256358Y110367D01*
X256463Y110695D01*
X256594Y111056D01*
X256804Y111548D01*
X255755D01*
G01X257428Y139304D02*
Y141273D01*
X258110Y139632D01*
X258793Y141273D01*
Y139304D01*
G01X260039Y141273D02*
Y139304D01*
G01X259436Y141273D02*
X260643D01*
G01X261470Y140945D02*
X261627Y141142D01*
X261811Y141240D01*
X262021Y141273D01*
X262283Y141207D01*
X262467Y141043D01*
X262520Y140846D01*
X262493Y140650D01*
X262389Y140485D01*
X261863Y140157D01*
X261627Y139928D01*
X261470Y139600D01*
X261417Y139304D01*
X262520D01*
G01X289796Y9186D02*
Y11155D01*
X290322D01*
X290531Y11056D01*
X290689Y10925D01*
X290820Y10728D01*
X290925Y10498D01*
X290952Y10170D01*
X290925Y9843D01*
X290820Y9613D01*
X290689Y9416D01*
X290531Y9285D01*
X290322Y9186D01*
X289796D01*
G01X291726Y9481D02*
X291883Y9317D01*
X292067Y9219D01*
X292303Y9186D01*
X292539Y9252D01*
X292723Y9383D01*
X292854Y9613D01*
X292881Y9875D01*
X292828Y10138D01*
X292697Y10302D01*
X292513Y10433D01*
X292330Y10466D01*
X292146Y10433D01*
X291909Y10302D01*
X291988Y11155D01*
X292697D01*
G01X288688Y38714D02*
X288819Y38517D01*
X288976Y38386D01*
X289160Y38320D01*
X289370Y38386D01*
X289528Y38517D01*
X289685Y38714D01*
X289737Y38976D01*
Y40289D01*
G01X291142Y38320D02*
Y40289D01*
X290827Y39895D01*
G01Y38320D02*
X291457D01*
G01X293071Y40289D02*
X292861Y40223D01*
X292704Y40059D01*
X292598Y39862D01*
X292520Y39600D01*
X292493Y39304D01*
X292520Y39009D01*
X292598Y38746D01*
X292704Y38550D01*
X292861Y38386D01*
X293071Y38320D01*
X293281Y38386D01*
X293438Y38550D01*
X293543Y38746D01*
X293622Y39009D01*
X293648Y39304D01*
X293622Y39600D01*
X293543Y39862D01*
X293438Y40059D01*
X293281Y40223D01*
X293071Y40289D01*
G01X290190Y74541D02*
Y76509D01*
X290715D01*
X290925Y76411D01*
X291083Y76280D01*
X291214Y76083D01*
X291319Y75853D01*
X291345Y75525D01*
X291319Y75197D01*
X291214Y74967D01*
X291083Y74770D01*
X290925Y74639D01*
X290715Y74541D01*
X290190D01*
G01X292198Y75361D02*
X292382Y75591D01*
X292539Y75722D01*
X292749Y75787D01*
X292933Y75722D01*
X293064Y75591D01*
X293169Y75394D01*
X293196Y75164D01*
X293169Y74967D01*
X293064Y74770D01*
X292907Y74606D01*
X292723Y74541D01*
X292513Y74606D01*
X292330Y74803D01*
X292224Y75098D01*
X292198Y75426D01*
X292251Y75853D01*
X292330Y76083D01*
X292461Y76312D01*
X292644Y76476D01*
X292828Y76509D01*
X293012Y76443D01*
X293143Y76280D01*
G01X288885Y104462D02*
X289016Y104265D01*
X289173Y104134D01*
X289357Y104068D01*
X289567Y104134D01*
X289724Y104265D01*
X289882Y104462D01*
X289934Y104724D01*
Y106037D01*
G01X291339Y104068D02*
Y106037D01*
X291024Y105643D01*
G01Y104068D02*
X291654D01*
G01X293268D02*
Y106037D01*
X292953Y105643D01*
G01Y104068D02*
X293583D01*
G01X289600Y139895D02*
Y141863D01*
X290125D01*
X290335Y141765D01*
X290492Y141634D01*
X290623Y141437D01*
X290728Y141207D01*
X290755Y140879D01*
X290728Y140551D01*
X290623Y140321D01*
X290492Y140124D01*
X290335Y139993D01*
X290125Y139895D01*
X289600D01*
G01X292054D02*
X292106Y140321D01*
X292185Y140682D01*
X292290Y141010D01*
X292421Y141371D01*
X292631Y141863D01*
X291581D01*
G01X289081Y170013D02*
X289213Y169816D01*
X289370Y169685D01*
X289554Y169619D01*
X289764Y169685D01*
X289921Y169816D01*
X290079Y170013D01*
X290131Y170276D01*
Y171588D01*
G01X291535Y169619D02*
Y171588D01*
X291220Y171194D01*
G01Y169619D02*
X291850D01*
G01X292966Y171260D02*
X293123Y171457D01*
X293307Y171555D01*
X293517Y171588D01*
X293780Y171522D01*
X293963Y171358D01*
X294016Y171161D01*
X293989Y170965D01*
X293885Y170800D01*
X293359Y170472D01*
X293123Y170243D01*
X292966Y169915D01*
X292913Y169619D01*
X294016D01*
G54D13*
G01X0Y0D02*
Y143099D01*
G01Y0D02*
X301000D01*
X307000Y6000D01*
Y204000D01*
X301000Y210000D01*
X0D01*
Y167902D01*
X33937D01*
G02X37874Y163965I0J-3937D01*
G01Y147036D01*
G02X33937Y143099I-3937J0D01*
G01X0D01*
M02*
