G04 ================== begin FILE IDENTIFICATION RECORD ==================*
G04 Layout Name:  Netduino3Ethernet_17Dec16.brd*
G04 Film Name:    L3-PWR*
G04 File Format:  Gerber RS274X*
G04 File Origin:  Cadence Allegro 16.6-2015-S069*
G04 Origin Date:  Sat Dec 17 09:35:35 2016*
G04 *
G04 Layer:  VIA CLASS/L3-PWR*
G04 Layer:  PIN/L3-PWR*
G04 Layer:  ETCH/L3-PWR*
G04 *
G04 Offset:    (0.0000 0.0000)*
G04 Mirror:    No*
G04 Mode:      Positive*
G04 Rotation:  0*
G04 FullContactRelief:  No*
G04 UndefLineWidth:     0.1270*
G04 ================== end FILE IDENTIFICATION RECORD ====================*
%FSLAX25Y25*MOIN*%
%IR0*IPPOS*OFA0.00000B0.00000*MIA0B0*SFA1.00000B1.00000*%
%ADD13C,.035433*%
%ADD11C,.021654*%
%ADD10C,.026*%
%ADD12C,.072835*%
%ADD14C,.01*%
%ADD21C,.055134*%
%ADD18C,.041354*%
%ADD15C,.16537*%
%ADD16C,.120094*%
%ADD20C,.082299*%
%ADD19C,.045701*%
%ADD17R,.064976X.074819*%
G75*
%LPD*%
G75*
G36*
G01X1969Y1969D02*
Y28020D01*
G02X4717Y29057I1570J0D01*
G03Y36343I4141J3643D01*
G02X1969Y37380I-1179J1037D01*
G01Y73021D01*
X9253D01*
Y80207D01*
X1969D01*
Y99497D01*
X9253D01*
Y106684D01*
X1969D01*
Y140748D01*
X11618D01*
G02X12880Y138244I0J-1570D01*
G03X26332I6726J-4976D01*
G02X27594Y140748I1262J934D01*
G01X34449D01*
G03X40354Y146654I0J5906D01*
G01Y164370D01*
G03X34449Y170276I-5906J0D01*
G01X27594D01*
G02X26332Y172780I0J1570D01*
G03X12880I-6726J4976D01*
G02X11618Y170276I-1262J-934D01*
G01X1969D01*
Y207677D01*
X52286D01*
G02X53517Y205133I0J-1570D01*
G03X67636Y196828I6483J-5132D01*
G02X70331Y197181I1450J-602D01*
G03X77733Y197267I3669J2819D01*
G02X80267I1267J-928D01*
G03X87733I3733J2733D01*
G02X90267I1267J-928D01*
G03X97733I3733J2733D01*
G02X100267I1267J-928D01*
G03X107733I3733J2733D01*
G02X110267I1267J-928D01*
G03X117733I3733J2733D01*
G02X120267I1267J-928D01*
G03X127733I3733J2733D01*
G02X130267I1267J-928D01*
G03X137733I3733J2733D01*
G02X140267I1267J-928D01*
G03X147733I3733J2733D01*
G02X150267I1267J-928D01*
G03X156840Y196347I3733J2733D01*
G02X159350Y195373I963J-1240D01*
G01X168627D01*
Y204627D01*
X159350D01*
G02X156840Y203653I-1547J266D01*
G03X150267Y202733I-2840J-3653D01*
G02X147733I-1267J928D01*
G03X140267I-3733J-2733D01*
G02X137733I-1267J928D01*
G03X130267I-3733J-2733D01*
G02X127733I-1267J928D01*
G03X120267I-3733J-2733D01*
G02X117733I-1267J928D01*
G03X110267I-3733J-2733D01*
G02X107733I-1267J928D01*
G03X100267I-3733J-2733D01*
G02X97733I-1267J928D01*
G03X90267I-3733J-2733D01*
G02X87733I-1267J928D01*
G03X80267I-3733J-2733D01*
G02X77733I-1267J928D01*
G03X70331Y202819I-3733J-2733D01*
G02X67636Y203172I-1245J956D01*
G03X66483Y205133I-7636J-3173D01*
G02X67714Y207677I1231J974D01*
G01X300197D01*
X305118Y202756D01*
Y6890D01*
X300197Y1969D01*
X1969D01*
G37*
%LPC*%
G75*
G36*
G01X45574Y184350D02*
G03X46024Y185038I-335J710D01*
G02X48973Y183111I2067J-58D01*
G03X48524Y182422I335J-710D01*
G02X45574Y184350I-2067J58D01*
G37*
G36*
G01X221633Y181422D02*
G03X222370Y180806I767J169D01*
G02X220272Y178295I-79J-2066D01*
G03X219535Y178910I-767J-169D01*
G02X217648Y180335I79J2066D01*
G03X216909Y180877I-746J-243D01*
G02X218895Y183586I20J2068D01*
G03X219634Y183044I746J243D01*
G02X221633Y181422I-20J-2068D01*
G37*
G36*
G01X278221Y99593D02*
G03X278378Y98488I625J-475D01*
G02X275497Y98080I-1234J-1659D01*
G03X275341Y99185I-625J475D01*
G02X278221Y99593I1234J1659D01*
G37*
G36*
G01X35417Y95724D02*
G02X36236Y92858I1787J-1039D01*
G02X35417Y95724I-1787J1039D01*
G37*
G36*
G01X46891Y93884D02*
G03Y92927I623J-478D01*
G02X43267I-1812J-1392D01*
G03Y93884I-623J478D01*
G02X46891I1812J1392D01*
G37*
G36*
G01X49002Y75747D02*
G03X48045I-478J-623D01*
G02Y79371I-1392J1812D01*
G03X49002I478J623D01*
G02X51785I1392J-1812D01*
G03X52742I478J623D01*
G02Y75747I1392J-1812D01*
G03X51785I-478J-623D01*
G02X49002I-1392J1812D01*
G37*
G36*
G01X289044Y71924D02*
G03X289911Y71869I474J626D01*
G02X289696Y68431I1034J-1791D01*
G03X288829Y68485I-474J-626D01*
G02X289044Y71924I-1034J1791D01*
G37*
G36*
G01X31972Y70386D02*
G03X31945Y69303I554J-556D01*
G02X28954Y69378I-1531J-1389D01*
G03X28980Y70461I-554J556D01*
G02X31972Y70386I1531J1389D01*
G37*
G36*
G01X32196Y55333D02*
G03X31189I-504J-602D01*
G02X28035Y58625I-1465J1753D01*
G03Y59682I-580J528D01*
G02X32004Y61055I1690J1538D01*
G03X33607Y59371I1566J-114D01*
G02X32196Y55333I55J-2284D01*
G37*
G36*
G01X183733Y197267D02*
G02Y202733I-3733J2733D01*
G03X186267I1267J928D01*
G02X193733I3733J-2733D01*
G03X196267I1267J928D01*
G02X203733I3733J-2733D01*
G03X206267I1267J928D01*
G02X213733I3733J-2733D01*
G03X216267I1267J928D01*
G02X223733I3733J-2733D01*
G03X226267I1267J928D01*
G02X233733I3733J-2733D01*
G03X236267I1267J928D01*
G02X242840Y203653I3733J-2733D01*
G03X245350Y204627I963J1240D01*
G01X254627D01*
Y195373D01*
X245350D01*
G03X242840Y196347I-1547J-266D01*
G02X236267Y197267I-2840J3653D01*
G03X233733I-1267J-928D01*
G02X226267I-3733J2733D01*
G03X223733I-1267J-928D01*
G02X216267I-3733J2733D01*
G03X213733I-1267J-928D01*
G02X206267I-3733J2733D01*
G03X203733I-1267J-928D01*
G02X196267I-3733J2733D01*
G03X193733I-1267J-928D01*
G02X186267I-3733J2733D01*
G03X183733I-1267J-928D01*
G37*
G36*
G01X293526Y84614D02*
G02X290328Y85734I-1991J-559D01*
G03X290923Y87433I-917J1275D01*
G02X294121Y86313I1991J559D01*
G03X293526Y84614I917J-1275D01*
G37*
G36*
G01X26522Y78411D02*
G02X22691I-1916J-1245D01*
G03Y79267I-658J428D01*
G02Y81757I1916J1245D01*
G03Y82613I-658J428D01*
G02X25863Y85767I1916J1245D01*
G03X27868Y85999I864J1311D01*
G02X27852Y82875I1660J-1570D01*
G03X26593Y82730I-576J-533D01*
G02X26522Y82613I-1987J1128D01*
G03Y81757I658J-428D01*
G02Y79267I-1916J-1245D01*
G03Y78411I658J-428D01*
G37*
G36*
G01X76988Y63171D02*
G02X73082Y63503I-1897J822D01*
G03X71323Y64683I-1525J-373D01*
G02X72299Y68349I-307J2045D01*
G02X75879Y66552I1559J-1358D01*
G03X76218Y65727I767J-167D01*
G02X76696Y65297I-1127J-1733D01*
G03X78090Y65780I609J495D01*
G02X79175Y63929I2067J-32D01*
G03X76988Y63171I-746J-1382D01*
G37*
G36*
G01X293941Y57026D02*
G02X292655Y54212I1432J-2356D01*
G03X290479Y55391I-1548J-261D01*
G02X291627Y57901I-826J1895D01*
G03X293941Y57026I1499J467D01*
G37*
G36*
G01X114911Y47787D02*
G02X112404Y45874I-443J-2020D01*
G03X111172Y47488I-1568J80D01*
G02X113679Y49402I443J2020D01*
G03X114911Y47787I1568J-80D01*
G37*
G36*
G01X293214Y40493D02*
G02X290678Y39694I-793J-1910D01*
G03X289956Y41988I-1324J844D01*
G02X292492Y42786I793J1910D01*
G03X293214Y40493I1324J-844D01*
G37*
G36*
G01X171162Y32480D02*
X171067Y31803D01*
G02X166972I-2048J286D01*
G01X166877Y32480D01*
X118687D01*
X115157Y36009D01*
Y36883D01*
G03X113118Y38381I-1570J0D01*
G02X114559Y40161I-618J1973D01*
G01X114524Y39794D01*
X115340Y38978D01*
X116718Y40355D01*
X117702D01*
X126021Y48674D01*
X125830Y49154D01*
G02X128798Y52123I2123J846D01*
G01X129279Y51931D01*
X129920Y52573D01*
Y66521D01*
X127545Y68897D01*
X123439D01*
X116841Y62298D01*
G03X116745Y60183I1110J-1110D01*
G02X113433Y57718I-1588J-1324D01*
G01X113200Y58070D01*
X102939D01*
X101377Y59631D01*
Y67337D01*
X103263Y69223D01*
G03X103433Y71243I-1110J1110D01*
G02X106316Y74126I1685J1198D01*
G03X108336Y74296I910J1280D01*
G01X110235Y76195D01*
Y80132D01*
X114750Y84646D01*
X122624D01*
X123031Y85054D01*
Y90625D01*
X122570Y90834D01*
G02X122534Y94582I855J1883D01*
G03X122970Y95424I-338J708D01*
G02X123006Y96292I2038J351D01*
G01X123031Y96389D01*
Y97540D01*
X122949Y97705D01*
G02Y99538I1854J917D01*
G01X123031Y99702D01*
Y101954D01*
X122183Y102802D01*
X121645Y102431D01*
G02X119260Y102459I-1173J1703D01*
G03X118339I-461J-636D01*
G02X115913I-1213J1675D01*
G03X114992I-461J-636D01*
G02X112055Y102994I-1213J1675D01*
G01X111822Y103346D01*
X54710D01*
X51757Y106298D01*
X45683D01*
X39778Y100393D01*
X37978D01*
X36417Y101954D01*
Y108676D01*
X43068Y115328D01*
X42824Y115830D01*
G02X46568Y117587I1861J902D01*
G01X46777Y117127D01*
X91128D01*
X103346Y129345D01*
Y136810D01*
X100970D01*
X99409Y138372D01*
Y178149D01*
X92509D01*
X92378Y177526D01*
G02X88331I-2023J427D01*
G01X88200Y178149D01*
X82269D01*
X80708Y179710D01*
Y182494D01*
X81277Y183064D01*
X81337Y183220D01*
G02X82528Y184411I1931J-739D01*
G01X82684Y184471D01*
X89159Y190946D01*
X169699D01*
X213393Y147252D01*
G03X215720Y147370I1110J1110D01*
G02X218630Y144461I1602J-1307D01*
G03X218511Y142133I992J-1217D01*
G01X229331Y131313D01*
Y130700D01*
G03X231382Y129206I1570J0D01*
G02X232115Y125172I633J-1969D01*
G03X231376Y124502I38J-784D01*
G02X231276Y124102I-2046J300D01*
G01X231107Y123633D01*
X233676Y121064D01*
X246069D01*
X246268Y121552D01*
G02X254284Y122536I4283J-1749D01*
G03X256818I1267J928D01*
G02X263284Y116070I3733J-2733D01*
G03Y113536I928J-1267D01*
G02Y106070I-2733J-3733D01*
G03Y103536I928J-1267D01*
G02X263996Y96715I-2733J-3733D01*
G01X263500Y96161D01*
X266733Y92928D01*
Y73411D01*
X261235Y67913D01*
X252545D01*
X250884Y69573D01*
X250637Y69615D01*
G02X248946Y71307I347J2039D01*
G01X248904Y71554D01*
X247624Y72834D01*
X245487D01*
X242127Y69474D01*
Y62416D01*
X248439Y56103D01*
X251489D01*
X251725Y56401D01*
G02X252904Y57138I1621J-1283D01*
G03X254136Y58739I-336J1534D01*
G02X254134Y58941I2754J122D01*
G03X253403Y59748I-785J24D01*
G02X255573Y62207I141J2063D01*
G03X256464Y61582I770J150D01*
G02X258453Y56587I426J-2724D01*
G03X258233Y54184I890J-1293D01*
G01X259843Y52573D01*
Y49789D01*
X258282Y48228D01*
X253137D01*
X252974Y47659D01*
G02X249459Y46834I-1988J569D01*
G02X246197Y47713I-1320J1591D01*
G01X246008Y48228D01*
X244502D01*
X238612Y42337D01*
G03X238720Y40018I1110J-1110D01*
G02X235481Y37658I-1319J-1593D01*
G01X235422Y37808D01*
X234752Y38477D01*
X233269Y36994D01*
Y34041D01*
X231707Y32480D01*
X171162D01*
G37*
G36*
G01X264889Y20894D02*
G02X261575Y19786I-1306J-1603D01*
G03X260043Y21731I-1524J376D01*
G02X264942Y23371I-43J8268D01*
G03X264889Y20894I938J-1259D01*
G37*
G36*
G01X204650Y5373D02*
X195373D01*
Y14627D01*
X204650D01*
G03X207160Y13653I1547J266D01*
G02X213733Y12733I2840J-3653D01*
G03X216267I1267J928D01*
G02X223733I3733J-2733D01*
G03X226267I1267J928D01*
G02X233733I3733J-2733D01*
G03X236267I1267J928D01*
G02X243733I3733J-2733D01*
G03X246267I1267J928D01*
G02Y7267I3733J-2733D01*
G03X243733I-1267J-928D01*
G02X236267I-3733J2733D01*
G03X233733I-1267J-928D01*
G02X226267I-3733J2733D01*
G03X223733I-1267J-928D01*
G02X216267I-3733J2733D01*
G03X213733I-1267J-928D01*
G02X207160Y6347I-3733J2733D01*
G03X204650Y5373I-963J-1240D01*
G37*
G36*
G01X163733Y7267D02*
G02Y12733I-3733J2733D01*
G03X166267I1267J928D01*
G02X173733I3733J-2733D01*
G03X176267I1267J928D01*
G02Y7267I3733J-2733D01*
G03X173733I-1267J-928D01*
G02X166267I-3733J2733D01*
G03X163733I-1267J-928D01*
G37*
G36*
G01X114650Y5373D02*
X105373D01*
Y14627D01*
X114650D01*
G03X117160Y13653I1547J266D01*
G02X123733Y12733I2840J-3653D01*
G03X126267I1267J928D01*
G02X133733I3733J-2733D01*
G03X136267I1267J928D01*
G02Y7267I3733J-2733D01*
G03X133733I-1267J-928D01*
G02X126267I-3733J2733D01*
G03X123733I-1267J-928D01*
G02X117160Y6347I-3733J2733D01*
G03X114650Y5373I-963J-1240D01*
G37*
G54D21*
X271260Y51378D03*
X268602Y67126D03*
X271824Y82604D03*
X283661Y53976D03*
X285630Y119685D03*
X283661Y184528D03*
X299016Y25472D03*
Y90748D03*
Y119291D03*
Y156024D03*
Y184528D03*
G54D18*
X28248Y120472D03*
X50197Y66142D03*
X45472Y70768D03*
X62992Y66929D03*
X58858Y62205D03*
X96063Y68701D03*
X173228Y28150D03*
X189587Y21437D03*
X215157Y162992D03*
X202559Y163976D03*
X230906Y135236D03*
X226378Y183071D03*
X245866Y67126D03*
X241142Y187795D03*
X250787Y21457D03*
X252756Y128150D03*
X281299Y10039D03*
X271654Y42126D03*
X276983Y37022D03*
X276969Y45276D03*
X280512Y72441D03*
X279528Y86417D03*
X276575Y121457D03*
X276378Y139370D03*
X271161Y176476D03*
X265748Y171063D03*
X292520Y105000D03*
X281596Y125467D03*
X290524Y125564D03*
X289764Y188386D03*
G54D15*
X260000Y140000D03*
G54D16*
X24606Y32700D03*
X33661Y19708D03*
Y45692D03*
G54D20*
X60118Y138031D03*
Y148031D03*
X50118Y143031D03*
Y153031D03*
X60118Y168031D03*
X50118Y163031D03*
X60118Y158031D03*
X50118Y173031D03*
G54D19*
X51378Y100197D03*
G54D17*
X16339Y80010D03*
Y99695D03*
%LPD*%
G75*
G36*
G01X119094Y33465D02*
X116142Y36417D01*
Y38386D01*
X117126Y39370D01*
X118110D01*
X123862Y45122D01*
G02X126186Y45007I1110J-1110D01*
G03X129819Y47775I1767J1449D01*
G02Y48681I641J453D01*
G03X130112Y50747I-1866J1319D01*
G01X129952Y51211D01*
X130906Y52165D01*
Y66929D01*
X127953Y69882D01*
X123031D01*
X122399Y69250D01*
X121798Y69851D01*
X121761Y69904D01*
G03X118139Y69416I-1682J-1203D01*
G02X116016Y68530I-1473J543D01*
G03X114556Y64669I-855J-1883D01*
G02X115207Y62058I-459J-1501D01*
G01X112205Y59055D01*
X103346D01*
X102362Y60039D01*
Y66929D01*
X106000Y70567D01*
X106101Y70622D01*
G03X106937Y71458I-983J1819D01*
G01X106992Y71559D01*
X111220Y75787D01*
Y76581D01*
X111302Y76745D01*
G03Y78767I-2050J1011D01*
G01X111220Y78931D01*
Y79724D01*
X115157Y83661D01*
X123031D01*
X124016Y84646D01*
Y87889D01*
G02X126437Y89208I1570J0D01*
G03X129223Y89717I1122J1737D01*
G02X130306Y89893I632J-466D01*
G03X129832Y92812I1190J1691D01*
G02X128749Y92636I-632J466D01*
G03X127024Y92942I-1190J-1691D01*
G02X125240Y93707I-406J1517D01*
G03X124422Y94528I-1815J-991D01*
G01X124016Y94752D01*
Y95769D01*
G02X124801Y96554I785J0D01*
G03X126451Y99870I2J2068D01*
G03X127164Y101105I-1325J1588D01*
G02X129148Y102345I1547J-268D01*
G03X127687Y104683I576J1986D01*
G02X125702Y103443I-1547J268D01*
G03X124029Y103210I-576J-1986D01*
G01X123500Y102878D01*
X122543Y103835D01*
X122540Y104155D01*
G03X119260Y105809I-2068J-21D01*
G02X118339I-461J636D01*
G03X115913I-1213J-1675D01*
G02X114992I-461J636D01*
G03X111838Y104846I-1213J-1675D01*
G01X111650Y104331D01*
X55118D01*
X52165Y107283D01*
X50488D01*
G02X48918Y108856I0J1570D01*
G03X45043Y107855I-2068J3D01*
G01X45330Y107337D01*
X39370Y101378D01*
X38386D01*
X37402Y102362D01*
Y108268D01*
X43907Y114773D01*
X44312Y114698D01*
G03X46496Y115735I373J2034D01*
G01X46720Y116142D01*
X91535D01*
X104331Y128937D01*
Y136810D01*
X104331Y139356D01*
X110644Y145669D01*
X123032D01*
X123659Y145042D01*
G02X123104Y143702I-555J-555D01*
G01X120655D01*
X115709Y138756D01*
X115233Y138938D01*
G03X112562Y136267I-741J-1930D01*
G01X112744Y135791D01*
X112204Y135250D01*
Y124424D01*
X110989Y123209D01*
X110260Y123939D01*
X110217Y124181D01*
G03X109016Y121927I-2036J-363D01*
G02X111210Y120665I634J-1436D01*
G01X112110Y119765D01*
X111502Y119156D01*
X111440Y119114D01*
G03X111105Y115972I1159J-1712D01*
G02X111360Y114153I-1134J-1086D01*
G03X114682Y114619I1829J-964D01*
G02X114428Y116437I1134J1086D01*
G03X114559Y118059I-1829J964D01*
G01X114518Y118181D01*
Y119094D01*
X115565D01*
X120901Y124430D01*
G02X123302Y124215I1110J-1110D01*
G03X124475Y123394I1699J1179D01*
G02X125044Y122473I-199J-759D01*
G03X128693Y123325I2023J-426D01*
G02X128863Y125449I1234J970D01*
G03X129373Y127754I-1402J1520D01*
G02X130826Y129920I1452J596D01*
G01X131313D01*
X133238Y131845D01*
X133918Y131165D01*
X133978Y130998D01*
G03X134201Y130552I1947J695D01*
G02Y129685I-655J-433D01*
G03X137649I1724J-1141D01*
G02Y130552I655J433D01*
G03X137498Y133035I-1724J1141D01*
G02Y135075I1194J1020D01*
G03X137632Y135250I-1573J1342D01*
G01X137673Y135311D01*
X138280Y135917D01*
X145669Y128529D01*
Y123769D01*
X145641Y123669D01*
G03Y122591I1996J-539D01*
G01X145669Y122491D01*
Y116757D01*
X145208Y116548D01*
G03X144922Y116389I856J-1882D01*
G02X144055I-433J655D01*
G03X141750Y112956I-1141J-1724D01*
G02X142344Y111130I-883J-1298D01*
G03X146067Y111492I1947J-696D01*
G02X146555Y112657I674J402D01*
G03X146917Y112782I-490J2009D01*
G01X147411Y113006D01*
X150852Y109566D01*
X162140D01*
X168542Y115967D01*
G02X170789Y115940I1110J-1110D01*
G03X173712Y118863I1498J1426D01*
G02X173685Y121110I1083J1137D01*
G01X180519Y127945D01*
G02X182846Y127827I1110J-1110D01*
G03X183999Y131152I1602J1307D01*
G02X182087Y132685I-341J1533D01*
G01Y150998D01*
X166037Y167048D01*
X166044Y167382D01*
G03X161970Y167920I-2067J39D01*
G01X161822Y167324D01*
X160163D01*
X159954Y167784D01*
G03X156188I-1883J-855D01*
G01X155979Y167324D01*
X148214D01*
X144684Y163794D01*
Y156497D01*
X129922D01*
Y162812D01*
X130071Y163019D01*
G03X130238Y163291I-1674J1214D01*
G02X131687Y163166I699J-357D01*
G03X135276Y162488I1975J613D01*
G02X137655Y162573I1226J-981D01*
G03X137559Y165268I1518J1403D01*
G02X135180Y165183I-1226J981D01*
G03X133254Y165807I-1518J-1404D01*
G02X131385Y167166I-310J1539D01*
G03X128908Y168953I-2054J-237D01*
G02X127039Y170228I-321J1537D01*
G03X126283Y171504I-2039J-345D01*
G01X125985Y171739D01*
Y173805D01*
X128938Y176757D01*
Y182494D01*
X127376Y184056D01*
X104907D01*
X99985Y179134D01*
X92052D01*
G03X88657I-1697J-1181D01*
G01X82677D01*
X81693Y180118D01*
Y182087D01*
X89567Y189961D01*
X169291D01*
X228346Y130906D01*
Y126661D01*
X228048Y126425D01*
G03X229933Y122825I1282J-1622D01*
G01X230384Y122963D01*
X233268Y120079D01*
X245878D01*
X245945Y119368D01*
G03X247818Y116070I4606J436D01*
G02Y113536I-928J-1267D01*
G03X246051Y108727I2733J-3733D01*
G02X244509Y106792I-1527J-365D01*
G03X242992Y103298I-20J-2068D01*
G03X244527Y99803I1496J-1428D01*
G02X246076Y98631I30J-1570D01*
G03X254284Y97070I4476J1173D01*
G02X256818I1267J-928D01*
G03X262157Y95464I3733J2733D01*
G01X262629Y95639D01*
X265748Y92520D01*
Y89585D01*
G02X263581Y88133I-1570J0D01*
G03Y84308I-786J-1913D01*
G02X265748Y82856I597J-1452D01*
G01Y73819D01*
X260827Y68898D01*
X258734D01*
G02X257173Y70640I0J1570D01*
G03X257009Y71704I-2055J227D01*
G02X257880Y73805I1435J636D01*
G03X255414Y78706I-990J2573D01*
G02X254365Y78898I-421J663D01*
G03X253387Y75704I-1654J-1240D01*
G02X254363Y75276I256J-742D01*
G03X254586Y74864I2527J1102D01*
G02X254070Y72648I-1312J-862D01*
G03X253881Y72523I1048J-1783D01*
G02X252744Y72740I-470J629D01*
G03X249644Y73228I-1759J-1086D01*
G01X249092Y72758D01*
X248031Y73819D01*
X247381D01*
Y74807D01*
X247479Y74984D01*
G03X244035Y74717I-1809J1000D01*
G02X243905Y72645I-1241J-962D01*
G01X241142Y69882D01*
Y68555D01*
X241115Y68454D01*
G03Y67373I1996J-541D01*
G01X241142Y67272D01*
Y62008D01*
X248031Y55118D01*
X251196D01*
X251359Y54549D01*
G03X254902Y53756I1988J569D01*
G02X257193Y53831I1181J-1035D01*
G01X258858Y52165D01*
Y50197D01*
X257874Y49213D01*
X252843D01*
X252607Y49511D01*
G03X249665Y49819I-1622J-1283D01*
G03X246413Y49565I-1527J-1394D01*
G01X246180Y49213D01*
X244094D01*
X244038Y49156D01*
G02X241393Y49939I-1110J1110D01*
G03X239088Y51556I-2022J-431D01*
G02X237304Y53128I-214J1555D01*
G03X235518Y51101I-2068J22D01*
G02X237302Y49530I214J-1555D01*
G03X238939Y47485I2068J-22D01*
G02X239722Y44840I-327J-1535D01*
G01X238575Y43693D01*
G02X235951Y44388I-1110J1110D01*
G03X233410Y41847I-1994J-547D01*
G02X234104Y39222I-416J-1514D01*
G01X232283Y37402D01*
Y34449D01*
X231299Y33465D01*
X182376D01*
G02X180892Y35546I0J1570D01*
G03X180781Y37155I-1955J674D01*
G02X181079Y38981I1401J710D01*
G03X181145Y39050I-1450J1474D01*
G02X182363Y38969I576J-533D01*
G03X186121Y40076I1692J1189D01*
G02X187875Y41573I1569J-62D01*
G03X186052Y43708I243J2053D01*
G02X184298Y42211I-1569J62D01*
G03X182906Y41876I-243J-2053D01*
G02X180994Y42004I-873J1305D01*
G03X177781Y39519I-1368J-1551D01*
G02X177484Y37692I-1401J-710D01*
G03X176982Y35546I1453J-1471D01*
G02X175498Y33465I-1484J-512D01*
G01X170591D01*
X170370Y33655D01*
G03X169987Y33917I-1352J-1565D01*
G02X169383Y36125I735J1387D01*
G03X166119Y38627I-1763J1081D01*
G02X165009Y38597I-570J540D01*
G03X161883Y35924I-1422J-1501D01*
G02X160590Y33465I-1294J-889D01*
G01X119094D01*
G37*
G36*
G01X101378Y137795D02*
X100394Y138780D01*
Y178150D01*
X105315Y183071D01*
X112328D01*
G02X113889Y181669I0J-1570D01*
G03X117229Y180269I2056J221D01*
G02X118204I487J-615D01*
G03X121544Y181669I1284J1620D01*
G02X123105Y183071I1561J-168D01*
G01X126969D01*
X127953Y182087D01*
Y177165D01*
X125000Y174213D01*
Y172033D01*
X124431Y171870D01*
G03X125709Y167940I569J-1988D01*
G01X126180Y168111D01*
X127246Y167045D01*
X127270Y166758D01*
G03X128476Y165046I2061J171D01*
G01X128937Y164837D01*
Y156496D01*
X124016D01*
X121063Y153543D01*
Y146654D01*
X110236D01*
X103346Y139764D01*
Y137795D01*
X101378D01*
G37*
G36*
G01X141732Y148622D02*
X142717Y147638D01*
Y144612D01*
X142256Y144403D01*
G03X141168Y141810I854J-1883D01*
G01X141340Y141340D01*
X137689Y137689D01*
X137146Y138086D01*
G03X134256Y135196I-1221J-1669D01*
G01X134654Y134654D01*
X130906Y130906D01*
X127425D01*
X127216Y131062D01*
G03X123917Y129232I-1239J-1655D01*
G01X123947Y128869D01*
X115157Y120079D01*
X113189D01*
X112205Y121063D01*
Y123031D01*
X113189Y124016D01*
Y129921D01*
X119094D01*
X120364Y131191D01*
X120815Y131054D01*
G03X123172Y134125I602J1978D01*
G01X122843Y134654D01*
X124016Y135827D01*
X124551D01*
X124700Y135763D01*
G03X126336I818J1899D01*
G01X126484Y135827D01*
X127953D01*
X134609Y142483D01*
X135156Y142063D01*
G03X138056Y144962I1261J1638D01*
G01X137635Y145509D01*
X140748Y148622D01*
X141732D01*
G37*
G36*
G01X146654Y118111D02*
Y124317D01*
G02X148735Y125801I1570J0D01*
G03X148852Y125765I676J1954D01*
G02X149231Y124492I-212J-756D01*
G03X151879Y124886I1556J-1362D01*
G02X151284Y126883I828J1334D01*
G03X148143Y129390I-1874J873D01*
G02X146070Y129520I-962J1241D01*
G01X138780Y136811D01*
Y137387D01*
X142067Y140674D01*
X142516Y140539D01*
G03X144108Y144331I594J1981D01*
G01X143702Y144555D01*
Y148046D01*
X143212Y148536D01*
X143190Y148562D01*
G03X142935Y148817I-1584J-1329D01*
G01X142908Y148839D01*
X142140Y149607D01*
X140340D01*
X140142Y149409D01*
G02X138073Y149276I-1110J1110D01*
G03X135186Y146359I-1263J-1638D01*
G02X135078Y145276I-617J-485D01*
G03X134358Y143883I1340J-1575D01*
G01X134333Y143600D01*
X131302Y140569D01*
G02X128764Y141028I-1110J1110D01*
G03X124887Y139631I-1881J-859D01*
G03X123499Y137216I631J-1969D01*
G01X123591Y136796D01*
X121874Y135078D01*
X121525Y135096D01*
G03X119472Y132330I-108J-2065D01*
G01X119641Y131861D01*
X118687Y130906D01*
X113189D01*
Y133380D01*
G02X114644Y134946I1570J0D01*
G03X116482Y137569I-152J2062D01*
G01X116358Y138011D01*
X121063Y142717D01*
X124016D01*
X125000Y143701D01*
Y145669D01*
X124016Y146654D01*
X122048D01*
Y153135D01*
X124424Y155511D01*
X129922D01*
Y155512D01*
X145261D01*
X146246Y154527D01*
X150561D01*
X150832Y155148D01*
X155132Y159448D01*
X158057D01*
X162629Y154876D01*
X162688Y154748D01*
G03X163385Y153914I1879J863D01*
G01Y144277D01*
X169868Y137794D01*
X170852D01*
X172129Y136518D01*
X171994Y136069D01*
G03X171913Y135310I1981J-593D01*
G01X171942Y134949D01*
X155104Y118111D01*
X146654D01*
G37*
G36*
G01X151260Y110551D02*
X147996Y113815D01*
X148085Y114233D01*
G03X148068Y115172I-2022J432D01*
G02X149590Y117126I1522J384D01*
G01X153818D01*
G02X155328Y115126I0J-1570D01*
G03X158034Y116500I1989J-565D01*
G02X157469Y119083I545J1472D01*
G01X172394Y134008D01*
X172919Y133696D01*
G03X173265Y137417I1056J1778D01*
G01X172794Y137245D01*
X171260Y138780D01*
X170276D01*
X164370Y144685D01*
Y153456D01*
X164993Y153587D01*
G03X163397Y157315I-426J2023D01*
G02X161398Y157499I-888J1295D01*
G01X158465Y160433D01*
X158398D01*
G02X156830Y161937I0J1570D01*
G03X153315Y160374I-2066J-87D01*
G02X153370Y159313I-550J-560D01*
G03X153084Y158861I1591J-1321D01*
G01X153026Y158734D01*
X149803Y155512D01*
X146654D01*
X145669Y156496D01*
Y163386D01*
X148622Y166339D01*
X156036D01*
X156259Y165932D01*
G03X159882I1811J997D01*
G01X160106Y166339D01*
X162179D01*
X162413Y166067D01*
G03X165113Y165694I1563J1354D01*
G01X165647Y166046D01*
X181102Y150591D01*
Y129921D01*
X178897Y127716D01*
G02X176244Y128534I-1110J1110D01*
G03X173828Y126118I-2031J-385D01*
G02X174646Y123465I-292J-1543D01*
G01X161732Y110551D01*
X151260D01*
G37*
%LPC*%
G75*
G36*
G01X166716Y175685D02*
G03X167535Y175540I526J583D01*
G02X166922Y172087I772J-1918D01*
G03X166103Y172232I-526J-583D01*
G02X163304Y173743I-772J1918D01*
G02X165019Y176194I-311J2044D01*
G02X166716Y175685I311J-2044D01*
G37*
G36*
G01X221200Y132951D02*
G03X222074Y132744I585J523D01*
G02X221293Y129443I761J-1923D01*
G03X220419Y129650I-585J-523D01*
G02X221200Y132951I-761J1923D01*
G37*
G36*
G01X138139Y125197D02*
G03X139668Y126854I-39J1570D01*
G02X143105Y125422I2065J115D01*
G03X142996Y124366I521J-587D01*
G02X140197Y121406I-1658J-1236D01*
G03X139330I-433J-655D01*
G02X138139Y125197I-1142J1724D01*
G37*
G36*
G01X195356Y125702D02*
G03X195789Y124890I778J-107D01*
G02X192833Y123313I-907J-1858D01*
G03X192400Y124126I-778J107D01*
G02X195356Y125702I907J1858D01*
G37*
G36*
G01X191839Y97643D02*
G03X190940Y97585I-408J-671D01*
G02X188112Y97812I-1293J1613D01*
G02X188335Y100796I-1312J1598D01*
G02X190721Y100965I1312J-1598D01*
G03X191620Y101023I408J671D01*
G02X193196Y101458I1293J-1613D01*
G03X194778Y102241I215J1555D01*
G02X196296Y99175I1800J-1017D01*
G03X194714Y98393I-215J-1555D01*
G02X191839Y97643I-1800J1017D01*
G37*
G36*
G01X238209Y97150D02*
G02X238622Y94187I1620J-1284D01*
G02X238209Y97150I-1620J1284D01*
G37*
G36*
G01X155356Y97131D02*
G02X156037Y96415I-1115J-1742D01*
G02X155183Y93547I941J-1841D01*
G02X152433Y94388I-941J1841D01*
G02X150578Y98082I-980J1820D01*
G03X151031Y98787I-332J711D01*
G02X155041Y98060I2068J-19D01*
G03X155356Y97131I738J-268D01*
G37*
G36*
G01X122622Y77898D02*
G02X125531Y77200I1788J1039D01*
G02X122622Y77898I-1788J-1039D01*
G37*
G36*
G01X165288Y71998D02*
G03X164063Y70638I335J-1534D01*
G02X160512Y72293I-2055J228D01*
G02X161607Y75749I1496J1427D01*
G03X162235Y76601I-152J770D01*
G02X162287Y77326I2056J217D01*
G02X164800Y78822I508J2004D01*
G02X166037Y75709I-508J-2004D01*
G02X165288Y71998I-1190J-1691D01*
G37*
G36*
G01X235280Y66175D02*
G02X236699Y68809I-547J1994D01*
G02X235280Y66175I547J-1994D01*
G37*
G36*
G01X195556Y68217D02*
G02X194398Y67244I-1817J987D01*
G02X191751Y68638I-1989J-566D01*
G02X194640Y71066I1989J566D01*
G02X195556Y68217I1817J-987D01*
G37*
G36*
G01X185156Y65783D02*
G02X185405Y62801I1547J-1372D01*
G02X185156Y65783I-1547J1372D01*
G37*
G36*
G01X136906Y55965D02*
G03Y55059I641J-453D01*
G02X133173I-1866J-1319D01*
G03Y55965I-641J453D01*
G02Y58602I1866J1319D01*
G03Y59508I-641J453D01*
G02X136906I1866J1319D01*
G03Y58602I641J-453D01*
G02Y55965I-1866J-1319D01*
G37*
G36*
G01X137055Y116685D02*
G02X134607Y115163I-441J-2020D01*
G03X133418Y117074I-1524J378D01*
G02X135865Y118597I441J2020D01*
G03X137055Y116685I1524J-378D01*
G37*
G36*
G01X207815Y113560D02*
G02X204221Y112315I-2063J145D01*
G02X204391Y115262I-1361J1557D01*
G02X205886Y115769I1361J-1557D01*
G03X207554Y117225I102J1567D01*
G02X210389Y118998I2063J-145D01*
G02X211127Y119859I1879J-862D01*
G03X211434Y120773I-433J654D01*
G02X214528Y119733I1952J683D01*
G03X214220Y118819I433J-654D01*
G02X214335Y118063I-1952J-684D01*
G03X215922Y116438I1569J-55D01*
G02X213878Y114443I23J-2068D01*
G03X212292Y116068I-1569J55D01*
G02X211496Y116218I-23J2068D01*
G02X209483Y115017I-1879J862D01*
G03X207815Y113560I-102J-1567D01*
G37*
G36*
G01X232004Y111049D02*
G02X229040Y111399I-1650J-1246D01*
G03X229295Y113557I-998J1212D01*
G02X232259Y113207I1650J1246D01*
G03X232004Y111049I998J-1212D01*
G37*
G36*
G01X206717Y100237D02*
G02X202741Y101374I-1993J551D01*
G03X201395Y103381I-1506J445D01*
G02X203063Y103973I209J2057D01*
G03X203922Y102693I554J-556D01*
G02X204920Y102846I802J-1906D01*
G03X205751Y103419I74J782D01*
G02X207548Y100809I1993J-551D01*
G03X206717Y100237I-74J-782D01*
G37*
G36*
G01X138401Y98673D02*
G02X135281Y99920I-2007J-496D01*
G03X135961Y101621I-845J1323D01*
G02X139080Y100374I2007J496D01*
G03X138401Y98673I845J-1323D01*
G37*
G36*
G01X216922Y92979D02*
G02X212873Y92845I-2038J348D01*
G03X211441Y94046I-1527J-366D01*
G02X210887Y94157I125J2064D01*
G03X210033Y93928I-259J-741D01*
G02X209145Y97228I-1568J1348D01*
G03X209999Y97458I259J741D01*
G02X213578Y96592I1568J-1348D01*
G03X215009Y95391I1527J366D01*
G02X215184Y95373I-125J-2064D01*
G03X216072Y96017I114J777D01*
G02X217809Y93624I2038J-348D01*
G03X216922Y92979I-114J-777D01*
G37*
G36*
G01X166513Y94475D02*
G02X163354Y93926I-1356J-1561D01*
G03X163015Y95880I-1369J768D01*
G02X166173Y96429I1356J1561D01*
G03X166513Y94475I1369J-768D01*
G37*
G36*
G01X160319Y82938D02*
G02X159359Y85383I-1966J639D01*
G03X161616Y86269I764J1372D01*
G02X162576Y83824I1966J-639D01*
G03X160319Y82938I-764J-1372D01*
G37*
G36*
G01X153211Y84317D02*
G02X150029Y85079I-1886J-849D01*
G03X150477Y86946I-984J1223D01*
G02X153659Y86184I1886J849D01*
G03X153211Y84317I984J-1223D01*
G37*
G36*
G01X212791Y84788D02*
G02X209941Y82815I-783J-1914D01*
G03X209454Y83519I-785J-22D01*
G02X208196Y85773I783J1914D01*
G03X207017Y87557I-1549J258D01*
G02X209542Y89227I486J2010D01*
G03X210722Y87443I1549J-258D01*
G02X212303Y85492I-485J-2010D01*
G03X212791Y84788I785J22D01*
G37*
G36*
G01X175193Y83498D02*
G02X172207Y83335I-1415J-1508D01*
G02X173148Y86855I1415J1508D01*
G03X173678Y87955I-180J764D01*
G02X173481Y88882I1870J883D01*
G02X172100Y92345I141J2063D01*
G03X172081Y93428I-578J531D01*
G02X175073Y93482I1471J1454D01*
G03X175093Y92398I578J-531D01*
G02X175689Y90901I-1470J-1454D01*
G02X177615Y88876I-141J-2063D01*
G02X177175Y84777I-59J-2067D01*
G03X175477Y83928I-290J-1543D01*
G02X175193Y83498I-1855J914D01*
G37*
G36*
G01X240849Y78628D02*
G02X237606Y77597I-1978J604D01*
G03X235752Y77646I-961J-1241D01*
G02X234558Y81414I-1177J1700D01*
G03X235336Y82169I-6J785D01*
G02X239455Y81835I2066J-81D01*
G03X239859Y81049I779J-96D01*
G02X240324Y80704I-987J-1817D01*
G03X241657Y81339I551J559D01*
G02X242761Y83376I2058J202D01*
G03X243599Y84926I-724J1393D01*
G02X246678Y86932I2057J208D01*
G02X248858Y87849I1748J-1105D01*
G03X249670Y88174I164J768D01*
G02X253009Y88280I1708J-1166D01*
G03X254200Y88225I619J483D01*
G02X254248Y88274I1515J-1407D01*
G03X254402Y89168I-555J555D01*
G02X258169Y87912I2488J1187D01*
G03X257756Y87105I364J-695D01*
G02X254402Y85208I-2047J-294D01*
G03X252533Y85293I-992J-1217D01*
G02X250945Y84986I-1155J1715D01*
G03X250133Y84661I-164J-768D01*
G02X247404Y84029I-1708J1166D01*
G02X246610Y83300I-1748J1105D01*
G03X245772Y81749I724J-1393D01*
G02X242939Y79624I-2057J-208D01*
G03X240849Y78628I-589J-1455D01*
G37*
G36*
G01X206639Y76256D02*
G02X203660Y74689I-930J-1847D01*
G03X202810Y76303I-1556J212D01*
G02X202520Y76480I930J1847D01*
G03X200226Y75981I-926J-1268D01*
G02X197062Y75437I-1803J1013D01*
G02X193503Y76869I-1491J1433D01*
G02X195572Y78938I1J2068D01*
G02X196511Y78712I-1J-2068D01*
G03X197334Y80043I356J699D01*
G02X200302Y82823I1228J1664D01*
G03X201185Y82494I661J424D01*
G02X203823Y80771I587J-1983D01*
G03X204365Y80121I779J98D01*
G02X205789Y77870I-625J-1971D01*
G03X206639Y76256I1556J-212D01*
G37*
G36*
G01X224907Y69158D02*
G02X220772Y69107I-2067J-41D01*
G03X219210Y70669I-1570J-8D01*
G02X217460Y71653I10J2068D01*
G03X216538Y71985I-669J-412D01*
G02X214715Y75656I-667J1957D01*
G03X215119Y77865I-878J1302D01*
G02X218648Y79999I1688J1195D01*
G03X220199Y79149I1399J713D01*
G02X221630Y75430I199J-2058D01*
G03X221121Y73551I935J-1261D01*
G02X221178Y72071I-1901J-814D01*
G03X222174Y71075I743J-253D01*
G02X222702Y71180I666J-1958D01*
G02X224907Y69158I2067J41D01*
G37*
G36*
G01X161762Y57242D02*
G02X159699Y58858I-2018J-451D01*
G03X161181Y60839I-34J1570D01*
G02X161101Y61411I2205J600D01*
G03X159835Y62932I-1570J-19D01*
G02X161323Y66720I401J2028D01*
G03X163360Y67057I825J1336D01*
G02X166126Y64038I1596J-1314D01*
G03X165536Y62211I888J-1295D01*
G02X163331Y59154I-2150J-774D01*
G03X161762Y57242I-37J-1570D01*
G37*
G36*
G01X214270Y54770D02*
G02X211795Y51998I-561J-1990D01*
G02X209578Y52402I-798J1908D01*
G03X208699Y52538I-539J-571D01*
G02X206204Y53091I-896J1863D01*
G03X204450Y53570I-1214J-995D01*
G02X202802Y53669I-710J1942D01*
G03X201827Y53452I-356J-700D01*
G02X198260Y54000I-1630J1272D01*
G03X197339Y54487I-735J-275D01*
G02X196679Y54435I-489J2009D01*
G03X195901Y53982I-65J-782D01*
G02X192944Y53084I-1878J866D01*
G03X191021Y52861I-819J-1339D01*
G02X190646Y56094I-1454J1470D01*
G03X192569Y56318I819J1339D01*
G02X194195Y56908I1454J-1470D01*
G03X194973Y57362I65J782D01*
G02X198787Y57221I1878J-866D01*
G03X199708Y56733I735J275D01*
G02X201135Y56567I489J-2009D01*
G03X202110Y56784I356J700D01*
G02X205339Y56823I1630J-1272D01*
G03X207093Y56343I1214J995D01*
G02X208144Y56441I710J-1942D01*
G03X209048Y57090I129J774D01*
G02X213139Y56487I2041J-332D01*
G03X214270Y54770I1556J-206D01*
G37*
G36*
G01X160444Y128894D02*
G02X157309Y128470I-1389J-1532D01*
G03X157174Y129472I-663J421D01*
G02X156676Y131849I1389J1531D01*
G03X155869Y133930I-1433J641D01*
G02X157530Y137717I824J1896D01*
G03X158343Y137826I318J718D01*
G02X159031Y138195I1303J-1605D01*
G02X161647Y136741I2001J521D01*
G02X160717Y134452I-2001J-521D01*
G03X160250Y132200I814J-1343D01*
G02X160309Y129896I-1687J-1196D01*
G03X160444Y128894I663J-421D01*
G37*
G54D18*
X107766Y66336D03*
X153642Y44882D03*
X144882Y103543D03*
X140157Y181693D03*
X161024Y44488D03*
X169882Y110728D03*
X181102Y78937D03*
X176575Y104724D03*
X181102Y121654D03*
X182283Y171654D03*
X198557Y89764D03*
X189944Y105438D03*
X190087Y114047D03*
X195039Y134843D03*
X198819Y128543D03*
X197441Y147244D03*
X211220Y41339D03*
X215748Y105315D03*
X205118Y135236D03*
X217717Y125984D03*
X225910Y82997D03*
X225861Y92839D03*
X119291Y168110D03*
X113583Y167913D03*
X113076Y160486D03*
X124311Y162890D03*
X128227Y150174D03*
X175000Y142500D03*
G54D19*
X82677Y111692D03*
X76575Y108641D03*
X147441Y73622D03*
%LPD*%
G75*
G54D10*
X6693Y117126D03*
Y113780D03*
Y110433D03*
X72835Y89567D03*
Y81693D03*
Y77756D03*
Y85630D03*
Y101378D03*
Y97441D03*
Y93504D03*
X76772Y89567D03*
Y77756D03*
Y85630D03*
Y81693D03*
Y101378D03*
Y97441D03*
Y93504D03*
X105315Y78013D03*
Y81693D03*
Y85630D03*
Y89567D03*
Y93504D03*
Y97441D03*
Y101378D03*
X122244Y37402D03*
X117717Y37205D03*
X121063Y63976D03*
X109252Y77756D03*
Y81693D03*
Y85630D03*
Y89567D03*
Y93504D03*
Y97441D03*
Y101378D03*
X137992Y37205D03*
X124803Y63976D03*
X126969Y67323D03*
X141950Y36704D03*
X147316Y45622D03*
X149289Y48405D03*
X144882Y47835D03*
X142126Y73622D03*
X163386Y51161D03*
G54D11*
X29232Y78740D03*
X38583Y102854D03*
X46850Y105709D03*
X44685Y126575D03*
X90551Y79724D03*
X85630D03*
X80709D03*
X90551Y84646D03*
X85630D03*
X80709D03*
Y89567D03*
X85630D03*
X90551D03*
Y99409D03*
Y94488D03*
X85630Y99409D03*
X80709D03*
X85630Y94488D03*
X80709D03*
X83268Y182480D03*
X103740Y60531D03*
X100394Y79724D03*
X95472D03*
X100394Y84646D03*
X95472D03*
X100394Y89567D03*
X95472D03*
X100394Y99409D03*
X95472D03*
X100394Y94488D03*
X95472D03*
X102185Y138878D03*
Y163878D03*
X92717Y182087D03*
X116339Y71063D03*
X112402Y79035D03*
X113386Y121654D03*
X117824Y133415D03*
X114370Y172190D03*
X138165Y90008D03*
X125007Y95774D03*
X128937Y115157D03*
X136220Y140551D03*
X126772Y152756D03*
X128397Y164231D03*
X130118Y177559D03*
X126378Y181693D03*
X138559Y85972D03*
X149213Y114665D03*
X138780Y133858D03*
X147638Y123130D03*
X141606Y147233D03*
X146260Y144291D03*
X168307Y46063D03*
X154486Y89703D03*
X167520Y167421D03*
X154961Y157992D03*
X173425Y110728D03*
X170447Y135578D03*
X170500Y145000D03*
X170866Y155610D03*
X196260Y52682D03*
X186150Y52780D03*
X197598Y117520D03*
X190354Y128150D03*
X217350Y37178D03*
X230709Y34665D03*
X230512Y105315D03*
X231181Y119803D03*
X235236Y62992D03*
X239124Y64665D03*
X243110Y67913D03*
X234843Y167913D03*
X299409Y10039D03*
X299606Y75394D03*
X299409Y140748D03*
G54D12*
X150000Y10000D03*
X260551Y119803D03*
G54D13*
X256890Y51378D03*
X259252Y70972D03*
X256890Y82874D03*
X271260Y57283D03*
X269672Y73745D03*
X271260Y90650D03*
G54D14*
G01X260551Y119803D02*
Y125215D01*
G01Y119803D02*
X265963D01*
G01X260551D02*
X265163Y124415D01*
G01X255939D02*
X260551Y119803D01*
G01D02*
X265163Y115191D01*
M02*
