G04 ================== begin FILE IDENTIFICATION RECORD ==================*
G04 Layout Name:  Netduino3Ethernet_17Dec16.brd*
G04 Film Name:    L4-BOT*
G04 File Format:  Gerber RS274X*
G04 File Origin:  Cadence Allegro 16.6-2015-S069*
G04 Origin Date:  Sat Dec 17 09:35:35 2016*
G04 *
G04 Layer:  VIA CLASS/BOTTOM*
G04 Layer:  PIN/BOTTOM*
G04 Layer:  ETCH/BOTTOM*
G04 *
G04 Offset:    (0.0000 0.0000)*
G04 Mirror:    No*
G04 Mode:      Positive*
G04 Rotation:  0*
G04 FullContactRelief:  No*
G04 UndefLineWidth:     0.1270*
G04 ================== end FILE IDENTIFICATION RECORD ====================*
%FSLAX25Y25*MOIN*%
%IR0*IPPOS*OFA0.00000B0.00000*MIA0B0*SFA1.00000B1.00000*%
%ADD19R,.094488X.029921*%
%ADD20C,.035433*%
%ADD15C,.021654*%
%ADD12C,.026*%
%ADD14R,.045276X.055118*%
%ADD11R,.066929X.052165*%
%ADD10C,.000004*%
%ADD13C,.100394*%
%ADD17C,.072835*%
%ADD16C,.062598*%
%ADD18R,.072835X.072835*%
%ADD21C,.011811*%
%ADD22C,.015748*%
%ADD23C,.019685*%
%ADD24C,.005906*%
%ADD25C,.023622*%
%ADD26C,.009843*%
%ADD27C,.031496*%
%ADD28C,.007087*%
%ADD29C,.01*%
%ADD30C,.03937*%
%ADD35C,.16537*%
%ADD32C,.041354*%
%ADD31C,.120094*%
%ADD34C,.082299*%
%ADD33C,.045701*%
G75*
%LPD*%
G75*
G36*
G01X1969Y1969D02*
Y28020D01*
G02X4717Y29057I1570J0D01*
G03Y36343I4141J3643D01*
G02X1969Y37380I-1179J1037D01*
G01Y71850D01*
X20670D01*
Y85629D01*
X22484D01*
Y84715D01*
X22442Y84592D01*
G03X22691Y82613I2164J-734D01*
G02Y81757I-658J-428D01*
G03Y79267I1916J-1245D01*
G02Y78411I-658J-428D01*
G03X26522I1916J-1245D01*
G02Y79267I658J428D01*
G03X26880Y80281I-1916J1245D01*
G02X28442Y81692I1562J-159D01*
G01X32481D01*
Y86038D01*
X22061Y96457D01*
X20670D01*
Y108269D01*
X1969D01*
Y140748D01*
X11618D01*
G02X12880Y138244I0J-1570D01*
G03X26332I6726J-4976D01*
G02X27594Y140748I1262J934D01*
G01X34449D01*
G03X40354Y146654I0J5906D01*
G01Y164370D01*
G03X34449Y170276I-5906J0D01*
G01X27594D01*
G02X26332Y172780I0J1570D01*
G03X12880I-6726J4976D01*
G02X11618Y170276I-1262J-934D01*
G01X1969D01*
Y207677D01*
X52286D01*
G02X53517Y205133I0J-1570D01*
G03X67636Y196828I6483J-5132D01*
G02X70331Y197181I1450J-602D01*
G03X75941Y195800I3669J2818D01*
G01X76438Y196030D01*
X88118Y184350D01*
X89145D01*
G02X90687Y182480I0J-1570D01*
G03X90688Y181687I2030J-393D01*
G02X89668Y179903I-1541J-303D01*
G03X91917Y176598I686J-1951D01*
G01X92152Y176869D01*
X92870D01*
X93461Y177460D01*
X112740D01*
X113189Y177011D01*
Y173887D01*
G03X112360Y171705I1181J-1697D01*
G01X112463Y171277D01*
X110413Y169227D01*
Y161533D01*
X111025Y160921D01*
X111010Y160576D01*
G03X112317Y158563I2066J-90D01*
G01X112813Y158367D01*
Y157149D01*
X113189Y156774D01*
Y150591D01*
X111220Y148622D01*
Y142921D01*
G02X108540Y141811I-1570J0D01*
G01X64287Y186064D01*
X49888D01*
X49653Y186335D01*
G03X46024Y185038I-1563J-1354D01*
G02X45574Y184350I-785J22D01*
G03X48019Y181126I883J-1870D01*
G01X48254Y181397D01*
X63856D01*
X101903Y143349D01*
G02X101394Y140788I-1110J-1110D01*
G03X104095Y138087I791J-1910D01*
G02X106656Y138596I1451J-601D01*
G01X107775Y137478D01*
Y134591D01*
X110969Y131396D01*
X113189D01*
Y125984D01*
X112156Y124951D01*
G02X109809Y125093I-1110J1110D01*
G03X109016Y121928I-1628J-1274D01*
G02X111220Y120491I634J-1436D01*
G01Y118970D01*
X111031Y118750D01*
G03Y116054I1568J-1348D01*
G01X111220Y115833D01*
Y113830D01*
X111193Y113730D01*
G03Y112648I1996J-541D01*
G01X111220Y112548D01*
Y102362D01*
X113189Y100394D01*
Y81888D01*
G02X112403Y81103I-785J0D01*
G03X110710Y77846I-2J-2068D01*
G02X110535Y75834I-1285J-903D01*
G01X108701Y73999D01*
G02X106524Y73957I-1110J1110D01*
G03X105507Y74472I-1405J-1517D01*
G01X105270Y74517D01*
X104688Y75099D01*
X76258D01*
X69440Y68281D01*
Y68088D01*
X69305Y67889D01*
G03X71323Y64683I1711J-1161D01*
G02X73082Y63503I234J-1553D01*
G03X73120Y63366I2009J488D01*
G02X71624Y61320I-1496J-476D01*
G01X62431D01*
G02X60889Y62594I0J1570D01*
G03X60213Y63767I-2031J-389D01*
G01X59942Y64002D01*
Y65980D01*
X61115D01*
X61350Y65672D01*
G03X62151Y68818I1642J1256D01*
G02X59942Y70252I-639J1434D01*
G01Y76763D01*
X55602Y81103D01*
X52319D01*
X46165Y87257D01*
G02X46381Y89657I1110J1110D01*
G03X46891Y92927I-1302J1878D01*
G02Y93884I623J478D01*
G03X43267I-1812J1392D01*
G02Y92927I-623J-478D01*
G03X43201Y92837I1810J-1395D01*
G02X40800Y92622I-1290J895D01*
G01X39242Y94180D01*
X39267Y94538D01*
G03X35417Y95724I-2062J147D01*
G03X34596Y91835I-969J-1827D01*
G01X34954Y91861D01*
X38287Y88528D01*
Y81047D01*
X40870Y78464D01*
X38779Y76372D01*
Y65546D01*
X33428Y60194D01*
G02X32087Y60750I-555J555D01*
G01Y61220D01*
G03X27361I-2363J0D01*
G01Y57087D01*
G03X29724Y54724I2363J0D01*
G01X33661D01*
G03X35332Y55416I0J2363D01*
G01X43505Y63588D01*
Y67152D01*
G02X45246Y68712I1570J0D01*
G03X47519Y70473I226J2055D01*
G01X47616Y71146D01*
X49509D01*
X50006Y70649D01*
G02X49457Y68073I-1110J-1110D01*
G03X51958Y65058I739J-1931D01*
G01X52110D01*
X54625Y62543D01*
Y60451D01*
X57104Y57972D01*
X75057D01*
X76383Y59298D01*
X79324Y62239D01*
Y62896D01*
G02X80122Y63681I785J0D01*
G03X81720Y64394I35J2067D01*
G01X81955Y64665D01*
X94112D01*
X95493Y63284D01*
X100300D01*
G02X101785Y61204I0J-1570D01*
G03X105696I1956J-672D01*
G02X107180Y63284I1485J510D01*
G01X109670D01*
X110509Y64123D01*
G02X113189Y63013I1110J-1110D01*
G01Y62162D01*
X112106Y61079D01*
Y51637D01*
X111401Y51565D01*
G03X110902Y47567I213J-2057D01*
G01X111417Y47378D01*
Y42152D01*
X111146Y41917D01*
G03X112430Y38288I1354J-1563D01*
G02X113189Y37503I-26J-785D01*
G01Y14627D01*
X105373D01*
Y6162D01*
X60599D01*
X45084Y21677D01*
X39357D01*
X39150Y22144D01*
G03Y17272I-5489J-2436D01*
G01X39357Y17739D01*
X43453D01*
X56543Y4649D01*
G02X55432Y1969I-1110J-1110D01*
G01X1969D01*
G37*
G36*
G01X9253Y72835D02*
Y80207D01*
X1969D01*
Y99497D01*
X9253D01*
Y107283D01*
X19685D01*
Y103436D01*
X13090D01*
Y95954D01*
X19685D01*
Y95472D01*
X21654D01*
X31496Y85630D01*
Y82677D01*
X27559D01*
Y85630D01*
X26575Y86614D01*
X19685D01*
Y83751D01*
X13090D01*
Y76269D01*
X19685D01*
Y72835D01*
X9253D01*
G37*
G36*
G01X178544Y1969D02*
G02X177434Y4649I0J1570D01*
G01X178415Y5630D01*
X178849Y5519D01*
G03X184597Y9479I1151J4481D01*
G02X187268Y10413I1560J-177D01*
G01X193685Y3995D01*
X279572D01*
X293505Y17928D01*
Y36785D01*
X293776Y37020D01*
G03X293831Y40095I-1354J1563D01*
G01X293821Y40105D01*
X293256Y40670D01*
X293835Y41248D01*
Y47421D01*
X299311Y52898D01*
Y56302D01*
X297737Y57876D01*
Y71768D01*
G02X299436Y73333I1570J0D01*
G03Y77454I170J2061D01*
G02X297737Y79019I-129J1565D01*
G01Y88441D01*
X293603Y92575D01*
Y103203D01*
X293874Y103437D01*
G03X293294Y106917I-1354J1563D01*
G02X292772Y109483I588J1456D01*
G01X296691Y113403D01*
X297026D01*
X300965Y117342D01*
G03X297067Y121241I-1949J1949D01*
G01X294742Y118916D01*
X294407D01*
X291067Y115576D01*
G02X288387Y116686I-1110J1110D01*
G01Y119685D01*
G03X282873I-2757J0D01*
G01Y116398D01*
X280905Y114429D01*
Y109851D01*
G02X278224Y108741I-1570J0D01*
G01X277658Y109307D01*
Y119659D01*
X277929Y119894D01*
G03X278286Y122617I-1354J1562D01*
G02X278475Y124609I1299J881D01*
G01X279087Y125221D01*
X279723Y124585D01*
X279778Y124484D01*
G03X283159Y124113I1819J983D01*
G01X283394Y124384D01*
X284112D01*
X284209Y124480D01*
X288727D01*
X288962Y124209D01*
G03Y126918I1563J1354D01*
G01X288727Y126647D01*
X283328D01*
X283095Y126892D01*
G03X283046Y126941I-1498J-1425D01*
G02X283037Y129171I1101J1119D01*
G01X287993Y134127D01*
Y169606D01*
X300965Y182578D01*
G03X297067Y186477I-1949J1949D01*
G01X285752Y175162D01*
G02X283072Y176272I-1110J1110D01*
G01Y180039D01*
X285611Y182578D01*
G03X281712Y186477I-1949J1949D01*
G01X277558Y182323D01*
Y142987D01*
G02X276156Y141426I-1570J0D01*
G03X274315Y139223I222J-2056D01*
G01X274341Y138865D01*
X264468Y128992D01*
Y125539D01*
G02X262303Y124085I-1570J0D01*
G03X257711Y123456I-1752J-4282D01*
G02X255201Y124430I-963J1240D01*
G01X248918D01*
Y124858D01*
X239425Y134351D01*
X234478D01*
G02X232936Y135626I0J1570D01*
G03X228875I-2031J-389D01*
G02X227333Y134351I-1542J296D01*
G01X223039D01*
G02X221929Y137031I0J1570D01*
G01X234602Y149704D01*
X248706D01*
X275493Y176491D01*
Y185181D01*
X280370Y190058D01*
X286559D01*
X287727Y188891D01*
X287701Y188533D01*
G03X289617Y190448I2063J-147D01*
G01X289259Y190423D01*
X287457Y192225D01*
X279472D01*
X273326Y186079D01*
Y180065D01*
G02X271499Y178516I-1570J0D01*
G03X269599Y177831I-338J-2040D01*
G01X269364Y177560D01*
X267563D01*
X244630Y154627D01*
X233119D01*
X232424Y153931D01*
G02X231083Y154486I-555J555D01*
G01Y195469D01*
X231598Y195658D01*
G03X233733Y197267I-1598J4342D01*
G02X236267I1267J-928D01*
G03X238402Y195658I3733J2733D01*
G01X238917Y195469D01*
Y194571D01*
X240058Y193429D01*
Y189593D01*
X239787Y189358D01*
G03X242496I1354J-1563D01*
G01X242225Y189593D01*
Y194327D01*
X241365Y195187D01*
X242007Y195829D01*
X242116Y195885D01*
G03X242840Y196347I-2115J4115D01*
G02X245350Y195373I963J-1240D01*
G01X254627D01*
Y204627D01*
X245350D01*
G02X242840Y203653I-1547J266D01*
G03X236267Y202733I-2840J-3653D01*
G02X233733I-1267J928D01*
G03X226267I-3733J-2733D01*
G02X223733I-1267J928D01*
G03X216267I-3733J-2733D01*
G02X213733I-1267J928D01*
G03X206267I-3733J-2733D01*
G02X203733I-1267J928D01*
G03X196267I-3733J-2733D01*
G02X193733I-1267J928D01*
G03X186267I-3733J-2733D01*
G02X183733I-1267J928D01*
G03Y197267I-3733J-2733D01*
G02X186267I1267J-928D01*
G03X193733I3733J2733D01*
G02X196267I1267J-928D01*
G03X203733I3733J2733D01*
G02X206267I1267J-928D01*
G03X211941Y195800I3733J2733D01*
G01X212438Y196030D01*
X216244Y192224D01*
X221008D01*
X225294Y187937D01*
Y184868D01*
X225024Y184633D01*
G03X225989Y181040I1354J-1563D01*
G02X227263Y179498I-296J-1542D01*
G01Y153081D01*
X223055Y148873D01*
G02X220375Y149983I-1110J1110D01*
G01Y162850D01*
X210488Y172737D01*
X184081D01*
X183846Y173008D01*
G03Y170299I-1563J-1354D01*
G01X184081Y170570D01*
X209591D01*
X213593Y166568D01*
G02X213637Y164394I-1110J-1110D01*
G03X213595Y164346I1522J-1400D01*
G01X213360Y164076D01*
X209701D01*
X208717Y165060D01*
X204356D01*
X204122Y165331D01*
G03Y162622I-1563J-1354D01*
G01X204356Y162893D01*
X207819D01*
X208803Y161909D01*
X213360D01*
X213595Y161638D01*
G03X215999Y161104I1562J1354D01*
G02X218208Y159669I639J-1434D01*
G01Y149636D01*
G02X216933Y148094I-1570J0D01*
G03X215260Y145916I389J-2031D01*
G01X215286Y145558D01*
X209350Y139622D01*
Y136929D01*
X208955Y136534D01*
G02X206668Y136605I-1110J1110D01*
G03X203056Y135089I-1550J-1369D01*
G01X203081Y134731D01*
X202307Y133957D01*
X184591D01*
X179866Y129233D01*
X176010D01*
X175775Y129504D01*
G03X173052Y129861I-1562J-1354D01*
G02X171060Y130050I-881J1299D01*
G01X170181Y130930D01*
G02X170926Y133567I1110J1110D01*
G03X168681Y136654I-480J2011D01*
G01X168451Y136277D01*
X167225D01*
Y136839D01*
X162297Y141768D01*
X161607D01*
G02X161052Y143108I0J785D01*
G01X163091Y145148D01*
Y167788D01*
X164856Y169553D01*
X165772Y168637D01*
X165589Y168162D01*
G03X167578Y169488I1931J-741D01*
G01X167266Y169497D01*
X166490Y170273D01*
X167802Y171585D01*
X168160Y171559D01*
G03X167535Y175540I147J2062D01*
G02X166716Y175685I-293J728D01*
G03X165951Y176123I-1385J-1535D01*
G01X165402Y176296D01*
Y177657D01*
X220494D01*
X220729Y177386D01*
G03X222370Y180806I1563J1354D01*
G02X221633Y181422I30J784D01*
G03X219634Y183044I-2019J-445D01*
G02X218895Y183586I7J785D01*
G03X215367Y184299I-1966J-641D01*
G01X215132Y184028D01*
X151504D01*
X142839Y192693D01*
G02X143962Y195373I1110J1110D01*
G03X147733Y197267I37J4627D01*
G02X150267I1267J-928D01*
G03X156840Y196347I3733J2733D01*
G02X159350Y195373I963J-1240D01*
G01X168627D01*
Y204627D01*
X159350D01*
G02X156840Y203653I-1547J266D01*
G03X150267Y202733I-2840J-3653D01*
G02X147733I-1267J928D01*
G03X140267I-3733J-2733D01*
G02X137733I-1267J928D01*
G03X130267I-3733J-2733D01*
G02X127733I-1267J928D01*
G03X120267I-3733J-2733D01*
G02X117733I-1267J928D01*
G03X115941Y195800I-3733J-2733D01*
G01X116438Y196030D01*
X120638Y191830D01*
X132819D01*
X146992Y177657D01*
X159367D01*
G02X160931Y175957I0J-1570D01*
G03X160930Y175640I2061J-171D01*
G01X160955Y175283D01*
X155019Y169346D01*
Y165665D01*
X157851Y162832D01*
Y161382D01*
G02X155711Y159919I-1570J0D01*
G03Y156065I-750J-1927D01*
G02X157851Y154602I570J-1463D01*
G01Y147663D01*
X153764Y143576D01*
G02X151084Y144686I-1110J1110D01*
G01Y147366D01*
X151083Y147367D01*
Y163441D01*
X126236Y188288D01*
X91787D01*
X86336Y193740D01*
G02X86573Y196155I1110J1110D01*
G03X87733Y197267I-2574J3845D01*
G02X90267I1267J-928D01*
G03Y202733I3733J2733D01*
G02X87733I-1267J928D01*
G03X80267I-3733J-2733D01*
G02X77733I-1267J928D01*
G03X70331Y202819I-3733J-2733D01*
G02X67636Y203172I-1245J956D01*
G03X66483Y205133I-7636J-3173D01*
G02X67714Y207677I1231J974D01*
G01X300197D01*
X305118Y202756D01*
Y6890D01*
X300197Y1969D01*
X178544D01*
G37*
G36*
G01X143650Y147539D02*
G03X139568Y146884I-2045J-306D01*
G01X139636Y146483D01*
X138794Y145641D01*
X137682Y146753D01*
X136444D01*
X135926Y147271D01*
Y148509D01*
X128418Y156017D01*
X125723D01*
X123426Y158313D01*
Y162343D01*
X123286Y162483D01*
Y163217D01*
X123426Y163357D01*
Y163991D01*
X123786Y164352D01*
G02X126407Y163669I1110J-1110D01*
G03X128959Y166221I1990J563D01*
G02X128052Y168558I428J1511D01*
G01Y171146D01*
X125758Y173440D01*
X119037D01*
X116635Y175843D01*
Y176630D01*
X114174Y179091D01*
Y179135D01*
X114130D01*
X113638Y179627D01*
X96244D01*
G02X94721Y181581I0J1570D01*
G03X94746Y182480I-2005J506D01*
G02X96288Y184350I1541J299D01*
G01X122906D01*
G02X124405Y182311I0J-1570D01*
G03X126456Y179627I1973J-618D01*
G02X128070Y177843I59J-1569D01*
G03X131408Y175943I2048J-283D01*
G02X133497Y175826I979J-1227D01*
G01X141239Y168083D01*
Y154107D01*
X147735Y147611D01*
Y146274D01*
X146854D01*
X146760Y146298D01*
G03X145659Y146270I-501J-2006D01*
G02X143650Y147539I-456J1502D01*
G37*
G36*
G01X155767Y6162D02*
G02X154306Y8307I0J1570D01*
G03X146267Y12733I-4306J1693D01*
G02X143733I-1267J928D01*
G03X136267I-3733J-2733D01*
G02X133733I-1267J928D01*
G03X126267I-3733J-2733D01*
G02X123733I-1267J928D01*
G03X117160Y13653I-3733J-2733D01*
G02X114650Y14627I-963J1240D01*
G01X114174D01*
Y33893D01*
G02X116547Y35241I1570J0D01*
G03X119139Y35416I1169J1963D01*
G02X120983Y35496I977J-1229D01*
G03X124522Y37579I1261J1905D01*
G02X126087Y39271I1565J122D01*
G01X134169D01*
G02X135726Y37499I0J-1570D01*
G03X139247Y35295I2266J-294D01*
G02X140259Y35167I431J-656D01*
G03X144157Y37295I1691J1537D01*
G02X145674Y39271I1517J406D01*
G01X149157D01*
X157422Y31006D01*
X167222D01*
X167457Y30735D01*
G03X168630Y30059I1562J1354D01*
G02X169905Y28517I-296J-1542D01*
G01Y26594D01*
X175142Y21357D01*
X176323D01*
X180413Y17268D01*
G02X179479Y14597I-1110J-1110D01*
G03X175519Y8849I521J-4597D01*
G01X175630Y8415D01*
X173377Y6162D01*
X155767D01*
G37*
G36*
G01X158320Y33173D02*
X150055Y41438D01*
X120331D01*
X116506Y45263D01*
X116531Y45620D01*
G03X115181Y47709I-2063J147D01*
G01X114666Y47898D01*
Y50772D01*
X114272Y51166D01*
Y55285D01*
G02X115547Y56828I1570J0D01*
G03X117220Y59006I-389J2031D01*
G01X117194Y59363D01*
X119824Y61993D01*
X120293Y61825D01*
G03X122455Y62164I770J2151D01*
G02X123411I478J-623D01*
G03X127068Y64278I1392J1812D01*
G02X127622Y65133I778J103D01*
G03X128972Y66225I-654J2189D01*
G01X129196Y66633D01*
X156600D01*
G02X158169Y65019I0J-1570D01*
G03X161374Y63235I2067J-58D01*
G02X163349Y63034I864J-1311D01*
G01X163692Y62691D01*
X169635D01*
X171751Y60575D01*
Y49181D01*
G02X169372Y47835I-1570J0D01*
G03X167385Y44212I-1066J-1772D01*
G02X167795Y41697I-700J-1405D01*
G01X164569Y38470D01*
Y35139D01*
X162456D01*
X160139Y37456D01*
Y40915D01*
G02X161413Y42457I1570J0D01*
G03X161450Y46511I-389J2031D01*
G01X160827Y46643D01*
Y47434D01*
G02X162800Y48952I1570J0D01*
G03X162066Y53026I586J2209D01*
G01X161862Y52881D01*
X160827D01*
Y54994D01*
X161098Y55228D01*
G03X158389I-1354J1563D01*
G01X158660Y54994D01*
Y47791D01*
X157972Y47102D01*
Y36559D01*
X160017Y34513D01*
G02X159462Y33173I-555J-555D01*
G01X158320D01*
G37*
G36*
G01X114174Y80116D02*
Y100802D01*
X112206Y102770D01*
Y118037D01*
G02X113607Y119598I1570J0D01*
G03X114565Y123352I-222J2056D01*
G02X114174Y125543I895J1290D01*
G01Y127288D01*
G02X116854Y128398I1570J0D01*
G01X120942Y124310D01*
X123203D01*
X123437Y124039D01*
G03X127019Y124948I1563J1354D01*
G03X127533Y124902I442J2020D01*
G02X128346Y124117I28J-785D01*
G01Y120553D01*
X124544Y116751D01*
Y105477D01*
X122074Y103008D01*
Y99817D01*
X122766Y99126D01*
X122740Y98769D01*
G03X123413Y97090I2063J-147D01*
G03X122970Y95424I1594J-1316D01*
G02X122534Y94582I-774J-133D01*
G03X123572Y90654I891J-1866D01*
G01X123930Y90680D01*
X124507Y90102D01*
Y89680D01*
X126294Y87893D01*
X128824D01*
X130611Y89680D01*
Y99157D01*
X134548Y103094D01*
Y107819D01*
X139606Y112876D01*
G02X141664Y113018I1110J-1110D01*
G03X141750Y112956I1249J1648D01*
G02X142344Y111130I-883J-1298D01*
G03X142937Y108870I1947J-697D01*
G01X143208Y108636D01*
Y106835D01*
X143798Y106244D01*
Y105341D01*
X143528Y105106D01*
G03X146236I1354J-1563D01*
G01X145965Y105341D01*
Y107142D01*
X145375Y107732D01*
Y108636D01*
X145646Y108870D01*
G03X145805Y109024I-1356J1561D01*
G02X148064Y109065I1149J-1070D01*
G01X155938Y101191D01*
G02X155383Y99851I-555J-555D01*
G01X154896D01*
X154661Y100122D01*
G03X151984Y97026I-1562J-1355D01*
G02X152299Y96096I-423J-661D01*
G03X152240Y94871I1943J-708D01*
G01X152353Y94437D01*
X142661Y84745D01*
X142180D01*
G02X140617Y86167I0J1570D01*
G03X139864Y87576I-2058J-195D01*
G02X139756Y88687I496J609D01*
G03X136860Y88404I-1590J1321D01*
G02X136968Y87294I-496J-609D01*
G03X136500Y86167I1590J-1321D01*
G02X134937Y84745I-1563J148D01*
G01X124147D01*
X117454Y78052D01*
X115992D01*
G02X114442Y79369I0J1570D01*
G03X114255Y79952I-2041J-334D01*
G01X114174Y80116D01*
G37*
G36*
G01X128493Y130491D02*
X127774D01*
X127539Y130761D01*
G03X123922Y129641I-1563J-1354D01*
G02X122363Y128249I-1560J178D01*
G01X121739D01*
X119725Y130263D01*
G02X119535Y132254I1110J1110D01*
G03X116437Y134948I-1711J1161D01*
G01X116213Y134745D01*
X112711D01*
X112206Y135250D01*
Y148214D01*
X114174Y150183D01*
Y151998D01*
G02X116854Y153108I1570J0D01*
G01X119345Y150618D01*
X120614D01*
X122610Y148621D01*
X123792D01*
X124310Y148103D01*
Y141996D01*
X123831Y141517D01*
Y138876D01*
X123726Y138694D01*
G03X127514Y138200I1791J-1033D01*
G03X128237Y141731I-631J1969D01*
G01X127967Y141966D01*
Y145028D01*
G02X130647Y146138I1570J0D01*
G01X134706Y142079D01*
X134416Y141561D01*
G03X138219Y141081I1805J-1009D01*
G01X138104Y141517D01*
X138978Y142392D01*
X140058Y141312D01*
Y141255D01*
X141846Y139468D01*
X141902D01*
X142617Y138753D01*
Y130541D01*
G02X141343Y128999I-1570J0D01*
G03X139665Y127010I389J-2031D01*
G01X139653Y126422D01*
X139472Y126241D01*
X137556D01*
Y127252D01*
X137676Y127444D01*
G03X133863Y128396I-1751J1100D01*
G01X133888Y128039D01*
X133193Y127343D01*
G02X130513Y128454I-1110J1110D01*
G01Y128470D01*
X128493Y130491D01*
G37*
G36*
G01X123972Y152194D02*
X116161Y160006D01*
Y166867D01*
X115620Y167409D01*
X115645Y167766D01*
G03X115639Y168126I-2063J146D01*
G01X115635Y168167D01*
Y168992D01*
X118921D01*
X118924Y168995D01*
X119658D01*
X119661Y168992D01*
X122148D01*
X122401Y168739D01*
X123243D01*
X123476Y168485D01*
G03X123590Y168369I1523J1398D01*
G01X123600Y168360D01*
X124165Y167795D01*
X121259Y164889D01*
Y164254D01*
X121119Y164115D01*
Y161585D01*
X121259Y161446D01*
Y157416D01*
X124909Y153766D01*
X124783Y153322D01*
G03X124743Y153154I1988J-568D01*
G01X124696Y152919D01*
X123972Y152194D01*
G37*
G36*
G01X130604Y69981D02*
X127061Y73524D01*
X123335D01*
G02X122225Y76205I0J1570D01*
G01X123203Y77183D01*
X123678Y77003D01*
G03X126472Y79084I732J1934D01*
G01X126446Y79442D01*
X127220Y80216D01*
X159222D01*
G02X160765Y78941I0J-1570D01*
G03X162287Y77326I2031J389D01*
G03X162235Y76601I2004J-508D01*
G02X161607Y75749I-781J-82D01*
G03X160512Y72293I401J-2028D01*
G03X159977Y71256I1496J-1427D01*
G02X158435Y69981I-1542J296D01*
G01X145378D01*
G02X144053Y72394I0J1570D01*
G03X140199I-1927J1228D01*
G02X138874Y69981I-1324J-843D01*
G01X130604D01*
G37*
G36*
G01X138911Y115247D02*
X138314Y115844D01*
X138279Y115891D01*
G03X137683Y116435I-1665J-1226D01*
G01X137304Y116664D01*
Y123497D01*
X137881Y124074D01*
X139275D01*
Y123267D01*
X139274Y123245D01*
G03X139699Y121870I2065J-115D01*
G01X139861Y121659D01*
Y116197D01*
X138911Y115247D01*
G37*
G36*
G01X159192Y114114D02*
G02X156512Y113004I-1570J0D01*
G01X156005Y113511D01*
Y115531D01*
X149472Y122064D01*
X149613Y122517D01*
G03X149676Y123477I-1975J613D01*
G01X149608Y123877D01*
X150450Y124719D01*
X159192Y115977D01*
Y114114D01*
G37*
G36*
G01X146236Y152175D02*
X143406Y155005D01*
Y164263D01*
G02X146087Y165373I1570J0D01*
G01X148917Y162543D01*
Y153285D01*
G02X146236Y152175I-1570J0D01*
G37*
G36*
G01X156792Y129112D02*
X157717D01*
X157848Y129064D01*
G03X159780Y129332I715J1940D01*
G02X161814Y129173I924J-1269D01*
G01X180609Y110378D01*
Y108870D01*
G02X179269Y108315I-785J0D01*
G01X178627Y108957D01*
X177057D01*
G02X175490Y110614I0J1570D01*
G03X171485Y110014I-2065J114D01*
G01X171533Y109882D01*
Y108957D01*
X170401D01*
X166438Y112920D01*
Y117969D01*
X156792Y127614D01*
Y129112D01*
G37*
G36*
G01X195373Y9162D02*
G02X192693Y8052I-1570J0D01*
G01X177220Y23524D01*
X176039D01*
X174885Y24678D01*
G02X174801Y26807I1110J1110D01*
G03X174583Y29712I-1573J1342D01*
G01X174312Y29947D01*
Y32784D01*
X170774Y36322D01*
X169687D01*
Y37121D01*
X169687Y37135D01*
G03X169683Y37353I-2067J72D01*
G01X169657Y37710D01*
X175296Y43349D01*
Y55260D01*
X178795Y58759D01*
X189425D01*
X191930Y61264D01*
X195372D01*
X202513Y68405D01*
X207626D01*
X208807Y69586D01*
X217096D01*
G02X217652Y68246I0J-785D01*
G01X217420Y68015D01*
Y58367D01*
X212409D01*
X212214Y58493D01*
G03X209048Y57090I-1125J-1735D01*
G02X208144Y56441I-775J126D01*
G03X207093Y56343I-340J-2039D01*
G02X205339Y56823I-539J1475D01*
G03X202110Y56784I-1599J-1311D01*
G02X201135Y56567I-619J483D01*
G03X199708Y56733I-938J-1843D01*
G02X198787Y57221I-186J763D01*
G03X195524Y58082I-1937J-725D01*
G01X195306Y57900D01*
X192759D01*
X190877Y56017D01*
X190387Y56229D01*
G03X187685Y55187I-820J-1898D01*
G02X186744Y54761I-715J325D01*
G03X185392Y50856I-595J-1980D01*
G02X185926Y48285I-576J-1461D01*
G01X180131Y42490D01*
X179773Y42515D01*
G03X181689Y40600I-147J-2063D01*
G01X181663Y40957D01*
X192272Y51567D01*
G02X194624Y51417I1110J-1110D01*
G03X196989Y50747I1636J1265D01*
G02X199113Y49278I554J-1469D01*
G01Y15626D01*
X198917Y15429D01*
Y14627D01*
X195373D01*
Y9162D01*
G37*
G36*
G01X174547Y73290D02*
X179161Y77904D01*
X179715Y77404D01*
G03X179854Y77289I1388J1533D01*
G02X180015Y74928I-948J-1251D01*
G01X177037Y71950D01*
X175102D01*
G02X174547Y73290I0J785D01*
G37*
G36*
G01X232031Y14157D02*
G03X228059Y14200I-2031J-4157D01*
G01X227562Y13970D01*
X223717Y17816D01*
X211276D01*
X208761Y20331D01*
Y50136D01*
X210493Y51868D01*
X210850Y51843D01*
G03X212938Y54619I147J2062D01*
G01X212890Y54750D01*
Y55675D01*
X213664D01*
X214189Y56200D01*
X219587D01*
Y67117D01*
X220753Y68283D01*
X221318Y67718D01*
X221328Y67707D01*
G03X221486Y67555I1513J1409D01*
G01X221757Y67320D01*
Y45995D01*
X229326Y38426D01*
G02X229292Y36172I-1110J-1110D01*
G03X232556Y33737I1417J-1506D01*
G01X232613Y33850D01*
X233257Y34494D01*
X234291Y33461D01*
Y15568D01*
G02X232031Y14157I-1570J0D01*
G37*
G36*
G01X236197Y36457D02*
X225887Y46767D01*
Y67847D01*
X225892Y67853D01*
Y69450D01*
X226152Y69684D01*
G03X224914Y73284I-1383J1537D01*
G02X223454Y74850I110J1566D01*
G01Y76650D01*
G02X226134Y77760I1570J0D01*
G01X226728Y77166D01*
Y74642D01*
X232696Y68674D01*
X232670Y68317D01*
G03X233437Y66558I2063J-147D01*
G02X233654Y64324I-984J-1224D01*
G03X237006Y61923I1582J-1332D01*
G02X238684Y62645I1344J-812D01*
G03X239098Y62598I440J2020D01*
G02X240649Y61028I-20J-1570D01*
G01Y46072D01*
X238877Y44301D01*
Y37567D01*
G02X236197Y36457I-1570J0D01*
G37*
G36*
G01X230370Y89863D02*
X227898Y92335D01*
X227924Y92692D01*
G03X224106Y93931I-2062J147D01*
G02X221662Y93650I-1333J829D01*
G01X220147Y95165D01*
X220173Y95522D01*
G03X220178Y95716I-2063J147D01*
G02X221747Y97322I1570J36D01*
G01X228347D01*
Y101726D01*
G02X230174Y103275I1570J0D01*
G03X230626Y103250I339J2040D01*
G02X232283Y101683I87J-1568D01*
G01Y97322D01*
X233375D01*
G02X234941Y95631I0J-1570D01*
G03X235651Y93906I2061J-159D01*
G01X235923Y93671D01*
Y89863D01*
X230370D01*
G37*
G36*
G01X228347Y108904D02*
Y116392D01*
G02X230463Y117864I1570J0D01*
G03X230915Y117753I718J1939D01*
G02X232283Y116196I-202J-1557D01*
G01Y107284D01*
X231151D01*
X231050Y107311D01*
G03X230174Y107355I-538J-1996D01*
G02X228347Y108904I-257J1549D01*
G37*
G36*
G01X291338Y30700D02*
Y18826D01*
X284452Y11940D01*
G02X282460Y11750I-1110J1110D01*
G03X279237Y9892I-1161J-1711D01*
G01X279262Y9535D01*
X278685Y8957D01*
X260291D01*
X253007Y16241D01*
X247889D01*
X245921Y18209D01*
X242575D01*
X241044Y19740D01*
Y43403D01*
X242816Y45175D01*
Y65763D01*
X243466Y65876D01*
G03X245117Y67415I-356J2037D01*
G01X245265Y68011D01*
X246233D01*
X247027Y67217D01*
Y60670D01*
X249902Y57794D01*
Y50025D01*
X249631Y49791D01*
G03X252340I1354J-1563D01*
G01X252069Y50025D01*
Y53093D01*
X252922D01*
X252990Y53081D01*
G03X253430Y53052I358J2037D01*
G02X254222Y52070I32J-784D01*
G03X258841Y49430I2668J-693D01*
G02X261062Y49431I1111J-1109D01*
G01X268602Y41892D01*
Y40861D01*
X270783Y38680D01*
X273792D01*
X274946Y37527D01*
X274920Y37169D01*
G03X276835Y39085I2063J-147D01*
G01X276478Y39059D01*
X275835Y39702D01*
G02X276390Y41043I555J555D01*
G01X277811D01*
X279583Y42814D01*
X288951D01*
X289185Y42543D01*
G03X289420Y42313I1562J1355D01*
G02X289522Y39999I-1008J-1204D01*
G01X288287Y38765D01*
Y34504D01*
X276323Y22540D01*
X267881D01*
G02X266623Y25050I0J1570D01*
G03X254414Y23904I-6623J4950D01*
G01X254669Y23670D01*
Y22540D01*
X252585D01*
X252350Y22811D01*
G03Y20102I-1563J-1354D01*
G01X252585Y20373D01*
X258688D01*
X258707Y20354D01*
X259981D01*
G02X261535Y19003I0J-1570D01*
G03X265631Y19014I2047J289D01*
G02X267187Y20373I1556J-211D01*
G01X277220D01*
X288657Y31810D01*
G02X291338Y30700I1110J-1110D01*
G37*
G36*
G01X250873Y89045D02*
X250168Y89750D01*
X247478D01*
X241866Y95361D01*
X241892Y95719D01*
G03X241896Y95801I-2063J140D01*
G02X243465Y97322I1569J-49D01*
G01X243702D01*
Y112461D01*
G02X245042Y113017I785J0D01*
G01X245618Y112440D01*
X246251D01*
Y111517D01*
X246204Y111387D01*
G03X247818Y106070I4347J-1583D01*
G02Y103536I-928J-1267D01*
G03X254284Y97070I2733J-3733D01*
G02X256818I1267J-928D01*
G03X257469Y96352I3734J2732D01*
G01X256946Y94982D01*
X255948D01*
X252263Y91297D01*
Y89859D01*
G02X251450Y89074I-785J0D01*
G03X251231Y89070I-73J-2067D01*
G01X250873Y89045D01*
G37*
G36*
G01X266915Y73748D02*
G03X267550Y71986I2757J-2D01*
G02X267451Y69873I-1209J-1002D01*
G01X266653Y69075D01*
G03X266737Y65097I1949J-1949D01*
G02X266784Y62831I-1063J-1156D01*
G01X265568Y61615D01*
X256890D01*
G03X255132Y60982I0J-2757D01*
G02X253021Y61081I-1001J1210D01*
G01X252658Y61444D01*
Y66874D01*
X254613Y68829D01*
X254971Y68804D01*
G03X256275Y69152I147J2063D01*
G02X257277Y69049I439J-651D01*
G03X261596Y72423I1975J1923D01*
G01X261479Y72613D01*
Y73621D01*
X262461D01*
X264159Y75319D01*
X265345D01*
G02X266915Y73748I0J-1570D01*
G37*
%LPC*%
G75*
G36*
G01X31972Y70386D02*
G03X31945Y69303I554J-556D01*
G02X28954Y69378I-1531J-1389D01*
G03X28980Y70461I-554J556D01*
G02X31972Y70386I1531J1389D01*
G37*
G36*
G01X150104Y46270D02*
G03X149600Y45559I280J-733D01*
G02X145112Y45018I-2284J63D01*
G03X144490Y45583I-757J-208D01*
G02X145948Y49856I392J2251D01*
G03X147743Y50088I733J1389D01*
G02X150104Y46270I1546J-1683D01*
G37*
G54D35*
X260000Y140000D03*
G54D32*
X38583Y102854D03*
X28248Y120472D03*
X46850Y108858D03*
X44685Y116732D03*
X83268Y182480D03*
X102185Y163878D03*
X170500Y145000D03*
X170866Y155610D03*
X197441Y147244D03*
X234843Y167913D03*
X252756Y128150D03*
X299409Y10039D03*
Y140748D03*
X138780Y133858D03*
X189587Y21437D03*
X217350Y37178D03*
G54D31*
X24606Y32700D03*
X33661Y45692D03*
G54D34*
X60118Y138031D03*
Y148031D03*
X50118Y143031D03*
Y153031D03*
X60118Y168031D03*
X50118Y163031D03*
X60118Y158031D03*
X50118Y173031D03*
G54D33*
X51378Y100197D03*
X82677Y111692D03*
X76575Y108641D03*
%LPD*%
G75*
G54D10*
X8858Y32700D03*
X19606Y133268D03*
Y177756D03*
X60000Y200000D03*
X260000Y30000D03*
Y140000D03*
G54D11*
X4921Y76614D03*
Y103091D03*
G54D20*
X256890Y51378D03*
Y58858D03*
X259252Y70972D03*
X256890Y82874D03*
Y90354D03*
Y76378D03*
X271260Y57283D03*
Y51378D03*
X269672Y73745D03*
X268602Y67126D03*
X271260Y90650D03*
X271824Y82604D03*
X283661Y53976D03*
X295373Y54670D03*
X285630Y119685D03*
X283661Y184528D03*
X299016Y25472D03*
Y90748D03*
Y119291D03*
Y156024D03*
Y184528D03*
G54D30*
G01X283661Y53976D02*
X276024Y61614D01*
X269466D01*
X266710Y58858D01*
X256890D01*
G01X285630Y119685D02*
Y115256D01*
X283661Y113287D01*
Y87735D01*
X283366Y87439D01*
Y85106D01*
X281036Y82776D01*
X278400D01*
X273700Y78076D01*
X263017D01*
X261319Y76378D01*
X256890D01*
G01Y90354D02*
X262099D01*
X268406Y96661D01*
Y124841D01*
X280315Y136750D01*
Y181181D01*
X283661Y184528D01*
G01X271260Y51378D02*
X273189Y49449D01*
X290152D01*
X295373Y54670D01*
G01X299016Y119291D02*
X295884Y116159D01*
X295549D01*
X288189Y108799D01*
Y85859D01*
X287894Y85564D01*
Y83230D01*
X282912Y78248D01*
X280299D01*
X271466Y69415D01*
X270891D01*
X268602Y67126D01*
G01X271824Y82604D02*
Y83635D01*
X275591Y87402D01*
Y92444D01*
X272933Y95101D01*
Y122965D01*
X285236Y135269D01*
Y170748D01*
X299016Y184528D01*
G54D21*
G01X237992Y99803D02*
X232087D01*
G01X237992Y109803D02*
X230354D01*
G01X237992Y114803D02*
X230945D01*
G01X244488Y101870D02*
X243799D01*
G01D02*
X241732Y99803D01*
X237992D01*
G54D12*
X6693Y117126D03*
Y113780D03*
Y110433D03*
X24606Y80512D03*
Y77165D03*
Y83858D03*
X33661Y57087D03*
X29724D03*
Y61220D03*
X29528Y84428D03*
X54134Y77559D03*
X46654D03*
X50394D03*
X45079Y95276D03*
Y91535D03*
X51378Y100197D03*
X72835Y89567D03*
Y81693D03*
Y77756D03*
Y85630D03*
Y101378D03*
Y97441D03*
Y93504D03*
X76772Y89567D03*
Y77756D03*
Y85630D03*
Y81693D03*
Y101378D03*
Y97441D03*
Y93504D03*
X82677Y111692D03*
X76575Y108641D03*
X105315Y78013D03*
Y81693D03*
Y85630D03*
Y89567D03*
Y93504D03*
Y97441D03*
Y101378D03*
X122244Y37402D03*
X117717Y37205D03*
X121063Y63976D03*
X109252Y77756D03*
Y81693D03*
Y85630D03*
Y89567D03*
Y93504D03*
Y97441D03*
Y101378D03*
X137992Y37205D03*
X127953Y50000D03*
Y46457D03*
X135039Y57283D03*
Y53740D03*
Y60827D03*
X124803Y63976D03*
X126969Y67323D03*
X141950Y36704D03*
X147316Y45622D03*
X149289Y48405D03*
X144882Y47835D03*
X147441Y73622D03*
X142126D03*
X163386Y51161D03*
Y61438D03*
G54D22*
G01X71016Y66728D02*
Y67629D01*
X76911Y73524D01*
X104035D01*
X105118Y72441D01*
G54D13*
X24606Y32700D03*
X33661Y19708D03*
Y45692D03*
G54D23*
G01X237992Y119803D02*
X231181D01*
G54D14*
X16339Y80010D03*
Y99695D03*
G54D24*
G01X43307Y77559D02*
X39370Y81496D01*
Y88976D01*
X34449Y93898D01*
G01X58858Y62205D02*
Y76315D01*
X55153Y80020D01*
X51870D01*
X37205Y94685D01*
G01X50197Y66142D02*
X52559D01*
X55709Y62992D01*
Y60900D01*
X57553Y59055D01*
X74608D01*
X75299Y59746D01*
Y59747D01*
X78241Y62688D01*
Y64881D01*
X78189Y64932D01*
Y66564D01*
X79342Y67717D01*
X80973D01*
X81170Y67520D01*
X94460D01*
X95444Y66535D01*
X101772D01*
X103346Y68110D01*
X106913D01*
X107107Y68304D01*
X109249D01*
X113976Y73031D01*
X117520D01*
X123425Y78937D01*
X124409D01*
G01X45472Y70768D02*
X46934Y72230D01*
X52180D01*
X56890Y67520D01*
Y61389D01*
X58043Y60236D01*
X74118D01*
X77059Y63178D01*
Y64391D01*
X77008Y64443D01*
Y67053D01*
X78852Y68898D01*
X81463D01*
X81659Y68701D01*
X96063D01*
G01X48091Y184980D02*
X63839D01*
X110039Y138780D01*
Y135529D01*
X111907Y133661D01*
X114794D01*
X121290Y127165D01*
X123987D01*
X124184Y127362D01*
X127067D01*
X127461Y126969D01*
G01X125000Y125394D02*
X121391D01*
X114304Y132480D01*
X112396D01*
X111418Y132480D01*
X108858Y135040D01*
Y137926D01*
X64304Y182480D01*
X46457D01*
G01X73858Y66991D02*
Y67244D01*
X78464Y71850D01*
X97368D01*
X98746Y70472D01*
X105934D01*
X106128Y70667D01*
X106900D01*
X113202Y76969D01*
X117903D01*
X124596Y83661D01*
X143110D01*
X152783Y93335D01*
X155739D01*
X156978Y94574D01*
G01X74000Y200000D02*
X88567Y185433D01*
X125422D01*
X142323Y168532D01*
Y154556D01*
X148819Y148060D01*
Y142616D01*
X144882Y138679D01*
Y125663D01*
X144488Y125269D01*
Y121825D01*
X146333Y119980D01*
X148352D01*
X153740Y114593D01*
Y112008D01*
X165158Y100591D01*
X165675D01*
X165872Y100394D01*
X172494D01*
X181553Y91335D01*
X183071Y89817D01*
Y83690D01*
X179134Y79753D01*
Y79409D01*
X171772Y72047D01*
X163681D01*
X162008Y73720D01*
G01X154242Y95389D02*
X155704Y96850D01*
X157485D01*
X158858Y95478D01*
Y95157D01*
X158946Y95069D01*
Y93758D01*
X157165Y91976D01*
X153393D01*
X143897Y82480D01*
X125085D01*
X118254Y75650D01*
X114626D01*
X108462Y69485D01*
X106617D01*
X106423Y69291D01*
X98257D01*
X96879Y70669D01*
X78954D01*
X75827Y67543D01*
Y64729D01*
X75091Y63993D01*
G01X219220Y72737D02*
X217839Y74118D01*
Y74757D01*
X216687Y75910D01*
X210258D01*
X206198Y71850D01*
X201013D01*
X193872Y64710D01*
X190503D01*
X187998Y62205D01*
X181693D01*
X175000Y68898D01*
X130156D01*
X126612Y72441D01*
X120501D01*
X117154Y69094D01*
X113948D01*
X109221Y64367D01*
X95942D01*
X94561Y65748D01*
X80157D01*
G01X84000Y200000D02*
Y194543D01*
X91339Y187205D01*
X125787D01*
X150000Y162992D01*
Y146918D01*
X150000Y146917D01*
Y142127D01*
X146063Y138189D01*
Y125173D01*
X145669Y124780D01*
Y122314D01*
X146822Y121161D01*
X148842D01*
X154921Y115082D01*
Y113062D01*
X166015Y101969D01*
X172590D01*
X182042Y92517D01*
X184252Y90307D01*
Y77632D01*
X177486Y70866D01*
X162008D01*
G01X90354Y177953D02*
X92421D01*
X93012Y178543D01*
X113189D01*
X115551Y176181D01*
Y175394D01*
X118588Y172357D01*
X125309D01*
X126969Y170698D01*
Y169066D01*
X122343Y164440D01*
Y163806D01*
X122203Y163666D01*
Y162034D01*
X122343Y161894D01*
Y157865D01*
X125274Y154933D01*
X127969D01*
X134843Y148060D01*
Y146822D01*
X135995Y145669D01*
X137233D01*
X141142Y141761D01*
Y141704D01*
X142294Y140551D01*
X142351D01*
X143701Y139202D01*
Y126153D01*
X143307Y125759D01*
Y122314D01*
X143307Y121336D01*
X145843Y118799D01*
X147863D01*
X152559Y114103D01*
Y111339D01*
X164488Y99409D01*
X165186D01*
X165776Y98819D01*
X172398D01*
X181890Y89328D01*
Y84179D01*
X177953Y80242D01*
Y79898D01*
X172072Y74018D01*
X164847D01*
G01X169020Y32089D02*
X157871D01*
X149606Y40354D01*
X119882D01*
X114469Y45768D01*
G01X112500Y40354D02*
Y46583D01*
X113583Y47666D01*
Y50324D01*
X113189Y50717D01*
Y60630D01*
X117520Y64961D01*
Y66142D01*
X120079Y68701D01*
G01X115157Y58858D02*
X118818Y62519D01*
Y64823D01*
X120728Y66732D01*
X122441D01*
X125217Y69509D01*
X127874D01*
X129666Y67717D01*
X172835D01*
X179528Y61024D01*
X188487D01*
X190992Y63529D01*
X194434D01*
X201575Y70669D01*
X206687D01*
X209960Y73942D01*
X215871D01*
G01X113583Y167913D02*
X115078Y166418D01*
Y159557D01*
X122244Y152391D01*
Y152191D01*
X123548Y150886D01*
X124730D01*
X126883Y148733D01*
Y140169D01*
G01X113076Y160486D02*
X113897Y159665D01*
Y157598D01*
X119794Y151701D01*
X121063D01*
X123059Y149705D01*
X124241D01*
X125394Y148552D01*
Y141547D01*
X124915Y141068D01*
Y138265D01*
X125518Y137662D01*
G01X114000Y200000D02*
X121087Y192913D01*
X133268D01*
X147441Y178740D01*
X222291D01*
G01X173778Y81991D02*
X171711D01*
X171020Y81299D01*
X126772D01*
X124409Y78937D01*
G01X123425Y92717D02*
X125591Y90551D01*
Y90129D01*
X126743Y88976D01*
X128375D01*
X129528Y90129D01*
Y99606D01*
X133465Y103543D01*
Y108268D01*
X140945Y115748D01*
Y120669D01*
X141339Y121063D01*
Y123130D01*
G01X124803Y98621D02*
X123158Y100266D01*
Y102559D01*
X125627Y105028D01*
Y116302D01*
X129429Y120104D01*
Y128022D01*
X128044Y129407D01*
X125977D01*
G01X135925Y128543D02*
X132008Y124626D01*
Y121013D01*
X126969Y115973D01*
Y103300D01*
X125126Y101457D01*
G01X133858Y119094D02*
X132087Y117323D01*
Y115523D01*
X129724Y113161D01*
Y104331D01*
G01X127559Y90945D02*
Y99381D01*
X132087Y103909D01*
Y113372D01*
X136220Y117506D01*
Y123946D01*
X137432Y125157D01*
X139921D01*
X141732Y126969D01*
G01X219614Y180976D02*
X149141D01*
X135630Y194488D01*
X129512D01*
X124000Y200000D01*
G01X216929Y182945D02*
X151055D01*
X134000Y200000D01*
G01X151326Y83468D02*
X154472Y86614D01*
X159814D01*
X162767Y83661D01*
X164398D01*
X165551Y84814D01*
Y88780D01*
X161566Y92765D01*
Y95790D01*
X161220Y96136D01*
Y97441D01*
X146260Y112402D01*
X145177D01*
X142913Y114665D01*
G01X144291Y110433D02*
Y107283D01*
X144882Y106693D01*
Y103543D01*
G01X163583Y85630D02*
X160236Y88976D01*
Y95450D01*
X160039Y95646D01*
Y96063D01*
X157335Y98768D01*
X153098D01*
G01X146063Y114665D02*
X150886Y109843D01*
X151772D01*
X162402Y99213D01*
Y96625D01*
X164145Y94882D01*
X173551D01*
G01X193739Y69204D02*
X189173Y73770D01*
Y81102D01*
X189174Y81103D01*
Y92702D01*
X180315Y101562D01*
Y105737D01*
X178178Y107874D01*
X169952D01*
X165354Y112472D01*
Y117520D01*
X155709Y127165D01*
Y131991D01*
X153543Y134156D01*
Y137132D01*
X162008Y145596D01*
Y168237D01*
X164440Y170669D01*
X165354D01*
X168307Y173622D01*
G01X186703Y64411D02*
X188780Y66487D01*
Y70823D01*
X186811Y72792D01*
Y82081D01*
X186811Y91088D01*
X183021Y94878D01*
X172781Y105118D01*
X169367D01*
X162205Y112280D01*
Y116167D01*
X152362Y126010D01*
Y131996D01*
X151181Y133178D01*
Y139461D01*
X158935Y147214D01*
Y163281D01*
X156102Y166113D01*
Y168898D01*
X162992Y175787D01*
G01X165331Y174150D02*
X160827Y169646D01*
Y146086D01*
X152362Y137621D01*
Y133667D01*
X154409Y131620D01*
Y126628D01*
X164055Y116982D01*
Y112101D01*
X169463Y106693D01*
X177391D01*
X178937Y105146D01*
Y100633D01*
X183510Y96059D01*
X183511D01*
X187993Y91578D01*
Y81592D01*
X187992Y81592D01*
Y73281D01*
X189961Y71313D01*
Y69128D01*
X192410Y66678D01*
G01X149409Y127756D02*
X150871Y126294D01*
Y125830D01*
X160276Y116426D01*
Y112539D01*
X169271Y103543D01*
X172685D01*
X182531Y93697D01*
X182532D01*
X185433Y90796D01*
Y67815D01*
X183858Y66240D01*
Y64173D01*
G01X167620Y37206D02*
X174213Y43798D01*
Y55709D01*
X178346Y59843D01*
X188976D01*
X191481Y62348D01*
X194924D01*
X202064Y69488D01*
X207177D01*
X208358Y70669D01*
X219937D01*
X221189Y71921D01*
Y73553D01*
X220398Y74343D01*
Y77091D01*
G01X159744Y56791D02*
Y47342D01*
X159055Y46654D01*
Y37007D01*
X162007Y34056D01*
X168926D01*
X168928Y34058D01*
X169835D01*
X170988Y32905D01*
Y27043D01*
X175591Y22441D01*
X176772D01*
X194134Y5079D01*
X279123D01*
X292421Y18377D01*
Y38583D01*
G01X160236Y64961D02*
X162955D01*
X164141Y63775D01*
X170083D01*
X172835Y61024D01*
Y45204D01*
X165652Y38021D01*
Y36390D01*
X166805Y35237D01*
X168436D01*
X168438Y35239D01*
X170325D01*
X173228Y32335D01*
Y28150D01*
G01X164292Y76818D02*
X173202D01*
X176772Y80388D01*
Y80731D01*
X180709Y84669D01*
Y88780D01*
X176575Y92913D01*
X172806D01*
X171654Y91761D01*
Y90129D01*
X172945Y88838D01*
X175548D01*
G01X162795Y79331D02*
X174044D01*
X175591Y80877D01*
Y81221D01*
X179528Y85158D01*
Y88291D01*
X176873Y90945D01*
X173622D01*
G01X158352Y83577D02*
X161108D01*
X162205Y82480D01*
X165157D01*
X167520Y84843D01*
X173622D01*
G01X190087Y114047D02*
X185531D01*
X166142Y133436D01*
Y136391D01*
X161848Y140684D01*
X158766D01*
X154724Y136643D01*
Y134843D01*
X158563Y131004D01*
G01X186800Y99411D02*
X181693Y104518D01*
Y110827D01*
X156693Y135827D01*
G01X192913Y99409D02*
X191913Y100410D01*
Y106254D01*
X188906Y109261D01*
X188647D01*
X162536Y135372D01*
Y137212D01*
X161032Y138716D01*
G01X159646Y136220D02*
X187205Y108661D01*
Y105393D01*
X189647Y102951D01*
Y99198D01*
G01X196850Y56496D02*
X196530Y56816D01*
X193208D01*
X191996Y55604D01*
Y52823D01*
X179626Y40453D01*
G01X217323Y146063D02*
X210433Y139173D01*
Y136480D01*
X205252Y131299D01*
X190720D01*
X182564Y123144D01*
Y123115D01*
X181102Y121654D01*
G01X174213Y128150D02*
X180315D01*
X185039Y132874D01*
X202756D01*
X205118Y135236D01*
G01X182283Y171654D02*
X210039D01*
X219291Y162402D01*
Y145247D01*
X211614Y137570D01*
Y135991D01*
X194448Y118825D01*
Y115197D01*
X196579Y113067D01*
Y101224D01*
G01X200197Y54724D02*
Y15177D01*
X200000Y14980D01*
Y10000D01*
G01X196457Y70079D02*
X190354Y76181D01*
Y80613D01*
X190355Y80613D01*
Y92215D01*
X198547Y100408D01*
Y102039D01*
X198454Y102132D01*
Y113357D01*
X195630Y116181D01*
Y118335D01*
X212795Y135501D01*
Y137081D01*
X228346Y152632D01*
Y191654D01*
X220000Y200000D01*
G01X198562Y81706D02*
X202682Y85827D01*
X203762D01*
X207502Y89567D01*
G01X222638Y104803D02*
X219409D01*
X217217Y102611D01*
X211943D01*
X209050Y99718D01*
X208278D01*
X200019Y91459D01*
Y91226D01*
X198557Y89764D01*
G01X222638Y109803D02*
X217452D01*
X211023Y103374D01*
Y103363D01*
X208560Y100899D01*
X207789D01*
X205315Y98425D01*
X203346D01*
X196457Y91535D01*
Y81027D01*
X198423Y79061D01*
Y76994D01*
G01X230000Y200000D02*
Y152615D01*
X213976Y136591D01*
Y131710D01*
X199635Y117369D01*
Y102622D01*
X199728Y102529D01*
Y99919D01*
X191536Y91726D01*
Y79753D01*
X191535Y79753D01*
Y78121D01*
X195247Y74409D01*
X205709D01*
G01X193504Y78937D02*
Y92024D01*
X200910Y99430D01*
Y100407D01*
X200909Y100408D01*
Y101959D01*
X203413Y104463D01*
Y104662D01*
X207720Y108969D01*
Y116192D01*
X207648Y116264D01*
Y117896D01*
X207720Y117968D01*
Y122113D01*
X216465Y130857D01*
Y134770D01*
X233341Y151646D01*
X234057Y152362D01*
X247047D01*
X265748Y171063D01*
G01X209617Y117080D02*
Y109195D01*
X204594Y104173D01*
Y103974D01*
X202091Y101470D01*
Y98940D01*
X195079Y91928D01*
Y80146D01*
X195571Y79654D01*
Y76870D01*
G01X201604Y105438D02*
Y110404D01*
X200892Y111116D01*
Y116955D01*
X215283Y131346D01*
Y135259D01*
X232506Y152482D01*
X233568Y153543D01*
X245079D01*
X268012Y176476D01*
X271161D01*
G01X203740Y55512D02*
Y16260D01*
X210000Y10000D01*
G01X207803Y54402D02*
X205709Y52307D01*
Y19094D01*
X209646Y15157D01*
X214843D01*
X220000Y10000D01*
G01X210997Y53905D02*
X207677Y50585D01*
Y19882D01*
X210827Y16732D01*
X223268D01*
X230000Y10000D01*
G01X222638Y99803D02*
X210805D01*
X209539Y98537D01*
X208942D01*
X206496Y96091D01*
Y94460D01*
X222370Y78586D01*
Y71432D01*
X218504Y67566D01*
Y57283D01*
X213740D01*
X213215Y56758D01*
X211089D01*
G01X234733Y68169D02*
X227811Y75091D01*
Y77615D01*
X211567Y93859D01*
Y96110D01*
G01X203740Y78150D02*
X208465Y82874D01*
X212008D01*
G01X201772Y80512D02*
X206693Y85433D01*
X210236D01*
G01X207744Y102868D02*
X219409Y114533D01*
Y114803D01*
X222638D01*
G01X250984Y71654D02*
X245545D01*
X241929Y75270D01*
Y78872D01*
X240565Y80236D01*
Y80713D01*
X239371Y81907D01*
Y82903D01*
X236128Y86146D01*
X224849D01*
X212917Y98079D01*
X210751D01*
X208465Y95792D01*
Y95276D01*
G01X214883Y93327D02*
X223245Y84965D01*
X231740D01*
X236903Y79802D01*
Y76955D01*
X244763Y69094D01*
X246682D01*
X248110Y67666D01*
Y61119D01*
X250986Y58243D01*
Y48228D01*
G01X204724Y100787D02*
X204846D01*
X205776Y101717D01*
Y103683D01*
X212269Y110177D01*
Y118136D01*
G01X215945Y114370D02*
Y118898D01*
X213386Y121457D01*
G01X212269Y118136D02*
X211417Y118987D01*
Y122272D01*
X212570Y123425D01*
X215821D01*
X216412Y122835D01*
X221850D01*
X226253Y127237D01*
X232015D01*
G01X209617Y117080D02*
Y122339D01*
X217646Y130368D01*
Y134280D01*
X234153Y150787D01*
X248257D01*
X274409Y176940D01*
Y185630D01*
X279921Y191142D01*
X287008D01*
X289764Y188386D01*
G01X222835Y130821D02*
X221373Y129359D01*
X218308D01*
X215748Y126800D01*
Y125169D01*
X216901Y124016D01*
X221361D01*
X226551Y129206D01*
X238491D01*
X244272Y123425D01*
Y115319D01*
X246067Y113524D01*
X246831D01*
X250551Y109803D01*
G01X215157Y162992D02*
X209252D01*
X208268Y163976D01*
X202559D01*
G01X226378Y183071D02*
Y188386D01*
X221457Y193307D01*
X216693D01*
X210000Y200000D01*
G01X222840Y69117D02*
Y46444D01*
X235374Y33910D01*
Y14626D01*
X240000Y10000D01*
G01X250000D02*
X244449Y15551D01*
X240551D01*
X236811Y19291D01*
Y34311D01*
X224803Y46319D01*
Y68296D01*
X224809Y68302D01*
Y71182D01*
X224769Y71221D01*
G01X225861Y92839D02*
X229921Y88780D01*
X236835D01*
X241733Y83882D01*
Y83523D01*
X243715Y81541D01*
G01X237246Y66815D02*
Y70235D01*
X233465Y74016D01*
Y75443D01*
X225910Y82997D01*
G01X218110Y95669D02*
X226452Y87328D01*
X236617D01*
X240552Y83393D01*
Y82396D01*
X241747Y81202D01*
Y80725D01*
X243202Y79269D01*
Y75667D01*
X245247Y73622D01*
X251800D01*
X252953Y72469D01*
Y68701D01*
X251575Y67323D01*
Y60995D01*
X254035Y58535D01*
Y57676D01*
X257676Y54035D01*
X257991D01*
X269685Y42341D01*
Y41310D01*
X271231Y39764D01*
X274241D01*
X276983Y37022D01*
G01X222638Y119803D02*
Y121952D01*
X224028Y123341D01*
X227869D01*
X229331Y124803D01*
G01X219659Y131573D02*
X221354Y133268D01*
X238976D01*
X247835Y124409D01*
Y122441D01*
X250472Y119803D01*
X250551D01*
G01X217717Y125984D02*
X221659D01*
X226061Y130387D01*
X238981D01*
X245571Y123796D01*
Y115690D01*
X246438Y114823D01*
X255531D01*
X260551Y109803D01*
G01X281299Y10039D02*
X279134Y7874D01*
X259842D01*
X252559Y15157D01*
X247441D01*
X245472Y17126D01*
X242126D01*
X239961Y19291D01*
Y43852D01*
X241732Y45624D01*
Y65157D01*
X241142Y65748D01*
Y68701D01*
X234935Y74908D01*
Y78987D01*
X234575Y79346D01*
G01X238872Y79232D02*
Y76657D01*
X245253Y70276D01*
X247171D01*
X250394Y67053D01*
Y60506D01*
X252854Y58045D01*
Y57185D01*
X253346Y56693D01*
Y55118D01*
G01X239829Y95866D02*
X247029Y88667D01*
X249719D01*
X251378Y87008D01*
G01X245656Y85134D02*
X246932Y83858D01*
X251013D01*
X253346Y86192D01*
Y90848D01*
X256397Y93898D01*
X261606D01*
X265551Y97843D01*
Y128543D01*
X276378Y139370D01*
G01X237002Y95471D02*
X237007Y95467D01*
Y90999D01*
X244840Y83166D01*
X244874D01*
X245683Y82357D01*
Y75998D01*
X245669Y75984D01*
G01X241142Y187795D02*
Y193878D01*
X240000Y195020D01*
Y200000D01*
G01X292520Y105000D02*
Y92126D01*
X296654Y87992D01*
Y57427D01*
X298228Y55853D01*
Y53346D01*
X292751Y47870D01*
Y41697D01*
X289370Y38316D01*
Y34055D01*
X276772Y21457D01*
X260943D01*
X260844Y21437D01*
X259156D01*
X259137Y21457D01*
X250787D01*
G01X255118Y70866D02*
Y72340D01*
X250743Y76716D01*
Y78473D01*
X252191Y79921D01*
X257695D01*
X260728Y82954D01*
Y84154D01*
X262795Y86220D01*
G01X271654Y42126D02*
X277362D01*
X279134Y43898D01*
X290748D01*
G01X280512Y72441D02*
X285630D01*
X287795Y70276D01*
G01X277144Y96829D02*
X279134Y98819D01*
Y106299D01*
X276575Y108858D01*
Y121457D01*
G01X290945Y70079D02*
Y83465D01*
X291535Y84055D01*
G01X290524Y125564D02*
X283760D01*
X283663Y125467D01*
X281596D01*
G54D15*
X30413Y67913D03*
X30512Y71850D03*
X29232Y78740D03*
X38583Y102854D03*
X34449Y93898D03*
X37205Y94685D03*
X28248Y120472D03*
X50197Y66142D03*
X45472Y70768D03*
X46850Y105709D03*
Y108858D03*
X44685Y116732D03*
Y126575D03*
X48091Y184980D03*
X46457Y182480D03*
X62992Y66929D03*
X73858Y66991D03*
X58858Y62205D03*
X71016Y66728D03*
X75091Y63993D03*
X80157Y65748D03*
X90551Y79724D03*
X85630D03*
X80709D03*
X90551Y84646D03*
X85630D03*
X80709D03*
Y89567D03*
X85630D03*
X90551D03*
Y99409D03*
Y94488D03*
X85630Y99409D03*
X80709D03*
X85630Y94488D03*
X80709D03*
X83268Y182480D03*
X90354Y177953D03*
X103740Y60531D03*
X105118Y72441D03*
X96063Y68701D03*
X100394Y79724D03*
X95472D03*
X100394Y84646D03*
X95472D03*
X100394Y89567D03*
X95472D03*
X100394Y99409D03*
X95472D03*
X100394Y94488D03*
X95472D03*
X102185Y138878D03*
Y163878D03*
X92717Y182087D03*
X112500Y40354D03*
X111614Y49508D03*
X114469Y45768D03*
X107766Y66336D03*
X116339Y71063D03*
X115157Y58858D03*
X115161Y66647D03*
X120079Y68701D03*
X112402Y79035D03*
X120472Y104134D03*
X113780D03*
X117126D03*
X113189Y113189D03*
X112598Y117402D03*
X113386Y121654D03*
X121417Y133031D03*
X114492Y137008D03*
X108181Y123819D03*
X117824Y133415D03*
X119291Y168110D03*
X113583Y167913D03*
X113076Y160486D03*
X115945Y181890D03*
X119488D03*
X114370Y172190D03*
X123743Y76161D03*
X138165Y90008D03*
X124409Y78937D03*
X136393Y98177D03*
X131496Y91584D03*
X137968Y102117D03*
X125007Y95774D03*
X124803Y98621D03*
X125126Y101457D03*
X129724Y104331D03*
X123425Y92717D03*
X127559Y90945D03*
X127067Y122047D03*
X128937Y115157D03*
X136614Y114665D03*
X133858Y119094D03*
X135925Y136417D03*
Y131693D03*
X138189Y123130D03*
X125518Y137662D03*
X127461Y126969D03*
X125000Y125394D03*
X125977Y129407D03*
X135925Y128543D03*
X136811Y147638D03*
X126883Y140169D03*
X136417Y143701D03*
X128227Y150174D03*
X136220Y140551D03*
X126772Y152756D03*
X133661Y163780D03*
X129331Y166929D03*
X124311Y162890D03*
X125000Y169882D03*
X128397Y164231D03*
X130118Y177559D03*
X126378Y181693D03*
X153642Y44882D03*
X138559Y85972D03*
X152362Y87795D03*
X151326Y83468D03*
X151452Y96209D03*
X144882Y103543D03*
X153098Y98768D03*
X144291Y110433D03*
X149213Y114665D03*
X142913D03*
X146063D03*
X150787Y123130D03*
X138780Y133858D03*
X147638Y123130D03*
X141339D03*
X149409Y127756D03*
X141732Y126969D03*
X143110Y142520D03*
X141606Y147233D03*
X146260Y144291D03*
X139173Y163976D03*
X140157Y181693D03*
X163587Y37096D03*
X169020Y32089D03*
X167620Y37206D03*
X168307Y46063D03*
X161024Y44488D03*
X159744Y56791D03*
X164956Y65743D03*
X162008Y73720D03*
Y70866D03*
X164847Y74018D03*
X160236Y64961D03*
X154486Y89703D03*
X164292Y76818D03*
X162795Y79331D03*
X158352Y83577D03*
X163583Y85630D03*
X165157Y92913D03*
X154242Y95389D03*
X156978Y94574D03*
X164370Y97441D03*
X169882Y110728D03*
X157317Y114561D03*
X159055Y127362D03*
X158563Y131004D03*
X156693Y135827D03*
X159646Y136220D03*
X161032Y138716D03*
X154764Y161850D03*
X164567Y155610D03*
X163976Y167421D03*
X158071Y166929D03*
X167520Y167421D03*
X154961Y157992D03*
X168307Y173622D03*
X162992Y175787D03*
X165331Y174150D03*
X178937Y36220D03*
X184055Y40157D03*
X179626Y40453D03*
X173228Y28150D03*
X183858Y64173D03*
X173778Y81991D03*
X181102Y78937D03*
X177557Y86809D03*
X175548Y88838D03*
X173622Y84843D03*
X176575Y104724D03*
X173622Y90945D03*
X173551Y94882D03*
X172287Y117365D03*
X173425Y110728D03*
X181102Y121654D03*
X173974Y135474D03*
X174213Y128150D03*
X184449Y129134D03*
X170447Y135578D03*
X175000Y142500D03*
X170500Y145000D03*
X170866Y155610D03*
X182283Y171654D03*
X189587Y21437D03*
X194024Y54848D03*
X188118Y43627D03*
X196260Y52682D03*
X186150Y52780D03*
X196850Y56496D03*
X200197Y54724D03*
X189567Y54331D03*
X196457Y70079D03*
X193739Y69204D03*
X186703Y64411D03*
X192410Y66678D03*
X198562Y81706D03*
X198557Y89764D03*
X198423Y76994D03*
X201772Y80512D03*
X193504Y78937D03*
X195571Y76870D03*
X189944Y105438D03*
X196579Y101224D03*
X201604Y105438D03*
X186800Y99411D03*
X192913Y99409D03*
X189647Y99198D03*
X197598Y117520D03*
X190087Y114047D03*
X195039Y134843D03*
X190354Y128150D03*
X193307Y125984D03*
X194882Y123031D03*
X198819Y128543D03*
X197441Y147244D03*
X211220Y41339D03*
X217350Y37178D03*
X213709Y52780D03*
X211089Y56758D03*
X203740Y55512D03*
X207803Y54402D03*
X210997Y53905D03*
X205709Y74409D03*
X215871Y73942D03*
X207502Y89567D03*
X203740Y78150D03*
X212008Y82874D03*
X210236Y85433D03*
X216806Y79060D03*
X207744Y102868D03*
X211567Y96110D03*
X208465Y95276D03*
X214883Y93327D03*
X215748Y105315D03*
X204724Y100787D03*
X205752Y113706D03*
X202860Y113872D03*
X215945Y114370D03*
X213386Y121457D03*
X212269Y118136D03*
X209617Y117080D03*
X205118Y135236D03*
X217717Y125984D03*
X217323Y146063D03*
X215157Y162992D03*
X202559Y163976D03*
X216929Y182945D03*
X230709Y34665D03*
X222840Y69117D03*
X224769Y71221D03*
X219220Y72737D03*
X220398Y77091D03*
X225910Y82997D03*
X230512Y105315D03*
X225861Y92839D03*
X218110Y95669D03*
X230354Y109803D03*
X230945Y114803D03*
X231181Y119803D03*
X229331Y124803D03*
X219659Y131573D03*
X222835Y130821D03*
X230906Y135236D03*
X232015Y127237D03*
X226378Y183071D03*
X219614Y180976D03*
X222291Y178740D03*
X237402Y38425D03*
X248138Y48425D03*
X233957Y43841D03*
X239370Y49508D03*
X235236Y53150D03*
X245866Y67126D03*
X235236Y62992D03*
X239124Y64665D03*
X243110Y67913D03*
X234733Y68169D03*
X237246Y66815D03*
X248425Y85827D03*
X237402Y82087D03*
X238872Y79232D03*
X243715Y81541D03*
X234575Y79346D03*
X245656Y85134D03*
X245669Y75984D03*
X244489Y104724D03*
X244488Y101870D03*
X239829Y95866D03*
X237002Y95471D03*
X234843Y167913D03*
X241142Y187795D03*
X263583Y19291D03*
X250787Y21457D03*
X250986Y48228D03*
X253346Y55118D03*
X253543Y61811D03*
X250984Y71654D03*
X255118Y70866D03*
X252711Y77657D03*
X255709Y86811D03*
X262795Y86220D03*
X251378Y87008D03*
X252756Y128150D03*
X281299Y10039D03*
X271654Y42126D03*
X276983Y37022D03*
X276969Y45276D03*
X280512Y72441D03*
X279528Y86417D03*
X277144Y96829D03*
X276575Y100844D03*
Y121457D03*
X276378Y139370D03*
X271161Y176476D03*
X265748Y171063D03*
X292421Y38583D03*
X289653Y57286D03*
X290748Y43898D03*
X287795Y70276D03*
X290945Y70079D03*
X292913Y87992D03*
X291535Y84055D03*
X292520Y105000D03*
X281596Y125467D03*
X290524Y125564D03*
X289764Y188386D03*
X299409Y10039D03*
X299606Y75394D03*
X299409Y140748D03*
G54D25*
G01X180000Y10000D02*
X174193Y4193D01*
X59783D01*
X44269Y19708D01*
X33661D01*
G54D16*
X60118Y138031D03*
X50118Y143031D03*
X60118Y148031D03*
X50118Y153031D03*
X60118Y158031D03*
X50118Y163031D03*
X60118Y168031D03*
X50118Y173031D03*
G54D26*
G01X244489Y104724D02*
X238071D01*
X237992Y104803D01*
G01Y123622D02*
X239567Y126181D01*
X236417D01*
X237992Y123622D01*
G54D17*
X74000Y200000D03*
X84000D03*
X94000D03*
X104000D03*
X120000Y10000D03*
X114000Y200000D03*
X124000D03*
X140000Y10000D03*
X130000D03*
X134000Y200000D03*
X150000Y10000D03*
X144000Y200000D03*
X154000D03*
X170000Y10000D03*
X160000D03*
X180000D03*
Y200000D03*
X190000D03*
X200000D03*
X220000Y10000D03*
X210000D03*
Y200000D03*
X220000D03*
X230000Y10000D03*
Y200000D03*
X250000Y10000D03*
X240000D03*
X250551Y99803D03*
Y109803D03*
X240000Y200000D03*
X260551Y99803D03*
Y119803D03*
Y109803D03*
G54D27*
G01X29724Y61220D02*
Y57087D01*
G01D02*
X33661D01*
G01X43307Y77559D02*
X41142Y75394D01*
Y64567D01*
X33661Y57087D01*
G01X46654Y77559D02*
X43307D01*
G01X46654D02*
X50394D01*
G01D02*
X54134D01*
G54D18*
X110000Y10000D03*
X164000Y200000D03*
X200000Y10000D03*
X250551Y119803D03*
X250000Y200000D03*
G54D28*
G01X113076Y160486D02*
X111555Y162007D01*
Y168754D01*
X112936Y170135D01*
X118448D01*
X118451Y170138D01*
X120131D01*
X120135Y170135D01*
X122621D01*
X122874Y169882D01*
X125000D01*
G01X128227Y150174D02*
X134700Y143701D01*
X136417D01*
G01X279528Y86417D02*
Y94445D01*
X277144Y96829D01*
G01X289653Y57286D02*
X293563Y61196D01*
Y85217D01*
X292913Y85866D01*
Y87992D01*
G54D19*
X222638Y99803D03*
Y104803D03*
Y109803D03*
Y114803D03*
Y119803D03*
X237992Y99803D03*
Y104803D03*
Y109803D03*
Y114803D03*
Y119803D03*
G54D29*
G01X4921Y76614D02*
Y80993D01*
G01Y76614D02*
X10038D01*
G01X4921D02*
X10038Y80602D01*
G01X4921Y76614D02*
X7480Y80798D01*
G01X4921Y98712D02*
Y103091D01*
G01D02*
X10038D01*
G01X4921D02*
X10038Y99102D01*
G01X2363Y98907D02*
X4921Y103091D01*
G01X16339Y75484D02*
Y80010D01*
G01D02*
Y84536D01*
G01X12305Y80010D02*
X16339D01*
G01X12620Y75484D02*
X16339Y80010D01*
G01X12620Y84536D02*
X16339Y80010D01*
G01Y95169D02*
Y99695D01*
G01D02*
Y104221D01*
G01X12305Y99695D02*
X16339D01*
G01X12620Y95169D02*
X16339Y99695D01*
G01X12620Y104221D02*
X16339Y99695D01*
G01D02*
X20057Y95169D01*
M02*
