G04 ================== begin FILE IDENTIFICATION RECORD ==================*
G04 Layout Name:  Netduino3Ethernet_17Dec16.brd*
G04 Film Name:    NC_DRL_1-4*
G04 File Format:  Gerber RS274X*
G04 File Origin:  Cadence Allegro 16.6-2015-S069*
G04 Origin Date:  Sat Dec 17 09:35:35 2016*
G04 *
G04 Layer:  MANUFACTURING/NCLEGEND-1-4*
G04 *
G04 Offset:    (0.0000 0.0000)*
G04 Mirror:    No*
G04 Mode:      Positive*
G04 Rotation:  0*
G04 FullContactRelief:  No*
G04 UndefLineWidth:     0.1270*
G04 ================== end FILE IDENTIFICATION RECORD ====================*
%FSLAX25Y25*MOIN*%
%IR0*IPPOS*OFA0.00000B0.00000*MIA0B0*SFA1.00000B1.00000*%
%AMMACRO21*
1,1,.005,.019685,0.0*
20,1,.005,.019685,0.0,-.019685,0.0,0.0*
1,1,.005,-.019685,0.0*
1,1,.005,0.0,.019685*
20,1,.005,0.0,.019685,0.0,-.019685,0.0*
1,1,.005,0.0,-.019685*
1,1,.005,.017059,.018043*
20,1,.005,.017059,.018043,.015091,.019028,0.0*
1,1,.005,.015091,.019028*
20,1,.005,.015091,.019028,.012795,.019685,0.0*
1,1,.005,.012795,.019685*
20,1,.005,.012795,.019685,.010169,.019685,0.0*
1,1,.005,.010169,.019685*
20,1,.005,.010169,.019685,.007217,.018701,0.0*
1,1,.005,.007217,.018701*
20,1,.005,.007217,.018701,.004921,.017059,0.0*
1,1,.005,.004921,.017059*
20,1,.005,.004921,.017059,.00328,.015091,0.0*
1,1,.005,.00328,.015091*
20,1,.005,.00328,.015091,.001969,.011811,0.0*
1,1,.005,.001969,.011811*
20,1,.005,.001969,.011811,.001642,.008858,0.0*
1,1,.005,.001642,.008858*
20,1,.005,.001642,.008858,.002295,.005906,0.0*
1,1,.005,.002295,.005906*
20,1,.005,.002295,.005906,.00328,.003937,0.0*
1,1,.005,.00328,.003937*
20,1,.005,.00328,.003937,.005248,.001969,0.0*
1,1,.005,.005248,.001969*
20,1,.005,.005248,.001969,.007547,.000657,0.0*
1,1,.005,.007547,.000657*
20,1,.005,.007547,.000657,.009843,0.0,0.0*
1,1,.005,.009843,0.0*
20,1,.005,.009843,0.0,.012138,0.0,0.0*
1,1,.005,.012138,0.0*
20,1,.005,.012138,0.0,.014437,.000657,0.0*
1,1,.005,.014437,.000657*
20,1,.005,.014437,.000657,.016406,.001642,0.0*
1,1,.005,.016406,.001642*
20,1,.005,.016406,.001642,.018043,.002953,0.0*
1,1,.005,.018043,.002953*
%
%ADD21MACRO21*%
%AMMACRO19*
1,1,.005,.019685,0.0*
20,1,.005,.019685,0.0,-.019685,0.0,0.0*
1,1,.005,-.019685,0.0*
1,1,.005,0.0,.019685*
20,1,.005,0.0,.019685,0.0,-.019685,0.0*
1,1,.005,0.0,-.019685*
1,1,.005,.002626,0.0*
20,1,.005,.002626,0.0,.002626,.019685,0.0*
1,1,.005,.002626,.019685*
20,1,.005,.002626,.019685,.009185,.019685,0.0*
1,1,.005,.009185,.019685*
20,1,.005,.009185,.019685,.011811,.018701,0.0*
1,1,.005,.011811,.018701*
20,1,.005,.011811,.018701,.01378,.01739,0.0*
1,1,.005,.01378,.01739*
20,1,.005,.01378,.01739,.015421,.015421,0.0*
1,1,.005,.015421,.015421*
20,1,.005,.015421,.015421,.016732,.013122,0.0*
1,1,.005,.016732,.013122*
20,1,.005,.016732,.013122,.017059,.009843,0.0*
1,1,.005,.017059,.009843*
20,1,.005,.017059,.009843,.016732,.006563,0.0*
1,1,.005,.016732,.006563*
20,1,.005,.016732,.006563,.015421,.004264,0.0*
1,1,.005,.015421,.004264*
20,1,.005,.015421,.004264,.01378,.002295,0.0*
1,1,.005,.01378,.002295*
20,1,.005,.01378,.002295,.011811,.000984,0.0*
1,1,.005,.011811,.000984*
20,1,.005,.011811,.000984,.009185,0.0,0.0*
1,1,.005,.009185,0.0*
20,1,.005,.009185,0.0,.002626,0.0,0.0*
1,1,.005,.002626,0.0*
%
%ADD19MACRO19*%
%AMMACRO20*
1,1,.005,.019685,0.0*
20,1,.005,.019685,0.0,-.019685,0.0,0.0*
1,1,.005,-.019685,0.0*
1,1,.005,0.0,.019685*
20,1,.005,0.0,.019685,0.0,-.019685,0.0*
1,1,.005,0.0,-.019685*
1,1,.005,.011811,.009843*
20,1,.005,.011811,.009843,.018374,.009843,0.0*
1,1,.005,.018374,.009843*
20,1,.005,.018374,.009843,.018374,.003937,0.0*
1,1,.005,.018374,.003937*
20,1,.005,.018374,.003937,.016406,.001969,0.0*
1,1,.005,.016406,.001969*
20,1,.005,.016406,.001969,.014106,.000657,0.0*
1,1,.005,.014106,.000657*
20,1,.005,.014106,.000657,.010827,0.0,0.0*
1,1,.005,.010827,0.0*
20,1,.005,.010827,0.0,.007547,.000657,0.0*
1,1,.005,.007547,.000657*
20,1,.005,.007547,.000657,.005248,.001969,0.0*
1,1,.005,.005248,.001969*
20,1,.005,.005248,.001969,.00328,.003937,0.0*
1,1,.005,.00328,.003937*
20,1,.005,.00328,.003937,.001969,.006232,0.0*
1,1,.005,.001969,.006232*
20,1,.005,.001969,.006232,.001311,.008858,0.0*
1,1,.005,.001311,.008858*
20,1,.005,.001311,.008858,.001311,.011154,0.0*
1,1,.005,.001311,.011154*
20,1,.005,.001311,.011154,.001969,.013122,0.0*
1,1,.005,.001969,.013122*
20,1,.005,.001969,.013122,.00328,.015421,0.0*
1,1,.005,.00328,.015421*
20,1,.005,.00328,.015421,.005248,.01739,0.0*
1,1,.005,.005248,.01739*
20,1,.005,.005248,.01739,.007217,.018701,0.0*
1,1,.005,.007217,.018701*
20,1,.005,.007217,.018701,.009843,.019685,0.0*
1,1,.005,.009843,.019685*
20,1,.005,.009843,.019685,.012138,.019685,0.0*
1,1,.005,.012138,.019685*
20,1,.005,.012138,.019685,.014764,.019028,0.0*
1,1,.005,.014764,.019028*
20,1,.005,.014764,.019028,.016732,.017717,0.0*
1,1,.005,.016732,.017717*
%
%ADD20MACRO20*%
%AMMACRO13*
1,1,.005,.03937,0.0*
20,1,.005,.03937,0.0,-.03937,0.0,0.0*
1,1,.005,-.03937,0.0*
1,1,.005,0.0,.03937*
20,1,.005,0.0,.03937,0.0,-.03937,0.0*
1,1,.005,0.0,-.03937*
1,1,.005,.005906,0.0*
20,1,.005,.005906,0.0,.005906,.03937,0.0*
1,1,.005,.005906,.03937*
1,1,.005,.033465,.03937*
20,1,.005,.033465,.03937,.033465,0.0,0.0*
1,1,.005,.033465,0.0*
1,1,.005,.033465,.019685*
20,1,.005,.033465,.019685,.005906,.019685,0.0*
1,1,.005,.005906,.019685*
%
%ADD13MACRO13*%
%AMMACRO10*
1,1,.005,.03937,0.0*
20,1,.005,.03937,0.0,-.03937,0.0,0.0*
1,1,.005,-.03937,0.0*
1,1,.005,0.0,.03937*
20,1,.005,0.0,.03937,0.0,-.03937,0.0*
1,1,.005,0.0,-.03937*
1,1,.005,.006563,.007874*
20,1,.005,.006563,.007874,.009843,.003937,0.0*
1,1,.005,.009843,.003937*
20,1,.005,.009843,.003937,.01378,.001311,0.0*
1,1,.005,.01378,.001311*
20,1,.005,.01378,.001311,.018374,0.0,0.0*
1,1,.005,.018374,0.0*
20,1,.005,.018374,0.0,.023622,.001311,0.0*
1,1,.005,.023622,.001311*
20,1,.005,.023622,.001311,.027559,.003937,0.0*
1,1,.005,.027559,.003937*
20,1,.005,.027559,.003937,.031496,.007874,0.0*
1,1,.005,.031496,.007874*
20,1,.005,.031496,.007874,.032807,.013122,0.0*
1,1,.005,.032807,.013122*
20,1,.005,.032807,.013122,.032807,.03937,0.0*
1,1,.005,.032807,.03937*
%
%ADD10MACRO10*%
%AMMACRO18*
1,1,.005,.03937,0.0*
20,1,.005,.03937,0.0,-.03937,0.0,0.0*
1,1,.005,-.03937,0.0*
1,1,.005,0.0,.03937*
20,1,.005,0.0,.03937,0.0,-.03937,0.0*
1,1,.005,0.0,-.03937*
1,1,.005,.005248,0.0*
20,1,.005,.005248,0.0,.005248,.03937,0.0*
1,1,.005,.005248,.03937*
1,1,.005,.030185,.03937*
20,1,.005,.030185,.03937,.005248,.015091,0.0*
1,1,.005,.005248,.015091*
1,1,.005,.034122,0.0*
20,1,.005,.034122,0.0,.016406,.026244,0.0*
1,1,.005,.016406,.026244*
%
%ADD18MACRO18*%
%AMMACRO15*
1,1,.005,.03937,0.0*
20,1,.005,.03937,0.0,-.03937,0.0,0.0*
1,1,.005,-.03937,0.0*
1,1,.005,0.0,.03937*
20,1,.005,0.0,.03937,0.0,-.03937,0.0*
1,1,.005,0.0,-.03937*
1,1,.005,.002626,0.0*
20,1,.005,.002626,0.0,.002626,.03937,0.0*
1,1,.005,.002626,.03937*
20,1,.005,.002626,.03937,.019685,.006563,0.0*
1,1,.005,.019685,.006563*
20,1,.005,.019685,.006563,.036744,.03937,0.0*
1,1,.005,.036744,.03937*
20,1,.005,.036744,.03937,.036744,0.0,0.0*
1,1,.005,.036744,0.0*
%
%ADD15MACRO15*%
%AMMACRO16*
1,1,.005,.004921,0.0*
20,1,.005,.004921,0.0,-.004921,0.0,0.0*
1,1,.005,-.004921,0.0*
1,1,.005,0.0,.004921*
20,1,.005,0.0,.004921,0.0,-.004921,0.0*
1,1,.005,0.0,-.004921*
1,1,.005,.000409,0.0*
20,1,.005,.000409,0.0,.002461,.004921,0.0*
1,1,.005,.002461,.004921*
20,1,.005,.002461,.004921,.004512,0.0,0.0*
1,1,.005,.004512,0.0*
1,1,.005,.003772,.00172*
20,1,.005,.003772,.00172,.00115,.00172,0.0*
1,1,.005,.00115,.00172*
%
%ADD16MACRO16*%
%AMMACRO12*
1,1,.005,.0065,0.0*
20,1,.005,.0065,0.0,-.0065,0.0,0.0*
1,1,.005,-.0065,0.0*
1,1,.005,0.0,.0065*
20,1,.005,0.0,.0065,0.0,-.0065,0.0*
1,1,.005,0.0,-.0065*
1,1,.005,.004118,.003469*
20,1,.005,.004118,.003469,.004551,.003791,0.0*
1,1,.005,.004551,.003791*
20,1,.005,.004551,.003791,.004874,.004335,0.0*
1,1,.005,.004874,.004335*
20,1,.005,.004874,.004335,.005091,.005091,0.0*
1,1,.005,.005091,.005091*
20,1,.005,.005091,.005091,.004874,.00574,0.0*
1,1,.005,.004874,.00574*
20,1,.005,.004874,.00574,.004441,.006173,0.0*
1,1,.005,.004441,.006173*
20,1,.005,.004441,.006173,.003685,.0065,0.0*
1,1,.005,.003685,.0065*
20,1,.005,.003685,.0065,.00076,.0065,0.0*
1,1,.005,.00076,.0065*
20,1,.005,.00076,.0065,.00076,0.0,0.0*
1,1,.005,.00076,0.0*
20,1,.005,.00076,0.0,.004335,0.0,0.0*
1,1,.005,.004335,0.0*
20,1,.005,.004335,0.0,.005091,.000433,0.0*
1,1,.005,.005091,.000433*
20,1,.005,.005091,.000433,.005524,.001083,0.0*
1,1,.005,.005524,.001083*
20,1,.005,.005524,.001083,.00574,.001843,0.0*
1,1,.005,.00574,.001843*
20,1,.005,.00574,.001843,.005524,.002598,0.0*
1,1,.005,.005524,.002598*
20,1,.005,.005524,.002598,.004874,.003248,0.0*
1,1,.005,.004874,.003248*
20,1,.005,.004874,.003248,.004118,.003469,0.0*
1,1,.005,.004118,.003469*
20,1,.005,.004118,.003469,.00076,.003469,0.0*
1,1,.005,.00076,.003469*
%
%ADD12MACRO12*%
%AMMACRO14*
1,1,.005,-.014764,-.004921*
20,1,.005,-.014764,-.004921,-.014764,.004921,0.0*
1,1,.005,-.014764,.004921*
20,1,.005,-.014764,.004921,-.014539,.007485,0.0*
1,1,.005,-.014539,.007485*
20,1,.005,-.014539,.007485,-.013873,.009971,0.0*
1,1,.005,-.013873,.009971*
20,1,.005,-.013873,.009971,-.012786,.012303,0.0*
1,1,.005,-.012786,.012303*
20,1,.005,-.012786,.012303,-.01131,.014411,0.0*
1,1,.005,-.01131,.014411*
20,1,.005,-.01131,.014411,-.00949,.016231,0.0*
1,1,.005,-.00949,.016231*
20,1,.005,-.00949,.016231,-.007382,.017707,0.0*
1,1,.005,-.007382,.017707*
20,1,.005,-.007382,.017707,-.00505,.018795,0.0*
1,1,.005,-.00505,.018795*
20,1,.005,-.00505,.018795,-.002564,.019461,0.0*
1,1,.005,-.002564,.019461*
20,1,.005,-.002564,.019461,0.0,.019685,0.0*
1,1,.005,0.0,.019685*
20,1,.005,0.0,.019685,.002564,.019461,0.0*
1,1,.005,.002564,.019461*
20,1,.005,.002564,.019461,.00505,.018795,0.0*
1,1,.005,.00505,.018795*
20,1,.005,.00505,.018795,.007382,.017707,0.0*
1,1,.005,.007382,.017707*
20,1,.005,.007382,.017707,.00949,.016231,0.0*
1,1,.005,.00949,.016231*
20,1,.005,.00949,.016231,.01131,.014411,0.0*
1,1,.005,.01131,.014411*
20,1,.005,.01131,.014411,.012786,.012303,0.0*
1,1,.005,.012786,.012303*
20,1,.005,.012786,.012303,.013873,.009971,0.0*
1,1,.005,.013873,.009971*
20,1,.005,.013873,.009971,.014539,.007485,0.0*
1,1,.005,.014539,.007485*
20,1,.005,.014539,.007485,.014764,.004921,0.0*
1,1,.005,.014764,.004921*
20,1,.005,.014764,.004921,.014764,-.004921,0.0*
1,1,.005,.014764,-.004921*
20,1,.005,.014764,-.004921,.014539,-.007485,0.0*
1,1,.005,.014539,-.007485*
20,1,.005,.014539,-.007485,.013873,-.009971,0.0*
1,1,.005,.013873,-.009971*
20,1,.005,.013873,-.009971,.012786,-.012303,0.0*
1,1,.005,.012786,-.012303*
20,1,.005,.012786,-.012303,.01131,-.014411,0.0*
1,1,.005,.01131,-.014411*
20,1,.005,.01131,-.014411,.00949,-.016231,0.0*
1,1,.005,.00949,-.016231*
20,1,.005,.00949,-.016231,.007382,-.017707,0.0*
1,1,.005,.007382,-.017707*
20,1,.005,.007382,-.017707,.00505,-.018795,0.0*
1,1,.005,.00505,-.018795*
20,1,.005,.00505,-.018795,.002564,-.019461,0.0*
1,1,.005,.002564,-.019461*
20,1,.005,.002564,-.019461,0.0,-.019685,0.0*
1,1,.005,0.0,-.019685*
20,1,.005,0.0,-.019685,-.002564,-.019461,0.0*
1,1,.005,-.002564,-.019461*
20,1,.005,-.002564,-.019461,-.00505,-.018795,0.0*
1,1,.005,-.00505,-.018795*
20,1,.005,-.00505,-.018795,-.007382,-.017707,0.0*
1,1,.005,-.007382,-.017707*
20,1,.005,-.007382,-.017707,-.00949,-.016231,0.0*
1,1,.005,-.00949,-.016231*
20,1,.005,-.00949,-.016231,-.01131,-.014411,0.0*
1,1,.005,-.01131,-.014411*
20,1,.005,-.01131,-.014411,-.012786,-.012303,0.0*
1,1,.005,-.012786,-.012303*
20,1,.005,-.012786,-.012303,-.013873,-.009971,0.0*
1,1,.005,-.013873,-.009971*
20,1,.005,-.013873,-.009971,-.014539,-.007485,0.0*
1,1,.005,-.014539,-.007485*
20,1,.005,-.014539,-.007485,-.014764,-.004921,0.0*
1,1,.005,-.014764,-.004921*
1,1,.005,-.005657,-.007382*
20,1,.005,-.005657,-.007382,-.005657,.007382,0.0*
1,1,.005,-.005657,.007382*
20,1,.005,-.005657,.007382,.005657,-.007382,0.0*
1,1,.005,.005657,-.007382*
20,1,.005,.005657,-.007382,.005657,.007382,0.0*
1,1,.005,.005657,.007382*
%
%ADD14MACRO14*%
%AMMACRO11*
1,1,.005,-.010827,.014764*
20,1,.005,-.010827,.014764,.010827,.014764,0.0*
1,1,.005,.010827,.014764*
20,1,.005,.010827,.014764,.01339,.014539,0.0*
1,1,.005,.01339,.014539*
20,1,.005,.01339,.014539,.015876,.013873,0.0*
1,1,.005,.015876,.013873*
20,1,.005,.015876,.013873,.018209,.012786,0.0*
1,1,.005,.018209,.012786*
20,1,.005,.018209,.012786,.020317,.01131,0.0*
1,1,.005,.020317,.01131*
20,1,.005,.020317,.01131,.022136,.00949,0.0*
1,1,.005,.022136,.00949*
20,1,.005,.022136,.00949,.023613,.007382,0.0*
1,1,.005,.023613,.007382*
20,1,.005,.023613,.007382,.0247,.00505,0.0*
1,1,.005,.0247,.00505*
20,1,.005,.0247,.00505,.025366,.002564,0.0*
1,1,.005,.025366,.002564*
20,1,.005,.025366,.002564,.025591,0.0,0.0*
1,1,.005,.025591,0.0*
20,1,.005,.025591,0.0,.025366,-.002564,0.0*
1,1,.005,.025366,-.002564*
20,1,.005,.025366,-.002564,.0247,-.00505,0.0*
1,1,.005,.0247,-.00505*
20,1,.005,.0247,-.00505,.023613,-.007382,0.0*
1,1,.005,.023613,-.007382*
20,1,.005,.023613,-.007382,.022136,-.00949,0.0*
1,1,.005,.022136,-.00949*
20,1,.005,.022136,-.00949,.020317,-.01131,0.0*
1,1,.005,.020317,-.01131*
20,1,.005,.020317,-.01131,.018209,-.012786,0.0*
1,1,.005,.018209,-.012786*
20,1,.005,.018209,-.012786,.015876,-.013873,0.0*
1,1,.005,.015876,-.013873*
20,1,.005,.015876,-.013873,.01339,-.014539,0.0*
1,1,.005,.01339,-.014539*
20,1,.005,.01339,-.014539,.010827,-.014764,0.0*
1,1,.005,.010827,-.014764*
20,1,.005,.010827,-.014764,-.010827,-.014764,0.0*
1,1,.005,-.010827,-.014764*
20,1,.005,-.010827,-.014764,-.01339,-.014539,0.0*
1,1,.005,-.01339,-.014539*
20,1,.005,-.01339,-.014539,-.015876,-.013873,0.0*
1,1,.005,-.015876,-.013873*
20,1,.005,-.015876,-.013873,-.018209,-.012786,0.0*
1,1,.005,-.018209,-.012786*
20,1,.005,-.018209,-.012786,-.020317,-.01131,0.0*
1,1,.005,-.020317,-.01131*
20,1,.005,-.020317,-.01131,-.022136,-.00949,0.0*
1,1,.005,-.022136,-.00949*
20,1,.005,-.022136,-.00949,-.023613,-.007382,0.0*
1,1,.005,-.023613,-.007382*
20,1,.005,-.023613,-.007382,-.0247,-.00505,0.0*
1,1,.005,-.0247,-.00505*
20,1,.005,-.0247,-.00505,-.025366,-.002564,0.0*
1,1,.005,-.025366,-.002564*
20,1,.005,-.025366,-.002564,-.025591,0.0,0.0*
1,1,.005,-.025591,0.0*
20,1,.005,-.025591,0.0,-.025366,.002564,0.0*
1,1,.005,-.025366,.002564*
20,1,.005,-.025366,.002564,-.0247,.00505,0.0*
1,1,.005,-.0247,.00505*
20,1,.005,-.0247,.00505,-.023613,.007382,0.0*
1,1,.005,-.023613,.007382*
20,1,.005,-.023613,.007382,-.022136,.00949,0.0*
1,1,.005,-.022136,.00949*
20,1,.005,-.022136,.00949,-.020317,.01131,0.0*
1,1,.005,-.020317,.01131*
20,1,.005,-.020317,.01131,-.018209,.012786,0.0*
1,1,.005,-.018209,.012786*
20,1,.005,-.018209,.012786,-.015876,.013873,0.0*
1,1,.005,-.015876,.013873*
20,1,.005,-.015876,.013873,-.01339,.014539,0.0*
1,1,.005,-.01339,.014539*
20,1,.005,-.01339,.014539,-.010827,.014764,0.0*
1,1,.005,-.010827,.014764*
1,1,.005,-.004921,-.007382*
20,1,.005,-.004921,-.007382,-.004921,.007382,0.0*
1,1,.005,-.004921,.007382*
20,1,.005,-.004921,.007382,.000984,.007382,0.0*
1,1,.005,.000984,.007382*
20,1,.005,.000984,.007382,.002953,.006642,0.0*
1,1,.005,.002953,.006642*
20,1,.005,.002953,.006642,.004429,.004921,0.0*
1,1,.005,.004429,.004921*
20,1,.005,.004429,.004921,.004921,.002953,0.0*
1,1,.005,.004921,.002953*
20,1,.005,.004921,.002953,.004429,.000984,0.0*
1,1,.005,.004429,.000984*
20,1,.005,.004429,.000984,.003197,-.000492,0.0*
1,1,.005,.003197,-.000492*
20,1,.005,.003197,-.000492,.000984,-.001232,0.0*
1,1,.005,.000984,-.001232*
20,1,.005,.000984,-.001232,-.004921,-.001232,0.0*
1,1,.005,-.004921,-.001232*
%
%ADD11MACRO11*%
%AMMACRO17*
1,1,.005,.014764,0.0*
20,1,.005,.014764,0.0,-.014764,0.0,0.0*
1,1,.005,-.014764,0.0*
1,1,.005,0.0,.014764*
20,1,.005,0.0,.014764,0.0,-.014764,0.0*
1,1,.005,0.0,-.014764*
1,1,.005,.002705,0.0*
20,1,.005,.002705,0.0,.002705,.014764,0.0*
1,1,.005,.002705,.014764*
20,1,.005,.002705,.014764,.012059,.014764,0.0*
1,1,.005,.012059,.014764*
1,1,.005,.00861,.00763*
20,1,.005,.00861,.00763,.002705,.00763,0.0*
1,1,.005,.002705,.00763*
%
%ADD17MACRO17*%
%ADD22C,.007087*%
%ADD23C,.005*%
G75*
%LPD*%
G75*
G54D10*
X8858Y32700D03*
X326181Y76575D03*
G54D11*
X4921Y76270D03*
Y103435D03*
X326181Y29331D03*
G54D20*
X250551Y99803D03*
Y109803D03*
Y119803D03*
X260551Y99803D03*
Y119803D03*
Y109803D03*
X326181Y100197D03*
G54D12*
X6693Y117126D03*
Y113780D03*
Y110433D03*
X24606Y80512D03*
Y77165D03*
Y83858D03*
X33661Y57087D03*
X29724D03*
Y61220D03*
X29528Y84428D03*
X54134Y77559D03*
X46654D03*
X50394D03*
X45079Y95276D03*
Y91535D03*
X51378Y100197D03*
X72835Y89567D03*
Y81693D03*
Y77756D03*
Y85630D03*
Y101378D03*
Y97441D03*
Y93504D03*
X76772Y89567D03*
Y77756D03*
Y85630D03*
Y81693D03*
Y101378D03*
Y97441D03*
Y93504D03*
X82677Y111692D03*
X76575Y108641D03*
X105315Y78013D03*
Y81693D03*
Y85630D03*
Y89567D03*
Y93504D03*
Y97441D03*
Y101378D03*
X122244Y37402D03*
X117717Y37205D03*
X121063Y63976D03*
X109252Y77756D03*
Y81693D03*
Y85630D03*
Y89567D03*
Y93504D03*
Y97441D03*
Y101378D03*
X137992Y37205D03*
X127953Y50000D03*
Y46457D03*
X135039Y57283D03*
Y53740D03*
Y60827D03*
X124803Y63976D03*
X126969Y67323D03*
X141950Y36704D03*
X147316Y45622D03*
X149289Y48405D03*
X144882Y47835D03*
X147441Y73622D03*
X142126D03*
X163386Y51161D03*
Y61438D03*
X326181Y147441D03*
G54D21*
X256890Y51378D03*
Y58858D03*
X259252Y70972D03*
X256890Y82874D03*
Y90354D03*
Y76378D03*
X271260Y57283D03*
Y51378D03*
X269672Y73745D03*
X268602Y67126D03*
X271260Y90650D03*
X271824Y82604D03*
X283661Y53976D03*
X295373Y54670D03*
X285630Y119685D03*
X283661Y184528D03*
X299016Y25472D03*
Y90748D03*
Y119291D03*
Y156024D03*
Y184528D03*
X326181Y135630D03*
G54D22*
G01X315341Y167520D02*
Y172244D01*
X317336D01*
G01X316601Y169961D02*
X315341D01*
G01X319646Y172244D02*
X320906D01*
G01X320276D02*
Y167520D01*
G01X319646D02*
X320906D01*
G01X324528Y169882D02*
X325578D01*
Y168465D01*
X325263Y167992D01*
X324895Y167677D01*
X324370Y167520D01*
X323845Y167677D01*
X323478Y167992D01*
X323163Y168465D01*
X322953Y169016D01*
X322848Y169646D01*
Y170197D01*
X322953Y170669D01*
X323163Y171220D01*
X323478Y171693D01*
X323793Y172008D01*
X324213Y172244D01*
X324580D01*
X325000Y172087D01*
X325315Y171772D01*
G01X326995Y172244D02*
Y168858D01*
X327205Y168150D01*
X327625Y167677D01*
X328150Y167520D01*
X328674Y167677D01*
X329094Y168150D01*
X329304Y168858D01*
Y172244D01*
G01X331037Y167520D02*
Y172244D01*
X332349D01*
X332769Y172008D01*
X333031Y171693D01*
X333137Y171063D01*
X333031Y170433D01*
X332717Y170039D01*
X332349Y169803D01*
X331037D01*
G01X332349D02*
X333137Y167520D01*
G01X337074D02*
X334974D01*
Y172244D01*
X337074D01*
G01X336233Y169961D02*
X334974D01*
G01X356496Y26969D02*
Y31693D01*
X355866Y30748D01*
G01Y26969D02*
X357126D01*
G01X360433Y26811D02*
X360328Y26890D01*
Y27047D01*
X360433Y27126D01*
X360538Y27047D01*
Y26890D01*
X360433Y26811D01*
G01X363215Y27913D02*
X363530Y27362D01*
X363950Y27047D01*
X364422Y26969D01*
X364843Y27047D01*
X365263Y27441D01*
X365525Y27913D01*
X365578Y28386D01*
X365472Y28937D01*
X365105Y29331D01*
X364737Y29488D01*
X364265D01*
G01X364737D02*
X365052Y29724D01*
X365315Y30118D01*
X365420Y30591D01*
X365315Y31063D01*
X365052Y31457D01*
X364580Y31693D01*
X364107Y31614D01*
X363635Y31299D01*
G01X367520Y30118D02*
X369094Y26969D01*
G01Y30118D02*
X367520Y26969D01*
G01X372244Y31693D02*
X371824Y31535D01*
X371509Y31142D01*
X371299Y30669D01*
X371142Y30039D01*
X371089Y29331D01*
X371142Y28622D01*
X371299Y27992D01*
X371509Y27520D01*
X371824Y27126D01*
X372244Y26969D01*
X372664Y27126D01*
X372979Y27520D01*
X373189Y27992D01*
X373346Y28622D01*
X373399Y29331D01*
X373346Y30039D01*
X373189Y30669D01*
X372979Y31142D01*
X372664Y31535D01*
X372244Y31693D01*
G01X376181Y26811D02*
X376076Y26890D01*
Y27047D01*
X376181Y27126D01*
X376286Y27047D01*
Y26890D01*
X376181Y26811D01*
G01X380013Y26969D02*
X380118Y27992D01*
X380276Y28858D01*
X380485Y29646D01*
X380748Y30512D01*
X381168Y31693D01*
X379068D01*
G01X382900Y27677D02*
X383215Y27283D01*
X383583Y27047D01*
X384055Y26969D01*
X384528Y27126D01*
X384895Y27441D01*
X385157Y27992D01*
X385210Y28622D01*
X385105Y29252D01*
X384843Y29646D01*
X384475Y29961D01*
X384107Y30039D01*
X383740Y29961D01*
X383268Y29646D01*
X383425Y31693D01*
X384843D01*
G01X356496Y38780D02*
Y43504D01*
X355866Y42559D01*
G01Y38780D02*
X357126D01*
G01X360433Y38622D02*
X360328Y38701D01*
Y38858D01*
X360433Y38937D01*
X360538Y38858D01*
Y38701D01*
X360433Y38622D01*
G01X364370Y43504D02*
X363950Y43346D01*
X363635Y42953D01*
X363425Y42480D01*
X363268Y41850D01*
X363215Y41142D01*
X363268Y40433D01*
X363425Y39803D01*
X363635Y39331D01*
X363950Y38937D01*
X364370Y38780D01*
X364790Y38937D01*
X365105Y39331D01*
X365315Y39803D01*
X365472Y40433D01*
X365525Y41142D01*
X365472Y41850D01*
X365315Y42480D01*
X365105Y42953D01*
X364790Y43346D01*
X364370Y43504D01*
G01X367520Y41929D02*
X369094Y38780D01*
G01Y41929D02*
X367520Y38780D01*
G01X372244Y43504D02*
X371824Y43346D01*
X371509Y42953D01*
X371299Y42480D01*
X371142Y41850D01*
X371089Y41142D01*
X371142Y40433D01*
X371299Y39803D01*
X371509Y39331D01*
X371824Y38937D01*
X372244Y38780D01*
X372664Y38937D01*
X372979Y39331D01*
X373189Y39803D01*
X373346Y40433D01*
X373399Y41142D01*
X373346Y41850D01*
X373189Y42480D01*
X372979Y42953D01*
X372664Y43346D01*
X372244Y43504D01*
G01X376181Y38622D02*
X376076Y38701D01*
Y38858D01*
X376181Y38937D01*
X376286Y38858D01*
Y38701D01*
X376181Y38622D01*
G01X380013Y38780D02*
X380118Y39803D01*
X380276Y40669D01*
X380485Y41457D01*
X380748Y42323D01*
X381168Y43504D01*
X379068D01*
G01X382900Y39488D02*
X383215Y39094D01*
X383583Y38858D01*
X384055Y38780D01*
X384528Y38937D01*
X384895Y39252D01*
X385157Y39803D01*
X385210Y40433D01*
X385105Y41063D01*
X384843Y41457D01*
X384475Y41772D01*
X384107Y41850D01*
X383740Y41772D01*
X383268Y41457D01*
X383425Y43504D01*
X384843D01*
G01X360433Y149803D02*
X360013Y149646D01*
X359698Y149252D01*
X359488Y148780D01*
X359331Y148150D01*
X359278Y147441D01*
X359331Y146732D01*
X359488Y146102D01*
X359698Y145630D01*
X360013Y145236D01*
X360433Y145079D01*
X360853Y145236D01*
X361168Y145630D01*
X361378Y146102D01*
X361535Y146732D01*
X361588Y147441D01*
X361535Y148150D01*
X361378Y148780D01*
X361168Y149252D01*
X360853Y149646D01*
X360433Y149803D01*
G01X364370Y144921D02*
X364265Y145000D01*
Y145157D01*
X364370Y145236D01*
X364475Y145157D01*
Y145000D01*
X364370Y144921D01*
G01X367152Y146024D02*
X367467Y145472D01*
X367887Y145157D01*
X368359Y145079D01*
X368780Y145157D01*
X369200Y145551D01*
X369462Y146024D01*
X369515Y146496D01*
X369409Y147047D01*
X369042Y147441D01*
X368674Y147598D01*
X368202D01*
G01X368674D02*
X368989Y147835D01*
X369252Y148228D01*
X369357Y148701D01*
X369252Y149173D01*
X368989Y149567D01*
X368517Y149803D01*
X368044Y149724D01*
X367572Y149409D01*
G01X371089Y146024D02*
X371404Y145472D01*
X371824Y145157D01*
X372296Y145079D01*
X372717Y145157D01*
X373137Y145551D01*
X373399Y146024D01*
X373452Y146496D01*
X373346Y147047D01*
X372979Y147441D01*
X372611Y147598D01*
X372139D01*
G01X372611D02*
X372926Y147835D01*
X373189Y148228D01*
X373294Y148701D01*
X373189Y149173D01*
X372926Y149567D01*
X372454Y149803D01*
X371981Y149724D01*
X371509Y149409D01*
G01X376181Y149803D02*
X375761Y149646D01*
X375446Y149252D01*
X375236Y148780D01*
X375079Y148150D01*
X375026Y147441D01*
X375079Y146732D01*
X375236Y146102D01*
X375446Y145630D01*
X375761Y145236D01*
X376181Y145079D01*
X376601Y145236D01*
X376916Y145630D01*
X377126Y146102D01*
X377283Y146732D01*
X377336Y147441D01*
X377283Y148150D01*
X377126Y148780D01*
X376916Y149252D01*
X376601Y149646D01*
X376181Y149803D01*
G01X379121Y149016D02*
X379436Y149488D01*
X379803Y149724D01*
X380223Y149803D01*
X380748Y149646D01*
X381115Y149252D01*
X381220Y148780D01*
X381168Y148307D01*
X380958Y147913D01*
X379908Y147126D01*
X379436Y146575D01*
X379121Y145787D01*
X379016Y145079D01*
X381220D01*
G01X363215Y51535D02*
X363530Y50984D01*
X363950Y50669D01*
X364422Y50591D01*
X364843Y50669D01*
X365263Y51063D01*
X365525Y51535D01*
X365578Y52008D01*
X365472Y52559D01*
X365105Y52953D01*
X364737Y53110D01*
X364265D01*
G01X364737D02*
X365052Y53346D01*
X365315Y53740D01*
X365420Y54213D01*
X365315Y54685D01*
X365052Y55079D01*
X364580Y55315D01*
X364107Y55236D01*
X363635Y54921D01*
G01X368307Y50433D02*
X368202Y50512D01*
Y50669D01*
X368307Y50748D01*
X368412Y50669D01*
Y50512D01*
X368307Y50433D01*
G01X371247Y54528D02*
X371562Y55000D01*
X371929Y55236D01*
X372349Y55315D01*
X372874Y55157D01*
X373241Y54764D01*
X373346Y54291D01*
X373294Y53819D01*
X373084Y53425D01*
X372034Y52638D01*
X371562Y52087D01*
X371247Y51299D01*
X371142Y50591D01*
X373346D01*
G01X375026Y51299D02*
X375341Y50906D01*
X375709Y50669D01*
X376181Y50591D01*
X376654Y50748D01*
X377021Y51063D01*
X377283Y51614D01*
X377336Y52244D01*
X377231Y52874D01*
X376969Y53268D01*
X376601Y53583D01*
X376233Y53661D01*
X375866Y53583D01*
X375394Y53268D01*
X375551Y55315D01*
X376969D01*
G01X365341Y78150D02*
X365656Y78622D01*
X366024Y78858D01*
X366444Y78937D01*
X366969Y78780D01*
X367336Y78386D01*
X367441Y77913D01*
X367389Y77441D01*
X367178Y77047D01*
X366129Y76260D01*
X365656Y75709D01*
X365341Y74921D01*
X365236Y74213D01*
X367441D01*
G01X370276Y74055D02*
X370170Y74134D01*
Y74291D01*
X370276Y74370D01*
X370381Y74291D01*
Y74134D01*
X370276Y74055D01*
G01X374843Y74213D02*
Y78937D01*
X372900Y75551D01*
X375525D01*
G01X365184Y63346D02*
X365499Y62795D01*
X365919Y62480D01*
X366391Y62402D01*
X366811Y62480D01*
X367231Y62874D01*
X367493Y63346D01*
X367546Y63819D01*
X367441Y64370D01*
X367074Y64764D01*
X366706Y64921D01*
X366233D01*
G01X366706D02*
X367021Y65157D01*
X367283Y65551D01*
X367389Y66024D01*
X367283Y66496D01*
X367021Y66890D01*
X366548Y67126D01*
X366076Y67047D01*
X365604Y66732D01*
G01X370276Y62244D02*
X370170Y62323D01*
Y62480D01*
X370276Y62559D01*
X370381Y62480D01*
Y62323D01*
X370276Y62244D01*
G01X373215Y66339D02*
X373530Y66811D01*
X373898Y67047D01*
X374318Y67126D01*
X374843Y66969D01*
X375210Y66575D01*
X375315Y66102D01*
X375263Y65630D01*
X375052Y65236D01*
X374003Y64449D01*
X373530Y63898D01*
X373215Y63110D01*
X373110Y62402D01*
X375315D01*
G01X366339Y86024D02*
Y90748D01*
X365709Y89803D01*
G01Y86024D02*
X366969D01*
G01X370276Y85866D02*
X370170Y85945D01*
Y86102D01*
X370276Y86181D01*
X370381Y86102D01*
Y85945D01*
X370276Y85866D01*
G01X374213Y86024D02*
X374580Y86102D01*
X375000Y86339D01*
X375263Y86732D01*
X375367Y87283D01*
X375263Y87835D01*
X374948Y88307D01*
X374475Y88543D01*
X373950D01*
X373635Y88701D01*
X373373Y89094D01*
X373268Y89646D01*
X373425Y90197D01*
X373793Y90591D01*
X374213Y90748D01*
X374633Y90591D01*
X375000Y90197D01*
X375157Y89646D01*
X375052Y89094D01*
X374790Y88701D01*
X374475Y88543D01*
X373950D01*
X373478Y88307D01*
X373163Y87835D01*
X373058Y87283D01*
X373163Y86732D01*
X373425Y86339D01*
X373845Y86102D01*
X374213Y86024D01*
G01X366339Y97835D02*
Y102559D01*
X365709Y101614D01*
G01Y97835D02*
X366969D01*
G01X370276Y97677D02*
X370170Y97756D01*
Y97913D01*
X370276Y97992D01*
X370381Y97913D01*
Y97756D01*
X370276Y97677D01*
G01X374213Y102559D02*
X373793Y102402D01*
X373478Y102008D01*
X373268Y101535D01*
X373110Y100906D01*
X373058Y100197D01*
X373110Y99488D01*
X373268Y98858D01*
X373478Y98386D01*
X373793Y97992D01*
X374213Y97835D01*
X374633Y97992D01*
X374948Y98386D01*
X375157Y98858D01*
X375315Y99488D01*
X375367Y100197D01*
X375315Y100906D01*
X375157Y101535D01*
X374948Y102008D01*
X374633Y102402D01*
X374213Y102559D01*
G01X366339Y126181D02*
X365919Y126024D01*
X365604Y125630D01*
X365394Y125157D01*
X365236Y124528D01*
X365184Y123819D01*
X365236Y123110D01*
X365394Y122480D01*
X365604Y122008D01*
X365919Y121614D01*
X366339Y121457D01*
X366759Y121614D01*
X367074Y122008D01*
X367283Y122480D01*
X367441Y123110D01*
X367493Y123819D01*
X367441Y124528D01*
X367283Y125157D01*
X367074Y125630D01*
X366759Y126024D01*
X366339Y126181D01*
G01X370276Y121299D02*
X370170Y121378D01*
Y121535D01*
X370276Y121614D01*
X370381Y121535D01*
Y121378D01*
X370276Y121299D01*
G01X374213Y121457D02*
X374580Y121535D01*
X375000Y121772D01*
X375263Y122165D01*
X375367Y122717D01*
X375263Y123268D01*
X374948Y123740D01*
X374475Y123976D01*
X373950D01*
X373635Y124134D01*
X373373Y124528D01*
X373268Y125079D01*
X373425Y125630D01*
X373793Y126024D01*
X374213Y126181D01*
X374633Y126024D01*
X375000Y125630D01*
X375157Y125079D01*
X375052Y124528D01*
X374790Y124134D01*
X374475Y123976D01*
X373950D01*
X373478Y123740D01*
X373163Y123268D01*
X373058Y122717D01*
X373163Y122165D01*
X373425Y121772D01*
X373845Y121535D01*
X374213Y121457D01*
G01X364370Y114370D02*
X363950Y114213D01*
X363635Y113819D01*
X363425Y113346D01*
X363268Y112717D01*
X363215Y112008D01*
X363268Y111299D01*
X363425Y110669D01*
X363635Y110197D01*
X363950Y109803D01*
X364370Y109646D01*
X364790Y109803D01*
X365105Y110197D01*
X365315Y110669D01*
X365472Y111299D01*
X365525Y112008D01*
X365472Y112717D01*
X365315Y113346D01*
X365105Y113819D01*
X364790Y114213D01*
X364370Y114370D01*
G01X368307Y109488D02*
X368202Y109567D01*
Y109724D01*
X368307Y109803D01*
X368412Y109724D01*
Y109567D01*
X368307Y109488D01*
G01X372244Y109646D02*
X372611Y109724D01*
X373031Y109961D01*
X373294Y110354D01*
X373399Y110906D01*
X373294Y111457D01*
X372979Y111929D01*
X372507Y112165D01*
X371981D01*
X371667Y112323D01*
X371404Y112717D01*
X371299Y113268D01*
X371457Y113819D01*
X371824Y114213D01*
X372244Y114370D01*
X372664Y114213D01*
X373031Y113819D01*
X373189Y113268D01*
X373084Y112717D01*
X372822Y112323D01*
X372507Y112165D01*
X371981D01*
X371509Y111929D01*
X371194Y111457D01*
X371089Y110906D01*
X371194Y110354D01*
X371457Y109961D01*
X371877Y109724D01*
X372244Y109646D01*
G01X375289Y110197D02*
X375656Y109803D01*
X376076Y109646D01*
X376496Y109803D01*
X376863Y110276D01*
X377126Y110984D01*
X377231Y111693D01*
Y112559D01*
X377126Y113268D01*
X376863Y113898D01*
X376548Y114213D01*
X376181Y114370D01*
X375761Y114213D01*
X375446Y113898D01*
X375236Y113425D01*
X375131Y112795D01*
X375236Y112244D01*
X375499Y111693D01*
X375814Y111378D01*
X376181Y111299D01*
X376601Y111457D01*
X376916Y111850D01*
X377231Y112559D01*
G01X366339Y137992D02*
X365919Y137835D01*
X365604Y137441D01*
X365394Y136969D01*
X365236Y136339D01*
X365184Y135630D01*
X365236Y134921D01*
X365394Y134291D01*
X365604Y133819D01*
X365919Y133425D01*
X366339Y133268D01*
X366759Y133425D01*
X367074Y133819D01*
X367283Y134291D01*
X367441Y134921D01*
X367493Y135630D01*
X367441Y136339D01*
X367283Y136969D01*
X367074Y137441D01*
X366759Y137835D01*
X366339Y137992D01*
G01X370276Y133110D02*
X370170Y133189D01*
Y133346D01*
X370276Y133425D01*
X370381Y133346D01*
Y133189D01*
X370276Y133110D01*
G01X373058Y133976D02*
X373373Y133583D01*
X373740Y133346D01*
X374213Y133268D01*
X374685Y133425D01*
X375052Y133740D01*
X375315Y134291D01*
X375367Y134921D01*
X375263Y135551D01*
X375000Y135945D01*
X374633Y136260D01*
X374265Y136339D01*
X373898Y136260D01*
X373425Y135945D01*
X373583Y137992D01*
X375000D01*
G01X363268Y168150D02*
X363688Y167756D01*
X364160Y167520D01*
X364580D01*
X365000Y167756D01*
X365315Y168150D01*
X365472Y168701D01*
X365367Y169252D01*
X365105Y169724D01*
X364633Y170039D01*
X364003Y170197D01*
X363635Y170512D01*
X363478Y171063D01*
X363583Y171614D01*
X363845Y172008D01*
X364213Y172244D01*
X364580D01*
X364948Y172087D01*
X365263Y171693D01*
G01X367677Y172244D02*
X368937D01*
G01X368307D02*
Y167520D01*
G01X367677D02*
X368937D01*
G01X371247Y172244D02*
X373241D01*
X371247Y167520D01*
X373241D01*
G01X377231D02*
X375131D01*
Y172244D01*
X377231D01*
G01X376391Y169961D02*
X375131D01*
G01X364370Y161614D02*
X363950Y161457D01*
X363635Y161063D01*
X363425Y160591D01*
X363268Y159961D01*
X363215Y159252D01*
X363268Y158543D01*
X363425Y157913D01*
X363635Y157441D01*
X363950Y157047D01*
X364370Y156890D01*
X364790Y157047D01*
X365105Y157441D01*
X365315Y157913D01*
X365472Y158543D01*
X365525Y159252D01*
X365472Y159961D01*
X365315Y160591D01*
X365105Y161063D01*
X364790Y161457D01*
X364370Y161614D01*
G01X368307Y156732D02*
X368202Y156811D01*
Y156969D01*
X368307Y157047D01*
X368412Y156969D01*
Y156811D01*
X368307Y156732D01*
G01X371247Y160827D02*
X371562Y161299D01*
X371929Y161535D01*
X372349Y161614D01*
X372874Y161457D01*
X373241Y161063D01*
X373346Y160591D01*
X373294Y160118D01*
X373084Y159724D01*
X372034Y158937D01*
X371562Y158386D01*
X371247Y157598D01*
X371142Y156890D01*
X373346D01*
G01X375026Y157598D02*
X375341Y157205D01*
X375709Y156969D01*
X376181Y156890D01*
X376654Y157047D01*
X377021Y157362D01*
X377283Y157913D01*
X377336Y158543D01*
X377231Y159173D01*
X376969Y159567D01*
X376601Y159882D01*
X376233Y159961D01*
X375866Y159882D01*
X375394Y159567D01*
X375551Y161614D01*
X376969D01*
G01X363845Y176969D02*
X365157Y181693D01*
X366470Y176969D01*
G01X365997Y178622D02*
X364318D01*
G01X368044Y181693D02*
Y176969D01*
X370144D01*
G01X371981Y181693D02*
Y176969D01*
X374081D01*
G01X379751Y181693D02*
Y178307D01*
X379961Y177598D01*
X380381Y177126D01*
X380906Y176969D01*
X381430Y177126D01*
X381850Y177598D01*
X382060Y178307D01*
Y181693D01*
G01X383635Y176969D02*
Y181693D01*
X386050Y176969D01*
Y181693D01*
G01X388150D02*
X389409D01*
G01X388780D02*
Y176969D01*
G01X388150D02*
X389409D01*
G01X392717Y181693D02*
Y176969D01*
G01X391509Y181693D02*
X393924D01*
G01X395551Y177598D02*
X395971Y177205D01*
X396444Y176969D01*
X396863D01*
X397283Y177205D01*
X397598Y177598D01*
X397756Y178150D01*
X397651Y178701D01*
X397389Y179173D01*
X396916Y179488D01*
X396286Y179646D01*
X395919Y179961D01*
X395761Y180512D01*
X395866Y181063D01*
X396129Y181457D01*
X396496Y181693D01*
X396863D01*
X397231Y181535D01*
X397546Y181142D01*
G01X403215Y176969D02*
X404528Y181693D01*
X405840Y176969D01*
G01X405367Y178622D02*
X403688D01*
G01X407415Y176969D02*
Y181693D01*
X408727D01*
X409147Y181457D01*
X409409Y181142D01*
X409515Y180512D01*
X409409Y179882D01*
X409094Y179488D01*
X408727Y179252D01*
X407415D01*
G01X408727D02*
X409515Y176969D01*
G01X413452D02*
X411352D01*
Y181693D01*
X413452D01*
G01X412611Y179409D02*
X411352D01*
G01X419646Y181693D02*
X420906D01*
G01X420276D02*
Y176969D01*
G01X419646D02*
X420906D01*
G01X423005D02*
Y181693D01*
X425420Y176969D01*
Y181693D01*
G01X430722Y176969D02*
Y181693D01*
X432087Y177756D01*
X433452Y181693D01*
Y176969D01*
G01X435394Y181693D02*
X436654D01*
G01X436024D02*
Y176969D01*
G01X435394D02*
X436654D01*
G01X438911Y181693D02*
Y176969D01*
X441011D01*
G01X442848Y181693D02*
Y176969D01*
X444948D01*
G01X447205Y181693D02*
X448465D01*
G01X447835D02*
Y176969D01*
G01X447205D02*
X448465D01*
G01X450407D02*
Y181693D01*
X451772Y177756D01*
X453137Y181693D01*
Y176969D01*
G01X456759D02*
X454659D01*
Y181693D01*
X456759D01*
G01X455919Y179409D02*
X454659D01*
G01X459646Y181693D02*
Y176969D01*
G01X458438Y181693D02*
X460853D01*
G01X464633Y176969D02*
X462533D01*
Y181693D01*
X464633D01*
G01X463793Y179409D02*
X462533D01*
G01X466470Y176969D02*
Y181693D01*
X467782D01*
X468202Y181457D01*
X468465Y181142D01*
X468570Y180512D01*
X468465Y179882D01*
X468150Y179488D01*
X467782Y179252D01*
X466470D01*
G01X467782D02*
X468570Y176969D01*
G01X470354Y177598D02*
X470774Y177205D01*
X471247Y176969D01*
X471667D01*
X472087Y177205D01*
X472402Y177598D01*
X472559Y178150D01*
X472454Y178701D01*
X472192Y179173D01*
X471719Y179488D01*
X471089Y179646D01*
X470722Y179961D01*
X470564Y180512D01*
X470669Y181063D01*
X470932Y181457D01*
X471299Y181693D01*
X471667D01*
X472034Y181535D01*
X472349Y181142D01*
G01X367940Y202559D02*
Y207283D01*
X368989D01*
X369409Y207047D01*
X369724Y206732D01*
X369987Y206260D01*
X370197Y205709D01*
X370249Y204921D01*
X370197Y204134D01*
X369987Y203583D01*
X369724Y203110D01*
X369409Y202795D01*
X368989Y202559D01*
X367940D01*
G01X371981D02*
Y207283D01*
X373294D01*
X373714Y207047D01*
X373976Y206732D01*
X374081Y206102D01*
X373976Y205472D01*
X373661Y205079D01*
X373294Y204843D01*
X371981D01*
G01X373294D02*
X374081Y202559D01*
G01X376339Y207283D02*
X377598D01*
G01X376969D02*
Y202559D01*
G01X376339D02*
X377598D01*
G01X379856Y207283D02*
Y202559D01*
X381956D01*
G01X383793Y207283D02*
Y202559D01*
X385893D01*
G01X393871Y206890D02*
X393556Y207126D01*
X393189Y207283D01*
X392769D01*
X392296Y207047D01*
X391929Y206654D01*
X391667Y206181D01*
X391457Y205394D01*
X391404Y204685D01*
X391509Y203976D01*
X391667Y203504D01*
X391981Y203031D01*
X392349Y202717D01*
X392717Y202559D01*
X393084D01*
X393452Y202717D01*
X393767Y202953D01*
X394029Y203268D01*
G01X395551Y202559D02*
Y207283D01*
G01X397756D02*
Y202559D01*
G01Y204921D02*
X395551D01*
G01X399278Y202559D02*
X400591Y207283D01*
X401903Y202559D01*
G01X401430Y204213D02*
X399751D01*
G01X403478Y202559D02*
Y207283D01*
X404790D01*
X405210Y207047D01*
X405472Y206732D01*
X405578Y206102D01*
X405472Y205472D01*
X405157Y205079D01*
X404790Y204843D01*
X403478D01*
G01X404790D02*
X405578Y202559D01*
G01X408465Y207283D02*
Y202559D01*
G01X407257Y207283D02*
X409672D01*
G01X412402Y202402D02*
X412296Y202480D01*
Y202638D01*
X412402Y202717D01*
X412507Y202638D01*
Y202480D01*
X412402Y202402D01*
G01Y204528D02*
X412296Y204606D01*
Y204764D01*
X412402Y204843D01*
X412507Y204764D01*
Y204606D01*
X412402Y204528D01*
G01X420276Y207283D02*
Y202559D01*
G01X419068Y207283D02*
X421483D01*
G01X424213Y202559D02*
X423793Y202638D01*
X423425Y202953D01*
X423110Y203425D01*
X422900Y203976D01*
X422795Y204606D01*
Y205236D01*
X422900Y205866D01*
X423110Y206417D01*
X423425Y206890D01*
X423793Y207205D01*
X424213Y207283D01*
X424633Y207205D01*
X425000Y206890D01*
X425315Y206417D01*
X425525Y205866D01*
X425630Y205236D01*
Y204606D01*
X425525Y203976D01*
X425315Y203425D01*
X425000Y202953D01*
X424633Y202638D01*
X424213Y202559D01*
G01X427100D02*
Y207283D01*
X428359D01*
X428780Y207047D01*
X429094Y206496D01*
X429200Y205866D01*
X429094Y205236D01*
X428832Y204764D01*
X428359Y204528D01*
X427100D01*
G01X436024Y207283D02*
Y202559D01*
G01X435289Y205709D02*
X436759D01*
G01X439961Y202559D02*
X439646Y202638D01*
X439331Y202953D01*
X439121Y203504D01*
X439016Y204134D01*
X439121Y204764D01*
X439331Y205315D01*
X439646Y205630D01*
X439961Y205709D01*
X440276Y205630D01*
X440591Y205315D01*
X440800Y204764D01*
X440853Y204134D01*
X440800Y203504D01*
X440591Y202953D01*
X440276Y202638D01*
X439961Y202559D01*
G01X448255Y205079D02*
X448465Y205315D01*
X448622Y205709D01*
X448727Y206260D01*
X448622Y206732D01*
X448412Y207047D01*
X448044Y207283D01*
X446627D01*
Y202559D01*
X448359D01*
X448727Y202874D01*
X448937Y203346D01*
X449042Y203898D01*
X448937Y204449D01*
X448622Y204921D01*
X448255Y205079D01*
X446627D01*
G01X451772Y202559D02*
X451352Y202638D01*
X450984Y202953D01*
X450669Y203425D01*
X450459Y203976D01*
X450354Y204606D01*
Y205236D01*
X450459Y205866D01*
X450669Y206417D01*
X450984Y206890D01*
X451352Y207205D01*
X451772Y207283D01*
X452192Y207205D01*
X452559Y206890D01*
X452874Y206417D01*
X453084Y205866D01*
X453189Y205236D01*
Y204606D01*
X453084Y203976D01*
X452874Y203425D01*
X452559Y202953D01*
X452192Y202638D01*
X451772Y202559D01*
G01X455709Y207283D02*
Y202559D01*
G01X454501Y207283D02*
X456916D01*
G01X459646D02*
Y202559D01*
G01X458438Y207283D02*
X460853D01*
G01X463583Y202559D02*
X463163Y202638D01*
X462795Y202953D01*
X462480Y203425D01*
X462270Y203976D01*
X462165Y204606D01*
Y205236D01*
X462270Y205866D01*
X462480Y206417D01*
X462795Y206890D01*
X463163Y207205D01*
X463583Y207283D01*
X464003Y207205D01*
X464370Y206890D01*
X464685Y206417D01*
X464895Y205866D01*
X465000Y205236D01*
Y204606D01*
X464895Y203976D01*
X464685Y203425D01*
X464370Y202953D01*
X464003Y202638D01*
X463583Y202559D01*
G01X466155D02*
Y207283D01*
X467520Y203346D01*
X468885Y207283D01*
Y202559D01*
G01X405919Y111220D02*
X407178D01*
G01X406496Y112244D02*
Y110197D01*
G01X410433Y114370D02*
X410013Y114213D01*
X409698Y113819D01*
X409488Y113346D01*
X409331Y112717D01*
X409278Y112008D01*
X409331Y111299D01*
X409488Y110669D01*
X409698Y110197D01*
X410013Y109803D01*
X410433Y109646D01*
X410853Y109803D01*
X411168Y110197D01*
X411378Y110669D01*
X411535Y111299D01*
X411588Y112008D01*
X411535Y112717D01*
X411378Y113346D01*
X411168Y113819D01*
X410853Y114213D01*
X410433Y114370D01*
G01X414370Y109488D02*
X414265Y109567D01*
Y109724D01*
X414370Y109803D01*
X414475Y109724D01*
Y109567D01*
X414370Y109488D01*
G01X418307Y114370D02*
X417887Y114213D01*
X417572Y113819D01*
X417362Y113346D01*
X417205Y112717D01*
X417152Y112008D01*
X417205Y111299D01*
X417362Y110669D01*
X417572Y110197D01*
X417887Y109803D01*
X418307Y109646D01*
X418727Y109803D01*
X419042Y110197D01*
X419252Y110669D01*
X419409Y111299D01*
X419462Y112008D01*
X419409Y112717D01*
X419252Y113346D01*
X419042Y113819D01*
X418727Y114213D01*
X418307Y114370D01*
G01X422139Y109646D02*
X422244Y110669D01*
X422402Y111535D01*
X422611Y112323D01*
X422874Y113189D01*
X423294Y114370D01*
X421194D01*
G01X425184Y111614D02*
X425551Y112165D01*
X425866Y112480D01*
X426286Y112638D01*
X426654Y112480D01*
X426916Y112165D01*
X427126Y111693D01*
X427178Y111142D01*
X427126Y110669D01*
X426916Y110197D01*
X426601Y109803D01*
X426233Y109646D01*
X425814Y109803D01*
X425446Y110276D01*
X425236Y110984D01*
X425184Y111772D01*
X425289Y112795D01*
X425446Y113346D01*
X425709Y113898D01*
X426076Y114291D01*
X426444Y114370D01*
X426811Y114213D01*
X427074Y113819D01*
G01X429173Y109488D02*
X431063Y114370D01*
G01X433373Y111220D02*
X434737D01*
G01X437992Y114370D02*
X437572Y114213D01*
X437257Y113819D01*
X437047Y113346D01*
X436890Y112717D01*
X436837Y112008D01*
X436890Y111299D01*
X437047Y110669D01*
X437257Y110197D01*
X437572Y109803D01*
X437992Y109646D01*
X438412Y109803D01*
X438727Y110197D01*
X438937Y110669D01*
X439094Y111299D01*
X439147Y112008D01*
X439094Y112717D01*
X438937Y113346D01*
X438727Y113819D01*
X438412Y114213D01*
X437992Y114370D01*
G01X441929Y109488D02*
X441824Y109567D01*
Y109724D01*
X441929Y109803D01*
X442034Y109724D01*
Y109567D01*
X441929Y109488D01*
G01X445866Y114370D02*
X445446Y114213D01*
X445131Y113819D01*
X444921Y113346D01*
X444764Y112717D01*
X444711Y112008D01*
X444764Y111299D01*
X444921Y110669D01*
X445131Y110197D01*
X445446Y109803D01*
X445866Y109646D01*
X446286Y109803D01*
X446601Y110197D01*
X446811Y110669D01*
X446969Y111299D01*
X447021Y112008D01*
X446969Y112717D01*
X446811Y113346D01*
X446601Y113819D01*
X446286Y114213D01*
X445866Y114370D01*
G01X449698Y109646D02*
X449803Y110669D01*
X449961Y111535D01*
X450170Y112323D01*
X450433Y113189D01*
X450853Y114370D01*
X448753D01*
G01X452743Y111614D02*
X453110Y112165D01*
X453425Y112480D01*
X453845Y112638D01*
X454213Y112480D01*
X454475Y112165D01*
X454685Y111693D01*
X454737Y111142D01*
X454685Y110669D01*
X454475Y110197D01*
X454160Y109803D01*
X453793Y109646D01*
X453373Y109803D01*
X453005Y110276D01*
X452795Y110984D01*
X452743Y111772D01*
X452848Y112795D01*
X453005Y113346D01*
X453268Y113898D01*
X453635Y114291D01*
X454003Y114370D01*
X454370Y114213D01*
X454633Y113819D01*
G01X409856Y28543D02*
X411115D01*
G01X410433Y29567D02*
Y27520D01*
G01X414370Y31693D02*
X413950Y31535D01*
X413635Y31142D01*
X413425Y30669D01*
X413268Y30039D01*
X413215Y29331D01*
X413268Y28622D01*
X413425Y27992D01*
X413635Y27520D01*
X413950Y27126D01*
X414370Y26969D01*
X414790Y27126D01*
X415105Y27520D01*
X415315Y27992D01*
X415472Y28622D01*
X415525Y29331D01*
X415472Y30039D01*
X415315Y30669D01*
X415105Y31142D01*
X414790Y31535D01*
X414370Y31693D01*
G01X418307Y26811D02*
X418202Y26890D01*
Y27047D01*
X418307Y27126D01*
X418412Y27047D01*
Y26890D01*
X418307Y26811D01*
G01X422244Y31693D02*
X421824Y31535D01*
X421509Y31142D01*
X421299Y30669D01*
X421142Y30039D01*
X421089Y29331D01*
X421142Y28622D01*
X421299Y27992D01*
X421509Y27520D01*
X421824Y27126D01*
X422244Y26969D01*
X422664Y27126D01*
X422979Y27520D01*
X423189Y27992D01*
X423346Y28622D01*
X423399Y29331D01*
X423346Y30039D01*
X423189Y30669D01*
X422979Y31142D01*
X422664Y31535D01*
X422244Y31693D01*
G01X426181Y26969D02*
X426548Y27047D01*
X426969Y27283D01*
X427231Y27677D01*
X427336Y28228D01*
X427231Y28780D01*
X426916Y29252D01*
X426444Y29488D01*
X425919D01*
X425604Y29646D01*
X425341Y30039D01*
X425236Y30591D01*
X425394Y31142D01*
X425761Y31535D01*
X426181Y31693D01*
X426601Y31535D01*
X426969Y31142D01*
X427126Y30591D01*
X427021Y30039D01*
X426759Y29646D01*
X426444Y29488D01*
X425919D01*
X425446Y29252D01*
X425131Y28780D01*
X425026Y28228D01*
X425131Y27677D01*
X425394Y27283D01*
X425814Y27047D01*
X426181Y26969D01*
G01X429173Y26811D02*
X431063Y31693D01*
G01X433373Y28543D02*
X434737D01*
G01X437992Y31693D02*
X437572Y31535D01*
X437257Y31142D01*
X437047Y30669D01*
X436890Y30039D01*
X436837Y29331D01*
X436890Y28622D01*
X437047Y27992D01*
X437257Y27520D01*
X437572Y27126D01*
X437992Y26969D01*
X438412Y27126D01*
X438727Y27520D01*
X438937Y27992D01*
X439094Y28622D01*
X439147Y29331D01*
X439094Y30039D01*
X438937Y30669D01*
X438727Y31142D01*
X438412Y31535D01*
X437992Y31693D01*
G01X441929Y26811D02*
X441824Y26890D01*
Y27047D01*
X441929Y27126D01*
X442034Y27047D01*
Y26890D01*
X441929Y26811D01*
G01X445866Y31693D02*
X445446Y31535D01*
X445131Y31142D01*
X444921Y30669D01*
X444764Y30039D01*
X444711Y29331D01*
X444764Y28622D01*
X444921Y27992D01*
X445131Y27520D01*
X445446Y27126D01*
X445866Y26969D01*
X446286Y27126D01*
X446601Y27520D01*
X446811Y27992D01*
X446969Y28622D01*
X447021Y29331D01*
X446969Y30039D01*
X446811Y30669D01*
X446601Y31142D01*
X446286Y31535D01*
X445866Y31693D01*
G01X449803Y26969D02*
X450170Y27047D01*
X450591Y27283D01*
X450853Y27677D01*
X450958Y28228D01*
X450853Y28780D01*
X450538Y29252D01*
X450066Y29488D01*
X449541D01*
X449226Y29646D01*
X448963Y30039D01*
X448858Y30591D01*
X449016Y31142D01*
X449383Y31535D01*
X449803Y31693D01*
X450223Y31535D01*
X450591Y31142D01*
X450748Y30591D01*
X450643Y30039D01*
X450381Y29646D01*
X450066Y29488D01*
X449541D01*
X449068Y29252D01*
X448753Y28780D01*
X448648Y28228D01*
X448753Y27677D01*
X449016Y27283D01*
X449436Y27047D01*
X449803Y26969D01*
G01X409856Y40354D02*
X411115D01*
G01X410433Y41378D02*
Y39331D01*
G01X414370Y43504D02*
X413950Y43346D01*
X413635Y42953D01*
X413425Y42480D01*
X413268Y41850D01*
X413215Y41142D01*
X413268Y40433D01*
X413425Y39803D01*
X413635Y39331D01*
X413950Y38937D01*
X414370Y38780D01*
X414790Y38937D01*
X415105Y39331D01*
X415315Y39803D01*
X415472Y40433D01*
X415525Y41142D01*
X415472Y41850D01*
X415315Y42480D01*
X415105Y42953D01*
X414790Y43346D01*
X414370Y43504D01*
G01X418307Y38622D02*
X418202Y38701D01*
Y38858D01*
X418307Y38937D01*
X418412Y38858D01*
Y38701D01*
X418307Y38622D01*
G01X422244Y43504D02*
X421824Y43346D01*
X421509Y42953D01*
X421299Y42480D01*
X421142Y41850D01*
X421089Y41142D01*
X421142Y40433D01*
X421299Y39803D01*
X421509Y39331D01*
X421824Y38937D01*
X422244Y38780D01*
X422664Y38937D01*
X422979Y39331D01*
X423189Y39803D01*
X423346Y40433D01*
X423399Y41142D01*
X423346Y41850D01*
X423189Y42480D01*
X422979Y42953D01*
X422664Y43346D01*
X422244Y43504D01*
G01X426181Y38780D02*
X426548Y38858D01*
X426969Y39094D01*
X427231Y39488D01*
X427336Y40039D01*
X427231Y40591D01*
X426916Y41063D01*
X426444Y41299D01*
X425919D01*
X425604Y41457D01*
X425341Y41850D01*
X425236Y42402D01*
X425394Y42953D01*
X425761Y43346D01*
X426181Y43504D01*
X426601Y43346D01*
X426969Y42953D01*
X427126Y42402D01*
X427021Y41850D01*
X426759Y41457D01*
X426444Y41299D01*
X425919D01*
X425446Y41063D01*
X425131Y40591D01*
X425026Y40039D01*
X425131Y39488D01*
X425394Y39094D01*
X425814Y38858D01*
X426181Y38780D01*
G01X429173Y38622D02*
X431063Y43504D01*
G01X433373Y40354D02*
X434737D01*
G01X437992Y43504D02*
X437572Y43346D01*
X437257Y42953D01*
X437047Y42480D01*
X436890Y41850D01*
X436837Y41142D01*
X436890Y40433D01*
X437047Y39803D01*
X437257Y39331D01*
X437572Y38937D01*
X437992Y38780D01*
X438412Y38937D01*
X438727Y39331D01*
X438937Y39803D01*
X439094Y40433D01*
X439147Y41142D01*
X439094Y41850D01*
X438937Y42480D01*
X438727Y42953D01*
X438412Y43346D01*
X437992Y43504D01*
G01X441929Y38622D02*
X441824Y38701D01*
Y38858D01*
X441929Y38937D01*
X442034Y38858D01*
Y38701D01*
X441929Y38622D01*
G01X445866Y43504D02*
X445446Y43346D01*
X445131Y42953D01*
X444921Y42480D01*
X444764Y41850D01*
X444711Y41142D01*
X444764Y40433D01*
X444921Y39803D01*
X445131Y39331D01*
X445446Y38937D01*
X445866Y38780D01*
X446286Y38937D01*
X446601Y39331D01*
X446811Y39803D01*
X446969Y40433D01*
X447021Y41142D01*
X446969Y41850D01*
X446811Y42480D01*
X446601Y42953D01*
X446286Y43346D01*
X445866Y43504D01*
G01X449803Y38780D02*
X450170Y38858D01*
X450591Y39094D01*
X450853Y39488D01*
X450958Y40039D01*
X450853Y40591D01*
X450538Y41063D01*
X450066Y41299D01*
X449541D01*
X449226Y41457D01*
X448963Y41850D01*
X448858Y42402D01*
X449016Y42953D01*
X449383Y43346D01*
X449803Y43504D01*
X450223Y43346D01*
X450591Y42953D01*
X450748Y42402D01*
X450643Y41850D01*
X450381Y41457D01*
X450066Y41299D01*
X449541D01*
X449068Y41063D01*
X448753Y40591D01*
X448648Y40039D01*
X448753Y39488D01*
X449016Y39094D01*
X449436Y38858D01*
X449803Y38780D01*
G01X409856Y52165D02*
X411115D01*
G01X410433Y53189D02*
Y51142D01*
G01X414370Y55315D02*
X413950Y55157D01*
X413635Y54764D01*
X413425Y54291D01*
X413268Y53661D01*
X413215Y52953D01*
X413268Y52244D01*
X413425Y51614D01*
X413635Y51142D01*
X413950Y50748D01*
X414370Y50591D01*
X414790Y50748D01*
X415105Y51142D01*
X415315Y51614D01*
X415472Y52244D01*
X415525Y52953D01*
X415472Y53661D01*
X415315Y54291D01*
X415105Y54764D01*
X414790Y55157D01*
X414370Y55315D01*
G01X418307Y50433D02*
X418202Y50512D01*
Y50669D01*
X418307Y50748D01*
X418412Y50669D01*
Y50512D01*
X418307Y50433D01*
G01X422244Y55315D02*
X421824Y55157D01*
X421509Y54764D01*
X421299Y54291D01*
X421142Y53661D01*
X421089Y52953D01*
X421142Y52244D01*
X421299Y51614D01*
X421509Y51142D01*
X421824Y50748D01*
X422244Y50591D01*
X422664Y50748D01*
X422979Y51142D01*
X423189Y51614D01*
X423346Y52244D01*
X423399Y52953D01*
X423346Y53661D01*
X423189Y54291D01*
X422979Y54764D01*
X422664Y55157D01*
X422244Y55315D01*
G01X426181Y50591D02*
X426548Y50669D01*
X426969Y50906D01*
X427231Y51299D01*
X427336Y51850D01*
X427231Y52402D01*
X426916Y52874D01*
X426444Y53110D01*
X425919D01*
X425604Y53268D01*
X425341Y53661D01*
X425236Y54213D01*
X425394Y54764D01*
X425761Y55157D01*
X426181Y55315D01*
X426601Y55157D01*
X426969Y54764D01*
X427126Y54213D01*
X427021Y53661D01*
X426759Y53268D01*
X426444Y53110D01*
X425919D01*
X425446Y52874D01*
X425131Y52402D01*
X425026Y51850D01*
X425131Y51299D01*
X425394Y50906D01*
X425814Y50669D01*
X426181Y50591D01*
G01X429173Y50433D02*
X431063Y55315D01*
G01X433373Y52165D02*
X434737D01*
G01X437992Y55315D02*
X437572Y55157D01*
X437257Y54764D01*
X437047Y54291D01*
X436890Y53661D01*
X436837Y52953D01*
X436890Y52244D01*
X437047Y51614D01*
X437257Y51142D01*
X437572Y50748D01*
X437992Y50591D01*
X438412Y50748D01*
X438727Y51142D01*
X438937Y51614D01*
X439094Y52244D01*
X439147Y52953D01*
X439094Y53661D01*
X438937Y54291D01*
X438727Y54764D01*
X438412Y55157D01*
X437992Y55315D01*
G01X441929Y50433D02*
X441824Y50512D01*
Y50669D01*
X441929Y50748D01*
X442034Y50669D01*
Y50512D01*
X441929Y50433D01*
G01X445866Y55315D02*
X445446Y55157D01*
X445131Y54764D01*
X444921Y54291D01*
X444764Y53661D01*
X444711Y52953D01*
X444764Y52244D01*
X444921Y51614D01*
X445131Y51142D01*
X445446Y50748D01*
X445866Y50591D01*
X446286Y50748D01*
X446601Y51142D01*
X446811Y51614D01*
X446969Y52244D01*
X447021Y52953D01*
X446969Y53661D01*
X446811Y54291D01*
X446601Y54764D01*
X446286Y55157D01*
X445866Y55315D01*
G01X449803Y50591D02*
X450170Y50669D01*
X450591Y50906D01*
X450853Y51299D01*
X450958Y51850D01*
X450853Y52402D01*
X450538Y52874D01*
X450066Y53110D01*
X449541D01*
X449226Y53268D01*
X448963Y53661D01*
X448858Y54213D01*
X449016Y54764D01*
X449383Y55157D01*
X449803Y55315D01*
X450223Y55157D01*
X450591Y54764D01*
X450748Y54213D01*
X450643Y53661D01*
X450381Y53268D01*
X450066Y53110D01*
X449541D01*
X449068Y52874D01*
X448753Y52402D01*
X448648Y51850D01*
X448753Y51299D01*
X449016Y50906D01*
X449436Y50669D01*
X449803Y50591D01*
G01X409856Y75787D02*
X411115D01*
G01X410433Y76811D02*
Y74764D01*
G01X414370Y78937D02*
X413950Y78780D01*
X413635Y78386D01*
X413425Y77913D01*
X413268Y77283D01*
X413215Y76575D01*
X413268Y75866D01*
X413425Y75236D01*
X413635Y74764D01*
X413950Y74370D01*
X414370Y74213D01*
X414790Y74370D01*
X415105Y74764D01*
X415315Y75236D01*
X415472Y75866D01*
X415525Y76575D01*
X415472Y77283D01*
X415315Y77913D01*
X415105Y78386D01*
X414790Y78780D01*
X414370Y78937D01*
G01X418307Y74055D02*
X418202Y74134D01*
Y74291D01*
X418307Y74370D01*
X418412Y74291D01*
Y74134D01*
X418307Y74055D01*
G01X422244Y78937D02*
X421824Y78780D01*
X421509Y78386D01*
X421299Y77913D01*
X421142Y77283D01*
X421089Y76575D01*
X421142Y75866D01*
X421299Y75236D01*
X421509Y74764D01*
X421824Y74370D01*
X422244Y74213D01*
X422664Y74370D01*
X422979Y74764D01*
X423189Y75236D01*
X423346Y75866D01*
X423399Y76575D01*
X423346Y77283D01*
X423189Y77913D01*
X422979Y78386D01*
X422664Y78780D01*
X422244Y78937D01*
G01X426181Y74213D02*
X426548Y74291D01*
X426969Y74528D01*
X427231Y74921D01*
X427336Y75472D01*
X427231Y76024D01*
X426916Y76496D01*
X426444Y76732D01*
X425919D01*
X425604Y76890D01*
X425341Y77283D01*
X425236Y77835D01*
X425394Y78386D01*
X425761Y78780D01*
X426181Y78937D01*
X426601Y78780D01*
X426969Y78386D01*
X427126Y77835D01*
X427021Y77283D01*
X426759Y76890D01*
X426444Y76732D01*
X425919D01*
X425446Y76496D01*
X425131Y76024D01*
X425026Y75472D01*
X425131Y74921D01*
X425394Y74528D01*
X425814Y74291D01*
X426181Y74213D01*
G01X429173Y74055D02*
X431063Y78937D01*
G01X433373Y75787D02*
X434737D01*
G01X437992Y78937D02*
X437572Y78780D01*
X437257Y78386D01*
X437047Y77913D01*
X436890Y77283D01*
X436837Y76575D01*
X436890Y75866D01*
X437047Y75236D01*
X437257Y74764D01*
X437572Y74370D01*
X437992Y74213D01*
X438412Y74370D01*
X438727Y74764D01*
X438937Y75236D01*
X439094Y75866D01*
X439147Y76575D01*
X439094Y77283D01*
X438937Y77913D01*
X438727Y78386D01*
X438412Y78780D01*
X437992Y78937D01*
G01X441929Y74055D02*
X441824Y74134D01*
Y74291D01*
X441929Y74370D01*
X442034Y74291D01*
Y74134D01*
X441929Y74055D01*
G01X445866Y78937D02*
X445446Y78780D01*
X445131Y78386D01*
X444921Y77913D01*
X444764Y77283D01*
X444711Y76575D01*
X444764Y75866D01*
X444921Y75236D01*
X445131Y74764D01*
X445446Y74370D01*
X445866Y74213D01*
X446286Y74370D01*
X446601Y74764D01*
X446811Y75236D01*
X446969Y75866D01*
X447021Y76575D01*
X446969Y77283D01*
X446811Y77913D01*
X446601Y78386D01*
X446286Y78780D01*
X445866Y78937D01*
G01X449803Y74213D02*
X450170Y74291D01*
X450591Y74528D01*
X450853Y74921D01*
X450958Y75472D01*
X450853Y76024D01*
X450538Y76496D01*
X450066Y76732D01*
X449541D01*
X449226Y76890D01*
X448963Y77283D01*
X448858Y77835D01*
X449016Y78386D01*
X449383Y78780D01*
X449803Y78937D01*
X450223Y78780D01*
X450591Y78386D01*
X450748Y77835D01*
X450643Y77283D01*
X450381Y76890D01*
X450066Y76732D01*
X449541D01*
X449068Y76496D01*
X448753Y76024D01*
X448648Y75472D01*
X448753Y74921D01*
X449016Y74528D01*
X449436Y74291D01*
X449803Y74213D01*
G01X409856Y63976D02*
X411115D01*
G01X410433Y65000D02*
Y62953D01*
G01X414370Y67126D02*
X413950Y66969D01*
X413635Y66575D01*
X413425Y66102D01*
X413268Y65472D01*
X413215Y64764D01*
X413268Y64055D01*
X413425Y63425D01*
X413635Y62953D01*
X413950Y62559D01*
X414370Y62402D01*
X414790Y62559D01*
X415105Y62953D01*
X415315Y63425D01*
X415472Y64055D01*
X415525Y64764D01*
X415472Y65472D01*
X415315Y66102D01*
X415105Y66575D01*
X414790Y66969D01*
X414370Y67126D01*
G01X418307Y62244D02*
X418202Y62323D01*
Y62480D01*
X418307Y62559D01*
X418412Y62480D01*
Y62323D01*
X418307Y62244D01*
G01X422244Y67126D02*
X421824Y66969D01*
X421509Y66575D01*
X421299Y66102D01*
X421142Y65472D01*
X421089Y64764D01*
X421142Y64055D01*
X421299Y63425D01*
X421509Y62953D01*
X421824Y62559D01*
X422244Y62402D01*
X422664Y62559D01*
X422979Y62953D01*
X423189Y63425D01*
X423346Y64055D01*
X423399Y64764D01*
X423346Y65472D01*
X423189Y66102D01*
X422979Y66575D01*
X422664Y66969D01*
X422244Y67126D01*
G01X426181Y62402D02*
X426548Y62480D01*
X426969Y62717D01*
X427231Y63110D01*
X427336Y63661D01*
X427231Y64213D01*
X426916Y64685D01*
X426444Y64921D01*
X425919D01*
X425604Y65079D01*
X425341Y65472D01*
X425236Y66024D01*
X425394Y66575D01*
X425761Y66969D01*
X426181Y67126D01*
X426601Y66969D01*
X426969Y66575D01*
X427126Y66024D01*
X427021Y65472D01*
X426759Y65079D01*
X426444Y64921D01*
X425919D01*
X425446Y64685D01*
X425131Y64213D01*
X425026Y63661D01*
X425131Y63110D01*
X425394Y62717D01*
X425814Y62480D01*
X426181Y62402D01*
G01X429173Y62244D02*
X431063Y67126D01*
G01X433373Y63976D02*
X434737D01*
G01X437992Y67126D02*
X437572Y66969D01*
X437257Y66575D01*
X437047Y66102D01*
X436890Y65472D01*
X436837Y64764D01*
X436890Y64055D01*
X437047Y63425D01*
X437257Y62953D01*
X437572Y62559D01*
X437992Y62402D01*
X438412Y62559D01*
X438727Y62953D01*
X438937Y63425D01*
X439094Y64055D01*
X439147Y64764D01*
X439094Y65472D01*
X438937Y66102D01*
X438727Y66575D01*
X438412Y66969D01*
X437992Y67126D01*
G01X441929Y62244D02*
X441824Y62323D01*
Y62480D01*
X441929Y62559D01*
X442034Y62480D01*
Y62323D01*
X441929Y62244D01*
G01X445866Y67126D02*
X445446Y66969D01*
X445131Y66575D01*
X444921Y66102D01*
X444764Y65472D01*
X444711Y64764D01*
X444764Y64055D01*
X444921Y63425D01*
X445131Y62953D01*
X445446Y62559D01*
X445866Y62402D01*
X446286Y62559D01*
X446601Y62953D01*
X446811Y63425D01*
X446969Y64055D01*
X447021Y64764D01*
X446969Y65472D01*
X446811Y66102D01*
X446601Y66575D01*
X446286Y66969D01*
X445866Y67126D01*
G01X449803Y62402D02*
X450170Y62480D01*
X450591Y62717D01*
X450853Y63110D01*
X450958Y63661D01*
X450853Y64213D01*
X450538Y64685D01*
X450066Y64921D01*
X449541D01*
X449226Y65079D01*
X448963Y65472D01*
X448858Y66024D01*
X449016Y66575D01*
X449383Y66969D01*
X449803Y67126D01*
X450223Y66969D01*
X450591Y66575D01*
X450748Y66024D01*
X450643Y65472D01*
X450381Y65079D01*
X450066Y64921D01*
X449541D01*
X449068Y64685D01*
X448753Y64213D01*
X448648Y63661D01*
X448753Y63110D01*
X449016Y62717D01*
X449436Y62480D01*
X449803Y62402D01*
G01X409856Y87598D02*
X411115D01*
G01X410433Y88622D02*
Y86575D01*
G01X414370Y90748D02*
X413950Y90591D01*
X413635Y90197D01*
X413425Y89724D01*
X413268Y89094D01*
X413215Y88386D01*
X413268Y87677D01*
X413425Y87047D01*
X413635Y86575D01*
X413950Y86181D01*
X414370Y86024D01*
X414790Y86181D01*
X415105Y86575D01*
X415315Y87047D01*
X415472Y87677D01*
X415525Y88386D01*
X415472Y89094D01*
X415315Y89724D01*
X415105Y90197D01*
X414790Y90591D01*
X414370Y90748D01*
G01X418307Y85866D02*
X418202Y85945D01*
Y86102D01*
X418307Y86181D01*
X418412Y86102D01*
Y85945D01*
X418307Y85866D01*
G01X422244Y90748D02*
X421824Y90591D01*
X421509Y90197D01*
X421299Y89724D01*
X421142Y89094D01*
X421089Y88386D01*
X421142Y87677D01*
X421299Y87047D01*
X421509Y86575D01*
X421824Y86181D01*
X422244Y86024D01*
X422664Y86181D01*
X422979Y86575D01*
X423189Y87047D01*
X423346Y87677D01*
X423399Y88386D01*
X423346Y89094D01*
X423189Y89724D01*
X422979Y90197D01*
X422664Y90591D01*
X422244Y90748D01*
G01X426181Y86024D02*
X426548Y86102D01*
X426969Y86339D01*
X427231Y86732D01*
X427336Y87283D01*
X427231Y87835D01*
X426916Y88307D01*
X426444Y88543D01*
X425919D01*
X425604Y88701D01*
X425341Y89094D01*
X425236Y89646D01*
X425394Y90197D01*
X425761Y90591D01*
X426181Y90748D01*
X426601Y90591D01*
X426969Y90197D01*
X427126Y89646D01*
X427021Y89094D01*
X426759Y88701D01*
X426444Y88543D01*
X425919D01*
X425446Y88307D01*
X425131Y87835D01*
X425026Y87283D01*
X425131Y86732D01*
X425394Y86339D01*
X425814Y86102D01*
X426181Y86024D01*
G01X429173Y85866D02*
X431063Y90748D01*
G01X433373Y87598D02*
X434737D01*
G01X437992Y90748D02*
X437572Y90591D01*
X437257Y90197D01*
X437047Y89724D01*
X436890Y89094D01*
X436837Y88386D01*
X436890Y87677D01*
X437047Y87047D01*
X437257Y86575D01*
X437572Y86181D01*
X437992Y86024D01*
X438412Y86181D01*
X438727Y86575D01*
X438937Y87047D01*
X439094Y87677D01*
X439147Y88386D01*
X439094Y89094D01*
X438937Y89724D01*
X438727Y90197D01*
X438412Y90591D01*
X437992Y90748D01*
G01X441929Y85866D02*
X441824Y85945D01*
Y86102D01*
X441929Y86181D01*
X442034Y86102D01*
Y85945D01*
X441929Y85866D01*
G01X445866Y90748D02*
X445446Y90591D01*
X445131Y90197D01*
X444921Y89724D01*
X444764Y89094D01*
X444711Y88386D01*
X444764Y87677D01*
X444921Y87047D01*
X445131Y86575D01*
X445446Y86181D01*
X445866Y86024D01*
X446286Y86181D01*
X446601Y86575D01*
X446811Y87047D01*
X446969Y87677D01*
X447021Y88386D01*
X446969Y89094D01*
X446811Y89724D01*
X446601Y90197D01*
X446286Y90591D01*
X445866Y90748D01*
G01X449803Y86024D02*
X450170Y86102D01*
X450591Y86339D01*
X450853Y86732D01*
X450958Y87283D01*
X450853Y87835D01*
X450538Y88307D01*
X450066Y88543D01*
X449541D01*
X449226Y88701D01*
X448963Y89094D01*
X448858Y89646D01*
X449016Y90197D01*
X449383Y90591D01*
X449803Y90748D01*
X450223Y90591D01*
X450591Y90197D01*
X450748Y89646D01*
X450643Y89094D01*
X450381Y88701D01*
X450066Y88543D01*
X449541D01*
X449068Y88307D01*
X448753Y87835D01*
X448648Y87283D01*
X448753Y86732D01*
X449016Y86339D01*
X449436Y86102D01*
X449803Y86024D01*
G01X409856Y99409D02*
X411115D01*
G01X410433Y100433D02*
Y98386D01*
G01X414370Y102559D02*
X413950Y102402D01*
X413635Y102008D01*
X413425Y101535D01*
X413268Y100906D01*
X413215Y100197D01*
X413268Y99488D01*
X413425Y98858D01*
X413635Y98386D01*
X413950Y97992D01*
X414370Y97835D01*
X414790Y97992D01*
X415105Y98386D01*
X415315Y98858D01*
X415472Y99488D01*
X415525Y100197D01*
X415472Y100906D01*
X415315Y101535D01*
X415105Y102008D01*
X414790Y102402D01*
X414370Y102559D01*
G01X418307Y97677D02*
X418202Y97756D01*
Y97913D01*
X418307Y97992D01*
X418412Y97913D01*
Y97756D01*
X418307Y97677D01*
G01X422244Y102559D02*
X421824Y102402D01*
X421509Y102008D01*
X421299Y101535D01*
X421142Y100906D01*
X421089Y100197D01*
X421142Y99488D01*
X421299Y98858D01*
X421509Y98386D01*
X421824Y97992D01*
X422244Y97835D01*
X422664Y97992D01*
X422979Y98386D01*
X423189Y98858D01*
X423346Y99488D01*
X423399Y100197D01*
X423346Y100906D01*
X423189Y101535D01*
X422979Y102008D01*
X422664Y102402D01*
X422244Y102559D01*
G01X426181Y97835D02*
X426548Y97913D01*
X426969Y98150D01*
X427231Y98543D01*
X427336Y99094D01*
X427231Y99646D01*
X426916Y100118D01*
X426444Y100354D01*
X425919D01*
X425604Y100512D01*
X425341Y100906D01*
X425236Y101457D01*
X425394Y102008D01*
X425761Y102402D01*
X426181Y102559D01*
X426601Y102402D01*
X426969Y102008D01*
X427126Y101457D01*
X427021Y100906D01*
X426759Y100512D01*
X426444Y100354D01*
X425919D01*
X425446Y100118D01*
X425131Y99646D01*
X425026Y99094D01*
X425131Y98543D01*
X425394Y98150D01*
X425814Y97913D01*
X426181Y97835D01*
G01X429173Y97677D02*
X431063Y102559D01*
G01X433373Y99409D02*
X434737D01*
G01X437992Y102559D02*
X437572Y102402D01*
X437257Y102008D01*
X437047Y101535D01*
X436890Y100906D01*
X436837Y100197D01*
X436890Y99488D01*
X437047Y98858D01*
X437257Y98386D01*
X437572Y97992D01*
X437992Y97835D01*
X438412Y97992D01*
X438727Y98386D01*
X438937Y98858D01*
X439094Y99488D01*
X439147Y100197D01*
X439094Y100906D01*
X438937Y101535D01*
X438727Y102008D01*
X438412Y102402D01*
X437992Y102559D01*
G01X441929Y97677D02*
X441824Y97756D01*
Y97913D01*
X441929Y97992D01*
X442034Y97913D01*
Y97756D01*
X441929Y97677D01*
G01X445866Y102559D02*
X445446Y102402D01*
X445131Y102008D01*
X444921Y101535D01*
X444764Y100906D01*
X444711Y100197D01*
X444764Y99488D01*
X444921Y98858D01*
X445131Y98386D01*
X445446Y97992D01*
X445866Y97835D01*
X446286Y97992D01*
X446601Y98386D01*
X446811Y98858D01*
X446969Y99488D01*
X447021Y100197D01*
X446969Y100906D01*
X446811Y101535D01*
X446601Y102008D01*
X446286Y102402D01*
X445866Y102559D01*
G01X449803Y97835D02*
X450170Y97913D01*
X450591Y98150D01*
X450853Y98543D01*
X450958Y99094D01*
X450853Y99646D01*
X450538Y100118D01*
X450066Y100354D01*
X449541D01*
X449226Y100512D01*
X448963Y100906D01*
X448858Y101457D01*
X449016Y102008D01*
X449383Y102402D01*
X449803Y102559D01*
X450223Y102402D01*
X450591Y102008D01*
X450748Y101457D01*
X450643Y100906D01*
X450381Y100512D01*
X450066Y100354D01*
X449541D01*
X449068Y100118D01*
X448753Y99646D01*
X448648Y99094D01*
X448753Y98543D01*
X449016Y98150D01*
X449436Y97913D01*
X449803Y97835D01*
G01X413793Y123031D02*
X415052D01*
G01X414370Y124055D02*
Y122008D01*
G01X418307Y126181D02*
X417887Y126024D01*
X417572Y125630D01*
X417362Y125157D01*
X417205Y124528D01*
X417152Y123819D01*
X417205Y123110D01*
X417362Y122480D01*
X417572Y122008D01*
X417887Y121614D01*
X418307Y121457D01*
X418727Y121614D01*
X419042Y122008D01*
X419252Y122480D01*
X419409Y123110D01*
X419462Y123819D01*
X419409Y124528D01*
X419252Y125157D01*
X419042Y125630D01*
X418727Y126024D01*
X418307Y126181D01*
G01X422244Y121299D02*
X422139Y121378D01*
Y121535D01*
X422244Y121614D01*
X422349Y121535D01*
Y121378D01*
X422244Y121299D01*
G01X426181Y121457D02*
Y126181D01*
X425551Y125236D01*
G01Y121457D02*
X426811D01*
G01X429173Y121299D02*
X431063Y126181D01*
G01X433373Y123031D02*
X434737D01*
G01X437992Y126181D02*
X437572Y126024D01*
X437257Y125630D01*
X437047Y125157D01*
X436890Y124528D01*
X436837Y123819D01*
X436890Y123110D01*
X437047Y122480D01*
X437257Y122008D01*
X437572Y121614D01*
X437992Y121457D01*
X438412Y121614D01*
X438727Y122008D01*
X438937Y122480D01*
X439094Y123110D01*
X439147Y123819D01*
X439094Y124528D01*
X438937Y125157D01*
X438727Y125630D01*
X438412Y126024D01*
X437992Y126181D01*
G01X441929Y121299D02*
X441824Y121378D01*
Y121535D01*
X441929Y121614D01*
X442034Y121535D01*
Y121378D01*
X441929Y121299D01*
G01X445866Y126181D02*
X445446Y126024D01*
X445131Y125630D01*
X444921Y125157D01*
X444764Y124528D01*
X444711Y123819D01*
X444764Y123110D01*
X444921Y122480D01*
X445131Y122008D01*
X445446Y121614D01*
X445866Y121457D01*
X446286Y121614D01*
X446601Y122008D01*
X446811Y122480D01*
X446969Y123110D01*
X447021Y123819D01*
X446969Y124528D01*
X446811Y125157D01*
X446601Y125630D01*
X446286Y126024D01*
X445866Y126181D01*
G01X409856Y134843D02*
X411115D01*
G01X410433Y135866D02*
Y133819D01*
G01X414370Y137992D02*
X413950Y137835D01*
X413635Y137441D01*
X413425Y136969D01*
X413268Y136339D01*
X413215Y135630D01*
X413268Y134921D01*
X413425Y134291D01*
X413635Y133819D01*
X413950Y133425D01*
X414370Y133268D01*
X414790Y133425D01*
X415105Y133819D01*
X415315Y134291D01*
X415472Y134921D01*
X415525Y135630D01*
X415472Y136339D01*
X415315Y136969D01*
X415105Y137441D01*
X414790Y137835D01*
X414370Y137992D01*
G01X418307Y133110D02*
X418202Y133189D01*
Y133346D01*
X418307Y133425D01*
X418412Y133346D01*
Y133189D01*
X418307Y133110D01*
G01X422244Y137992D02*
X421824Y137835D01*
X421509Y137441D01*
X421299Y136969D01*
X421142Y136339D01*
X421089Y135630D01*
X421142Y134921D01*
X421299Y134291D01*
X421509Y133819D01*
X421824Y133425D01*
X422244Y133268D01*
X422664Y133425D01*
X422979Y133819D01*
X423189Y134291D01*
X423346Y134921D01*
X423399Y135630D01*
X423346Y136339D01*
X423189Y136969D01*
X422979Y137441D01*
X422664Y137835D01*
X422244Y137992D01*
G01X426181Y133268D02*
X426548Y133346D01*
X426969Y133583D01*
X427231Y133976D01*
X427336Y134528D01*
X427231Y135079D01*
X426916Y135551D01*
X426444Y135787D01*
X425919D01*
X425604Y135945D01*
X425341Y136339D01*
X425236Y136890D01*
X425394Y137441D01*
X425761Y137835D01*
X426181Y137992D01*
X426601Y137835D01*
X426969Y137441D01*
X427126Y136890D01*
X427021Y136339D01*
X426759Y135945D01*
X426444Y135787D01*
X425919D01*
X425446Y135551D01*
X425131Y135079D01*
X425026Y134528D01*
X425131Y133976D01*
X425394Y133583D01*
X425814Y133346D01*
X426181Y133268D01*
G01X429173Y133110D02*
X431063Y137992D01*
G01X433373Y134843D02*
X434737D01*
G01X437992Y137992D02*
X437572Y137835D01*
X437257Y137441D01*
X437047Y136969D01*
X436890Y136339D01*
X436837Y135630D01*
X436890Y134921D01*
X437047Y134291D01*
X437257Y133819D01*
X437572Y133425D01*
X437992Y133268D01*
X438412Y133425D01*
X438727Y133819D01*
X438937Y134291D01*
X439094Y134921D01*
X439147Y135630D01*
X439094Y136339D01*
X438937Y136969D01*
X438727Y137441D01*
X438412Y137835D01*
X437992Y137992D01*
G01X441929Y133110D02*
X441824Y133189D01*
Y133346D01*
X441929Y133425D01*
X442034Y133346D01*
Y133189D01*
X441929Y133110D01*
G01X445866Y137992D02*
X445446Y137835D01*
X445131Y137441D01*
X444921Y136969D01*
X444764Y136339D01*
X444711Y135630D01*
X444764Y134921D01*
X444921Y134291D01*
X445131Y133819D01*
X445446Y133425D01*
X445866Y133268D01*
X446286Y133425D01*
X446601Y133819D01*
X446811Y134291D01*
X446969Y134921D01*
X447021Y135630D01*
X446969Y136339D01*
X446811Y136969D01*
X446601Y137441D01*
X446286Y137835D01*
X445866Y137992D01*
G01X449803Y133268D02*
X450170Y133346D01*
X450591Y133583D01*
X450853Y133976D01*
X450958Y134528D01*
X450853Y135079D01*
X450538Y135551D01*
X450066Y135787D01*
X449541D01*
X449226Y135945D01*
X448963Y136339D01*
X448858Y136890D01*
X449016Y137441D01*
X449383Y137835D01*
X449803Y137992D01*
X450223Y137835D01*
X450591Y137441D01*
X450748Y136890D01*
X450643Y136339D01*
X450381Y135945D01*
X450066Y135787D01*
X449541D01*
X449068Y135551D01*
X448753Y135079D01*
X448648Y134528D01*
X448753Y133976D01*
X449016Y133583D01*
X449436Y133346D01*
X449803Y133268D01*
G01X409856Y146654D02*
X411115D01*
G01X410433Y147677D02*
Y145630D01*
G01X414370Y149803D02*
X413950Y149646D01*
X413635Y149252D01*
X413425Y148780D01*
X413268Y148150D01*
X413215Y147441D01*
X413268Y146732D01*
X413425Y146102D01*
X413635Y145630D01*
X413950Y145236D01*
X414370Y145079D01*
X414790Y145236D01*
X415105Y145630D01*
X415315Y146102D01*
X415472Y146732D01*
X415525Y147441D01*
X415472Y148150D01*
X415315Y148780D01*
X415105Y149252D01*
X414790Y149646D01*
X414370Y149803D01*
G01X418307Y144921D02*
X418202Y145000D01*
Y145157D01*
X418307Y145236D01*
X418412Y145157D01*
Y145000D01*
X418307Y144921D01*
G01X422244Y149803D02*
X421824Y149646D01*
X421509Y149252D01*
X421299Y148780D01*
X421142Y148150D01*
X421089Y147441D01*
X421142Y146732D01*
X421299Y146102D01*
X421509Y145630D01*
X421824Y145236D01*
X422244Y145079D01*
X422664Y145236D01*
X422979Y145630D01*
X423189Y146102D01*
X423346Y146732D01*
X423399Y147441D01*
X423346Y148150D01*
X423189Y148780D01*
X422979Y149252D01*
X422664Y149646D01*
X422244Y149803D01*
G01X426181Y145079D02*
X426548Y145157D01*
X426969Y145394D01*
X427231Y145787D01*
X427336Y146339D01*
X427231Y146890D01*
X426916Y147362D01*
X426444Y147598D01*
X425919D01*
X425604Y147756D01*
X425341Y148150D01*
X425236Y148701D01*
X425394Y149252D01*
X425761Y149646D01*
X426181Y149803D01*
X426601Y149646D01*
X426969Y149252D01*
X427126Y148701D01*
X427021Y148150D01*
X426759Y147756D01*
X426444Y147598D01*
X425919D01*
X425446Y147362D01*
X425131Y146890D01*
X425026Y146339D01*
X425131Y145787D01*
X425394Y145394D01*
X425814Y145157D01*
X426181Y145079D01*
G01X429173Y144921D02*
X431063Y149803D01*
G01X433373Y146654D02*
X434737D01*
G01X437992Y149803D02*
X437572Y149646D01*
X437257Y149252D01*
X437047Y148780D01*
X436890Y148150D01*
X436837Y147441D01*
X436890Y146732D01*
X437047Y146102D01*
X437257Y145630D01*
X437572Y145236D01*
X437992Y145079D01*
X438412Y145236D01*
X438727Y145630D01*
X438937Y146102D01*
X439094Y146732D01*
X439147Y147441D01*
X439094Y148150D01*
X438937Y148780D01*
X438727Y149252D01*
X438412Y149646D01*
X437992Y149803D01*
G01X441929Y144921D02*
X441824Y145000D01*
Y145157D01*
X441929Y145236D01*
X442034Y145157D01*
Y145000D01*
X441929Y144921D01*
G01X445866Y149803D02*
X445446Y149646D01*
X445131Y149252D01*
X444921Y148780D01*
X444764Y148150D01*
X444711Y147441D01*
X444764Y146732D01*
X444921Y146102D01*
X445131Y145630D01*
X445446Y145236D01*
X445866Y145079D01*
X446286Y145236D01*
X446601Y145630D01*
X446811Y146102D01*
X446969Y146732D01*
X447021Y147441D01*
X446969Y148150D01*
X446811Y148780D01*
X446601Y149252D01*
X446286Y149646D01*
X445866Y149803D01*
G01X449803Y145079D02*
X450170Y145157D01*
X450591Y145394D01*
X450853Y145787D01*
X450958Y146339D01*
X450853Y146890D01*
X450538Y147362D01*
X450066Y147598D01*
X449541D01*
X449226Y147756D01*
X448963Y148150D01*
X448858Y148701D01*
X449016Y149252D01*
X449383Y149646D01*
X449803Y149803D01*
X450223Y149646D01*
X450591Y149252D01*
X450748Y148701D01*
X450643Y148150D01*
X450381Y147756D01*
X450066Y147598D01*
X449541D01*
X449068Y147362D01*
X448753Y146890D01*
X448648Y146339D01*
X448753Y145787D01*
X449016Y145394D01*
X449436Y145157D01*
X449803Y145079D01*
G01X414370Y172244D02*
Y167520D01*
G01X413163Y172244D02*
X415578D01*
G01X418307Y167520D02*
X417887Y167598D01*
X417520Y167913D01*
X417205Y168386D01*
X416995Y168937D01*
X416890Y169567D01*
Y170197D01*
X416995Y170827D01*
X417205Y171378D01*
X417520Y171850D01*
X417887Y172165D01*
X418307Y172244D01*
X418727Y172165D01*
X419094Y171850D01*
X419409Y171378D01*
X419619Y170827D01*
X419724Y170197D01*
Y169567D01*
X419619Y168937D01*
X419409Y168386D01*
X419094Y167913D01*
X418727Y167598D01*
X418307Y167520D01*
G01X421194Y172244D02*
Y167520D01*
X423294D01*
G01X427231D02*
X425131D01*
Y172244D01*
X427231D01*
G01X426391Y169961D02*
X425131D01*
G01X429068Y167520D02*
Y172244D01*
X430381D01*
X430800Y172008D01*
X431063Y171693D01*
X431168Y171063D01*
X431063Y170433D01*
X430748Y170039D01*
X430381Y169803D01*
X429068D01*
G01X430381D02*
X431168Y167520D01*
G01X432743D02*
X434055Y172244D01*
X435367Y167520D01*
G01X434895Y169173D02*
X433215D01*
G01X436785Y167520D02*
Y172244D01*
X439200Y167520D01*
Y172244D01*
G01X443084Y171850D02*
X442769Y172087D01*
X442402Y172244D01*
X441981D01*
X441509Y172008D01*
X441142Y171614D01*
X440879Y171142D01*
X440669Y170354D01*
X440617Y169646D01*
X440722Y168937D01*
X440879Y168465D01*
X441194Y167992D01*
X441562Y167677D01*
X441929Y167520D01*
X442296D01*
X442664Y167677D01*
X442979Y167913D01*
X443241Y168228D01*
G01X446916Y167520D02*
X444816D01*
Y172244D01*
X446916D01*
G01X446076Y169961D02*
X444816D01*
G01X409856Y158465D02*
X411115D01*
G01X410433Y159488D02*
Y157441D01*
G01X414370Y161614D02*
X413950Y161457D01*
X413635Y161063D01*
X413425Y160591D01*
X413268Y159961D01*
X413215Y159252D01*
X413268Y158543D01*
X413425Y157913D01*
X413635Y157441D01*
X413950Y157047D01*
X414370Y156890D01*
X414790Y157047D01*
X415105Y157441D01*
X415315Y157913D01*
X415472Y158543D01*
X415525Y159252D01*
X415472Y159961D01*
X415315Y160591D01*
X415105Y161063D01*
X414790Y161457D01*
X414370Y161614D01*
G01X418307Y156732D02*
X418202Y156811D01*
Y156969D01*
X418307Y157047D01*
X418412Y156969D01*
Y156811D01*
X418307Y156732D01*
G01X422244Y161614D02*
X421824Y161457D01*
X421509Y161063D01*
X421299Y160591D01*
X421142Y159961D01*
X421089Y159252D01*
X421142Y158543D01*
X421299Y157913D01*
X421509Y157441D01*
X421824Y157047D01*
X422244Y156890D01*
X422664Y157047D01*
X422979Y157441D01*
X423189Y157913D01*
X423346Y158543D01*
X423399Y159252D01*
X423346Y159961D01*
X423189Y160591D01*
X422979Y161063D01*
X422664Y161457D01*
X422244Y161614D01*
G01X426181Y156890D02*
X426548Y156969D01*
X426969Y157205D01*
X427231Y157598D01*
X427336Y158150D01*
X427231Y158701D01*
X426916Y159173D01*
X426444Y159409D01*
X425919D01*
X425604Y159567D01*
X425341Y159961D01*
X425236Y160512D01*
X425394Y161063D01*
X425761Y161457D01*
X426181Y161614D01*
X426601Y161457D01*
X426969Y161063D01*
X427126Y160512D01*
X427021Y159961D01*
X426759Y159567D01*
X426444Y159409D01*
X425919D01*
X425446Y159173D01*
X425131Y158701D01*
X425026Y158150D01*
X425131Y157598D01*
X425394Y157205D01*
X425814Y156969D01*
X426181Y156890D01*
G01X429173Y156732D02*
X431063Y161614D01*
G01X433373Y158465D02*
X434737D01*
G01X437992Y161614D02*
X437572Y161457D01*
X437257Y161063D01*
X437047Y160591D01*
X436890Y159961D01*
X436837Y159252D01*
X436890Y158543D01*
X437047Y157913D01*
X437257Y157441D01*
X437572Y157047D01*
X437992Y156890D01*
X438412Y157047D01*
X438727Y157441D01*
X438937Y157913D01*
X439094Y158543D01*
X439147Y159252D01*
X439094Y159961D01*
X438937Y160591D01*
X438727Y161063D01*
X438412Y161457D01*
X437992Y161614D01*
G01X441929Y156732D02*
X441824Y156811D01*
Y156969D01*
X441929Y157047D01*
X442034Y156969D01*
Y156811D01*
X441929Y156732D01*
G01X445866Y161614D02*
X445446Y161457D01*
X445131Y161063D01*
X444921Y160591D01*
X444764Y159961D01*
X444711Y159252D01*
X444764Y158543D01*
X444921Y157913D01*
X445131Y157441D01*
X445446Y157047D01*
X445866Y156890D01*
X446286Y157047D01*
X446601Y157441D01*
X446811Y157913D01*
X446969Y158543D01*
X447021Y159252D01*
X446969Y159961D01*
X446811Y160591D01*
X446601Y161063D01*
X446286Y161457D01*
X445866Y161614D01*
G01X449803Y156890D02*
X450170Y156969D01*
X450591Y157205D01*
X450853Y157598D01*
X450958Y158150D01*
X450853Y158701D01*
X450538Y159173D01*
X450066Y159409D01*
X449541D01*
X449226Y159567D01*
X448963Y159961D01*
X448858Y160512D01*
X449016Y161063D01*
X449383Y161457D01*
X449803Y161614D01*
X450223Y161457D01*
X450591Y161063D01*
X450748Y160512D01*
X450643Y159961D01*
X450381Y159567D01*
X450066Y159409D01*
X449541D01*
X449068Y159173D01*
X448753Y158701D01*
X448648Y158150D01*
X448753Y157598D01*
X449016Y157205D01*
X449436Y156969D01*
X449803Y156890D01*
G01X469226Y26969D02*
Y31693D01*
X470485D01*
X470906Y31457D01*
X471220Y30906D01*
X471326Y30276D01*
X471220Y29646D01*
X470958Y29173D01*
X470485Y28937D01*
X469226D01*
G01X473163Y31693D02*
Y26969D01*
X475263D01*
G01X476837D02*
X478150Y31693D01*
X479462Y26969D01*
G01X478989Y28622D02*
X477310D01*
G01X482087Y31693D02*
Y26969D01*
G01X480879Y31693D02*
X483294D01*
G01X487074Y26969D02*
X484974D01*
Y31693D01*
X487074D01*
G01X486233Y29409D02*
X484974D01*
G01X488806Y26969D02*
Y31693D01*
X489856D01*
X490276Y31457D01*
X490591Y31142D01*
X490853Y30669D01*
X491063Y30118D01*
X491115Y29331D01*
X491063Y28543D01*
X490853Y27992D01*
X490591Y27520D01*
X490276Y27205D01*
X489856Y26969D01*
X488806D01*
G01X469226Y38780D02*
Y43504D01*
X470485D01*
X470906Y43268D01*
X471220Y42717D01*
X471326Y42087D01*
X471220Y41457D01*
X470958Y40984D01*
X470485Y40748D01*
X469226D01*
G01X473163Y43504D02*
Y38780D01*
X475263D01*
G01X476837D02*
X478150Y43504D01*
X479462Y38780D01*
G01X478989Y40433D02*
X477310D01*
G01X482087Y43504D02*
Y38780D01*
G01X480879Y43504D02*
X483294D01*
G01X487074Y38780D02*
X484974D01*
Y43504D01*
X487074D01*
G01X486233Y41220D02*
X484974D01*
G01X488806Y38780D02*
Y43504D01*
X489856D01*
X490276Y43268D01*
X490591Y42953D01*
X490853Y42480D01*
X491063Y41929D01*
X491115Y41142D01*
X491063Y40354D01*
X490853Y39803D01*
X490591Y39331D01*
X490276Y39016D01*
X489856Y38780D01*
X488806D01*
G01X461194Y50591D02*
Y55315D01*
X463609Y50591D01*
Y55315D01*
G01X466339Y50591D02*
X465919Y50669D01*
X465551Y50984D01*
X465236Y51457D01*
X465026Y52008D01*
X464921Y52638D01*
Y53268D01*
X465026Y53898D01*
X465236Y54449D01*
X465551Y54921D01*
X465919Y55236D01*
X466339Y55315D01*
X466759Y55236D01*
X467126Y54921D01*
X467441Y54449D01*
X467651Y53898D01*
X467756Y53268D01*
Y52638D01*
X467651Y52008D01*
X467441Y51457D01*
X467126Y50984D01*
X466759Y50669D01*
X466339Y50591D01*
G01X469068D02*
Y55315D01*
X471483Y50591D01*
Y55315D01*
G01X473530Y52165D02*
X474895D01*
G01X477100Y50591D02*
Y55315D01*
X478359D01*
X478780Y55079D01*
X479094Y54528D01*
X479200Y53898D01*
X479094Y53268D01*
X478832Y52795D01*
X478359Y52559D01*
X477100D01*
G01X481037Y55315D02*
Y50591D01*
X483137D01*
G01X484711D02*
X486024Y55315D01*
X487336Y50591D01*
G01X486863Y52244D02*
X485184D01*
G01X489961Y55315D02*
Y50591D01*
G01X488753Y55315D02*
X491168D01*
G01X494948Y50591D02*
X492848D01*
Y55315D01*
X494948D01*
G01X494107Y53031D02*
X492848D01*
G01X496680Y50591D02*
Y55315D01*
X497730D01*
X498150Y55079D01*
X498465Y54764D01*
X498727Y54291D01*
X498937Y53740D01*
X498989Y52953D01*
X498937Y52165D01*
X498727Y51614D01*
X498465Y51142D01*
X498150Y50827D01*
X497730Y50591D01*
X496680D01*
G01X461194Y74213D02*
Y78937D01*
X463609Y74213D01*
Y78937D01*
G01X466339Y74213D02*
X465919Y74291D01*
X465551Y74606D01*
X465236Y75079D01*
X465026Y75630D01*
X464921Y76260D01*
Y76890D01*
X465026Y77520D01*
X465236Y78071D01*
X465551Y78543D01*
X465919Y78858D01*
X466339Y78937D01*
X466759Y78858D01*
X467126Y78543D01*
X467441Y78071D01*
X467651Y77520D01*
X467756Y76890D01*
Y76260D01*
X467651Y75630D01*
X467441Y75079D01*
X467126Y74606D01*
X466759Y74291D01*
X466339Y74213D01*
G01X469068D02*
Y78937D01*
X471483Y74213D01*
Y78937D01*
G01X473530Y75787D02*
X474895D01*
G01X477100Y74213D02*
Y78937D01*
X478359D01*
X478780Y78701D01*
X479094Y78150D01*
X479200Y77520D01*
X479094Y76890D01*
X478832Y76417D01*
X478359Y76181D01*
X477100D01*
G01X481037Y78937D02*
Y74213D01*
X483137D01*
G01X484711D02*
X486024Y78937D01*
X487336Y74213D01*
G01X486863Y75866D02*
X485184D01*
G01X489961Y78937D02*
Y74213D01*
G01X488753Y78937D02*
X491168D01*
G01X494948Y74213D02*
X492848D01*
Y78937D01*
X494948D01*
G01X494107Y76654D02*
X492848D01*
G01X496680Y74213D02*
Y78937D01*
X497730D01*
X498150Y78701D01*
X498465Y78386D01*
X498727Y77913D01*
X498937Y77362D01*
X498989Y76575D01*
X498937Y75787D01*
X498727Y75236D01*
X498465Y74764D01*
X498150Y74449D01*
X497730Y74213D01*
X496680D01*
G01X461194Y62402D02*
Y67126D01*
X463609Y62402D01*
Y67126D01*
G01X466339Y62402D02*
X465919Y62480D01*
X465551Y62795D01*
X465236Y63268D01*
X465026Y63819D01*
X464921Y64449D01*
Y65079D01*
X465026Y65709D01*
X465236Y66260D01*
X465551Y66732D01*
X465919Y67047D01*
X466339Y67126D01*
X466759Y67047D01*
X467126Y66732D01*
X467441Y66260D01*
X467651Y65709D01*
X467756Y65079D01*
Y64449D01*
X467651Y63819D01*
X467441Y63268D01*
X467126Y62795D01*
X466759Y62480D01*
X466339Y62402D01*
G01X469068D02*
Y67126D01*
X471483Y62402D01*
Y67126D01*
G01X473530Y63976D02*
X474895D01*
G01X477100Y62402D02*
Y67126D01*
X478359D01*
X478780Y66890D01*
X479094Y66339D01*
X479200Y65709D01*
X479094Y65079D01*
X478832Y64606D01*
X478359Y64370D01*
X477100D01*
G01X481037Y67126D02*
Y62402D01*
X483137D01*
G01X484711D02*
X486024Y67126D01*
X487336Y62402D01*
G01X486863Y64055D02*
X485184D01*
G01X489961Y67126D02*
Y62402D01*
G01X488753Y67126D02*
X491168D01*
G01X494948Y62402D02*
X492848D01*
Y67126D01*
X494948D01*
G01X494107Y64843D02*
X492848D01*
G01X496680Y62402D02*
Y67126D01*
X497730D01*
X498150Y66890D01*
X498465Y66575D01*
X498727Y66102D01*
X498937Y65551D01*
X498989Y64764D01*
X498937Y63976D01*
X498727Y63425D01*
X498465Y62953D01*
X498150Y62638D01*
X497730Y62402D01*
X496680D01*
G01X469226Y86024D02*
Y90748D01*
X470485D01*
X470906Y90512D01*
X471220Y89961D01*
X471326Y89331D01*
X471220Y88701D01*
X470958Y88228D01*
X470485Y87992D01*
X469226D01*
G01X473163Y90748D02*
Y86024D01*
X475263D01*
G01X476837D02*
X478150Y90748D01*
X479462Y86024D01*
G01X478989Y87677D02*
X477310D01*
G01X482087Y90748D02*
Y86024D01*
G01X480879Y90748D02*
X483294D01*
G01X487074Y86024D02*
X484974D01*
Y90748D01*
X487074D01*
G01X486233Y88465D02*
X484974D01*
G01X488806Y86024D02*
Y90748D01*
X489856D01*
X490276Y90512D01*
X490591Y90197D01*
X490853Y89724D01*
X491063Y89173D01*
X491115Y88386D01*
X491063Y87598D01*
X490853Y87047D01*
X490591Y86575D01*
X490276Y86260D01*
X489856Y86024D01*
X488806D01*
G01X469226Y97835D02*
Y102559D01*
X470485D01*
X470906Y102323D01*
X471220Y101772D01*
X471326Y101142D01*
X471220Y100512D01*
X470958Y100039D01*
X470485Y99803D01*
X469226D01*
G01X473163Y102559D02*
Y97835D01*
X475263D01*
G01X476837D02*
X478150Y102559D01*
X479462Y97835D01*
G01X478989Y99488D02*
X477310D01*
G01X482087Y102559D02*
Y97835D01*
G01X480879Y102559D02*
X483294D01*
G01X487074Y97835D02*
X484974D01*
Y102559D01*
X487074D01*
G01X486233Y100276D02*
X484974D01*
G01X488806Y97835D02*
Y102559D01*
X489856D01*
X490276Y102323D01*
X490591Y102008D01*
X490853Y101535D01*
X491063Y100984D01*
X491115Y100197D01*
X491063Y99409D01*
X490853Y98858D01*
X490591Y98386D01*
X490276Y98071D01*
X489856Y97835D01*
X488806D01*
G01X469226Y121457D02*
Y126181D01*
X470485D01*
X470906Y125945D01*
X471220Y125394D01*
X471326Y124764D01*
X471220Y124134D01*
X470958Y123661D01*
X470485Y123425D01*
X469226D01*
G01X473163Y126181D02*
Y121457D01*
X475263D01*
G01X476837D02*
X478150Y126181D01*
X479462Y121457D01*
G01X478989Y123110D02*
X477310D01*
G01X482087Y126181D02*
Y121457D01*
G01X480879Y126181D02*
X483294D01*
G01X487074Y121457D02*
X484974D01*
Y126181D01*
X487074D01*
G01X486233Y123898D02*
X484974D01*
G01X488806Y121457D02*
Y126181D01*
X489856D01*
X490276Y125945D01*
X490591Y125630D01*
X490853Y125157D01*
X491063Y124606D01*
X491115Y123819D01*
X491063Y123031D01*
X490853Y122480D01*
X490591Y122008D01*
X490276Y121693D01*
X489856Y121457D01*
X488806D01*
G01X469226Y109646D02*
Y114370D01*
X470485D01*
X470906Y114134D01*
X471220Y113583D01*
X471326Y112953D01*
X471220Y112323D01*
X470958Y111850D01*
X470485Y111614D01*
X469226D01*
G01X473163Y114370D02*
Y109646D01*
X475263D01*
G01X476837D02*
X478150Y114370D01*
X479462Y109646D01*
G01X478989Y111299D02*
X477310D01*
G01X482087Y114370D02*
Y109646D01*
G01X480879Y114370D02*
X483294D01*
G01X487074Y109646D02*
X484974D01*
Y114370D01*
X487074D01*
G01X486233Y112087D02*
X484974D01*
G01X488806Y109646D02*
Y114370D01*
X489856D01*
X490276Y114134D01*
X490591Y113819D01*
X490853Y113346D01*
X491063Y112795D01*
X491115Y112008D01*
X491063Y111220D01*
X490853Y110669D01*
X490591Y110197D01*
X490276Y109882D01*
X489856Y109646D01*
X488806D01*
G01X469226Y133268D02*
Y137992D01*
X470485D01*
X470906Y137756D01*
X471220Y137205D01*
X471326Y136575D01*
X471220Y135945D01*
X470958Y135472D01*
X470485Y135236D01*
X469226D01*
G01X473163Y137992D02*
Y133268D01*
X475263D01*
G01X476837D02*
X478150Y137992D01*
X479462Y133268D01*
G01X478989Y134921D02*
X477310D01*
G01X482087Y137992D02*
Y133268D01*
G01X480879Y137992D02*
X483294D01*
G01X487074Y133268D02*
X484974D01*
Y137992D01*
X487074D01*
G01X486233Y135709D02*
X484974D01*
G01X488806Y133268D02*
Y137992D01*
X489856D01*
X490276Y137756D01*
X490591Y137441D01*
X490853Y136969D01*
X491063Y136417D01*
X491115Y135630D01*
X491063Y134843D01*
X490853Y134291D01*
X490591Y133819D01*
X490276Y133504D01*
X489856Y133268D01*
X488806D01*
G01X469226Y145079D02*
Y149803D01*
X470485D01*
X470906Y149567D01*
X471220Y149016D01*
X471326Y148386D01*
X471220Y147756D01*
X470958Y147283D01*
X470485Y147047D01*
X469226D01*
G01X473163Y149803D02*
Y145079D01*
X475263D01*
G01X476837D02*
X478150Y149803D01*
X479462Y145079D01*
G01X478989Y146732D02*
X477310D01*
G01X482087Y149803D02*
Y145079D01*
G01X480879Y149803D02*
X483294D01*
G01X487074Y145079D02*
X484974D01*
Y149803D01*
X487074D01*
G01X486233Y147520D02*
X484974D01*
G01X488806Y145079D02*
Y149803D01*
X489856D01*
X490276Y149567D01*
X490591Y149252D01*
X490853Y148780D01*
X491063Y148228D01*
X491115Y147441D01*
X491063Y146654D01*
X490853Y146102D01*
X490591Y145630D01*
X490276Y145315D01*
X489856Y145079D01*
X488806D01*
G01X469226Y167520D02*
Y172244D01*
X470485D01*
X470906Y172008D01*
X471220Y171457D01*
X471326Y170827D01*
X471220Y170197D01*
X470958Y169724D01*
X470485Y169488D01*
X469226D01*
G01X473163Y172244D02*
Y167520D01*
X475263D01*
G01X476837D02*
X478150Y172244D01*
X479462Y167520D01*
G01X478989Y169173D02*
X477310D01*
G01X482087Y172244D02*
Y167520D01*
G01X480879Y172244D02*
X483294D01*
G01X487074Y167520D02*
X484974D01*
Y172244D01*
X487074D01*
G01X486233Y169961D02*
X484974D01*
G01X488806Y167520D02*
Y172244D01*
X489856D01*
X490276Y172008D01*
X490591Y171693D01*
X490853Y171220D01*
X491063Y170669D01*
X491115Y169882D01*
X491063Y169094D01*
X490853Y168543D01*
X490591Y168071D01*
X490276Y167756D01*
X489856Y167520D01*
X488806D01*
G01X469226Y156890D02*
Y161614D01*
X470485D01*
X470906Y161378D01*
X471220Y160827D01*
X471326Y160197D01*
X471220Y159567D01*
X470958Y159094D01*
X470485Y158858D01*
X469226D01*
G01X473163Y161614D02*
Y156890D01*
X475263D01*
G01X476837D02*
X478150Y161614D01*
X479462Y156890D01*
G01X478989Y158543D02*
X477310D01*
G01X482087Y161614D02*
Y156890D01*
G01X480879Y161614D02*
X483294D01*
G01X487074Y156890D02*
X484974D01*
Y161614D01*
X487074D01*
G01X486233Y159331D02*
X484974D01*
G01X488806Y156890D02*
Y161614D01*
X489856D01*
X490276Y161378D01*
X490591Y161063D01*
X490853Y160591D01*
X491063Y160039D01*
X491115Y159252D01*
X491063Y158465D01*
X490853Y157913D01*
X490591Y157441D01*
X490276Y157126D01*
X489856Y156890D01*
X488806D01*
G01X511404Y30906D02*
X511719Y31378D01*
X512087Y31614D01*
X512507Y31693D01*
X513031Y31535D01*
X513399Y31142D01*
X513504Y30669D01*
X513452Y30197D01*
X513241Y29803D01*
X512192Y29016D01*
X511719Y28465D01*
X511404Y27677D01*
X511299Y26969D01*
X513504D01*
G01X511404Y42717D02*
X511719Y43189D01*
X512087Y43425D01*
X512507Y43504D01*
X513031Y43346D01*
X513399Y42953D01*
X513504Y42480D01*
X513452Y42008D01*
X513241Y41614D01*
X512192Y40827D01*
X511719Y40276D01*
X511404Y39488D01*
X511299Y38780D01*
X513504D01*
G01X511404Y54528D02*
X511719Y55000D01*
X512087Y55236D01*
X512507Y55315D01*
X513031Y55157D01*
X513399Y54764D01*
X513504Y54291D01*
X513452Y53819D01*
X513241Y53425D01*
X512192Y52638D01*
X511719Y52087D01*
X511404Y51299D01*
X511299Y50591D01*
X513504D01*
G01X512402Y74213D02*
Y78937D01*
X511772Y77992D01*
G01Y74213D02*
X513031D01*
G01X511247Y63346D02*
X511562Y62795D01*
X511981Y62480D01*
X512454Y62402D01*
X512874Y62480D01*
X513294Y62874D01*
X513556Y63346D01*
X513609Y63819D01*
X513504Y64370D01*
X513137Y64764D01*
X512769Y64921D01*
X512296D01*
G01X512769D02*
X513084Y65157D01*
X513346Y65551D01*
X513452Y66024D01*
X513346Y66496D01*
X513084Y66890D01*
X512611Y67126D01*
X512139Y67047D01*
X511667Y66732D01*
G01X511247Y86969D02*
X511562Y86417D01*
X511981Y86102D01*
X512454Y86024D01*
X512874Y86102D01*
X513294Y86496D01*
X513556Y86969D01*
X513609Y87441D01*
X513504Y87992D01*
X513137Y88386D01*
X512769Y88543D01*
X512296D01*
G01X512769D02*
X513084Y88780D01*
X513346Y89173D01*
X513452Y89646D01*
X513346Y90118D01*
X513084Y90512D01*
X512611Y90748D01*
X512139Y90669D01*
X511667Y90354D01*
G01X511404Y99803D02*
X511772Y100354D01*
X512087Y100669D01*
X512507Y100827D01*
X512874Y100669D01*
X513137Y100354D01*
X513346Y99882D01*
X513399Y99331D01*
X513346Y98858D01*
X513137Y98386D01*
X512822Y97992D01*
X512454Y97835D01*
X512034Y97992D01*
X511667Y98465D01*
X511457Y99173D01*
X511404Y99961D01*
X511509Y100984D01*
X511667Y101535D01*
X511929Y102087D01*
X512296Y102480D01*
X512664Y102559D01*
X513031Y102402D01*
X513294Y102008D01*
G01X509278Y122402D02*
X509593Y121850D01*
X510013Y121535D01*
X510485Y121457D01*
X510906Y121535D01*
X511326Y121929D01*
X511588Y122402D01*
X511641Y122874D01*
X511535Y123425D01*
X511168Y123819D01*
X510800Y123976D01*
X510328D01*
G01X510800D02*
X511115Y124213D01*
X511378Y124606D01*
X511483Y125079D01*
X511378Y125551D01*
X511115Y125945D01*
X510643Y126181D01*
X510170Y126102D01*
X509698Y125787D01*
G01X513373Y125394D02*
X513688Y125866D01*
X514055Y126102D01*
X514475Y126181D01*
X515000Y126024D01*
X515367Y125630D01*
X515472Y125157D01*
X515420Y124685D01*
X515210Y124291D01*
X514160Y123504D01*
X513688Y122953D01*
X513373Y122165D01*
X513268Y121457D01*
X515472D01*
G01X512402Y109646D02*
X512769Y109724D01*
X513189Y109961D01*
X513452Y110354D01*
X513556Y110906D01*
X513452Y111457D01*
X513137Y111929D01*
X512664Y112165D01*
X512139D01*
X511824Y112323D01*
X511562Y112717D01*
X511457Y113268D01*
X511614Y113819D01*
X511981Y114213D01*
X512402Y114370D01*
X512822Y114213D01*
X513189Y113819D01*
X513346Y113268D01*
X513241Y112717D01*
X512979Y112323D01*
X512664Y112165D01*
X512139D01*
X511667Y111929D01*
X511352Y111457D01*
X511247Y110906D01*
X511352Y110354D01*
X511614Y109961D01*
X512034Y109724D01*
X512402Y109646D01*
G01X509436Y137205D02*
X509751Y137677D01*
X510118Y137913D01*
X510538Y137992D01*
X511063Y137835D01*
X511430Y137441D01*
X511535Y136969D01*
X511483Y136496D01*
X511273Y136102D01*
X510223Y135315D01*
X509751Y134764D01*
X509436Y133976D01*
X509331Y133268D01*
X511535D01*
G01X514370D02*
Y137992D01*
X513740Y137047D01*
G01Y133268D02*
X515000D01*
G01X509436Y147047D02*
X509803Y147598D01*
X510118Y147913D01*
X510538Y148071D01*
X510906Y147913D01*
X511168Y147598D01*
X511378Y147126D01*
X511430Y146575D01*
X511378Y146102D01*
X511168Y145630D01*
X510853Y145236D01*
X510485Y145079D01*
X510066Y145236D01*
X509698Y145709D01*
X509488Y146417D01*
X509436Y147205D01*
X509541Y148228D01*
X509698Y148780D01*
X509961Y149331D01*
X510328Y149724D01*
X510696Y149803D01*
X511063Y149646D01*
X511326Y149252D01*
G01X513215Y145787D02*
X513530Y145394D01*
X513898Y145157D01*
X514370Y145079D01*
X514843Y145236D01*
X515210Y145551D01*
X515472Y146102D01*
X515525Y146732D01*
X515420Y147362D01*
X515157Y147756D01*
X514790Y148071D01*
X514422Y148150D01*
X514055Y148071D01*
X513583Y147756D01*
X513740Y149803D01*
X515157D01*
G01X508465Y167520D02*
X508044Y167598D01*
X507677Y167913D01*
X507362Y168386D01*
X507152Y168937D01*
X507047Y169567D01*
Y170197D01*
X507152Y170827D01*
X507362Y171378D01*
X507677Y171850D01*
X508044Y172165D01*
X508465Y172244D01*
X508885Y172165D01*
X509252Y171850D01*
X509567Y171378D01*
X509777Y170827D01*
X509882Y170197D01*
Y169567D01*
X509777Y168937D01*
X509567Y168386D01*
X509252Y167913D01*
X508885Y167598D01*
X508465Y167520D01*
G01X508885Y168780D02*
X509515Y167520D01*
G01X512402Y172244D02*
Y167520D01*
G01X511194Y172244D02*
X513609D01*
G01X516339Y167520D02*
Y169646D01*
X515289Y172244D01*
G01X517389D02*
X516339Y169646D01*
G01X507310Y157835D02*
X507625Y157283D01*
X508044Y156969D01*
X508517Y156890D01*
X508937Y156969D01*
X509357Y157362D01*
X509619Y157835D01*
X509672Y158307D01*
X509567Y158858D01*
X509200Y159252D01*
X508832Y159409D01*
X508359D01*
G01X508832D02*
X509147Y159646D01*
X509409Y160039D01*
X509515Y160512D01*
X509409Y160984D01*
X509147Y161378D01*
X508674Y161614D01*
X508202Y161535D01*
X507730Y161220D01*
G01X513031Y156890D02*
Y161614D01*
X511089Y158228D01*
X513714D01*
G01X516969Y156890D02*
Y161614D01*
X515026Y158228D01*
X517651D01*
G54D13*
X24606Y32700D03*
X33661Y19708D03*
Y45692D03*
X326181Y88386D03*
G54D23*
G01X312008Y23425D02*
Y209646D01*
X524606D01*
Y23425D01*
X312008D01*
G01Y35236D02*
X524606D01*
G01X312008Y47047D02*
X524606D01*
G01X312008Y70669D02*
X524606D01*
G01X312008Y58858D02*
X524606D01*
G01X312008Y82480D02*
X524606D01*
G01X312008Y94291D02*
X524606D01*
G01X312008Y117913D02*
X524606D01*
G01X312008Y106102D02*
X524606D01*
G01X312008Y129724D02*
X524606D01*
G01X312008Y141535D02*
X524606D01*
G01X312008Y165157D02*
X524606D01*
G01X312008Y153346D02*
X524606D01*
G01X312008Y184055D02*
X524606D01*
G01X312008Y174606D02*
X524606D01*
G01X340354D02*
Y23425D01*
G01X400197Y174606D02*
Y23425D01*
G01X460039Y174606D02*
Y23425D01*
G01X500197Y174606D02*
Y23425D01*
G54D14*
X16339Y80010D03*
Y99695D03*
X326181Y41142D03*
G54D15*
X19606Y133268D03*
Y177756D03*
X326181Y52953D03*
G54D16*
X30413Y67913D03*
X30512Y71850D03*
X29232Y78740D03*
X38583Y102854D03*
X34449Y93898D03*
X37205Y94685D03*
X28248Y120472D03*
X50197Y66142D03*
X45472Y70768D03*
X46850Y105709D03*
Y108858D03*
X44685Y116732D03*
Y126575D03*
X48091Y184980D03*
X46457Y182480D03*
X62992Y66929D03*
X73858Y66991D03*
X58858Y62205D03*
X71016Y66728D03*
X75091Y63993D03*
X80157Y65748D03*
X90551Y79724D03*
X85630D03*
X80709D03*
X90551Y84646D03*
X85630D03*
X80709D03*
Y89567D03*
X85630D03*
X90551D03*
Y99409D03*
Y94488D03*
X85630Y99409D03*
X80709D03*
X85630Y94488D03*
X80709D03*
X83268Y182480D03*
X90354Y177953D03*
X103740Y60531D03*
X105118Y72441D03*
X96063Y68701D03*
X100394Y79724D03*
X95472D03*
X100394Y84646D03*
X95472D03*
X100394Y89567D03*
X95472D03*
X100394Y99409D03*
X95472D03*
X100394Y94488D03*
X95472D03*
X102185Y138878D03*
Y163878D03*
X92717Y182087D03*
X112500Y40354D03*
X111614Y49508D03*
X114469Y45768D03*
X107766Y66336D03*
X116339Y71063D03*
X115157Y58858D03*
X115161Y66647D03*
X120079Y68701D03*
X112402Y79035D03*
X120472Y104134D03*
X113780D03*
X117126D03*
X113189Y113189D03*
X112598Y117402D03*
X113386Y121654D03*
X121417Y133031D03*
X114492Y137008D03*
X108181Y123819D03*
X117824Y133415D03*
X119291Y168110D03*
X113583Y167913D03*
X113076Y160486D03*
X115945Y181890D03*
X119488D03*
X114370Y172190D03*
X123743Y76161D03*
X138165Y90008D03*
X124409Y78937D03*
X136393Y98177D03*
X131496Y91584D03*
X137968Y102117D03*
X125007Y95774D03*
X124803Y98621D03*
X125126Y101457D03*
X129724Y104331D03*
X123425Y92717D03*
X127559Y90945D03*
X127067Y122047D03*
X128937Y115157D03*
X136614Y114665D03*
X133858Y119094D03*
X135925Y136417D03*
Y131693D03*
X138189Y123130D03*
X125518Y137662D03*
X127461Y126969D03*
X125000Y125394D03*
X125977Y129407D03*
X135925Y128543D03*
X136811Y147638D03*
X126883Y140169D03*
X136417Y143701D03*
X128227Y150174D03*
X136220Y140551D03*
X126772Y152756D03*
X133661Y163780D03*
X129331Y166929D03*
X124311Y162890D03*
X125000Y169882D03*
X128397Y164231D03*
X130118Y177559D03*
X126378Y181693D03*
X153642Y44882D03*
X138559Y85972D03*
X152362Y87795D03*
X151326Y83468D03*
X151452Y96209D03*
X144882Y103543D03*
X153098Y98768D03*
X144291Y110433D03*
X149213Y114665D03*
X142913D03*
X146063D03*
X150787Y123130D03*
X138780Y133858D03*
X147638Y123130D03*
X141339D03*
X149409Y127756D03*
X141732Y126969D03*
X143110Y142520D03*
X141606Y147233D03*
X146260Y144291D03*
X139173Y163976D03*
X140157Y181693D03*
X163587Y37096D03*
X169020Y32089D03*
X167620Y37206D03*
X168307Y46063D03*
X161024Y44488D03*
X159744Y56791D03*
X164956Y65743D03*
X162008Y73720D03*
Y70866D03*
X164847Y74018D03*
X160236Y64961D03*
X154486Y89703D03*
X164292Y76818D03*
X162795Y79331D03*
X158352Y83577D03*
X163583Y85630D03*
X165157Y92913D03*
X154242Y95389D03*
X156978Y94574D03*
X164370Y97441D03*
X169882Y110728D03*
X157317Y114561D03*
X159055Y127362D03*
X158563Y131004D03*
X156693Y135827D03*
X159646Y136220D03*
X161032Y138716D03*
X154764Y161850D03*
X164567Y155610D03*
X163976Y167421D03*
X158071Y166929D03*
X167520Y167421D03*
X154961Y157992D03*
X168307Y173622D03*
X162992Y175787D03*
X165331Y174150D03*
X178937Y36220D03*
X184055Y40157D03*
X179626Y40453D03*
X173228Y28150D03*
X183858Y64173D03*
X173778Y81991D03*
X181102Y78937D03*
X177557Y86809D03*
X175548Y88838D03*
X173622Y84843D03*
X176575Y104724D03*
X173622Y90945D03*
X173551Y94882D03*
X172287Y117365D03*
X173425Y110728D03*
X181102Y121654D03*
X173974Y135474D03*
X174213Y128150D03*
X184449Y129134D03*
X170447Y135578D03*
X175000Y142500D03*
X170500Y145000D03*
X170866Y155610D03*
X182283Y171654D03*
X189587Y21437D03*
X194024Y54848D03*
X188118Y43627D03*
X196260Y52682D03*
X186150Y52780D03*
X196850Y56496D03*
X200197Y54724D03*
X189567Y54331D03*
X196457Y70079D03*
X193739Y69204D03*
X186703Y64411D03*
X192410Y66678D03*
X198562Y81706D03*
X198557Y89764D03*
X198423Y76994D03*
X201772Y80512D03*
X193504Y78937D03*
X195571Y76870D03*
X189944Y105438D03*
X196579Y101224D03*
X201604Y105438D03*
X186800Y99411D03*
X192913Y99409D03*
X189647Y99198D03*
X197598Y117520D03*
X190087Y114047D03*
X195039Y134843D03*
X190354Y128150D03*
X193307Y125984D03*
X194882Y123031D03*
X198819Y128543D03*
X197441Y147244D03*
X211220Y41339D03*
X217350Y37178D03*
X213709Y52780D03*
X211089Y56758D03*
X203740Y55512D03*
X207803Y54402D03*
X210997Y53905D03*
X205709Y74409D03*
X215871Y73942D03*
X207502Y89567D03*
X203740Y78150D03*
X212008Y82874D03*
X210236Y85433D03*
X216806Y79060D03*
X207744Y102868D03*
X211567Y96110D03*
X208465Y95276D03*
X214883Y93327D03*
X215748Y105315D03*
X204724Y100787D03*
X205752Y113706D03*
X202860Y113872D03*
X215945Y114370D03*
X213386Y121457D03*
X212269Y118136D03*
X209617Y117080D03*
X205118Y135236D03*
X217717Y125984D03*
X217323Y146063D03*
X215157Y162992D03*
X202559Y163976D03*
X216929Y182945D03*
X230709Y34665D03*
X222840Y69117D03*
X224769Y71221D03*
X219220Y72737D03*
X220398Y77091D03*
X225910Y82997D03*
X230512Y105315D03*
X225861Y92839D03*
X218110Y95669D03*
X230354Y109803D03*
X230945Y114803D03*
X231181Y119803D03*
X229331Y124803D03*
X219659Y131573D03*
X222835Y130821D03*
X230906Y135236D03*
X232015Y127237D03*
X226378Y183071D03*
X219614Y180976D03*
X222291Y178740D03*
X237402Y38425D03*
X248138Y48425D03*
X233957Y43841D03*
X239370Y49508D03*
X235236Y53150D03*
X245866Y67126D03*
X235236Y62992D03*
X239124Y64665D03*
X243110Y67913D03*
X234733Y68169D03*
X237246Y66815D03*
X248425Y85827D03*
X237402Y82087D03*
X238872Y79232D03*
X243715Y81541D03*
X234575Y79346D03*
X245656Y85134D03*
X245669Y75984D03*
X244489Y104724D03*
X244488Y101870D03*
X239829Y95866D03*
X237002Y95471D03*
X234843Y167913D03*
X241142Y187795D03*
X263583Y19291D03*
X250787Y21457D03*
X250986Y48228D03*
X253346Y55118D03*
X253543Y61811D03*
X250984Y71654D03*
X255118Y70866D03*
X252711Y77657D03*
X255709Y86811D03*
X262795Y86220D03*
X251378Y87008D03*
X252756Y128150D03*
X281299Y10039D03*
X271654Y42126D03*
X276983Y37022D03*
X276969Y45276D03*
X280512Y72441D03*
X279528Y86417D03*
X277144Y96829D03*
X276575Y100844D03*
Y121457D03*
X276378Y139370D03*
X271161Y176476D03*
X265748Y171063D03*
X292421Y38583D03*
X289653Y57286D03*
X290748Y43898D03*
X287795Y70276D03*
X290945Y70079D03*
X292913Y87992D03*
X291535Y84055D03*
X292520Y105000D03*
X281596Y125467D03*
X290524Y125564D03*
X289764Y188386D03*
X299409Y10039D03*
X299606Y75394D03*
X299409Y140748D03*
X326181Y159252D03*
G54D17*
X60118Y138031D03*
X50118Y143031D03*
X60118Y148031D03*
X50118Y153031D03*
X60118Y158031D03*
X50118Y163031D03*
X60118Y168031D03*
X50118Y173031D03*
X326181Y112008D03*
G54D18*
X60000Y200000D03*
X260000Y30000D03*
Y140000D03*
X326181Y64764D03*
G54D19*
X74000Y200000D03*
X84000D03*
X94000D03*
X104000D03*
X120000Y10000D03*
X110000D03*
X114000Y200000D03*
X124000D03*
X140000Y10000D03*
X130000D03*
X134000Y200000D03*
X150000Y10000D03*
X144000Y200000D03*
X154000D03*
X170000Y10000D03*
X160000D03*
X164000Y200000D03*
X180000Y10000D03*
Y200000D03*
X200000Y10000D03*
X190000Y200000D03*
X200000D03*
X220000Y10000D03*
X210000D03*
Y200000D03*
X220000D03*
X230000Y10000D03*
Y200000D03*
X250000Y10000D03*
X240000D03*
Y200000D03*
X250000D03*
X326181Y123819D03*
M02*
