G04 ================== begin FILE IDENTIFICATION RECORD ==================*
G04 Layout Name:  Netduino3Ethernet_17Dec16.brd*
G04 Film Name:    SILKS_BOT*
G04 File Format:  Gerber RS274X*
G04 File Origin:  Cadence Allegro 16.6-2015-S069*
G04 Origin Date:  Sat Dec 17 09:35:35 2016*
G04 *
G04 Layer:  REF DES/SILKSCREEN_BOTTOM*
G04 Layer:  PACKAGE GEOMETRY/SILKSCREEN_BOTTOM*
G04 Layer:  BOARD GEOMETRY/SILKSCREEN_BOTTOM*
G04 *
G04 Offset:    (0.0000 0.0000)*
G04 Mirror:    No*
G04 Mode:      Positive*
G04 Rotation:  0*
G04 FullContactRelief:  No*
G04 UndefLineWidth:     0.1270*
G04 ================== end FILE IDENTIFICATION RECORD ====================*
%FSLAX25Y25*MOIN*%
%IR0*IPPOS*OFA0.00000B0.00000*MIA0B0*SFA1.00000B1.00000*%
%ADD10C,.009843*%
%ADD11C,.002079*%
G75*
%LPD*%
G75*
G54D10*
G01X242618Y124567D02*
G03I-492J0D01*
G54D11*
G01X73906Y170208D02*
X73561Y167811D01*
G01X72628Y161990D02*
X71192D01*
G01X73561Y167811D02*
X72628Y161990D01*
G01X72259Y168817D02*
X72367Y169562D01*
G01X72072Y167435D02*
X72259Y168817D01*
G01X72013Y166950D02*
X72072Y167435D01*
G01X71928Y166134D02*
X72013Y166950D01*
G01X71883Y165560D02*
X71928Y166134D01*
G01X71847Y165919D02*
X71883Y165560D01*
G01X71820Y166170D02*
X71847Y165919D01*
G01X71744Y167090D02*
X71820Y166170D01*
G01X71703Y167489D02*
X71744Y167090D01*
G01X71515Y168817D02*
X71703Y167489D01*
G01X71416Y169535D02*
X71515Y168817D01*
G01X66456Y161990D02*
X68851Y175842D01*
G01X69200Y168422D02*
X68259Y161990D01*
G01X69353Y169373D02*
X69200Y168422D01*
G01X70196Y167983D02*
X69931Y169804D01*
G01X71192Y161990D02*
X70196Y167983D01*
G01X68259Y161990D02*
X66456D01*
G01X72412Y169857D02*
X73390Y175842D01*
G01X72367Y169562D02*
X72412Y169857D01*
G01X71363D02*
X71416Y169535D01*
G01X69515Y170782D02*
X69353Y169373D01*
G01X69931Y169804D02*
X69704Y171965D01*
G01X70348Y175842D02*
X71363Y169857D01*
G01X73390Y175842D02*
X74844D01*
G01X69613Y171957D02*
X69515Y170782D01*
G01X69631Y172118D02*
X69613Y171957D01*
G01X69657Y172414D02*
X69631Y172118D01*
G01X69704Y171965D02*
X69657Y172414D01*
G01X68851Y175842D02*
X70348D01*
G01X97741Y120264D02*
X85191Y150485D01*
G01X86346Y152485D02*
X98486Y152483D01*
G01X86347Y152486D02*
G03X85297Y151863I124J-1406D01*
G01D02*
G03X85191Y150485I1593J-815D01*
G01X74574Y168332D02*
X74337Y170270D01*
G01X74844Y175842D02*
X77292Y161990D01*
G01X74709Y167409D02*
X74574Y168332D01*
G01X75507Y161990D02*
X74709Y167409D01*
G01X77292Y161990D02*
X75507D01*
G01X81741Y175842D02*
Y161990D01*
G01X85365D02*
Y175842D01*
G01X87231Y174263D02*
Y161990D01*
G01D02*
X85365D01*
G01X79875D02*
Y175842D01*
G01X81741Y161990D02*
X79875D01*
G01X74135Y172316D02*
X73906Y170208D01*
G01X74337Y170270D02*
X74135Y172316D01*
G01X90282Y174263D02*
X87231D01*
G01X85365Y175842D02*
X90282D01*
G01X79875D02*
X81741D01*
G01X87197Y184826D02*
X86902Y185110D01*
G01X87197Y184827D02*
G03X89302Y184124I2038J2602D01*
G01Y184123D02*
G03X91695Y185110I142J3051D01*
G01X86002Y187786D02*
Y192010D01*
G01X86025Y187251D02*
X86002Y187786D01*
G01X86025Y187251D02*
G03X86901Y185110I3541J199D01*
G01X89302Y185466D02*
G03X90678Y186042I29J1862D01*
G01X87924Y186042D02*
G03X89302Y185466I1341J1271D01*
G01X87384Y187533D02*
G03X87925Y186043I2176J-54D01*
G01X87383Y192010D02*
Y187533D01*
G01X86002Y192010D02*
X87383D01*
G01X114980Y150658D02*
X100018Y120264D01*
G01X97741D02*
G03X98873Y119618I1104J620D01*
G01Y119617D02*
G03X100018Y120264I61J1228D01*
G01X101109Y155424D02*
Y152488D01*
G01D02*
X113812Y152489D01*
G01X98486Y152483D02*
Y155402D01*
G01X95036Y163560D02*
G03X96768Y164235I85J2342D01*
G01X95233Y161990D02*
G03X97000Y162222I137J5798D01*
G01X94802Y174208D02*
Y163559D01*
G01X92936Y161990D02*
Y175842D01*
G01X94802Y163559D02*
X95036D01*
G01X95233Y161990D02*
X92936D01*
G01X99194Y156560D02*
X99817Y156693D01*
G01X99194Y156561D02*
G03X98485Y155402I750J-1255D01*
G01X101109Y155424D02*
G03X99817Y156693I-1280J-12D01*
G01X102974Y161990D02*
Y175842D01*
G01X107936Y161990D02*
X102974D01*
G01X104840Y163568D02*
X107936D01*
G01X104840Y167956D02*
Y163568D01*
G01X107586Y167956D02*
X104840D01*
G01X99629Y169095D02*
G03X99261Y172826I-14792J427D01*
G01X98185Y163021D02*
G03X99296Y165264I-3949J3355D01*
G01X99297Y165264D02*
G03X99629Y169095I-16559J3364D01*
G01X97480Y166100D02*
G03X97673Y169166I-18418J2703D01*
G01X97107Y164762D02*
X97480Y166100D01*
G01X97000Y162223D02*
G03X98184Y163022I-933J2662D01*
G01X96767Y164235D02*
X97107Y164762D01*
G01X97081Y173177D02*
G03X95671Y174126I-1704J-1010D01*
G01Y174127D02*
X94802Y174208D01*
G01X96576Y175634D02*
G03X94443Y175841I-1942J-8933D01*
G01X92936Y175842D02*
X94443D01*
G01X90282D02*
Y174263D01*
G01X95081Y185284D02*
G03X96356Y184409I2787J2692D01*
G01X91904Y185367D02*
X91694Y185110D01*
G01X104840Y174263D02*
Y169535D01*
G01D02*
X107586D01*
G01X97672Y169167D02*
G03X97469Y171989I-14719J359D01*
G01X107936Y174263D02*
X104840D01*
G01X102974Y175842D02*
X107936D01*
G01X99262Y172826D02*
G03X98077Y174935I-3888J-799D01*
G01X97470Y171989D02*
X97081Y173177D01*
G01X98077Y174935D02*
G03X96576Y175634I-2207J-2776D01*
G01X104460Y182213D02*
X103071D01*
G01D02*
Y189128D01*
G01X104460Y184265D02*
Y182213D01*
G01X106804Y184265D02*
X104460D01*
G01X99963Y184728D02*
G03X101468Y186532I-2648J3737D01*
G01X97860Y184107D02*
G03X99963Y184727I45J3726D01*
G01X96355Y184408D02*
G03X97860Y184107I1495J3561D01*
G01X99574Y186192D02*
X95807Y188292D01*
G01D02*
X96392Y189342D01*
G01X95373Y188110D02*
G03X96087Y186188I2846J-36D01*
G01X96092Y190029D02*
G03X95373Y188110I2050J-1863D01*
G01X95886Y191624D02*
G03X94441Y190139I2079J-3470D01*
G01D02*
G03X93928Y188126I3599J-1988D01*
G01D02*
G03X94224Y186594I4069J-7D01*
G01X94224D02*
G03X95080Y185283I3845J1575D01*
G01X91903Y185367D02*
G03X92586Y187786I-3558J2310D01*
G01X92586Y192010D02*
Y187786D01*
G01X91213Y187533D02*
Y192010D01*
G01X90680Y186041D02*
G03X91213Y187533I-1591J1411D01*
G01X91213Y192010D02*
X92586D01*
G01X104460Y185576D02*
X106804D01*
G01X104460Y188892D02*
Y185576D01*
G01X104544Y189599D02*
X104460Y188892D01*
G01X104913Y190254D02*
X104544Y189599D01*
G01X106363Y190683D02*
G03X104914Y190253I-149J-2154D01*
G01X103742Y191151D02*
G03X103071Y189128I2363J-1906D01*
G01X101654Y189012D02*
X101744Y188583D01*
G01X106348Y192009D02*
G03X104779Y191789I-126J-4785D01*
G01X103888Y191292D02*
X104779Y191789D01*
G01X103742Y191151D02*
X103888Y191292D01*
G01X98792Y185608D02*
X99574Y186192D01*
G01X99498Y190159D02*
G03X97844Y190809I-1611J-1668D01*
G01Y185410D02*
X98792Y185608D01*
G01X101744Y188583D02*
X100331Y188371D01*
G01X101654Y189012D02*
G03X100402Y191206I-4192J-939D01*
G01X100331Y188371D02*
G03X99498Y190159I-3140J-374D01*
G01X96829Y192030D02*
X97844Y192168D01*
G01X100115Y191444D02*
X100402Y191206D01*
G01X100115Y191444D02*
G03X97845Y192168I-2230J-3072D01*
G01X96087Y186187D02*
G03X97845Y185410I1759J1600D01*
G01X97844Y190810D02*
G03X96092Y190029I-2J-2353D01*
G01X96392Y189342D02*
X101468Y186532D01*
G01X95886Y191624D02*
X96829Y192030D01*
G01X110663Y141909D02*
X126935Y111169D01*
G01X117465Y134615D02*
X112067Y144768D01*
G01X121980Y137571D02*
G03X120887Y137048I260J-1946D01*
G01X120888Y137047D02*
X117465Y134615D01*
G01X112067Y144768D02*
X110663Y141909D01*
G01X114980Y150658D02*
G03X114906Y151837I-1283J511D01*
G01Y151837D02*
G03X113812Y152489I-1176J-730D01*
G01X107936Y163568D02*
Y161990D01*
G01X107586Y169535D02*
Y167956D01*
G01X111138Y161990D02*
Y175842D01*
G01X113596Y161990D02*
X111138D01*
G01X120368D02*
Y175842D01*
G01X122109Y161990D02*
X120368D01*
G01X117435Y175842D02*
X114888Y169104D01*
G01X116137Y163035D02*
G03X116806Y165596I-3926J2393D01*
G01X116807D02*
G03X116309Y167987I-4707J268D01*
G01X113596Y161990D02*
G03X115031Y162206I109J4150D01*
G01X115866Y162716D02*
X115031Y162206D01*
G01X116137Y163035D02*
X115866Y162716D01*
G01X116310Y167987D02*
G03X114888Y169104I-1934J-999D01*
G01X114538Y167624D02*
X113894Y168012D01*
G01X114986Y165928D02*
G03X114538Y167624I-2689J197D01*
G01X114893Y164824D02*
X114986Y165928D01*
G01X114596Y164080D02*
X114893Y164824D01*
G01X114076Y163659D02*
X114596Y164080D01*
G01X113004Y169059D02*
X115542Y175842D01*
G01X113004D02*
Y169059D01*
G01Y168126D02*
Y163524D01*
G01X113894Y168012D02*
X113004Y168126D01*
G01X113318Y163524D02*
X114076Y163659D01*
G01X113004Y163524D02*
X113318D01*
G01X107936Y175842D02*
Y174263D01*
G01X111138Y175842D02*
X113004D01*
G01X106804Y185576D02*
Y184265D01*
G01X108874Y185363D02*
G03X110121Y184459I2689J2399D01*
G01Y184459D02*
G03X111637Y184139I1516J3429D01*
G01X112738Y184269D02*
X111636Y184139D01*
G01X120368Y175842D02*
X122207D01*
G01X115542D02*
X117435D01*
G01X117226Y184265D02*
Y188489D01*
G01X118607Y184265D02*
X117226D01*
G01X118607Y188742D02*
Y184265D01*
G01X113736Y186160D02*
Y184668D01*
G01X115600Y180704D02*
X114203D01*
G01X115600Y187518D02*
Y180704D01*
G01X114203D02*
Y188126D01*
G01X113736Y184668D02*
X112738Y184269D01*
G01X106804Y190683D02*
X106363D01*
G01X106804Y192010D02*
Y190683D01*
G01X106347Y192010D02*
X106804D01*
G01X108536Y190543D02*
X108924Y191012D01*
G01X108536Y190543D02*
G03X107824Y188126I3526J-2352D01*
G01X107824Y188127D02*
G03X108092Y186634I4194J-17D01*
G01D02*
G03X108873Y185362I3698J1397D01*
G01X111794Y185450D02*
X112777Y185624D01*
G01X109952Y186227D02*
G03X111795Y185450I1797J1691D01*
G01X109245Y188182D02*
G03X109952Y186227I2892J-60D01*
G01X109943Y190104D02*
G03X109244Y188182I2005J-1817D01*
G01X111732Y190851D02*
G03X109942Y190104I-28J-2450D01*
G01X113515Y190096D02*
G03X111732Y190849I-1724J-1596D01*
G01X113760Y191592D02*
G03X111716Y192153I-2024J-3368D01*
G01X111715Y192154D02*
G03X108924Y191012I-99J-3739D01*
G01X120526Y190809D02*
G03X119148Y190233I-27J-1871D01*
G01X121903Y190233D02*
G03X120527Y190809I-1331J-1246D01*
G01X122619Y191449D02*
G03X120511Y192152I-2041J-2611D01*
G01X117909Y190908D02*
G03X117227Y188489I3545J-2306D01*
G01X119148Y190234D02*
G03X118607Y188742I1567J-1411D01*
G01X120511Y192153D02*
G03X118118Y191165I-141J-3050D01*
G01X117909Y190908D02*
X118118Y191165D01*
G01X115501Y189082D02*
X115600Y187518D01*
G01X115174Y190036D02*
X115501Y189082D01*
G01X115174Y190036D02*
G03X113760Y191592I-3346J-1619D01*
G01X112777Y185624D02*
X113736Y186160D01*
G01X114203Y188127D02*
G03X113515Y190096I-2964J70D01*
G01X128318Y110056D02*
G03X129535Y110816I-73J1472D01*
G01X126935Y111169D02*
G03X128041Y110088I1760J694D01*
G01X129738Y111185D02*
X147863Y141731D01*
G01X129536Y110815D02*
X129738Y111185D01*
G01X122959Y137084D02*
G03X121980Y137570I-1177J-1140D01*
G01X141770Y136545D02*
X127178Y133453D01*
G01D02*
X122959Y137085D01*
G01X126828Y175842D02*
Y161990D01*
G01X124953Y167157D02*
X125061Y169606D01*
G01X124953Y161990D02*
Y167157D01*
G01X126828Y161990D02*
X124953D01*
G01X123965Y167517D02*
G03X125392Y172512I-47119J16159D01*
G01X122446Y167821D02*
X122988Y169606D01*
G01X121974Y165902D02*
X122446Y167821D01*
G01X121917Y165596D02*
X121974Y165902D01*
G01X121822Y165183D02*
X121917Y165596D01*
G01X121867Y165583D02*
X121822Y165183D01*
G01X121893Y165865D02*
X121867Y165583D01*
G01X121992Y167274D02*
X121893Y165865D01*
G01X122091Y168987D02*
X121992Y167274D01*
G01X122104Y169337D02*
X122091Y168987D01*
G01X123966Y167516D02*
X122109Y161990D01*
G01X130451D02*
Y175842D01*
G01X135413Y161990D02*
X130451D01*
G01X132317Y163568D02*
X135413D01*
G01X132317Y167956D02*
Y163568D01*
G01X135063Y167956D02*
X132317D01*
G01X135413Y163568D02*
Y161990D01*
G01X135063Y169535D02*
Y167956D01*
G01X125061Y169606D02*
X125393Y172512D01*
G01X122207Y175842D02*
X122109Y169804D01*
G01X122988Y169606D02*
X125078Y175842D01*
G01X122109Y169804D02*
X122104Y169337D01*
G01X125078Y175842D02*
X126828D01*
G01X125476Y182063D02*
G03X125721Y181471I828J-4D01*
G01Y181471D02*
G03X126321Y181225I592J589D01*
G01X126321D02*
G03X126917Y181466I9J836D01*
G01Y181467D02*
G03X127158Y182063I-593J586D01*
G01X125726Y182670D02*
G03X125476Y182063I604J-604D01*
G01X127158D02*
G03X126917Y182674I-873J10D01*
G01D02*
G03X126321Y182924I-591J-575D01*
G01Y182924D02*
G03X125726Y182671I0J-827D01*
G01X125626Y184265D02*
Y192010D01*
G01X127017Y184265D02*
X125626D01*
G01X127017Y192010D02*
Y184265D01*
G01X122437D02*
Y188742D01*
G01X123811Y184265D02*
X122437D01*
G01X123811Y188489D02*
Y184265D01*
G01X132317Y174263D02*
Y169535D01*
G01D02*
X135063D01*
G01X130451Y175842D02*
X135413D01*
G01Y174263D02*
X132317D01*
G01X135413Y175842D02*
Y174263D01*
G01X132108Y184123D02*
G03X134501Y185109I142J3051D01*
G01X134710Y185367D02*
X134500Y185110D01*
G01X130004Y184826D02*
X129708Y185110D01*
G01X130004Y184827D02*
G03X132108Y184124I2038J2602D01*
G01X128808Y187786D02*
Y192010D01*
G01X128832Y187251D02*
X128808Y187786D01*
G01X128831Y187251D02*
G03X129708Y185110I3541J199D01*
G01X128808Y192010D02*
X130190D01*
G01X125626D02*
X127017D01*
G01X122438Y188742D02*
G03X121904Y190233I-2196J55D01*
G01X123786Y189025D02*
X123811Y188489D01*
G01X123787Y189025D02*
G03X122915Y191166I-3543J-195D01*
G01X122619Y191450D02*
X122915Y191165D01*
G01X130731Y186042D02*
G03X132108Y185466I1341J1271D01*
G01X133485Y186042D02*
G03X134019Y187533I-1588J1410D01*
G01X132108Y185466D02*
G03X133485Y186042I29J1862D01*
G01X134710Y185367D02*
G03X135393Y187786I-3568J2313D01*
G01Y192010D02*
Y187786D01*
G01X134019Y187533D02*
Y192010D01*
G01X137035Y189682D02*
G03X136735Y188126I3801J-1540D01*
G01D02*
G03X137035Y186594I4025J-7D01*
G01Y186595D02*
G03X137903Y185283I3835J1596D01*
G01X137904Y190991D02*
G03X137036Y189681I2886J-2854D01*
G01X134019Y192010D02*
X135393D01*
G01X130191Y187533D02*
G03X130732Y186043I2176J-54D01*
G01X130190Y192010D02*
Y187533D01*
G01X146638Y144767D02*
X141770Y136545D01*
G01X156770Y120264D02*
X144219Y150485D01*
G01X145376Y152486D02*
G03X144324Y151863I124J-1409D01*
G01X144325Y151863D02*
G03X144220Y150485I1604J-815D01*
G01X145376Y152485D02*
X157516Y152483D01*
G01X147863Y141731D02*
X146638Y144767D01*
G01X143235Y164098D02*
Y162277D01*
G01X141934Y168350D02*
G03X143485Y170351I-5364J5762D01*
G01X141333Y161801D02*
G03X143236Y162277I-11J4087D01*
G01X141702Y163487D02*
G03X143236Y164098I-155J2623D01*
G01X140498Y164007D02*
G03X141702Y163487I1172J1057D01*
G01X140032Y165327D02*
G03X140498Y164008I1913J-66D01*
G01X140925Y167292D02*
X140364Y166574D01*
G01X141934Y168350D02*
X140925Y167292D01*
G01X139324Y168270D02*
X140499Y169507D01*
G01X139296Y162509D02*
G03X141333Y161800I1974J2391D01*
G01X140364Y166574D02*
G03X140032Y165326I1943J-1185D01*
G01X138633Y167327D02*
X139324Y168270D01*
G01X138633Y167327D02*
G03X138202Y165336I3819J-1869D01*
G01X138217Y164917D02*
X138202Y165336D01*
G01X138217Y164917D02*
G03X139045Y162761I3489J104D01*
G01X139296Y162509D02*
X139045Y162761D01*
G01X150277Y168350D02*
G03X151829Y170351I-5393J5784D01*
G01X149676Y161801D02*
G03X151578Y162277I-12J4084D01*
G01Y164098D02*
Y162277D01*
G01X150044Y163487D02*
G03X151578Y164097I-152J2616D01*
G01X148841Y164008D02*
G03X150043Y163488I1172J1059D01*
G01X148374Y165327D02*
G03X148840Y164008I1917J-65D01*
G01X148706Y166574D02*
G03X148374Y165327I1963J-1191D01*
G01X149267Y167292D02*
X148706Y166574D01*
G01X150277Y168350D02*
X149267Y167292D01*
G01X147666Y168270D02*
X148841Y169507D01*
G01X147640Y162509D02*
X147388Y162761D01*
G01X147640Y162509D02*
G03X149676Y161802I1972J2389D01*
G01X146975Y167327D02*
G03X146546Y165336I3816J-1865D01*
G01X146561Y164917D02*
G03X147388Y162761I3482J100D01*
G01X146560Y164917D02*
X146545Y165336D01*
G01X146975Y167327D02*
X147666Y168270D01*
G01X140499Y169507D02*
X141262Y170338D01*
G01X143487Y170350D02*
G03X143900Y172352I-4079J1884D01*
G01X143879Y172816D02*
X143899Y172352D01*
G01X143880Y172816D02*
G03X142993Y174999I-3731J-244D01*
G01X142992Y174998D02*
G03X140669Y176011I-2279J-2055D01*
G01Y176012D02*
G03X138633Y175356I-87J-3219D01*
G01X140444Y174235D02*
X139484Y174012D01*
G01X141638Y173728D02*
G03X140445Y174235I-1129J-998D01*
G01X142068Y172352D02*
G03X141638Y173728I-2136J89D01*
G01X141736Y170997D02*
G03X142068Y172352I-2446J1317D01*
G01X141262Y170338D02*
X141737Y170997D01*
G01X138633Y173509D02*
Y175356D01*
G01X139484Y174012D02*
X138633Y173509D01*
G01X139163Y184419D02*
G03X140650Y184124I1462J3472D01*
G01D02*
G03X142150Y184419I15J3880D01*
G01D02*
G03X143414Y185283I-1476J3514D01*
G01X137903D02*
G03X139163Y184418I2823J2761D01*
G01X148841Y169507D02*
X149604Y170338D01*
G01X151830Y170350D02*
G03X152242Y172352I-4096J1887D01*
G01X152221Y172816D02*
X152241Y172352D01*
G01X152222Y172816D02*
G03X151336Y174999I-3729J-241D01*
G01X151336Y174998D02*
G03X149012Y176011I-2279J-2056D01*
G01X149980Y173729D02*
G03X148788Y174235I-1129J-1000D01*
G01X150411Y172352D02*
G03X149980Y173729I-2143J85D01*
G01X150079Y170997D02*
G03X150411Y172352I-2436J1316D01*
G01X149604Y170338D02*
X150079Y170997D01*
G01X148788Y174235D02*
X147826Y174012D01*
G01X146975Y173509D02*
Y175356D01*
G01X149012Y176012D02*
G03X146975Y175356I-88J-3220D01*
G01X147826Y174012D02*
X146975Y173509D01*
G01X150369Y186358D02*
G03X151625Y184976I3492J1911D01*
G01X152833Y184431D02*
X151625Y184976D01*
G01X154475Y184265D02*
X152833Y184431D01*
G01X143415Y185283D02*
G03X144271Y186586I-2812J2780D01*
G01X144270D02*
G03X144567Y188126I-3802J1530D01*
G01D02*
G03X144270Y189685I-4162J16D01*
G01X144270D02*
G03X143413Y190991I-3660J-1466D01*
G01X140650Y190810D02*
G03X138902Y190024I3J-2346D01*
G01X142399D02*
G03X140650Y190810I-1767J-1596D01*
G01X143122Y188110D02*
G03X142399Y190024I-2822J28D01*
G01X142404Y186208D02*
G03X143122Y188110I-2045J1858D01*
G01X140650Y185426D02*
G03X142404Y186208I1J2355D01*
G01X138902D02*
G03X140650Y185426I1763J1597D01*
G01X143414Y190992D02*
G03X142150Y191856I-2733J-2643D01*
G01Y191856D02*
G03X140650Y192153I-1489J-3589D01*
G01D02*
G03X139163Y191856I-15J-3801D01*
G01X138180Y188110D02*
G03X138902Y186209I2790J-29D01*
G01Y190025D02*
G03X138181Y188110I2042J-1862D01*
G01X139163Y191857D02*
G03X137902Y190993I1529J-3582D01*
G01X152241Y186291D02*
G03X154412Y185594I2076J2737D01*
G01X151372Y188150D02*
G03X152240Y186291I2374J-24D01*
G01X152258Y190011D02*
G03X151372Y188150I1454J-1833D01*
G01X154569Y190700D02*
G03X152258Y190011I-112J-3846D01*
G01X150637Y190393D02*
X151163Y190948D01*
G01X150638Y190393D02*
G03X149928Y188126I3070J-2206D01*
G01X149928D02*
G03X150369Y186358I3694J-16D01*
G01X153548Y191953D02*
G03X151163Y190948I447J-4396D01*
G01X147252Y190265D02*
G03X147914Y190538I9J920D01*
G01X147914D02*
G03X148183Y191206I-669J658D01*
G01D02*
G03X147910Y191853I-904J0D01*
G01D02*
G03X147251Y192121I-652J-658D01*
G01X146581Y190539D02*
G03X147251Y190265I656J649D01*
G01X146311Y191206D02*
G03X146580Y190538I940J-9D01*
G01X147251Y192121D02*
G03X146584Y191853I-8J-942D01*
G01X146583Y191854D02*
G03X146311Y191206I628J-645D01*
G01X174009Y150658D02*
X159047Y120264D01*
G01X156770D02*
G03X157902Y119618I1103J619D01*
G01D02*
G03X159047Y120264I62J1228D01*
G01X157516Y152483D02*
Y155402D01*
G01X160138Y152488D02*
X172841Y152489D01*
G01X160138Y155424D02*
Y152488D01*
G01Y155424D02*
G03X158846Y156693I-1280J-12D01*
G01X158224Y156560D02*
X158846Y156693D01*
G01X158224Y156561D02*
G03X157516Y155402I748J-1252D01*
G01X160592Y161990D02*
Y175842D01*
G01X162458Y174263D02*
Y161990D01*
G01D02*
X160592D01*
G01X165509Y174263D02*
X162458D01*
G01X160592Y175842D02*
X165509D01*
G01X155169Y184265D02*
X154475D01*
G01X157302Y185284D02*
G03X158560Y184420I2824J2762D01*
G01X158561Y184419D02*
G03X160049Y184124I1465J3487D01*
G01X155169Y185592D02*
Y184265D01*
G01X160048Y184124D02*
G03X161548Y184419I15J3880D01*
G01D02*
G03X162812Y185283I-1476J3514D01*
G01X170928Y161990D02*
X167913Y175842D01*
G01D02*
X169707D01*
G01X165509D02*
Y174263D01*
G01X168347Y184124D02*
G03X169673Y184427I26J2936D01*
G01X165298Y187126D02*
G03X166113Y185039I3346J104D01*
G01X166328Y184824D02*
X166112Y185039D01*
G01X166328Y184824D02*
G03X168347Y184123I1952J2366D01*
G01X154569Y185592D02*
X155169D01*
G01X154412Y185594D02*
X154569Y185592D01*
G01X155169Y190700D02*
X154569D01*
G01X154475Y192010D02*
X155169D01*
G01X153548Y191952D02*
X154475Y192010D01*
G01X156433Y189682D02*
G03X156133Y188126I3801J-1540D01*
G01D02*
G03X156433Y186594I3980J-16D01*
G01X156434Y186595D02*
G03X157302Y185284I3831J1594D01*
G01X157302Y190991D02*
G03X156434Y189681I2859J-2836D01*
G01X157578Y188110D02*
G03X158300Y186209I2796J-25D01*
G01X158300Y190025D02*
G03X157577Y188110I2048J-1867D01*
G01X160048Y190810D02*
G03X158300Y190024I3J-2346D01*
G01Y186208D02*
G03X160048Y185426I1763J1597D01*
G01Y192153D02*
G03X158560Y191856I-15J-3807D01*
G01X158561Y191856D02*
G03X157302Y190991I1535J-3586D01*
G01X155169Y192010D02*
Y190700D01*
G01X162813Y185283D02*
G03X163669Y186586I-2812J2780D01*
G01X163668Y189685D02*
G03X162812Y190991I-3660J-1466D01*
G01X161798Y190024D02*
G03X160048Y190810I-1768J-1597D01*
G01X162519Y188110D02*
G03X161797Y190024I-2822J29D01*
G01X161801Y186208D02*
G03X162519Y188110I-2034J1854D01*
G01X160048Y185426D02*
G03X161801Y186208I0J2356D01*
G01X162812Y190992D02*
G03X161548Y191856I-2733J-2643D01*
G01Y191856D02*
G03X160048Y192153I-1489J-3589D01*
G01X168347Y185465D02*
G03X169571Y185962I32J1677D01*
G01X167127Y185963D02*
G03X168347Y185465I1167J1117D01*
G01X166665Y187274D02*
G03X167127Y185963I1916J-62D01*
G01X166665Y192010D02*
Y187274D01*
G01X165283Y187533D02*
Y192010D01*
G01X165297Y187126D02*
X165283Y187533D01*
G01Y192010D02*
X166665D01*
G01X163669Y186586D02*
G03X163965Y188126I-3802J1530D01*
G01D02*
G03X163669Y189685I-4168J15D01*
G01X174008Y150659D02*
G03X173933Y151837I-1279J510D01*
G01Y151837D02*
G03X172841Y152489I-1174J-725D01*
G01X177934Y161990D02*
Y175842D01*
G01X175351D02*
X172381Y161990D01*
G01X180464D02*
X177934D01*
G01X170838Y169920D02*
X171304Y167206D01*
G01X171628Y164680D02*
X172300Y169490D01*
G01X171304Y167206D02*
X171628Y164680D01*
G01X172381Y161990D02*
X170928D01*
G01X179693Y168090D02*
Y163497D01*
G01X180600Y167969D02*
X179693Y168090D01*
G01X179782Y163487D02*
X180006D01*
G01X179693Y163497D02*
X179782Y163487D01*
G01X181358Y162089D02*
G03X182802Y163061I-530J2347D01*
G01X182802D02*
G03X183433Y165676I-4309J2422D01*
G01X183362Y166753D02*
X183433Y165676D01*
G01X183047Y167767D02*
X183362Y166753D01*
G01X183047Y167767D02*
G03X181684Y168798I-2117J-1380D01*
G01X182554Y169257D02*
X181684Y168799D01*
G01X181622Y165730D02*
G03X181200Y167587I-3226J244D01*
G01X181560Y164940D02*
X181621Y165730D01*
G01X181358Y162089D02*
X180464Y161990D01*
G01X181200Y167587D02*
X180600Y167969D01*
G01X180006Y163487D02*
G03X181559Y164940I12J1545D01*
G01X172300Y169490D02*
X172713Y171696D01*
G01X170498D02*
X170838Y169920D01*
G01X179693Y174245D02*
Y169570D01*
G01Y169570D02*
G03X181263Y170108I153J2111D01*
G01X177934Y175842D02*
X180374D01*
G01X173502D02*
X175351D01*
G01X172983Y173141D02*
X173502Y175842D01*
G01X169707D02*
X170237Y173141D01*
G01X172713Y171696D02*
X170498D01*
G01X170237Y173141D02*
X172983D01*
G01X180650Y174124D02*
X179693Y174245D01*
G01X173100Y184124D02*
G03X175322Y185044I126J2840D01*
G01X175470Y185221D02*
X175321Y185044D01*
G01X169673Y184427D02*
G03X170724Y185315I-1367J2682D01*
G01X170723D02*
G03X171780Y184424I2472J1858D01*
G01X171781Y184424D02*
G03X173100Y184124I1292J2627D01*
G01X183218Y169947D02*
X182554Y169257D01*
G01X181719Y171965D02*
G03X181280Y173751I-2892J235D01*
G01X181612Y170867D02*
X181719Y171965D01*
G01X181262Y170109D02*
X181612Y170867D01*
G01X183218Y169947D02*
G03X183640Y172028I-3823J1858D01*
G01X183494Y173468D02*
X183640Y172028D01*
G01X183494Y173468D02*
G03X182548Y175163I-2894J-504D01*
G01X181280Y173751D02*
X180650Y174124D01*
G01X182548Y175162D02*
G03X180374Y175841I-2060J-2776D01*
G01X175470Y185221D02*
G03X176155Y187533I-3220J2211D01*
G01Y192010D02*
Y187533D01*
G01X174781Y187274D02*
Y192010D01*
G01X174315Y185963D02*
G03X174781Y187274I-1379J1229D01*
G01X173100Y185466D02*
G03X174315Y185963I35J1649D01*
G01X174781Y192010D02*
X176155D01*
G01X171418D02*
Y187274D01*
G01X170044D02*
Y192010D01*
G01X169570Y185963D02*
G03X170045Y187274I-1357J1232D01*
G01X171884Y185963D02*
G03X173100Y185466I1169J1122D01*
G01X171418Y187274D02*
G03X171883Y185963I1904J-62D01*
G01X170044Y192010D02*
X171418D01*
G01X196666Y161854D02*
X196155D01*
G01X196627Y163946D02*
X196755Y164617D01*
G01X196526Y163232D02*
X196627Y163946D01*
G01X196353Y166287D02*
X196526Y163232D01*
G01X190313Y168350D02*
G03X191866Y170351I-5371J5773D01*
G01X195139Y161854D02*
X193196D01*
G01X195139Y162377D02*
Y161854D01*
G01X194470Y162377D02*
X195139D01*
G01X194470Y166287D02*
Y162377D01*
G01X193885Y166287D02*
X194470D01*
G01X191615Y164098D02*
Y162277D01*
G01X193196Y161854D02*
Y162377D01*
G01X193885D02*
Y166287D01*
G01X193196Y162377D02*
X193885D01*
G01X196155Y161854D02*
X195791Y166287D01*
G01D02*
X196353D01*
G01X189713Y161801D02*
G03X191615Y162277I-12J4084D01*
G01X190080Y163487D02*
G03X191615Y164098I-155J2621D01*
G01X188878Y164008D02*
G03X190080Y163488I1172J1059D01*
G01X188411Y165327D02*
G03X188877Y164008I1917J-65D01*
G01X188743Y166574D02*
G03X188411Y165326I1960J-1189D01*
G01X189304Y167292D02*
X188743Y166574D01*
G01X190313Y168350D02*
X189304Y167292D01*
G01X187703Y168270D02*
X188878Y169507D01*
G01X187675Y162509D02*
G03X189713Y161800I1974J2395D01*
G01X187012Y167327D02*
X187703Y168270D01*
G01X187012Y167327D02*
G03X186583Y165336I3816J-1865D01*
G01X186596Y164917D02*
X186582Y165336D01*
G01X186596Y164917D02*
G03X187425Y162761I3490J105D01*
G01X187676Y162509D02*
X187425Y162761D01*
G01X198398Y161854D02*
X197880D01*
G01X198805Y166287D02*
X198398Y161854D01*
G01X198233Y166287D02*
X198805D01*
G01X198133Y164783D02*
X198233Y166287D01*
G01X198124Y164585D02*
X198133Y164783D01*
G01X198119Y164446D02*
X198124Y164585D01*
G01X198093Y163852D02*
X198119Y164446D01*
G01X198079Y163307D02*
X198093Y163852D01*
G01X198078Y163283D02*
X198079Y163307D01*
G01X198073Y163232D02*
X198078Y163283D01*
G01X198059Y163321D02*
X198073Y163232D01*
G01X198017Y163597D02*
X198059Y163321D01*
G01X197984Y163796D02*
X198017Y163597D01*
G01X197910Y164200D02*
X197984Y163796D01*
G01X197880Y164352D02*
X197910Y164200D01*
G01X197057Y163663D02*
X196666Y161854D01*
G01X197187Y164341D02*
X197057Y163663D01*
G01X197296Y165055D02*
X197187Y164341D01*
G01X197304Y164979D02*
X197296Y165055D01*
G01X197310Y164940D02*
X197304Y164979D01*
G01X197393Y164432D02*
X197310Y164940D01*
G01X197467Y163950D02*
X197393Y164432D01*
G01X197533Y163631D02*
X197467Y163950D01*
G01X197880Y161854D02*
X197533Y163631D01*
G01X197507Y166287D02*
X197880Y164352D01*
G01X197106Y166287D02*
X197507D01*
G01X196755Y164617D02*
X197106Y166287D01*
G01X188878Y169507D02*
X189641Y170338D01*
G01X191867Y170350D02*
G03X192279Y172352I-4096J1887D01*
G01X192258Y172816D02*
X192278Y172352D01*
G01X192259Y172816D02*
G03X191373Y174999I-3729J-241D01*
G01X191373Y174998D02*
G03X189048Y176011I-2279J-2056D01*
G01Y176012D02*
G03X187012Y175356I-87J-3219D01*
G01X188825Y174235D02*
X187863Y174012D01*
G01X190018Y173729D02*
G03X188825Y174236I-1128J-997D01*
G01X190447Y172352D02*
G03X190017Y173728I-2136J89D01*
G01X190117Y170997D02*
G03X190447Y172352I-2452J1316D01*
G01X189641Y170338D02*
X190117Y170997D01*
G01X187012Y173509D02*
Y175356D01*
G01X187863Y174012D02*
X187012Y173509D01*
M02*
