G04 ================== begin FILE IDENTIFICATION RECORD ==================*
G04 Layout Name:  Netduino3_16Dec16_0800.brd*
G04 Film Name:    L1-TOP*
G04 File Format:  Gerber RS274X*
G04 File Origin:  Cadence Allegro 16.6-2015-S069*
G04 Origin Date:  Fri Dec 16 09:48:39 2016*
G04 *
G04 Layer:  ETCH/TOP*
G04 Layer:  PIN/TOP*
G04 Layer:  VIA CLASS/TOP*
G04 *
G04 Offset:    (0.0000 0.0000)*
G04 Mirror:    No*
G04 Mode:      Positive*
G04 Rotation:  0*
G04 FullContactRelief:  No*
G04 UndefLineWidth:     0.1270*
G04 ================== end FILE IDENTIFICATION RECORD ====================*
%FSLAX25Y25*MOMM*%
%IR0*IPPOS*OFA0.00000B0.00000*MIA0B0*SFA1.00000B1.00000*%
%ADD54R,.3X1.2*%
%ADD52R,1.2X.3*%
%ADD46R,1.2X.6*%
%ADD21R,1.35X.4*%
%ADD47R,.45X1.05*%
%ADD40R,.95X1.*%
%ADD53R,1.X.95*%
%ADD37R,1.05X.45*%
%ADD57R,2.4X.76*%
%ADD33C,.9*%
%ADD15C,.55*%
%ADD48R,.6X.6*%
%ADD14C,.6604*%
%ADD12R,.8992X1.0008*%
%ADD34R,1.0008X.8992*%
%ADD28R,1.2X1.2*%
%ADD16R,2.1X1.1*%
%ADD18O,1.8X4.*%
%ADD27O,4.X1.8*%
%ADD24R,3.X1.6*%
%ADD49R,1.2X1.8*%
%ADD26R,1.5X1.4*%
%ADD22R,1.15X1.4*%
%ADD11R,1.8X2.2*%
%ADD50R,3.3X1.15*%
%ADD43R,.4X.6*%
%ADD31O,1.8X4.5*%
%ADD10C,1.*%
%ADD35R,.6X.4*%
%ADD45R,1.15X1.45*%
%ADD39R,1.8X1.15*%
%ADD20R,.3X.45*%
%ADD25R,1.8X2.25*%
%ADD17R,1.45X1.15*%
%ADD42R,2.25X2.35*%
%ADD38R,.9X.4*%
%ADD23R,1.75X1.05*%
%ADD13R,1.7X1.325*%
%ADD44R,.6X.65*%
%ADD30R,6.2X5.8*%
%ADD19R,.65X.6*%
%ADD55R,.25X.75*%
%ADD56R,.35X.75*%
%ADD32C,.0001*%
%ADD36R,.75X.35*%
%ADD41C,1.85*%
%ADD29R,.95X.8*%
%ADD51R,1.85X1.85*%
%ADD58R,.8992X.95*%
%ADD59C,.2*%
%ADD60C,.3*%
%ADD61C,.4*%
%ADD62C,.5*%
%ADD63C,.6*%
%ADD64C,.25*%
%ADD65C,.7*%
%ADD66C,.8*%
%ADD67C,.18*%
%ADD68C,.254*%
%ADD69O,2.2004X4.4004*%
%ADD73C,4.2004*%
%ADD71C,2.2504*%
%ADD72R,1.9004X1.8004*%
%ADD70R,2.6504X2.7504*%
G75*
%LPD*%
G75*
G36*
G01X254380Y114140D02*
G03X114140Y254380I-79380J60860D01*
G02X50000Y286020I-24262J31648D01*
G01Y2244480D01*
X214980D01*
Y2241980D01*
X345020D01*
Y2326980D01*
X492520D01*
Y2496980D01*
X505020D01*
Y2637980D01*
X524030D01*
X539030Y2652980D01*
X589980D01*
Y2589930D01*
G02X627650Y2554150I-2005J-39831D01*
G03X722190I47270J4830D01*
G02X760020Y2589940I39676J-4049D01*
G01Y2652980D01*
X825980D01*
Y2607980D01*
X844480Y2589480D01*
G03X865000Y2580980I20520J20519D01*
G01X907020D01*
X934020Y2607980D01*
Y2652980D01*
X1485980D01*
X1619900Y2519060D01*
Y2519050D01*
X1657970Y2480980D01*
X2059060D01*
X2059070Y2480970D01*
X2076790D01*
G02X2090890Y2446930I1J-19940D01*
G01X2015500Y2371540D01*
X1995020Y2380020D01*
X1894980D01*
Y2304200D01*
G02X1860940Y2290100I-19940J-1D01*
G01X1847020Y2304020D01*
X1805020D01*
Y2380020D01*
X1704980D01*
Y2239020D01*
X1637980D01*
X1545980Y2147020D01*
Y1762980D01*
X1707980Y1600980D01*
X1779940D01*
Y1567380D01*
G02X1711860Y1539180I-39880J-2D01*
G01X1222020Y2029020D01*
X1140020D01*
Y2080020D01*
X979980D01*
Y1919980D01*
X1140020D01*
Y1970980D01*
X1197980D01*
X1727980Y1440980D01*
X1779940D01*
Y1405020D01*
X1920060D01*
Y1694980D01*
X1779940D01*
Y1659020D01*
X1732020D01*
X1604020Y1787020D01*
Y2122980D01*
X1662020Y2180980D01*
X1704980D01*
Y2169980D01*
X1820980D01*
Y2132980D01*
X1882280Y2071680D01*
X1882500Y2063730D01*
G03X1882560Y2062230I47505J1149D01*
G02X1842750Y2020020I-39811J-2331D01*
G01X1804220D01*
X1801440Y2020850D01*
G03X1790000Y2022520I-11440J-38349D01*
G01X1715920D01*
X1690140Y1996740D01*
X1685530Y1995260D01*
G03Y1904740I14470J-45260D01*
G01X1690140Y1903260D01*
X1715920Y1877480D01*
X1790000D01*
G03X1801440Y1879150I0J40019D01*
G01X1804220Y1879980D01*
X1967520D01*
Y1880980D01*
X2021520D01*
X2022940Y1882400D01*
G02X2056980Y1868300I14100J-14099D01*
G01Y1596980D01*
X2144980Y1508980D01*
Y1404980D01*
X2220980D01*
Y1372980D01*
X2372980Y1220980D01*
X3002980D01*
X3075860Y1148100D01*
G02X3047660Y1080020I-28198J-28200D01*
G01X2980000D01*
G03X2919980Y1020000I0J-60020D01*
G01Y485140D01*
X2987980Y417140D01*
Y349180D01*
G03X2972990Y337870I60040J-95165D01*
G02X2906530Y366520I-26593J29721D01*
G01X2681480D01*
Y141480D01*
X2906530D01*
G02X2972990Y170130I39867J-1071D01*
G03X3141770Y191800I75013J83869D01*
G02X3208230I33230J-22042D01*
G03X3395770I93770J62200D01*
G02X3462230I33230J-22042D01*
G03X3649770I93770J62200D01*
G02X3716230I33230J-22042D01*
G03Y316200I93770J62200D01*
G02X3649770I-33230J22042D01*
G03X3616020Y349180I-93769J-62199D01*
G01Y826660D01*
G02X3684100Y854860I39880J2D01*
G01X3710980Y827980D01*
Y693460D01*
X3705510Y687690D01*
G03X3774490I34490J-32690D01*
G01X3769020Y693460D01*
Y758660D01*
G02X3837100Y786860I39880J2D01*
G01X3850980Y772980D01*
Y747960D01*
X3845510Y742190D01*
G03X3914490I34490J-32690D01*
G01X3909020Y747960D01*
Y797020D01*
X3730020Y976020D01*
Y1265140D01*
G02X3790480Y1299300I39881J-2D01*
G03X3833810Y1296360I24526J40700D01*
G01X3846240Y1301720D01*
X3876280Y1271680D01*
X3876500Y1263730D01*
G03X3922420Y1217510I47501J1271D01*
G02X3960980Y1177650I-1321J-39859D01*
G01Y1012970D01*
X4383970Y589980D01*
X4828980D01*
X4984360Y434600D01*
G02X4967480Y368160I-28198J-28200D01*
G01Y141480D01*
X5192530D01*
G02X5258990Y170130I39867J-1071D01*
G03X5427770Y191800I75013J83869D01*
G02X5494230I33230J-22042D01*
G03X5681770I93770J62200D01*
G02X5748230I33230J-22042D01*
G03X5935770I93770J62200D01*
G02X6002230I33230J-22042D01*
G03X6189770I93770J62200D01*
G02X6256230I33230J-22042D01*
G03Y316200I93770J62200D01*
G02X6189770I-33230J22042D01*
G03X6002230I-93770J-62200D01*
G02X5935770I-33230J22042D01*
G03X5883590Y358550I-93763J-62205D01*
G01X5871020Y363550D01*
Y395020D01*
X5482020Y784020D01*
X5237250D01*
Y804850D01*
X5237330Y805750D01*
G03Y814250I-47330J4250D01*
G01X5237250Y815150D01*
Y835980D01*
X6342020D01*
X6397570Y891530D01*
X6421750Y867340D01*
X6415470Y854540D01*
G03X6577380Y970330I188536J-92536D01*
G02X6544120Y1038080I-5057J39557D01*
G01X6607020Y1100980D01*
X6646540D01*
X6652310Y1095510D01*
G03Y1164490I32690J34490D01*
G01X6646540Y1159020D01*
X6582980D01*
X6317980Y894020D01*
X5883200D01*
G02X5869100Y928060I-1J19940D01*
G01X5893320Y952280D01*
X5901270Y952500D01*
G03X5852500Y1001270I-1270J47500D01*
G01X5852280Y993320D01*
X5837980Y979020D01*
X5822450D01*
G02X5782770Y1014840I-7J39881D01*
G03X5736770Y1057500I-47271J-4841D01*
G01X5728820Y1057720D01*
X5704000Y1082540D01*
G02X5718100Y1116580I14099J14100D01*
G01X5987380D01*
X6076400Y1027560D01*
Y1027550D01*
X6114470Y989480D01*
X6329020D01*
X6329030Y989490D01*
X6339450D01*
X6430530Y1080570D01*
Y1091490D01*
X6739820Y1400780D01*
X6747770Y1401000D01*
G03X6793800Y1443900I-1267J47503D01*
G02X6831780Y1450250I19845J-1938D01*
G03X6840510Y1437310I43223J19746D01*
G01X6845980Y1431540D01*
Y1002980D01*
X6995980Y852980D01*
X7064980D01*
Y696980D01*
X7345020D01*
Y725980D01*
X7364020D01*
X7399020Y760980D01*
Y814770D01*
G02X7420600Y834640I19940J-2D01*
G03X7431920Y835060I3911J47360D01*
G01X7433470Y835310D01*
X7454980D01*
Y696980D01*
X7745000D01*
Y170000D01*
X7625000Y50000D01*
X6736020D01*
G02X6704380Y114140I8J39878D01*
G03X6545620I-79380J60860D01*
G02X6513980Y50000I-31648J-24262D01*
G01X286020D01*
G02X254380Y114140I8J39878D01*
G37*
G36*
G01X492520Y2837020D02*
Y3007020D01*
X345020D01*
Y3092020D01*
X214980D01*
Y3089520D01*
X50000D01*
Y5280000D01*
X434980D01*
Y5071680D01*
X625020D01*
Y5280000D01*
X1124980D01*
Y5201720D01*
X1090420D01*
X1030980Y5142280D01*
Y4744460D01*
X1034980Y4740460D01*
Y4733420D01*
X1117800Y4650600D01*
G02X1089610Y4582520I-28196J-28201D01*
G01X909980D01*
Y4320020D01*
X704980D01*
Y4228620D01*
X354980D01*
Y4067520D01*
X132480D01*
Y3732480D01*
X143500D01*
X274600Y3601380D01*
X354980D01*
Y3571380D01*
X454980D01*
Y3405000D01*
G03X520290Y3335140I70018J0D01*
G02X557480Y3295350I-2690J-39789D01*
G01Y3167230D01*
X760730D01*
Y3012270D01*
X557480D01*
Y2854080D01*
X540420Y2837020D01*
X492520D01*
G37*
G36*
G01X607020Y3364020D02*
X591230Y3379810D01*
X593480Y3390410D01*
G03X595020Y3405000I-68478J14604D01*
G01Y3571380D01*
X704980D01*
Y3479980D01*
X1695020D01*
Y3504980D01*
X1868480D01*
G02X1907960Y3470760I4J-39880D01*
G03X1907980Y3470650I46731J8440D01*
G02X1868510Y3425020I-39464J-5749D01*
G01X1777480D01*
Y3404020D01*
X1717980D01*
X1677980Y3364020D01*
X1146780D01*
X1114780Y3396020D01*
X810220D01*
X778220Y3364020D01*
X607020D01*
G37*
G36*
G01X317520Y3771420D02*
Y4028580D01*
X704980D01*
Y3771420D01*
X317520D01*
G37*
G36*
G01X855940Y2877100D02*
X818770Y2914270D01*
Y3186310D01*
X826500Y3192300D01*
G03X832190Y3197310I-36738J47461D01*
G01X848440Y3213560D01*
G02X882480Y3199460I14100J-14100D01*
G01Y3109980D01*
X975070D01*
X1010990Y3074060D01*
G02X996890Y3040020I-14102J-14099D01*
G01X882480D01*
Y2919980D01*
X889980D01*
Y2891200D01*
G02X855940Y2877100I-19940J-1D01*
G37*
G36*
G01X1675000Y3500000D02*
X725000D01*
Y4300000D01*
X930000D01*
Y4560000D01*
X1675000D01*
Y3500000D01*
G37*
G36*
G01X1652220Y2723370D02*
G02X1597730Y2725150I-26295J29983D01*
G01X1539860Y2783020D01*
X1235240D01*
G02X1201210Y2843700I-3J39880D01*
G03X1199590Y2908810I-51211J31301D01*
G01X1196130Y2913890D01*
Y2939980D01*
X1227430D01*
X1282430Y2994980D01*
X1622370D01*
X1628070Y2989810D01*
G03X1645940Y2979610I31932J35190D01*
G01X1659980Y2975260D01*
Y2729930D01*
X1652900Y2723950D01*
G03X1652220Y2723370I30496J-36443D01*
G37*
G36*
G01X1217520Y3063110D02*
Y3135020D01*
X1210020D01*
Y3249860D01*
X1187940Y3271940D01*
G02X1202040Y3305980I14100J14100D01*
G01X1702020D01*
X1742020Y3345980D01*
X1777480D01*
Y3324980D01*
X1892000D01*
Y3265390D01*
X1856630Y3230020D01*
X1699980D01*
Y3112400D01*
G02X1660050Y3072520I-39880J0D01*
G03X1628070Y3060190I-46J-47519D01*
G01X1622370Y3055020D01*
X1257570D01*
X1251560Y3049010D01*
G02X1217520Y3063110I-14099J14102D01*
G37*
G36*
G01X2815020Y3871020D02*
Y4040020D01*
X2443290D01*
X2433290Y4050020D01*
X2269020D01*
Y4139980D01*
X2444980D01*
Y4099980D01*
X2815020D01*
Y4255020D01*
X2444980D01*
Y4240020D01*
X2269980D01*
Y4232340D01*
G02X2201900Y4204140I-39880J-2D01*
G01X2187020Y4219020D01*
X2160020D01*
Y4263290D01*
X2083290Y4340020D01*
X2035060D01*
G02X1996250Y4389070I-1J39878D01*
G03X1964470Y4445260I-46247J10926D01*
G01X1959860Y4446740D01*
X1743080Y4663520D01*
X1218080D01*
X1178000Y4703600D01*
G02X1206190Y4771680I28196J28201D01*
G01X1317570D01*
G02X1383100Y4785860I37333J-14019D01*
G01X1464480Y4704480D01*
X2949480D01*
X3291440Y4362520D01*
X3295590D01*
G02X3333420Y4310030I-4J-39880D01*
G03X3344790Y4261510I45080J-15028D01*
G01X3350580Y4255680D01*
Y4251430D01*
G02X3364310Y4249650I1815J-39840D01*
G03X3411190Y4260510I14192J45351D01*
G01X3416960Y4265980D01*
X3511570D01*
X3605810Y4360220D01*
X3619010Y4352720D01*
G03X3668980Y4354590I23474J41319D01*
G01X3674020Y4357980D01*
X3772880D01*
X3772900Y4357960D01*
X3833780D01*
G02X3847880Y4323920I1J-19940D01*
G01X3830980Y4307020D01*
Y4082020D01*
X3757980Y4009020D01*
X3705020D01*
Y4030020D01*
X3657340D01*
G02X3629020Y4097980I-2J39880D01*
G01Y4119980D01*
X3705020D01*
Y4158880D01*
G02X3738100Y4198180I39881J3D01*
G03X3708220Y4287240I-8102J46824D01*
G01X3703920Y4285020D01*
X3688420D01*
X3623420Y4220020D01*
X3494980D01*
Y4109020D01*
X3418440D01*
X3412670Y4114490D01*
G03X3347290I-32690J-34490D01*
G01X3341520Y4109020D01*
X3312520D01*
Y4211590D01*
G02X3315840Y4227520I39880J0D01*
G01X3299020D01*
Y4246520D01*
X3261520Y4284020D01*
X3228460D01*
X3222690Y4289490D01*
G03X3155580Y4287760I-32688J-34490D01*
G02X3101890Y4284020I-28890J27491D01*
G01X3068460D01*
X3062690Y4289490D01*
G03X2986000Y4237050I-32690J-34489D01*
G01X2987480Y4233420D01*
Y3918580D01*
X2986000Y3914950D01*
G03X2983080Y3904560I43994J-17969D01*
G02X2943710Y3871020I-39371J6338D01*
G01X2815020D01*
G37*
G36*
G01X1488520Y4762520D02*
X1443630Y4807410D01*
G02X1480160Y4874610I28202J28198D01*
G03X1719780Y5003980I43843J205392D01*
G02X1789050Y5013210I37174J-14440D01*
G03X1924120Y4976660I90553J66789D01*
G01X1936540Y4982010D01*
X2087580Y4830980D01*
X2750060D01*
X2784480Y4796560D01*
G02X2770380Y4762520I-14099J-14100D01*
G01X1488520D01*
G37*
G36*
G01X1111020Y4951720D02*
Y5071680D01*
X1313410D01*
X1315570Y5054190D01*
G03X1327560Y5005710I208426J25825D01*
G02X1290260Y4951720I-37301J-14110D01*
G01X1111020D01*
G37*
G36*
G01X2027520Y2782100D02*
Y2937520D01*
X1880610D01*
G02X1866510Y2971560I2J19941D01*
G01X1889080Y2994130D01*
Y3019980D01*
X2088980D01*
Y2822200D01*
G02X2051790Y2782410I-39880J-1D01*
G03X2049690Y2782220I3231J-47409D01*
G01X2048580Y2782100D01*
X2027520D01*
G37*
G36*
G01X2035820Y3304810D02*
G03X2015870Y3307340I-15818J-44810D01*
G02X1972520Y3347070I-3470J39728D01*
G01Y3432060D01*
X1981390Y3437980D01*
G03X2002040Y3470760I-26390J39519D01*
G02X2022520Y3500170I39478J-5655D01*
G01Y3645020D01*
X1695020D01*
Y4502110D01*
G02X1763100Y4530300I39879J-6D01*
G01X1903260Y4390140D01*
X1904740Y4385530D01*
G03X1911760Y4371790I45264J14463D01*
G01X1915650Y4366520D01*
Y4340020D01*
X1856710D01*
X1774980Y4258290D01*
Y4047480D01*
X1999980D01*
Y3949980D01*
X2160020D01*
Y3970980D01*
X2187020D01*
X2201900Y3985860D01*
G02X2269980Y3957660I28200J-28198D01*
G01Y3912520D01*
X2267480D01*
Y3718700D01*
X2231730Y3682950D01*
Y3682940D01*
X2088980Y3540190D01*
Y3342410D01*
G02X2035820Y3304810I-39879J3D01*
G37*
G36*
G01X1975000Y4070000D02*
X1795000D01*
Y4250000D01*
X1865000Y4320000D01*
X2075000D01*
X2140000Y4255000D01*
Y4160000D01*
X1975000D01*
Y4070000D01*
G37*
G36*
G01X4252290Y4451340D02*
Y4472100D01*
X4252360Y4472920D01*
G03X4252500Y4475550I-47363J3840D01*
G01X4252720Y4483500D01*
X4274060Y4504840D01*
X5307880D01*
X5785060Y4982010D01*
X5797480Y4976660D01*
G03X5935770Y5017800I44522J103339D01*
G02X6002230I33230J-22042D01*
G03X6171010Y4996130I93767J62199D01*
G02X6237470Y4967480I26593J-29721D01*
G01X6462520D01*
Y5192520D01*
X6237470D01*
G02X6171010Y5163870I-39867J1071D01*
G03X6002230Y5142200I-75013J-83869D01*
G02X5935770I-33230J22042D01*
G03X5748230I-93770J-62200D01*
G02X5681770I-33230J22042D01*
G03X5494230I-93770J-62200D01*
G02X5427770I-33230J22042D01*
G03X5240230I-93770J-62200D01*
G02X5173770I-33230J22042D01*
G03X4986230I-93770J-62200D01*
G02X4919770I-33230J22042D01*
G03X4732230I-93770J-62200D01*
G02X4665770I-33230J22042D01*
G03X4468660Y5035480I-93774J-62190D01*
G01X4474010Y5023060D01*
X4369980Y4919020D01*
X4180760D01*
X4044700Y4782960D01*
G02X3976620Y4811160I-28200J28198D01*
G01Y4849980D01*
X4094120Y4967480D01*
X4278120D01*
Y5192520D01*
X4053070D01*
G02X3986610Y5163870I-39867J1071D01*
G03X3817830Y5142200I-75013J-83869D01*
G02X3751370I-33230J22042D01*
G03X3563830I-93770J-62200D01*
G02X3497370I-33230J22042D01*
G03X3309830I-93770J-62200D01*
G02X3243370I-33230J22042D01*
G03X3055830I-93770J-62200D01*
G02X2989370I-33230J22042D01*
G03X2795970Y5027700I-93770J-62200D01*
G02X2787740Y4979890I-35310J-18535D01*
G03X2787310Y4979490I32150J-34992D01*
G01X2781540Y4974020D01*
X2642980D01*
X2599440Y4930480D01*
X2493450D01*
G02X2465750Y4999050I1J39880D01*
G03X2293830Y5142200I-78154J80949D01*
G02X2227370I-33230J22042D01*
G03X2039830I-93770J-62200D01*
G02X1973370I-33230J22042D01*
G03X1789050Y5146790I-93766J-62200D01*
G02X1719780Y5156020I-32096J23670D01*
G03X1685240Y5214570I-195775J-76029D01*
G02X1715860Y5280000I30621J25550D01*
G01X6517990D01*
G02X6548500Y5214430I6J-39881D01*
G03X6701500I76500J-64430D01*
G02X6732010Y5280000I30504J25689D01*
G01X7620000D01*
X7745000Y5155000D01*
Y4637020D01*
X7698810D01*
G02X7659340Y4682640I-5J39881D01*
G03X7530660I-64340J9360D01*
G02X7491190Y4637020I-39465J-5739D01*
G01X7445020D01*
Y4741940D01*
X7336930Y4850030D01*
X7283070D01*
X7283060Y4850020D01*
X5888980D01*
X5490300Y4451340D01*
X4252290D01*
G37*
G36*
G01X2422020Y1324020D02*
X2355020Y1391020D01*
Y1505020D01*
X2279020D01*
Y1542020D01*
X2260100Y1560940D01*
G02X2274200Y1594980I14099J14100D01*
G01X2355020D01*
Y1695020D01*
X2279020D01*
Y1777980D01*
X2296520Y1795480D01*
X2632710D01*
Y1774720D01*
X2632640Y1773900D01*
G03X2632500Y1771270I47363J-3840D01*
G01X2632280Y1763320D01*
X2600980Y1732020D01*
Y1702520D01*
X2587480D01*
Y1397480D01*
X2760980D01*
Y1362020D01*
X2722980Y1324020D01*
X2422020D01*
G37*
G36*
G01X2247500Y1853520D02*
Y1873690D01*
X2247510Y1873920D01*
G03X2247220Y1880310I-47508J1045D01*
G01X2247100Y1881420D01*
Y1902480D01*
X2250020D01*
Y1904980D01*
X2450020D01*
Y1994980D01*
X2549980D01*
Y1902480D01*
X2650020D01*
Y2024280D01*
X2655720Y2029980D01*
X2729980D01*
Y1853520D01*
X2247500D01*
G37*
G36*
G01X1967520Y1939020D02*
Y2035300D01*
X1970480Y2040100D01*
G03X1931270Y2112500I-40477J24896D01*
G01X1923320Y2112720D01*
X1900100Y2135940D01*
G02X1914200Y2169980I14099J14100D01*
G01X2020980D01*
Y1962520D01*
X1997480Y1939020D01*
X1967520D01*
G37*
G36*
G01X2250020Y2005020D02*
Y2097520D01*
X2195760D01*
G02X2167560Y2165600I-2J39880D01*
G01X2197560Y2195600D01*
Y2323480D01*
X2177720Y2343320D01*
X2177500Y2351270D01*
G03X2164260Y2382930I-47502J-1267D01*
G02X2164810Y2438770I28748J27640D01*
G01X2255020Y2528980D01*
Y3471390D01*
X2284400Y3500770D01*
G02X2352480Y3472570I28200J-28198D01*
G01Y3404980D01*
X2493480D01*
G02X2532960Y3370760I4J-39880D01*
G03X2533310Y3368670I47030J6802D01*
G01X2533660Y3366830D01*
Y3345020D01*
X2352480D01*
Y3204980D01*
X2493480D01*
G02X2532960Y3170760I4J-39880D01*
G03X2533310Y3168670I47030J6802D01*
G01X2533660Y3166830D01*
Y3145020D01*
X2352480D01*
Y2985020D01*
X2299980D01*
Y2764980D01*
X2417570D01*
X2504450Y2678100D01*
X2774980D01*
Y2534020D01*
X2700020D01*
Y2585020D01*
X2539980D01*
Y2345020D01*
X2460020D01*
Y2585020D01*
X2299980D01*
Y2364980D01*
X2352480D01*
Y2204980D01*
X2647520D01*
Y2364980D01*
X2700020D01*
Y2442040D01*
X2714790Y2446010D01*
G03X2732030Y2458420I-7784J28994D01*
G01X2733140Y2460090D01*
X2740940Y2467900D01*
G02X2774980Y2453800I14100J-14099D01*
G01Y2452480D01*
X2898180D01*
Y2293140D01*
X2876190D01*
X2834980Y2251930D01*
Y2239510D01*
X2764980Y2169510D01*
Y2147520D01*
X2729980D01*
Y2130020D01*
X2614280D01*
X2581780Y2097520D01*
X2549980D01*
Y2095020D01*
X2349980D01*
Y2005020D01*
X2250020D01*
G37*
G36*
G01X1995020Y4050020D02*
Y4139980D01*
X2183980D01*
X2210980Y4112980D01*
Y4077020D01*
X2183980Y4050020D01*
X1995020D01*
G37*
G36*
G01X2797630Y2930020D02*
X2791930Y2935190D01*
G03X2749070Y2946250I-31937J-35188D01*
G02X2700020Y2985020I-9172J38809D01*
G01X2647520D01*
Y3150150D01*
G02X2627350Y3181520I19566J34750D01*
G03X2627220Y3182810I-47340J-4119D01*
G01X2627100Y3183920D01*
Y3204980D01*
X2647520D01*
Y3350150D01*
G02X2627350Y3381520I19566J34750D01*
G03X2627220Y3382810I-47340J-4119D01*
G01X2627100Y3383920D01*
Y3404980D01*
X2647520D01*
Y3554980D01*
X2678980D01*
X2835590Y3398370D01*
G02X2816340Y3331310I-28200J-28198D01*
G03X2792510Y3252310I10660J-46310D01*
G01X2797980Y3246540D01*
Y3214070D01*
G02X2786210Y3150910I-29117J-27251D01*
G03X2795610Y3061960I20671J-42787D01*
G02X2825640Y3017670I-9463J-38742D01*
G03X2840090Y2976490I47060J-6612D01*
G01X2840310Y2976290D01*
X2854610Y2961990D01*
X2822650Y2930020D01*
X2797630D01*
G37*
G36*
G01X2290000Y3750000D02*
Y4030000D01*
X2425000D01*
X2435000Y4020000D01*
X2795000D01*
Y3875000D01*
X2791020Y3871020D01*
X2729980D01*
X2608960Y3750000D01*
X2290000D01*
G37*
G36*
G01X3141770Y316200D02*
G03X3108020Y349180I-93769J-62199D01*
G01Y466860D01*
X3040020Y534860D01*
Y959980D01*
X3105000D01*
G03X3139250Y970710I0J60028D01*
G02X3201890Y937960I22761J-32746D01*
G01Y857060D01*
X3272980Y785970D01*
Y363550D01*
X3260410Y358550D01*
G03X3208230Y316200I41583J-104555D01*
G02X3141770I-33230J22042D01*
G37*
G36*
G01X3395770D02*
G03X3343590Y358550I-93763J-62205D01*
G01X3331020Y363550D01*
Y810010D01*
X3259930Y881100D01*
Y1000980D01*
X3331540D01*
X3337310Y995510D01*
G03Y1064490I32690J34490D01*
G01X3331540Y1059020D01*
X3247020D01*
X3027020Y1279020D01*
X2808200D01*
G02X2794100Y1313060I-1J19940D01*
G01X2802020Y1320980D01*
X3302980D01*
X3387980Y1235980D01*
X3456100D01*
G02X3495980Y1196070I0J-39880D01*
G01Y349180D01*
G03X3462230Y316200I60019J-95179D01*
G02X3395770I-33230J22042D01*
G37*
G36*
G01X2912520Y1379020D02*
Y1440980D01*
X2932020D01*
X2964020Y1472980D01*
Y1736800D01*
G02X2998060Y1750900I19940J1D01*
G01X3025980Y1722980D01*
Y1379020D01*
X2912520D01*
G37*
G36*
G01X3412020Y1294020D02*
X3320020Y1386020D01*
Y1697520D01*
X3179980D01*
Y1379020D01*
X3084020D01*
Y1747020D01*
X3012720Y1818320D01*
X3012500Y1826270D01*
G03X3011200Y1836130I-47503J-1247D01*
G02X3046110Y1853310I19384J4671D01*
G03X3080500Y1835670I37010J29809D01*
G02X3117520Y1803100I-2196J-39820D01*
G01X3389850D01*
G02X3420980Y1738290I2J-39880D01*
G01Y1382980D01*
X3475900Y1328060D01*
G02X3461800Y1294020I-14099J-14100D01*
G01X3412020D01*
G37*
G36*
G01X2983310Y1868850D02*
G03X2933820Y1860860I-18310J-43850D01*
G02X2879450Y1862750I-26172J30090D01*
G01X2874180Y1868020D01*
X2870020D01*
Y2023100D01*
X3058220D01*
Y2029100D01*
X3219680D01*
Y2007040D01*
X3219240Y2004970D01*
G03X3218840Y2002890I46452J-10012D01*
G01X3218180Y1998970D01*
Y1963140D01*
X3117520D01*
G02X3080500Y1930570I-39216J7250D01*
G03X3037210Y1895370I2624J-47447D01*
G02X2983310Y1868850I-38533J10282D01*
G37*
G36*
G01X3605980Y2085640D02*
X3580100D01*
X3575130Y2088890D01*
G03X3563320Y2094470I-26013J-39768D01*
G02X3549490Y2111030I5955J19028D01*
G03X3509810Y2152090I-47158J-5870D01*
G02X3493420Y2167740I3134J19690D01*
G03X3414190Y2192610I-46538J-9619D01*
G01X3408420Y2187140D01*
X3058220D01*
Y2271600D01*
G02X3092440Y2311080I39880J4D01*
G03X3132570Y2350290I-6741J47039D01*
G02X3171910Y2383600I39335J-6570D01*
G01X3735360D01*
X3747980Y2370980D01*
X3836540D01*
X3842310Y2365510D01*
G03X3871110Y2447360I32690J34489D01*
G02X3849840Y2463760I-1636J19872D01*
G03X3796650Y2502590I-46798J-8260D01*
G02X3754200Y2527460I-5359J39516D01*
G03X3708850Y2557510I-44199J-17459D01*
G02X3688800Y2573620I-482J19932D01*
G03X3684500Y2586080I-46638J-9123D01*
G02X3720030Y2644070I35529J18111D01*
G01X4118030D01*
X4403060Y2929100D01*
X4448180D01*
Y2437140D01*
X4338900D01*
X4323440Y2452600D01*
X4172040D01*
X4166270Y2458070D01*
G03Y2389090I-32690J-34490D01*
G01X4172040Y2394560D01*
X4299400D01*
X4314860Y2379100D01*
X4448180D01*
Y2287140D01*
X4105980D01*
X4080300Y2312820D01*
X4080080Y2320770D01*
G03X4031310Y2272000I-47500J-1270D01*
G01X4039260Y2271780D01*
X4071940Y2239100D01*
G02X4057840Y2205060I-14099J-14100D01*
G01X4020990D01*
X4012030Y2214020D01*
X3652990D01*
X3605980Y2167010D01*
Y2085640D01*
G37*
G36*
G01X3211570Y2587140D02*
G02X3172070Y2621540I1J39879D01*
G03X3092000Y2649200I-47071J-6537D01*
G01X3086210Y2643610D01*
X3058220D01*
Y2671600D01*
G02X3092440Y2711080I39880J4D01*
G03Y2805160I-6740J47040D01*
G02X3058220Y2844640I5660J39476D01*
G01Y3029100D01*
X3111190D01*
X3117180Y3021230D01*
G03X3153730Y3002500I37818J28772D01*
G01X3161680Y3002280D01*
X3519890Y2644070D01*
X3630560D01*
Y2612120D01*
X3619940Y2606500D01*
G03X3609470Y2598990I22206J-42011D01*
G01X3603700Y2593520D01*
X3575640D01*
X3569260Y2587140D01*
X3211570D01*
G37*
G36*
G01X2700020Y2738140D02*
Y2814940D01*
G02X2749070Y2853750I39878J1D01*
G03X2791930Y2864810I10923J46248D01*
G01X2797630Y2869980D01*
X2847510D01*
X2864140Y2886610D01*
G02X2898180Y2872510I14099J-14102D01*
G01Y2738140D01*
X2700020D01*
G37*
G36*
G01X3264980Y3031980D02*
X3238520Y3058440D01*
Y3084600D01*
X3189600Y3133520D01*
X3120400D01*
X3092260Y3105380D01*
G02X3058220Y3119480I-14100J14099D01*
G01Y3219980D01*
X3198060D01*
X3299020Y3119020D01*
Y3046080D01*
G02X3264980Y3031980I-19940J-1D01*
G37*
G36*
G01X3084140Y3397820D02*
X3082940Y3399020D01*
X2967940D01*
X2838520Y3528440D01*
Y3592520D01*
X2797720Y3633320D01*
X2797500Y3641270D01*
G03X2780560Y3676390I-47502J-1267D01*
G02X2778010Y3735130I25647J30539D01*
G01X2783860Y3740980D01*
X2927480D01*
Y3606590D01*
X2924080Y3601540D01*
G03X3008760Y3560530I39417J-26541D01*
G01X3010240Y3565140D01*
X3035020Y3589920D01*
Y3604980D01*
X3061220D01*
G02X3100660Y3559220I-4J-39880D01*
G03X3112850Y3519860I47000J-7011D01*
G01X3118180Y3514130D01*
Y3411920D01*
G02X3084140Y3397820I-19940J-1D01*
G37*
G36*
G01X3232020Y4614020D02*
X3004440Y4841600D01*
X2821520D01*
X2785260Y4877860D01*
X2806020Y4898620D01*
X2815390Y4897700D01*
G03X2866610Y4935720I4612J47299D01*
G02X2903070Y4967730I39112J-7780D01*
G03X2989370Y5017800I-7464J112273D01*
G02X3055830I33230J-22042D01*
G03X3243370I93770J62200D01*
G02X3309830I33230J-22042D01*
G03X3497370I93770J62200D01*
G02X3563830I33230J-22042D01*
G03X3616010Y4975450I93763J62205D01*
G01X3628580Y4970450D01*
Y4910880D01*
X3797280Y4742180D01*
X3797500Y4734230D01*
G03X3798180Y4727370I47503J1245D01*
G01X3798470Y4725680D01*
Y4704020D01*
X3702980D01*
X3672980Y4674020D01*
X3453460D01*
X3447690Y4679490D01*
G03X3367730Y4649840I-32688J-34490D01*
G02X3328050Y4614020I-39673J4061D01*
G01X3232020D01*
G37*
G36*
G01X3803530Y2912590D02*
G03X3723350Y2945530I-47493J-1551D01*
G01X3717580Y2940060D01*
X3689520D01*
X3688480Y2939020D01*
X3621480D01*
X3463980Y3096520D01*
X3454520D01*
X3383140Y3167900D01*
G02X3411340Y3235980I28198J28200D01*
G01X3434100D01*
X3532220Y3334100D01*
Y3353100D01*
X3574180D01*
Y3314780D01*
X3752980Y3135980D01*
X3798480D01*
X3804440Y3130020D01*
X3832500D01*
X3838270Y3124550D01*
G03X3918370Y3162340I32693J34489D01*
G02X3958150Y3204980I39782J2762D01*
G01X4008980D01*
X4081780Y3132180D01*
X4126780D01*
X4132550Y3126710D01*
G03X4197520Y3126330I32688J34490D01*
G02X4221100Y3128930I13547J-14634D01*
G03X4239890Y3122760I23895J41073D01*
G02X4275480Y3083110I-4291J-39650D01*
G01Y3058900D01*
X4231180Y3014600D01*
Y3012220D01*
X4133530Y2914570D01*
X3918530D01*
X3877980Y2874020D01*
X3843390D01*
G02X3803530Y2912590I0J39881D01*
G37*
G36*
G01X3473350Y3756020D02*
X3445790Y3783580D01*
G02X3456200Y3847470I28200J28198D01*
G03X3467690Y3855510I-21201J42529D01*
G01X3473460Y3860980D01*
X3767020D01*
X3872020Y3965980D01*
X3932480D01*
Y3957480D01*
X3995980D01*
Y3841980D01*
X4013860Y3824100D01*
G02X3985660Y3756020I-28198J-28200D01*
G01X3473350D01*
G37*
G36*
G01X3367540Y3861830D02*
X3358350Y3871020D01*
X3237250D01*
Y3891850D01*
X3237330Y3892750D01*
G03X3237360Y3900900I-47330J4249D01*
G01X3237290Y3901720D01*
Y3922480D01*
X3312520D01*
Y4026480D01*
X3337020Y4050980D01*
X3342350D01*
G03X3412670Y4045510I37630J29020D01*
G01X3418440Y4050980D01*
X3494980D01*
Y3975060D01*
G02X3445930Y3936250I-39878J-1D01*
G03X3387480Y3890020I-10929J-46248D01*
G01Y3881770D01*
X3367540Y3861830D01*
G37*
G36*
G01X3315480Y4420560D02*
X3248140Y4487900D01*
G02X3276340Y4555980I28198J28200D01*
G01X3462750D01*
G02X3502580Y4518130I2J-39879D01*
G03X3502880Y4514710I47457J2440D01*
G02X3479350Y4492670I-19790J-2453D01*
G03X3423550Y4453850I-8933J-46673D01*
G02X3384220Y4420560I-39331J6589D01*
G01X3315480D01*
G37*
G36*
G01X3725480Y1442960D02*
X3720010Y1437190D01*
G03X3709040Y1418330I34494J-32684D01*
G01X3704740Y1404190D01*
X3670020D01*
Y1723190D01*
X3691530D01*
G03X3693690Y1722850I8475J46809D01*
G01X3694320Y1722710D01*
G02X3725480Y1683800I-8720J-38915D01*
G01Y1442960D01*
G37*
G36*
G01X3878710Y3625980D02*
G02X3918080Y3592440I-1J-39878D01*
G03X3957420Y3553090I46915J7564D01*
G01X3973440Y3550500D01*
X3974180Y3549760D01*
Y3513140D01*
X3636720D01*
Y3573220D01*
X3618000Y3591940D01*
G02X3632100Y3625980I14099J14100D01*
G01X3878710D01*
G37*
G36*
G01X3882580Y4780670D02*
X3859990D01*
X3857430Y4781370D01*
G03X3846270Y4783000I-12399J-45874D01*
G01X3838320Y4783220D01*
X3686620Y4934920D01*
Y4970450D01*
X3699190Y4975450D01*
G03X3751370Y5017800I-41583J104555D01*
G02X3817830I33230J-22042D01*
G03X3870010Y4975450I93763J62205D01*
G01X3882580Y4970450D01*
Y4780670D01*
G37*
G36*
G01X4245940Y1517020D02*
X4233600Y1529360D01*
Y1706360D01*
X4204940Y1735020D01*
G02X4233140Y1803100I28198J28200D01*
G01X4268180D01*
Y1742790D01*
X4289780Y1721190D01*
X4279980Y1697520D01*
Y1531120D01*
G02X4245940Y1517020I-19940J-1D01*
G37*
G36*
G01X4105420Y2764350D02*
G03X4042620Y2762080I-30112J-36761D01*
G01X4036850Y2756610D01*
X3986820D01*
Y2780180D01*
X3988100Y2783570D01*
G03X3990300Y2809190I-44480J16724D01*
G02X4029480Y2856530I39176J7460D01*
G01X4157570D01*
X4237120Y2936080D01*
G02X4287850Y2940790I28201J-28196D01*
G03X4292890Y2937780I26839J39216D01*
G01X4295650Y2936360D01*
X4311940Y2920060D01*
X4158890Y2767010D01*
G02X4105420Y2764350I-28204J28196D01*
G37*
G36*
G01X4183540Y3513140D02*
G02X4155340Y3581220I-2J39880D01*
G01X4164100Y3589980D01*
X4923980D01*
X4932440Y3581520D01*
Y3556520D01*
X4941830Y3547130D01*
X4931630Y3522520D01*
X4829980D01*
Y3197020D01*
X4826100Y3193140D01*
X4770020D01*
Y3522520D01*
X4629980D01*
Y3411810D01*
G02X4585490Y3372200I-39880J3D01*
G03X4552440Y3363710I-5490J-47201D01*
G01X4547250Y3360020D01*
X4543690D01*
X4493180Y3309510D01*
Y3293140D01*
X4448180D01*
Y3194320D01*
G02X4414870Y3154990I-39880J5D01*
G03X4399290Y3149470I7837J-46868D01*
G01X4394710Y3146880D01*
X4369520D01*
Y3273350D01*
X4379270Y3279150D01*
G03X4392450Y3349260I-24269J40856D01*
G01X4388220Y3354670D01*
Y3513140D01*
X4183540D01*
G37*
G36*
G01X5160020Y3496040D02*
Y3556950D01*
X4996940Y3720030D01*
X4943080D01*
X4943070Y3720020D01*
X4511150D01*
G02X4471580Y3754940I0J39880D01*
G03X4391740Y3783520I-47151J-5910D01*
G01X4385970Y3778050D01*
X4352010D01*
X4329980Y3756020D01*
X4276150D01*
G02X4236750Y3789730I-1J39879D01*
G03X4219810Y3819210I-46945J-7369D01*
G02X4210780Y3870600I25193J30915D01*
G03X4182300Y3940900I-40779J24399D01*
G01X4167520Y3944860D01*
Y4124980D01*
X4214680D01*
Y4102790D01*
X4214180Y4100590D01*
G03X4239430Y4047400I46324J-10598D01*
G02X4250080Y4025270I-8831J-17878D01*
G03X4329190Y3980640I46424J-10139D01*
G01X4334960Y3986110D01*
X4872850D01*
X5235980Y3622980D01*
Y3537370D01*
G02X5195140Y3497510I-39878J7D01*
G03X5184110Y3496480I-1127J-47508D01*
G01X5182060Y3496040D01*
X5160020D01*
G37*
G36*
G01X4167520Y4185020D02*
Y4192520D01*
X4119020D01*
Y4267020D01*
X4098780Y4287260D01*
G02X4112880Y4321300I14099J14100D01*
G01X5617340D01*
X5767020Y4470980D01*
X5883010D01*
Y4445380D01*
X5880030Y4440560D01*
G02X5851760Y4422040I-33930J20956D01*
G03Y4327960I6740J-47040D01*
G02X5885450Y4294980I-5658J-39477D01*
G01X6046020D01*
Y4470980D01*
X6095980D01*
Y4294980D01*
X6124390D01*
G02X6138490Y4260940I-2J-19941D01*
G01X6127570Y4250020D01*
X4447570D01*
X4382570Y4185020D01*
X4167520D01*
G37*
G36*
G01X4537860Y4713900D02*
X4515640Y4691680D01*
X4507690Y4691460D01*
G03X4461440Y4644320I1268J-47503D01*
G02X4421560Y4604750I-39878J309D01*
G01X4361290D01*
X4322750Y4643290D01*
X4153690D01*
X4147920Y4648760D01*
G03X4145960Y4650520I-32718J-34465D01*
G01X4145330Y4651050D01*
X4130650Y4665730D01*
X4246900Y4781980D01*
X4509660D01*
G02X4537860Y4713900I2J-39880D01*
G37*
G36*
G01X4494360Y930020D02*
X4302020Y1122360D01*
Y1295540D01*
X4302040Y1295560D01*
Y1402480D01*
X4449970D01*
Y1290310D01*
X4455820Y1284460D01*
Y1284450D01*
X4530210Y1210060D01*
X4530220D01*
X4714210Y1026070D01*
X4768070D01*
X4768080Y1026080D01*
X5545690D01*
Y1003550D01*
X5545030Y1001040D01*
G03X5543470Y990160I45942J-12139D01*
G01X5543250Y982210D01*
X5491060Y930020D01*
X4494360D01*
G37*
G36*
G01X4544020Y1941910D02*
X4530910Y1955020D01*
G02X4559110Y2023100I28198J28200D01*
G01X4608220D01*
Y2029100D01*
X4630780D01*
G02X4658980Y1961020I2J-39880D01*
G01X4612100Y1914140D01*
G02X4544020Y1941910I-28202J28198D01*
G37*
G36*
G01X4608220Y2737140D02*
Y2823510D01*
G02X4658090Y2862120I39881J1D01*
G03X4716610Y2917350I11908J46001D01*
G02X4755730Y2964980I39121J7749D01*
G01X4919700D01*
Y2936190D01*
X4913130Y2930250D01*
G03X4905100Y2920810I31872J-35247D01*
G02X4882190Y2912680I-16741J10831D01*
G03X4833000Y2834800I-14701J-45189D01*
G01X4838470Y2829030D01*
Y2795130D01*
G02X4802370Y2755430I-39878J-1D01*
G03X4781850Y2748510I4526J-47304D01*
G01X4777020Y2745520D01*
X4713520D01*
X4705140Y2737140D01*
X4608220D01*
G37*
G36*
G01X4553670Y4604750D02*
Y4627600D01*
X4554500Y4630390D01*
G03X4556460Y4642690I-45542J13563D01*
G01X4556680Y4650640D01*
X4652020Y4745980D01*
X5041020D01*
X5277060Y4982010D01*
X5289480Y4976660D01*
G03X5337120Y4967520I44523J103339D01*
G02X5366420Y4899460I1099J-39864D01*
G01X5071710Y4604750D01*
X4553670D01*
G37*
G36*
G01X4723340Y4840020D02*
G02X4695140Y4908100I-2J39880D01*
G01X4769060Y4982010D01*
X4781480Y4976660D01*
G03X4829120Y4967520I44523J103339D01*
G02X4858420Y4899460I1099J-39864D01*
G01X4798980Y4840020D01*
X4723340D01*
G37*
G36*
G01X4505340Y4876020D02*
G02X4477140Y4944100I-2J39880D01*
G01X4515060Y4982010D01*
X4527480Y4976660D01*
G03X4575120Y4967520I44523J103339D01*
G02X4604420Y4899460I1099J-39864D01*
G01X4580980Y4876020D01*
X4505340D01*
G37*
G36*
G01X5192530Y366520D02*
X5109020D01*
Y392020D01*
X4943140Y557900D01*
G02X4971340Y625980I28198J28200D01*
G01X5047980D01*
X5270240Y403720D01*
G02X5266100Y343720I-28203J-28197D01*
G03X5258990Y337870I67876J-89741D01*
G02X5192530Y366520I-26593J29721D01*
G37*
G36*
G01X4890980Y1422900D02*
Y1402980D01*
X4987980Y1305980D01*
X5137900D01*
X5155400Y1288480D01*
X5224600D01*
X5227100Y1290980D01*
X5599020D01*
X5694020Y1385980D01*
Y1404980D01*
X5705020D01*
Y1425980D01*
X5830980D01*
Y1330870D01*
X5847150Y1314700D01*
G02X5818950Y1246620I-28198J-28200D01*
G01X4866650D01*
G02X4827110Y1291710I-1J39881D01*
G03X4814490Y1330610I-47111J6213D01*
G01X4809020Y1336380D01*
Y1408580D01*
G02X4877100Y1436780I39880J2D01*
G01X4890980Y1422900D01*
G37*
G36*
G01X4910540Y1485420D02*
X4879020Y1516940D01*
Y1676520D01*
X4893480Y1690980D01*
X4987480D01*
Y1556210D01*
G02X4954170Y1516870I-39880J-5D01*
G03X4925750Y1500730I7826J-46872D01*
G01X4925220Y1500100D01*
X4910540Y1485420D01*
G37*
G36*
G01X4803760Y1740720D02*
G02X4741080Y1748880I-28200J28200D01*
G03X4722100Y1767070I-41087J-23874D01*
G02X4712450Y1830570I18550J35302D01*
G01X4767900Y1886020D01*
G02X4835980Y1857820I28200J-28198D01*
G01Y1772940D01*
X4803760Y1740720D01*
G37*
G36*
G01X4894020Y1749020D02*
Y2536140D01*
X5051020Y2693140D01*
Y2737560D01*
G02X5070530Y2757490I19939J-5D01*
G03X5094980Y2764890I-1034J47509D01*
G01Y2754980D01*
X5170980D01*
Y2712480D01*
X5195980Y2687480D01*
Y2682630D01*
G03X5202580Y2603100I29020J-37631D01*
G02X5211970Y2539740I-18812J-35164D01*
G01X5204670Y2532440D01*
G02X5152980Y2528410I-28201J28198D01*
G03X5077500Y2491270I-27978J-38410D01*
G01X5077280Y2483320D01*
X5040980Y2447020D01*
Y2342520D01*
X5032480D01*
Y2112520D01*
X5000980Y2081020D01*
Y1787980D01*
X5005900Y1783060D01*
G02X4991800Y1749020I-14099J-14100D01*
G01X4894020D01*
G37*
G36*
G01X4992480Y3083560D02*
X4979520Y3096520D01*
X4917520D01*
Y3108290D01*
G02X4905120Y3173100I15803J36615D01*
G01X4935020Y3202990D01*
Y3227480D01*
X4970020D01*
Y3443160D01*
G02X5005380Y3482790I39881J6D01*
G03X5014190Y3484650I-5367J47214D01*
G02X5065980Y3446590I11910J-38060D01*
G01Y3157050D01*
X4992480Y3083560D01*
G37*
G36*
G01X5352020Y3164340D02*
Y3644020D01*
X4899100Y4096940D01*
G02X4913200Y4130980I14099J14100D01*
G01X4948900D01*
X5515980Y3563900D01*
Y3313460D01*
X5510510Y3307690D01*
G03X5506760Y3246790I34490J-32689D01*
G01X5516940Y3232980D01*
X5420100Y3136140D01*
G02X5352020Y3164340I-28200J28198D01*
G37*
G36*
G01X6946480Y2785840D02*
G02X6878400Y2757640I-39880J-2D01*
G01X6818020Y2818020D01*
X6727550D01*
X6722550Y2830590D01*
G03X6680200Y2882770I-104555J-41583D01*
G02Y2949230I22042J33230D01*
G03X6542990Y3126870I-62205J93763D01*
G02X6476530Y3155520I-26593J29721D01*
G01X6260020D01*
Y3565000D01*
G03X6129980I-65020J0D01*
G01Y3388810D01*
G02X6084360Y3349340I-39881J-5D01*
G03X6053240Y3346270I-9364J-64341D01*
G02X6000020Y3383850I-13340J37583D01*
G01Y3565000D01*
G03X5869980I-65020J0D01*
G01Y3289780D01*
G02X5828160Y3249940I-39881J-6D01*
G03X5779090Y3231040I-3162J-64942D01*
G02X5750900Y3231060I-14085J14115D01*
G01X5737670Y3244290D01*
Y3576630D01*
X5997020Y3835980D01*
X6726540D01*
X6732310Y3830510D01*
G03Y3899490I32690J34490D01*
G01X6726540Y3894020D01*
X5972980D01*
X5679630Y3600670D01*
Y3229020D01*
X5632190D01*
G02X5592400Y3271680I-6J39881D01*
G03X5579490Y3307690I-47402J3325D01*
G01X5574020Y3313460D01*
Y3587940D01*
X5040060Y4121900D01*
G02X5068260Y4189980I28198J28200D01*
G01X6152430D01*
X6206020Y4243570D01*
Y4294980D01*
X6256020D01*
Y4470980D01*
X6697980D01*
X6872980Y4295980D01*
X7064980D01*
Y4227020D01*
X7025980D01*
X6946980Y4148020D01*
Y2805100D01*
X6946480Y2804600D01*
Y2785840D01*
G37*
G36*
G01X4941340Y4804020D02*
G02X4913140Y4872100I-2J39880D01*
G01X5023060Y4982010D01*
X5035480Y4976660D01*
G03X5083120Y4967520I44523J103339D01*
G02X5112420Y4899460I1099J-39864D01*
G01X5016980Y4804020D01*
X4941340D01*
G37*
G36*
G01X5427770Y316200D02*
G03X5375590Y358550I-93763J-62205D01*
G01X5363020Y363550D01*
Y393020D01*
X5153140Y602900D01*
G02X5181340Y670980I28198J28200D01*
G01X5251480D01*
X5521140Y401320D01*
G02X5517820Y341950I-28198J-28201D01*
G03X5494230Y316200I70168J-87963D01*
G02X5427770I-33230J22042D01*
G37*
G36*
G01X5681770D02*
G03X5629590Y358550I-93763J-62205D01*
G01X5617020Y363550D01*
Y387520D01*
X5346640Y657900D01*
G02X5374840Y725980I28198J28200D01*
G01X5457980D01*
X5779380Y404580D01*
G02X5774950Y344360I-28200J-28198D01*
G03X5748230Y316200I67041J-90369D01*
G02X5681770I-33230J22042D01*
G37*
G36*
G01X5494910Y1404980D02*
X5582800D01*
G02X5596900Y1370940I1J-19940D01*
G01X5574980Y1349020D01*
X5389150D01*
Y1372150D01*
X5390150Y1375180D01*
G03X5392500Y1388730I-45152J14810D01*
G01X5392720Y1396680D01*
X5426900Y1430860D01*
G02X5494910Y1404980I28199J-28199D01*
G37*
G36*
G01X5424630Y1974520D02*
X5352590Y2046560D01*
X5401920Y2095880D01*
X5416070Y2081730D01*
X5416130Y2081670D01*
G03X5477560Y2076290I33870J33331D01*
G01X5482750Y2079980D01*
X5577600D01*
G02X5617480Y2040050I0J-39880D01*
G03X5619560Y2026080I47522J-64D01*
G02X5581430Y1974520I-38129J-11682D01*
G01X5424630D01*
G37*
G36*
G01X5698540Y2465420D02*
X5620440Y2543520D01*
X5441020D01*
Y2872060D01*
X5461940Y2892980D01*
X5494980D01*
Y2754980D01*
X5570980D01*
Y2652980D01*
X5720980Y2502980D01*
Y2487630D01*
G03X5713750Y2480730I29012J-37637D01*
G01X5713220Y2480100D01*
X5698540Y2465420D01*
G37*
G36*
G01X5424100Y3058060D02*
X5537020Y3170980D01*
X5677980D01*
X5687980Y3160980D01*
Y3045020D01*
X5494980D01*
Y3024020D01*
X5438200D01*
G02X5424100Y3058060I-1J19940D01*
G37*
G36*
G01X5208200Y4562880D02*
G02X5180000Y4630960I-2J39880D01*
G01X5531060Y4982010D01*
X5543480Y4976660D01*
G03X5591120Y4967520I44523J103339D01*
G02X5620420Y4899460I1099J-39864D01*
G01X5283840Y4562880D01*
X5208200D01*
G37*
G36*
G01X5705020Y1484020D02*
Y1505020D01*
X5629020D01*
Y1524020D01*
X5603040Y1550000D01*
X5629020Y1575980D01*
Y1594980D01*
X5705020D01*
Y1624180D01*
X5737150D01*
X5742710Y1613330D01*
G03X5788320Y1587600I42288J21672D01*
G02X5830980Y1547810I2779J-39784D01*
G01Y1484020D01*
X5705020D01*
G37*
G36*
G01X5839340Y2541690D02*
X5782020Y2599010D01*
Y2767970D01*
G02X5850100Y2796160I39879J-6D01*
G01X5881280Y2764980D01*
X5894980D01*
Y2754980D01*
X5970980D01*
Y2582410D01*
X5907100Y2518530D01*
G02X5839340Y2541690I-28200J28198D01*
G37*
G36*
G01X6897020Y4354020D02*
X6722020Y4529020D01*
X5836340D01*
G02X5808140Y4597100I-2J39880D01*
G01X5967020Y4755980D01*
X7102910D01*
G02X7141720Y4706940I-4J-39880D01*
G03X7140660Y4682640I63281J-14934D01*
G02X7101190Y4637020I-39465J-5739D01*
G01X7064980D01*
Y4539260D01*
G02X7027340Y4499450I-39878J5D01*
G03X7040590Y4405680I2659J-47445D01*
G01X7042790Y4406180D01*
X7064980D01*
Y4354020D01*
X6897020D01*
G37*
G36*
G01X6279700Y1298590D02*
G02X6331030Y1332810I39688J-3924D01*
G03X6334850Y1331770I18982J62187D01*
G02X6353750Y1264790I-9299J-38781D01*
G01X6281690Y1192730D01*
X6273740Y1192510D01*
G03X6228140Y1152830I1270J-47501D01*
G02X6188810Y1119520I-39335J6570D01*
G01X6168360D01*
X6027220Y1260660D01*
X6065930Y1299380D01*
G02X6129210Y1323670I39171J-7476D01*
G01X6139730D01*
X6149840Y1313550D01*
X6149990Y1304030D01*
G03X6279700Y1298590I65010J970D01*
G37*
G36*
G01X7030940Y1186100D02*
X7015020Y1202020D01*
Y1445140D01*
X7015030Y1445150D01*
Y1499010D01*
X6924020Y1590020D01*
X6718980D01*
X6626980Y1498020D01*
Y1487100D01*
X6527100Y1387220D01*
G02X6459020Y1415420I-28200J28198D01*
G01Y1512680D01*
X6300800Y1670900D01*
G02X6329000Y1738980I28198J28200D01*
G01X6660020D01*
X6730300Y1809260D01*
X7120980D01*
Y1602980D01*
X7216240Y1507720D01*
G02X7194490Y1440160I-28198J-28203D01*
G03X7140660Y1366640I10511J-64162D01*
G02X7101190Y1321020I-39465J-5739D01*
G01X7064980D01*
Y1200200D01*
G02X7030940Y1186100I-19940J-1D01*
G37*
G36*
G01X6474860Y2055900D02*
X6455320Y2075450D01*
X6454940Y2083140D01*
G03X6449280Y2106700I-64941J-3141D01*
G02X6464490Y2156880I36365J16373D01*
G03X6430000Y2277020I-34490J55119D01*
G01X6342670D01*
X6303290Y2316400D01*
G02X6331490Y2384480I28199J28200D01*
G01X6707160D01*
G02X6735360Y2316400I2J-39880D01*
G01X6474860Y2055900D01*
G37*
G36*
G01X6990980Y2393660D02*
Y1958300D01*
X6973180Y1940500D01*
X6965230Y1940280D01*
G03X6933810Y1927270I1266J-47502D01*
G01X6928040Y1921800D01*
X6690760D01*
X6601980Y1833020D01*
X6430340D01*
G02X6402140Y1901100I-2J39880D01*
G01X6922900Y2421860D01*
G02X6990980Y2393660I28200J-28198D01*
G37*
G36*
G01X6712150Y2473380D02*
G03X6680200Y2628770I-94149J61622D01*
G02Y2695230I22042J33230D01*
G03X6722550Y2747410I-62205J93763D01*
G01X6727550Y2759980D01*
X6793980D01*
X6890220Y2663740D01*
G02X6892810Y2610200I-28201J-28197D01*
G03X6882000Y2581270I36692J-30195D01*
G01X6881780Y2573320D01*
X6750980Y2442520D01*
X6728830D01*
G02X6712150Y2473380I2J19939D01*
G37*
G36*
G01X6457770Y2597200D02*
G03X6426200Y2628770I-93770J-62200D01*
G02Y2695230I22042J33230D01*
G03X6457770Y2726800I-62200J93770D01*
G02X6524230I33230J-22042D01*
G03X6555800Y2695230I93770J62200D01*
G02Y2628770I-22042J-33230D01*
G03X6524230Y2597200I62200J-93770D01*
G02X6457770I-33230J22042D01*
G37*
G36*
G01X7013790Y1867300D02*
Y1888060D01*
X7013860Y1888880D01*
G03X7014000Y1891510I-47363J3840D01*
G01X7014220Y1899460D01*
X7049020Y1934260D01*
Y2354980D01*
X7335980D01*
Y2322020D01*
X7120980Y2107020D01*
Y1867300D01*
X7013790D01*
G37*
G36*
G01X7069020Y2979020D02*
Y3116540D01*
X7074490Y3122310D01*
G03X7042660Y3202450I-34489J32693D01*
G02X7005020Y3242260I2238J39815D01*
G01Y4123980D01*
X7030940Y4149900D01*
G02X7064980Y4135800I14100J-14099D01*
G01Y4012980D01*
X7150980D01*
Y3217980D01*
X7205570Y3163390D01*
G02X7187870Y3096720I-28203J-28197D01*
G03X7140660Y3024640I17131J-62721D01*
G02X7101190Y2979020I-39465J-5739D01*
G01X7069020D01*
G37*
G36*
G01X7473670Y1321020D02*
Y1481540D01*
X7479140Y1487310D01*
G03X7440750Y1567360I-34490J32690D01*
G02X7419170Y1587230I-1640J19872D01*
G01Y1608630D01*
X7449020Y1638480D01*
Y1666540D01*
X7454490Y1672310D01*
G03X7390980Y1667370I-34490J32690D01*
G01Y1662520D01*
X7361130Y1632670D01*
Y1541190D01*
G02X7293050Y1512990I-39880J-2D01*
G01X7179020Y1627020D01*
Y2082980D01*
X7394020Y2297980D01*
Y2453790D01*
G02X7427330Y2493130I39880J5D01*
G03X7430450Y2493760I-7840J46868D01*
G01X7432710Y2494290D01*
X7454980D01*
Y2354980D01*
X7745000D01*
Y1321020D01*
X7698810D01*
G02X7659340Y1366640I-5J39881D01*
G03X7535770Y1349180I-64341J9362D01*
G01X7537540Y1345260D01*
Y1321020D01*
X7473670D01*
G37*
G36*
G01X7650020Y2979020D02*
Y3002790D01*
X7574200Y3078610D01*
X7574000Y3086590D01*
G03X7487300Y3146290I-65000J-1591D01*
G02X7439770Y3163400I-13311J37596D01*
G03X7362750Y3169730I-40776J-24401D01*
G01X7362220Y3169100D01*
X7347540Y3154420D01*
X7319020Y3182940D01*
Y3216540D01*
X7324490Y3222310D01*
G03X7267650Y3296940I-34488J32694D01*
G02X7209020Y3332130I-18751J35195D01*
G01Y3653310D01*
G02X7253960Y3692860I39878J-5D01*
G03X7255000Y3692740I5967J47147D01*
G01X7262010Y3692000D01*
X7277450Y3676560D01*
G02X7263350Y3642520I-14099J-14100D01*
G01X7255020D01*
Y3507480D01*
X7549790D01*
G02X7579200Y3527960I35065J-18998D01*
G03Y3622040I-6740J47040D01*
G02X7549790Y3642520I5655J39478D01*
G01X7352520D01*
Y3693470D01*
X7308000Y3737990D01*
X7307260Y3745000D01*
G03X7253960Y3787140I-47260J-4998D01*
G02X7209020Y3826690I-5062J39555D01*
G01Y3968980D01*
X7234020Y3993980D01*
Y4012980D01*
X7345020D01*
Y4290660D01*
G02X7413100Y4318860I39880J2D01*
G01X7435980Y4295980D01*
X7454980D01*
Y4219020D01*
X7440980D01*
X7405980Y4184020D01*
Y4003460D01*
X7400510Y3997690D01*
G03X7482320Y3969400I34492J-32689D01*
G02X7522020Y4012980I39706J3702D01*
G01X7745000D01*
Y2979020D01*
X7650020D01*
G37*
%LPC*%
G75*
G36*
G01X815000Y240560D02*
G02Y460600I0J110020D01*
G01X1035000D01*
G02Y240560I0J-110020D01*
G01X815000D01*
G37*
G36*
G01X437520Y2145020D02*
Y2044980D01*
X242480D01*
Y2049290D01*
X220210D01*
X217950Y2048760D01*
G02Y2141240I-10950J46240D01*
G01X220210Y2140710D01*
X242480D01*
Y2145020D01*
X437520D01*
G37*
G36*
G01X930020Y2080020D02*
Y1919980D01*
X769450D01*
G03X735760Y1952960I-39348J-6497D01*
G02Y2047040I6740J47040D01*
G03X769450Y2080020I-5658J39477D01*
G01X930020D01*
G37*
G36*
G01X195020Y1834940D02*
Y1853140D01*
X173280D01*
X171510Y1852820D01*
G02Y1957180I-9490J52180D01*
G01X173280Y1956860D01*
X195020D01*
Y1975060D01*
X484980D01*
Y1834940D01*
X195020D01*
G37*
G36*
G01X738220Y1680020D02*
Y1419980D01*
X518180D01*
Y1680020D01*
X558180D01*
Y1875000D01*
G02X698220I70020J0D01*
G01Y1680020D01*
X738220D01*
G37*
G36*
G01X2182520Y1014980D02*
Y932480D01*
X1917480D01*
Y1014980D01*
X1850000D01*
X1845600Y1012630D01*
G02Y1127370I-30600J57370D01*
G01X1850000Y1125020D01*
X1917480D01*
Y1207520D01*
X2182520D01*
Y1125020D01*
X2250000D01*
X2254400Y1127370D01*
G02Y1012630I30600J-57370D01*
G01X2250000Y1014980D01*
X2182520D01*
G37*
G36*
G01X303080Y1385940D02*
X359000Y1330020D01*
X939580D01*
X1194200Y1075400D01*
X1202710Y1075580D01*
G02X1315020Y965580I2286J-110000D01*
G01Y695580D01*
G02X1094980I-110020J0D01*
G01Y965580D01*
G02X1095000Y967870I110022J184D01*
G01X1095180Y976380D01*
X881580Y1189980D01*
X301000D01*
X151780Y1339200D01*
Y1419980D01*
X111780D01*
Y1680020D01*
X331820D01*
Y1419980D01*
X317180D01*
G03X303080Y1385940I1J-19941D01*
G37*
G36*
G01X7579200Y207960D02*
G03X7549790Y187480I5655J-39478D01*
G01X7255020D01*
Y225980D01*
X7193460D01*
X7187690Y220510D01*
G02Y289490I-32690J34490D01*
G01X7193460Y284020D01*
X7255020D01*
Y322520D01*
X7549790D01*
G03X7579200Y302040I35065J18998D01*
G02Y207960I-6740J-47040D01*
G37*
G36*
G01X7406520Y1847480D02*
G03X7367040Y1813260I-4J-39880D01*
G02X7272780Y1825310I-47039J6740D01*
G01X7272900Y1826420D01*
Y1847480D01*
X7255020D01*
Y1982520D01*
X7549790D01*
G03X7579200Y1962040I35065J18998D01*
G02Y1867960I-6740J-47040D01*
G03X7549790Y1847480I5655J-39478D01*
G01X7406520D01*
G37*
G54D69*
X605000Y830580D03*
G54D73*
X6604000Y3556000D03*
G54D71*
X4572000Y254000D03*
G54D72*
X530000Y4861700D03*
G54D70*
X2050000Y580000D03*
%LPD*%
G75*
G54D10*
G01X221800Y1550000D02*
Y1368200D01*
X330000Y1260000D01*
X910580D01*
X1205000Y965580D01*
Y830580D01*
G01X225000Y3810000D02*
Y3750000D01*
X303600Y3671400D01*
X525000D01*
G01X303600Y4128600D02*
X225000Y4050000D01*
Y3990000D01*
G01X628200Y1550000D02*
Y1770000D01*
G01D02*
Y1875000D01*
G01X525000Y3671400D02*
Y3520000D01*
G01D02*
Y3405000D01*
G01Y4128600D02*
X303600D01*
X175000Y175000D03*
X6625000D03*
Y5150000D03*
G54D20*
X625000Y2632500D03*
Y2767500D03*
X725000Y2632500D03*
X675000D03*
Y2767500D03*
X725000D03*
G54D11*
X221800Y1550000D03*
X628200D03*
G54D30*
X1243000Y3900000D03*
G54D12*
X260000Y1905000D03*
X420000D03*
G54D21*
X417500Y2537000D03*
Y2602000D03*
Y2667000D03*
Y2732000D03*
Y2797000D03*
G54D13*
X125000Y2330750D03*
Y3003250D03*
G54D31*
X1205000Y830580D03*
G54D22*
X415000Y2417000D03*
Y2917000D03*
G54D40*
X1795000Y3575000D03*
X1955000D03*
X2420000Y2275000D03*
X2580000D03*
Y3075000D03*
X2420000D03*
Y3275000D03*
X2580000D03*
X2420000Y3475000D03*
X2580000D03*
X2995000Y3675000D03*
X3155000D03*
G54D41*
X1879600Y5080000D03*
X2133600D03*
X2387600D03*
X2641600D03*
X3048000Y254000D03*
X2895600Y5080000D03*
X3149600D03*
X3556000Y254000D03*
X3302000D03*
X3403600Y5080000D03*
X3810000Y254000D03*
X3657600Y5080000D03*
X3911600D03*
X4318000Y254000D03*
X4064000D03*
X4572000D03*
Y5080000D03*
X4826000D03*
X5080000D03*
X5588000Y254000D03*
X5334000D03*
Y5080000D03*
X5588000D03*
X5842000Y254000D03*
Y5080000D03*
X6350000Y254000D03*
X6096000D03*
X6364000Y2535000D03*
Y2789000D03*
X6096000Y5080000D03*
X6618000Y2535000D03*
Y3043000D03*
Y2789000D03*
G54D32*
X1524000Y5080000D03*
X6604000Y762000D03*
Y3556000D03*
G54D23*
X665000Y2939750D03*
Y3239750D03*
G54D50*
X2630000Y3962500D03*
Y4177500D03*
G54D14*
X162020Y1905000D03*
X628200Y1875000D03*
Y1770000D03*
X517980Y1905000D03*
X575000Y2430000D03*
Y2335000D03*
Y2537000D03*
X525000Y3405000D03*
Y3520000D03*
Y4280000D03*
Y4480000D03*
Y4380000D03*
X1055000Y2875000D03*
X950000D03*
X1025000Y3550000D03*
X825000D03*
X925000D03*
X775000Y3650000D03*
X875000D03*
X775000Y3750000D03*
X875000D03*
X775000Y3850000D03*
X875000D03*
X775000Y3950000D03*
X875000D03*
X775000Y4050000D03*
X875000D03*
X775000Y4150000D03*
X875000D03*
X800000Y4250000D03*
X900000D03*
X1000000D03*
X1150000Y2875000D03*
X1425000Y3550000D03*
X1325000D03*
X1225000D03*
X1125000D03*
X1100000Y4250000D03*
X1200000D03*
X1300000D03*
X1400000D03*
X1625000Y3550000D03*
Y3650000D03*
Y3750000D03*
Y3850000D03*
X1525000Y3550000D03*
X1885000Y4285000D03*
X1625000Y3950000D03*
Y4050000D03*
Y4150000D03*
X1525000Y4250000D03*
X1625000D03*
X2060000Y4285000D03*
X1970000D03*
X2640000Y3842500D03*
X2550000D03*
X2457500D03*
X2980000Y1020000D03*
X3105000D03*
X3556000Y1069000D03*
Y1196020D03*
G54D60*
G01X295000Y2095000D02*
X207000D01*
G01X674920Y2558980D02*
Y2564920D01*
X675000Y2565000D01*
Y2632500D01*
G01Y2767500D02*
Y2822500D01*
X665000Y2832500D01*
G01X2380000Y2475000D02*
X2420000Y2435000D01*
Y2275000D01*
G01X2620000Y2475000D02*
X2580000Y2435000D01*
Y2275000D01*
G01X2620000Y2875000D02*
X2580000Y2915000D01*
Y3075000D01*
G01X2380000Y2875000D02*
X2420000Y2915000D01*
Y3075000D01*
G01X2978200Y2208120D02*
X2870000D01*
G01D02*
X2853120D01*
X2800000Y2155000D01*
Y2080000D01*
G01X2870000Y2208120D02*
Y2237420D01*
X2890700Y2258120D01*
X2978200D01*
G01Y2308120D02*
X2876880D01*
G01D02*
X2865000Y2320000D01*
G01X2978200Y2358120D02*
X3085700D01*
G01X2978200Y2808120D02*
X2870700D01*
G01X2978200Y2758120D02*
X3085700D01*
G01X2978200Y3008120D02*
X2875640D01*
X2872700Y3011060D01*
G01X3203200Y1984500D02*
Y1883120D01*
G01X3253200D02*
Y1982500D01*
X3265700Y1995000D01*
G01X3192700D02*
X3203200Y1984500D01*
G01X3220610Y3555030D02*
Y3539590D01*
X3203200Y3522180D01*
Y3433120D01*
G01X3147660Y3552210D02*
X3153200Y3546670D01*
Y3433120D01*
G01X4350000Y1630000D02*
Y1710500D01*
X4303200Y1757300D01*
Y1883120D01*
G01X4528200Y3208120D02*
X4420700D01*
G01X4700000Y3455000D02*
Y3550000D01*
G01Y3295000D02*
X4670000Y3325000D01*
X4580000D01*
G01X4528200Y3258120D02*
Y3295000D01*
X4558200Y3325000D01*
X4580000D01*
G01X4900000Y3295000D02*
Y3217500D01*
X4840620Y3158120D01*
X4528200D01*
G01X4900000Y3455000D02*
Y3550000D01*
G54D51*
X2794000Y254000D03*
X4165600Y5080000D03*
X5080000Y254000D03*
X6364000Y3043000D03*
X6350000Y5080000D03*
G54D42*
X2050000Y580000D03*
Y1070000D03*
G54D24*
X525000Y3671400D03*
Y4128600D03*
G54D15*
X207000Y2095000D03*
X674920Y2558980D03*
X742500Y2000000D03*
X950000Y3075000D03*
X1000000Y3650000D03*
Y3750000D03*
Y3850000D03*
Y3950000D03*
Y4050000D03*
Y4150000D03*
X1435000Y2900000D03*
X1400000Y3650000D03*
X1300000D03*
X1200000D03*
X1100000D03*
Y3750000D03*
X1200000D03*
X1300000D03*
X1400000D03*
X1100000Y3850000D03*
X1200000D03*
X1400000D03*
X1300000D03*
X1400000Y3950000D03*
X1300000D03*
X1200000D03*
X1100000D03*
Y4050000D03*
X1200000D03*
X1400000D03*
X1100000Y4150000D03*
X1200000D03*
X1300000D03*
X1400000D03*
X1300000Y4050000D03*
X1285000Y4725000D03*
X1235000Y5015000D03*
X1700000Y2100000D03*
Y1950000D03*
X1677500Y2340000D03*
X1683550Y2687640D03*
X1660000Y3025000D03*
X1795000Y3477500D03*
X1672500Y3125000D03*
X1500000Y3650000D03*
Y3750000D03*
Y3850000D03*
Y3950000D03*
Y4050000D03*
Y4150000D03*
X1820000Y4905000D03*
X2185000Y1377500D03*
X2200000Y1875000D03*
X1975000Y2144500D03*
X1930000Y2065000D03*
X2095000Y2275000D03*
X2055000Y2655000D03*
X2130000Y2350000D03*
X2055000Y2895000D03*
Y2815000D03*
Y2735000D03*
X1955000Y3477500D03*
X2020000Y3260000D03*
X2055000Y3125000D03*
X2040000Y3745000D03*
Y3895000D03*
Y3820000D03*
X2185500Y4095000D03*
X1950000Y4400000D03*
X2315000Y1722500D03*
X2680000Y1770000D03*
X2325000Y2275000D03*
X2500000Y1950000D03*
X2675000Y3075000D03*
X2420000Y3177500D03*
Y3377500D03*
X2580000Y3177500D03*
Y3377500D03*
X2970000Y1425000D03*
X2710000Y1370000D03*
X2790000Y1730000D03*
X2965000Y1825000D03*
X3083120Y1883120D03*
X2839580Y1784500D03*
X2897500Y1920000D03*
X2865000Y2320000D03*
X3085700Y2358120D03*
X2870700Y2808120D03*
X3085700Y2758120D03*
X2872700Y3011060D03*
X2806880Y3108120D03*
X2760000Y2900000D03*
X2960000Y3500000D03*
X3105000Y3175000D03*
X2827000Y3285000D03*
X2963500Y3575000D03*
X2750000Y3640000D03*
X3030000Y3897000D03*
Y4255000D03*
X3065000Y4435000D03*
X2820000Y4945000D03*
X3315000Y920000D03*
X3110000Y915000D03*
X3370000Y1030000D03*
X3295000Y1165000D03*
X3250000Y1725000D03*
X3210000Y2295000D03*
X3192700Y1995000D03*
X3265700D03*
X3502330Y2105160D03*
X3446880Y2158120D03*
X3450000Y2640000D03*
X3125000Y2615000D03*
X3175000Y2855000D03*
X3155000Y3050000D03*
X3382540Y3031500D03*
X3388200Y3327620D03*
X3248000Y3675000D03*
X3220610Y3555030D03*
X3147660Y3552210D03*
X3403200Y3561800D03*
X3366720Y3634800D03*
X3494750Y3599750D03*
X3190000Y3897000D03*
X3110000D03*
X3435000Y3890000D03*
X3298690Y3606050D03*
X3350000Y3960000D03*
X3190000Y4255000D03*
X3379980Y4080000D03*
X3378500Y4295000D03*
X3265000Y4530000D03*
X3470420Y4446000D03*
X3415000Y4645000D03*
X3435000Y4935000D03*
X3200000Y4940000D03*
X3740000Y655000D03*
X3880000Y709500D03*
X3695500Y1470000D03*
X3610000Y1265000D03*
X3815000Y1340000D03*
X3754500Y1404500D03*
X3600000Y1725000D03*
X3700000Y1770000D03*
X3670000Y2290000D03*
X3549120Y2049120D03*
X3689500Y2105000D03*
X3760970Y2119890D03*
X3830150Y2096580D03*
X3705000Y2615000D03*
X3642160Y2564500D03*
X3710000Y2510000D03*
X3803040Y2455500D03*
X3875000Y2400000D03*
X3756040Y2911040D03*
X3870960Y3159040D03*
X3900000Y3550000D03*
X3745000Y3805000D03*
X3553200Y3538620D03*
X3730000Y4245000D03*
X3713540Y4596460D03*
X3852260Y4549480D03*
X3550040Y4520540D03*
X3779270Y4551160D03*
X3620500Y4585000D03*
X3518770Y4391300D03*
X3642480Y4394040D03*
X3840000Y4935000D03*
X3845000Y4735500D03*
X4013760Y1344500D03*
X3928520Y1346910D03*
X4044500Y1263900D03*
X4093000Y1450000D03*
X4146520Y1360000D03*
X3924000Y1265000D03*
X4230000Y1770000D03*
X3975000Y1745000D03*
X4108960Y2040000D03*
X4149500Y2176040D03*
X4133580Y2423580D03*
X4032580Y2319500D03*
X4170000Y3050000D03*
X4015000Y2785000D03*
X4314700Y2980000D03*
X4075310Y2727590D03*
X3943620Y2800300D03*
X4165240Y3161200D03*
X4147660Y3232060D03*
X4245000Y3170000D03*
X3960000Y3815000D03*
X4170000Y3895000D03*
X3965000Y3600000D03*
X4090000Y3895000D03*
X4189800Y3782370D03*
X4250000Y4280000D03*
X4010000Y4255000D03*
X4260500Y4090000D03*
X4296500Y4015130D03*
X3930000Y4275000D03*
X4115230Y4614270D03*
X4205000Y4476820D03*
X4054510Y4404820D03*
X4700000Y1375000D03*
X4350000D03*
X4390140Y1781080D03*
X4700000Y1725000D03*
X4575000Y1940000D03*
X4700000Y2095000D03*
X4396380Y2190390D03*
X4657580Y2159220D03*
X4339370Y2105520D03*
X4716130Y2300000D03*
X4655000Y2810000D03*
X4670000Y2908120D03*
X4422700Y3108120D03*
X4495000Y3460000D03*
X4420700Y3208120D03*
X4580000Y3325000D03*
X4355000Y3320000D03*
X4700000Y3550000D03*
X4424430Y3749030D03*
X4485000Y4160000D03*
X4370000Y4715000D03*
X4655000Y4645000D03*
X4508960Y4643960D03*
X4575000Y4930000D03*
X5030000Y560000D03*
X4950000Y985000D03*
X4860000Y1410000D03*
X4915000Y1290000D03*
X4962000Y1470000D03*
X4780000Y1297920D03*
X4785000Y1765000D03*
X4962000Y1630000D03*
X5084500Y1827290D03*
X4935000Y2020000D03*
Y2230000D03*
X5095000Y1980000D03*
X5085200Y1900290D03*
X4748120Y2662000D03*
X4750000Y2445000D03*
X5125000Y2490000D03*
X5069500Y2805000D03*
X4806880Y2708120D03*
X4867490Y2867490D03*
X4945000Y2895000D03*
X5015000Y3390000D03*
X4735000Y3755000D03*
X4900000Y3550000D03*
X5000000Y3530000D03*
X5035000Y4940000D03*
X4775000Y4935000D03*
X5280000Y560000D03*
X5250000Y980000D03*
X5190000Y810000D03*
Y1372000D03*
X5340000Y1490000D03*
X5345000Y1390000D03*
X5469500Y1625000D03*
X5365000Y2220000D03*
X5450000Y2115000D03*
X5305000Y1975000D03*
X5440000Y2460000D03*
X5416910Y2390740D03*
X5225000Y2645000D03*
X5470000Y2725000D03*
X5472500Y2867500D03*
X5266180Y3071320D03*
X5420000Y3240000D03*
X5195000Y3310000D03*
X5194000Y3450000D03*
X5415000Y3585000D03*
X5225000Y4605000D03*
X5495000Y4575000D03*
X5880000Y570000D03*
X5535000Y560000D03*
X5735500Y1010000D03*
X5590970Y988890D03*
X5900000Y1000000D03*
X5535000Y1377500D03*
X5651610Y1568650D03*
X5785000Y1635000D03*
X5535000Y2054500D03*
X5665000Y2244500D03*
Y2040000D03*
X5815500Y2000000D03*
X5789500Y2085000D03*
X5877500Y2662000D03*
X5750000Y2450000D03*
X5879500Y2916000D03*
X5875000Y2740000D03*
X5662500Y3139980D03*
X5840000Y3290000D03*
X5545000Y3275000D03*
X5640000Y3640000D03*
X5720000Y4310000D03*
X5858500Y4375000D03*
X5975000Y1015000D03*
X6110000Y1280000D03*
X6275010Y1145010D03*
X6265750Y1972100D03*
X6261270Y1899230D03*
X6055000Y3630000D03*
X6685000Y1130000D03*
X6545000Y1620000D03*
X6450000Y2350000D03*
X6875000Y1470000D03*
X6746500Y1448500D03*
X6966500Y1892780D03*
X6760000Y2045000D03*
X6929500Y2580000D03*
X6885000Y3075000D03*
X7030000Y2770000D03*
X7120000Y3190000D03*
X7040000Y3155000D03*
X6765000Y3865000D03*
X7070000Y3940000D03*
X6770000Y4710000D03*
X7030000Y4452000D03*
X7155000Y255000D03*
X7424500Y882000D03*
X7320000Y1820000D03*
X7420000Y1705000D03*
X7444650Y1520000D03*
X7260000Y2325000D03*
X7419500Y2540000D03*
X7290000Y3255000D03*
X7399000Y3139000D03*
X7260000Y3740000D03*
X7435000Y3965000D03*
X7572460Y255000D03*
Y1915000D03*
Y3575000D03*
G54D33*
G01X6200000Y1545000D02*
X6350000Y1395000D01*
G01X6193870Y2333870D02*
X6315740Y2212000D01*
X6430000D01*
G01X5935000Y3565000D02*
Y3115000D01*
G01X6175000Y2080000D02*
X6390000D01*
G01X6195000Y3565000D02*
Y2877000D01*
X1815000Y580000D03*
Y1070000D03*
X2285000Y580000D03*
Y1070000D03*
X5950470Y2037000D03*
X5825000Y3185000D03*
X5935000Y3565000D03*
X5964200Y1340520D03*
X6350000Y1395000D03*
X6215000Y1305000D03*
X6177490Y1650630D03*
X6140000Y2235000D03*
X6075000Y3285000D03*
X6195000Y3565000D03*
X6430000Y2212000D03*
X6390000Y2080000D03*
X7205000Y1376000D03*
Y3034000D03*
X7509000Y3085000D03*
X7205000Y4692000D03*
X7595000Y642000D03*
Y1376000D03*
Y2300000D03*
Y3958000D03*
Y4692000D03*
G54D61*
G01X260000Y1905000D02*
X162020D01*
G01X420000D02*
X517980D01*
G01X417500Y2537000D02*
X575000D01*
G01X417500Y2797000D02*
X557000D01*
X592500Y2832500D01*
X665000D01*
G01D02*
Y2939750D01*
G01X850000Y2000000D02*
X742500D01*
G01X1220000Y5161700D02*
X1107000D01*
X1071000Y5125700D01*
Y4761040D01*
X1075000Y4757040D01*
Y4750000D01*
X1201500Y4623500D01*
X1726500D01*
X1950000Y4400000D01*
G01X1790000Y1917500D02*
X1732500D01*
X1700000Y1950000D01*
G01X1790000Y1982500D02*
X1732500D01*
X1700000Y1950000D01*
G01X1795000Y3575000D02*
Y3477500D01*
G01X1885000Y3825000D02*
X1890000Y3820000D01*
X2040000D01*
G01X2200000Y1955000D02*
Y1875000D01*
G01X1955000Y3575000D02*
Y3477500D01*
G01X2165000Y3820000D02*
X2040000D01*
G01D02*
Y3895000D01*
G01Y3820000D02*
Y3745000D01*
G01X2080000Y4095000D02*
X2185500D01*
G01X2420000Y2275000D02*
X2325000D01*
G01X2580000Y3075000D02*
X2675000D01*
G01X2420000Y3475000D02*
Y3377500D01*
G01Y3275000D02*
Y3177500D01*
G01X2580000Y3475000D02*
Y3377500D01*
G01Y3275000D02*
Y3177500D01*
G01X2800000Y1920000D02*
X2897500D01*
G01X2995000Y3675000D02*
Y3606500D01*
X2963500Y3575000D01*
G01X3250000Y1630000D02*
Y1725000D01*
G01X3155000Y3675000D02*
X3248000D01*
G01X3600000Y1470000D02*
X3695500D01*
G01X3600000Y1630000D02*
Y1725000D01*
G01X3665000Y4170000D02*
Y4205000D01*
X3705000Y4245000D01*
X3730000D01*
G01X3975000Y1460000D02*
X4013760Y1421240D01*
Y1344500D01*
G01X3975000Y1640000D02*
Y1745000D01*
G01X4350000Y1470000D02*
Y1375000D01*
G01X4700000Y1470000D02*
Y1375000D01*
G01Y1630000D02*
Y1725000D01*
G01X5135000Y2805000D02*
X5069500D01*
G01X5265000Y2995000D02*
Y3070140D01*
X5266180Y3071320D01*
G01X5964200Y1340520D02*
X5935000Y1369720D01*
Y1455000D01*
G01Y1645000D02*
Y1575000D01*
X5965000Y1545000D01*
X6200000D01*
G01X5950470Y2037000D02*
X5935000Y2052470D01*
Y2130000D01*
G01Y2320000D02*
Y2388000D01*
X5972000Y2425000D01*
X6090000D01*
X6181130Y2333870D01*
X6193870D01*
G01X5935000Y2805000D02*
X5897860D01*
X5814000Y2888860D01*
Y2943140D01*
X5825000Y2954140D01*
Y3185000D01*
G01X5935000Y3115000D02*
Y2995000D01*
G01X5966000Y4375000D02*
X5858500D01*
G01X6215000Y1305000D02*
X6156310Y1363690D01*
X6146310D01*
X6065000Y1445000D01*
Y1455000D01*
G01Y1645000D02*
X6171860D01*
X6177490Y1650630D01*
G01X6065000Y2320000D02*
X6140000Y2245000D01*
Y2235000D01*
G01X6065000Y2130000D02*
X6125000D01*
X6175000Y2080000D01*
G01X6075000Y3285000D02*
Y3197000D01*
X6065000Y3187000D01*
Y2995000D01*
G01X6195000Y2877000D02*
X6123000Y2805000D01*
X6065000D01*
G01X7480000Y255000D02*
X7572460D01*
G01X7480000Y1915000D02*
X7572460D01*
G01X7480000Y3575000D02*
X7572460D01*
G54D25*
X730000Y4450000D03*
X1020000D03*
G54D43*
X2250000Y1455000D03*
X2185000D03*
Y1645000D03*
X2250000D03*
X2315000Y1455000D03*
Y1645000D03*
X3535000Y4170000D03*
X3600000D03*
X3665000D03*
Y3980000D03*
X3600000D03*
X3535000D03*
X5265000Y2805000D03*
X5200000D03*
X5135000D03*
Y2995000D03*
X5200000D03*
X5265000D03*
X5665000Y1455000D03*
X5600000D03*
X5535000D03*
Y1645000D03*
X5600000D03*
X5665000D03*
Y2130000D03*
X5600000D03*
X5535000D03*
Y2320000D03*
X5600000D03*
X5665000D03*
X5535000Y2995000D03*
X5600000D03*
X5665000D03*
Y2805000D03*
X5600000D03*
X5535000D03*
X6065000Y1455000D03*
X6000000D03*
X5935000D03*
Y1645000D03*
X6000000D03*
X6065000D03*
Y2130000D03*
X6000000D03*
X5935000D03*
Y2320000D03*
X6000000D03*
X6065000D03*
X5935000Y2995000D03*
X6000000D03*
X6065000D03*
Y2805000D03*
X6000000D03*
X5935000D03*
G54D16*
X145000Y2502000D03*
Y2832000D03*
G54D34*
X1850000Y1470000D03*
Y1630000D03*
G54D52*
X2978200Y2058120D03*
Y2108120D03*
Y2158120D03*
Y2208120D03*
Y2258120D03*
Y2308120D03*
Y2358120D03*
Y2408120D03*
Y2458120D03*
Y2508120D03*
Y2558120D03*
Y2608120D03*
Y2658120D03*
Y2708120D03*
Y2758120D03*
Y2808120D03*
Y2858120D03*
Y2908120D03*
Y2958120D03*
Y3008120D03*
Y3058120D03*
Y3258120D03*
Y3208120D03*
Y3108120D03*
Y3158120D03*
X4528200Y2058120D03*
Y2158120D03*
Y2108120D03*
Y2208120D03*
Y2258120D03*
Y2308120D03*
Y2358120D03*
Y2658120D03*
Y2608120D03*
Y2558120D03*
Y2508120D03*
Y2458120D03*
Y2408120D03*
Y3058120D03*
Y3008120D03*
Y2958120D03*
Y2908120D03*
Y2858120D03*
Y2808120D03*
Y2758120D03*
Y2708120D03*
Y3258120D03*
Y3208120D03*
Y3158120D03*
Y3108120D03*
G54D62*
G01X2350000Y4190000D02*
X2617500D01*
X2630000Y4177500D01*
G54D44*
X2200000Y1955000D03*
Y2045000D03*
X2600000D03*
Y1955000D03*
X2825000Y2505000D03*
Y2595000D03*
G54D17*
X225000Y3810000D03*
Y3990000D03*
X3975000Y1460000D03*
Y1640000D03*
G54D35*
X1755000Y2210000D03*
Y2275000D03*
Y2340000D03*
X1945000Y2275000D03*
Y2210000D03*
Y2340000D03*
G54D26*
X530000Y5161700D03*
Y4861700D03*
X1220000Y5161700D03*
Y4861700D03*
G54D53*
X2800000Y1920000D03*
Y2080000D03*
X3250000Y1470000D03*
Y1630000D03*
X3600000Y1470000D03*
Y1630000D03*
X4350000Y1470000D03*
X4700000D03*
X4350000Y1630000D03*
X4700000D03*
Y3455000D03*
Y3295000D03*
X4900000Y3455000D03*
Y3295000D03*
G54D63*
G01X2400000Y1955000D02*
X2200000D01*
G01X2600000D02*
X2505000D01*
G01D02*
X2500000Y1950000D01*
G01X2600000Y2045000D02*
X2400000D01*
G01X2800000Y2080000D02*
X2635000D01*
X2600000Y2045000D01*
G54D36*
X1790000Y1982500D03*
Y1917500D03*
X1910000Y1982500D03*
Y1917500D03*
X4860000Y3002500D03*
X4740000D03*
X4860000Y3067500D03*
X4740000D03*
G54D45*
X2165000Y3820000D03*
X2345000D03*
G54D27*
X925000Y350580D03*
G54D18*
X605000Y830580D03*
G54D54*
X3153200Y1883120D03*
X3203200D03*
X3453200D03*
X3403200D03*
X3353200D03*
X3303200D03*
X3253200D03*
X3153200Y3433120D03*
X3203200D03*
X3253200D03*
X3303200D03*
X3353200D03*
X3403200D03*
X3453200D03*
X3903200Y1883120D03*
X3853200D03*
X3803200D03*
X3753200D03*
X3703200D03*
X3653200D03*
X3603200D03*
X3553200D03*
X3503200D03*
Y3433120D03*
X3553200D03*
X3603200D03*
X3653200D03*
X3703200D03*
X3753200D03*
X3803200D03*
X3853200D03*
X3903200D03*
X4303200Y1883120D03*
X4253200D03*
X4203200D03*
X4153200D03*
X4103200D03*
X4053200D03*
X4003200D03*
X3953200D03*
X4303200Y3433120D03*
X4253200D03*
X4203200D03*
X4153200D03*
X4103200D03*
X4053200D03*
X3953200D03*
X4003200D03*
X4353200Y1883120D03*
Y3433120D03*
G54D64*
G01X1755000Y2340000D02*
X1677500D01*
G01X1683550Y2687640D02*
X1687360D01*
X1720000Y2655000D01*
X1795000D01*
G01X1765000Y3125000D02*
X1672500D01*
G01X2185000Y1455000D02*
Y1377500D01*
G01X1975000Y2144500D02*
Y2180000D01*
X1945000Y2210000D01*
G01X1955000Y2815000D02*
X2055000D01*
G01X1955000Y2895000D02*
X2055000D01*
G01X1955000Y2735000D02*
X2055000D01*
G01X1985000Y3190000D02*
Y3225000D01*
X2020000Y3260000D01*
G01X2315000Y1645000D02*
Y1722500D01*
G01X4390140Y1781080D02*
X4353200Y1818020D01*
Y1883120D01*
G01X5030000Y1630000D02*
X4962000D01*
G01X5472500Y2867500D02*
Y2837500D01*
G01D02*
X5505000Y2805000D01*
X5535000D01*
G01Y1455000D02*
Y1377500D01*
G01X5665000Y1645000D02*
Y1582040D01*
G01D02*
X5651610Y1568650D01*
G01X5665000Y2320000D02*
Y2244500D01*
G01X5535000Y2130000D02*
Y2054500D01*
G01X5665000Y2995000D02*
Y3079480D01*
G01D02*
X5662500Y3081980D01*
Y3139980D01*
G01X7320000Y1915000D02*
Y1820000D01*
G01Y3575000D02*
Y3680000D01*
X7260000Y3740000D01*
G54D55*
X4075000Y4135000D03*
X4025000D03*
Y4015000D03*
X4075000D03*
X5125000Y2165000D03*
X5175000D03*
Y2285000D03*
X5125000D03*
G54D19*
X385000Y2095000D03*
X295000D03*
X1830000Y3375000D03*
X1920000D03*
G54D28*
X850000Y2000000D03*
X1060000D03*
X5966000Y4375000D03*
X6176000D03*
G54D37*
X1795000Y2655000D03*
Y2735000D03*
Y2815000D03*
Y2895000D03*
X1955000Y2655000D03*
Y2895000D03*
Y2815000D03*
Y2735000D03*
G54D46*
X2080000Y4000000D03*
Y4095000D03*
Y4190000D03*
X2350000D03*
Y4000000D03*
G54D65*
G01X2050000Y580000D02*
X1815000D01*
G01X2050000Y1070000D02*
X1815000D01*
G01X2050000Y580000D02*
X2285000D01*
G01X2050000Y1070000D02*
X2285000D01*
G01X7205000Y1263000D02*
Y1376000D01*
G01Y2921000D02*
Y3034000D01*
G01X7595000Y2921000D02*
Y2980000D01*
X7509000Y3066000D01*
Y3085000D01*
G01X7205000Y4579000D02*
Y4692000D01*
G01X7595000Y755000D02*
Y642000D01*
G01Y1263000D02*
Y1376000D01*
G01Y2413000D02*
Y2300000D01*
G01Y4071000D02*
Y3958000D01*
G01Y4579000D02*
Y4692000D01*
G54D29*
X950000Y2980000D03*
Y3170000D03*
X1150000Y3075000D03*
G54D56*
X4130000Y4135000D03*
Y4015000D03*
X3970000Y4135000D03*
Y4015000D03*
X5070000Y2165000D03*
Y2285000D03*
X5230000Y2165000D03*
Y2285000D03*
G54D38*
X1765000Y3060000D03*
Y3125000D03*
Y3190000D03*
X1985000Y3060000D03*
Y3190000D03*
G54D47*
X2630000Y1470000D03*
Y1630000D03*
X2870000Y1470000D03*
X2790000D03*
X2710000D03*
Y1630000D03*
X2790000D03*
X2870000D03*
X3030000Y3995000D03*
Y4155000D03*
X3270000Y3995000D03*
X3190000D03*
X3110000D03*
Y4155000D03*
X3190000D03*
X3270000D03*
X5110000Y1470000D03*
X5030000D03*
Y1630000D03*
X5110000D03*
X5270000Y1470000D03*
X5190000D03*
Y1630000D03*
X5270000D03*
G54D66*
G01X575000Y2430000D02*
Y2537000D01*
G01Y2335000D02*
Y2430000D01*
G01X789750Y3239750D02*
X665000D01*
G01X525000Y4128600D02*
Y4280000D01*
G01D02*
Y4380000D01*
G01D02*
X660000D01*
X730000Y4450000D01*
G01X525000Y4380000D02*
Y4480000D01*
G01X950000Y2875000D02*
X1055000D01*
G01X950000Y2980000D02*
Y2875000D01*
G01X1055000D02*
X1150000D01*
G01Y3075000D02*
Y3225000D01*
X1075000Y3300000D01*
X850000D01*
X789750Y3239750D01*
G01X3048000Y254000D02*
Y442000D01*
X2980000Y510000D01*
Y1020000D01*
G01D02*
X3105000D01*
G01X3556000Y254000D02*
Y1069000D01*
G01D02*
Y1196020D01*
G54D39*
X1885000Y3825000D03*
Y4125000D03*
G54D48*
X2400000Y2045000D03*
Y1955000D03*
G54D57*
X7205000Y755000D03*
Y882000D03*
Y1009000D03*
Y1136000D03*
Y1263000D03*
Y2413000D03*
Y2540000D03*
Y2667000D03*
Y2794000D03*
Y2921000D03*
Y4071000D03*
Y4198000D03*
Y4325000D03*
Y4452000D03*
Y4579000D03*
X7595000Y755000D03*
Y882000D03*
Y1009000D03*
Y1136000D03*
Y1263000D03*
Y2413000D03*
Y2540000D03*
Y2667000D03*
Y2794000D03*
Y2921000D03*
Y4071000D03*
Y4198000D03*
Y4325000D03*
Y4452000D03*
Y4579000D03*
G54D67*
G01X4860000Y3067500D02*
X4967500D01*
X4982490Y3052510D01*
X5002480D01*
X5095000Y3145030D01*
Y3530010D01*
X4970010Y3655000D01*
X3491170D01*
X3491160Y3654990D01*
X3431500D01*
X3316490Y3770000D01*
X2771840D01*
X2621840Y3620000D01*
X2311670D01*
X2190000Y3498330D01*
Y2599080D01*
X2100910Y2509990D01*
X2071090D01*
X2071080Y2510000D01*
X1669990D01*
X1648920Y2531070D01*
Y2531080D01*
X1498000Y2682000D01*
X920000D01*
X905000Y2667000D01*
Y2620000D01*
X895000Y2610000D01*
X865000D01*
X855000Y2620000D01*
Y2665000D01*
X838000Y2682000D01*
X625000D01*
G01D02*
Y2632500D01*
G01Y2682000D02*
X527010D01*
X512010Y2667000D01*
X417500D01*
G01X4860000Y3002500D02*
X4967500D01*
X4981510Y3016510D01*
X5017400D01*
X5131000Y3130110D01*
Y3544930D01*
X4984920Y3691010D01*
X4955100D01*
X4955090Y3691000D01*
X3476250D01*
X3476240Y3690990D01*
X3446420D01*
X3331410Y3806000D01*
X2756920D01*
X2606920Y3656000D01*
X2296750D01*
X2154000Y3513250D01*
Y2614000D01*
X2086000Y2546000D01*
X1684920D01*
X1512920Y2718000D01*
X625000D01*
G01Y2767500D02*
Y2718000D01*
G01D02*
X527010D01*
X513010Y2732000D01*
X417500D01*
G01X1830000Y3375000D02*
X1730000D01*
X1690000Y3335000D01*
X1134760D01*
X1102760Y3367000D01*
X822240D01*
X790240Y3335000D01*
X595000D01*
X525000Y3405000D01*
G01X1060000Y2000000D02*
X1210000D01*
X1740000Y1470000D01*
X1850000D01*
G01X789750Y3239750D02*
Y2902250D01*
X938000Y2754000D01*
X1527840D01*
X1699840Y2582000D01*
X2071080D01*
X2118000Y2628920D01*
Y3528170D01*
X2260750Y3670920D01*
Y3670930D01*
X2281820Y3692000D01*
X2281830D01*
X2281840Y3692010D01*
X2311660D01*
X2311670Y3692000D01*
X2592000D01*
X2742000Y3842000D01*
X3346330D01*
X3461330Y3727000D01*
X4342000D01*
X4364030Y3749030D01*
X4424430D01*
G01X3518770Y4391300D02*
X3518590D01*
Y4391500D01*
X3464090D01*
X3464050Y4391540D01*
X3303460D01*
X2961500Y4733500D01*
X1476500D01*
X1348300Y4861700D01*
X1220000D01*
G01X1755000Y2210000D02*
X1650000D01*
X1575000Y2135000D01*
Y1775000D01*
X1720000Y1630000D01*
X1850000D01*
G01X1930000Y2065000D02*
X1850000Y2145000D01*
Y2260000D01*
X1835000Y2275000D01*
X1755000D01*
G01X3620500Y4585000D02*
X3220000D01*
X2992420Y4812580D01*
X2809500D01*
X2762080Y4860000D01*
X2099600D01*
X1879600Y5080000D01*
G01X2250000Y1455000D02*
Y1530000D01*
X2235000Y1545000D01*
X2150000D01*
X2086000Y1609000D01*
Y2125080D01*
X2168540Y2207620D01*
Y2311460D01*
X2130000Y2350000D01*
G01X3230910Y1030000D02*
Y1034090D01*
X3015000Y1250000D01*
X2385000D01*
X2250000Y1385000D01*
Y1455000D01*
G01X2870000Y1470000D02*
X2920000D01*
X2935000Y1485000D01*
Y1740000D01*
X2894080Y1780920D01*
Y1807080D01*
X2862160Y1839000D01*
X2817000D01*
X2802500Y1824500D01*
X2284500D01*
X2250000Y1790000D01*
G01X2185000Y1645000D02*
Y1770000D01*
X2205000Y1790000D01*
X2250000D01*
G01D02*
Y1645000D01*
G01X1910000Y1982500D02*
X1922500D01*
X1930000Y1990000D01*
Y2065000D01*
G01X1910000Y1917500D02*
X1917500Y1910000D01*
X2009500D01*
X2050000Y1950500D01*
Y2140000D01*
X2095000Y2185000D01*
Y2275000D01*
G01D02*
X1945000D01*
G01X3756040Y2911040D02*
X3701540D01*
X3700500Y2910000D01*
X3609460D01*
X3451960Y3067500D01*
X3442500D01*
X3220920Y3289080D01*
X3100920D01*
X3056000Y3334000D01*
X2941000D01*
X2691000Y3584000D01*
X2326590D01*
X2226000Y3483410D01*
Y2541000D01*
X2025000Y2340000D01*
X1945000D01*
G01X2080000Y4190000D02*
X2175000D01*
X2240000Y4125000D01*
Y4065000D01*
X2175000Y4000000D01*
X2080000D01*
G01X2820000Y4945000D02*
X2655000D01*
X2611460Y4901460D01*
X2312140D01*
X2133600Y5080000D01*
G01X2630000Y1470000D02*
Y1390500D01*
G01D02*
X2650500Y1370000D01*
X2710000D01*
G01X2790000Y1350000D02*
X2735000Y1295000D01*
X2410000D01*
X2315000Y1390000D01*
Y1455000D01*
G01X2630000Y1630000D02*
Y1720000D01*
X2680000Y1770000D01*
G01X2825000Y2505000D02*
X2737000D01*
X2707000Y2475000D01*
G01X2710000Y1470000D02*
Y1370000D01*
G01X3055000Y1350000D02*
X3250000D01*
G01X2790000Y1470000D02*
Y1350000D01*
G01X2965000Y1825000D02*
X3055000Y1735000D01*
Y1350000D01*
G01D02*
X2790000D01*
G01Y1630000D02*
Y1730000D01*
G01X2870000Y1630000D02*
Y1709500D01*
X2849500Y1730000D01*
X2790000D01*
G01X2839580Y1784500D02*
X2767420D01*
X2735500Y1752580D01*
Y1748420D01*
X2710000Y1722920D01*
Y1630000D01*
G01X2978200Y2058120D02*
X3472040D01*
X3481040Y2049120D01*
X3549120D01*
G01X3153200Y1883120D02*
X3083120D01*
G01X3502330Y2105160D02*
X3503620D01*
Y2103620D01*
X3424300D01*
X3419800Y2108120D01*
X2978200D01*
G01Y2158120D02*
X3446880D01*
G01X2978200Y2608120D02*
X3118120D01*
X3125000Y2615000D01*
G01X2978200Y2558120D02*
X3581280D01*
X3587660Y2564500D01*
X3642160D01*
G01X3710000Y2510000D02*
X3655500D01*
X3653620Y2508120D01*
X2978200D01*
G01X3803040Y2455500D02*
X3687420D01*
X3684800Y2458120D01*
X2978200D01*
G01X3875000Y2400000D02*
X3760000D01*
X3747380Y2412620D01*
X3063120D01*
X3058620Y2408120D01*
X2978200D01*
G01X4075310Y2727590D02*
X3528330D01*
X3209500Y3046420D01*
Y3072580D01*
X3177580Y3104500D01*
X3132420D01*
X3086040Y3058120D01*
X2978200D01*
G01Y3108120D02*
X2806880D01*
G01X3503200Y3433120D02*
Y3346120D01*
X3422080Y3265000D01*
X3300080D01*
X3240000Y3325080D01*
X3115840D01*
X3070920Y3370000D01*
X2955920D01*
X2809500Y3516420D01*
Y3580500D01*
X2750000Y3640000D01*
G01X3943620Y2800300D02*
X3889120D01*
X3888820Y2800000D01*
X3536960D01*
X3328040Y3008920D01*
Y3131040D01*
X3210080Y3249000D01*
X3074320D01*
X3065200Y3258120D01*
X2978200D01*
G01X2827000Y3285000D02*
Y3226120D01*
X2845000Y3208120D01*
X2978200D01*
G01X3030000Y3995000D02*
Y3897000D01*
G01Y4155000D02*
Y4255000D01*
G01D02*
X3089500D01*
X3110000Y4234500D01*
Y4155000D01*
G01X3230910Y1030000D02*
Y869080D01*
X3302000Y797990D01*
Y254000D01*
G01X3370000Y1030000D02*
X3230910D01*
G01X3250000Y1350000D02*
Y1470000D01*
G01Y1350000D02*
X3315000D01*
X3400000Y1265000D01*
X3610000D01*
G01X3740000Y655000D02*
Y840000D01*
X3665000Y915000D01*
Y1287080D01*
X3632580Y1319500D01*
X3525500D01*
X3450000Y1395000D01*
Y1725930D01*
X3503200Y1779130D01*
Y1883120D01*
G01X3880000Y709500D02*
Y785000D01*
X3701000Y964000D01*
Y1302000D01*
X3647500Y1355500D01*
X3540420D01*
X3486000Y1409920D01*
Y1711010D01*
X3553200Y1778210D01*
Y1883120D01*
G01X3155000Y3050000D02*
X3531910Y2673090D01*
X4106010D01*
X4391040Y2958120D01*
X4528200D01*
G01X3382540Y3031500D02*
X3437040D01*
X3623540Y2845000D01*
X3890000D01*
X3930550Y2885550D01*
X4145550D01*
X4260200Y3000200D01*
Y3002580D01*
X4304500Y3046880D01*
Y3242500D01*
X4203200Y3343800D01*
Y3433120D01*
G01X3403200D02*
Y3561800D01*
G01X3353200Y3433120D02*
Y3534720D01*
X3348700Y3539220D01*
Y3584380D01*
X3366720Y3602400D01*
Y3634800D01*
G01X3453200Y3433120D02*
Y3534720D01*
X3457700Y3539220D01*
Y3562700D01*
X3494750Y3599750D01*
G01X3388200Y3327620D02*
X3321200D01*
X3303200Y3345620D01*
Y3433120D01*
G01X3298690Y3606050D02*
Y3556030D01*
X3253200Y3510540D01*
Y3433120D01*
G01X3494750Y3599750D02*
X3569150D01*
X3607700Y3561200D01*
Y3515620D01*
X3603200Y3511120D01*
Y3433120D01*
G01X3190000Y3897000D02*
Y3995000D01*
G01X3110000D02*
Y3897000D01*
G01X3970000Y4015000D02*
X3950000Y3995000D01*
X3860000D01*
X3755000Y3890000D01*
X3435000D01*
G01X3190000Y4155000D02*
Y4255000D01*
G01D02*
X3249500D01*
X3270000Y4234500D01*
Y4155000D01*
G01Y3995000D02*
Y4025000D01*
X3325000Y4080000D01*
X3379980D01*
G01D02*
X3570000D01*
X3600000Y4110000D01*
Y4170000D01*
G01X7595000Y4452000D02*
X7448000D01*
X7416000Y4484000D01*
Y4729920D01*
X7324910Y4821010D01*
X7295090D01*
X7295080Y4821000D01*
X5901000D01*
X5502320Y4422320D01*
X4142430D01*
X4105430Y4459320D01*
X3941020D01*
X3904680Y4422980D01*
X3799840D01*
X3799820Y4423000D01*
X3721490D01*
X3695950Y4448540D01*
X3607930D01*
X3573270Y4413880D01*
Y4368720D01*
X3499550Y4295000D01*
X3378500D01*
G01X5080000Y5080000D02*
X4811000Y4811000D01*
X4234880D01*
X4011880Y4588000D01*
Y4581100D01*
X3889760Y4458980D01*
X3814760D01*
X3814740Y4459000D01*
X3736410D01*
X3710870Y4484540D01*
X3593010D01*
X3554470Y4446000D01*
X3470420D01*
G01X3415000Y4645000D02*
X3685000D01*
X3715000Y4675000D01*
X3870000D01*
X3911600Y4716600D01*
Y5080000D01*
G01X3924000Y1265000D02*
X3869500Y1319500D01*
Y1362580D01*
X3851000Y1381080D01*
Y1698080D01*
X3953200Y1800280D01*
Y1883120D01*
G01X3853200D02*
Y1764920D01*
X3815000Y1726720D01*
Y1340000D01*
G01X3753200Y1883120D02*
Y1796120D01*
X3754500Y1794820D01*
Y1404500D01*
G01X3700000Y1770000D02*
Y1810000D01*
X3703200Y1813200D01*
Y1883120D01*
G01X3689500Y2105000D02*
X3728040Y2066460D01*
X3732270D01*
X3792650Y2006080D01*
X3867240D01*
X3903200Y1970120D01*
Y1883120D01*
G01X3760970Y2119890D02*
X3765500Y2115360D01*
Y2084150D01*
X3807570Y2042080D01*
X3967920D01*
X4003200Y2006800D01*
Y1883120D01*
G01X3803200D02*
Y1952080D01*
X3785200Y1970080D01*
X3777730D01*
X3717810Y2030000D01*
X3687420D01*
X3635000Y2082420D01*
Y2154990D01*
X3665010Y2185000D01*
X4000010D01*
X4008970Y2176040D01*
X4149500D01*
G01X4253200Y1883120D02*
Y1972840D01*
X4109080Y2116960D01*
X3905030D01*
X3884650Y2096580D01*
X3830150D01*
G01X4165240Y3161200D02*
X4093800D01*
X4021000Y3234000D01*
X3776000D01*
X3703200Y3306800D01*
Y3433120D01*
G01X3553200D02*
Y3538620D01*
G01X3870960Y3159040D02*
X3816460D01*
X3810500Y3165000D01*
X3765000D01*
X3603200Y3326800D01*
Y3433120D01*
G01X4147660Y3232060D02*
X4109120Y3270600D01*
X3790320D01*
X3753200Y3307720D01*
Y3433120D01*
G01X4075000Y4135000D02*
Y4199500D01*
X4088060Y4212560D01*
X4090000D01*
Y4255000D01*
X4030680Y4314320D01*
X3980690D01*
X3950010Y4345000D01*
X3910000D01*
X3860000Y4295000D01*
Y4070000D01*
X3770000Y3980000D01*
X3665000D01*
G01X3852260Y4549480D02*
X4192780Y4890000D01*
X4382000D01*
X4572000Y5080000D01*
G01X4826000D02*
X4593000Y4847000D01*
X4219960D01*
X3975880Y4602920D01*
Y4596020D01*
X3874840Y4494980D01*
X3829680D01*
X3829660Y4495000D01*
X3751330D01*
X3725790Y4520540D01*
X3550040D01*
G01X4165600Y5080000D02*
X3947600Y4862000D01*
Y4696680D01*
X3869420Y4618500D01*
X3813490D01*
X3779270Y4584280D01*
Y4551160D01*
G01X7205000Y4325000D02*
X6885000D01*
X6710000Y4500000D01*
X5755000D01*
X5605320Y4350320D01*
X4004690D01*
X3968010Y4387000D01*
X3919620D01*
X3919600Y4386980D01*
X3784920D01*
X3784900Y4387000D01*
X3706570D01*
X3699530Y4394040D01*
X3642480D01*
G01X3845000Y4735500D02*
X3657600Y4922900D01*
Y5080000D01*
G01X5080000Y254000D02*
Y380000D01*
X4841000Y619000D01*
X4395990D01*
X3990000Y1024990D01*
Y1285430D01*
X3928520Y1346910D01*
G01X4044500Y1263900D02*
Y1209400D01*
X4045000Y1208900D01*
Y1020910D01*
X4410910Y655000D01*
X5060000D01*
X5334000Y381000D01*
Y254000D01*
G01X4093000Y1450000D02*
Y1395500D01*
X4092020Y1394520D01*
Y1293460D01*
X4099000Y1286480D01*
Y1253080D01*
X4099500Y1252580D01*
Y1017330D01*
X4416830Y700000D01*
X5263500D01*
X5588000Y375500D01*
Y254000D01*
G01X4146520Y1360000D02*
Y1305500D01*
X4147500Y1304520D01*
Y1020250D01*
X4412750Y755000D01*
X5470000D01*
X5842000Y383000D01*
Y254000D01*
G01X4003200Y1883120D02*
Y1793880D01*
X4132580Y1664500D01*
Y1487500D01*
X4147500Y1472580D01*
Y1472500D01*
X4201000Y1419000D01*
Y1382600D01*
X4201020Y1382580D01*
Y1337420D01*
X4201000Y1337400D01*
Y1080500D01*
X4471500Y810000D01*
X5190000D01*
G01X6685000Y1130000D02*
X6595000D01*
X6330000Y865000D01*
X4467420D01*
X4237000Y1095420D01*
Y1322480D01*
X4237020Y1322500D01*
Y1397500D01*
X4237000Y1397520D01*
Y1433920D01*
X4183500Y1487420D01*
Y1487500D01*
X4168580Y1502420D01*
Y1679420D01*
X4053200Y1794800D01*
Y1883120D01*
G01X4103200D02*
Y1795720D01*
X4204580Y1694340D01*
Y1517340D01*
X4219500Y1502420D01*
Y1502340D01*
X4273000Y1448840D01*
Y1412440D01*
X4273020Y1412420D01*
Y1307580D01*
X4273000Y1307560D01*
Y1110340D01*
X4482340Y901000D01*
X5503080D01*
X5590970Y988890D01*
G01X4203200Y1883120D02*
Y1961800D01*
X4163540Y2001460D01*
X4147500D01*
X4108960Y2040000D01*
G01X4032580Y2319500D02*
X4093960Y2258120D01*
X4528200D01*
G01X5900000Y1000000D02*
X5850000Y950000D01*
X5706940D01*
X5601840Y1055100D01*
X4756060D01*
X4756050Y1055090D01*
X4726230D01*
X4542240Y1239080D01*
X4542230D01*
X4479000Y1302310D01*
Y1302320D01*
X4478990Y1302330D01*
Y1841830D01*
X4479000Y1841840D01*
Y1886010D01*
X4370010Y1995000D01*
X4330540D01*
X4149500Y2176040D01*
G01X4528200Y2408120D02*
X4326880D01*
X4311420Y2423580D01*
X4133580D01*
G01X4303200Y3433120D02*
Y3345280D01*
X4300500Y3342580D01*
Y3297420D01*
X4340500Y3257420D01*
Y3110000D01*
X4353240Y3097260D01*
Y3018540D01*
X4314700Y2980000D01*
G01X4003200Y3433120D02*
Y3561800D01*
X3965000Y3600000D01*
G01X4103200Y3433120D02*
Y3353600D01*
X4202160Y3254640D01*
Y3212840D01*
X4245000Y3170000D01*
G01X4053200Y3433120D02*
Y3520120D01*
X4152080Y3619000D01*
X4936000D01*
X4961460Y3593540D01*
Y3568540D01*
X5000000Y3530000D01*
G01X4130000Y4015000D02*
Y3935000D01*
X4170000Y3895000D01*
G01X4075000Y4015000D02*
Y3910000D01*
X4090000Y3895000D01*
G01X4189800Y3782370D02*
X4135300D01*
X4124670Y3793000D01*
X4086000D01*
X4025000Y3854000D01*
Y4015000D01*
G01X4260500Y4090000D02*
X4865000D01*
X5323000Y3632000D01*
Y2964810D01*
X5265000Y2906810D01*
Y2805000D01*
G01X4025000Y4135000D02*
Y4240000D01*
X4010000Y4255000D01*
G01X5135000Y2995000D02*
Y3064990D01*
X5265000Y3194990D01*
Y3635000D01*
X4884870Y4015130D01*
X4296500D01*
G01X3930000Y4275000D02*
Y4220000D01*
X3933400Y4216600D01*
Y4191600D01*
X3970000Y4155000D01*
Y4135000D01*
G01X4115230Y4614270D02*
X4310730D01*
X4349270Y4575730D01*
X5083730D01*
X5588000Y5080000D01*
G01X4205000Y4476820D02*
X4262040Y4533860D01*
X5295860D01*
X5842000Y5080000D01*
G01X4054510Y4404820D02*
X4109010D01*
X4127510Y4386320D01*
X5556320D01*
X5955000Y4785000D01*
X7310000D01*
X7380000Y4715000D01*
Y4393000D01*
X7448000Y4325000D01*
X7595000D01*
G01X5735500Y1010000D02*
X5654400Y1091100D01*
X4741140D01*
X4557160Y1275080D01*
X4557150D01*
X4515000Y1317230D01*
Y1737400D01*
X4514990Y1737410D01*
Y1826910D01*
X4515000Y1826920D01*
Y1929890D01*
X4339370Y2105520D01*
G01X4528200Y2508120D02*
X4796890D01*
X4827000Y2478010D01*
Y1986160D01*
X4623000Y1782160D01*
Y1362000D01*
X4767400Y1217600D01*
X5969560D01*
X5969570Y1217610D01*
X6029230D01*
X6156340Y1090500D01*
X6260500D01*
X6260510Y1090510D01*
X6297590D01*
X6329510Y1122430D01*
Y1148590D01*
X6656000Y1475080D01*
Y1486000D01*
X6731000Y1561000D01*
X6912000D01*
X6986010Y1486990D01*
Y1457170D01*
X6986000Y1457160D01*
Y1190000D01*
X7040000Y1136000D01*
X7205000D01*
G01Y1009000D02*
X7026000D01*
X6950000Y1085000D01*
Y1472080D01*
X6897080Y1525000D01*
X6745920D01*
X6692000Y1471080D01*
Y1460160D01*
X6365510Y1133670D01*
Y1107510D01*
X6312510Y1054510D01*
X6275430D01*
X6275420Y1054500D01*
X6141420D01*
X6014310Y1181610D01*
X5984490D01*
X5984480Y1181600D01*
X4752480D01*
X4587000Y1347080D01*
Y1767250D01*
X4586990Y1767260D01*
Y1797070D01*
X4791000Y2001080D01*
Y2164920D01*
X4710420Y2245500D01*
X4693550D01*
X4630930Y2308120D01*
X4528200D01*
G01X6746500Y1448500D02*
X6401510Y1103510D01*
Y1092590D01*
X6327430Y1018510D01*
X6317010D01*
X6317000Y1018500D01*
X6126490D01*
X6105420Y1039570D01*
Y1039580D01*
X5999400Y1145600D01*
X4737560D01*
X4572080Y1311080D01*
X4572070D01*
X4551000Y1332150D01*
Y1752320D01*
X4550990Y1752330D01*
Y1811990D01*
X4755000Y2016000D01*
Y2150000D01*
X4695500Y2209500D01*
X4678630D01*
X4630010Y2258120D01*
X4528200D01*
G01Y2058120D02*
X4663120D01*
X4700000Y2095000D01*
G01X4528200Y2158120D02*
X4421880D01*
X4396380Y2183620D01*
Y2190390D01*
G01X4657580Y2159220D02*
Y2167420D01*
X4616880Y2208120D01*
X4528200D01*
G01X4339370Y2105520D02*
X4393870D01*
X4396470Y2108120D01*
X4528200D01*
G01Y2658120D02*
X4689740D01*
X4693620Y2662000D01*
X4748120D01*
G01X4750000Y2445000D02*
X4628320D01*
X4615200Y2458120D01*
X4528200D01*
G01X4716130Y2300000D02*
X4677590Y2338540D01*
Y2342410D01*
X4661880Y2358120D01*
X4528200D01*
G01X4867490Y2867490D02*
Y2652490D01*
X4822500Y2607500D01*
X4725540D01*
X4724920Y2608120D01*
X4528200D01*
G01X4945000Y2895000D02*
Y2679080D01*
X4824040Y2558120D01*
X4528200D01*
G01X4670000Y2908120D02*
X4528200D01*
G01X4740000Y3002500D02*
X4636000D01*
X4630380Y3008120D01*
X4528200D01*
G01X4740000Y3067500D02*
X4636000D01*
X4626620Y3058120D01*
X4528200D01*
G01Y2708120D02*
X4717160D01*
X4725540Y2716500D01*
X4798500D01*
X4806880Y2708120D01*
G01X4355000Y3320000D02*
X4353200Y3321800D01*
Y3433120D01*
G01X4528200Y3108120D02*
X4422700D01*
G01X4485000Y4160000D02*
X4960920D01*
X5545000Y3575920D01*
Y3275000D01*
G01X4508960Y4643960D02*
X4640000Y4775000D01*
X5029000D01*
X5334000Y5080000D01*
G01X5190000Y1372000D02*
X5124000D01*
X5110000Y1386000D01*
Y1470000D01*
G01X5030000D02*
X4962000D01*
G01X5110000Y1630000D02*
Y1702000D01*
X5092000Y1720000D01*
X4881460D01*
X4850000Y1688540D01*
Y1504920D01*
X4920000Y1434920D01*
Y1415000D01*
X5000000Y1335000D01*
X5149920D01*
X5167420Y1317500D01*
X5212580D01*
X5215080Y1320000D01*
X5587000D01*
X5665000Y1398000D01*
Y1455000D01*
G01X4780000Y1297920D02*
Y1675920D01*
X4865000Y1760920D01*
Y2548160D01*
X5022000Y2705160D01*
Y2775420D01*
X5015000Y2782420D01*
Y2874990D01*
X5040010Y2900000D01*
X5162000D01*
X5200000Y2938000D01*
Y2995000D01*
G01X5070000Y2165000D02*
Y2109000D01*
X5030000Y2069000D01*
Y1800000D01*
X5074000Y1756000D01*
X5106920D01*
X5112920Y1750000D01*
X5192080D01*
X5193080Y1751000D01*
X5704670D01*
X5706670Y1749000D01*
X6181660D01*
X6430000Y1500660D01*
Y1300000D01*
X6275010Y1145010D01*
G01X7150000Y1838280D02*
X6718280D01*
X6648000Y1768000D01*
X6213580D01*
X6196580Y1785000D01*
X5721590D01*
X5719590Y1787000D01*
X5179290D01*
X5139000Y1827290D01*
X5084500D01*
G01X6618000Y2789000D02*
X6806000D01*
X6984000Y2611000D01*
Y2524000D01*
X6300000Y1840000D01*
X6243420D01*
X6226420Y1857000D01*
X5875880D01*
X5873880Y1859000D01*
X5235000D01*
X5152540Y1941460D01*
X5133540D01*
X5095000Y1980000D01*
G01X6966500Y1892780D02*
X6702780D01*
X6614000Y1804000D01*
X6228500D01*
X6211500Y1821000D01*
X5736520D01*
X5734520Y1823000D01*
X5216990D01*
X5139700Y1900290D01*
X5085200D01*
G01X5070000Y2285000D02*
Y2435000D01*
X5125000Y2490000D01*
G01X5190000Y1470000D02*
Y1372000D01*
G01D02*
X5251500D01*
X5270000Y1390500D01*
Y1470000D01*
G01X5345000Y1390000D02*
X5489000Y1534000D01*
X5578000D01*
X5600000Y1512000D01*
Y1455000D01*
G01X5270000Y1630000D02*
X5410000D01*
X5415000Y1625000D01*
X5469500D01*
G01X5190000Y1630000D02*
Y1697000D01*
X5208000Y1715000D01*
X5535000D01*
G01X5340000Y1490000D02*
X5420000Y1570000D01*
X5582000D01*
X5600000Y1588000D01*
Y1645000D01*
G01Y2995000D02*
Y2938000D01*
X5584000Y2922000D01*
X5449920D01*
X5412000Y2884080D01*
Y2582010D01*
X5326410Y2496420D01*
Y2258590D01*
X5365000Y2220000D01*
G01X5125000Y2165000D02*
Y2050500D01*
X5150500Y2025000D01*
X5272920D01*
X5277420Y2029500D01*
X5328610D01*
X5412610Y1945500D01*
X5889220D01*
X5905720Y1929000D01*
X5995220D01*
X6038320Y1972100D01*
X6265750D01*
G01X5175000Y2165000D02*
Y2098500D01*
X5208000Y2065500D01*
X5330490D01*
X5387580Y2122590D01*
Y2165500D01*
X5420000Y2197920D01*
Y2310570D01*
X5362410Y2368160D01*
Y2459490D01*
X5417420Y2514500D01*
X5608420D01*
X5727420Y2395500D01*
X5774190D01*
X5810000Y2431310D01*
Y2529990D01*
X5753000Y2586990D01*
Y3187920D01*
X5708650Y3232270D01*
Y3588650D01*
X5985000Y3865000D01*
X6765000D01*
G01X5600000Y2130000D02*
Y2187000D01*
X5582000Y2205000D01*
X5485500D01*
X5450000Y2169500D01*
Y2115000D01*
G01X6261270Y1899230D02*
X6016370D01*
X6010140Y1893000D01*
X5890800D01*
X5874300Y1909500D01*
X5370500D01*
X5305000Y1975000D01*
G01X5440000Y2460000D02*
X5540000D01*
X5600000Y2400000D01*
Y2320000D01*
G01X5175000Y2285000D02*
Y2410810D01*
X5376000Y2611810D01*
Y2899000D01*
X5395000Y2918000D01*
Y2945000D01*
X5445000Y2995000D01*
X5535000D01*
G01X5125000Y2285000D02*
Y2411730D01*
X5340000Y2626730D01*
Y2913920D01*
X5359000Y2932920D01*
Y3034000D01*
X5525000Y3200000D01*
X5690000D01*
X5717000Y3173000D01*
Y2867000D01*
X5665000Y2815000D01*
Y2805000D01*
G01X5416910Y2390740D02*
X5521260D01*
X5535000Y2377000D01*
Y2320000D01*
G01X5200000Y2805000D02*
Y2724500D01*
X5225000Y2699500D01*
Y2645000D01*
G01X5195000Y3310000D02*
Y3394500D01*
X5194000Y3395500D01*
Y3450000D01*
G01X6000000Y1455000D02*
Y1406550D01*
X6036200Y1370350D01*
Y1310690D01*
X5994030Y1268520D01*
X5934370D01*
X5860000Y1342890D01*
Y1455000D01*
G01X5665000D02*
X5860000D01*
G01D02*
Y1690000D01*
X5880000Y1710000D01*
X5985000D01*
X6000000Y1695000D01*
Y1645000D01*
G01X5785000Y1635000D02*
X5707870Y1712130D01*
X5692630D01*
X5689760Y1715000D01*
X5535000D01*
G01D02*
Y1645000D01*
G01X5665000Y2040000D02*
Y2130000D01*
G01Y2040000D02*
X5719500D01*
X5735000Y2055500D01*
Y2245000D01*
X5852000Y2362000D01*
Y2422390D01*
X6000000Y2570390D01*
Y2805000D01*
G01X5815500Y2000000D02*
X5885640D01*
X5920640Y1965000D01*
X5980300D01*
X6022470Y2007170D01*
Y2068450D01*
X6000000Y2090920D01*
Y2130000D01*
G01X5789500Y2085000D02*
Y2224500D01*
X5888000Y2323000D01*
Y2407470D01*
X5952530Y2472000D01*
X6173000D01*
X6231500Y2413500D01*
X6763000D01*
X6929500Y2580000D01*
G01X5600000Y2805000D02*
Y2665000D01*
X5750000Y2515000D01*
Y2450000D01*
G01X6000000Y2320000D02*
Y2130000D01*
G01Y2995000D02*
Y2805000D01*
G01X6875000Y1470000D02*
Y1015000D01*
X7008000Y882000D01*
X7205000D01*
G01X6966500Y1892780D02*
X7020000Y1946280D01*
Y2540000D01*
G01X7205000Y4198000D02*
X7038000D01*
X6976000Y4136000D01*
Y2793080D01*
X6975500Y2792580D01*
Y2747420D01*
X6976000Y2746920D01*
Y2679000D01*
X7020000Y2635000D01*
Y2540000D01*
G01D02*
X7205000D01*
G01X7030000Y2770000D02*
Y2695000D01*
X7058000Y2667000D01*
X7205000D01*
G01X7040000Y3155000D02*
Y2877000D01*
X7123000Y2794000D01*
X7205000D01*
G01Y4452000D02*
X7030000D01*
G01X7155000Y255000D02*
X7320000D01*
G01X7420000Y1705000D02*
Y1650500D01*
X7390150Y1620650D01*
Y1497420D01*
X7408650Y1478920D01*
Y1048350D01*
X7448000Y1009000D01*
X7595000D01*
G01X7205000Y755000D02*
X7352000D01*
X7370000Y773000D01*
Y1395000D01*
X7150000Y1615000D01*
Y1838280D01*
G01X7424500Y882000D02*
X7595000D01*
G01Y1136000D02*
X7462650D01*
X7444650Y1154000D01*
Y1520000D01*
G01X7150000Y1838280D02*
Y2095000D01*
X7365000Y2310000D01*
Y2413000D01*
G01X7290000Y3255000D02*
Y3170920D01*
X7401000Y3059920D01*
Y2714000D01*
X7448000Y2667000D01*
X7595000D01*
G01X7205000Y4071000D02*
Y4006000D01*
X7180000Y3981000D01*
Y3230000D01*
X7365000Y3045000D01*
Y2413000D01*
G01D02*
X7205000D01*
G01X7419500Y2540000D02*
X7595000D01*
G01X7399000Y3139000D02*
X7437000Y3101000D01*
Y2835000D01*
X7478000Y2794000D01*
X7595000D01*
G01X7435000Y3965000D02*
Y4172000D01*
X7453000Y4190000D01*
X7587000D01*
X7595000Y4198000D01*
G54D58*
X7480000Y255000D03*
X7320000D03*
X7480000Y1915000D03*
X7320000D03*
X7480000Y3575000D03*
X7320000D03*
G54D49*
X2380000Y2475000D03*
X2620000D03*
X2380000Y2875000D03*
X2620000D03*
G54D68*
G01X112540Y3990000D02*
X225000D01*
G01D02*
X337460D01*
G01X605000Y590620D02*
Y830580D01*
G01X475040Y590620D02*
X605000Y830580D01*
G01D02*
Y1070540D01*
G01X475040Y830580D02*
X605000D01*
G01D02*
X734960D01*
G01X605000D02*
X734960Y1070540D01*
G01X475040D02*
X605000Y830580D01*
G01D02*
X734960Y590620D01*
G01X420000Y1815000D02*
Y1905000D01*
G01D02*
Y1995000D01*
G01X385000Y2025040D02*
Y2095000D01*
G01D02*
Y2164960D01*
G01Y2095000D02*
X457460D01*
G01X925000Y220620D02*
Y350580D01*
G01X685040Y220620D02*
X925000Y350580D01*
G01D02*
Y480540D01*
G01X685040Y350580D02*
X925000D01*
G01D02*
X1164960D01*
G01X925000D02*
X1164960Y480540D01*
G01X685040D02*
X925000Y350580D01*
G01D02*
X1164960Y220620D01*
G01X1755000Y2340000D02*
Y2399960D01*
G01Y2340000D02*
X1824960D01*
G01X2050000Y422540D02*
Y580000D01*
G01D02*
Y737460D01*
G01X2200000Y2045000D02*
Y2117460D01*
G01Y2045000D02*
X2269960D01*
G01X2280040Y2475000D02*
X2380000D01*
G01X2315000Y1575040D02*
Y1645000D01*
G01D02*
X2374960D01*
G01X2600000Y1882540D02*
Y1955000D01*
G01D02*
X2669960D01*
G01X2380000Y2475000D02*
Y2604960D01*
G01Y2475000D02*
X2479960D01*
G01X3160040Y1630000D02*
X3250000D01*
G01D02*
X3339960D01*
G01X4610040Y3455000D02*
X4700000D01*
G01D02*
X4789960D01*
G01X4810040D02*
X4900000D01*
G01D02*
X4989960D01*
G01X6618000Y2535000D02*
X6750460D01*
G01X6618000D02*
X6731600Y2648600D01*
G01X6504400D02*
X6618000Y2535000D01*
G01D02*
X6685340Y2680860D01*
G54D59*
G01X950000Y3170000D02*
X957500D01*
X1050000Y3077500D01*
Y3000000D01*
X1080000Y2970000D01*
X1215000D01*
X1270000Y3025000D01*
X1660000D01*
G01X1795000Y2895000D02*
Y2942500D01*
X1859060Y3006560D01*
Y3190000D01*
G01X1795000Y2815000D02*
X1690000D01*
G01D02*
Y2940000D01*
X1765000Y3015000D01*
Y3060000D01*
G01X1690000Y2815000D02*
Y2757500D01*
X1712500Y2735000D01*
X1795000D01*
G01X1920000Y3375000D02*
X1922020Y3372980D01*
Y3252960D01*
X1859060Y3190000D01*
G01D02*
X1765000D01*
G01X1955000Y2655000D02*
X2055000D01*
G01X1985000Y3060000D02*
Y3110500D01*
X1999500Y3125000D01*
X2055000D01*
G01X2707000Y2475000D02*
X2620000D01*
G01X2380000Y2875000D02*
Y2845000D01*
X2516880Y2708120D01*
X2978200D01*
G01X2825000Y2595000D02*
Y2630000D01*
X2853120Y2658120D01*
X2978200D01*
G01X2760000Y2900000D02*
X2835080D01*
X2893200Y2958120D01*
X2978200D01*
G01X4130000Y4135000D02*
X4150000Y4155000D01*
X4395000D01*
X4460000Y4220000D01*
X6140000D01*
X6176000Y4256000D01*
Y4375000D01*
M02*
