G04 ================== begin FILE IDENTIFICATION RECORD ==================*
G04 Layout Name:  Netduino3_16Dec16_0800.brd*
G04 Film Name:    L2-GND*
G04 File Format:  Gerber RS274X*
G04 File Origin:  Cadence Allegro 16.6-2015-S069*
G04 Origin Date:  Fri Dec 16 09:48:39 2016*
G04 *
G04 Layer:  VIA CLASS/L2-GND*
G04 Layer:  PIN/L2-GND*
G04 Layer:  ETCH/L2-GND*
G04 *
G04 Offset:    (0.0000 0.0000)*
G04 Mirror:    No*
G04 Mode:      Positive*
G04 Rotation:  0*
G04 FullContactRelief:  No*
G04 UndefLineWidth:     0.1270*
G04 ================== end FILE IDENTIFICATION RECORD ====================*
%FSLAX25Y25*MOMM*%
%IR0*IPPOS*OFA0.00000B0.00000*MIA0B0*SFA1.00000B1.00000*%
%ADD14C,.9*%
%ADD13C,.55*%
%ADD11C,.6604*%
%ADD10O,1.8X4.*%
%ADD12O,4.X1.8*%
%ADD15C,1.85*%
%ADD16C,.254*%
%ADD17C,.9504*%
%ADD24O,2.2004X4.4004*%
%ADD18C,1.3004*%
%ADD25O,2.2004X4.9004*%
%ADD22C,4.2004*%
%ADD19C,2.2504*%
%ADD21C,1.0608*%
%ADD20R,1.5504X1.8004*%
%ADD23R,9.9004X8.4004*%
G75*
%LPD*%
G75*
G36*
G01X1362760Y5214570D02*
G03X1719780Y5003980I161241J-134572D01*
G02X1789050Y5013210I37174J-14440D01*
G03X1973370Y5017800I90554J66790D01*
G02X2039830I33230J-22042D01*
G03X2227370I93770J62200D01*
G02X2293830I33230J-22042D01*
G03Y5142200I93770J62200D01*
G02X2227370I-33230J22042D01*
G03X2039830I-93770J-62200D01*
G02X1973370I-33230J22042D01*
G03X1789050Y5146790I-93766J-62200D01*
G02X1719780Y5156020I-32096J23670D01*
G03X1685240Y5214570I-195775J-76029D01*
G02X1715860Y5280000I30621J25550D01*
G01X7620000D01*
X7745000Y5155000D01*
Y170000D01*
X7625000Y50000D01*
X50000D01*
Y2244480D01*
X230020D01*
Y2417020D01*
X50000D01*
Y2916980D01*
X230020D01*
Y3089520D01*
X50000D01*
Y5280000D01*
X1332140D01*
G02X1362760Y5214570I-1J-39880D01*
G37*
%LPC*%
G75*
G36*
G01X4306920Y4079860D02*
G03X4317560Y4057730I19482J-4256D01*
G02X4250080Y4025270I-21056J-42599D01*
G03X4239440Y4047400I-19482J4256D01*
G02X4306920Y4079860I21056J42599D01*
G37*
G36*
G01X3967300Y4304440D02*
G03X3990950Y4298530I15651J12357D01*
G02X3972700Y4225560I19051J-43532D01*
G03X3949050Y4231470I-15651J-12357D01*
G02X3967300Y4304440I-19051J43532D01*
G37*
G36*
G01X6457770Y2472800D02*
G02X6301800Y2628770I-93770J62200D01*
G03Y2695230I-22042J33230D01*
G02Y2882770I62200J93770D01*
G03Y2949230I-22042J33230D01*
G02X6457770Y3105200I62200J93770D01*
G03X6524230I33230J22042D01*
G02X6680200Y2949230I93770J-62200D01*
G03Y2882770I22042J-33230D01*
G02Y2695230I-62200J-93770D01*
G03Y2628770I22042J-33230D01*
G02X6524230Y2472800I-62200J-93770D01*
G03X6457770I-33230J-22042D01*
G37*
G36*
G01X4665770Y5017800D02*
G02Y5142200I-93770J62200D01*
G03X4732230I33230J22042D01*
G02X4919770I93770J-62200D01*
G03X4986230I33230J22042D01*
G02X5173770I93770J-62200D01*
G03X5240230I33230J22042D01*
G02X5427770I93770J-62200D01*
G03X5494230I33230J22042D01*
G02X5681770I93770J-62200D01*
G03X5748230I33230J22042D01*
G02X5935770I93770J-62200D01*
G03X6002230I33230J22042D01*
G02X6171010Y5163870I93767J-62199D01*
G03X6237470Y5192520I26593J29721D01*
G01X6462520D01*
Y4967480D01*
X6237470D01*
G03X6171010Y4996130I-39867J-1071D01*
G02X6002230Y5017800I-75013J83869D01*
G03X5935770I-33230J-22042D01*
G02X5748230I-93770J62200D01*
G03X5681770I-33230J-22042D01*
G02X5494230I-93770J62200D01*
G03X5427770I-33230J-22042D01*
G02X5240230I-93770J62200D01*
G03X5173770I-33230J-22042D01*
G02X4986230I-93770J62200D01*
G03X4919770I-33230J-22042D01*
G02X4732230I-93770J62200D01*
G03X4665770I-33230J-22042D01*
G37*
G36*
G01X2866610Y4935720D02*
G02X2787740Y4979890I-46606J9280D01*
G03X2795970Y5027700I-27080J29275D01*
G02X2989370Y5142200I99630J52300D01*
G03X3055830I33230J22042D01*
G02X3243370I93770J-62200D01*
G03X3309830I33230J22042D01*
G02X3497370I93770J-62200D01*
G03X3563830I33230J22042D01*
G02X3751370I93770J-62200D01*
G03X3817830I33230J22042D01*
G02X3986610Y5163870I93767J-62199D01*
G03X4053070Y5192520I26593J29721D01*
G01X4278120D01*
Y4967480D01*
X4053070D01*
G03X3986610Y4996130I-39867J-1071D01*
G02X3817830Y5017800I-75013J83869D01*
G03X3751370I-33230J-22042D01*
G02X3563830I-93770J62200D01*
G03X3497370I-33230J-22042D01*
G02X3309830I-93770J62200D01*
G03X3243370I-33230J-22042D01*
G02X3055830I-93770J62200D01*
G03X2989370I-33230J-22042D01*
G02X2903070Y4967730I-93764J62203D01*
G03X2866610Y4935720I2652J-39790D01*
G37*
G36*
G01X3553140Y4358490D02*
G02X3471800Y4384100I-34371J32812D01*
G03X3457510Y4400270I-19711J-3020D01*
G02X3466690Y4493370I12916J45729D01*
G03X3503020Y4527380I-3136J39759D01*
G02X3552200Y4568010I47023J-6839D01*
G03X3573020Y4587060I900J19918D01*
G02X3618340Y4537530I47477J-2058D01*
G03X3597520Y4518480I-900J-19918D01*
G02X3571520Y4478150I-47477J2062D01*
G03X3557250Y4419180I18025J-35573D01*
G02X3561920Y4411200I-38483J-27877D01*
G03X3598490Y4412010I18109J8349D01*
G02X3609590Y4359740I43990J-17972D01*
G03X3553140Y4358490I-27601J-28786D01*
G37*
G36*
G01X1915890Y4241880D02*
G02X1874140Y4336920I-30886J43122D01*
G03X1904310Y4386920I-8168J39031D01*
G02X1991810Y4377420I45686J13079D01*
G03X2002480Y4326930I35087J-18958D01*
G02X2002700Y4326760I-32320J-42053D01*
G03X2027300I12300J15695D01*
G02Y4243240I32700J-41760D01*
G03X2002700I-12300J-15695D01*
G02X1939110Y4241880I-32703J41759D01*
G03X1915890I-11610J-16208D01*
G37*
G36*
G01X3559370Y3585740D02*
G02X3505850Y3534560I-6172J-47120D01*
G03X3488580Y3552630I-19865J-1698D01*
G02X3484850Y3553270I6165J47120D01*
G03X3443080Y3535960I-8308J-39004D01*
G02X3360700Y3540550I-39878J25841D01*
G03X3313010Y3560740I-35670J-17837D01*
G02X3307170Y3652810I-14319J45312D01*
G03X3327280Y3661310I3559J19618D01*
G02X3409690Y3655090I39439J-26510D01*
G03X3468110Y3639100I36060J17032D01*
G02X3542100Y3603810I26643J-39350D01*
G03X3559370Y3585740I19865J1698D01*
G37*
G36*
G01X566660Y3437820D02*
G02X483340I-41660J-32820D01*
G03Y3487180I-31332J24680D01*
G02X566660I41660J32820D01*
G03Y3437820I31332J-24680D01*
G37*
G36*
G01X7487300Y3146290D02*
G02X7447240Y3064680I21701J-61290D01*
G03X7404630Y3091810I-37880J-12468D01*
G02X7439770Y3163400I-5633J47184D01*
G03X7487300Y3146290I34219J20486D01*
G37*
G36*
G01X2883970Y3057220D02*
G02X2825640Y3017670I-11273J-46163D01*
G03X2795610Y3061960I-39493J5548D01*
G02X2853940Y3101510I11273J46163D01*
G03X2883970Y3057220I39493J-5548D01*
G37*
G36*
G01X3871110Y2447360D02*
G02X3828200Y2391740I3888J-47362D01*
G03X3806930Y2408140I-19634J-3472D01*
G02X3758840Y2438040I-3893J47361D01*
G03X3716390Y2462910I-37091J-14646D01*
G02X3663360Y2500880I-6392J47090D01*
G03X3643310Y2516990I-19568J-3822D01*
G02X3688800Y2573620I-1149J47509D01*
G03X3708850Y2557510I19568J3822D01*
G02X3754200Y2527460I1151J-47509D01*
G03X3796650Y2502590I37091J14646D01*
G02X3849840Y2463760I6392J-47090D01*
G03X3871110Y2447360I19634J3472D01*
G37*
G36*
G01X4386860Y2107100D02*
G02X4322870Y2150080I-47491J-1581D01*
G03X4348890Y2188810I-13840J37404D01*
G02X4412880Y2145830I47491J1581D01*
G03X4386860Y2107100I13840J-37404D01*
G37*
G36*
G01X6449280Y2106700D02*
G02X6355510Y2135120I-59284J-26700D01*
G03X6370720Y2185300I-21155J33807D01*
G02X6464490Y2156880I59284J26700D01*
G03X6449280Y2106700I21155J-33807D01*
G37*
G36*
G01X5855290Y1974020D02*
G02X5772160Y2019480I-39785J25984D01*
G03X5764470Y2044610I-18189J8176D01*
G02X5748770Y2060530I25033J40389D01*
G03X5711970Y2047220I-17092J-10271D01*
G02X5688300Y2081420I-46971J-7217D01*
G03X5745110Y2101950I19554J34757D01*
G02X5832840Y2065520I44390J-16950D01*
G03X5840530Y2040390I18189J-8176D01*
G02X5850990Y2031610I-25005J-40410D01*
G03X5885730Y2043020I14888J13262D01*
G02X5912170Y1984450I64742J-6027D01*
G03X5855290Y1974020I-23487J-32227D01*
G37*
G36*
G01X2836910Y1722410D02*
G02X2748030Y1707710I-46911J7589D01*
G03X2697840Y1725960I-35217J-18713D01*
G02X2721970Y1792290I-17839J44044D01*
G03X2772160Y1774040I35217J18713D01*
G02X2778020Y1775980I17832J-44044D01*
G03X2792670Y1792090I-5035J19295D01*
G02X2864080Y1825220I46911J-7589D01*
G03X2921310Y1843690I20569J34165D01*
G02X2983310Y1868850I43690J-18690D01*
G03X3037210Y1895370I15367J36802D01*
G02X3064810Y1839270I45912J-12252D01*
G03X3010910Y1812750I-15367J-36802D01*
G02X2940500Y1784280I-45914J12249D01*
G03X2883270Y1765810I-20569J-34165D01*
G02X2851560Y1738520I-43687J18694D01*
G03X2836910Y1722410I5035J-19295D01*
G37*
G36*
G01X3642370Y1703490D02*
G02X3612000Y1770980I-42371J21511D01*
G03X3657630Y1791510I10072J38588D01*
G02X3688000Y1724020I42371J-21511D01*
G03X3642370Y1703490I-10072J-38588D01*
G37*
G36*
G01X6786660Y1423100D02*
G02X6776210Y1485590I-40160J25403D01*
G03X6834840Y1495400I24927J31129D01*
G02X6845290Y1432910I40160J-25403D01*
G03X6786660Y1423100I-24927J-31129D01*
G37*
G36*
G01X5382540Y1419130D02*
G02X5304740Y1415240I-37541J-29132D01*
G03X5302460Y1460870I-33791J21184D01*
G02X5380260Y1464760I37541J29132D01*
G03X5382540Y1419130I33791J-21184D01*
G37*
G36*
G01X4164670Y1403920D02*
G02X4099270Y1365020I-18146J-43918D01*
G03X4074850Y1406080I-39658J4206D01*
G02X4140250Y1444980I18146J43918D01*
G03X4164670Y1403920I39658J-4206D01*
G37*
G36*
G01X6279700Y1298590D02*
G02X6233970Y1367190I-64702J6411D01*
G03X6285300Y1401410I11642J38144D01*
G02X6331030Y1332810I64702J-6411D01*
G03X6279700Y1298590I-11642J-38144D01*
G37*
G36*
G01X4002250Y1285660D02*
G02X4011430Y1229780I42249J-21753D01*
G03X3956440Y1230280I-27758J-28637D01*
G02X3876760Y1259810I-32444J34721D01*
G03X3827030Y1294030I-39640J-4361D01*
G02X3767520Y1338160I-12028J45970D01*
G03X3749630Y1357230I-19926J-767D01*
G02X3801980Y1406340I4867J47269D01*
G03X3819870Y1387270I19926J767D01*
G02X3843670Y1377900I-4866J-47271D01*
G03X3895470Y1381050I24062J31803D01*
G02X3964600Y1315980I33052J-34143D01*
G03X3963260Y1291770I15136J-12980D01*
G02X3966640Y1285980I-39247J-26793D01*
G03X4002250Y1285660I17886J8810D01*
G37*
G36*
G01X3594720Y1105250D02*
G02X3517280I-38720J-36250D01*
G03Y1159770I-29107J27260D01*
G02X3546260Y1248160I38719J36251D01*
G03X3562520Y1266940I-3662J19600D01*
G02X3623280Y1219370I47481J-1942D01*
G03X3608950Y1199080I5576J-19144D01*
G02X3594720Y1159770I-52951J-3063D01*
G03Y1105250I29107J-27260D01*
G37*
G36*
G01X3015680Y980750D02*
G02Y1059250I-35680J39250D01*
G03X3069320I26820J29509D01*
G02Y980750I35680J-39250D01*
G03X3015680I-26820J-29509D01*
G37*
G36*
G01X5192530Y141480D02*
X4967480D01*
Y366520D01*
X5192530D01*
G03X5258990Y337870I39867J1071D01*
G02X5427770Y316200I75013J-83869D01*
G03X5494230I33230J22042D01*
G02X5681770I93770J-62200D01*
G03X5748230I33230J22042D01*
G02X5935770I93770J-62200D01*
G03X6002230I33230J22042D01*
G02X6189770I93770J-62200D01*
G03X6256230I33230J22042D01*
G02Y191800I93770J-62200D01*
G03X6189770I-33230J-22042D01*
G02X6002230I-93770J62200D01*
G03X5935770I-33230J-22042D01*
G02X5748230I-93770J62200D01*
G03X5681770I-33230J-22042D01*
G02X5494230I-93770J62200D01*
G03X5427770I-33230J-22042D01*
G02X5258990Y170130I-93767J62199D01*
G03X5192530Y141480I-26593J-29721D01*
G37*
G36*
G01X2906530D02*
X2681480D01*
Y366520D01*
X2906530D01*
G03X2972990Y337870I39867J1071D01*
G02X3141770Y316200I75013J-83869D01*
G03X3208230I33230J22042D01*
G02X3395770I93770J-62200D01*
G03X3462230I33230J22042D01*
G02X3649770I93770J-62200D01*
G03X3716230I33230J22042D01*
G02Y191800I93770J-62200D01*
G03X3649770I-33230J-22042D01*
G02X3462230I-93770J62200D01*
G03X3395770I-33230J-22042D01*
G02X3208230I-93770J62200D01*
G03X3141770I-33230J-22042D01*
G02X2972990Y170130I-93767J62199D01*
G03X2906530Y141480I-26593J-29721D01*
G37*
G36*
G01X671960Y1845030D02*
G03Y1799970I32907J-22530D01*
G02X584440I-43760J-29970D01*
G03Y1845030I-32907J22530D01*
G02X671960I43760J29970D01*
G37*
G36*
G01X5124910Y1874200D02*
G03X5124710Y1852620I16668J-10945D01*
G02X5044790Y1853380I-40204J-25331D01*
G03X5044990Y1874960I-16668J10945D01*
G02X5050750Y1933020I40209J25327D01*
G03X5053650Y1956580I-14452J13737D01*
G02X5129450Y1947270I41348J23420D01*
G03X5126550Y1923710I14452J-13737D01*
G02X5124910Y1874200I-41351J-23412D01*
G37*
G36*
G01X6304060Y1943980D02*
G03X6302730Y1922440I16072J-11803D01*
G02X6222960Y1927350I-41465J-23211D01*
G03X6224290Y1948890I-16072J11803D01*
G02X6304060Y1943980I41465J23211D01*
G37*
G36*
G01X3501960Y2043250D02*
G03X3488130Y2059810I-19785J-2468D01*
G02X3455790Y2095540I14198J45351D01*
G03X3439400Y2111190I-19524J-4040D01*
G02X3493420Y2167740I7482J46929D01*
G03X3509810Y2152090I19524J4040D01*
G02X3549490Y2111030I-7478J-46930D01*
G03X3563320Y2094470I19785J2468D01*
G02X3501960Y2043250I-14202J-45350D01*
G37*
G36*
G01X4705090Y2158110D02*
G03X4717630Y2139130I19933J-463D01*
G02X4652490Y2096110I-17632J-44130D01*
G03X4639950Y2115090I-19933J463D01*
G02X4705090Y2158110I17632J44130D01*
G37*
G36*
G01X3798100Y2149550D02*
G03X3818540Y2142660I15577J12447D01*
G02X3793020Y2066920I11609J-46081D01*
G03X3772580Y2073810I-15577J-12447D01*
G02X3743950Y2075520I-11614J46080D01*
G03X3722820Y2071120I-7147J-18614D01*
G02X3706520Y2149370I-33320J33882D01*
G03X3727650Y2153770I7147J18614D01*
G02X3798100Y2149550I33322J-33880D01*
G37*
G36*
G01X2073320Y2317290D02*
G03X2083660Y2339450I-9100J17739D01*
G02X2151680Y2307710I46338J10548D01*
G03X2141340Y2285550I9100J-17739D01*
G02X2073320Y2317290I-46338J-10548D01*
G37*
G36*
G01X5469780Y2422970D02*
G03X5462950Y2402500I12492J-15543D01*
G02X5387130Y2427770I-46041J-11761D01*
G03X5393960Y2448240I-12492J15543D01*
G02X5469780Y2422970I46041J11761D01*
G37*
G36*
G01X2093270Y2706820D02*
G03Y2683180I16052J-11820D01*
G02X2016730I-38270J-28180D01*
G03Y2706820I-16052J11820D01*
G02X2093270I38270J28180D01*
G37*
G36*
G01X4810620Y2660750D02*
G03X4793250Y2647110I1569J-19878D01*
G02X4744380Y2709370I-45128J14887D01*
G03X4761750Y2723010I-1569J19878D01*
G02X4810620Y2660750I45128J-14887D01*
G37*
G36*
G01X4930300Y2849810D02*
G03X4907390Y2841680I-6169J-18961D01*
G02X4882190Y2912680I-39900J25810D01*
G03X4905100Y2920810I6169J18961D01*
G02X4930300Y2849810I39900J-25810D01*
G37*
G36*
G01X1025030Y2831240D02*
G03X979970I-22530J-32907D01*
G02Y2918760I-29970J43760D01*
G03X1025030I22530J32907D01*
G02X1089520Y2915270I29971J-43760D01*
G03X1115480I12980J15136D01*
G02Y2834730I34520J-40270D01*
G03X1089520I-12980J-15136D01*
G02X1025030Y2831240I-34519J40270D01*
G37*
G36*
G01X4221100Y3128930D02*
G03X4197520Y3126330I-10033J-17234D01*
G02X4120260Y3176540I-32283J34871D01*
G03X4115070Y3197480I-18872J6436D01*
G02X4193310Y3245280I32595J34581D01*
G03X4237720Y3216960I38305J11087D01*
G02X4221100Y3128930I7281J-46959D01*
G37*
G36*
G01X2582700Y3884260D02*
G03X2607300I12300J15695D01*
G02Y3800740I32700J-41760D01*
G03X2582700I-12300J-15695D01*
G02X2516390Y3801470I-32699J41760D01*
G03X2491110I-12640J-15423D01*
G02Y3883530I-33610J41030D01*
G03X2516390I12640J15423D01*
G02X2582700Y3884260I33611J-41030D01*
G37*
G36*
G01X3081820Y3858730D02*
G03X3058180I-11820J-16052D01*
G02Y3935270I-28180J38270D01*
G03X3081820I11820J16052D01*
G02X3138180I28180J-38270D01*
G03X3161820I11820J16052D01*
G02Y3858730I28180J-38270D01*
G03X3138180I-11820J-16052D01*
G02X3081820I-28180J38270D01*
G37*
G36*
G01X3805900Y4590520D02*
G03X3827470Y4590020I11174J16515D01*
G02X3825630Y4510120I24790J-40542D01*
G03X3804060Y4510620I-11174J-16515D01*
G02X3805900Y4590520I-24790J40542D01*
G37*
G36*
G01X815000Y240560D02*
G02Y460600I0J110020D01*
G01X1035000D01*
G02Y240560I0J-110020D01*
G01X815000D01*
G37*
G36*
G01X4219820Y3819210D02*
G02X4157990Y3817670I-30017J-36840D01*
G03X4152130Y3850960I-13351J14811D01*
G02X4141820Y3856730I17876J44037D01*
G03X4118180I-11820J-16059D01*
G02Y3933270I-28180J38270D01*
G03X4141820I11820J16059D01*
G02X4210780Y3870600I28177J-38271D01*
G03X4219820Y3819210I34226J-20469D01*
G37*
G54D17*
X2200000Y1875000D03*
X7572460Y3575000D03*
Y1915000D03*
Y255000D03*
X7435000Y3965000D03*
X7260000Y3740000D03*
X7290000Y3255000D03*
X7419500Y2540000D03*
X7444650Y1520000D03*
X7420000Y1705000D03*
X7320000Y1820000D03*
X7424500Y882000D03*
X7155000Y255000D03*
X7030000Y4452000D03*
X6765000Y3865000D03*
X7040000Y3155000D03*
X7030000Y2770000D03*
X6929500Y2580000D03*
X6966500Y1892780D03*
X6685000Y1130000D03*
X6275010Y1145010D03*
X5858500Y4375000D03*
X5545000Y3275000D03*
X5750000Y2450000D03*
X5785000Y1635000D03*
X5900000Y1000000D03*
X5590970Y988890D03*
X5735500Y1010000D03*
X5194000Y3450000D03*
X5195000Y3310000D03*
X5266180Y3071320D03*
X5225000Y2645000D03*
X5305000Y1975000D03*
X5450000Y2115000D03*
X5365000Y2220000D03*
X5469500Y1625000D03*
X5190000Y1372000D03*
Y810000D03*
X5000000Y3530000D03*
X5069500Y2805000D03*
X5125000Y2490000D03*
X4750000Y2445000D03*
X4780000Y1297920D03*
X4962000Y1470000D03*
X4508960Y4643960D03*
X4485000Y4160000D03*
X4424430Y3749030D03*
X4355000Y3320000D03*
X4580000Y3325000D03*
X4422700Y3108120D03*
X4670000Y2908120D03*
X4716130Y2300000D03*
X4700000Y1725000D03*
X4390140Y1781080D03*
X4054510Y4404820D03*
X4205000Y4476820D03*
X4115230Y4614270D03*
X3965000Y3600000D03*
X3943620Y2800300D03*
X4075310Y2727590D03*
X4314700Y2980000D03*
X4032580Y2319500D03*
X4133580Y2423580D03*
X4149500Y2176040D03*
X4108960Y2040000D03*
X3975000Y1745000D03*
X3845000Y4735500D03*
X3730000Y4245000D03*
X3870960Y3159040D03*
X3756040Y2911040D03*
X3880000Y709500D03*
X3740000Y655000D03*
X3415000Y4645000D03*
X3378500Y4295000D03*
X3379980Y4080000D03*
X3190000Y4255000D03*
X3435000Y3890000D03*
X3147660Y3552210D03*
X3388200Y3327620D03*
X3382540Y3031500D03*
X3155000Y3050000D03*
X3125000Y2615000D03*
X3265700Y1995000D03*
X3370000Y1030000D03*
X3030000Y4255000D03*
X2750000Y3640000D03*
X2963500Y3575000D03*
X2827000Y3285000D03*
X2760000Y2900000D03*
X3085700Y2758120D03*
Y2358120D03*
X2580000Y3377500D03*
Y3177500D03*
X2055000Y3125000D03*
X2020000Y3260000D03*
X1955000Y3477500D03*
X1930000Y2065000D03*
X1660000Y3025000D03*
X1683550Y2687640D03*
X742500Y2000000D03*
X674920Y2558980D03*
X1700000Y1950000D03*
X207000Y2095000D03*
G54D24*
X605000Y830580D03*
G54D18*
X7595000Y4692000D03*
Y1376000D03*
X7205000Y4692000D03*
Y3034000D03*
Y1376000D03*
X6195000Y3565000D03*
X6075000Y3285000D03*
X6140000Y2235000D03*
X6177490Y1650630D03*
X5964200Y1340520D03*
X5935000Y3565000D03*
X5825000Y3185000D03*
X2285000Y1070000D03*
X1815000D03*
G54D25*
X1205000Y830580D03*
G54D22*
X6604000Y3556000D03*
Y762000D03*
G54D19*
X4572000Y254000D03*
G54D21*
X162020Y1905000D03*
G54D20*
X415000Y2917000D03*
Y2417000D03*
G54D23*
X1200000Y3900000D03*
%LPD*%
G75*
G36*
G01X725000Y4300000D02*
X1675000D01*
Y3500000D01*
X725000D01*
Y4300000D01*
G37*
G36*
G01X6457770Y2597200D02*
G03X6426200Y2628770I-93770J-62200D01*
G02Y2695230I22042J33230D01*
G03X6457770Y2726800I-62200J93770D01*
G02X6524230I33230J-22042D01*
G03X6555800Y2695230I93770J62200D01*
G02Y2628770I-22042J-33230D01*
G03X6524230Y2597200I62200J-93770D01*
G02X6457770I-33230J22042D01*
G37*
G54D10*
X605000Y830580D03*
G54D11*
X517980Y1905000D03*
X575000Y2430000D03*
Y2335000D03*
Y2537000D03*
X525000Y4280000D03*
Y4480000D03*
Y4380000D03*
X1025000Y3550000D03*
X825000D03*
X925000D03*
X775000Y3650000D03*
X875000D03*
X775000Y3750000D03*
X875000D03*
X775000Y3850000D03*
X875000D03*
X775000Y3950000D03*
X875000D03*
X775000Y4050000D03*
X875000D03*
X775000Y4150000D03*
X875000D03*
X800000Y4250000D03*
X900000D03*
X1000000D03*
X1425000Y3550000D03*
X1325000D03*
X1225000D03*
X1125000D03*
X1100000Y4250000D03*
X1200000D03*
X1300000D03*
X1400000D03*
X1625000Y3550000D03*
Y3650000D03*
Y3750000D03*
Y3850000D03*
X1525000Y3550000D03*
X1625000Y3950000D03*
Y4050000D03*
Y4150000D03*
X1525000Y4250000D03*
X1625000D03*
G54D12*
X925000Y350580D03*
G54D13*
X950000Y3075000D03*
X1000000Y3650000D03*
Y3750000D03*
Y3850000D03*
Y3950000D03*
Y4050000D03*
Y4150000D03*
X1435000Y2900000D03*
X1400000Y3650000D03*
X1300000D03*
X1200000D03*
X1100000D03*
Y3750000D03*
X1200000D03*
X1300000D03*
X1400000D03*
X1100000Y3850000D03*
X1200000D03*
X1400000D03*
X1300000D03*
X1400000Y3950000D03*
X1300000D03*
X1200000D03*
X1100000D03*
Y4050000D03*
X1200000D03*
X1400000D03*
X1100000Y4150000D03*
X1200000D03*
X1300000D03*
X1400000D03*
X1300000Y4050000D03*
X1285000Y4725000D03*
X1235000Y5015000D03*
X1700000Y2100000D03*
X1677500Y2340000D03*
X1795000Y3477500D03*
X1672500Y3125000D03*
X1500000Y3650000D03*
Y3750000D03*
Y3850000D03*
Y3950000D03*
Y4050000D03*
Y4150000D03*
X1820000Y4905000D03*
X2185000Y1377500D03*
X1975000Y2144500D03*
X2055000Y2895000D03*
Y2815000D03*
X2040000Y3745000D03*
Y3895000D03*
Y3820000D03*
X2185500Y4095000D03*
X2315000Y1722500D03*
X2325000Y2275000D03*
X2500000Y1950000D03*
X2675000Y3075000D03*
X2420000Y3177500D03*
Y3377500D03*
X2970000Y1425000D03*
X2710000Y1370000D03*
X2897500Y1920000D03*
X2865000Y2320000D03*
X2870700Y2808120D03*
X2960000Y3500000D03*
X3105000Y3175000D03*
X3065000Y4435000D03*
X3315000Y920000D03*
X3110000Y915000D03*
X3295000Y1165000D03*
X3250000Y1725000D03*
X3210000Y2295000D03*
X3192700Y1995000D03*
X3450000Y2640000D03*
X3175000Y2855000D03*
X3248000Y3675000D03*
X3220610Y3555030D03*
X3350000Y3960000D03*
X3265000Y4530000D03*
X3435000Y4935000D03*
X3200000Y4940000D03*
X3695500Y1470000D03*
X3670000Y2290000D03*
X3705000Y2615000D03*
X3900000Y3550000D03*
X3745000Y3805000D03*
X3713540Y4596460D03*
X3840000Y4935000D03*
X4013760Y1344500D03*
X4230000Y1770000D03*
X4170000Y3050000D03*
X4015000Y2785000D03*
X3960000Y3815000D03*
X4250000Y4280000D03*
X4700000Y1375000D03*
X4350000D03*
X4575000Y1940000D03*
X4655000Y2810000D03*
X4495000Y3460000D03*
X4420700Y3208120D03*
X4700000Y3550000D03*
X4370000Y4715000D03*
X4655000Y4645000D03*
X4575000Y4930000D03*
X5030000Y560000D03*
X4950000Y985000D03*
X4860000Y1410000D03*
X4915000Y1290000D03*
X4785000Y1765000D03*
X4962000Y1630000D03*
X4935000Y2020000D03*
Y2230000D03*
X5015000Y3390000D03*
X4735000Y3755000D03*
X4900000Y3550000D03*
X5035000Y4940000D03*
X4775000Y4935000D03*
X5280000Y560000D03*
X5250000Y980000D03*
X5470000Y2725000D03*
X5472500Y2867500D03*
X5420000Y3240000D03*
X5415000Y3585000D03*
X5225000Y4605000D03*
X5495000Y4575000D03*
X5880000Y570000D03*
X5535000Y560000D03*
Y1377500D03*
X5651610Y1568650D03*
X5535000Y2054500D03*
X5665000Y2244500D03*
X5877500Y2662000D03*
X5879500Y2916000D03*
X5875000Y2740000D03*
X5662500Y3139980D03*
X5840000Y3290000D03*
X5640000Y3640000D03*
X5720000Y4310000D03*
X5975000Y1015000D03*
X6110000Y1280000D03*
X6055000Y3630000D03*
X6545000Y1620000D03*
X6450000Y2350000D03*
X6760000Y2045000D03*
X6885000Y3075000D03*
X7120000Y3190000D03*
X7070000Y3940000D03*
X6770000Y4710000D03*
X7260000Y2325000D03*
G54D14*
X1815000Y580000D03*
X2285000D03*
X7595000Y642000D03*
Y2300000D03*
Y3958000D03*
G54D15*
X2641600Y5080000D03*
X4318000Y254000D03*
X4064000D03*
X6618000Y2535000D03*
G54D16*
G01X605000Y590620D02*
Y830580D01*
G01X475040Y590620D02*
X605000Y830580D01*
G01D02*
Y1070540D01*
G01X475040Y830580D02*
X605000D01*
G01D02*
X734960D01*
G01X605000D02*
X734960Y1070540D01*
G01X475040D02*
X605000Y830580D01*
G01D02*
X734960Y590620D01*
G01X925000Y220620D02*
Y350580D01*
G01X685040Y220620D02*
X925000Y350580D01*
G01D02*
Y480540D01*
G01X685040Y350580D02*
X925000D01*
G01D02*
X1164960D01*
G01X925000D02*
X1164960Y480540D01*
G01X685040D02*
X925000Y350580D01*
G01D02*
X1164960Y220620D01*
G01X6618000Y2402540D02*
Y2535000D01*
G01D02*
X6750460D01*
G01X6504400Y2421400D02*
X6618000Y2535000D01*
G01D02*
X6731600Y2648600D01*
G01X6504400D02*
X6618000Y2535000D01*
G01D02*
X6731600Y2421400D01*
M02*
