G04 ================== begin FILE IDENTIFICATION RECORD ==================*
G04 Layout Name:  Netduino3_16Dec16_0800.brd*
G04 Film Name:    L4-BOT*
G04 File Format:  Gerber RS274X*
G04 File Origin:  Cadence Allegro 16.6-2015-S069*
G04 Origin Date:  Fri Dec 16 09:48:39 2016*
G04 *
G04 Layer:  VIA CLASS/BOTTOM*
G04 Layer:  PIN/BOTTOM*
G04 Layer:  ETCH/BOTTOM*
G04 *
G04 Offset:    (0.0000 0.0000)*
G04 Mirror:    No*
G04 Mode:      Positive*
G04 Rotation:  0*
G04 FullContactRelief:  No*
G04 UndefLineWidth:     0.1270*
G04 ================== end FILE IDENTIFICATION RECORD ====================*
%FSLAX25Y25*MOMM*%
%IR0*IPPOS*OFA0.00000B0.00000*MIA0B0*SFA1.00000B1.00000*%
%ADD21R,2.4X.76*%
%ADD18C,.9*%
%ADD12C,.55*%
%ADD11C,.6604*%
%ADD13O,1.8X4.*%
%ADD15O,4.X1.8*%
%ADD14R,1.15X1.4*%
%ADD16O,1.8X4.5*%
%ADD10R,1.7X1.325*%
%ADD17C,.0001*%
%ADD19C,1.85*%
%ADD20R,1.85X1.85*%
%ADD22C,.2*%
%ADD23C,.4*%
%ADD24C,.25*%
%ADD25C,.18*%
%ADD26C,.254*%
%ADD27C,1.*%
%ADD29C,.9504*%
%ADD28O,2.2004X4.4004*%
%ADD30C,1.3004*%
%ADD31C,4.2004*%
G75*
%LPD*%
G75*
G36*
G01X558180Y1770000D02*
G03X698220I70020J0D01*
G01Y2104200D01*
X875020Y2281000D01*
Y2994960D01*
G02X930920Y3031480I39880J-1D01*
G03Y3118520I19080J43520D01*
G02X875030Y3153990I-16022J36521D01*
G01X595020Y3434000D01*
Y3520000D01*
G03X454980I-70020J0D01*
G01Y3405000D01*
G03X475490Y3355490I70012J0D01*
G01X734980Y3096000D01*
Y2845020D01*
X495020D01*
Y3195020D01*
X50000D01*
Y5280000D01*
X1332140D01*
G02X1362760Y5214570I-1J-39880D01*
G03X1314260Y5090920I161236J-134579D01*
G02X1256440Y5057410I-39824J2076D01*
G03X1272540Y4985860I-21439J-42411D01*
G02X1339140Y4980330I31499J-24459D01*
G03X1719780Y5003980I184862J99671D01*
G02X1789050Y5013210I37174J-14440D01*
G03X1797600Y5002950I90562J66776D01*
G02X1792020Y4943410I-29063J-27308D01*
G03X1865610Y4918350I27982J-38409D01*
G02X1897530Y4968920I38274J11200D01*
G03X1973370Y5017800I-17923J111084D01*
G02X2039830I33230J-22042D01*
G03X2227370I93770J62200D01*
G02X2293830I33230J-22042D01*
G03X2453000Y4988440I93766J62200D01*
G01X2466740Y4998260D01*
X2545000Y4920000D01*
X2778610D01*
X2784560Y4913340D01*
G03X2785510Y4912310I35403J31700D01*
G01X2790980Y4906540D01*
Y4052020D01*
X2764520Y4025560D01*
Y3707240D01*
X2746180Y3687370D01*
G03X2744390Y3592810I3810J-47369D01*
G01X2761980Y3590720D01*
Y3338100D01*
X2743480Y3319600D01*
Y3250400D01*
X2777860Y3216020D01*
Y3146580D01*
X2772390Y3140810D01*
G03X2805600Y3060620I34490J-32688D01*
G02X2825000Y3040690I-541J-19933D01*
G01Y2983710D01*
G02X2773660Y2945510I-39881J-1D01*
G03X2712540Y2902310I-13659J-45512D01*
G01X2712160Y2894620D01*
X2209850Y2392310D01*
G02X2158080Y2388330I-28205J28194D01*
G03X2131270Y2397500I-28084J-38330D01*
G01X2123320Y2397720D01*
X2084020Y2437020D01*
Y2616540D01*
X2089490Y2622310D01*
G03X2020510I-34490J32690D01*
G01X2025980Y2616540D01*
Y2412980D01*
X2082280Y2356680D01*
X2082500Y2348730D01*
G03X2083660Y2339450I47506J1226D01*
G01X2084160Y2335030D01*
X2073320Y2317290D01*
G03X2080060Y2229890I21679J-42288D01*
G02X2095710Y2163840I-12547J-37852D01*
G01X2083250Y2151370D01*
G02X2018530Y2163570I-28193J28203D01*
G03X1928720Y2133730I-43527J-19068D01*
G02X1915420Y2110230I-19421J-4522D01*
G03X1962690Y2030510I14581J-45228D01*
G01X1968460Y2035980D01*
X2049940D01*
X2246020Y2232060D01*
G02X2297390Y2236320I28200J-28197D01*
G03X2363680Y2302610I27610J38680D01*
G02X2367940Y2353980I32457J23170D01*
G01X2811980Y2798020D01*
X2874470Y2735530D01*
X2722980Y2584030D01*
Y1854020D01*
X2686680Y1817720D01*
X2678730Y1817500D01*
G03X2697840Y1725960I1264J-47501D01*
G02X2748030Y1707710I14973J-36963D01*
G03X2836910Y1722410I41969J22289D01*
G02X2851560Y1738520I19685J-3185D01*
G03X2872270Y1750010I-11971J45986D01*
G01X2878040Y1755480D01*
X2916400D01*
X2930400Y1741480D01*
X2999600D01*
X3013600Y1755480D01*
X3163110D01*
G02X3202760Y1719890I0J-39881D01*
G03X3297240I47240J5110D01*
G02X3336890Y1755480I39650J-4291D01*
G01X3513110D01*
G02X3552760Y1719890I0J-39881D01*
G03X3622170Y1682970I47242J5111D01*
G01X3635170Y1689830D01*
X3840000Y1485000D01*
Y1400460D01*
X3804380D01*
X3800680Y1415700D01*
G03X3760450Y1451650I-46183J-11197D01*
G01X3743010Y1471010D01*
G03X3689550Y1422850I-47511J-1012D01*
G01X3706990Y1403490D01*
G03X3720010Y1371810I47510J1010D01*
G01X3725480Y1366040D01*
Y1238700D01*
G02X3691440Y1224600I-19940J-1D01*
G01X3657720Y1258320D01*
X3657500Y1266270D01*
G03X3562520Y1266940I-47501J-1270D01*
G01X3546260Y1248160D01*
G03X3517280Y1159770I9739J-52139D01*
G02Y1105250I-29107J-27260D01*
G03X3594720I38720J-36250D01*
G02Y1159770I29107J27260D01*
G03X3600080Y1166520I-38720J36250D01*
G02X3661420Y1172540I33142J-22181D01*
G01X3856860Y977100D01*
G02X3828660Y909020I-28198J-28200D01*
G01X3532020D01*
X3417720Y1023320D01*
X3417500Y1031270D01*
G03X3324840Y1015200I-47503J-1271D01*
G02X3299750Y965010I-37893J-12424D01*
G03X3351850Y950000I15245J-45008D01*
G02X3368110Y982520I15461J12595D01*
G03X3368730Y982500I1842J47482D01*
G01X3376680Y982280D01*
X3507980Y850980D01*
X3927980D01*
X4025000Y753960D01*
Y729180D01*
G02X3990960Y715080I-19940J-1D01*
G01X3967520Y738520D01*
X3918460D01*
X3912690Y743990D01*
G03X3844030Y678450I-32685J-34493D01*
G01X3848870Y672840D01*
Y645480D01*
X3790580D01*
X3789410Y646660D01*
X3786950Y662340D01*
G03X3699300Y630480I-46949J-7336D01*
G02X3665140Y570020I-34162J-20579D01*
G01X2739000D01*
X2408420Y900600D01*
X1315020D01*
Y965580D01*
G03X1094980I-110020J0D01*
G01Y695580D01*
G03X1315020I110020J0D01*
G01Y760560D01*
X2350420D01*
X2681000Y429980D01*
X3905000D01*
Y50000D01*
X50000D01*
Y1854980D01*
X144140D01*
X146920Y1854150D01*
G03X177120I15100J50850D01*
G01X179900Y1854980D01*
X420020D01*
Y2191710D01*
X495020Y2266710D01*
Y2313450D01*
X525420D01*
X531360Y2304850D01*
G03X615270Y2369520I43634J30157D01*
G01X610470Y2382500D01*
X615270Y2395480D01*
G03X627730Y2435770I-40268J34525D01*
G02X667370Y2479980I39642J4332D01*
G01X734980D01*
Y2339000D01*
X558180Y2162200D01*
Y1997920D01*
G02X518160Y1958040I-39880J-1D01*
G03Y1851960I-180J-53040D01*
G02X558180Y1812080I140J-39879D01*
G01Y1770000D01*
G37*
G36*
G01X628010Y2538640D02*
G03X522840Y2546660I-53015J-1626D01*
G02X483630Y2514030I-39214J7248D01*
G01X330470D01*
Y2319970D01*
X475000D01*
Y2275000D01*
X400000Y2200000D01*
Y1875000D01*
X50000D01*
Y2244480D01*
X230020D01*
Y2417020D01*
X50000D01*
Y2916980D01*
X230020D01*
Y3089520D01*
X50000D01*
Y3175000D01*
X475000D01*
Y3007020D01*
X337480D01*
Y2826980D01*
X475000D01*
Y2825000D01*
X725000D01*
Y2500000D01*
X667860D01*
G02X628010Y2538640I12J39881D01*
G37*
G36*
G01X6278520Y4967480D02*
X6462520D01*
Y5192520D01*
X6237470D01*
G02X6171010Y5163870I-39867J1071D01*
G03X6002230Y5142200I-75013J-83869D01*
G02X5935770I-33230J22042D01*
G03X5748230I-93770J-62200D01*
G02X5681770I-33230J22042D01*
G03X5494230I-93770J-62200D01*
G02X5427770I-33230J22042D01*
G03X5240230I-93770J-62200D01*
G02X5173770I-33230J22042D01*
G03X4986230I-93770J-62200D01*
G02X4919770I-33230J22042D01*
G03X4732230I-93770J-62200D01*
G02X4665770I-33230J22042D01*
G03Y5017800I-93770J-62200D01*
G02X4732230I33230J-22042D01*
G03X4919770I93770J62200D01*
G02X4986230I33230J-22042D01*
G03X5173770I93770J62200D01*
G02X5240230I33230J-22042D01*
G03X5427770I93770J62200D01*
G02X5494230I33230J-22042D01*
G03X5681770I93770J62200D01*
G02X5748230I33230J-22042D01*
G03X5935770I93770J62200D01*
G02X6002230I33230J-22042D01*
G03X6054410Y4975450I93763J62205D01*
G01X6066980Y4970450D01*
Y4888940D01*
X4741860Y3563820D01*
Y2931250D01*
X4712550D01*
X4706570Y2938460D01*
G03X4704490Y2940810I-36604J-30303D01*
G01X4699020Y2946580D01*
Y3502520D01*
X4491990Y3709550D01*
Y3722510D01*
X4472150Y3742350D01*
X4471930Y3750300D01*
G03X4457220Y3783420I-47501J-1271D01*
G02X4456540Y3840490I27517J28867D01*
G01X4619020Y4002970D01*
Y4652020D01*
X4380020Y4891020D01*
X3633620D01*
X3625180Y4899460D01*
G02X3654480Y4967520I28201J28196D01*
G03X3751370Y5017800I3121J112479D01*
G02X3817830I33230J-22042D01*
G03X3986610Y4996130I93767J62199D01*
G02X4053070Y4967480I26593J-29721D01*
G01X4278120D01*
Y5192520D01*
X4053070D01*
G02X3986610Y5163870I-39867J1071D01*
G03X3817830Y5142200I-75013J-83869D01*
G02X3751370I-33230J22042D01*
G03X3563830I-93770J-62200D01*
G02X3497370I-33230J22042D01*
G03X3309830I-93770J-62200D01*
G02X3243370I-33230J22042D01*
G03X3055830I-93770J-62200D01*
G02X2989370I-33230J22042D01*
G03X2795970Y5027700I-93770J-62200D01*
G02X2787740Y4979890I-35310J-18535D01*
G03X2773660Y4955540I32256J-34897D01*
G01X2770130Y4940020D01*
X2553290D01*
X2479670Y5013640D01*
X2486700Y5026700D01*
G03X2280320Y5113940I-99102J53291D01*
G01X2275920Y5100020D01*
X2245280D01*
X2240880Y5113940D01*
G03X2026320I-107280J-33940D01*
G01X2021920Y5100020D01*
X1991280D01*
X1986880Y5113940D01*
G03X1772320I-107280J-33940D01*
G01X1767920Y5100020D01*
X1733730D01*
X1730820Y5116490D01*
G03X1685240Y5214570I-206824J-36485D01*
G02X1715860Y5280000I30621J25550D01*
G01X7620000D01*
X7745000Y5155000D01*
Y2047320D01*
G02X7676920Y2019120I-39880J-2D01*
G01X7448520Y2247520D01*
Y2501540D01*
X7453990Y2507310D01*
G03Y2572690I-34490J32690D01*
G01X7448520Y2578460D01*
Y2787480D01*
X7679020Y3017980D01*
Y3647020D01*
X7464020Y3862020D01*
Y3926540D01*
X7469490Y3932310D01*
G03X7400510I-34490J32690D01*
G01X7405980Y3926540D01*
Y3837980D01*
X7562250Y3681710D01*
G02X7551580Y3617690I-28198J-28200D01*
G03X7577160Y3527710I20875J-42692D01*
G02X7620980Y3488030I3941J-39683D01*
G01Y3042020D01*
X7390480Y2811520D01*
Y2578460D01*
X7385010Y2572690D01*
G03Y2507310I34490J-32690D01*
G01X7390480Y2501540D01*
Y2223480D01*
X7655980Y1957980D01*
Y1917610D01*
X7621950D01*
X7617250Y1930880D01*
G03X7596190Y1873830I-44789J-15878D01*
G02X7655980Y1839280I19910J-34554D01*
G01Y1478750D01*
G02X7608080Y1439690I-39880J5D01*
G03X7549020Y1421980I-13087J-63691D01*
G01X7427570Y1300520D01*
X7303670D01*
G02X7266160Y1353930I4J39880D01*
G03X7205000Y1441020I-61160J22070D01*
G01X7012280D01*
G02X6998180Y1475060I-1J19940D01*
G01X7014100Y1490980D01*
X7406190D01*
X7411960Y1485510D01*
G03Y1554490I32690J34490D01*
G01X7406190Y1549020D01*
X6995520D01*
Y1854320D01*
X7000990Y1860090D01*
G03X7013370Y1884950I-34491J32689D01*
G02X7052700Y1918260I39335J-6570D01*
G01X7090700D01*
X7332980Y1675980D01*
X7381540D01*
X7387310Y1670510D01*
G03Y1739490I32690J34490D01*
G01X7381540Y1734020D01*
X7357020D01*
X7327980Y1763060D01*
X7343630Y1778710D01*
X7345480Y1779890D01*
G03X7321270Y1867500I-25482J40108D01*
G01X7313320Y1867720D01*
X7168740Y2012300D01*
X6916980D01*
X6905800Y2001120D01*
X6744350D01*
G02X6716150Y2069200I-1J39880D01*
G01X7230020Y2583070D01*
Y2763060D01*
X7410570Y2943610D01*
X7459560D01*
X7554980Y3039020D01*
G03X7487300Y3146290I-45976J45978D01*
G02X7439770Y3163400I-13311J37596D01*
G03X7366310Y3173490I-40775J-24401D01*
G01X7360540Y3168020D01*
X7141980D01*
X7107160Y3133200D01*
X7087990Y3152370D01*
X7087310Y3159510D01*
G03X7084410Y3171910I-47306J-4524D01*
G02X7121680Y3225980I37269J14190D01*
G01X7251540D01*
X7257310Y3220510D01*
G03X7284710Y3207780I32683J34494D01*
G01X7290000Y3207180D01*
X7295290Y3207780D01*
G03X7257310Y3289490I-5289J47223D01*
G01X7251540Y3284020D01*
X6457020D01*
X6261040Y3480000D01*
X6304020Y3522980D01*
Y3684980D01*
X7023320Y4404280D01*
X7031270Y4404500D01*
G03X7077510Y4450970I-1268J47502D01*
G02X7117380Y4489980I39870J-869D01*
G01X7296940D01*
X7433940Y4626980D01*
X7595000D01*
G03Y4757020I0J65020D01*
G01X7380080D01*
X7329180Y4706120D01*
G02X7264490Y4718230I-28199J28202D01*
G03X7205000Y4757020I-59490J-26223D01*
G01X6890070D01*
X5869980Y3736930D01*
Y3565000D01*
G03X5870010Y3563080I65019J56D01*
G02X5830150Y3522020I-39863J-1180D01*
G01X5224980D01*
X5200680Y3497720D01*
X5192730Y3497500D01*
G03X5156200Y3478800I1266J-47503D01*
G02X5096280Y3474760I-31725J24163D01*
G01X5047720Y3523320D01*
X5047500Y3531270D01*
G03X4998730Y3482500I-47500J-1270D01*
G01X5006680Y3482280D01*
X5122480Y3366480D01*
X5158230D01*
Y3340670D01*
X5155050Y3335740D01*
G03X5156610Y3281990I39949J-25738D01*
G01X5165970Y3269170D01*
Y3267510D01*
X4903980Y3005520D01*
G02X4835900Y3033720I-28200J28198D01*
G01Y3524860D01*
X6278520Y4967480D01*
G37*
G36*
G01X2884790Y1813520D02*
X2781020Y1917290D01*
Y2559990D01*
X2975940Y2754910D01*
G02X3041350Y2741040I28196J-28200D01*
G03X3102780Y2802470I44350J17080D01*
G02X3088910Y2867880I14330J37214D01*
G01X3137010Y2915980D01*
X3254920D01*
G02X3269020Y2881940I1J-19940D01*
G01X3255360Y2868280D01*
Y2175780D01*
X3054100Y1974520D01*
Y1921580D01*
X3048630Y1915810D01*
G03X3036920Y1871990I34489J-32691D01*
G02X3002010Y1854810I-19384J-4671D01*
G03X2999490Y1857690I-36994J-29827D01*
G01X2994020Y1863460D01*
Y2017980D01*
X3169220Y2193180D01*
Y2511820D01*
X3154020Y2527020D01*
Y2576540D01*
X3159490Y2582310D01*
G03X3090510I-34490J32690D01*
G01X3095980Y2576540D01*
Y2502980D01*
X3111180Y2487780D01*
Y2444330D01*
G02X3077870Y2404990I-39880J-5D01*
G03Y2311250I7830J-46870D01*
G02X3111180Y2271910I-6570J-39335D01*
G01Y2217220D01*
X2935980Y2042020D01*
Y1863460D01*
X2930510Y1857690D01*
G03X2917860Y1830960I34494J-32683D01*
G01X2915650Y1813520D01*
X2884790D01*
G37*
G36*
G01X2888630Y2749680D02*
X2845020Y2793290D01*
Y2831060D01*
X3034940Y3020980D01*
X3116540D01*
X3122310Y3015510D01*
G03X3128550Y3010520I32694J34487D01*
G01X3137390Y3004600D01*
Y2974020D01*
X3112970D01*
X2888630Y2749680D01*
G37*
G36*
G01X3198280Y3030370D02*
G03X3122310Y3084490I-43277J19632D01*
G01X3116540Y3079020D01*
X3010900D01*
X2969230Y3037350D01*
G02X2909850Y3040690I-28198J28201D01*
G03X2883970Y3057220I-37146J-29633D01*
G02X2853940Y3101510I9463J38742D01*
G03X2847790Y3132290I-47059J6602D01*
G01X2845020Y3136990D01*
Y3239780D01*
X2853740Y3245720D01*
G03X2861490Y3317690I-26740J39282D01*
G01X2856020Y3323460D01*
Y3389580D01*
G02X2924100Y3417780I39880J2D01*
G01X3284900Y3056980D01*
X3335250D01*
Y3036220D01*
X3335180Y3035400D01*
G03X3335040Y3032770I47363J-3840D01*
G01X3334820Y3024820D01*
X3284020Y2974020D01*
X3234600D01*
G02X3198280Y3030370I-2J39878D01*
G37*
G36*
G01X3558980Y3222230D02*
G02X3490900Y3194030I-39880J-2D01*
G01X3461900Y3223030D01*
X3408040D01*
X3408030Y3223020D01*
X3365830D01*
X3119020Y3469830D01*
Y3505250D01*
X3140250D01*
X3141530Y3505090D01*
G03X3186240Y3579960I6132J47123D01*
G02X3190410Y3631450I32369J23292D01*
G01X3219020Y3660060D01*
Y3858540D01*
X3224490Y3864310D01*
G03X3161820Y3935270I-34483J32700D01*
G02X3138180I-11820J16052D01*
G03X3081820I-28180J-38270D01*
G02X3058180I-11820J16052D01*
G03X2995510Y3864310I-28187J-38260D01*
G01X3000980Y3858540D01*
Y3662370D01*
G02X2962200Y3622500I-39880J-5D01*
G03X2954340Y3621630I1280J-47502D01*
G01X2952440Y3621260D01*
X2930560D01*
Y3923600D01*
X3017940Y4010980D01*
X3330890D01*
X3345390Y3996480D01*
X3405980D01*
Y3928460D01*
X3400510Y3922690D01*
G03Y3857310I34490J-32690D01*
G01X3405980Y3851540D01*
Y3796940D01*
X3269670Y3660630D01*
Y3644510D01*
X3264200Y3638740D01*
G03X3313010Y3560740I34490J-32689D01*
G02X3360700Y3540550I12020J-38027D01*
G03X3443080Y3535960I42502J21251D01*
G02X3484850Y3553270I33462J-21694D01*
G03X3488580Y3552630I9895J46480D01*
G02X3505850Y3534560I-2595J-19768D01*
G03X3528080Y3498280I47348J4061D01*
G02X3535190Y3436230I-21086J-33849D01*
G01X3455600Y3356640D01*
X3426660D01*
X3420890Y3362110D01*
G03Y3293130I-32690J-34490D01*
G01X3426660Y3298600D01*
X3479640D01*
X3490900Y3309860D01*
G02X3558980Y3281660I28200J-28198D01*
G01Y3222230D01*
G37*
G36*
G01X2962100Y4088140D02*
G02X2894020Y4116340I-28200J28198D01*
G01Y4202980D01*
X2927780Y4236730D01*
G02X2989750Y4229740I28199J-28197D01*
G03X3067710Y4283910I40256J25249D01*
G01X3063600Y4289280D01*
Y4315980D01*
X3087020D01*
X3184020Y4412980D01*
Y4537980D01*
X3262020Y4615980D01*
X3376540D01*
X3382310Y4610510D01*
G03X3389740Y4604750I32687J34492D01*
G02X3396730Y4542780I-21207J-33771D01*
G01X3294980Y4441020D01*
Y4201050D01*
X3364560Y4131460D01*
X3349880Y4116780D01*
X3349260Y4116250D01*
G03X3347290Y4114490I30662J-36303D01*
G01X3341520Y4109020D01*
X2982980D01*
X2962100Y4088140D01*
G37*
G36*
G01X2917100Y4308140D02*
G02X2849020Y4336340I-28200J28198D01*
G01Y4906540D01*
X2854490Y4912310D01*
G03X2866610Y4935720I-34486J32697D01*
G02X2903070Y4967730I39112J-7780D01*
G03X2940120Y4976660I-7459J112273D01*
G01X2952540Y4982010D01*
X3173580Y4760980D01*
X3518660D01*
G02X3546860Y4692900I2J-39880D01*
G01X3517220Y4663270D01*
G02X3455250Y4670260I-28199J28197D01*
G03X3382310Y4679490I-40250J-25260D01*
G01X3376540Y4674020D01*
X3237980D01*
X3125980Y4562020D01*
Y4437020D01*
X3062980Y4374020D01*
X2982980D01*
X2917100Y4308140D01*
G37*
G36*
G01X3840480Y1609110D02*
G02X3772400Y1580910I-39880J0D01*
G01X3695610Y1657710D01*
G02X3712940Y1724280I28198J28200D01*
G03X3662370Y1799020I-12940J45723D01*
G01X3657520D01*
X3643020Y1813520D01*
X3165310D01*
G02X3127810Y1866960I2J39879D01*
G03X3117610Y1915810I-44689J16159D01*
G01X3112140Y1921580D01*
Y1950480D01*
X3155260Y1993600D01*
G02X3220990Y1978910I28205J-28195D01*
G03X3311530Y1982440I44711J16092D01*
G02X3378190Y2000090I38460J-10548D01*
G01X3484680Y1893600D01*
X3722710D01*
X3772400Y1943290D01*
G02X3840480Y1915090I28200J-28198D01*
G01Y1609110D01*
G37*
G36*
G01X3486640Y2759520D02*
Y2238920D01*
X3453560Y2205840D01*
X3445610Y2205620D01*
G03X3442980Y2205480I1210J-47503D01*
G02X3421400Y2225350I-1640J19872D01*
G01Y2799480D01*
X3490900Y2868980D01*
G02X3558980Y2840780I28200J-28198D01*
G01Y2831860D01*
X3486640Y2759520D01*
G37*
G36*
G01X3197620Y4819020D02*
X3117180Y4899460D01*
G02X3146480Y4967520I28201J28196D01*
G03X3194120Y4976660I3117J112479D01*
G01X3206540Y4982010D01*
X3301460Y4887100D01*
G02X3273260Y4819020I-28198J-28200D01*
G01X3197620D01*
G37*
G36*
G01X3415620Y4855020D02*
X3371180Y4899460D01*
G02X3400480Y4967520I28201J28196D01*
G03X3448120Y4976660I3117J112479D01*
G01X3460540Y4982010D01*
X3519460Y4923100D01*
G02X3491260Y4855020I-28198J-28200D01*
G01X3415620D01*
G37*
G36*
G01X3616680Y2126950D02*
Y2332000D01*
G02X3684760Y2360200I39880J2D01*
G01X3767860Y2277100D01*
G02X3739660Y2209020I-28198J-28200D01*
G01X3697980D01*
X3660480Y2171520D01*
Y2143460D01*
X3655010Y2137690D01*
G03X3652250Y2134510I34474J-32708D01*
G01X3646260Y2126950D01*
X3616680D01*
G37*
G36*
G01X3740980Y2556610D02*
X3719400D01*
X3717780Y2556880D01*
G03X3708850Y2557510I-7794J-46878D01*
G02X3688800Y2573620I-482J19932D01*
G03X3649990Y2611370I-46637J-9122D01*
G02X3616680Y2650710I6570J39335D01*
G01Y2705640D01*
X3689020Y2777980D01*
Y2825130D01*
X3713630Y2835330D01*
X3721440Y2827520D01*
X3731440D01*
X3740980Y2817980D01*
Y2556610D01*
G37*
G36*
G01X3689020Y3296130D02*
Y3341140D01*
X3868520Y3520640D01*
Y3607300D01*
G02X3902560Y3621400I19940J1D01*
G01X3917280Y3606680D01*
X3917500Y3598730D01*
G03X3937160Y3561490I47502J1268D01*
G02X3942000Y3500970I-23361J-32322D01*
G01X3723060Y3282030D01*
G02X3689020Y3296130I-14100J14099D01*
G37*
G36*
G01X3715510Y3548770D02*
Y4177760D01*
G02X3733840Y4197640I19941J4D01*
G03X3747290Y4200740I-3834J47363D01*
G01X3750780Y4202100D01*
X3774480D01*
Y3559600D01*
X3749550Y3534670D01*
G02X3715510Y3548770I-14100J14099D01*
G37*
G36*
G01X3817070Y4587100D02*
X3805900Y4590520D01*
G03X3740880Y4523150I-26633J-39357D01*
G01X3750240Y4510330D01*
Y4508670D01*
X3717600Y4476030D01*
G02X3649520Y4504230I-28200J28198D01*
G01Y4546540D01*
X3654990Y4552310D01*
G03X3617740Y4632440I-34490J32690D01*
G01X3608810Y4631920D01*
X3588390Y4652350D01*
X3612020Y4675980D01*
X3747980D01*
X3783980Y4639980D01*
X4067960D01*
Y4619190D01*
X4067880Y4618330D01*
G03X4067730Y4615710I47351J-4025D01*
G01X4067490Y4607800D01*
X3866560Y4406870D01*
G02X3832520Y4420970I-14100J14099D01*
G01Y4434200D01*
X3881280Y4482960D01*
Y4511020D01*
X3886750Y4516790D01*
G03X3827470Y4590020I-34490J32689D01*
G01X3817070Y4587100D01*
G37*
G36*
G01X3925020Y50000D02*
Y429980D01*
X4459500D01*
X4501980Y387500D01*
Y342080D01*
G03X4642020I70020J-88080D01*
G01Y445500D01*
X4568160Y519360D01*
G02X4596360Y587440I28200J28200D01*
G01X5721520D01*
X5874420Y434540D01*
G02X5845120Y366480I-28201J-28196D01*
G03X5748230Y316200I-3121J-112479D01*
G02X5681770I-33230J22042D01*
G03X5494230I-93770J-62200D01*
G02X5427770I-33230J22042D01*
G03X5258990Y337870I-93767J-62199D01*
G02X5192530Y366520I-26593J29721D01*
G01X4967480D01*
Y141480D01*
X5192530D01*
G02X5258990Y170130I39867J-1071D01*
G03X5427770Y191800I75013J83869D01*
G02X5494230I33230J-22042D01*
G03X5681770I93770J62200D01*
G02X5748230I33230J-22042D01*
G03X5935770I93770J62200D01*
G02X6002230I33230J-22042D01*
G03X6189770I93770J62200D01*
G02X6256230I33230J-22042D01*
G03X6305480Y357340I93768J62199D01*
G01X6293060Y351990D01*
X5950020Y695020D01*
X5357340D01*
G02X5329140Y763100I-2J39880D01*
G01X5467020Y900980D01*
X5747010D01*
X5819020Y972990D01*
Y991220D01*
X5851610D01*
X5857000Y979770D01*
G03X5934490Y1032690I42999J20231D01*
G01X5929020Y1038460D01*
Y1113480D01*
X6065220Y1249680D01*
Y1449180D01*
X6079020Y1462980D01*
Y1563620D01*
G02X6141170Y1596700I39880J-2D01*
G03Y1704560I36320J53930D01*
G02X6079020Y1737640I-22270J33082D01*
G01Y1809300D01*
X6155980Y1886260D01*
G02X6219350Y1876840I28193J-28204D01*
G03X6293960Y1864740I41917J22389D01*
G01X6299730Y1870210D01*
X6923620D01*
X6929600Y1862840D01*
G03X6932010Y1860090I36917J29921D01*
G01X6937480Y1854320D01*
Y1573520D01*
X6881680Y1517720D01*
X6873730Y1517500D01*
G03X6831600Y1489340I1273J-47500D01*
G01X6826330Y1477520D01*
X6784960D01*
X6779190Y1482990D01*
G03X6698980Y1448450I-32690J-34490D01*
G02X6659100Y1408520I-39880J-50D01*
G01X6536430D01*
X6484930Y1460020D01*
X6350000D01*
G03X6285300Y1401410I0J-65016D01*
G02X6233970Y1367190I-39688J3924D01*
G03X6169020Y1259020I-18974J-62191D01*
G01X6243780Y1184270D01*
X6235060Y1170750D01*
G03X6240510Y1112330I39949J-25737D01*
G01X6245980Y1106560D01*
Y647980D01*
X6607980Y285980D01*
X7082980D01*
X7107280Y261680D01*
X7107500Y253730D01*
G03X7156270Y302500I47500J1270D01*
G01X7148320Y302720D01*
X7107020Y344020D01*
X6632020D01*
X6304020Y672020D01*
Y1078480D01*
X6304030Y1078490D01*
Y1106550D01*
X6309500Y1112320D01*
G03X6321880Y1137180I-34491J32689D01*
G02X6361210Y1170480I39333J-6580D01*
G01X6597600D01*
G02X6637480Y1130330I2J-39879D01*
G03X6717690Y1095510I47519J-330D01*
G01X6723460Y1100980D01*
X7297980D01*
X7353480Y1045480D01*
X7395480D01*
Y920460D01*
X7390010Y914690D01*
G03X7458990I34490J-32690D01*
G01X7453520Y920460D01*
Y1062480D01*
X7676920Y1285880D01*
G02X7745000Y1257680I28200J-28198D01*
G01Y170000D01*
X7625000Y50000D01*
X3925020D01*
G37*
G36*
G01X4165700Y859020D02*
X3996820Y1027900D01*
G02X4025020Y1095980I28198J28200D01*
G01X4619100D01*
X4773320Y1250200D01*
X4781270Y1250420D01*
G03X4826870Y1290090I-1269J47502D01*
G02X4866210Y1323400I39335J-6570D01*
G01X5010560D01*
X5060980Y1272980D01*
X5240660D01*
G02X5268860Y1204900I2J-39880D01*
G01X4922980Y859020D01*
X4165700D01*
G37*
G36*
G01X4090030Y1250310D02*
G03X4092000Y1262630I-45530J13598D01*
G01X4092220Y1270580D01*
X4112060Y1290420D01*
Y1314060D01*
X4134170D01*
X4136290Y1313590D01*
G03X4181010Y1392690I10231J46407D01*
G01X4175540Y1398460D01*
Y1422450D01*
X4176520Y1423430D01*
Y1809520D01*
X4083480Y1902560D01*
Y1953790D01*
G02X4116790Y1993130I39880J5D01*
G03X4147460Y2012140I-7826J46872D01*
G02X4207970Y2016960I32309J-23376D01*
G01X4355210Y1869720D01*
G02X4355820Y1813940I-28199J-28202D01*
G03X4423000Y1746760I34320J-32860D01*
G02X4478780Y1746150I27578J-28809D01*
G01X4783950Y1440980D01*
X4923540D01*
X4929310Y1435510D01*
G03Y1504490I32690J34490D01*
G01X4923540Y1499020D01*
X4807990D01*
X4694590Y1612420D01*
G02X4712390Y1679120I28196J28200D01*
G03X4654120Y1737390I-12390J45880D01*
G02X4587420Y1719590I-38500J10396D01*
G01X4394110Y1912900D01*
G02X4422310Y1980980I28198J28200D01*
G01X4603900D01*
X4786610Y1798270D01*
X5046040D01*
X5051810Y1792800D01*
G03X5124710Y1852620I32694J34487D01*
G02X5124910Y1874200I16868J10635D01*
G03X5126550Y1923710I-39711J26098D01*
G02X5129450Y1947270I17352J9823D01*
G03X5129490Y2012690I-34450J32731D01*
G01X5124020Y2018460D01*
Y2067010D01*
X5002790Y2188240D01*
X4696040D01*
X4690270Y2193710D01*
G03X4624890I-32690J-34490D01*
G01X4619120Y2188240D01*
X4542800D01*
X4515900Y2215140D01*
Y2337160D01*
G02X4549940Y2351260I19940J1D01*
G01X4575720Y2325480D01*
X4629920D01*
G02X4669260Y2292170I5J-39880D01*
G03X4748820Y2265510I46871J7830D01*
G01X4754590Y2270980D01*
X5017970D01*
X5185480Y2103470D01*
Y1925480D01*
X5234980Y1875980D01*
Y1458980D01*
X5297280Y1396680D01*
X5297500Y1388730D01*
G03X5298630Y1379610I47502J1256D01*
G02X5259710Y1331020I-38917J-8710D01*
G01X5234150D01*
Y1354150D01*
X5235150Y1357180D01*
G03X5142480Y1371400I-45152J14816D01*
G02X5102610Y1331020I-39875J-502D01*
G01X5085020D01*
X5034600Y1381440D01*
X4742480D01*
X4560060Y1199020D01*
X4128250D01*
G02X4090030Y1250310I-5J39881D01*
G37*
G36*
G01X4215980Y3074480D02*
Y3010010D01*
G02X4147900Y2981810I-39880J-2D01*
G01X4124020Y3005690D01*
Y3073810D01*
G02X4164510Y3113690I39881J3D01*
G03X4171140Y3114050I745J47511D01*
G02X4215980Y3074480I4960J-39571D01*
G37*
G36*
G01X4325980Y3263200D02*
G02X4291940Y3249100I-19940J-1D01*
G01X4287020Y3254020D01*
X4190890D01*
X4184900Y3261580D01*
G03X4178390Y3268310I-37245J-29514D01*
G01X4177760Y3268840D01*
X4163080Y3283520D01*
X4381330Y3501770D01*
Y3705610D01*
X4404800D01*
X4408120Y3704400D01*
G03X4417090Y3702080I16327J44626D01*
G01X4432770Y3699620D01*
X4433950Y3698450D01*
Y3685510D01*
X4640980Y3478480D01*
Y3409810D01*
G02X4591470Y3371110I-39881J1D01*
G03Y3278890I-11470J-46110D01*
G02X4640980Y3240190I9629J-38701D01*
G01Y2946580D01*
X4635510Y2940810D01*
G03X4687390Y2863900I34491J-32687D01*
G02X4741860Y2826790I14589J-37117D01*
G01Y2782900D01*
X4719100Y2760140D01*
Y2700460D01*
X4713630Y2694690D01*
G03X4701250Y2669830I34491J-32689D01*
G02X4661920Y2636520I-39335J6570D01*
G01X4601360D01*
X4487730Y2750150D01*
Y3026940D01*
X4451720Y3062950D01*
Y3070490D01*
G03X4429440Y3155160I-29020J37630D01*
G02X4395220Y3194630I5660J39476D01*
G01Y3266320D01*
X4384020Y3277520D01*
Y3282370D01*
G03X4320510Y3287310I-29020J37630D01*
G01X4325980Y3281540D01*
Y3263200D01*
G37*
G36*
G01X3972700Y4225560D02*
G03X4042690Y4220510I37301J29440D01*
G01X4048460Y4225980D01*
X4083480D01*
X4212790Y4096670D01*
X4213000Y4088720D01*
G03X4235660Y4049480I47505J1270D01*
G01X4239680Y4047010D01*
X4250600Y4029430D01*
X4249510Y4022170D01*
G03X4260930Y3983620I46993J-7045D01*
G02X4259270Y3928980I-29857J-26438D01*
G01X4246360Y3916070D01*
G02X4216580Y3904420I-28200J28199D01*
G03X4141820Y3933260I-46577J-9421D01*
G02X4118180I-11820J16060D01*
G03X4042500Y3896280I-28179J-38262D01*
G01Y3896270D01*
X4042280Y3888320D01*
X4014980Y3861020D01*
Y3686810D01*
G02X3970490Y3647200I-39880J3D01*
G03X3966270Y3647500I-5476J-47202D01*
G01X3958320Y3647720D01*
X3904520Y3701520D01*
Y4188800D01*
G02X3937830Y4228130I39880J-5D01*
G03X3949050Y4231470I-7844J46866D01*
G02X3972700Y4225560I7999J-18267D01*
G37*
G36*
G01X4321980Y4250340D02*
G02X4253900Y4222140I-39880J-2D01*
G01X4133030Y4343010D01*
G02X4100450Y4392650I5968J39429D01*
G03X4071050Y4449370I-45938J12168D01*
G02X4056730Y4514960I13876J37388D01*
G01X4088480Y4546710D01*
X4088710D01*
X4108550Y4566550D01*
X4116500Y4566770D01*
G03X4126580Y4568120I-1232J47505D01*
G02X4175980Y4529400I9522J-38724D01*
G01Y4515280D01*
X4170510Y4509510D01*
G03X4239490I34490J-32690D01*
G01X4234020Y4515280D01*
Y4549960D01*
G02X4268060Y4564060I19940J1D01*
G01X4321980Y4510140D01*
Y4250340D01*
G37*
G36*
G01X4445900Y4570140D02*
X4251140Y4764900D01*
G02X4279340Y4832980I28198J28200D01*
G01X4355980D01*
X4466020Y4722940D01*
G02X4470280Y4671570I-28197J-28200D01*
G03X4474470Y4611270I38679J-27608D01*
G01X4479940Y4605500D01*
Y4584240D01*
G02X4445900Y4570140I-19940J-1D01*
G37*
G36*
G01X5064340Y767020D02*
G02X5036140Y835100I-2J39880D01*
G01X5495020Y1293980D01*
X5569600D01*
X5618520Y1342900D01*
Y1417480D01*
X5686170Y1485130D01*
X5686210D01*
X5735130Y1534050D01*
Y1534090D01*
X5735980Y1534940D01*
Y1548080D01*
G02X5780030Y1587740I39879J-1D01*
G03X5810390Y1594830I4971J47260D01*
G01X5815270Y1597910D01*
X5840980D01*
Y1563860D01*
X5713940Y1436820D01*
Y1374980D01*
X5196680Y857720D01*
X5188730Y857500D01*
G03X5142510Y808310I1269J-47502D01*
G02X5102660Y767020I-39855J-1410D01*
G01X5064340D01*
G37*
G36*
G01X4788570Y1929310D02*
X4722370Y1995510D01*
G02X4727490Y2056240I28195J28204D01*
G03X4747450Y2092460I-27491J38759D01*
G02X4787270Y2130200I39823J-2140D01*
G01X4978750D01*
X5065980Y2042970D01*
Y2018460D01*
X5060510Y2012690D01*
G03X5047840Y1974120I34487J-32695D01*
G02X5008270Y1929310I-39572J-4932D01*
G01X4788570D01*
G37*
G36*
G01X5479020Y1991340D02*
Y2076540D01*
X5484490Y2082310D01*
G03X5424610Y2155170I-34488J32692D01*
G01X5419730Y2152090D01*
X5394020D01*
Y2181540D01*
X5399490Y2187310D01*
G03X5321880Y2239980I-34494J32687D01*
G02X5257500Y2228540I-36185J16761D01*
G01X5066520Y2419520D01*
X5053290D01*
X5043090Y2444130D01*
X5073540Y2474580D01*
X5088220Y2459900D01*
X5088750Y2459270D01*
G03X5157690Y2455510I36249J30729D01*
G01X5163460Y2460980D01*
X5247980D01*
X5347240Y2361720D01*
X5378450D01*
X5384220Y2356250D01*
G03X5462950Y2402500I32689J34490D01*
G02X5469780Y2422970I19322J4927D01*
G03X5476250Y2429270I-29767J37042D01*
G01X5476780Y2429900D01*
X5491460Y2444580D01*
X5645060Y2290980D01*
X5662980D01*
X5768510Y2185450D01*
G02X5762760Y2124280I-28195J-28205D01*
G03X5742000Y2086270I26741J-39280D01*
G01X5741780Y2078320D01*
X5717550Y2054100D01*
X5702690Y2068960D01*
X5702020Y2069790D01*
G03X5617500Y2041270I-37019J-29792D01*
G01X5617280Y2033320D01*
X5547100Y1963140D01*
G02X5479020Y1991340I-28200J28198D01*
G37*
G36*
G01X4888320Y2636520D02*
G02X4851160Y2690870I1J39879D01*
G03X4841370Y2740810I-44279J17249D01*
G01X4835900Y2746580D01*
Y2780480D01*
G02X4872000Y2820180I39878J1D01*
G03X4907390Y2841680I-4514J47307D01*
G02X4930300Y2849810I16741J-10831D01*
G03X4992500Y2893730I14698J45189D01*
G01X4992720Y2901680D01*
X5012560Y2921520D01*
Y2946520D01*
X5456020Y3389980D01*
X5722660D01*
G02X5750860Y3321900I2J-39880D01*
G01X5732980Y3304020D01*
X5583460D01*
X5577690Y3309490D01*
G03Y3240510I-32690J-34490D01*
G01X5583460Y3245980D01*
X5722240D01*
G02X5761310Y3198080I5J-39880D01*
G03X5766000Y3157670I63690J-13085D01*
G02X5729820Y3101020I-36181J-16771D01*
G01X5514980D01*
Y3072020D01*
X5495980D01*
X5410980Y2987020D01*
X5290070D01*
X5149930Y2846880D01*
G02X5097900Y2843100I-28201J28198D01*
G03X5031400Y2776600I-28400J-38100D01*
G02X5027620Y2724570I-31978J-23829D01*
G01X4939570Y2636520D01*
X4888320D01*
G37*
G36*
G01X5498520Y1663460D02*
Y1832480D01*
X5609860Y1943820D01*
G02X5677940Y1915620I28200J-28198D01*
G01Y1558980D01*
X5677090Y1558130D01*
Y1558090D01*
X5662170Y1543170D01*
X5662130D01*
X5560480Y1441520D01*
Y1366940D01*
X5545560Y1352020D01*
X5492330D01*
Y1545790D01*
X5472780Y1565340D01*
X5489010Y1581570D01*
X5491680Y1582970D01*
G03X5503990Y1657690I-22179J42028D01*
G01X5498520Y1663460D01*
G37*
G36*
G01X5355440Y2691020D02*
X5320520Y2725940D01*
G02X5334620Y2759980I14099J14100D01*
G01X5514980D01*
Y2691020D01*
X5355440D01*
G37*
G36*
G01X5350350Y2818020D02*
G02X5322150Y2886100I-2J39880D01*
G01X5329030Y2892980D01*
X5483060D01*
X5489060Y2886980D01*
X5514980D01*
Y2818020D01*
X5350350D01*
G37*
G36*
G01X6099120Y366480D02*
G03X6051480Y357340I-3117J-112479D01*
G01X6039060Y351990D01*
X5822140Y568900D01*
G02X5850340Y636980I28198J28200D01*
G01X5925980D01*
X6128420Y434540D01*
G02X6099120Y366480I-28201J-28196D01*
G37*
G36*
G01X6105000Y2077880D02*
X5849020Y2333860D01*
Y2392020D01*
X5797720Y2443320D01*
X5797500Y2451270D01*
G03X5795760Y2462820I-47503J-1250D01*
G01X5795020Y2465450D01*
Y3120580D01*
X5816140D01*
X5817320Y3120440D01*
G03X5832940Y3120470I7686J64561D01*
G01X5841550Y3111850D01*
Y3107850D01*
X5904980Y3044420D01*
Y2476980D01*
X6213480D01*
Y2415480D01*
X6230980Y2397980D01*
Y2326610D01*
G02X6171670Y2291780I-39881J-1D01*
G03X6119150Y2173410I-31674J-56783D01*
G02X6134560Y2107440I-12789J-37772D01*
G01X6105000Y2077880D01*
G37*
G36*
G01X5961580Y3101020D02*
X5921590Y3141010D01*
Y3145010D01*
X5890000Y3176590D01*
X5890020Y3184870D01*
G03X5842610Y3247590I-65020J130D01*
G02X5825220Y3314180I10806J38388D01*
G01X5839020Y3327980D01*
X5970150D01*
G02X6010010Y3286920I-3J-39880D01*
G03X6012920Y3265680I64990J-1915D01*
G01X6017520Y3250890D01*
X5995800Y3237520D01*
X5991530D01*
X5984700Y3230690D01*
X5976480Y3225640D01*
X5975500Y3221490D01*
X5972480Y3218470D01*
Y3208820D01*
X5970240Y3199430D01*
X5972480Y3195800D01*
Y3191530D01*
X5979310Y3184700D01*
X6012100Y3131410D01*
G02X5995120Y3101020I-16981J-10451D01*
G01X5961580D01*
G37*
G36*
G01X6185020Y2665180D02*
Y3101020D01*
X6130560D01*
G02X6096600Y3161800I4J39880D01*
G01X6110690Y3184700D01*
X6117520Y3191530D01*
Y3195800D01*
X6119760Y3199430D01*
X6117520Y3208820D01*
Y3235810D01*
G03X6137580Y3302630I-42522J49187D01*
G01X6136840Y3305280D01*
Y3327980D01*
X6170980D01*
X6275360Y3223600D01*
G02X6251480Y3155750I-28198J-28203D01*
G01Y2930470D01*
G02X6280130Y2864010I-1071J-39867D01*
G03X6279000Y2715280I83871J-75007D01*
G02X6277070Y2660950I-30130J-26129D01*
G01X6253100Y2636980D01*
G02X6185020Y2665180I-28200J28198D01*
G37*
G36*
G01X6039850Y3522020D02*
G02X5999990Y3563080I3J39880D01*
G03X6000020Y3565000I-64989J1976D01*
G01Y3683070D01*
X6061900Y3744950D01*
G02X6129980Y3716750I28200J-28199D01*
G01Y3565000D01*
G03X6130010Y3563080I65019J56D01*
G02X6090150Y3522020I-39863J-1180D01*
G01X6039850D01*
G37*
G36*
G01X6393020Y2313020D02*
Y2425450D01*
X6405590Y2430450D01*
G03X6457770Y2472800I-41583J104555D01*
G02X6524230I33230J-22042D01*
G03X6577710Y2429940I93765J62203D01*
G02X6591630Y2364500I-14275J-37237D01*
G01X6540230Y2313100D01*
X6442060D01*
X6441980Y2313020D01*
X6393020D01*
G37*
G36*
G01X6457770Y2597200D02*
G03X6426200Y2628770I-93770J-62200D01*
G02Y2695230I22042J33230D01*
G03X6457770Y2726800I-62200J93770D01*
G02X6524230I33230J-22042D01*
G03X6555800Y2695230I93770J62200D01*
G02Y2628770I-22042J-33230D01*
G03X6524230Y2597200I62200J-93770D01*
G02X6457770I-33230J22042D01*
G37*
G36*
G01X6723230Y2828840D02*
G03X6680200Y2882770I-105234J-39834D01*
G02Y2949230I22042J33230D01*
G03X6700860Y3119120I-62200J93765D01*
G02X6730230Y3185980I29370J26979D01*
G01X6967980D01*
X6992280Y3161680D01*
X6992500Y3153730D01*
G03X7016440Y3113730I47503J1266D01*
G02X7024860Y3050900I-19778J-34630D01*
G01X6788720Y2814770D01*
G02X6723230Y2828840I-28198J28197D01*
G37*
%LPC*%
G75*
G36*
G01X815000Y460600D02*
X1035000D01*
G02Y240560I0J-110020D01*
G01X815000D01*
G02Y460600I0J110020D01*
G37*
G36*
G01X563640Y4343660D02*
G03Y4316340I14521J-13660D01*
G02X486360I-38640J-36340D01*
G03Y4343660I-14521J13660D01*
G02Y4416340I38640J36340D01*
G03Y4443660I-14521J13660D01*
G02X563640I38640J36340D01*
G03Y4416340I14521J-13660D01*
G02Y4343660I-38640J-36340D01*
G37*
G36*
G01X2582700Y3884260D02*
G03X2607300I12300J15695D01*
G02Y3800740I32700J-41760D01*
G03X2582700I-12300J-15695D01*
G02X2516390Y3801470I-32699J41760D01*
G03X2491110I-12640J-15423D01*
G02Y3883530I-33610J41030D01*
G03X2516390I12640J15423D01*
G02X2582700Y3884260I33611J-41030D01*
G37*
G36*
G01X2079500Y3793580D02*
G03Y3771420I16577J-11080D01*
G02X2000500I-39500J-26420D01*
G03Y3793580I-16577J11080D01*
G02Y3846420I39500J26420D01*
G03Y3868580I-16577J11080D01*
G02X2079500I39500J26420D01*
G03Y3846420I16577J-11080D01*
G02Y3793580I-39500J-26420D01*
G37*
G36*
G01X1624870Y3057000D02*
G03X1630570Y3102630I-29482J26854D01*
G02X1711510Y3152140I41929J22369D01*
G01X1712520Y3150680D01*
X1727870Y3135330D01*
X1747570Y3155020D01*
X2017370D01*
X2023070Y3160190D01*
G02Y3089810I31930J-35190D01*
G01X2017370Y3094980D01*
X1772430D01*
X1707840Y3030380D01*
X1707460Y3022690D01*
G02X1624870Y3057000I-47462J2309D01*
G37*
G36*
G01X2093270Y2866820D02*
G03Y2843180I16052J-11820D01*
G02X2016730I-38270J-28180D01*
G03Y2866820I-16052J11820D01*
G02X2093270I38270J28180D01*
G37*
G36*
G01X3148490Y942870D02*
G02X3069030Y939080I-38491J-27869D01*
G03X3064850Y985350I-34376J20218D01*
G02X3059580Y992610I40132J34675D01*
G03X3025420I-17080J-10290D01*
G02X3015680Y1059250I-45420J27393D01*
G03X3069320I26820J29509D01*
G02X3148270Y989320I35686J-39242D01*
G03X3148490Y942870I32527J-23071D01*
G37*
G36*
G01X2906530Y141480D02*
X2681480D01*
Y366520D01*
X2906530D01*
G03X2972990Y337870I39867J1071D01*
G02X3141770Y316200I75013J-83869D01*
G03X3208230I33230J22042D01*
G02X3395770I93770J-62200D01*
G03X3462230I33230J22042D01*
G02Y191800I93770J-62200D01*
G03X3395770I-33230J-22042D01*
G02X3208230I-93770J62200D01*
G03X3141770I-33230J-22042D01*
G02X2972990Y170130I-93767J62199D01*
G03X2906530Y141480I-26593J-29721D01*
G37*
G36*
G01X7212500Y3738730D02*
X7212280Y3746680D01*
X7122980Y3835980D01*
X6803460D01*
X6797690Y3830510D01*
G02Y3899490I-32690J34490D01*
G01X6803460Y3894020D01*
X7147020D01*
X7253320Y3787720D01*
X7261270Y3787500D01*
G02X7212500Y3738730I-1270J-47500D01*
G37*
G54D29*
X1435000Y2900000D03*
X1285000Y4725000D03*
X1700000Y2100000D03*
Y1950000D03*
X1677500Y2340000D03*
X1683550Y2687640D03*
X1795000Y3477500D03*
X2185000Y1377500D03*
X2200000Y1875000D03*
X2185500Y4095000D03*
X1950000Y4400000D03*
X2315000Y1722500D03*
X2500000Y1950000D03*
X2675000Y3075000D03*
X2420000Y3177500D03*
Y3377500D03*
X2580000Y3177500D03*
Y3377500D03*
X2970000Y1425000D03*
X2710000Y1370000D03*
X3295000Y1165000D03*
X5858500Y4375000D03*
X3190000Y4255000D03*
X7572460Y255000D03*
X5266180Y3071320D03*
G54D28*
X605000Y830580D03*
G54D30*
X1815000Y580000D03*
Y1070000D03*
X2285000Y580000D03*
Y1070000D03*
G54D31*
X6604000Y3556000D03*
Y762000D03*
%LPD*%
G75*
G54D10*
X125000Y2330750D03*
Y3003250D03*
G54D20*
X2794000Y254000D03*
X4165600Y5080000D03*
X5080000Y254000D03*
X6364000Y3043000D03*
X6350000Y5080000D03*
G54D11*
X162020Y1905000D03*
X628200Y1875000D03*
Y1770000D03*
X517980Y1905000D03*
X575000Y2430000D03*
Y2335000D03*
Y2537000D03*
X525000Y3405000D03*
Y3520000D03*
Y4280000D03*
Y4480000D03*
Y4380000D03*
X1055000Y2875000D03*
X950000D03*
X1025000Y3550000D03*
X825000D03*
X925000D03*
X775000Y3650000D03*
X875000D03*
X775000Y3750000D03*
X875000D03*
X775000Y3850000D03*
X875000D03*
X775000Y3950000D03*
X875000D03*
X775000Y4050000D03*
X875000D03*
X775000Y4150000D03*
X875000D03*
X800000Y4250000D03*
X900000D03*
X1000000D03*
X1150000Y2875000D03*
X1425000Y3550000D03*
X1325000D03*
X1225000D03*
X1125000D03*
X1100000Y4250000D03*
X1200000D03*
X1300000D03*
X1400000D03*
X1625000Y3550000D03*
Y3650000D03*
Y3750000D03*
Y3850000D03*
X1525000Y3550000D03*
X1885000Y4285000D03*
X1625000Y3950000D03*
Y4050000D03*
Y4150000D03*
X1525000Y4250000D03*
X1625000D03*
X2060000Y4285000D03*
X1970000D03*
X2640000Y3842500D03*
X2550000D03*
X2457500D03*
X2980000Y1020000D03*
X3105000D03*
X3556000Y1069000D03*
Y1196020D03*
G54D12*
X207000Y2095000D03*
X674920Y2558980D03*
X742500Y2000000D03*
X950000Y3075000D03*
X1000000Y3650000D03*
Y3750000D03*
Y3850000D03*
Y3950000D03*
Y4050000D03*
Y4150000D03*
X1435000Y2900000D03*
X1400000Y3650000D03*
X1300000D03*
X1200000D03*
X1100000D03*
Y3750000D03*
X1200000D03*
X1300000D03*
X1400000D03*
X1100000Y3850000D03*
X1200000D03*
X1400000D03*
X1300000D03*
X1400000Y3950000D03*
X1300000D03*
X1200000D03*
X1100000D03*
Y4050000D03*
X1200000D03*
X1400000D03*
X1100000Y4150000D03*
X1200000D03*
X1300000D03*
X1400000D03*
X1300000Y4050000D03*
X1285000Y4725000D03*
X1235000Y5015000D03*
X1700000Y2100000D03*
Y1950000D03*
X1677500Y2340000D03*
X1683550Y2687640D03*
X1660000Y3025000D03*
X1795000Y3477500D03*
X1672500Y3125000D03*
X1500000Y3650000D03*
Y3750000D03*
Y3850000D03*
Y3950000D03*
Y4050000D03*
Y4150000D03*
X1820000Y4905000D03*
X2185000Y1377500D03*
X2200000Y1875000D03*
X1975000Y2144500D03*
X1930000Y2065000D03*
X2095000Y2275000D03*
X2055000Y2655000D03*
X2130000Y2350000D03*
X2055000Y2895000D03*
Y2815000D03*
Y2735000D03*
X1955000Y3477500D03*
X2020000Y3260000D03*
X2055000Y3125000D03*
X2040000Y3745000D03*
Y3895000D03*
Y3820000D03*
X2185500Y4095000D03*
X1950000Y4400000D03*
X2315000Y1722500D03*
X2680000Y1770000D03*
X2325000Y2275000D03*
X2500000Y1950000D03*
X2675000Y3075000D03*
X2420000Y3177500D03*
Y3377500D03*
X2580000Y3177500D03*
Y3377500D03*
X2970000Y1425000D03*
X2710000Y1370000D03*
X2790000Y1730000D03*
X2965000Y1825000D03*
X3083120Y1883120D03*
X2839580Y1784500D03*
X2897500Y1920000D03*
X2865000Y2320000D03*
X3085700Y2358120D03*
X2870700Y2808120D03*
X3085700Y2758120D03*
X2872700Y3011060D03*
X2806880Y3108120D03*
X2760000Y2900000D03*
X2960000Y3500000D03*
X3105000Y3175000D03*
X2827000Y3285000D03*
X2963500Y3575000D03*
X2750000Y3640000D03*
X3030000Y3897000D03*
Y4255000D03*
X3065000Y4435000D03*
X2820000Y4945000D03*
X3315000Y920000D03*
X3110000Y915000D03*
X3370000Y1030000D03*
X3295000Y1165000D03*
X3250000Y1725000D03*
X3210000Y2295000D03*
X3192700Y1995000D03*
X3265700D03*
X3502330Y2105160D03*
X3446880Y2158120D03*
X3450000Y2640000D03*
X3125000Y2615000D03*
X3175000Y2855000D03*
X3155000Y3050000D03*
X3382540Y3031500D03*
X3388200Y3327620D03*
X3248000Y3675000D03*
X3220610Y3555030D03*
X3147660Y3552210D03*
X3403200Y3561800D03*
X3366720Y3634800D03*
X3494750Y3599750D03*
X3190000Y3897000D03*
X3110000D03*
X3435000Y3890000D03*
X3298690Y3606050D03*
X3350000Y3960000D03*
X3190000Y4255000D03*
X3379980Y4080000D03*
X3378500Y4295000D03*
X3265000Y4530000D03*
X3470420Y4446000D03*
X3415000Y4645000D03*
X3435000Y4935000D03*
X3200000Y4940000D03*
X3740000Y655000D03*
X3880000Y709500D03*
X3695500Y1470000D03*
X3610000Y1265000D03*
X3815000Y1340000D03*
X3754500Y1404500D03*
X3600000Y1725000D03*
X3700000Y1770000D03*
X3670000Y2290000D03*
X3549120Y2049120D03*
X3689500Y2105000D03*
X3760970Y2119890D03*
X3830150Y2096580D03*
X3705000Y2615000D03*
X3642160Y2564500D03*
X3710000Y2510000D03*
X3803040Y2455500D03*
X3875000Y2400000D03*
X3756040Y2911040D03*
X3870960Y3159040D03*
X3900000Y3550000D03*
X3745000Y3805000D03*
X3553200Y3538620D03*
X3730000Y4245000D03*
X3713540Y4596460D03*
X3852260Y4549480D03*
X3550040Y4520540D03*
X3779270Y4551160D03*
X3620500Y4585000D03*
X3518770Y4391300D03*
X3642480Y4394040D03*
X3840000Y4935000D03*
X3845000Y4735500D03*
X4013760Y1344500D03*
X3928520Y1346910D03*
X4044500Y1263900D03*
X4093000Y1450000D03*
X4146520Y1360000D03*
X3924000Y1265000D03*
X4230000Y1770000D03*
X3975000Y1745000D03*
X4108960Y2040000D03*
X4149500Y2176040D03*
X4133580Y2423580D03*
X4032580Y2319500D03*
X4170000Y3050000D03*
X4015000Y2785000D03*
X4314700Y2980000D03*
X4075310Y2727590D03*
X3943620Y2800300D03*
X4165240Y3161200D03*
X4147660Y3232060D03*
X4245000Y3170000D03*
X3960000Y3815000D03*
X4170000Y3895000D03*
X3965000Y3600000D03*
X4090000Y3895000D03*
X4189800Y3782370D03*
X4250000Y4280000D03*
X4010000Y4255000D03*
X4260500Y4090000D03*
X4296500Y4015130D03*
X3930000Y4275000D03*
X4115230Y4614270D03*
X4205000Y4476820D03*
X4054510Y4404820D03*
X4700000Y1375000D03*
X4350000D03*
X4390140Y1781080D03*
X4700000Y1725000D03*
X4575000Y1940000D03*
X4700000Y2095000D03*
X4396380Y2190390D03*
X4657580Y2159220D03*
X4339370Y2105520D03*
X4716130Y2300000D03*
X4655000Y2810000D03*
X4670000Y2908120D03*
X4422700Y3108120D03*
X4495000Y3460000D03*
X4420700Y3208120D03*
X4580000Y3325000D03*
X4355000Y3320000D03*
X4700000Y3550000D03*
X4424430Y3749030D03*
X4485000Y4160000D03*
X4370000Y4715000D03*
X4655000Y4645000D03*
X4508960Y4643960D03*
X4575000Y4930000D03*
X5030000Y560000D03*
X4950000Y985000D03*
X4860000Y1410000D03*
X4915000Y1290000D03*
X4962000Y1470000D03*
X4780000Y1297920D03*
X4785000Y1765000D03*
X4962000Y1630000D03*
X5084500Y1827290D03*
X4935000Y2020000D03*
Y2230000D03*
X5095000Y1980000D03*
X5085200Y1900290D03*
X4748120Y2662000D03*
X4750000Y2445000D03*
X5125000Y2490000D03*
X5069500Y2805000D03*
X4806880Y2708120D03*
X4867490Y2867490D03*
X4945000Y2895000D03*
X5015000Y3390000D03*
X4735000Y3755000D03*
X4900000Y3550000D03*
X5000000Y3530000D03*
X5035000Y4940000D03*
X4775000Y4935000D03*
X5280000Y560000D03*
X5250000Y980000D03*
X5190000Y810000D03*
Y1372000D03*
X5340000Y1490000D03*
X5345000Y1390000D03*
X5469500Y1625000D03*
X5365000Y2220000D03*
X5450000Y2115000D03*
X5305000Y1975000D03*
X5440000Y2460000D03*
X5416910Y2390740D03*
X5225000Y2645000D03*
X5470000Y2725000D03*
X5472500Y2867500D03*
X5266180Y3071320D03*
X5420000Y3240000D03*
X5195000Y3310000D03*
X5194000Y3450000D03*
X5415000Y3585000D03*
X5225000Y4605000D03*
X5495000Y4575000D03*
X5880000Y570000D03*
X5535000Y560000D03*
X5735500Y1010000D03*
X5590970Y988890D03*
X5900000Y1000000D03*
X5535000Y1377500D03*
X5651610Y1568650D03*
X5785000Y1635000D03*
X5535000Y2054500D03*
X5665000Y2244500D03*
Y2040000D03*
X5815500Y2000000D03*
X5789500Y2085000D03*
X5877500Y2662000D03*
X5750000Y2450000D03*
X5879500Y2916000D03*
X5875000Y2740000D03*
X5662500Y3139980D03*
X5840000Y3290000D03*
X5545000Y3275000D03*
X5640000Y3640000D03*
X5720000Y4310000D03*
X5858500Y4375000D03*
X5975000Y1015000D03*
X6110000Y1280000D03*
X6275010Y1145010D03*
X6265750Y1972100D03*
X6261270Y1899230D03*
X6055000Y3630000D03*
X6685000Y1130000D03*
X6545000Y1620000D03*
X6450000Y2350000D03*
X6875000Y1470000D03*
X6746500Y1448500D03*
X6966500Y1892780D03*
X6760000Y2045000D03*
X6929500Y2580000D03*
X6885000Y3075000D03*
X7030000Y2770000D03*
X7120000Y3190000D03*
X7040000Y3155000D03*
X6765000Y3865000D03*
X7070000Y3940000D03*
X6770000Y4710000D03*
X7030000Y4452000D03*
X7155000Y255000D03*
X7424500Y882000D03*
X7320000Y1820000D03*
X7420000Y1705000D03*
X7444650Y1520000D03*
X7260000Y2325000D03*
X7419500Y2540000D03*
X7290000Y3255000D03*
X7399000Y3139000D03*
X7260000Y3740000D03*
X7435000Y3965000D03*
X7572460Y255000D03*
Y1915000D03*
Y3575000D03*
G54D21*
X5655000Y2535000D03*
Y2662000D03*
Y2789000D03*
Y2916000D03*
Y3043000D03*
X6045000Y2535000D03*
Y2662000D03*
Y2789000D03*
Y2916000D03*
Y3043000D03*
G54D22*
G01X2055000Y3125000D02*
X1760000D01*
X1660000Y3025000D01*
G01X2760000Y2900000D02*
X2135000Y2275000D01*
X2095000D01*
G54D13*
X605000Y830580D03*
G54D23*
G01X5825000Y3185000D02*
X5881570Y3128430D01*
Y3124430D01*
X5963000Y3043000D01*
X6045000D01*
G54D14*
X415000Y2417000D03*
Y2917000D03*
G54D24*
G01X6045000Y2662000D02*
X5877500D01*
G01X6045000Y2789000D02*
X6026000Y2770000D01*
X5905000D01*
X5875000Y2740000D01*
G01X6045000Y2916000D02*
X5879500D01*
G01X6227540Y2647460D02*
X6203000Y2622920D01*
Y2588000D01*
X6175000Y2560000D01*
X6070000D01*
X6045000Y2535000D01*
G01Y3140000D02*
X6085000Y3205000D01*
X6005000D01*
X6045000Y3140000D01*
G54D15*
X925000Y350580D03*
G54D25*
G01X1930000Y2065000D02*
X2037920D01*
X3022920Y3050000D01*
X3155000D01*
G01X2130000Y2350000D02*
X2055000Y2425000D01*
Y2655000D01*
G01X3382540Y3031500D02*
X3296040Y2945000D01*
X3124990D01*
X2752000Y2572010D01*
Y1842000D01*
X2680000Y1770000D01*
G01X2965000Y1825000D02*
Y2030000D01*
X3140200Y2205200D01*
Y2499800D01*
X3125000Y2515000D01*
Y2615000D01*
G01X2839580Y1784500D02*
X2928420D01*
X2942420Y1770500D01*
X2987580D01*
X3001580Y1784500D01*
X3631000D01*
X3645500Y1770000D01*
X3700000D01*
G01X3083120Y1883120D02*
Y1962500D01*
X3284380Y2163760D01*
Y2856260D01*
X3437040Y3008920D01*
Y3054080D01*
X3405120Y3086000D01*
X3296920D01*
X2901540Y3481380D01*
Y3935620D01*
X3005920Y4040000D01*
X3342910D01*
X3357410Y4025500D01*
X3402570D01*
X3434490Y4057420D01*
Y4102580D01*
X3324000Y4213070D01*
Y4429000D01*
X3600000Y4705000D01*
X3760000D01*
X3796000Y4669000D01*
X4153240D01*
X4205000Y4617240D01*
Y4476820D01*
G01X3415000Y4645000D02*
X3250000D01*
X3155000Y4550000D01*
Y4425000D01*
X3075000Y4345000D01*
X2995000D01*
X2865000Y4215000D01*
Y4010000D01*
X2829540Y3974540D01*
Y3624540D01*
X2791000Y3586000D01*
Y3326080D01*
X2772500Y3307580D01*
Y3262420D01*
X2806880Y3228040D01*
Y3108120D01*
G01X3689500Y2105000D02*
X3579120Y1994620D01*
X3526540D01*
X3392380Y2128780D01*
Y2811500D01*
X3523960Y2943080D01*
X3523970D01*
X3545040Y2964150D01*
Y3039160D01*
X3545050Y3039170D01*
Y3098830D01*
X3513120Y3130760D01*
Y3130770D01*
X3449880Y3194010D01*
X3420060D01*
X3420050Y3194000D01*
X3353810D01*
X3090000Y3457810D01*
Y3572080D01*
X3190000Y3672080D01*
Y3897000D01*
G01X3760970Y2119890D02*
Y2065390D01*
X3654200Y1958620D01*
X3511620D01*
X3356380Y2113860D01*
Y2826420D01*
X3509040Y2979080D01*
Y3054080D01*
X3509050Y3054090D01*
Y3083910D01*
X3477120Y3115840D01*
Y3115850D01*
X3434970Y3158000D01*
X3338890D01*
X3054000Y3442890D01*
Y3587000D01*
X3110000Y3643000D01*
Y3897000D01*
G01X3379980Y4080000D02*
X2995000D01*
X2865540Y3950540D01*
Y3600540D01*
X2827000Y3562000D01*
Y3285000D01*
G01X3030000Y3897000D02*
Y3613920D01*
X3018000Y3601920D01*
Y3427970D01*
X3060000Y3385970D01*
Y3385960D01*
X3323960Y3122000D01*
X3420050D01*
X3441120Y3100930D01*
Y3100920D01*
X3473040Y3069000D01*
Y2994000D01*
X3320380Y2841340D01*
Y2098940D01*
X3496700Y1922620D01*
X3710690D01*
X3830150Y2042080D01*
Y2096580D01*
G01X2820000Y4945000D02*
Y4040000D01*
X2793540Y4013540D01*
Y3683540D01*
X2750000Y3640000D01*
G01X4339370Y2105520D02*
Y2399190D01*
X4134700Y2603860D01*
Y2750290D01*
X3927000Y2957990D01*
Y3241240D01*
X4244310Y3558550D01*
Y3822060D01*
X4387000Y3964750D01*
Y4537080D01*
X4134080Y4790000D01*
X3185600D01*
X2895600Y5080000D01*
G01X3370000Y1030000D02*
X3520000Y880000D01*
X3940000D01*
X4118000Y702000D01*
X5227000D01*
X5455000Y930000D01*
X5734990D01*
X5790000Y985010D01*
Y1123090D01*
X5886960Y1220050D01*
Y1365120D01*
X6014000Y1492160D01*
Y1836240D01*
X6130470Y1952710D01*
Y2011390D01*
X6322000Y2202920D01*
Y2256750D01*
X6364000Y2298750D01*
Y2535000D01*
G01X3779270Y4551160D02*
Y4496660D01*
X3696980Y4414370D01*
Y4329060D01*
X3665500Y4297580D01*
Y4228010D01*
X3686490Y4207020D01*
Y3481490D01*
X3588000Y3383000D01*
Y2819840D01*
X3515660Y2747500D01*
Y2226900D01*
X3446880Y2158120D01*
G01X3642480Y4394040D02*
Y4339540D01*
X3629500Y4326560D01*
Y4213090D01*
X3650490Y4192100D01*
Y3510490D01*
X3467620Y3327620D01*
X3388200D01*
G01X3403200Y3561800D02*
X3440000Y3598600D01*
Y3625000D01*
X3542490Y3727490D01*
Y4147340D01*
X3469000Y4220830D01*
Y4363990D01*
X3464270Y4368720D01*
Y4439850D01*
X3470420Y4446000D01*
G01X3366720Y3634800D02*
X3489500Y3757580D01*
Y4010590D01*
X3506490Y4027580D01*
Y4132420D01*
X3433000Y4205910D01*
Y4349130D01*
X3414500Y4367630D01*
Y4467160D01*
X3467880Y4520540D01*
X3550040D01*
G01X3494750Y3599750D02*
X3578490Y3683490D01*
Y4162260D01*
X3518770Y4221980D01*
Y4391300D01*
G01X3435000Y3890000D02*
Y3784920D01*
X3298690Y3648610D01*
Y3606050D01*
G01X3378500Y4295000D02*
Y4209490D01*
X3470490Y4117500D01*
Y4042500D01*
X3435000Y4007010D01*
Y3890000D01*
G01X4485000Y4160000D02*
Y4490000D01*
X4149000Y4826000D01*
X3403600D01*
X3149600Y5080000D01*
G01X4657580Y2159220D02*
X4530780D01*
X4486880Y2203120D01*
Y2404440D01*
X4242700Y2648620D01*
Y2795050D01*
X4035000Y3002750D01*
Y3196480D01*
X4352310Y3513790D01*
Y3777300D01*
X4590000Y4014990D01*
Y4640000D01*
X4368000Y4862000D01*
X3621600D01*
X3403600Y5080000D01*
G01X3740000Y655000D02*
X3778540Y616460D01*
X5733540D01*
X6096000Y254000D01*
G01X5655000Y2535000D02*
Y2435920D01*
X6022470Y2068450D01*
Y1997470D01*
X5906000Y1881000D01*
Y1536920D01*
X5778960Y1409880D01*
Y1318960D01*
X5198000Y738000D01*
X4137000D01*
X3610000Y1265000D01*
G01X3880000Y709500D02*
X3955500D01*
X3999000Y666000D01*
X5938000D01*
X6350000Y254000D01*
G01X3754500Y1404500D02*
Y1178260D01*
X4158760Y774000D01*
X4934000D01*
X5483000Y1323000D01*
X5557580D01*
X5589500Y1354920D01*
Y1429500D01*
X5674150Y1514150D01*
X5674190D01*
X5706110Y1546070D01*
Y1546110D01*
X5706960Y1546960D01*
Y2002460D01*
X5789500Y2085000D01*
G01X3815000Y1340000D02*
Y1168680D01*
X4153680Y830000D01*
X4935000D01*
X5463310Y1358310D01*
Y1533770D01*
X5385500Y1611580D01*
Y1845500D01*
X5450000Y1910000D01*
Y2115000D01*
G01X3689500Y2105000D02*
Y2159500D01*
X3710000Y2180000D01*
X3850000D01*
X3910460Y2119540D01*
Y2060460D01*
X3869500Y2019500D01*
Y1191260D01*
X3935760Y1125000D01*
X4607080D01*
X4780000Y1297920D01*
G01X3642160Y2564500D02*
Y2443840D01*
X3946460Y2139540D01*
Y1981460D01*
X3920500Y1955500D01*
Y1722420D01*
X3928520Y1714400D01*
Y1346910D01*
G01X3710000Y2510000D02*
X3748540Y2471460D01*
Y2388380D01*
X3982460Y2154460D01*
Y1852540D01*
X4045000Y1790000D01*
Y1685000D01*
X4015000Y1655000D01*
Y1437920D01*
X4083040Y1369880D01*
Y1302440D01*
X4044500Y1263900D01*
G01X3549120Y2049120D02*
X3587660Y2087660D01*
Y2717660D01*
X3660000Y2790000D01*
Y3353160D01*
X3839500Y3532660D01*
Y4338770D01*
X4076460Y4575730D01*
X4076690D01*
X4115230Y4614270D01*
G01X3852260Y4549480D02*
Y4494980D01*
X3803500Y4446220D01*
Y3547580D01*
X3624000Y3368080D01*
Y2804920D01*
X3551660Y2732580D01*
Y2154490D01*
X3502330Y2105160D01*
G01X4093000Y1450000D02*
Y1797000D01*
X4018460Y1871540D01*
Y2169380D01*
X3803040Y2384800D01*
Y2455500D01*
G01X4146520Y1360000D02*
Y1434470D01*
X4147500Y1435450D01*
Y1797500D01*
X4054460Y1890540D01*
Y2220540D01*
X3875000Y2400000D01*
G01X3845000Y4735500D02*
X4137660D01*
X4351000Y4522160D01*
Y3979670D01*
X4208200Y3836870D01*
X4167220D01*
X4116000Y3785650D01*
Y3532080D01*
X3770000Y3186080D01*
Y3060000D01*
X3810540Y3019460D01*
Y2618620D01*
X4095000Y2334160D01*
Y2108460D01*
X4108960Y2094500D01*
Y2040000D01*
G01X3870960Y3159040D02*
Y3089040D01*
X3882540Y3077460D01*
Y2674620D01*
X4133580Y2423580D01*
G01X4090000Y3895000D02*
X4044000Y3849000D01*
Y3561920D01*
X3986250Y3504170D01*
X3986240D01*
X3698000Y3215930D01*
Y2892000D01*
X3733460Y2856540D01*
X3743460D01*
X3770000Y2830000D01*
Y2582080D01*
X4032580Y2319500D01*
G01X4189800Y3782370D02*
Y3727870D01*
X4189810Y3727860D01*
Y3554970D01*
X3806000Y3171160D01*
Y3084000D01*
X3846540Y3043460D01*
Y2633540D01*
X4149500Y2330580D01*
Y2176040D01*
G01X4170000Y3895000D02*
X4080000Y3805000D01*
Y3547000D01*
X4001160Y3468160D01*
X4001150D01*
X3734000Y3201010D01*
Y2987580D01*
X3756040Y2965540D01*
Y2911040D01*
G01X3620500Y4585000D02*
Y4463000D01*
X3587980Y4430480D01*
Y4203690D01*
X3614490Y4177180D01*
Y3599910D01*
X3553200Y3538620D01*
G01X3965000Y3600000D02*
X3875500Y3689500D01*
Y4297580D01*
X3982740Y4404820D01*
X4054510D01*
G01X3924000Y1265000D02*
X4019000Y1170000D01*
X4572080D01*
X4754500Y1352420D01*
X5022580D01*
X5073000Y1302000D01*
X5334080D01*
X5400000Y1367920D01*
Y1507080D01*
X5349500Y1557580D01*
Y1864500D01*
X5365000Y1880000D01*
Y2220000D01*
G01X4962000Y1470000D02*
X4795970D01*
X4204990Y2060980D01*
Y2124670D01*
X4205000Y2124680D01*
Y2352160D01*
X4133580Y2423580D01*
G01X4075310Y2727590D02*
Y2673090D01*
X4075300Y2673080D01*
Y2612340D01*
X4277000Y2410640D01*
Y2090810D01*
X4321810Y2046000D01*
X4630840D01*
X4776550Y1900290D01*
X5085200D01*
G01X3943620Y2800300D02*
X3945000D01*
Y2691720D01*
X4241000Y2395720D01*
Y2109760D01*
X4240990Y2109750D01*
Y2075900D01*
X4306890Y2010000D01*
X4615920D01*
X4798630Y1827290D01*
X5084500D01*
G01X4508960Y4643960D02*
Y4566040D01*
X4550000Y4525000D01*
Y4025910D01*
X4316310Y3792220D01*
Y3528710D01*
X3999000Y3211400D01*
Y2987830D01*
X4206700Y2780130D01*
Y2633700D01*
X4450880Y2389520D01*
Y2164120D01*
X4520000Y2095000D01*
X4700000D01*
G01X4396380Y2190390D02*
Y2393100D01*
X4170700Y2618780D01*
Y2765210D01*
X3963000Y2972910D01*
Y3226320D01*
X4280310Y3543630D01*
Y3807140D01*
X4485000Y4011830D01*
Y4160000D01*
G01X4147660Y3232060D02*
X4095000Y3179400D01*
Y2993670D01*
X4278700Y2809970D01*
Y2663540D01*
X4587740Y2354500D01*
X5035490D01*
X5250500Y2139490D01*
Y1952420D01*
X5300000Y1902920D01*
Y1530000D01*
X5340000Y1490000D01*
G01X5305000Y1975000D02*
Y2140000D01*
X5054500Y2390500D01*
X4602660D01*
X4314700Y2678460D01*
Y2824890D01*
X4245000Y2894590D01*
Y3170000D01*
G01X5655000Y2789000D02*
X5238990D01*
X4985490Y2535500D01*
X4559500D01*
X4386700Y2708300D01*
Y2738120D01*
X4386710Y2738130D01*
Y2985070D01*
X4315000Y3056780D01*
Y3185000D01*
X4275000Y3225000D01*
X4221020D01*
X4165240Y3169220D01*
Y3161200D01*
G01X4010000Y4255000D02*
X4095500D01*
X4260500Y4090000D01*
G01X3930000Y4275000D02*
X3968540Y4313540D01*
X4121460D01*
X4315000Y4120000D01*
Y4033630D01*
X4296500Y4015130D01*
G01X5095000Y1980000D02*
Y2054990D01*
X4990770Y2159220D01*
X4657580D01*
G01X5655000Y2916000D02*
X5501080D01*
X5495080Y2922000D01*
X5317010D01*
X4966510Y2571500D01*
X4574420D01*
X4422710Y2723210D01*
Y3000000D01*
X4366200Y3056510D01*
Y3254300D01*
X4355000Y3265500D01*
Y3320000D01*
G01X5655000Y2662000D02*
X5343420D01*
X5305920Y2699500D01*
X5202420D01*
X5002420Y2499500D01*
X4544580D01*
X4350700Y2693380D01*
Y2839810D01*
X4314700Y2875810D01*
Y2980000D01*
G01X5655000Y3043000D02*
X5508000D01*
X5423000Y2958000D01*
X5302090D01*
X4951590Y2607500D01*
X4589340D01*
X4458710Y2738130D01*
Y3014920D01*
X4422700Y3050930D01*
Y3108120D01*
G01X4424430Y3749030D02*
X4462970Y3710490D01*
Y3697530D01*
X4670000Y3490500D01*
Y2908120D01*
G01X5345000Y1390000D02*
X5264000Y1471000D01*
Y1888000D01*
X5214500Y1937500D01*
Y2115490D01*
X5029990Y2300000D01*
X4716130D01*
G01X4748120Y2662000D02*
Y2748120D01*
X4770880Y2770880D01*
Y3551800D01*
X6096000Y4876920D01*
Y5080000D01*
G01X4750000Y2445000D02*
X5002920D01*
X5112920Y2555000D01*
X5290500D01*
X5385500Y2460000D01*
X5440000D01*
G01X6350000Y5080000D02*
X4806880Y3536880D01*
Y2708120D01*
G01X4867490Y2867490D02*
Y2927990D01*
X5195000Y3255500D01*
Y3310000D01*
G01X4945000Y2895000D02*
X4983540Y2933540D01*
Y2958540D01*
X5444000Y3419000D01*
X6216000D01*
X6420000Y3215000D01*
X6980000D01*
X7040000Y3155000D01*
G01X5000000Y3530000D02*
X5134500Y3395500D01*
X5300500D01*
X5360000Y3455000D01*
X6245000D01*
X6445000Y3255000D01*
X7290000D01*
G01X5190000Y810000D02*
X5742960Y1362960D01*
Y1424800D01*
X5870000Y1551840D01*
Y2125000D01*
X5675000Y2320000D01*
X5657080D01*
X5462580Y2514500D01*
X5425500D01*
X5295000Y2645000D01*
X5225000D01*
G01X5665000Y2040000D02*
X5469500Y1844500D01*
Y1625000D01*
G01X5125000Y2490000D02*
X5260000D01*
X5359260Y2390740D01*
X5416910D01*
G01X7030000Y4452000D02*
X6275000Y3697000D01*
Y3535000D01*
X6233000Y3493000D01*
X5237000D01*
X5194000Y3450000D01*
G01X5735500Y1010000D02*
Y1119510D01*
X5850960Y1234970D01*
Y1380040D01*
X5978000Y1507080D01*
Y1851160D01*
X6094470Y1967630D01*
Y2026310D01*
X6260000Y2191840D01*
Y2410000D01*
X6242500Y2427500D01*
Y2585340D01*
X6364000Y2706840D01*
Y2789000D01*
G01X5750000Y2450000D02*
X5820000Y2380000D01*
Y2321840D01*
X6058470Y2083370D01*
Y1982550D01*
X5942000Y1866080D01*
Y1522000D01*
X5814960Y1394960D01*
Y1276050D01*
X5648540Y1109630D01*
Y1046460D01*
X5590970Y988890D01*
G01X5900000Y1000000D02*
Y1125500D01*
X6036200Y1261700D01*
Y1461200D01*
X6050000Y1475000D01*
Y1821320D01*
X6166470Y1937790D01*
Y1996470D01*
X6358000Y2188000D01*
Y2241830D01*
X6400170Y2284000D01*
X6454000D01*
X6454080Y2284080D01*
X6552250D01*
X6763000Y2494830D01*
Y2748000D01*
X7154000Y3139000D01*
X7399000D01*
G01X5815500Y2000000D02*
Y1845500D01*
X5785000Y1815000D01*
Y1635000D01*
G01X6364000Y3043000D02*
Y3176000D01*
X6183000Y3357000D01*
X5827000D01*
X5745000Y3275000D01*
X5545000D01*
G01X6275010Y1145010D02*
Y1090510D01*
X6275000Y1090500D01*
Y660000D01*
X6620000Y315000D01*
X7095000D01*
X7155000Y255000D01*
G01X7320000Y1820000D02*
X7156720Y1983280D01*
X6929000D01*
X6917820Y1972100D01*
X6265750D01*
G01X7420000Y1705000D02*
X7345000D01*
X7102720Y1947280D01*
X6943920D01*
X6895870Y1899230D01*
X6261270D01*
G01X7424500Y1074500D02*
X7365500D01*
X7310000Y1130000D01*
X6685000D01*
G01X6966500Y1892780D02*
Y1561500D01*
X6875000Y1470000D01*
G01X6746500Y1448500D02*
X6801000D01*
X6834000Y1415500D01*
X6897580D01*
X7002080Y1520000D01*
X7444650D01*
G01X7030000Y2770000D02*
Y2680500D01*
X6929500Y2580000D01*
G01X6765000Y3865000D02*
X7135000D01*
X7260000Y3740000D01*
G01X7424500Y1074500D02*
Y882000D01*
G01X7419500Y2540000D02*
Y2235500D01*
X7685000Y1970000D01*
Y1335000D01*
X7424500Y1074500D01*
G01X7419500Y2540000D02*
Y2799500D01*
X7650000Y3030000D01*
Y3635000D01*
X7435000Y3850000D01*
Y3965000D01*
G54D16*
X1205000Y830580D03*
G54D26*
G01X125000Y2224540D02*
Y2330750D01*
G01D02*
X249960Y2233350D01*
G01X125000Y2330750D02*
Y2436960D01*
G01Y2330750D02*
X249960D01*
G01X125000D02*
X249960Y2428150D01*
G01X125000Y2897040D02*
Y3003250D01*
G01D02*
Y3109460D01*
G01Y3003250D02*
X249960D01*
G01X125000D02*
X249960Y3100650D01*
G01X125000Y3003250D02*
X249960Y2905850D01*
G01X415000Y2307040D02*
Y2417000D01*
G01D02*
Y2526960D01*
G01X317540Y2417000D02*
X415000D01*
G01X324670Y2307040D02*
X415000Y2417000D01*
G01D02*
X505330Y2526960D01*
G01X324670D02*
X415000Y2417000D01*
G01Y2807040D02*
Y2917000D01*
G01D02*
Y3026960D01*
G01X317540Y2917000D02*
X415000D01*
G01X324670Y2807040D02*
X415000Y2917000D01*
G01X324670Y3026960D02*
X415000Y2917000D01*
G01X5885040Y2535000D02*
X6045000D01*
G01Y2457040D02*
Y2535000D01*
G01X6504400Y2421400D02*
X6618000Y2535000D01*
G01X6504400Y2648600D02*
X6618000Y2535000D01*
G01X6550660Y2389140D02*
X6618000Y2535000D01*
G01X6472140Y2467660D02*
X6618000Y2535000D01*
G54D17*
X1524000Y5080000D03*
X6604000Y762000D03*
Y3556000D03*
G54D27*
G01X628200Y1875000D02*
Y2133200D01*
X805000Y2310000D01*
Y3125000D01*
X525000Y3405000D01*
G01X628200Y1770000D02*
Y1875000D01*
G01X525000Y3520000D02*
Y3405000D01*
G01X1205000Y830580D02*
X2379420D01*
X2710000Y500000D01*
X4488500D01*
X4572000Y416500D01*
Y254000D01*
G54D18*
G01X5935000Y3565000D02*
Y3710000D01*
X6917000Y4692000D01*
X7205000D01*
G01X6350000Y1395000D02*
X6458000D01*
X6509500Y1343500D01*
X6927410D01*
X6959910Y1376000D01*
X7205000D01*
G01X6215000Y1305000D02*
X6284500Y1235500D01*
X7454500D01*
X7595000Y1376000D01*
G01X6195000Y3565000D02*
Y3755000D01*
X6995000Y4555000D01*
X7270010D01*
X7407010Y4692000D01*
X7595000D01*
G01X7205000Y3034000D02*
X7128630Y2957630D01*
X7074460D01*
X6835000Y2718170D01*
Y2465000D01*
X6582000Y2212000D01*
X6430000D01*
G01X7509000Y3085000D02*
X7432630Y3008630D01*
X7383640D01*
X7165000Y2789990D01*
Y2610000D01*
X6635000Y2080000D01*
X6390000D01*
X1815000Y580000D03*
Y1070000D03*
X2285000Y580000D03*
Y1070000D03*
X5950470Y2037000D03*
X5825000Y3185000D03*
X5935000Y3565000D03*
X5964200Y1340520D03*
X6350000Y1395000D03*
X6215000Y1305000D03*
X6177490Y1650630D03*
X6140000Y2235000D03*
X6075000Y3285000D03*
X6195000Y3565000D03*
X6430000Y2212000D03*
X6390000Y2080000D03*
X7205000Y1376000D03*
Y3034000D03*
X7509000Y3085000D03*
X7205000Y4692000D03*
X7595000Y642000D03*
Y1376000D03*
Y2300000D03*
Y3958000D03*
Y4692000D03*
G54D19*
X1879600Y5080000D03*
X2133600D03*
X2387600D03*
X2641600D03*
X3048000Y254000D03*
X2895600Y5080000D03*
X3149600D03*
X3556000Y254000D03*
X3302000D03*
X3403600Y5080000D03*
X3810000Y254000D03*
X3657600Y5080000D03*
X3911600D03*
X4318000Y254000D03*
X4064000D03*
X4572000D03*
Y5080000D03*
X4826000D03*
X5080000D03*
X5588000Y254000D03*
X5334000D03*
Y5080000D03*
X5588000D03*
X5842000Y254000D03*
Y5080000D03*
X6350000Y254000D03*
X6096000D03*
X6364000Y2535000D03*
Y2789000D03*
X6096000Y5080000D03*
X6618000Y2535000D03*
Y3043000D03*
Y2789000D03*
M02*
