G04 ================== begin FILE IDENTIFICATION RECORD ==================*
G04 Layout Name:  Netduino3_16Dec16_0800.brd*
G04 Film Name:    NC_DRL_1-4*
G04 File Format:  Gerber RS274X*
G04 File Origin:  Cadence Allegro 16.6-2015-S069*
G04 Origin Date:  Fri Dec 16 09:48:39 2016*
G04 *
G04 Layer:  MANUFACTURING/NCLEGEND-1-4*
G04 *
G04 Offset:    (0.0000 0.0000)*
G04 Mirror:    No*
G04 Mode:      Positive*
G04 Rotation:  0*
G04 FullContactRelief:  No*
G04 UndefLineWidth:     0.1270*
G04 ================== end FILE IDENTIFICATION RECORD ====================*
%FSLAX25Y25*MOMM*%
%IR0*IPPOS*OFA0.00000B0.00000*MIA0B0*SFA1.00000B1.00000*%
%AMMACRO18*
1,1,.127,.5,0.0*
20,1,.127,.5,0.0,-.5,0.0,0.0*
1,1,.127,-.5,0.0*
1,1,.127,0.0,.5*
20,1,.127,0.0,.5,0.0,-.5,0.0*
1,1,.127,0.0,-.5*
1,1,.127,.4333,.4583*
20,1,.127,.4333,.4583,.3833,.4833,0.0*
1,1,.127,.3833,.4833*
20,1,.127,.3833,.4833,.325,.5,0.0*
1,1,.127,.325,.5*
20,1,.127,.325,.5,.2583,.5,0.0*
1,1,.127,.2583,.5*
20,1,.127,.2583,.5,.1833,.475,0.0*
1,1,.127,.1833,.475*
20,1,.127,.1833,.475,.125,.4333,0.0*
1,1,.127,.125,.4333*
20,1,.127,.125,.4333,.0833,.3833,0.0*
1,1,.127,.0833,.3833*
20,1,.127,.0833,.3833,.05,.3,0.0*
1,1,.127,.05,.3*
20,1,.127,.05,.3,.0417,.225,0.0*
1,1,.127,.0417,.225*
20,1,.127,.0417,.225,.0583,.15,0.0*
1,1,.127,.0583,.15*
20,1,.127,.0583,.15,.0833,.1,0.0*
1,1,.127,.0833,.1*
20,1,.127,.0833,.1,.1333,.05,0.0*
1,1,.127,.1333,.05*
20,1,.127,.1333,.05,.1917,.0167,0.0*
1,1,.127,.1917,.0167*
20,1,.127,.1917,.0167,.25,0.0,0.0*
1,1,.127,.25,0.0*
20,1,.127,.25,0.0,.3083,0.0,0.0*
1,1,.127,.3083,0.0*
20,1,.127,.3083,0.0,.3667,.0167,0.0*
1,1,.127,.3667,.0167*
20,1,.127,.3667,.0167,.4167,.0417,0.0*
1,1,.127,.4167,.0417*
20,1,.127,.4167,.0417,.4583,.075,0.0*
1,1,.127,.4583,.075*
%
%ADD18MACRO18*%
%AMMACRO19*
1,1,.127,.5,0.0*
20,1,.127,.5,0.0,-.5,0.0,0.0*
1,1,.127,-.5,0.0*
1,1,.127,0.0,.5*
20,1,.127,0.0,.5,0.0,-.5,0.0*
1,1,.127,0.0,-.5*
1,1,.127,.0667,0.0*
20,1,.127,.0667,0.0,.0667,.5,0.0*
1,1,.127,.0667,.5*
20,1,.127,.0667,.5,.2333,.5,0.0*
1,1,.127,.2333,.5*
20,1,.127,.2333,.5,.3,.475,0.0*
1,1,.127,.3,.475*
20,1,.127,.3,.475,.35,.4417,0.0*
1,1,.127,.35,.4417*
20,1,.127,.35,.4417,.3917,.3917,0.0*
1,1,.127,.3917,.3917*
20,1,.127,.3917,.3917,.425,.3333,0.0*
1,1,.127,.425,.3333*
20,1,.127,.425,.3333,.4333,.25,0.0*
1,1,.127,.4333,.25*
20,1,.127,.4333,.25,.425,.1667,0.0*
1,1,.127,.425,.1667*
20,1,.127,.425,.1667,.3917,.1083,0.0*
1,1,.127,.3917,.1083*
20,1,.127,.3917,.1083,.35,.0583,0.0*
1,1,.127,.35,.0583*
20,1,.127,.35,.0583,.3,.025,0.0*
1,1,.127,.3,.025*
20,1,.127,.3,.025,.2333,0.0,0.0*
1,1,.127,.2333,0.0*
20,1,.127,.2333,0.0,.0667,0.0,0.0*
1,1,.127,.0667,0.0*
%
%ADD19MACRO19*%
%AMMACRO20*
1,1,.127,.5,0.0*
20,1,.127,.5,0.0,-.5,0.0,0.0*
1,1,.127,-.5,0.0*
1,1,.127,0.0,.5*
20,1,.127,0.0,.5,0.0,-.5,0.0*
1,1,.127,0.0,-.5*
1,1,.127,.4167,0.0*
20,1,.127,.4167,0.0,.0833,0.0,0.0*
1,1,.127,.0833,0.0*
20,1,.127,.0833,0.0,.0833,.5,0.0*
1,1,.127,.0833,.5*
20,1,.127,.0833,.5,.4167,.5,0.0*
1,1,.127,.4167,.5*
1,1,.127,.2833,.2583*
20,1,.127,.2833,.2583,.0833,.2583,0.0*
1,1,.127,.0833,.2583*
%
%ADD20MACRO20*%
%AMMACRO17*
1,1,.127,1.,0.0*
20,1,.127,1.,0.0,-1.,0.0,0.0*
1,1,.127,-1.,0.0*
1,1,.127,0.0,1.*
20,1,.127,0.0,1.,0.0,-1.,0.0*
1,1,.127,0.0,-1.*
1,1,.127,.6,.5*
20,1,.127,.6,.5,.9333,.5,0.0*
1,1,.127,.9333,.5*
20,1,.127,.9333,.5,.9333,.2,0.0*
1,1,.127,.9333,.2*
20,1,.127,.9333,.2,.8333,.1,0.0*
1,1,.127,.8333,.1*
20,1,.127,.8333,.1,.7167,.0333,0.0*
1,1,.127,.7167,.0333*
20,1,.127,.7167,.0333,.55,0.0,0.0*
1,1,.127,.55,0.0*
20,1,.127,.55,0.0,.3833,.0333,0.0*
1,1,.127,.3833,.0333*
20,1,.127,.3833,.0333,.2667,.1,0.0*
1,1,.127,.2667,.1*
20,1,.127,.2667,.1,.1667,.2,0.0*
1,1,.127,.1667,.2*
20,1,.127,.1667,.2,.1,.3167,0.0*
1,1,.127,.1,.3167*
20,1,.127,.1,.3167,.0667,.45,0.0*
1,1,.127,.0667,.45*
20,1,.127,.0667,.45,.0667,.5667,0.0*
1,1,.127,.0667,.5667*
20,1,.127,.0667,.5667,.1,.6666,0.0*
1,1,.127,.1,.6666*
20,1,.127,.1,.6666,.1667,.7833,0.0*
1,1,.127,.1667,.7833*
20,1,.127,.1667,.7833,.2667,.8833,0.0*
1,1,.127,.2667,.8833*
20,1,.127,.2667,.8833,.3666,.95,0.0*
1,1,.127,.3666,.95*
20,1,.127,.3666,.95,.5,1.,0.0*
1,1,.127,.5,1.*
20,1,.127,.5,1.,.6167,1.,0.0*
1,1,.127,.6167,1.*
20,1,.127,.6167,1.,.75,.9667,0.0*
1,1,.127,.75,.9667*
20,1,.127,.75,.9667,.85,.9,0.0*
1,1,.127,.85,.9*
%
%ADD17MACRO17*%
%AMMACRO14*
1,1,.127,-.375,-.125*
20,1,.127,-.375,-.125,-.375,.125,0.0*
1,1,.127,-.375,.125*
20,1,.127,-.375,.125,-.369303,.190118,0.0*
1,1,.127,-.369303,.190118*
20,1,.127,-.369303,.190118,-.352385,.253258,0.0*
1,1,.127,-.352385,.253258*
20,1,.127,-.352385,.253258,-.32476,.3125,0.0*
1,1,.127,-.32476,.3125*
20,1,.127,-.32476,.3125,-.287267,.366045,0.0*
1,1,.127,-.287267,.366045*
20,1,.127,-.287267,.366045,-.241045,.412267,0.0*
1,1,.127,-.241045,.412267*
20,1,.127,-.241045,.412267,-.1875,.44976,0.0*
1,1,.127,-.1875,.44976*
20,1,.127,-.1875,.44976,-.128258,.477385,0.0*
1,1,.127,-.128258,.477385*
20,1,.127,-.128258,.477385,-.065118,.494303,0.0*
1,1,.127,-.065118,.494303*
20,1,.127,-.065118,.494303,0.0,.5,0.0*
1,1,.127,0.0,.5*
20,1,.127,0.0,.5,.065118,.494303,0.0*
1,1,.127,.065118,.494303*
20,1,.127,.065118,.494303,.128258,.477385,0.0*
1,1,.127,.128258,.477385*
20,1,.127,.128258,.477385,.1875,.44976,0.0*
1,1,.127,.1875,.44976*
20,1,.127,.1875,.44976,.241045,.412267,0.0*
1,1,.127,.241045,.412267*
20,1,.127,.241045,.412267,.287267,.366045,0.0*
1,1,.127,.287267,.366045*
20,1,.127,.287267,.366045,.32476,.3125,0.0*
1,1,.127,.32476,.3125*
20,1,.127,.32476,.3125,.352385,.253258,0.0*
1,1,.127,.352385,.253258*
20,1,.127,.352385,.253258,.369303,.190118,0.0*
1,1,.127,.369303,.190118*
20,1,.127,.369303,.190118,.375,.125,0.0*
1,1,.127,.375,.125*
20,1,.127,.375,.125,.375,-.125,0.0*
1,1,.127,.375,-.125*
20,1,.127,.375,-.125,.369303,-.190118,0.0*
1,1,.127,.369303,-.190118*
20,1,.127,.369303,-.190118,.352385,-.253258,0.0*
1,1,.127,.352385,-.253258*
20,1,.127,.352385,-.253258,.32476,-.3125,0.0*
1,1,.127,.32476,-.3125*
20,1,.127,.32476,-.3125,.287267,-.366045,0.0*
1,1,.127,.287267,-.366045*
20,1,.127,.287267,-.366045,.241045,-.412267,0.0*
1,1,.127,.241045,-.412267*
20,1,.127,.241045,-.412267,.1875,-.44976,0.0*
1,1,.127,.1875,-.44976*
20,1,.127,.1875,-.44976,.128258,-.477385,0.0*
1,1,.127,.128258,-.477385*
20,1,.127,.128258,-.477385,.065118,-.494303,0.0*
1,1,.127,.065118,-.494303*
20,1,.127,.065118,-.494303,0.0,-.5,0.0*
1,1,.127,0.0,-.5*
20,1,.127,0.0,-.5,-.065118,-.494303,0.0*
1,1,.127,-.065118,-.494303*
20,1,.127,-.065118,-.494303,-.128258,-.477385,0.0*
1,1,.127,-.128258,-.477385*
20,1,.127,-.128258,-.477385,-.1875,-.44976,0.0*
1,1,.127,-.1875,-.44976*
20,1,.127,-.1875,-.44976,-.241045,-.412267,0.0*
1,1,.127,-.241045,-.412267*
20,1,.127,-.241045,-.412267,-.287267,-.366045,0.0*
1,1,.127,-.287267,-.366045*
20,1,.127,-.287267,-.366045,-.32476,-.3125,0.0*
1,1,.127,-.32476,-.3125*
20,1,.127,-.32476,-.3125,-.352385,-.253258,0.0*
1,1,.127,-.352385,-.253258*
20,1,.127,-.352385,-.253258,-.369303,-.190118,0.0*
1,1,.127,-.369303,-.190118*
20,1,.127,-.369303,-.190118,-.375,-.125,0.0*
1,1,.127,-.375,-.125*
1,1,.127,-.1313,-.1875*
20,1,.127,-.1313,-.1875,-.1313,.1875,0.0*
1,1,.127,-.1313,.1875*
1,1,.127,.1313,.1875*
20,1,.127,.1313,.1875,.1313,-.1875,0.0*
1,1,.127,.1313,-.1875*
1,1,.127,.1313,0.0*
20,1,.127,.1313,0.0,-.1313,0.0,0.0*
1,1,.127,-.1313,0.0*
%
%ADD14MACRO14*%
%AMMACRO13*
1,1,.127,-.4,-1.1*
20,1,.127,-.4,-1.1,-.4,1.1,0.0*
1,1,.127,-.4,1.1*
20,1,.127,-.4,1.1,-.393923,1.169459,0.0*
1,1,.127,-.393923,1.169459*
20,1,.127,-.393923,1.169459,-.375877,1.236808,0.0*
1,1,.127,-.375877,1.236808*
20,1,.127,-.375877,1.236808,-.34641,1.3,0.0*
1,1,.127,-.34641,1.3*
20,1,.127,-.34641,1.3,-.306418,1.357115,0.0*
1,1,.127,-.306418,1.357115*
20,1,.127,-.306418,1.357115,-.257115,1.406418,0.0*
1,1,.127,-.257115,1.406418*
20,1,.127,-.257115,1.406418,-.2,1.44641,0.0*
1,1,.127,-.2,1.44641*
20,1,.127,-.2,1.44641,-.136808,1.475877,0.0*
1,1,.127,-.136808,1.475877*
20,1,.127,-.136808,1.475877,-.069459,1.493923,0.0*
1,1,.127,-.069459,1.493923*
20,1,.127,-.069459,1.493923,0.0,1.5,0.0*
1,1,.127,0.0,1.5*
20,1,.127,0.0,1.5,.069459,1.493923,0.0*
1,1,.127,.069459,1.493923*
20,1,.127,.069459,1.493923,.136808,1.475877,0.0*
1,1,.127,.136808,1.475877*
20,1,.127,.136808,1.475877,.2,1.44641,0.0*
1,1,.127,.2,1.44641*
20,1,.127,.2,1.44641,.257115,1.406418,0.0*
1,1,.127,.257115,1.406418*
20,1,.127,.257115,1.406418,.306418,1.357115,0.0*
1,1,.127,.306418,1.357115*
20,1,.127,.306418,1.357115,.34641,1.3,0.0*
1,1,.127,.34641,1.3*
20,1,.127,.34641,1.3,.375877,1.236808,0.0*
1,1,.127,.375877,1.236808*
20,1,.127,.375877,1.236808,.393923,1.169459,0.0*
1,1,.127,.393923,1.169459*
20,1,.127,.393923,1.169459,.4,1.1,0.0*
1,1,.127,.4,1.1*
20,1,.127,.4,1.1,.4,-1.1,0.0*
1,1,.127,.4,-1.1*
20,1,.127,.4,-1.1,.393923,-1.169459,0.0*
1,1,.127,.393923,-1.169459*
20,1,.127,.393923,-1.169459,.375877,-1.236808,0.0*
1,1,.127,.375877,-1.236808*
20,1,.127,.375877,-1.236808,.34641,-1.3,0.0*
1,1,.127,.34641,-1.3*
20,1,.127,.34641,-1.3,.306418,-1.357115,0.0*
1,1,.127,.306418,-1.357115*
20,1,.127,.306418,-1.357115,.257115,-1.406418,0.0*
1,1,.127,.257115,-1.406418*
20,1,.127,.257115,-1.406418,.2,-1.44641,0.0*
1,1,.127,.2,-1.44641*
20,1,.127,.2,-1.44641,.136808,-1.475877,0.0*
1,1,.127,.136808,-1.475877*
20,1,.127,.136808,-1.475877,.069459,-1.493923,0.0*
1,1,.127,.069459,-1.493923*
20,1,.127,.069459,-1.493923,0.0,-1.5,0.0*
1,1,.127,0.0,-1.5*
20,1,.127,0.0,-1.5,-.069459,-1.493923,0.0*
1,1,.127,-.069459,-1.493923*
20,1,.127,-.069459,-1.493923,-.136808,-1.475877,0.0*
1,1,.127,-.136808,-1.475877*
20,1,.127,-.136808,-1.475877,-.2,-1.44641,0.0*
1,1,.127,-.2,-1.44641*
20,1,.127,-.2,-1.44641,-.257115,-1.406418,0.0*
1,1,.127,-.257115,-1.406418*
20,1,.127,-.257115,-1.406418,-.306418,-1.357115,0.0*
1,1,.127,-.306418,-1.357115*
20,1,.127,-.306418,-1.357115,-.34641,-1.3,0.0*
1,1,.127,-.34641,-1.3*
20,1,.127,-.34641,-1.3,-.375877,-1.236808,0.0*
1,1,.127,-.375877,-1.236808*
20,1,.127,-.375877,-1.236808,-.393923,-1.169459,0.0*
1,1,.127,-.393923,-1.169459*
20,1,.127,-.393923,-1.169459,-.4,-1.1,0.0*
1,1,.127,-.4,-1.1*
1,1,.127,-.1467,-.2*
20,1,.127,-.1467,-.2,-.1467,.2,0.0*
1,1,.127,-.1467,.2*
1,1,.127,.1067,.2*
20,1,.127,.1067,.2,-.1467,-.0467,0.0*
1,1,.127,-.1467,-.0467*
1,1,.127,.1467,-.2*
20,1,.127,.1467,-.2,-.0333,.0667,0.0*
1,1,.127,-.0333,.0667*
%
%ADD13MACRO13*%
%AMMACRO15*
1,1,.127,-1.1,.4*
20,1,.127,-1.1,.4,1.1,.4,0.0*
1,1,.127,1.1,.4*
20,1,.127,1.1,.4,1.169459,.393923,0.0*
1,1,.127,1.169459,.393923*
20,1,.127,1.169459,.393923,1.236808,.375877,0.0*
1,1,.127,1.236808,.375877*
20,1,.127,1.236808,.375877,1.3,.34641,0.0*
1,1,.127,1.3,.34641*
20,1,.127,1.3,.34641,1.357115,.306418,0.0*
1,1,.127,1.357115,.306418*
20,1,.127,1.357115,.306418,1.406418,.257115,0.0*
1,1,.127,1.406418,.257115*
20,1,.127,1.406418,.257115,1.44641,.2,0.0*
1,1,.127,1.44641,.2*
20,1,.127,1.44641,.2,1.475877,.136808,0.0*
1,1,.127,1.475877,.136808*
20,1,.127,1.475877,.136808,1.493923,.069459,0.0*
1,1,.127,1.493923,.069459*
20,1,.127,1.493923,.069459,1.5,0.0,0.0*
1,1,.127,1.5,0.0*
20,1,.127,1.5,0.0,1.493923,-.069459,0.0*
1,1,.127,1.493923,-.069459*
20,1,.127,1.493923,-.069459,1.475877,-.136808,0.0*
1,1,.127,1.475877,-.136808*
20,1,.127,1.475877,-.136808,1.44641,-.2,0.0*
1,1,.127,1.44641,-.2*
20,1,.127,1.44641,-.2,1.406418,-.257115,0.0*
1,1,.127,1.406418,-.257115*
20,1,.127,1.406418,-.257115,1.357115,-.306418,0.0*
1,1,.127,1.357115,-.306418*
20,1,.127,1.357115,-.306418,1.3,-.34641,0.0*
1,1,.127,1.3,-.34641*
20,1,.127,1.3,-.34641,1.236808,-.375877,0.0*
1,1,.127,1.236808,-.375877*
20,1,.127,1.236808,-.375877,1.169459,-.393923,0.0*
1,1,.127,1.169459,-.393923*
20,1,.127,1.169459,-.393923,1.1,-.4,0.0*
1,1,.127,1.1,-.4*
20,1,.127,1.1,-.4,-1.1,-.4,0.0*
1,1,.127,-1.1,-.4*
20,1,.127,-1.1,-.4,-1.169459,-.393923,0.0*
1,1,.127,-1.169459,-.393923*
20,1,.127,-1.169459,-.393923,-1.236808,-.375877,0.0*
1,1,.127,-1.236808,-.375877*
20,1,.127,-1.236808,-.375877,-1.3,-.34641,0.0*
1,1,.127,-1.3,-.34641*
20,1,.127,-1.3,-.34641,-1.357115,-.306418,0.0*
1,1,.127,-1.357115,-.306418*
20,1,.127,-1.357115,-.306418,-1.406418,-.257115,0.0*
1,1,.127,-1.406418,-.257115*
20,1,.127,-1.406418,-.257115,-1.44641,-.2,0.0*
1,1,.127,-1.44641,-.2*
20,1,.127,-1.44641,-.2,-1.475877,-.136808,0.0*
1,1,.127,-1.475877,-.136808*
20,1,.127,-1.475877,-.136808,-1.493923,-.069459,0.0*
1,1,.127,-1.493923,-.069459*
20,1,.127,-1.493923,-.069459,-1.5,0.0,0.0*
1,1,.127,-1.5,0.0*
20,1,.127,-1.5,0.0,-1.493923,.069459,0.0*
1,1,.127,-1.493923,.069459*
20,1,.127,-1.493923,.069459,-1.475877,.136808,0.0*
1,1,.127,-1.475877,.136808*
20,1,.127,-1.475877,.136808,-1.44641,.2,0.0*
1,1,.127,-1.44641,.2*
20,1,.127,-1.44641,.2,-1.406418,.257115,0.0*
1,1,.127,-1.406418,.257115*
20,1,.127,-1.406418,.257115,-1.357115,.306418,0.0*
1,1,.127,-1.357115,.306418*
20,1,.127,-1.357115,.306418,-1.3,.34641,0.0*
1,1,.127,-1.3,.34641*
20,1,.127,-1.3,.34641,-1.236808,.375877,0.0*
1,1,.127,-1.236808,.375877*
20,1,.127,-1.236808,.375877,-1.169459,.393923,0.0*
1,1,.127,-1.169459,.393923*
20,1,.127,-1.169459,.393923,-1.1,.4,0.0*
1,1,.127,-1.1,.4*
1,1,.127,-.1467,-.2*
20,1,.127,-.1467,-.2,-.1467,.2,0.0*
1,1,.127,-.1467,.2*
1,1,.127,.1067,.2*
20,1,.127,.1067,.2,-.1467,-.0467,0.0*
1,1,.127,-.1467,-.0467*
1,1,.127,.1467,-.2*
20,1,.127,.1467,-.2,-.0333,.0667,0.0*
1,1,.127,-.0333,.0667*
%
%ADD15MACRO15*%
%AMMACRO12*
1,1,.127,.125,0.0*
20,1,.127,.125,0.0,-.125,0.0,0.0*
1,1,.127,-.125,0.0*
1,1,.127,0.0,.125*
20,1,.127,0.0,.125,0.0,-.125,0.0*
1,1,.127,0.0,-.125*
1,1,.127,.0104,0.0*
20,1,.127,.0104,0.0,.0625,.125,0.0*
1,1,.127,.0625,.125*
20,1,.127,.0625,.125,.1146,0.0,0.0*
1,1,.127,.1146,0.0*
1,1,.127,.0958,.0437*
20,1,.127,.0958,.0437,.0292,.0437,0.0*
1,1,.127,.0292,.0437*
%
%ADD12MACRO12*%
%AMMACRO11*
1,1,.127,.1651,0.0*
20,1,.127,.1651,0.0,-.1651,0.0,0.0*
1,1,.127,-.1651,0.0*
1,1,.127,0.0,.1651*
20,1,.127,0.0,.1651,0.0,-.1651,0.0*
1,1,.127,0.0,-.1651*
1,1,.127,.1046,.0881*
20,1,.127,.1046,.0881,.1156,.0963,0.0*
1,1,.127,.1156,.0963*
20,1,.127,.1156,.0963,.1238,.1101,0.0*
1,1,.127,.1238,.1101*
20,1,.127,.1238,.1101,.1293,.1293,0.0*
1,1,.127,.1293,.1293*
20,1,.127,.1293,.1293,.1238,.1458,0.0*
1,1,.127,.1238,.1458*
20,1,.127,.1238,.1458,.1128,.1568,0.0*
1,1,.127,.1128,.1568*
20,1,.127,.1128,.1568,.0936,.1651,0.0*
1,1,.127,.0936,.1651*
20,1,.127,.0936,.1651,.0193,.1651,0.0*
1,1,.127,.0193,.1651*
20,1,.127,.0193,.1651,.0193,0.0,0.0*
1,1,.127,.0193,0.0*
20,1,.127,.0193,0.0,.1101,0.0,0.0*
1,1,.127,.1101,0.0*
20,1,.127,.1101,0.0,.1293,.011,0.0*
1,1,.127,.1293,.011*
20,1,.127,.1293,.011,.1403,.0275,0.0*
1,1,.127,.1403,.0275*
20,1,.127,.1403,.0275,.1458,.0468,0.0*
1,1,.127,.1458,.0468*
20,1,.127,.1458,.0468,.1403,.066,0.0*
1,1,.127,.1403,.066*
20,1,.127,.1403,.066,.1238,.0825,0.0*
1,1,.127,.1238,.0825*
20,1,.127,.1238,.0825,.1046,.0881,0.0*
1,1,.127,.1046,.0881*
20,1,.127,.1046,.0881,.0193,.0881,0.0*
1,1,.127,.0193,.0881*
%
%ADD11MACRO11*%
%AMMACRO10*
1,1,.127,-.275,.375*
20,1,.127,-.275,.375,.275,.375,0.0*
1,1,.127,.275,.375*
20,1,.127,.275,.375,.340118,.369303,0.0*
1,1,.127,.340118,.369303*
20,1,.127,.340118,.369303,.403258,.352385,0.0*
1,1,.127,.403258,.352385*
20,1,.127,.403258,.352385,.4625,.32476,0.0*
1,1,.127,.4625,.32476*
20,1,.127,.4625,.32476,.516045,.287267,0.0*
1,1,.127,.516045,.287267*
20,1,.127,.516045,.287267,.562267,.241045,0.0*
1,1,.127,.562267,.241045*
20,1,.127,.562267,.241045,.59976,.1875,0.0*
1,1,.127,.59976,.1875*
20,1,.127,.59976,.1875,.627385,.128258,0.0*
1,1,.127,.627385,.128258*
20,1,.127,.627385,.128258,.644303,.065118,0.0*
1,1,.127,.644303,.065118*
20,1,.127,.644303,.065118,.65,0.0,0.0*
1,1,.127,.65,0.0*
20,1,.127,.65,0.0,.644303,-.065118,0.0*
1,1,.127,.644303,-.065118*
20,1,.127,.644303,-.065118,.627385,-.128258,0.0*
1,1,.127,.627385,-.128258*
20,1,.127,.627385,-.128258,.59976,-.1875,0.0*
1,1,.127,.59976,-.1875*
20,1,.127,.59976,-.1875,.562267,-.241045,0.0*
1,1,.127,.562267,-.241045*
20,1,.127,.562267,-.241045,.516045,-.287267,0.0*
1,1,.127,.516045,-.287267*
20,1,.127,.516045,-.287267,.4625,-.32476,0.0*
1,1,.127,.4625,-.32476*
20,1,.127,.4625,-.32476,.403258,-.352385,0.0*
1,1,.127,.403258,-.352385*
20,1,.127,.403258,-.352385,.340118,-.369303,0.0*
1,1,.127,.340118,-.369303*
20,1,.127,.340118,-.369303,.275,-.375,0.0*
1,1,.127,.275,-.375*
20,1,.127,.275,-.375,-.275,-.375,0.0*
1,1,.127,-.275,-.375*
20,1,.127,-.275,-.375,-.340118,-.369303,0.0*
1,1,.127,-.340118,-.369303*
20,1,.127,-.340118,-.369303,-.403258,-.352385,0.0*
1,1,.127,-.403258,-.352385*
20,1,.127,-.403258,-.352385,-.4625,-.32476,0.0*
1,1,.127,-.4625,-.32476*
20,1,.127,-.4625,-.32476,-.516045,-.287267,0.0*
1,1,.127,-.516045,-.287267*
20,1,.127,-.516045,-.287267,-.562267,-.241045,0.0*
1,1,.127,-.562267,-.241045*
20,1,.127,-.562267,-.241045,-.59976,-.1875,0.0*
1,1,.127,-.59976,-.1875*
20,1,.127,-.59976,-.1875,-.627385,-.128258,0.0*
1,1,.127,-.627385,-.128258*
20,1,.127,-.627385,-.128258,-.644303,-.065118,0.0*
1,1,.127,-.644303,-.065118*
20,1,.127,-.644303,-.065118,-.65,0.0,0.0*
1,1,.127,-.65,0.0*
20,1,.127,-.65,0.0,-.644303,.065118,0.0*
1,1,.127,-.644303,.065118*
20,1,.127,-.644303,.065118,-.627385,.128258,0.0*
1,1,.127,-.627385,.128258*
20,1,.127,-.627385,.128258,-.59976,.1875,0.0*
1,1,.127,-.59976,.1875*
20,1,.127,-.59976,.1875,-.562267,.241045,0.0*
1,1,.127,-.562267,.241045*
20,1,.127,-.562267,.241045,-.516045,.287267,0.0*
1,1,.127,-.516045,.287267*
20,1,.127,-.516045,.287267,-.4625,.32476,0.0*
1,1,.127,-.4625,.32476*
20,1,.127,-.4625,.32476,-.403258,.352385,0.0*
1,1,.127,-.403258,.352385*
20,1,.127,-.403258,.352385,-.340118,.369303,0.0*
1,1,.127,-.340118,.369303*
20,1,.127,-.340118,.369303,-.275,.375,0.0*
1,1,.127,-.275,.375*
1,1,.127,-.125,-.1125*
20,1,.127,-.125,-.1125,-.0937,-.15,0.0*
1,1,.127,-.0937,-.15*
20,1,.127,-.0937,-.15,-.0563,-.175,0.0*
1,1,.127,-.0563,-.175*
20,1,.127,-.0563,-.175,-.0125,-.1875,0.0*
1,1,.127,-.0125,-.1875*
20,1,.127,-.0125,-.1875,.0375,-.175,0.0*
1,1,.127,.0375,-.175*
20,1,.127,.0375,-.175,.075,-.15,0.0*
1,1,.127,.075,-.15*
20,1,.127,.075,-.15,.1125,-.1125,0.0*
1,1,.127,.1125,-.1125*
20,1,.127,.1125,-.1125,.125,-.0625,0.0*
1,1,.127,.125,-.0625*
20,1,.127,.125,-.0625,.125,.1875,0.0*
1,1,.127,.125,.1875*
%
%ADD10MACRO10*%
%AMMACRO16*
1,1,.127,-.4,-1.35*
20,1,.127,-.4,-1.35,-.4,1.35,0.0*
1,1,.127,-.4,1.35*
20,1,.127,-.4,1.35,-.393923,1.419459,0.0*
1,1,.127,-.393923,1.419459*
20,1,.127,-.393923,1.419459,-.375877,1.486808,0.0*
1,1,.127,-.375877,1.486808*
20,1,.127,-.375877,1.486808,-.34641,1.55,0.0*
1,1,.127,-.34641,1.55*
20,1,.127,-.34641,1.55,-.306418,1.607115,0.0*
1,1,.127,-.306418,1.607115*
20,1,.127,-.306418,1.607115,-.257115,1.656418,0.0*
1,1,.127,-.257115,1.656418*
20,1,.127,-.257115,1.656418,-.2,1.69641,0.0*
1,1,.127,-.2,1.69641*
20,1,.127,-.2,1.69641,-.136808,1.725877,0.0*
1,1,.127,-.136808,1.725877*
20,1,.127,-.136808,1.725877,-.069459,1.743923,0.0*
1,1,.127,-.069459,1.743923*
20,1,.127,-.069459,1.743923,0.0,1.75,0.0*
1,1,.127,0.0,1.75*
20,1,.127,0.0,1.75,.069459,1.743923,0.0*
1,1,.127,.069459,1.743923*
20,1,.127,.069459,1.743923,.136808,1.725877,0.0*
1,1,.127,.136808,1.725877*
20,1,.127,.136808,1.725877,.2,1.69641,0.0*
1,1,.127,.2,1.69641*
20,1,.127,.2,1.69641,.257115,1.656418,0.0*
1,1,.127,.257115,1.656418*
20,1,.127,.257115,1.656418,.306418,1.607115,0.0*
1,1,.127,.306418,1.607115*
20,1,.127,.306418,1.607115,.34641,1.55,0.0*
1,1,.127,.34641,1.55*
20,1,.127,.34641,1.55,.375877,1.486808,0.0*
1,1,.127,.375877,1.486808*
20,1,.127,.375877,1.486808,.393923,1.419459,0.0*
1,1,.127,.393923,1.419459*
20,1,.127,.393923,1.419459,.4,1.35,0.0*
1,1,.127,.4,1.35*
20,1,.127,.4,1.35,.4,-1.35,0.0*
1,1,.127,.4,-1.35*
20,1,.127,.4,-1.35,.393923,-1.419459,0.0*
1,1,.127,.393923,-1.419459*
20,1,.127,.393923,-1.419459,.375877,-1.486808,0.0*
1,1,.127,.375877,-1.486808*
20,1,.127,.375877,-1.486808,.34641,-1.55,0.0*
1,1,.127,.34641,-1.55*
20,1,.127,.34641,-1.55,.306418,-1.607115,0.0*
1,1,.127,.306418,-1.607115*
20,1,.127,.306418,-1.607115,.257115,-1.656418,0.0*
1,1,.127,.257115,-1.656418*
20,1,.127,.257115,-1.656418,.2,-1.69641,0.0*
1,1,.127,.2,-1.69641*
20,1,.127,.2,-1.69641,.136808,-1.725877,0.0*
1,1,.127,.136808,-1.725877*
20,1,.127,.136808,-1.725877,.069459,-1.743923,0.0*
1,1,.127,.069459,-1.743923*
20,1,.127,.069459,-1.743923,0.0,-1.75,0.0*
1,1,.127,0.0,-1.75*
20,1,.127,0.0,-1.75,-.069459,-1.743923,0.0*
1,1,.127,-.069459,-1.743923*
20,1,.127,-.069459,-1.743923,-.136808,-1.725877,0.0*
1,1,.127,-.136808,-1.725877*
20,1,.127,-.136808,-1.725877,-.2,-1.69641,0.0*
1,1,.127,-.2,-1.69641*
20,1,.127,-.2,-1.69641,-.257115,-1.656418,0.0*
1,1,.127,-.257115,-1.656418*
20,1,.127,-.257115,-1.656418,-.306418,-1.607115,0.0*
1,1,.127,-.306418,-1.607115*
20,1,.127,-.306418,-1.607115,-.34641,-1.55,0.0*
1,1,.127,-.34641,-1.55*
20,1,.127,-.34641,-1.55,-.375877,-1.486808,0.0*
1,1,.127,-.375877,-1.486808*
20,1,.127,-.375877,-1.486808,-.393923,-1.419459,0.0*
1,1,.127,-.393923,-1.419459*
20,1,.127,-.393923,-1.419459,-.4,-1.35,0.0*
1,1,.127,-.4,-1.35*
1,1,.127,-.1733,-.2*
20,1,.127,-.1733,-.2,-.1733,.2,0.0*
1,1,.127,-.1733,.2*
20,1,.127,-.1733,.2,0.0,-.1333,0.0*
1,1,.127,0.0,-.1333*
20,1,.127,0.0,-.1333,.1733,.2,0.0*
1,1,.127,.1733,.2*
20,1,.127,.1733,.2,.1733,-.2,0.0*
1,1,.127,.1733,-.2*
%
%ADD16MACRO16*%
%ADD21C,.18*%
%ADD22C,.127*%
G75*
%LPD*%
G75*
G54D10*
X125000Y2322000D03*
Y3012000D03*
X8285000Y257500D03*
G54D11*
X162020Y1905000D03*
X628200Y1875000D03*
Y1770000D03*
X517980Y1905000D03*
X575000Y2430000D03*
Y2335000D03*
Y2537000D03*
X525000Y3405000D03*
Y3520000D03*
Y4280000D03*
Y4480000D03*
Y4380000D03*
X1055000Y2875000D03*
X950000D03*
X1025000Y3550000D03*
X825000D03*
X925000D03*
X775000Y3650000D03*
X875000D03*
X775000Y3750000D03*
X875000D03*
X775000Y3850000D03*
X875000D03*
X775000Y3950000D03*
X875000D03*
X775000Y4050000D03*
X875000D03*
X775000Y4150000D03*
X875000D03*
X800000Y4250000D03*
X900000D03*
X1000000D03*
X1150000Y2875000D03*
X1425000Y3550000D03*
X1325000D03*
X1225000D03*
X1125000D03*
X1100000Y4250000D03*
X1200000D03*
X1300000D03*
X1400000D03*
X1625000Y3550000D03*
Y3650000D03*
Y3750000D03*
Y3850000D03*
X1525000Y3550000D03*
X1885000Y4285000D03*
X1625000Y3950000D03*
Y4050000D03*
Y4150000D03*
X1525000Y4250000D03*
X1625000D03*
X2060000Y4285000D03*
X1970000D03*
X2640000Y3842500D03*
X2550000D03*
X2457500D03*
X2980000Y1020000D03*
X3105000D03*
X3556000Y1069000D03*
Y1196020D03*
X8285000Y3407500D03*
G54D20*
X6364000Y2535000D03*
Y2789000D03*
Y3043000D03*
X6618000Y2535000D03*
Y3043000D03*
Y2789000D03*
X8285000Y1832500D03*
G54D21*
G01X8009670Y4255000D02*
Y4375000D01*
X8060330D01*
G01X8041670Y4317000D02*
X8009670D01*
G01X8119000Y4375000D02*
X8151000D01*
G01X8135000D02*
Y4255000D01*
G01X8119000D02*
X8151000D01*
G01X8243000Y4315000D02*
X8269670D01*
Y4279000D01*
X8261670Y4267000D01*
X8252330Y4259000D01*
X8239000Y4255000D01*
X8225670Y4259000D01*
X8216330Y4267000D01*
X8208330Y4279000D01*
X8203000Y4293000D01*
X8200330Y4309000D01*
Y4323000D01*
X8203000Y4335000D01*
X8208330Y4349000D01*
X8216330Y4361000D01*
X8224330Y4369000D01*
X8235000Y4375000D01*
X8244330D01*
X8255000Y4371000D01*
X8263000Y4363000D01*
G01X8305670Y4375000D02*
Y4289000D01*
X8311000Y4271000D01*
X8321670Y4259000D01*
X8335000Y4255000D01*
X8348330Y4259000D01*
X8359000Y4271000D01*
X8364330Y4289000D01*
Y4375000D01*
G01X8408330Y4255000D02*
Y4375000D01*
X8441670D01*
X8452330Y4369000D01*
X8459000Y4361000D01*
X8461670Y4345000D01*
X8459000Y4329000D01*
X8451000Y4319000D01*
X8441670Y4313000D01*
X8408330D01*
G01X8441670D02*
X8461670Y4255000D01*
G01X8561670D02*
X8508330D01*
Y4375000D01*
X8561670D01*
G01X8540330Y4317000D02*
X8508330D01*
G01X9075670Y-1353500D02*
X9083670Y-1367500D01*
X9094330Y-1375500D01*
X9106330Y-1377500D01*
X9117000Y-1375500D01*
X9127670Y-1365500D01*
X9134330Y-1353500D01*
X9135670Y-1341500D01*
X9133000Y-1327500D01*
X9123670Y-1317500D01*
X9114330Y-1313500D01*
X9102330D01*
G01X9114330D02*
X9122330Y-1307500D01*
X9129000Y-1297500D01*
X9131670Y-1285500D01*
X9129000Y-1273500D01*
X9122330Y-1263500D01*
X9110330Y-1257500D01*
X9098330Y-1259500D01*
X9086330Y-1267500D01*
G01X9205000Y-1381500D02*
X9202330Y-1379500D01*
Y-1375500D01*
X9205000Y-1373500D01*
X9207670Y-1375500D01*
Y-1379500D01*
X9205000Y-1381500D01*
G01X9275670Y-1359500D02*
X9283670Y-1369500D01*
X9293000Y-1375500D01*
X9305000Y-1377500D01*
X9317000Y-1373500D01*
X9326330Y-1365500D01*
X9333000Y-1351500D01*
X9334330Y-1335500D01*
X9331670Y-1319500D01*
X9325000Y-1309500D01*
X9315670Y-1301500D01*
X9306330Y-1299500D01*
X9297000Y-1301500D01*
X9285000Y-1309500D01*
X9289000Y-1257500D01*
X9325000D01*
G01X9385000Y-1297500D02*
X9425000Y-1377500D01*
G01Y-1297500D02*
X9385000Y-1377500D01*
G01X9505000Y-1257500D02*
X9494330Y-1261500D01*
X9486330Y-1271500D01*
X9481000Y-1283500D01*
X9477000Y-1299500D01*
X9475670Y-1317500D01*
X9477000Y-1335500D01*
X9481000Y-1351500D01*
X9486330Y-1363500D01*
X9494330Y-1373500D01*
X9505000Y-1377500D01*
X9515670Y-1373500D01*
X9523670Y-1363500D01*
X9529000Y-1351500D01*
X9533000Y-1335500D01*
X9534330Y-1317500D01*
X9533000Y-1299500D01*
X9529000Y-1283500D01*
X9523670Y-1271500D01*
X9515670Y-1261500D01*
X9505000Y-1257500D01*
G01X9605000Y-1381500D02*
X9602330Y-1379500D01*
Y-1375500D01*
X9605000Y-1373500D01*
X9607670Y-1375500D01*
Y-1379500D01*
X9605000Y-1381500D01*
G01X9705000Y-1377500D02*
X9714330Y-1375500D01*
X9725000Y-1369500D01*
X9731670Y-1359500D01*
X9734330Y-1345500D01*
X9731670Y-1331500D01*
X9723670Y-1319500D01*
X9711670Y-1313500D01*
X9698330D01*
X9690330Y-1309500D01*
X9683670Y-1299500D01*
X9681000Y-1285500D01*
X9685000Y-1271500D01*
X9694330Y-1261500D01*
X9705000Y-1257500D01*
X9715670Y-1261500D01*
X9725000Y-1271500D01*
X9729000Y-1285500D01*
X9726330Y-1299500D01*
X9719670Y-1309500D01*
X9711670Y-1313500D01*
X9698330D01*
X9686330Y-1319500D01*
X9678330Y-1331500D01*
X9675670Y-1345500D01*
X9678330Y-1359500D01*
X9685000Y-1369500D01*
X9695670Y-1375500D01*
X9705000Y-1377500D01*
G01X9075670Y-828500D02*
X9083670Y-842500D01*
X9094330Y-850500D01*
X9106330Y-852500D01*
X9117000Y-850500D01*
X9127670Y-840500D01*
X9134330Y-828500D01*
X9135670Y-816500D01*
X9133000Y-802500D01*
X9123670Y-792500D01*
X9114330Y-788500D01*
X9102330D01*
G01X9114330D02*
X9122330Y-782500D01*
X9129000Y-772500D01*
X9131670Y-760500D01*
X9129000Y-748500D01*
X9122330Y-738500D01*
X9110330Y-732500D01*
X9098330Y-734500D01*
X9086330Y-742500D01*
G01X9205000Y-856500D02*
X9202330Y-854500D01*
Y-850500D01*
X9205000Y-848500D01*
X9207670Y-850500D01*
Y-854500D01*
X9205000Y-856500D01*
G01X9305000Y-732500D02*
X9294330Y-736500D01*
X9286330Y-746500D01*
X9281000Y-758500D01*
X9277000Y-774500D01*
X9275670Y-792500D01*
X9277000Y-810500D01*
X9281000Y-826500D01*
X9286330Y-838500D01*
X9294330Y-848500D01*
X9305000Y-852500D01*
X9315670Y-848500D01*
X9323670Y-838500D01*
X9329000Y-826500D01*
X9333000Y-810500D01*
X9334330Y-792500D01*
X9333000Y-774500D01*
X9329000Y-758500D01*
X9323670Y-746500D01*
X9315670Y-736500D01*
X9305000Y-732500D01*
G01X9385000Y-772500D02*
X9425000Y-852500D01*
G01Y-772500D02*
X9385000Y-852500D01*
G01X9505000Y-732500D02*
X9494330Y-736500D01*
X9486330Y-746500D01*
X9481000Y-758500D01*
X9477000Y-774500D01*
X9475670Y-792500D01*
X9477000Y-810500D01*
X9481000Y-826500D01*
X9486330Y-838500D01*
X9494330Y-848500D01*
X9505000Y-852500D01*
X9515670Y-848500D01*
X9523670Y-838500D01*
X9529000Y-826500D01*
X9533000Y-810500D01*
X9534330Y-792500D01*
X9533000Y-774500D01*
X9529000Y-758500D01*
X9523670Y-746500D01*
X9515670Y-736500D01*
X9505000Y-732500D01*
G01X9605000Y-856500D02*
X9602330Y-854500D01*
Y-850500D01*
X9605000Y-848500D01*
X9607670Y-850500D01*
Y-854500D01*
X9605000Y-856500D01*
G01X9705000Y-852500D02*
X9714330Y-850500D01*
X9725000Y-844500D01*
X9731670Y-834500D01*
X9734330Y-820500D01*
X9731670Y-806500D01*
X9723670Y-794500D01*
X9711670Y-788500D01*
X9698330D01*
X9690330Y-784500D01*
X9683670Y-774500D01*
X9681000Y-760500D01*
X9685000Y-746500D01*
X9694330Y-736500D01*
X9705000Y-732500D01*
X9715670Y-736500D01*
X9725000Y-746500D01*
X9729000Y-760500D01*
X9726330Y-774500D01*
X9719670Y-784500D01*
X9711670Y-788500D01*
X9698330D01*
X9686330Y-794500D01*
X9678330Y-806500D01*
X9675670Y-820500D01*
X9678330Y-834500D01*
X9685000Y-844500D01*
X9695670Y-850500D01*
X9705000Y-852500D01*
G01X9075670Y-303500D02*
X9083670Y-317500D01*
X9094330Y-325500D01*
X9106330Y-327500D01*
X9117000Y-325500D01*
X9127670Y-315500D01*
X9134330Y-303500D01*
X9135670Y-291500D01*
X9133000Y-277500D01*
X9123670Y-267500D01*
X9114330Y-263500D01*
X9102330D01*
G01X9114330D02*
X9122330Y-257500D01*
X9129000Y-247500D01*
X9131670Y-235500D01*
X9129000Y-223500D01*
X9122330Y-213500D01*
X9110330Y-207500D01*
X9098330Y-209500D01*
X9086330Y-217500D01*
G01X9205000Y-331500D02*
X9202330Y-329500D01*
Y-325500D01*
X9205000Y-323500D01*
X9207670Y-325500D01*
Y-329500D01*
X9205000Y-331500D01*
G01X9305000Y-207500D02*
X9294330Y-211500D01*
X9286330Y-221500D01*
X9281000Y-233500D01*
X9277000Y-249500D01*
X9275670Y-267500D01*
X9277000Y-285500D01*
X9281000Y-301500D01*
X9286330Y-313500D01*
X9294330Y-323500D01*
X9305000Y-327500D01*
X9315670Y-323500D01*
X9323670Y-313500D01*
X9329000Y-301500D01*
X9333000Y-285500D01*
X9334330Y-267500D01*
X9333000Y-249500D01*
X9329000Y-233500D01*
X9323670Y-221500D01*
X9315670Y-211500D01*
X9305000Y-207500D01*
G01X9385000Y-247500D02*
X9425000Y-327500D01*
G01Y-247500D02*
X9385000Y-327500D01*
G01X9505000Y-207500D02*
X9494330Y-211500D01*
X9486330Y-221500D01*
X9481000Y-233500D01*
X9477000Y-249500D01*
X9475670Y-267500D01*
X9477000Y-285500D01*
X9481000Y-301500D01*
X9486330Y-313500D01*
X9494330Y-323500D01*
X9505000Y-327500D01*
X9515670Y-323500D01*
X9523670Y-313500D01*
X9529000Y-301500D01*
X9533000Y-285500D01*
X9534330Y-267500D01*
X9533000Y-249500D01*
X9529000Y-233500D01*
X9523670Y-221500D01*
X9515670Y-211500D01*
X9505000Y-207500D01*
G01X9605000Y-331500D02*
X9602330Y-329500D01*
Y-325500D01*
X9605000Y-323500D01*
X9607670Y-325500D01*
Y-329500D01*
X9605000Y-331500D01*
G01X9705000Y-327500D02*
X9714330Y-325500D01*
X9725000Y-319500D01*
X9731670Y-309500D01*
X9734330Y-295500D01*
X9731670Y-281500D01*
X9723670Y-269500D01*
X9711670Y-263500D01*
X9698330D01*
X9690330Y-259500D01*
X9683670Y-249500D01*
X9681000Y-235500D01*
X9685000Y-221500D01*
X9694330Y-211500D01*
X9705000Y-207500D01*
X9715670Y-211500D01*
X9725000Y-221500D01*
X9729000Y-235500D01*
X9726330Y-249500D01*
X9719670Y-259500D01*
X9711670Y-263500D01*
X9698330D01*
X9686330Y-269500D01*
X9678330Y-281500D01*
X9675670Y-295500D01*
X9678330Y-309500D01*
X9685000Y-319500D01*
X9695670Y-325500D01*
X9705000Y-327500D01*
G01X9055000Y197500D02*
Y317500D01*
X9039000Y293500D01*
G01Y197500D02*
X9071000D01*
G01X9155000Y193500D02*
X9152330Y195500D01*
Y199500D01*
X9155000Y201500D01*
X9157670Y199500D01*
Y195500D01*
X9155000Y193500D01*
G01X9225670Y221500D02*
X9233670Y207500D01*
X9244330Y199500D01*
X9256330Y197500D01*
X9267000Y199500D01*
X9277670Y209500D01*
X9284330Y221500D01*
X9285670Y233500D01*
X9283000Y247500D01*
X9273670Y257500D01*
X9264330Y261500D01*
X9252330D01*
G01X9264330D02*
X9272330Y267500D01*
X9279000Y277500D01*
X9281670Y289500D01*
X9279000Y301500D01*
X9272330Y311500D01*
X9260330Y317500D01*
X9248330Y315500D01*
X9236330Y307500D01*
G01X9335000Y277500D02*
X9375000Y197500D01*
G01Y277500D02*
X9335000Y197500D01*
G01X9455000Y317500D02*
X9444330Y313500D01*
X9436330Y303500D01*
X9431000Y291500D01*
X9427000Y275500D01*
X9425670Y257500D01*
X9427000Y239500D01*
X9431000Y223500D01*
X9436330Y211500D01*
X9444330Y201500D01*
X9455000Y197500D01*
X9465670Y201500D01*
X9473670Y211500D01*
X9479000Y223500D01*
X9483000Y239500D01*
X9484330Y257500D01*
X9483000Y275500D01*
X9479000Y291500D01*
X9473670Y303500D01*
X9465670Y313500D01*
X9455000Y317500D01*
G01X9555000Y193500D02*
X9552330Y195500D01*
Y199500D01*
X9555000Y201500D01*
X9557670Y199500D01*
Y195500D01*
X9555000Y193500D01*
G01X9652330Y197500D02*
X9655000Y223500D01*
X9659000Y245500D01*
X9664330Y265500D01*
X9671000Y287500D01*
X9681670Y317500D01*
X9628330D01*
G01X9725670Y215500D02*
X9733670Y205500D01*
X9743000Y199500D01*
X9755000Y197500D01*
X9767000Y201500D01*
X9776330Y209500D01*
X9783000Y223500D01*
X9784330Y239500D01*
X9781670Y255500D01*
X9775000Y265500D01*
X9765670Y273500D01*
X9756330Y275500D01*
X9747000Y273500D01*
X9735000Y265500D01*
X9739000Y317500D01*
X9775000D01*
G01X9055000Y722500D02*
Y842500D01*
X9039000Y818500D01*
G01Y722500D02*
X9071000D01*
G01X9155000Y718500D02*
X9152330Y720500D01*
Y724500D01*
X9155000Y726500D01*
X9157670Y724500D01*
Y720500D01*
X9155000Y718500D01*
G01X9255000Y842500D02*
X9244330Y838500D01*
X9236330Y828500D01*
X9231000Y816500D01*
X9227000Y800500D01*
X9225670Y782500D01*
X9227000Y764500D01*
X9231000Y748500D01*
X9236330Y736500D01*
X9244330Y726500D01*
X9255000Y722500D01*
X9265670Y726500D01*
X9273670Y736500D01*
X9279000Y748500D01*
X9283000Y764500D01*
X9284330Y782500D01*
X9283000Y800500D01*
X9279000Y816500D01*
X9273670Y828500D01*
X9265670Y838500D01*
X9255000Y842500D01*
G01X9335000Y802500D02*
X9375000Y722500D01*
G01Y802500D02*
X9335000Y722500D01*
G01X9455000Y842500D02*
X9444330Y838500D01*
X9436330Y828500D01*
X9431000Y816500D01*
X9427000Y800500D01*
X9425670Y782500D01*
X9427000Y764500D01*
X9431000Y748500D01*
X9436330Y736500D01*
X9444330Y726500D01*
X9455000Y722500D01*
X9465670Y726500D01*
X9473670Y736500D01*
X9479000Y748500D01*
X9483000Y764500D01*
X9484330Y782500D01*
X9483000Y800500D01*
X9479000Y816500D01*
X9473670Y828500D01*
X9465670Y838500D01*
X9455000Y842500D01*
G01X9555000Y718500D02*
X9552330Y720500D01*
Y724500D01*
X9555000Y726500D01*
X9557670Y724500D01*
Y720500D01*
X9555000Y718500D01*
G01X9652330Y722500D02*
X9655000Y748500D01*
X9659000Y770500D01*
X9664330Y790500D01*
X9671000Y812500D01*
X9681670Y842500D01*
X9628330D01*
G01X9725670Y740500D02*
X9733670Y730500D01*
X9743000Y724500D01*
X9755000Y722500D01*
X9767000Y726500D01*
X9776330Y734500D01*
X9783000Y748500D01*
X9784330Y764500D01*
X9781670Y780500D01*
X9775000Y790500D01*
X9765670Y798500D01*
X9756330Y800500D01*
X9747000Y798500D01*
X9735000Y790500D01*
X9739000Y842500D01*
X9775000D01*
G01X9155000Y3467500D02*
X9144330Y3463500D01*
X9136330Y3453500D01*
X9131000Y3441500D01*
X9127000Y3425500D01*
X9125670Y3407500D01*
X9127000Y3389500D01*
X9131000Y3373500D01*
X9136330Y3361500D01*
X9144330Y3351500D01*
X9155000Y3347500D01*
X9165670Y3351500D01*
X9173670Y3361500D01*
X9179000Y3373500D01*
X9183000Y3389500D01*
X9184330Y3407500D01*
X9183000Y3425500D01*
X9179000Y3441500D01*
X9173670Y3453500D01*
X9165670Y3463500D01*
X9155000Y3467500D01*
G01X9255000Y3343500D02*
X9252330Y3345500D01*
Y3349500D01*
X9255000Y3351500D01*
X9257670Y3349500D01*
Y3345500D01*
X9255000Y3343500D01*
G01X9325670Y3371500D02*
X9333670Y3357500D01*
X9344330Y3349500D01*
X9356330Y3347500D01*
X9367000Y3349500D01*
X9377670Y3359500D01*
X9384330Y3371500D01*
X9385670Y3383500D01*
X9383000Y3397500D01*
X9373670Y3407500D01*
X9364330Y3411500D01*
X9352330D01*
G01X9364330D02*
X9372330Y3417500D01*
X9379000Y3427500D01*
X9381670Y3439500D01*
X9379000Y3451500D01*
X9372330Y3461500D01*
X9360330Y3467500D01*
X9348330Y3465500D01*
X9336330Y3457500D01*
G01X9425670Y3371500D02*
X9433670Y3357500D01*
X9444330Y3349500D01*
X9456330Y3347500D01*
X9467000Y3349500D01*
X9477670Y3359500D01*
X9484330Y3371500D01*
X9485670Y3383500D01*
X9483000Y3397500D01*
X9473670Y3407500D01*
X9464330Y3411500D01*
X9452330D01*
G01X9464330D02*
X9472330Y3417500D01*
X9479000Y3427500D01*
X9481670Y3439500D01*
X9479000Y3451500D01*
X9472330Y3461500D01*
X9460330Y3467500D01*
X9448330Y3465500D01*
X9436330Y3457500D01*
G01X9555000Y3467500D02*
X9544330Y3463500D01*
X9536330Y3453500D01*
X9531000Y3441500D01*
X9527000Y3425500D01*
X9525670Y3407500D01*
X9527000Y3389500D01*
X9531000Y3373500D01*
X9536330Y3361500D01*
X9544330Y3351500D01*
X9555000Y3347500D01*
X9565670Y3351500D01*
X9573670Y3361500D01*
X9579000Y3373500D01*
X9583000Y3389500D01*
X9584330Y3407500D01*
X9583000Y3425500D01*
X9579000Y3441500D01*
X9573670Y3453500D01*
X9565670Y3463500D01*
X9555000Y3467500D01*
G01X9629670Y3447500D02*
X9637670Y3459500D01*
X9647000Y3465500D01*
X9657670Y3467500D01*
X9671000Y3463500D01*
X9680330Y3453500D01*
X9683000Y3441500D01*
X9681670Y3429500D01*
X9676330Y3419500D01*
X9649670Y3399500D01*
X9637670Y3385500D01*
X9629670Y3365500D01*
X9627000Y3347500D01*
X9683000D01*
G01X9275670Y1271500D02*
X9283670Y1257500D01*
X9294330Y1249500D01*
X9306330Y1247500D01*
X9317000Y1249500D01*
X9327670Y1259500D01*
X9334330Y1271500D01*
X9335670Y1283500D01*
X9333000Y1297500D01*
X9323670Y1307500D01*
X9314330Y1311500D01*
X9302330D01*
G01X9314330D02*
X9322330Y1317500D01*
X9329000Y1327500D01*
X9331670Y1339500D01*
X9329000Y1351500D01*
X9322330Y1361500D01*
X9310330Y1367500D01*
X9298330Y1365500D01*
X9286330Y1357500D01*
G01X9405000Y1243500D02*
X9402330Y1245500D01*
Y1249500D01*
X9405000Y1251500D01*
X9407670Y1249500D01*
Y1245500D01*
X9405000Y1243500D01*
G01X9479670Y1347500D02*
X9487670Y1359500D01*
X9497000Y1365500D01*
X9507670Y1367500D01*
X9521000Y1363500D01*
X9530330Y1353500D01*
X9533000Y1341500D01*
X9531670Y1329500D01*
X9526330Y1319500D01*
X9499670Y1299500D01*
X9487670Y1285500D01*
X9479670Y1265500D01*
X9477000Y1247500D01*
X9533000D01*
G01X9305000Y1772500D02*
Y1892500D01*
X9289000Y1868500D01*
G01Y1772500D02*
X9321000D01*
G01X9405000Y1768500D02*
X9402330Y1770500D01*
Y1774500D01*
X9405000Y1776500D01*
X9407670Y1774500D01*
Y1770500D01*
X9405000Y1768500D01*
G01X9505000Y1892500D02*
X9494330Y1888500D01*
X9486330Y1878500D01*
X9481000Y1866500D01*
X9477000Y1850500D01*
X9475670Y1832500D01*
X9477000Y1814500D01*
X9481000Y1798500D01*
X9486330Y1786500D01*
X9494330Y1776500D01*
X9505000Y1772500D01*
X9515670Y1776500D01*
X9523670Y1786500D01*
X9529000Y1798500D01*
X9533000Y1814500D01*
X9534330Y1832500D01*
X9533000Y1850500D01*
X9529000Y1866500D01*
X9523670Y1878500D01*
X9515670Y1888500D01*
X9505000Y1892500D01*
G01X9305000Y2417500D02*
X9294330Y2413500D01*
X9286330Y2403500D01*
X9281000Y2391500D01*
X9277000Y2375500D01*
X9275670Y2357500D01*
X9277000Y2339500D01*
X9281000Y2323500D01*
X9286330Y2311500D01*
X9294330Y2301500D01*
X9305000Y2297500D01*
X9315670Y2301500D01*
X9323670Y2311500D01*
X9329000Y2323500D01*
X9333000Y2339500D01*
X9334330Y2357500D01*
X9333000Y2375500D01*
X9329000Y2391500D01*
X9323670Y2403500D01*
X9315670Y2413500D01*
X9305000Y2417500D01*
G01X9405000Y2293500D02*
X9402330Y2295500D01*
Y2299500D01*
X9405000Y2301500D01*
X9407670Y2299500D01*
Y2295500D01*
X9405000Y2293500D01*
G01X9505000Y2297500D02*
X9514330Y2299500D01*
X9525000Y2305500D01*
X9531670Y2315500D01*
X9534330Y2329500D01*
X9531670Y2343500D01*
X9523670Y2355500D01*
X9511670Y2361500D01*
X9498330D01*
X9490330Y2365500D01*
X9483670Y2375500D01*
X9481000Y2389500D01*
X9485000Y2403500D01*
X9494330Y2413500D01*
X9505000Y2417500D01*
X9515670Y2413500D01*
X9525000Y2403500D01*
X9529000Y2389500D01*
X9526330Y2375500D01*
X9519670Y2365500D01*
X9511670Y2361500D01*
X9498330D01*
X9486330Y2355500D01*
X9478330Y2343500D01*
X9475670Y2329500D01*
X9478330Y2315500D01*
X9485000Y2305500D01*
X9495670Y2299500D01*
X9505000Y2297500D01*
G01X9305000Y2942500D02*
X9294330Y2938500D01*
X9286330Y2928500D01*
X9281000Y2916500D01*
X9277000Y2900500D01*
X9275670Y2882500D01*
X9277000Y2864500D01*
X9281000Y2848500D01*
X9286330Y2836500D01*
X9294330Y2826500D01*
X9305000Y2822500D01*
X9315670Y2826500D01*
X9323670Y2836500D01*
X9329000Y2848500D01*
X9333000Y2864500D01*
X9334330Y2882500D01*
X9333000Y2900500D01*
X9329000Y2916500D01*
X9323670Y2928500D01*
X9315670Y2938500D01*
X9305000Y2942500D01*
G01X9405000Y2818500D02*
X9402330Y2820500D01*
Y2824500D01*
X9405000Y2826500D01*
X9407670Y2824500D01*
Y2820500D01*
X9405000Y2818500D01*
G01X9475670Y2840500D02*
X9483670Y2830500D01*
X9493000Y2824500D01*
X9505000Y2822500D01*
X9517000Y2826500D01*
X9526330Y2834500D01*
X9533000Y2848500D01*
X9534330Y2864500D01*
X9531670Y2880500D01*
X9525000Y2890500D01*
X9515670Y2898500D01*
X9506330Y2900500D01*
X9497000Y2898500D01*
X9485000Y2890500D01*
X9489000Y2942500D01*
X9525000D01*
G01X9255000Y3992500D02*
X9244330Y3988500D01*
X9236330Y3978500D01*
X9231000Y3966500D01*
X9227000Y3950500D01*
X9225670Y3932500D01*
X9227000Y3914500D01*
X9231000Y3898500D01*
X9236330Y3886500D01*
X9244330Y3876500D01*
X9255000Y3872500D01*
X9265670Y3876500D01*
X9273670Y3886500D01*
X9279000Y3898500D01*
X9283000Y3914500D01*
X9284330Y3932500D01*
X9283000Y3950500D01*
X9279000Y3966500D01*
X9273670Y3978500D01*
X9265670Y3988500D01*
X9255000Y3992500D01*
G01X9355000Y3868500D02*
X9352330Y3870500D01*
Y3874500D01*
X9355000Y3876500D01*
X9357670Y3874500D01*
Y3870500D01*
X9355000Y3868500D01*
G01X9429670Y3972500D02*
X9437670Y3984500D01*
X9447000Y3990500D01*
X9457670Y3992500D01*
X9471000Y3988500D01*
X9480330Y3978500D01*
X9483000Y3966500D01*
X9481670Y3954500D01*
X9476330Y3944500D01*
X9449670Y3924500D01*
X9437670Y3910500D01*
X9429670Y3890500D01*
X9427000Y3872500D01*
X9483000D01*
G01X9525670Y3890500D02*
X9533670Y3880500D01*
X9543000Y3874500D01*
X9555000Y3872500D01*
X9567000Y3876500D01*
X9576330Y3884500D01*
X9583000Y3898500D01*
X9584330Y3914500D01*
X9581670Y3930500D01*
X9575000Y3940500D01*
X9565670Y3948500D01*
X9556330Y3950500D01*
X9547000Y3948500D01*
X9535000Y3940500D01*
X9539000Y3992500D01*
X9575000D01*
G01X9227000Y4271000D02*
X9237670Y4261000D01*
X9249670Y4255000D01*
X9260330D01*
X9271000Y4261000D01*
X9279000Y4271000D01*
X9283000Y4285000D01*
X9280330Y4299000D01*
X9273670Y4311000D01*
X9261670Y4319000D01*
X9245670Y4323000D01*
X9236330Y4331000D01*
X9232330Y4345000D01*
X9235000Y4359000D01*
X9241670Y4369000D01*
X9251000Y4375000D01*
X9260330D01*
X9269670Y4371000D01*
X9277670Y4361000D01*
G01X9339000Y4375000D02*
X9371000D01*
G01X9355000D02*
Y4255000D01*
G01X9339000D02*
X9371000D01*
G01X9429670Y4375000D02*
X9480330D01*
X9429670Y4255000D01*
X9480330D01*
G01X9581670D02*
X9528330D01*
Y4375000D01*
X9581670D01*
G01X9560330Y4317000D02*
X9528330D01*
G01X9241670Y4495000D02*
X9275000Y4615000D01*
X9308330Y4495000D01*
G01X9296330Y4537000D02*
X9253670D01*
G01X9348330Y4615000D02*
Y4495000D01*
X9401670D01*
G01X9448330Y4615000D02*
Y4495000D01*
X9501670D01*
G01X9645670Y4615000D02*
Y4529000D01*
X9651000Y4511000D01*
X9661670Y4499000D01*
X9675000Y4495000D01*
X9688330Y4499000D01*
X9699000Y4511000D01*
X9704330Y4529000D01*
Y4615000D01*
G01X9744330Y4495000D02*
Y4615000D01*
X9805670Y4495000D01*
Y4615000D01*
G01X9859000D02*
X9891000D01*
G01X9875000D02*
Y4495000D01*
G01X9859000D02*
X9891000D01*
G01X9975000Y4615000D02*
Y4495000D01*
G01X9944330Y4615000D02*
X10005670D01*
G01X10047000Y4511000D02*
X10057670Y4501000D01*
X10069670Y4495000D01*
X10080330D01*
X10091000Y4501000D01*
X10099000Y4511000D01*
X10103000Y4525000D01*
X10100330Y4539000D01*
X10093670Y4551000D01*
X10081670Y4559000D01*
X10065670Y4563000D01*
X10056330Y4571000D01*
X10052330Y4585000D01*
X10055000Y4599000D01*
X10061670Y4609000D01*
X10071000Y4615000D01*
X10080330D01*
X10089670Y4611000D01*
X10097670Y4601000D01*
G01X10241670Y4495000D02*
X10275000Y4615000D01*
X10308330Y4495000D01*
G01X10296330Y4537000D02*
X10253670D01*
G01X10348330Y4495000D02*
Y4615000D01*
X10381670D01*
X10392330Y4609000D01*
X10399000Y4601000D01*
X10401670Y4585000D01*
X10399000Y4569000D01*
X10391000Y4559000D01*
X10381670Y4553000D01*
X10348330D01*
G01X10381670D02*
X10401670Y4495000D01*
G01X10501670D02*
X10448330D01*
Y4615000D01*
X10501670D01*
G01X10480330Y4557000D02*
X10448330D01*
G01X10659000Y4615000D02*
X10691000D01*
G01X10675000D02*
Y4495000D01*
G01X10659000D02*
X10691000D01*
G01X10744330D02*
Y4615000D01*
X10805670Y4495000D01*
Y4615000D01*
G01X10940330Y4495000D02*
Y4615000D01*
X10975000Y4515000D01*
X11009670Y4615000D01*
Y4495000D01*
G01X11059000Y4615000D02*
X11091000D01*
G01X11075000D02*
Y4495000D01*
G01X11059000D02*
X11091000D01*
G01X11148330Y4615000D02*
Y4495000D01*
X11201670D01*
G01X11248330Y4615000D02*
Y4495000D01*
X11301670D01*
G01X11359000Y4615000D02*
X11391000D01*
G01X11375000D02*
Y4495000D01*
G01X11359000D02*
X11391000D01*
G01X11440330D02*
Y4615000D01*
X11475000Y4515000D01*
X11509670Y4615000D01*
Y4495000D01*
G01X11601670D02*
X11548330D01*
Y4615000D01*
X11601670D01*
G01X11580330Y4557000D02*
X11548330D01*
G01X11675000Y4615000D02*
Y4495000D01*
G01X11644330Y4615000D02*
X11705670D01*
G01X11801670Y4495000D02*
X11748330D01*
Y4615000D01*
X11801670D01*
G01X11780330Y4557000D02*
X11748330D01*
G01X11848330Y4495000D02*
Y4615000D01*
X11881670D01*
X11892330Y4609000D01*
X11899000Y4601000D01*
X11901670Y4585000D01*
X11899000Y4569000D01*
X11891000Y4559000D01*
X11881670Y4553000D01*
X11848330D01*
G01X11881670D02*
X11901670Y4495000D01*
G01X11947000Y4511000D02*
X11957670Y4501000D01*
X11969670Y4495000D01*
X11980330D01*
X11991000Y4501000D01*
X11999000Y4511000D01*
X12003000Y4525000D01*
X12000330Y4539000D01*
X11993670Y4551000D01*
X11981670Y4559000D01*
X11965670Y4563000D01*
X11956330Y4571000D01*
X11952330Y4585000D01*
X11955000Y4599000D01*
X11961670Y4609000D01*
X11971000Y4615000D01*
X11980330D01*
X11989670Y4611000D01*
X11997670Y4601000D01*
G01X9345670Y5145000D02*
Y5265000D01*
X9372330D01*
X9383000Y5259000D01*
X9391000Y5251000D01*
X9397670Y5239000D01*
X9403000Y5225000D01*
X9404330Y5205000D01*
X9403000Y5185000D01*
X9397670Y5171000D01*
X9391000Y5159000D01*
X9383000Y5151000D01*
X9372330Y5145000D01*
X9345670D01*
G01X9448330D02*
Y5265000D01*
X9481670D01*
X9492330Y5259000D01*
X9499000Y5251000D01*
X9501670Y5235000D01*
X9499000Y5219000D01*
X9491000Y5209000D01*
X9481670Y5203000D01*
X9448330D01*
G01X9481670D02*
X9501670Y5145000D01*
G01X9559000Y5265000D02*
X9591000D01*
G01X9575000D02*
Y5145000D01*
G01X9559000D02*
X9591000D01*
G01X9648330Y5265000D02*
Y5145000D01*
X9701670D01*
G01X9748330Y5265000D02*
Y5145000D01*
X9801670D01*
G01X10004330Y5255000D02*
X9996330Y5261000D01*
X9987000Y5265000D01*
X9976330D01*
X9964330Y5259000D01*
X9955000Y5249000D01*
X9948330Y5237000D01*
X9943000Y5217000D01*
X9941670Y5199000D01*
X9944330Y5181000D01*
X9948330Y5169000D01*
X9956330Y5157000D01*
X9965670Y5149000D01*
X9975000Y5145000D01*
X9984330D01*
X9993670Y5149000D01*
X10001670Y5155000D01*
X10008330Y5163000D01*
G01X10047000Y5145000D02*
Y5265000D01*
G01X10103000D02*
Y5145000D01*
G01Y5205000D02*
X10047000D01*
G01X10141670Y5145000D02*
X10175000Y5265000D01*
X10208330Y5145000D01*
G01X10196330Y5187000D02*
X10153670D01*
G01X10248330Y5145000D02*
Y5265000D01*
X10281670D01*
X10292330Y5259000D01*
X10299000Y5251000D01*
X10301670Y5235000D01*
X10299000Y5219000D01*
X10291000Y5209000D01*
X10281670Y5203000D01*
X10248330D01*
G01X10281670D02*
X10301670Y5145000D01*
G01X10375000Y5265000D02*
Y5145000D01*
G01X10344330Y5265000D02*
X10405670D01*
G01X10475000Y5141000D02*
X10472330Y5143000D01*
Y5147000D01*
X10475000Y5149000D01*
X10477670Y5147000D01*
Y5143000D01*
X10475000Y5141000D01*
G01Y5195000D02*
X10472330Y5197000D01*
Y5201000D01*
X10475000Y5203000D01*
X10477670Y5201000D01*
Y5197000D01*
X10475000Y5195000D01*
G01X10675000Y5265000D02*
Y5145000D01*
G01X10644330Y5265000D02*
X10705670D01*
G01X10775000Y5145000D02*
X10764330Y5147000D01*
X10755000Y5155000D01*
X10747000Y5167000D01*
X10741670Y5181000D01*
X10739000Y5197000D01*
Y5213000D01*
X10741670Y5229000D01*
X10747000Y5243000D01*
X10755000Y5255000D01*
X10764330Y5263000D01*
X10775000Y5265000D01*
X10785670Y5263000D01*
X10795000Y5255000D01*
X10803000Y5243000D01*
X10808330Y5229000D01*
X10811000Y5213000D01*
Y5197000D01*
X10808330Y5181000D01*
X10803000Y5167000D01*
X10795000Y5155000D01*
X10785670Y5147000D01*
X10775000Y5145000D01*
G01X10848330D02*
Y5265000D01*
X10880330D01*
X10891000Y5259000D01*
X10899000Y5245000D01*
X10901670Y5229000D01*
X10899000Y5213000D01*
X10892330Y5201000D01*
X10880330Y5195000D01*
X10848330D01*
G01X11075000Y5265000D02*
Y5145000D01*
G01X11056330Y5225000D02*
X11093670D01*
G01X11175000Y5145000D02*
X11167000Y5147000D01*
X11159000Y5155000D01*
X11153670Y5169000D01*
X11151000Y5185000D01*
X11153670Y5201000D01*
X11159000Y5215000D01*
X11167000Y5223000D01*
X11175000Y5225000D01*
X11183000Y5223000D01*
X11191000Y5215000D01*
X11196330Y5201000D01*
X11197670Y5185000D01*
X11196330Y5169000D01*
X11191000Y5155000D01*
X11183000Y5147000D01*
X11175000Y5145000D01*
G01X11385670Y5209000D02*
X11391000Y5215000D01*
X11395000Y5225000D01*
X11397670Y5239000D01*
X11395000Y5251000D01*
X11389670Y5259000D01*
X11380330Y5265000D01*
X11344330D01*
Y5145000D01*
X11388330D01*
X11397670Y5153000D01*
X11403000Y5165000D01*
X11405670Y5179000D01*
X11403000Y5193000D01*
X11395000Y5205000D01*
X11385670Y5209000D01*
X11344330D01*
G01X11475000Y5145000D02*
X11464330Y5147000D01*
X11455000Y5155000D01*
X11447000Y5167000D01*
X11441670Y5181000D01*
X11439000Y5197000D01*
Y5213000D01*
X11441670Y5229000D01*
X11447000Y5243000D01*
X11455000Y5255000D01*
X11464330Y5263000D01*
X11475000Y5265000D01*
X11485670Y5263000D01*
X11495000Y5255000D01*
X11503000Y5243000D01*
X11508330Y5229000D01*
X11511000Y5213000D01*
Y5197000D01*
X11508330Y5181000D01*
X11503000Y5167000D01*
X11495000Y5155000D01*
X11485670Y5147000D01*
X11475000Y5145000D01*
G01X11575000Y5265000D02*
Y5145000D01*
G01X11544330Y5265000D02*
X11605670D01*
G01X11675000D02*
Y5145000D01*
G01X11644330Y5265000D02*
X11705670D01*
G01X11775000Y5145000D02*
X11764330Y5147000D01*
X11755000Y5155000D01*
X11747000Y5167000D01*
X11741670Y5181000D01*
X11739000Y5197000D01*
Y5213000D01*
X11741670Y5229000D01*
X11747000Y5243000D01*
X11755000Y5255000D01*
X11764330Y5263000D01*
X11775000Y5265000D01*
X11785670Y5263000D01*
X11795000Y5255000D01*
X11803000Y5243000D01*
X11808330Y5229000D01*
X11811000Y5213000D01*
Y5197000D01*
X11808330Y5181000D01*
X11803000Y5167000D01*
X11795000Y5155000D01*
X11785670Y5147000D01*
X11775000Y5145000D01*
G01X11840330D02*
Y5265000D01*
X11875000Y5165000D01*
X11909670Y5265000D01*
Y5145000D01*
G01X10410330Y-1337500D02*
X10442330D01*
G01X10425000Y-1311500D02*
Y-1363500D01*
G01X10525000Y-1257500D02*
X10514330Y-1261500D01*
X10506330Y-1271500D01*
X10501000Y-1283500D01*
X10497000Y-1299500D01*
X10495670Y-1317500D01*
X10497000Y-1335500D01*
X10501000Y-1351500D01*
X10506330Y-1363500D01*
X10514330Y-1373500D01*
X10525000Y-1377500D01*
X10535670Y-1373500D01*
X10543670Y-1363500D01*
X10549000Y-1351500D01*
X10553000Y-1335500D01*
X10554330Y-1317500D01*
X10553000Y-1299500D01*
X10549000Y-1283500D01*
X10543670Y-1271500D01*
X10535670Y-1261500D01*
X10525000Y-1257500D01*
G01X10625000Y-1381500D02*
X10622330Y-1379500D01*
Y-1375500D01*
X10625000Y-1373500D01*
X10627670Y-1375500D01*
Y-1379500D01*
X10625000Y-1381500D01*
G01X10725000Y-1257500D02*
X10714330Y-1261500D01*
X10706330Y-1271500D01*
X10701000Y-1283500D01*
X10697000Y-1299500D01*
X10695670Y-1317500D01*
X10697000Y-1335500D01*
X10701000Y-1351500D01*
X10706330Y-1363500D01*
X10714330Y-1373500D01*
X10725000Y-1377500D01*
X10735670Y-1373500D01*
X10743670Y-1363500D01*
X10749000Y-1351500D01*
X10753000Y-1335500D01*
X10754330Y-1317500D01*
X10753000Y-1299500D01*
X10749000Y-1283500D01*
X10743670Y-1271500D01*
X10735670Y-1261500D01*
X10725000Y-1257500D01*
G01X10825000Y-1377500D02*
X10834330Y-1375500D01*
X10845000Y-1369500D01*
X10851670Y-1359500D01*
X10854330Y-1345500D01*
X10851670Y-1331500D01*
X10843670Y-1319500D01*
X10831670Y-1313500D01*
X10818330D01*
X10810330Y-1309500D01*
X10803670Y-1299500D01*
X10801000Y-1285500D01*
X10805000Y-1271500D01*
X10814330Y-1261500D01*
X10825000Y-1257500D01*
X10835670Y-1261500D01*
X10845000Y-1271500D01*
X10849000Y-1285500D01*
X10846330Y-1299500D01*
X10839670Y-1309500D01*
X10831670Y-1313500D01*
X10818330D01*
X10806330Y-1319500D01*
X10798330Y-1331500D01*
X10795670Y-1345500D01*
X10798330Y-1359500D01*
X10805000Y-1369500D01*
X10815670Y-1375500D01*
X10825000Y-1377500D01*
G01X10901000Y-1381500D02*
X10949000Y-1257500D01*
G01X11007670Y-1337500D02*
X11042330D01*
G01X11125000Y-1257500D02*
X11114330Y-1261500D01*
X11106330Y-1271500D01*
X11101000Y-1283500D01*
X11097000Y-1299500D01*
X11095670Y-1317500D01*
X11097000Y-1335500D01*
X11101000Y-1351500D01*
X11106330Y-1363500D01*
X11114330Y-1373500D01*
X11125000Y-1377500D01*
X11135670Y-1373500D01*
X11143670Y-1363500D01*
X11149000Y-1351500D01*
X11153000Y-1335500D01*
X11154330Y-1317500D01*
X11153000Y-1299500D01*
X11149000Y-1283500D01*
X11143670Y-1271500D01*
X11135670Y-1261500D01*
X11125000Y-1257500D01*
G01X11225000Y-1381500D02*
X11222330Y-1379500D01*
Y-1375500D01*
X11225000Y-1373500D01*
X11227670Y-1375500D01*
Y-1379500D01*
X11225000Y-1381500D01*
G01X11325000Y-1257500D02*
X11314330Y-1261500D01*
X11306330Y-1271500D01*
X11301000Y-1283500D01*
X11297000Y-1299500D01*
X11295670Y-1317500D01*
X11297000Y-1335500D01*
X11301000Y-1351500D01*
X11306330Y-1363500D01*
X11314330Y-1373500D01*
X11325000Y-1377500D01*
X11335670Y-1373500D01*
X11343670Y-1363500D01*
X11349000Y-1351500D01*
X11353000Y-1335500D01*
X11354330Y-1317500D01*
X11353000Y-1299500D01*
X11349000Y-1283500D01*
X11343670Y-1271500D01*
X11335670Y-1261500D01*
X11325000Y-1257500D01*
G01X11425000Y-1377500D02*
X11434330Y-1375500D01*
X11445000Y-1369500D01*
X11451670Y-1359500D01*
X11454330Y-1345500D01*
X11451670Y-1331500D01*
X11443670Y-1319500D01*
X11431670Y-1313500D01*
X11418330D01*
X11410330Y-1309500D01*
X11403670Y-1299500D01*
X11401000Y-1285500D01*
X11405000Y-1271500D01*
X11414330Y-1261500D01*
X11425000Y-1257500D01*
X11435670Y-1261500D01*
X11445000Y-1271500D01*
X11449000Y-1285500D01*
X11446330Y-1299500D01*
X11439670Y-1309500D01*
X11431670Y-1313500D01*
X11418330D01*
X11406330Y-1319500D01*
X11398330Y-1331500D01*
X11395670Y-1345500D01*
X11398330Y-1359500D01*
X11405000Y-1369500D01*
X11415670Y-1375500D01*
X11425000Y-1377500D01*
G01X10410330Y-812500D02*
X10442330D01*
G01X10425000Y-786500D02*
Y-838500D01*
G01X10525000Y-732500D02*
X10514330Y-736500D01*
X10506330Y-746500D01*
X10501000Y-758500D01*
X10497000Y-774500D01*
X10495670Y-792500D01*
X10497000Y-810500D01*
X10501000Y-826500D01*
X10506330Y-838500D01*
X10514330Y-848500D01*
X10525000Y-852500D01*
X10535670Y-848500D01*
X10543670Y-838500D01*
X10549000Y-826500D01*
X10553000Y-810500D01*
X10554330Y-792500D01*
X10553000Y-774500D01*
X10549000Y-758500D01*
X10543670Y-746500D01*
X10535670Y-736500D01*
X10525000Y-732500D01*
G01X10625000Y-856500D02*
X10622330Y-854500D01*
Y-850500D01*
X10625000Y-848500D01*
X10627670Y-850500D01*
Y-854500D01*
X10625000Y-856500D01*
G01X10725000Y-732500D02*
X10714330Y-736500D01*
X10706330Y-746500D01*
X10701000Y-758500D01*
X10697000Y-774500D01*
X10695670Y-792500D01*
X10697000Y-810500D01*
X10701000Y-826500D01*
X10706330Y-838500D01*
X10714330Y-848500D01*
X10725000Y-852500D01*
X10735670Y-848500D01*
X10743670Y-838500D01*
X10749000Y-826500D01*
X10753000Y-810500D01*
X10754330Y-792500D01*
X10753000Y-774500D01*
X10749000Y-758500D01*
X10743670Y-746500D01*
X10735670Y-736500D01*
X10725000Y-732500D01*
G01X10825000Y-852500D02*
X10834330Y-850500D01*
X10845000Y-844500D01*
X10851670Y-834500D01*
X10854330Y-820500D01*
X10851670Y-806500D01*
X10843670Y-794500D01*
X10831670Y-788500D01*
X10818330D01*
X10810330Y-784500D01*
X10803670Y-774500D01*
X10801000Y-760500D01*
X10805000Y-746500D01*
X10814330Y-736500D01*
X10825000Y-732500D01*
X10835670Y-736500D01*
X10845000Y-746500D01*
X10849000Y-760500D01*
X10846330Y-774500D01*
X10839670Y-784500D01*
X10831670Y-788500D01*
X10818330D01*
X10806330Y-794500D01*
X10798330Y-806500D01*
X10795670Y-820500D01*
X10798330Y-834500D01*
X10805000Y-844500D01*
X10815670Y-850500D01*
X10825000Y-852500D01*
G01X10901000Y-856500D02*
X10949000Y-732500D01*
G01X11007670Y-812500D02*
X11042330D01*
G01X11125000Y-732500D02*
X11114330Y-736500D01*
X11106330Y-746500D01*
X11101000Y-758500D01*
X11097000Y-774500D01*
X11095670Y-792500D01*
X11097000Y-810500D01*
X11101000Y-826500D01*
X11106330Y-838500D01*
X11114330Y-848500D01*
X11125000Y-852500D01*
X11135670Y-848500D01*
X11143670Y-838500D01*
X11149000Y-826500D01*
X11153000Y-810500D01*
X11154330Y-792500D01*
X11153000Y-774500D01*
X11149000Y-758500D01*
X11143670Y-746500D01*
X11135670Y-736500D01*
X11125000Y-732500D01*
G01X11225000Y-856500D02*
X11222330Y-854500D01*
Y-850500D01*
X11225000Y-848500D01*
X11227670Y-850500D01*
Y-854500D01*
X11225000Y-856500D01*
G01X11325000Y-732500D02*
X11314330Y-736500D01*
X11306330Y-746500D01*
X11301000Y-758500D01*
X11297000Y-774500D01*
X11295670Y-792500D01*
X11297000Y-810500D01*
X11301000Y-826500D01*
X11306330Y-838500D01*
X11314330Y-848500D01*
X11325000Y-852500D01*
X11335670Y-848500D01*
X11343670Y-838500D01*
X11349000Y-826500D01*
X11353000Y-810500D01*
X11354330Y-792500D01*
X11353000Y-774500D01*
X11349000Y-758500D01*
X11343670Y-746500D01*
X11335670Y-736500D01*
X11325000Y-732500D01*
G01X11425000Y-852500D02*
X11434330Y-850500D01*
X11445000Y-844500D01*
X11451670Y-834500D01*
X11454330Y-820500D01*
X11451670Y-806500D01*
X11443670Y-794500D01*
X11431670Y-788500D01*
X11418330D01*
X11410330Y-784500D01*
X11403670Y-774500D01*
X11401000Y-760500D01*
X11405000Y-746500D01*
X11414330Y-736500D01*
X11425000Y-732500D01*
X11435670Y-736500D01*
X11445000Y-746500D01*
X11449000Y-760500D01*
X11446330Y-774500D01*
X11439670Y-784500D01*
X11431670Y-788500D01*
X11418330D01*
X11406330Y-794500D01*
X11398330Y-806500D01*
X11395670Y-820500D01*
X11398330Y-834500D01*
X11405000Y-844500D01*
X11415670Y-850500D01*
X11425000Y-852500D01*
G01X10410330Y-287500D02*
X10442330D01*
G01X10425000Y-261500D02*
Y-313500D01*
G01X10525000Y-207500D02*
X10514330Y-211500D01*
X10506330Y-221500D01*
X10501000Y-233500D01*
X10497000Y-249500D01*
X10495670Y-267500D01*
X10497000Y-285500D01*
X10501000Y-301500D01*
X10506330Y-313500D01*
X10514330Y-323500D01*
X10525000Y-327500D01*
X10535670Y-323500D01*
X10543670Y-313500D01*
X10549000Y-301500D01*
X10553000Y-285500D01*
X10554330Y-267500D01*
X10553000Y-249500D01*
X10549000Y-233500D01*
X10543670Y-221500D01*
X10535670Y-211500D01*
X10525000Y-207500D01*
G01X10625000Y-331500D02*
X10622330Y-329500D01*
Y-325500D01*
X10625000Y-323500D01*
X10627670Y-325500D01*
Y-329500D01*
X10625000Y-331500D01*
G01X10725000Y-207500D02*
X10714330Y-211500D01*
X10706330Y-221500D01*
X10701000Y-233500D01*
X10697000Y-249500D01*
X10695670Y-267500D01*
X10697000Y-285500D01*
X10701000Y-301500D01*
X10706330Y-313500D01*
X10714330Y-323500D01*
X10725000Y-327500D01*
X10735670Y-323500D01*
X10743670Y-313500D01*
X10749000Y-301500D01*
X10753000Y-285500D01*
X10754330Y-267500D01*
X10753000Y-249500D01*
X10749000Y-233500D01*
X10743670Y-221500D01*
X10735670Y-211500D01*
X10725000Y-207500D01*
G01X10825000Y-327500D02*
X10834330Y-325500D01*
X10845000Y-319500D01*
X10851670Y-309500D01*
X10854330Y-295500D01*
X10851670Y-281500D01*
X10843670Y-269500D01*
X10831670Y-263500D01*
X10818330D01*
X10810330Y-259500D01*
X10803670Y-249500D01*
X10801000Y-235500D01*
X10805000Y-221500D01*
X10814330Y-211500D01*
X10825000Y-207500D01*
X10835670Y-211500D01*
X10845000Y-221500D01*
X10849000Y-235500D01*
X10846330Y-249500D01*
X10839670Y-259500D01*
X10831670Y-263500D01*
X10818330D01*
X10806330Y-269500D01*
X10798330Y-281500D01*
X10795670Y-295500D01*
X10798330Y-309500D01*
X10805000Y-319500D01*
X10815670Y-325500D01*
X10825000Y-327500D01*
G01X10901000Y-331500D02*
X10949000Y-207500D01*
G01X11007670Y-287500D02*
X11042330D01*
G01X11125000Y-207500D02*
X11114330Y-211500D01*
X11106330Y-221500D01*
X11101000Y-233500D01*
X11097000Y-249500D01*
X11095670Y-267500D01*
X11097000Y-285500D01*
X11101000Y-301500D01*
X11106330Y-313500D01*
X11114330Y-323500D01*
X11125000Y-327500D01*
X11135670Y-323500D01*
X11143670Y-313500D01*
X11149000Y-301500D01*
X11153000Y-285500D01*
X11154330Y-267500D01*
X11153000Y-249500D01*
X11149000Y-233500D01*
X11143670Y-221500D01*
X11135670Y-211500D01*
X11125000Y-207500D01*
G01X11225000Y-331500D02*
X11222330Y-329500D01*
Y-325500D01*
X11225000Y-323500D01*
X11227670Y-325500D01*
Y-329500D01*
X11225000Y-331500D01*
G01X11325000Y-207500D02*
X11314330Y-211500D01*
X11306330Y-221500D01*
X11301000Y-233500D01*
X11297000Y-249500D01*
X11295670Y-267500D01*
X11297000Y-285500D01*
X11301000Y-301500D01*
X11306330Y-313500D01*
X11314330Y-323500D01*
X11325000Y-327500D01*
X11335670Y-323500D01*
X11343670Y-313500D01*
X11349000Y-301500D01*
X11353000Y-285500D01*
X11354330Y-267500D01*
X11353000Y-249500D01*
X11349000Y-233500D01*
X11343670Y-221500D01*
X11335670Y-211500D01*
X11325000Y-207500D01*
G01X11425000Y-327500D02*
X11434330Y-325500D01*
X11445000Y-319500D01*
X11451670Y-309500D01*
X11454330Y-295500D01*
X11451670Y-281500D01*
X11443670Y-269500D01*
X11431670Y-263500D01*
X11418330D01*
X11410330Y-259500D01*
X11403670Y-249500D01*
X11401000Y-235500D01*
X11405000Y-221500D01*
X11414330Y-211500D01*
X11425000Y-207500D01*
X11435670Y-211500D01*
X11445000Y-221500D01*
X11449000Y-235500D01*
X11446330Y-249500D01*
X11439670Y-259500D01*
X11431670Y-263500D01*
X11418330D01*
X11406330Y-269500D01*
X11398330Y-281500D01*
X11395670Y-295500D01*
X11398330Y-309500D01*
X11405000Y-319500D01*
X11415670Y-325500D01*
X11425000Y-327500D01*
G01X10410330Y237500D02*
X10442330D01*
G01X10425000Y263500D02*
Y211500D01*
G01X10525000Y317500D02*
X10514330Y313500D01*
X10506330Y303500D01*
X10501000Y291500D01*
X10497000Y275500D01*
X10495670Y257500D01*
X10497000Y239500D01*
X10501000Y223500D01*
X10506330Y211500D01*
X10514330Y201500D01*
X10525000Y197500D01*
X10535670Y201500D01*
X10543670Y211500D01*
X10549000Y223500D01*
X10553000Y239500D01*
X10554330Y257500D01*
X10553000Y275500D01*
X10549000Y291500D01*
X10543670Y303500D01*
X10535670Y313500D01*
X10525000Y317500D01*
G01X10625000Y193500D02*
X10622330Y195500D01*
Y199500D01*
X10625000Y201500D01*
X10627670Y199500D01*
Y195500D01*
X10625000Y193500D01*
G01X10725000Y317500D02*
X10714330Y313500D01*
X10706330Y303500D01*
X10701000Y291500D01*
X10697000Y275500D01*
X10695670Y257500D01*
X10697000Y239500D01*
X10701000Y223500D01*
X10706330Y211500D01*
X10714330Y201500D01*
X10725000Y197500D01*
X10735670Y201500D01*
X10743670Y211500D01*
X10749000Y223500D01*
X10753000Y239500D01*
X10754330Y257500D01*
X10753000Y275500D01*
X10749000Y291500D01*
X10743670Y303500D01*
X10735670Y313500D01*
X10725000Y317500D01*
G01X10825000Y197500D02*
X10834330Y199500D01*
X10845000Y205500D01*
X10851670Y215500D01*
X10854330Y229500D01*
X10851670Y243500D01*
X10843670Y255500D01*
X10831670Y261500D01*
X10818330D01*
X10810330Y265500D01*
X10803670Y275500D01*
X10801000Y289500D01*
X10805000Y303500D01*
X10814330Y313500D01*
X10825000Y317500D01*
X10835670Y313500D01*
X10845000Y303500D01*
X10849000Y289500D01*
X10846330Y275500D01*
X10839670Y265500D01*
X10831670Y261500D01*
X10818330D01*
X10806330Y255500D01*
X10798330Y243500D01*
X10795670Y229500D01*
X10798330Y215500D01*
X10805000Y205500D01*
X10815670Y199500D01*
X10825000Y197500D01*
G01X10901000Y193500D02*
X10949000Y317500D01*
G01X11007670Y237500D02*
X11042330D01*
G01X11125000Y317500D02*
X11114330Y313500D01*
X11106330Y303500D01*
X11101000Y291500D01*
X11097000Y275500D01*
X11095670Y257500D01*
X11097000Y239500D01*
X11101000Y223500D01*
X11106330Y211500D01*
X11114330Y201500D01*
X11125000Y197500D01*
X11135670Y201500D01*
X11143670Y211500D01*
X11149000Y223500D01*
X11153000Y239500D01*
X11154330Y257500D01*
X11153000Y275500D01*
X11149000Y291500D01*
X11143670Y303500D01*
X11135670Y313500D01*
X11125000Y317500D01*
G01X11225000Y193500D02*
X11222330Y195500D01*
Y199500D01*
X11225000Y201500D01*
X11227670Y199500D01*
Y195500D01*
X11225000Y193500D01*
G01X11325000Y317500D02*
X11314330Y313500D01*
X11306330Y303500D01*
X11301000Y291500D01*
X11297000Y275500D01*
X11295670Y257500D01*
X11297000Y239500D01*
X11301000Y223500D01*
X11306330Y211500D01*
X11314330Y201500D01*
X11325000Y197500D01*
X11335670Y201500D01*
X11343670Y211500D01*
X11349000Y223500D01*
X11353000Y239500D01*
X11354330Y257500D01*
X11353000Y275500D01*
X11349000Y291500D01*
X11343670Y303500D01*
X11335670Y313500D01*
X11325000Y317500D01*
G01X11425000Y197500D02*
X11434330Y199500D01*
X11445000Y205500D01*
X11451670Y215500D01*
X11454330Y229500D01*
X11451670Y243500D01*
X11443670Y255500D01*
X11431670Y261500D01*
X11418330D01*
X11410330Y265500D01*
X11403670Y275500D01*
X11401000Y289500D01*
X11405000Y303500D01*
X11414330Y313500D01*
X11425000Y317500D01*
X11435670Y313500D01*
X11445000Y303500D01*
X11449000Y289500D01*
X11446330Y275500D01*
X11439670Y265500D01*
X11431670Y261500D01*
X11418330D01*
X11406330Y255500D01*
X11398330Y243500D01*
X11395670Y229500D01*
X11398330Y215500D01*
X11405000Y205500D01*
X11415670Y199500D01*
X11425000Y197500D01*
G01X10410330Y762500D02*
X10442330D01*
G01X10425000Y788500D02*
Y736500D01*
G01X10525000Y842500D02*
X10514330Y838500D01*
X10506330Y828500D01*
X10501000Y816500D01*
X10497000Y800500D01*
X10495670Y782500D01*
X10497000Y764500D01*
X10501000Y748500D01*
X10506330Y736500D01*
X10514330Y726500D01*
X10525000Y722500D01*
X10535670Y726500D01*
X10543670Y736500D01*
X10549000Y748500D01*
X10553000Y764500D01*
X10554330Y782500D01*
X10553000Y800500D01*
X10549000Y816500D01*
X10543670Y828500D01*
X10535670Y838500D01*
X10525000Y842500D01*
G01X10625000Y718500D02*
X10622330Y720500D01*
Y724500D01*
X10625000Y726500D01*
X10627670Y724500D01*
Y720500D01*
X10625000Y718500D01*
G01X10725000Y842500D02*
X10714330Y838500D01*
X10706330Y828500D01*
X10701000Y816500D01*
X10697000Y800500D01*
X10695670Y782500D01*
X10697000Y764500D01*
X10701000Y748500D01*
X10706330Y736500D01*
X10714330Y726500D01*
X10725000Y722500D01*
X10735670Y726500D01*
X10743670Y736500D01*
X10749000Y748500D01*
X10753000Y764500D01*
X10754330Y782500D01*
X10753000Y800500D01*
X10749000Y816500D01*
X10743670Y828500D01*
X10735670Y838500D01*
X10725000Y842500D01*
G01X10825000Y722500D02*
X10834330Y724500D01*
X10845000Y730500D01*
X10851670Y740500D01*
X10854330Y754500D01*
X10851670Y768500D01*
X10843670Y780500D01*
X10831670Y786500D01*
X10818330D01*
X10810330Y790500D01*
X10803670Y800500D01*
X10801000Y814500D01*
X10805000Y828500D01*
X10814330Y838500D01*
X10825000Y842500D01*
X10835670Y838500D01*
X10845000Y828500D01*
X10849000Y814500D01*
X10846330Y800500D01*
X10839670Y790500D01*
X10831670Y786500D01*
X10818330D01*
X10806330Y780500D01*
X10798330Y768500D01*
X10795670Y754500D01*
X10798330Y740500D01*
X10805000Y730500D01*
X10815670Y724500D01*
X10825000Y722500D01*
G01X10901000Y718500D02*
X10949000Y842500D01*
G01X11007670Y762500D02*
X11042330D01*
G01X11125000Y842500D02*
X11114330Y838500D01*
X11106330Y828500D01*
X11101000Y816500D01*
X11097000Y800500D01*
X11095670Y782500D01*
X11097000Y764500D01*
X11101000Y748500D01*
X11106330Y736500D01*
X11114330Y726500D01*
X11125000Y722500D01*
X11135670Y726500D01*
X11143670Y736500D01*
X11149000Y748500D01*
X11153000Y764500D01*
X11154330Y782500D01*
X11153000Y800500D01*
X11149000Y816500D01*
X11143670Y828500D01*
X11135670Y838500D01*
X11125000Y842500D01*
G01X11225000Y718500D02*
X11222330Y720500D01*
Y724500D01*
X11225000Y726500D01*
X11227670Y724500D01*
Y720500D01*
X11225000Y718500D01*
G01X11325000Y842500D02*
X11314330Y838500D01*
X11306330Y828500D01*
X11301000Y816500D01*
X11297000Y800500D01*
X11295670Y782500D01*
X11297000Y764500D01*
X11301000Y748500D01*
X11306330Y736500D01*
X11314330Y726500D01*
X11325000Y722500D01*
X11335670Y726500D01*
X11343670Y736500D01*
X11349000Y748500D01*
X11353000Y764500D01*
X11354330Y782500D01*
X11353000Y800500D01*
X11349000Y816500D01*
X11343670Y828500D01*
X11335670Y838500D01*
X11325000Y842500D01*
G01X11425000Y722500D02*
X11434330Y724500D01*
X11445000Y730500D01*
X11451670Y740500D01*
X11454330Y754500D01*
X11451670Y768500D01*
X11443670Y780500D01*
X11431670Y786500D01*
X11418330D01*
X11410330Y790500D01*
X11403670Y800500D01*
X11401000Y814500D01*
X11405000Y828500D01*
X11414330Y838500D01*
X11425000Y842500D01*
X11435670Y838500D01*
X11445000Y828500D01*
X11449000Y814500D01*
X11446330Y800500D01*
X11439670Y790500D01*
X11431670Y786500D01*
X11418330D01*
X11406330Y780500D01*
X11398330Y768500D01*
X11395670Y754500D01*
X11398330Y740500D01*
X11405000Y730500D01*
X11415670Y724500D01*
X11425000Y722500D01*
G01X10410330Y1287500D02*
X10442330D01*
G01X10425000Y1313500D02*
Y1261500D01*
G01X10525000Y1367500D02*
X10514330Y1363500D01*
X10506330Y1353500D01*
X10501000Y1341500D01*
X10497000Y1325500D01*
X10495670Y1307500D01*
X10497000Y1289500D01*
X10501000Y1273500D01*
X10506330Y1261500D01*
X10514330Y1251500D01*
X10525000Y1247500D01*
X10535670Y1251500D01*
X10543670Y1261500D01*
X10549000Y1273500D01*
X10553000Y1289500D01*
X10554330Y1307500D01*
X10553000Y1325500D01*
X10549000Y1341500D01*
X10543670Y1353500D01*
X10535670Y1363500D01*
X10525000Y1367500D01*
G01X10625000Y1243500D02*
X10622330Y1245500D01*
Y1249500D01*
X10625000Y1251500D01*
X10627670Y1249500D01*
Y1245500D01*
X10625000Y1243500D01*
G01X10725000Y1367500D02*
X10714330Y1363500D01*
X10706330Y1353500D01*
X10701000Y1341500D01*
X10697000Y1325500D01*
X10695670Y1307500D01*
X10697000Y1289500D01*
X10701000Y1273500D01*
X10706330Y1261500D01*
X10714330Y1251500D01*
X10725000Y1247500D01*
X10735670Y1251500D01*
X10743670Y1261500D01*
X10749000Y1273500D01*
X10753000Y1289500D01*
X10754330Y1307500D01*
X10753000Y1325500D01*
X10749000Y1341500D01*
X10743670Y1353500D01*
X10735670Y1363500D01*
X10725000Y1367500D01*
G01X10825000Y1247500D02*
X10834330Y1249500D01*
X10845000Y1255500D01*
X10851670Y1265500D01*
X10854330Y1279500D01*
X10851670Y1293500D01*
X10843670Y1305500D01*
X10831670Y1311500D01*
X10818330D01*
X10810330Y1315500D01*
X10803670Y1325500D01*
X10801000Y1339500D01*
X10805000Y1353500D01*
X10814330Y1363500D01*
X10825000Y1367500D01*
X10835670Y1363500D01*
X10845000Y1353500D01*
X10849000Y1339500D01*
X10846330Y1325500D01*
X10839670Y1315500D01*
X10831670Y1311500D01*
X10818330D01*
X10806330Y1305500D01*
X10798330Y1293500D01*
X10795670Y1279500D01*
X10798330Y1265500D01*
X10805000Y1255500D01*
X10815670Y1249500D01*
X10825000Y1247500D01*
G01X10901000Y1243500D02*
X10949000Y1367500D01*
G01X11007670Y1287500D02*
X11042330D01*
G01X11125000Y1367500D02*
X11114330Y1363500D01*
X11106330Y1353500D01*
X11101000Y1341500D01*
X11097000Y1325500D01*
X11095670Y1307500D01*
X11097000Y1289500D01*
X11101000Y1273500D01*
X11106330Y1261500D01*
X11114330Y1251500D01*
X11125000Y1247500D01*
X11135670Y1251500D01*
X11143670Y1261500D01*
X11149000Y1273500D01*
X11153000Y1289500D01*
X11154330Y1307500D01*
X11153000Y1325500D01*
X11149000Y1341500D01*
X11143670Y1353500D01*
X11135670Y1363500D01*
X11125000Y1367500D01*
G01X11225000Y1243500D02*
X11222330Y1245500D01*
Y1249500D01*
X11225000Y1251500D01*
X11227670Y1249500D01*
Y1245500D01*
X11225000Y1243500D01*
G01X11325000Y1367500D02*
X11314330Y1363500D01*
X11306330Y1353500D01*
X11301000Y1341500D01*
X11297000Y1325500D01*
X11295670Y1307500D01*
X11297000Y1289500D01*
X11301000Y1273500D01*
X11306330Y1261500D01*
X11314330Y1251500D01*
X11325000Y1247500D01*
X11335670Y1251500D01*
X11343670Y1261500D01*
X11349000Y1273500D01*
X11353000Y1289500D01*
X11354330Y1307500D01*
X11353000Y1325500D01*
X11349000Y1341500D01*
X11343670Y1353500D01*
X11335670Y1363500D01*
X11325000Y1367500D01*
G01X11425000Y1247500D02*
X11434330Y1249500D01*
X11445000Y1255500D01*
X11451670Y1265500D01*
X11454330Y1279500D01*
X11451670Y1293500D01*
X11443670Y1305500D01*
X11431670Y1311500D01*
X11418330D01*
X11410330Y1315500D01*
X11403670Y1325500D01*
X11401000Y1339500D01*
X11405000Y1353500D01*
X11414330Y1363500D01*
X11425000Y1367500D01*
X11435670Y1363500D01*
X11445000Y1353500D01*
X11449000Y1339500D01*
X11446330Y1325500D01*
X11439670Y1315500D01*
X11431670Y1311500D01*
X11418330D01*
X11406330Y1305500D01*
X11398330Y1293500D01*
X11395670Y1279500D01*
X11398330Y1265500D01*
X11405000Y1255500D01*
X11415670Y1249500D01*
X11425000Y1247500D01*
G01X10410330Y1812500D02*
X10442330D01*
G01X10425000Y1838500D02*
Y1786500D01*
G01X10525000Y1892500D02*
X10514330Y1888500D01*
X10506330Y1878500D01*
X10501000Y1866500D01*
X10497000Y1850500D01*
X10495670Y1832500D01*
X10497000Y1814500D01*
X10501000Y1798500D01*
X10506330Y1786500D01*
X10514330Y1776500D01*
X10525000Y1772500D01*
X10535670Y1776500D01*
X10543670Y1786500D01*
X10549000Y1798500D01*
X10553000Y1814500D01*
X10554330Y1832500D01*
X10553000Y1850500D01*
X10549000Y1866500D01*
X10543670Y1878500D01*
X10535670Y1888500D01*
X10525000Y1892500D01*
G01X10625000Y1768500D02*
X10622330Y1770500D01*
Y1774500D01*
X10625000Y1776500D01*
X10627670Y1774500D01*
Y1770500D01*
X10625000Y1768500D01*
G01X10725000Y1892500D02*
X10714330Y1888500D01*
X10706330Y1878500D01*
X10701000Y1866500D01*
X10697000Y1850500D01*
X10695670Y1832500D01*
X10697000Y1814500D01*
X10701000Y1798500D01*
X10706330Y1786500D01*
X10714330Y1776500D01*
X10725000Y1772500D01*
X10735670Y1776500D01*
X10743670Y1786500D01*
X10749000Y1798500D01*
X10753000Y1814500D01*
X10754330Y1832500D01*
X10753000Y1850500D01*
X10749000Y1866500D01*
X10743670Y1878500D01*
X10735670Y1888500D01*
X10725000Y1892500D01*
G01X10825000Y1772500D02*
X10834330Y1774500D01*
X10845000Y1780500D01*
X10851670Y1790500D01*
X10854330Y1804500D01*
X10851670Y1818500D01*
X10843670Y1830500D01*
X10831670Y1836500D01*
X10818330D01*
X10810330Y1840500D01*
X10803670Y1850500D01*
X10801000Y1864500D01*
X10805000Y1878500D01*
X10814330Y1888500D01*
X10825000Y1892500D01*
X10835670Y1888500D01*
X10845000Y1878500D01*
X10849000Y1864500D01*
X10846330Y1850500D01*
X10839670Y1840500D01*
X10831670Y1836500D01*
X10818330D01*
X10806330Y1830500D01*
X10798330Y1818500D01*
X10795670Y1804500D01*
X10798330Y1790500D01*
X10805000Y1780500D01*
X10815670Y1774500D01*
X10825000Y1772500D01*
G01X10901000Y1768500D02*
X10949000Y1892500D01*
G01X11007670Y1812500D02*
X11042330D01*
G01X11125000Y1892500D02*
X11114330Y1888500D01*
X11106330Y1878500D01*
X11101000Y1866500D01*
X11097000Y1850500D01*
X11095670Y1832500D01*
X11097000Y1814500D01*
X11101000Y1798500D01*
X11106330Y1786500D01*
X11114330Y1776500D01*
X11125000Y1772500D01*
X11135670Y1776500D01*
X11143670Y1786500D01*
X11149000Y1798500D01*
X11153000Y1814500D01*
X11154330Y1832500D01*
X11153000Y1850500D01*
X11149000Y1866500D01*
X11143670Y1878500D01*
X11135670Y1888500D01*
X11125000Y1892500D01*
G01X11225000Y1768500D02*
X11222330Y1770500D01*
Y1774500D01*
X11225000Y1776500D01*
X11227670Y1774500D01*
Y1770500D01*
X11225000Y1768500D01*
G01X11325000Y1892500D02*
X11314330Y1888500D01*
X11306330Y1878500D01*
X11301000Y1866500D01*
X11297000Y1850500D01*
X11295670Y1832500D01*
X11297000Y1814500D01*
X11301000Y1798500D01*
X11306330Y1786500D01*
X11314330Y1776500D01*
X11325000Y1772500D01*
X11335670Y1776500D01*
X11343670Y1786500D01*
X11349000Y1798500D01*
X11353000Y1814500D01*
X11354330Y1832500D01*
X11353000Y1850500D01*
X11349000Y1866500D01*
X11343670Y1878500D01*
X11335670Y1888500D01*
X11325000Y1892500D01*
G01X11425000Y1772500D02*
X11434330Y1774500D01*
X11445000Y1780500D01*
X11451670Y1790500D01*
X11454330Y1804500D01*
X11451670Y1818500D01*
X11443670Y1830500D01*
X11431670Y1836500D01*
X11418330D01*
X11410330Y1840500D01*
X11403670Y1850500D01*
X11401000Y1864500D01*
X11405000Y1878500D01*
X11414330Y1888500D01*
X11425000Y1892500D01*
X11435670Y1888500D01*
X11445000Y1878500D01*
X11449000Y1864500D01*
X11446330Y1850500D01*
X11439670Y1840500D01*
X11431670Y1836500D01*
X11418330D01*
X11406330Y1830500D01*
X11398330Y1818500D01*
X11395670Y1804500D01*
X11398330Y1790500D01*
X11405000Y1780500D01*
X11415670Y1774500D01*
X11425000Y1772500D01*
G01X10510330Y2337500D02*
X10542330D01*
G01X10525000Y2363500D02*
Y2311500D01*
G01X10625000Y2417500D02*
X10614330Y2413500D01*
X10606330Y2403500D01*
X10601000Y2391500D01*
X10597000Y2375500D01*
X10595670Y2357500D01*
X10597000Y2339500D01*
X10601000Y2323500D01*
X10606330Y2311500D01*
X10614330Y2301500D01*
X10625000Y2297500D01*
X10635670Y2301500D01*
X10643670Y2311500D01*
X10649000Y2323500D01*
X10653000Y2339500D01*
X10654330Y2357500D01*
X10653000Y2375500D01*
X10649000Y2391500D01*
X10643670Y2403500D01*
X10635670Y2413500D01*
X10625000Y2417500D01*
G01X10725000Y2293500D02*
X10722330Y2295500D01*
Y2299500D01*
X10725000Y2301500D01*
X10727670Y2299500D01*
Y2295500D01*
X10725000Y2293500D01*
G01X10825000Y2297500D02*
Y2417500D01*
X10809000Y2393500D01*
G01Y2297500D02*
X10841000D01*
G01X10901000Y2293500D02*
X10949000Y2417500D01*
G01X11007670Y2337500D02*
X11042330D01*
G01X11125000Y2417500D02*
X11114330Y2413500D01*
X11106330Y2403500D01*
X11101000Y2391500D01*
X11097000Y2375500D01*
X11095670Y2357500D01*
X11097000Y2339500D01*
X11101000Y2323500D01*
X11106330Y2311500D01*
X11114330Y2301500D01*
X11125000Y2297500D01*
X11135670Y2301500D01*
X11143670Y2311500D01*
X11149000Y2323500D01*
X11153000Y2339500D01*
X11154330Y2357500D01*
X11153000Y2375500D01*
X11149000Y2391500D01*
X11143670Y2403500D01*
X11135670Y2413500D01*
X11125000Y2417500D01*
G01X11225000Y2293500D02*
X11222330Y2295500D01*
Y2299500D01*
X11225000Y2301500D01*
X11227670Y2299500D01*
Y2295500D01*
X11225000Y2293500D01*
G01X11325000Y2417500D02*
X11314330Y2413500D01*
X11306330Y2403500D01*
X11301000Y2391500D01*
X11297000Y2375500D01*
X11295670Y2357500D01*
X11297000Y2339500D01*
X11301000Y2323500D01*
X11306330Y2311500D01*
X11314330Y2301500D01*
X11325000Y2297500D01*
X11335670Y2301500D01*
X11343670Y2311500D01*
X11349000Y2323500D01*
X11353000Y2339500D01*
X11354330Y2357500D01*
X11353000Y2375500D01*
X11349000Y2391500D01*
X11343670Y2403500D01*
X11335670Y2413500D01*
X11325000Y2417500D01*
G01X10410330Y2862500D02*
X10442330D01*
G01X10425000Y2888500D02*
Y2836500D01*
G01X10525000Y2942500D02*
X10514330Y2938500D01*
X10506330Y2928500D01*
X10501000Y2916500D01*
X10497000Y2900500D01*
X10495670Y2882500D01*
X10497000Y2864500D01*
X10501000Y2848500D01*
X10506330Y2836500D01*
X10514330Y2826500D01*
X10525000Y2822500D01*
X10535670Y2826500D01*
X10543670Y2836500D01*
X10549000Y2848500D01*
X10553000Y2864500D01*
X10554330Y2882500D01*
X10553000Y2900500D01*
X10549000Y2916500D01*
X10543670Y2928500D01*
X10535670Y2938500D01*
X10525000Y2942500D01*
G01X10625000Y2818500D02*
X10622330Y2820500D01*
Y2824500D01*
X10625000Y2826500D01*
X10627670Y2824500D01*
Y2820500D01*
X10625000Y2818500D01*
G01X10725000Y2942500D02*
X10714330Y2938500D01*
X10706330Y2928500D01*
X10701000Y2916500D01*
X10697000Y2900500D01*
X10695670Y2882500D01*
X10697000Y2864500D01*
X10701000Y2848500D01*
X10706330Y2836500D01*
X10714330Y2826500D01*
X10725000Y2822500D01*
X10735670Y2826500D01*
X10743670Y2836500D01*
X10749000Y2848500D01*
X10753000Y2864500D01*
X10754330Y2882500D01*
X10753000Y2900500D01*
X10749000Y2916500D01*
X10743670Y2928500D01*
X10735670Y2938500D01*
X10725000Y2942500D01*
G01X10825000Y2822500D02*
X10834330Y2824500D01*
X10845000Y2830500D01*
X10851670Y2840500D01*
X10854330Y2854500D01*
X10851670Y2868500D01*
X10843670Y2880500D01*
X10831670Y2886500D01*
X10818330D01*
X10810330Y2890500D01*
X10803670Y2900500D01*
X10801000Y2914500D01*
X10805000Y2928500D01*
X10814330Y2938500D01*
X10825000Y2942500D01*
X10835670Y2938500D01*
X10845000Y2928500D01*
X10849000Y2914500D01*
X10846330Y2900500D01*
X10839670Y2890500D01*
X10831670Y2886500D01*
X10818330D01*
X10806330Y2880500D01*
X10798330Y2868500D01*
X10795670Y2854500D01*
X10798330Y2840500D01*
X10805000Y2830500D01*
X10815670Y2824500D01*
X10825000Y2822500D01*
G01X10901000Y2818500D02*
X10949000Y2942500D01*
G01X11007670Y2862500D02*
X11042330D01*
G01X11125000Y2942500D02*
X11114330Y2938500D01*
X11106330Y2928500D01*
X11101000Y2916500D01*
X11097000Y2900500D01*
X11095670Y2882500D01*
X11097000Y2864500D01*
X11101000Y2848500D01*
X11106330Y2836500D01*
X11114330Y2826500D01*
X11125000Y2822500D01*
X11135670Y2826500D01*
X11143670Y2836500D01*
X11149000Y2848500D01*
X11153000Y2864500D01*
X11154330Y2882500D01*
X11153000Y2900500D01*
X11149000Y2916500D01*
X11143670Y2928500D01*
X11135670Y2938500D01*
X11125000Y2942500D01*
G01X11225000Y2818500D02*
X11222330Y2820500D01*
Y2824500D01*
X11225000Y2826500D01*
X11227670Y2824500D01*
Y2820500D01*
X11225000Y2818500D01*
G01X11325000Y2942500D02*
X11314330Y2938500D01*
X11306330Y2928500D01*
X11301000Y2916500D01*
X11297000Y2900500D01*
X11295670Y2882500D01*
X11297000Y2864500D01*
X11301000Y2848500D01*
X11306330Y2836500D01*
X11314330Y2826500D01*
X11325000Y2822500D01*
X11335670Y2826500D01*
X11343670Y2836500D01*
X11349000Y2848500D01*
X11353000Y2864500D01*
X11354330Y2882500D01*
X11353000Y2900500D01*
X11349000Y2916500D01*
X11343670Y2928500D01*
X11335670Y2938500D01*
X11325000Y2942500D01*
G01X11425000Y2822500D02*
X11434330Y2824500D01*
X11445000Y2830500D01*
X11451670Y2840500D01*
X11454330Y2854500D01*
X11451670Y2868500D01*
X11443670Y2880500D01*
X11431670Y2886500D01*
X11418330D01*
X11410330Y2890500D01*
X11403670Y2900500D01*
X11401000Y2914500D01*
X11405000Y2928500D01*
X11414330Y2938500D01*
X11425000Y2942500D01*
X11435670Y2938500D01*
X11445000Y2928500D01*
X11449000Y2914500D01*
X11446330Y2900500D01*
X11439670Y2890500D01*
X11431670Y2886500D01*
X11418330D01*
X11406330Y2880500D01*
X11398330Y2868500D01*
X11395670Y2854500D01*
X11398330Y2840500D01*
X11405000Y2830500D01*
X11415670Y2824500D01*
X11425000Y2822500D01*
G01X10410330Y3387500D02*
X10442330D01*
G01X10425000Y3413500D02*
Y3361500D01*
G01X10525000Y3467500D02*
X10514330Y3463500D01*
X10506330Y3453500D01*
X10501000Y3441500D01*
X10497000Y3425500D01*
X10495670Y3407500D01*
X10497000Y3389500D01*
X10501000Y3373500D01*
X10506330Y3361500D01*
X10514330Y3351500D01*
X10525000Y3347500D01*
X10535670Y3351500D01*
X10543670Y3361500D01*
X10549000Y3373500D01*
X10553000Y3389500D01*
X10554330Y3407500D01*
X10553000Y3425500D01*
X10549000Y3441500D01*
X10543670Y3453500D01*
X10535670Y3463500D01*
X10525000Y3467500D01*
G01X10625000Y3343500D02*
X10622330Y3345500D01*
Y3349500D01*
X10625000Y3351500D01*
X10627670Y3349500D01*
Y3345500D01*
X10625000Y3343500D01*
G01X10725000Y3467500D02*
X10714330Y3463500D01*
X10706330Y3453500D01*
X10701000Y3441500D01*
X10697000Y3425500D01*
X10695670Y3407500D01*
X10697000Y3389500D01*
X10701000Y3373500D01*
X10706330Y3361500D01*
X10714330Y3351500D01*
X10725000Y3347500D01*
X10735670Y3351500D01*
X10743670Y3361500D01*
X10749000Y3373500D01*
X10753000Y3389500D01*
X10754330Y3407500D01*
X10753000Y3425500D01*
X10749000Y3441500D01*
X10743670Y3453500D01*
X10735670Y3463500D01*
X10725000Y3467500D01*
G01X10825000Y3347500D02*
X10834330Y3349500D01*
X10845000Y3355500D01*
X10851670Y3365500D01*
X10854330Y3379500D01*
X10851670Y3393500D01*
X10843670Y3405500D01*
X10831670Y3411500D01*
X10818330D01*
X10810330Y3415500D01*
X10803670Y3425500D01*
X10801000Y3439500D01*
X10805000Y3453500D01*
X10814330Y3463500D01*
X10825000Y3467500D01*
X10835670Y3463500D01*
X10845000Y3453500D01*
X10849000Y3439500D01*
X10846330Y3425500D01*
X10839670Y3415500D01*
X10831670Y3411500D01*
X10818330D01*
X10806330Y3405500D01*
X10798330Y3393500D01*
X10795670Y3379500D01*
X10798330Y3365500D01*
X10805000Y3355500D01*
X10815670Y3349500D01*
X10825000Y3347500D01*
G01X10901000Y3343500D02*
X10949000Y3467500D01*
G01X11007670Y3387500D02*
X11042330D01*
G01X11125000Y3467500D02*
X11114330Y3463500D01*
X11106330Y3453500D01*
X11101000Y3441500D01*
X11097000Y3425500D01*
X11095670Y3407500D01*
X11097000Y3389500D01*
X11101000Y3373500D01*
X11106330Y3361500D01*
X11114330Y3351500D01*
X11125000Y3347500D01*
X11135670Y3351500D01*
X11143670Y3361500D01*
X11149000Y3373500D01*
X11153000Y3389500D01*
X11154330Y3407500D01*
X11153000Y3425500D01*
X11149000Y3441500D01*
X11143670Y3453500D01*
X11135670Y3463500D01*
X11125000Y3467500D01*
G01X11225000Y3343500D02*
X11222330Y3345500D01*
Y3349500D01*
X11225000Y3351500D01*
X11227670Y3349500D01*
Y3345500D01*
X11225000Y3343500D01*
G01X11325000Y3467500D02*
X11314330Y3463500D01*
X11306330Y3453500D01*
X11301000Y3441500D01*
X11297000Y3425500D01*
X11295670Y3407500D01*
X11297000Y3389500D01*
X11301000Y3373500D01*
X11306330Y3361500D01*
X11314330Y3351500D01*
X11325000Y3347500D01*
X11335670Y3351500D01*
X11343670Y3361500D01*
X11349000Y3373500D01*
X11353000Y3389500D01*
X11354330Y3407500D01*
X11353000Y3425500D01*
X11349000Y3441500D01*
X11343670Y3453500D01*
X11335670Y3463500D01*
X11325000Y3467500D01*
G01X11425000Y3347500D02*
X11434330Y3349500D01*
X11445000Y3355500D01*
X11451670Y3365500D01*
X11454330Y3379500D01*
X11451670Y3393500D01*
X11443670Y3405500D01*
X11431670Y3411500D01*
X11418330D01*
X11410330Y3415500D01*
X11403670Y3425500D01*
X11401000Y3439500D01*
X11405000Y3453500D01*
X11414330Y3463500D01*
X11425000Y3467500D01*
X11435670Y3463500D01*
X11445000Y3453500D01*
X11449000Y3439500D01*
X11446330Y3425500D01*
X11439670Y3415500D01*
X11431670Y3411500D01*
X11418330D01*
X11406330Y3405500D01*
X11398330Y3393500D01*
X11395670Y3379500D01*
X11398330Y3365500D01*
X11405000Y3355500D01*
X11415670Y3349500D01*
X11425000Y3347500D01*
G01X10410330Y3912500D02*
X10442330D01*
G01X10425000Y3938500D02*
Y3886500D01*
G01X10525000Y3992500D02*
X10514330Y3988500D01*
X10506330Y3978500D01*
X10501000Y3966500D01*
X10497000Y3950500D01*
X10495670Y3932500D01*
X10497000Y3914500D01*
X10501000Y3898500D01*
X10506330Y3886500D01*
X10514330Y3876500D01*
X10525000Y3872500D01*
X10535670Y3876500D01*
X10543670Y3886500D01*
X10549000Y3898500D01*
X10553000Y3914500D01*
X10554330Y3932500D01*
X10553000Y3950500D01*
X10549000Y3966500D01*
X10543670Y3978500D01*
X10535670Y3988500D01*
X10525000Y3992500D01*
G01X10625000Y3868500D02*
X10622330Y3870500D01*
Y3874500D01*
X10625000Y3876500D01*
X10627670Y3874500D01*
Y3870500D01*
X10625000Y3868500D01*
G01X10725000Y3992500D02*
X10714330Y3988500D01*
X10706330Y3978500D01*
X10701000Y3966500D01*
X10697000Y3950500D01*
X10695670Y3932500D01*
X10697000Y3914500D01*
X10701000Y3898500D01*
X10706330Y3886500D01*
X10714330Y3876500D01*
X10725000Y3872500D01*
X10735670Y3876500D01*
X10743670Y3886500D01*
X10749000Y3898500D01*
X10753000Y3914500D01*
X10754330Y3932500D01*
X10753000Y3950500D01*
X10749000Y3966500D01*
X10743670Y3978500D01*
X10735670Y3988500D01*
X10725000Y3992500D01*
G01X10825000Y3872500D02*
X10834330Y3874500D01*
X10845000Y3880500D01*
X10851670Y3890500D01*
X10854330Y3904500D01*
X10851670Y3918500D01*
X10843670Y3930500D01*
X10831670Y3936500D01*
X10818330D01*
X10810330Y3940500D01*
X10803670Y3950500D01*
X10801000Y3964500D01*
X10805000Y3978500D01*
X10814330Y3988500D01*
X10825000Y3992500D01*
X10835670Y3988500D01*
X10845000Y3978500D01*
X10849000Y3964500D01*
X10846330Y3950500D01*
X10839670Y3940500D01*
X10831670Y3936500D01*
X10818330D01*
X10806330Y3930500D01*
X10798330Y3918500D01*
X10795670Y3904500D01*
X10798330Y3890500D01*
X10805000Y3880500D01*
X10815670Y3874500D01*
X10825000Y3872500D01*
G01X10901000Y3868500D02*
X10949000Y3992500D01*
G01X11007670Y3912500D02*
X11042330D01*
G01X11125000Y3992500D02*
X11114330Y3988500D01*
X11106330Y3978500D01*
X11101000Y3966500D01*
X11097000Y3950500D01*
X11095670Y3932500D01*
X11097000Y3914500D01*
X11101000Y3898500D01*
X11106330Y3886500D01*
X11114330Y3876500D01*
X11125000Y3872500D01*
X11135670Y3876500D01*
X11143670Y3886500D01*
X11149000Y3898500D01*
X11153000Y3914500D01*
X11154330Y3932500D01*
X11153000Y3950500D01*
X11149000Y3966500D01*
X11143670Y3978500D01*
X11135670Y3988500D01*
X11125000Y3992500D01*
G01X11225000Y3868500D02*
X11222330Y3870500D01*
Y3874500D01*
X11225000Y3876500D01*
X11227670Y3874500D01*
Y3870500D01*
X11225000Y3868500D01*
G01X11325000Y3992500D02*
X11314330Y3988500D01*
X11306330Y3978500D01*
X11301000Y3966500D01*
X11297000Y3950500D01*
X11295670Y3932500D01*
X11297000Y3914500D01*
X11301000Y3898500D01*
X11306330Y3886500D01*
X11314330Y3876500D01*
X11325000Y3872500D01*
X11335670Y3876500D01*
X11343670Y3886500D01*
X11349000Y3898500D01*
X11353000Y3914500D01*
X11354330Y3932500D01*
X11353000Y3950500D01*
X11349000Y3966500D01*
X11343670Y3978500D01*
X11335670Y3988500D01*
X11325000Y3992500D01*
G01X11425000Y3872500D02*
X11434330Y3874500D01*
X11445000Y3880500D01*
X11451670Y3890500D01*
X11454330Y3904500D01*
X11451670Y3918500D01*
X11443670Y3930500D01*
X11431670Y3936500D01*
X11418330D01*
X11410330Y3940500D01*
X11403670Y3950500D01*
X11401000Y3964500D01*
X11405000Y3978500D01*
X11414330Y3988500D01*
X11425000Y3992500D01*
X11435670Y3988500D01*
X11445000Y3978500D01*
X11449000Y3964500D01*
X11446330Y3950500D01*
X11439670Y3940500D01*
X11431670Y3936500D01*
X11418330D01*
X11406330Y3930500D01*
X11398330Y3918500D01*
X11395670Y3904500D01*
X11398330Y3890500D01*
X11405000Y3880500D01*
X11415670Y3874500D01*
X11425000Y3872500D01*
G01X10525000Y4375000D02*
Y4255000D01*
G01X10494330Y4375000D02*
X10555670D01*
G01X10625000Y4255000D02*
X10614330Y4257000D01*
X10605000Y4265000D01*
X10597000Y4277000D01*
X10591670Y4291000D01*
X10589000Y4307000D01*
Y4323000D01*
X10591670Y4339000D01*
X10597000Y4353000D01*
X10605000Y4365000D01*
X10614330Y4373000D01*
X10625000Y4375000D01*
X10635670Y4373000D01*
X10645000Y4365000D01*
X10653000Y4353000D01*
X10658330Y4339000D01*
X10661000Y4323000D01*
Y4307000D01*
X10658330Y4291000D01*
X10653000Y4277000D01*
X10645000Y4265000D01*
X10635670Y4257000D01*
X10625000Y4255000D01*
G01X10698330Y4375000D02*
Y4255000D01*
X10751670D01*
G01X10851670D02*
X10798330D01*
Y4375000D01*
X10851670D01*
G01X10830330Y4317000D02*
X10798330D01*
G01X10898330Y4255000D02*
Y4375000D01*
X10931670D01*
X10942330Y4369000D01*
X10949000Y4361000D01*
X10951670Y4345000D01*
X10949000Y4329000D01*
X10941000Y4319000D01*
X10931670Y4313000D01*
X10898330D01*
G01X10931670D02*
X10951670Y4255000D01*
G01X10991670D02*
X11025000Y4375000D01*
X11058330Y4255000D01*
G01X11046330Y4297000D02*
X11003670D01*
G01X11094330Y4255000D02*
Y4375000D01*
X11155670Y4255000D01*
Y4375000D01*
G01X11254330Y4365000D02*
X11246330Y4371000D01*
X11237000Y4375000D01*
X11226330D01*
X11214330Y4369000D01*
X11205000Y4359000D01*
X11198330Y4347000D01*
X11193000Y4327000D01*
X11191670Y4309000D01*
X11194330Y4291000D01*
X11198330Y4279000D01*
X11206330Y4267000D01*
X11215670Y4259000D01*
X11225000Y4255000D01*
X11234330D01*
X11243670Y4259000D01*
X11251670Y4265000D01*
X11258330Y4273000D01*
G01X11351670Y4255000D02*
X11298330D01*
Y4375000D01*
X11351670D01*
G01X11330330Y4317000D02*
X11298330D01*
G01X11918330Y-1377500D02*
Y-1257500D01*
X11950330D01*
X11961000Y-1263500D01*
X11969000Y-1277500D01*
X11971670Y-1293500D01*
X11969000Y-1309500D01*
X11962330Y-1321500D01*
X11950330Y-1327500D01*
X11918330D01*
G01X12018330Y-1257500D02*
Y-1377500D01*
X12071670D01*
G01X12111670D02*
X12145000Y-1257500D01*
X12178330Y-1377500D01*
G01X12166330Y-1335500D02*
X12123670D01*
G01X12245000Y-1257500D02*
Y-1377500D01*
G01X12214330Y-1257500D02*
X12275670D01*
G01X12371670Y-1377500D02*
X12318330D01*
Y-1257500D01*
X12371670D01*
G01X12350330Y-1315500D02*
X12318330D01*
G01X12415670Y-1377500D02*
Y-1257500D01*
X12442330D01*
X12453000Y-1263500D01*
X12461000Y-1271500D01*
X12467670Y-1283500D01*
X12473000Y-1297500D01*
X12474330Y-1317500D01*
X12473000Y-1337500D01*
X12467670Y-1351500D01*
X12461000Y-1363500D01*
X12453000Y-1371500D01*
X12442330Y-1377500D01*
X12415670D01*
G01X11918330Y-852500D02*
Y-732500D01*
X11950330D01*
X11961000Y-738500D01*
X11969000Y-752500D01*
X11971670Y-768500D01*
X11969000Y-784500D01*
X11962330Y-796500D01*
X11950330Y-802500D01*
X11918330D01*
G01X12018330Y-732500D02*
Y-852500D01*
X12071670D01*
G01X12111670D02*
X12145000Y-732500D01*
X12178330Y-852500D01*
G01X12166330Y-810500D02*
X12123670D01*
G01X12245000Y-732500D02*
Y-852500D01*
G01X12214330Y-732500D02*
X12275670D01*
G01X12371670Y-852500D02*
X12318330D01*
Y-732500D01*
X12371670D01*
G01X12350330Y-790500D02*
X12318330D01*
G01X12415670Y-852500D02*
Y-732500D01*
X12442330D01*
X12453000Y-738500D01*
X12461000Y-746500D01*
X12467670Y-758500D01*
X12473000Y-772500D01*
X12474330Y-792500D01*
X12473000Y-812500D01*
X12467670Y-826500D01*
X12461000Y-838500D01*
X12453000Y-846500D01*
X12442330Y-852500D01*
X12415670D01*
G01X11918330Y-327500D02*
Y-207500D01*
X11950330D01*
X11961000Y-213500D01*
X11969000Y-227500D01*
X11971670Y-243500D01*
X11969000Y-259500D01*
X11962330Y-271500D01*
X11950330Y-277500D01*
X11918330D01*
G01X12018330Y-207500D02*
Y-327500D01*
X12071670D01*
G01X12111670D02*
X12145000Y-207500D01*
X12178330Y-327500D01*
G01X12166330Y-285500D02*
X12123670D01*
G01X12245000Y-207500D02*
Y-327500D01*
G01X12214330Y-207500D02*
X12275670D01*
G01X12371670Y-327500D02*
X12318330D01*
Y-207500D01*
X12371670D01*
G01X12350330Y-265500D02*
X12318330D01*
G01X12415670Y-327500D02*
Y-207500D01*
X12442330D01*
X12453000Y-213500D01*
X12461000Y-221500D01*
X12467670Y-233500D01*
X12473000Y-247500D01*
X12474330Y-267500D01*
X12473000Y-287500D01*
X12467670Y-301500D01*
X12461000Y-313500D01*
X12453000Y-321500D01*
X12442330Y-327500D01*
X12415670D01*
G01X11918330Y197500D02*
Y317500D01*
X11950330D01*
X11961000Y311500D01*
X11969000Y297500D01*
X11971670Y281500D01*
X11969000Y265500D01*
X11962330Y253500D01*
X11950330Y247500D01*
X11918330D01*
G01X12018330Y317500D02*
Y197500D01*
X12071670D01*
G01X12111670D02*
X12145000Y317500D01*
X12178330Y197500D01*
G01X12166330Y239500D02*
X12123670D01*
G01X12245000Y317500D02*
Y197500D01*
G01X12214330Y317500D02*
X12275670D01*
G01X12371670Y197500D02*
X12318330D01*
Y317500D01*
X12371670D01*
G01X12350330Y259500D02*
X12318330D01*
G01X12415670Y197500D02*
Y317500D01*
X12442330D01*
X12453000Y311500D01*
X12461000Y303500D01*
X12467670Y291500D01*
X12473000Y277500D01*
X12474330Y257500D01*
X12473000Y237500D01*
X12467670Y223500D01*
X12461000Y211500D01*
X12453000Y203500D01*
X12442330Y197500D01*
X12415670D01*
G01X11918330Y722500D02*
Y842500D01*
X11950330D01*
X11961000Y836500D01*
X11969000Y822500D01*
X11971670Y806500D01*
X11969000Y790500D01*
X11962330Y778500D01*
X11950330Y772500D01*
X11918330D01*
G01X12018330Y842500D02*
Y722500D01*
X12071670D01*
G01X12111670D02*
X12145000Y842500D01*
X12178330Y722500D01*
G01X12166330Y764500D02*
X12123670D01*
G01X12245000Y842500D02*
Y722500D01*
G01X12214330Y842500D02*
X12275670D01*
G01X12371670Y722500D02*
X12318330D01*
Y842500D01*
X12371670D01*
G01X12350330Y784500D02*
X12318330D01*
G01X12415670Y722500D02*
Y842500D01*
X12442330D01*
X12453000Y836500D01*
X12461000Y828500D01*
X12467670Y816500D01*
X12473000Y802500D01*
X12474330Y782500D01*
X12473000Y762500D01*
X12467670Y748500D01*
X12461000Y736500D01*
X12453000Y728500D01*
X12442330Y722500D01*
X12415670D01*
G01X11714330Y1247500D02*
Y1367500D01*
X11775670Y1247500D01*
Y1367500D01*
G01X11845000Y1247500D02*
X11834330Y1249500D01*
X11825000Y1257500D01*
X11817000Y1269500D01*
X11811670Y1283500D01*
X11809000Y1299500D01*
Y1315500D01*
X11811670Y1331500D01*
X11817000Y1345500D01*
X11825000Y1357500D01*
X11834330Y1365500D01*
X11845000Y1367500D01*
X11855670Y1365500D01*
X11865000Y1357500D01*
X11873000Y1345500D01*
X11878330Y1331500D01*
X11881000Y1315500D01*
Y1299500D01*
X11878330Y1283500D01*
X11873000Y1269500D01*
X11865000Y1257500D01*
X11855670Y1249500D01*
X11845000Y1247500D01*
G01X11914330D02*
Y1367500D01*
X11975670Y1247500D01*
Y1367500D01*
G01X12027670Y1287500D02*
X12062330D01*
G01X12118330Y1247500D02*
Y1367500D01*
X12150330D01*
X12161000Y1361500D01*
X12169000Y1347500D01*
X12171670Y1331500D01*
X12169000Y1315500D01*
X12162330Y1303500D01*
X12150330Y1297500D01*
X12118330D01*
G01X12218330Y1367500D02*
Y1247500D01*
X12271670D01*
G01X12311670D02*
X12345000Y1367500D01*
X12378330Y1247500D01*
G01X12366330Y1289500D02*
X12323670D01*
G01X12445000Y1367500D02*
Y1247500D01*
G01X12414330Y1367500D02*
X12475670D01*
G01X12571670Y1247500D02*
X12518330D01*
Y1367500D01*
X12571670D01*
G01X12550330Y1309500D02*
X12518330D01*
G01X12615670Y1247500D02*
Y1367500D01*
X12642330D01*
X12653000Y1361500D01*
X12661000Y1353500D01*
X12667670Y1341500D01*
X12673000Y1327500D01*
X12674330Y1307500D01*
X12673000Y1287500D01*
X12667670Y1273500D01*
X12661000Y1261500D01*
X12653000Y1253500D01*
X12642330Y1247500D01*
X12615670D01*
G01X11918330Y1772500D02*
Y1892500D01*
X11950330D01*
X11961000Y1886500D01*
X11969000Y1872500D01*
X11971670Y1856500D01*
X11969000Y1840500D01*
X11962330Y1828500D01*
X11950330Y1822500D01*
X11918330D01*
G01X12018330Y1892500D02*
Y1772500D01*
X12071670D01*
G01X12111670D02*
X12145000Y1892500D01*
X12178330Y1772500D01*
G01X12166330Y1814500D02*
X12123670D01*
G01X12245000Y1892500D02*
Y1772500D01*
G01X12214330Y1892500D02*
X12275670D01*
G01X12371670Y1772500D02*
X12318330D01*
Y1892500D01*
X12371670D01*
G01X12350330Y1834500D02*
X12318330D01*
G01X12415670Y1772500D02*
Y1892500D01*
X12442330D01*
X12453000Y1886500D01*
X12461000Y1878500D01*
X12467670Y1866500D01*
X12473000Y1852500D01*
X12474330Y1832500D01*
X12473000Y1812500D01*
X12467670Y1798500D01*
X12461000Y1786500D01*
X12453000Y1778500D01*
X12442330Y1772500D01*
X12415670D01*
G01X11918330Y2297500D02*
Y2417500D01*
X11950330D01*
X11961000Y2411500D01*
X11969000Y2397500D01*
X11971670Y2381500D01*
X11969000Y2365500D01*
X11962330Y2353500D01*
X11950330Y2347500D01*
X11918330D01*
G01X12018330Y2417500D02*
Y2297500D01*
X12071670D01*
G01X12111670D02*
X12145000Y2417500D01*
X12178330Y2297500D01*
G01X12166330Y2339500D02*
X12123670D01*
G01X12245000Y2417500D02*
Y2297500D01*
G01X12214330Y2417500D02*
X12275670D01*
G01X12371670Y2297500D02*
X12318330D01*
Y2417500D01*
X12371670D01*
G01X12350330Y2359500D02*
X12318330D01*
G01X12415670Y2297500D02*
Y2417500D01*
X12442330D01*
X12453000Y2411500D01*
X12461000Y2403500D01*
X12467670Y2391500D01*
X12473000Y2377500D01*
X12474330Y2357500D01*
X12473000Y2337500D01*
X12467670Y2323500D01*
X12461000Y2311500D01*
X12453000Y2303500D01*
X12442330Y2297500D01*
X12415670D01*
G01X11918330Y2822500D02*
Y2942500D01*
X11950330D01*
X11961000Y2936500D01*
X11969000Y2922500D01*
X11971670Y2906500D01*
X11969000Y2890500D01*
X11962330Y2878500D01*
X11950330Y2872500D01*
X11918330D01*
G01X12018330Y2942500D02*
Y2822500D01*
X12071670D01*
G01X12111670D02*
X12145000Y2942500D01*
X12178330Y2822500D01*
G01X12166330Y2864500D02*
X12123670D01*
G01X12245000Y2942500D02*
Y2822500D01*
G01X12214330Y2942500D02*
X12275670D01*
G01X12371670Y2822500D02*
X12318330D01*
Y2942500D01*
X12371670D01*
G01X12350330Y2884500D02*
X12318330D01*
G01X12415670Y2822500D02*
Y2942500D01*
X12442330D01*
X12453000Y2936500D01*
X12461000Y2928500D01*
X12467670Y2916500D01*
X12473000Y2902500D01*
X12474330Y2882500D01*
X12473000Y2862500D01*
X12467670Y2848500D01*
X12461000Y2836500D01*
X12453000Y2828500D01*
X12442330Y2822500D01*
X12415670D01*
G01X11918330Y3347500D02*
Y3467500D01*
X11950330D01*
X11961000Y3461500D01*
X11969000Y3447500D01*
X11971670Y3431500D01*
X11969000Y3415500D01*
X11962330Y3403500D01*
X11950330Y3397500D01*
X11918330D01*
G01X12018330Y3467500D02*
Y3347500D01*
X12071670D01*
G01X12111670D02*
X12145000Y3467500D01*
X12178330Y3347500D01*
G01X12166330Y3389500D02*
X12123670D01*
G01X12245000Y3467500D02*
Y3347500D01*
G01X12214330Y3467500D02*
X12275670D01*
G01X12371670Y3347500D02*
X12318330D01*
Y3467500D01*
X12371670D01*
G01X12350330Y3409500D02*
X12318330D01*
G01X12415670Y3347500D02*
Y3467500D01*
X12442330D01*
X12453000Y3461500D01*
X12461000Y3453500D01*
X12467670Y3441500D01*
X12473000Y3427500D01*
X12474330Y3407500D01*
X12473000Y3387500D01*
X12467670Y3373500D01*
X12461000Y3361500D01*
X12453000Y3353500D01*
X12442330Y3347500D01*
X12415670D01*
G01X11918330Y3872500D02*
Y3992500D01*
X11950330D01*
X11961000Y3986500D01*
X11969000Y3972500D01*
X11971670Y3956500D01*
X11969000Y3940500D01*
X11962330Y3928500D01*
X11950330Y3922500D01*
X11918330D01*
G01X12018330Y3992500D02*
Y3872500D01*
X12071670D01*
G01X12111670D02*
X12145000Y3992500D01*
X12178330Y3872500D01*
G01X12166330Y3914500D02*
X12123670D01*
G01X12245000Y3992500D02*
Y3872500D01*
G01X12214330Y3992500D02*
X12275670D01*
G01X12371670Y3872500D02*
X12318330D01*
Y3992500D01*
X12371670D01*
G01X12350330Y3934500D02*
X12318330D01*
G01X12415670Y3872500D02*
Y3992500D01*
X12442330D01*
X12453000Y3986500D01*
X12461000Y3978500D01*
X12467670Y3966500D01*
X12473000Y3952500D01*
X12474330Y3932500D01*
X12473000Y3912500D01*
X12467670Y3898500D01*
X12461000Y3886500D01*
X12453000Y3878500D01*
X12442330Y3872500D01*
X12415670D01*
G01X11918330Y4255000D02*
Y4375000D01*
X11950330D01*
X11961000Y4369000D01*
X11969000Y4355000D01*
X11971670Y4339000D01*
X11969000Y4323000D01*
X11962330Y4311000D01*
X11950330Y4305000D01*
X11918330D01*
G01X12018330Y4375000D02*
Y4255000D01*
X12071670D01*
G01X12111670D02*
X12145000Y4375000D01*
X12178330Y4255000D01*
G01X12166330Y4297000D02*
X12123670D01*
G01X12245000Y4375000D02*
Y4255000D01*
G01X12214330Y4375000D02*
X12275670D01*
G01X12371670Y4255000D02*
X12318330D01*
Y4375000D01*
X12371670D01*
G01X12350330Y4317000D02*
X12318330D01*
G01X12415670Y4255000D02*
Y4375000D01*
X12442330D01*
X12453000Y4369000D01*
X12461000Y4361000D01*
X12467670Y4349000D01*
X12473000Y4335000D01*
X12474330Y4315000D01*
X12473000Y4295000D01*
X12467670Y4281000D01*
X12461000Y4269000D01*
X12453000Y4261000D01*
X12442330Y4255000D01*
X12415670D01*
G01X13015000Y-1377500D02*
Y-1257500D01*
X12999000Y-1281500D01*
G01Y-1377500D02*
X13031000D01*
G01X13015000Y-852500D02*
Y-732500D01*
X12999000Y-756500D01*
G01Y-852500D02*
X13031000D01*
G01X13015000Y-327500D02*
Y-207500D01*
X12999000Y-231500D01*
G01Y-327500D02*
X13031000D01*
G01X12989670Y297500D02*
X12997670Y309500D01*
X13007000Y315500D01*
X13017670Y317500D01*
X13031000Y313500D01*
X13040330Y303500D01*
X13043000Y291500D01*
X13041670Y279500D01*
X13036330Y269500D01*
X13009670Y249500D01*
X12997670Y235500D01*
X12989670Y215500D01*
X12987000Y197500D01*
X13043000D01*
G01X12989670Y822500D02*
X12997670Y834500D01*
X13007000Y840500D01*
X13017670Y842500D01*
X13031000Y838500D01*
X13040330Y828500D01*
X13043000Y816500D01*
X13041670Y804500D01*
X13036330Y794500D01*
X13009670Y774500D01*
X12997670Y760500D01*
X12989670Y740500D01*
X12987000Y722500D01*
X13043000D01*
G01X12985670Y1271500D02*
X12993670Y1257500D01*
X13004330Y1249500D01*
X13016330Y1247500D01*
X13027000Y1249500D01*
X13037670Y1259500D01*
X13044330Y1271500D01*
X13045670Y1283500D01*
X13043000Y1297500D01*
X13033670Y1307500D01*
X13024330Y1311500D01*
X13012330D01*
G01X13024330D02*
X13032330Y1317500D01*
X13039000Y1327500D01*
X13041670Y1339500D01*
X13039000Y1351500D01*
X13032330Y1361500D01*
X13020330Y1367500D01*
X13008330Y1365500D01*
X12996330Y1357500D01*
G01X12989670Y1822500D02*
X12999000Y1836500D01*
X13007000Y1844500D01*
X13017670Y1848500D01*
X13027000Y1844500D01*
X13033670Y1836500D01*
X13039000Y1824500D01*
X13040330Y1810500D01*
X13039000Y1798500D01*
X13033670Y1786500D01*
X13025670Y1776500D01*
X13016330Y1772500D01*
X13005670Y1776500D01*
X12996330Y1788500D01*
X12991000Y1806500D01*
X12989670Y1826500D01*
X12992330Y1852500D01*
X12996330Y1866500D01*
X13003000Y1880500D01*
X13012330Y1890500D01*
X13021670Y1892500D01*
X13031000Y1888500D01*
X13037670Y1878500D01*
G01X12935670Y2321500D02*
X12943670Y2307500D01*
X12954330Y2299500D01*
X12966330Y2297500D01*
X12977000Y2299500D01*
X12987670Y2309500D01*
X12994330Y2321500D01*
X12995670Y2333500D01*
X12993000Y2347500D01*
X12983670Y2357500D01*
X12974330Y2361500D01*
X12962330D01*
G01X12974330D02*
X12982330Y2367500D01*
X12989000Y2377500D01*
X12991670Y2389500D01*
X12989000Y2401500D01*
X12982330Y2411500D01*
X12970330Y2417500D01*
X12958330Y2415500D01*
X12946330Y2407500D01*
G01X13039670Y2397500D02*
X13047670Y2409500D01*
X13057000Y2415500D01*
X13067670Y2417500D01*
X13081000Y2413500D01*
X13090330Y2403500D01*
X13093000Y2391500D01*
X13091670Y2379500D01*
X13086330Y2369500D01*
X13059670Y2349500D01*
X13047670Y2335500D01*
X13039670Y2315500D01*
X13037000Y2297500D01*
X13093000D01*
G01X12939670Y2922500D02*
X12947670Y2934500D01*
X12957000Y2940500D01*
X12967670Y2942500D01*
X12981000Y2938500D01*
X12990330Y2928500D01*
X12993000Y2916500D01*
X12991670Y2904500D01*
X12986330Y2894500D01*
X12959670Y2874500D01*
X12947670Y2860500D01*
X12939670Y2840500D01*
X12937000Y2822500D01*
X12993000D01*
G01X13035670Y2840500D02*
X13043670Y2830500D01*
X13053000Y2824500D01*
X13065000Y2822500D01*
X13077000Y2826500D01*
X13086330Y2834500D01*
X13093000Y2848500D01*
X13094330Y2864500D01*
X13091670Y2880500D01*
X13085000Y2890500D01*
X13075670Y2898500D01*
X13066330Y2900500D01*
X13057000Y2898500D01*
X13045000Y2890500D01*
X13049000Y2942500D01*
X13085000D01*
G01X12939670Y3397500D02*
X12949000Y3411500D01*
X12957000Y3419500D01*
X12967670Y3423500D01*
X12977000Y3419500D01*
X12983670Y3411500D01*
X12989000Y3399500D01*
X12990330Y3385500D01*
X12989000Y3373500D01*
X12983670Y3361500D01*
X12975670Y3351500D01*
X12966330Y3347500D01*
X12955670Y3351500D01*
X12946330Y3363500D01*
X12941000Y3381500D01*
X12939670Y3401500D01*
X12942330Y3427500D01*
X12946330Y3441500D01*
X12953000Y3455500D01*
X12962330Y3465500D01*
X12971670Y3467500D01*
X12981000Y3463500D01*
X12987670Y3453500D01*
G01X13065000Y3347500D02*
Y3467500D01*
X13049000Y3443500D01*
G01Y3347500D02*
X13081000D01*
G01X12885670Y3896500D02*
X12893670Y3882500D01*
X12904330Y3874500D01*
X12916330Y3872500D01*
X12927000Y3874500D01*
X12937670Y3884500D01*
X12944330Y3896500D01*
X12945670Y3908500D01*
X12943000Y3922500D01*
X12933670Y3932500D01*
X12924330Y3936500D01*
X12912330D01*
G01X12924330D02*
X12932330Y3942500D01*
X12939000Y3952500D01*
X12941670Y3964500D01*
X12939000Y3976500D01*
X12932330Y3986500D01*
X12920330Y3992500D01*
X12908330Y3990500D01*
X12896330Y3982500D01*
G01X12985670Y3896500D02*
X12993670Y3882500D01*
X13004330Y3874500D01*
X13016330Y3872500D01*
X13027000Y3874500D01*
X13037670Y3884500D01*
X13044330Y3896500D01*
X13045670Y3908500D01*
X13043000Y3922500D01*
X13033670Y3932500D01*
X13024330Y3936500D01*
X13012330D01*
G01X13024330D02*
X13032330Y3942500D01*
X13039000Y3952500D01*
X13041670Y3964500D01*
X13039000Y3976500D01*
X13032330Y3986500D01*
X13020330Y3992500D01*
X13008330Y3990500D01*
X12996330Y3982500D01*
G01X13085670Y3896500D02*
X13093670Y3882500D01*
X13104330Y3874500D01*
X13116330Y3872500D01*
X13127000Y3874500D01*
X13137670Y3884500D01*
X13144330Y3896500D01*
X13145670Y3908500D01*
X13143000Y3922500D01*
X13133670Y3932500D01*
X13124330Y3936500D01*
X13112330D01*
G01X13124330D02*
X13132330Y3942500D01*
X13139000Y3952500D01*
X13141670Y3964500D01*
X13139000Y3976500D01*
X13132330Y3986500D01*
X13120330Y3992500D01*
X13108330Y3990500D01*
X13096330Y3982500D01*
G01X12915000Y4255000D02*
X12904330Y4257000D01*
X12895000Y4265000D01*
X12887000Y4277000D01*
X12881670Y4291000D01*
X12879000Y4307000D01*
Y4323000D01*
X12881670Y4339000D01*
X12887000Y4353000D01*
X12895000Y4365000D01*
X12904330Y4373000D01*
X12915000Y4375000D01*
X12925670Y4373000D01*
X12935000Y4365000D01*
X12943000Y4353000D01*
X12948330Y4339000D01*
X12951000Y4323000D01*
Y4307000D01*
X12948330Y4291000D01*
X12943000Y4277000D01*
X12935000Y4265000D01*
X12925670Y4257000D01*
X12915000Y4255000D01*
G01X12925670Y4287000D02*
X12941670Y4255000D01*
G01X13015000Y4375000D02*
Y4255000D01*
G01X12984330Y4375000D02*
X13045670D01*
G01X13115000Y4255000D02*
Y4309000D01*
X13088330Y4375000D01*
G01X13141670D02*
X13115000Y4309000D01*
G54D12*
X207000Y2095000D03*
X674920Y2558980D03*
X742500Y2000000D03*
X950000Y3075000D03*
X1000000Y3650000D03*
Y3750000D03*
Y3850000D03*
Y3950000D03*
Y4050000D03*
Y4150000D03*
X1435000Y2900000D03*
X1400000Y3650000D03*
X1300000D03*
X1200000D03*
X1100000D03*
Y3750000D03*
X1200000D03*
X1300000D03*
X1400000D03*
X1100000Y3850000D03*
X1200000D03*
X1400000D03*
X1300000D03*
X1400000Y3950000D03*
X1300000D03*
X1200000D03*
X1100000D03*
Y4050000D03*
X1200000D03*
X1400000D03*
X1100000Y4150000D03*
X1200000D03*
X1300000D03*
X1400000D03*
X1300000Y4050000D03*
X1285000Y4725000D03*
X1235000Y5015000D03*
X1700000Y2100000D03*
Y1950000D03*
X1677500Y2340000D03*
X1683550Y2687640D03*
X1660000Y3025000D03*
X1795000Y3477500D03*
X1672500Y3125000D03*
X1500000Y3650000D03*
Y3750000D03*
Y3850000D03*
Y3950000D03*
Y4050000D03*
Y4150000D03*
X1820000Y4905000D03*
X2185000Y1377500D03*
X2200000Y1875000D03*
X1975000Y2144500D03*
X1930000Y2065000D03*
X2095000Y2275000D03*
X2055000Y2655000D03*
X2130000Y2350000D03*
X2055000Y2895000D03*
Y2815000D03*
Y2735000D03*
X1955000Y3477500D03*
X2020000Y3260000D03*
X2055000Y3125000D03*
X2040000Y3745000D03*
Y3895000D03*
Y3820000D03*
X2185500Y4095000D03*
X1950000Y4400000D03*
X2315000Y1722500D03*
X2680000Y1770000D03*
X2325000Y2275000D03*
X2500000Y1950000D03*
X2675000Y3075000D03*
X2420000Y3177500D03*
Y3377500D03*
X2580000Y3177500D03*
Y3377500D03*
X2970000Y1425000D03*
X2710000Y1370000D03*
X2790000Y1730000D03*
X2965000Y1825000D03*
X3083120Y1883120D03*
X2839580Y1784500D03*
X2897500Y1920000D03*
X2865000Y2320000D03*
X3085700Y2358120D03*
X2870700Y2808120D03*
X3085700Y2758120D03*
X2872700Y3011060D03*
X2806880Y3108120D03*
X2760000Y2900000D03*
X2960000Y3500000D03*
X3105000Y3175000D03*
X2827000Y3285000D03*
X2963500Y3575000D03*
X2750000Y3640000D03*
X3030000Y3897000D03*
Y4255000D03*
X3065000Y4435000D03*
X2820000Y4945000D03*
X3315000Y920000D03*
X3110000Y915000D03*
X3370000Y1030000D03*
X3295000Y1165000D03*
X3250000Y1725000D03*
X3210000Y2295000D03*
X3192700Y1995000D03*
X3265700D03*
X3502330Y2105160D03*
X3446880Y2158120D03*
X3450000Y2640000D03*
X3125000Y2615000D03*
X3175000Y2855000D03*
X3155000Y3050000D03*
X3382540Y3031500D03*
X3388200Y3327620D03*
X3248000Y3675000D03*
X3220610Y3555030D03*
X3147660Y3552210D03*
X3403200Y3561800D03*
X3366720Y3634800D03*
X3494750Y3599750D03*
X3190000Y3897000D03*
X3110000D03*
X3435000Y3890000D03*
X3298690Y3606050D03*
X3350000Y3960000D03*
X3190000Y4255000D03*
X3379980Y4080000D03*
X3378500Y4295000D03*
X3265000Y4530000D03*
X3470420Y4446000D03*
X3415000Y4645000D03*
X3435000Y4935000D03*
X3200000Y4940000D03*
X3740000Y655000D03*
X3880000Y709500D03*
X3695500Y1470000D03*
X3610000Y1265000D03*
X3815000Y1340000D03*
X3754500Y1404500D03*
X3600000Y1725000D03*
X3700000Y1770000D03*
X3670000Y2290000D03*
X3549120Y2049120D03*
X3689500Y2105000D03*
X3760970Y2119890D03*
X3830150Y2096580D03*
X3705000Y2615000D03*
X3642160Y2564500D03*
X3710000Y2510000D03*
X3803040Y2455500D03*
X3875000Y2400000D03*
X3756040Y2911040D03*
X3870960Y3159040D03*
X3900000Y3550000D03*
X3745000Y3805000D03*
X3553200Y3538620D03*
X3730000Y4245000D03*
X3713540Y4596460D03*
X3852260Y4549480D03*
X3550040Y4520540D03*
X3779270Y4551160D03*
X3620500Y4585000D03*
X3518770Y4391300D03*
X3642480Y4394040D03*
X3840000Y4935000D03*
X3845000Y4735500D03*
X4013760Y1344500D03*
X3928520Y1346910D03*
X4044500Y1263900D03*
X4093000Y1450000D03*
X4146520Y1360000D03*
X3924000Y1265000D03*
X4230000Y1770000D03*
X3975000Y1745000D03*
X4108960Y2040000D03*
X4149500Y2176040D03*
X4133580Y2423580D03*
X4032580Y2319500D03*
X4170000Y3050000D03*
X4015000Y2785000D03*
X4314700Y2980000D03*
X4075310Y2727590D03*
X3943620Y2800300D03*
X4165240Y3161200D03*
X4147660Y3232060D03*
X4245000Y3170000D03*
X3960000Y3815000D03*
X4170000Y3895000D03*
X3965000Y3600000D03*
X4090000Y3895000D03*
X4189800Y3782370D03*
X4250000Y4280000D03*
X4010000Y4255000D03*
X4260500Y4090000D03*
X4296500Y4015130D03*
X3930000Y4275000D03*
X4115230Y4614270D03*
X4205000Y4476820D03*
X4054510Y4404820D03*
X4700000Y1375000D03*
X4350000D03*
X4390140Y1781080D03*
X4700000Y1725000D03*
X4575000Y1940000D03*
X4700000Y2095000D03*
X4396380Y2190390D03*
X4657580Y2159220D03*
X4339370Y2105520D03*
X4716130Y2300000D03*
X4655000Y2810000D03*
X4670000Y2908120D03*
X4422700Y3108120D03*
X4495000Y3460000D03*
X4420700Y3208120D03*
X4580000Y3325000D03*
X4355000Y3320000D03*
X4700000Y3550000D03*
X4424430Y3749030D03*
X4485000Y4160000D03*
X4370000Y4715000D03*
X4655000Y4645000D03*
X4508960Y4643960D03*
X4575000Y4930000D03*
X5030000Y560000D03*
X4950000Y985000D03*
X4860000Y1410000D03*
X4915000Y1290000D03*
X4962000Y1470000D03*
X4780000Y1297920D03*
X4785000Y1765000D03*
X4962000Y1630000D03*
X5084500Y1827290D03*
X4935000Y2020000D03*
Y2230000D03*
X5095000Y1980000D03*
X5085200Y1900290D03*
X4748120Y2662000D03*
X4750000Y2445000D03*
X5125000Y2490000D03*
X5069500Y2805000D03*
X4806880Y2708120D03*
X4867490Y2867490D03*
X4945000Y2895000D03*
X5015000Y3390000D03*
X4735000Y3755000D03*
X4900000Y3550000D03*
X5000000Y3530000D03*
X5035000Y4940000D03*
X4775000Y4935000D03*
X5280000Y560000D03*
X5250000Y980000D03*
X5190000Y810000D03*
Y1372000D03*
X5340000Y1490000D03*
X5345000Y1390000D03*
X5469500Y1625000D03*
X5365000Y2220000D03*
X5450000Y2115000D03*
X5305000Y1975000D03*
X5440000Y2460000D03*
X5416910Y2390740D03*
X5225000Y2645000D03*
X5470000Y2725000D03*
X5472500Y2867500D03*
X5266180Y3071320D03*
X5420000Y3240000D03*
X5195000Y3310000D03*
X5194000Y3450000D03*
X5415000Y3585000D03*
X5225000Y4605000D03*
X5495000Y4575000D03*
X5880000Y570000D03*
X5535000Y560000D03*
X5735500Y1010000D03*
X5590970Y988890D03*
X5900000Y1000000D03*
X5535000Y1377500D03*
X5651610Y1568650D03*
X5785000Y1635000D03*
X5535000Y2054500D03*
X5665000Y2244500D03*
Y2040000D03*
X5815500Y2000000D03*
X5789500Y2085000D03*
X5877500Y2662000D03*
X5750000Y2450000D03*
X5879500Y2916000D03*
X5875000Y2740000D03*
X5662500Y3139980D03*
X5840000Y3290000D03*
X5545000Y3275000D03*
X5640000Y3640000D03*
X5720000Y4310000D03*
X5858500Y4375000D03*
X5975000Y1015000D03*
X6110000Y1280000D03*
X6275010Y1145010D03*
X6265750Y1972100D03*
X6261270Y1899230D03*
X6055000Y3630000D03*
X6685000Y1130000D03*
X6545000Y1620000D03*
X6450000Y2350000D03*
X6875000Y1470000D03*
X6746500Y1448500D03*
X6966500Y1892780D03*
X6760000Y2045000D03*
X6929500Y2580000D03*
X6885000Y3075000D03*
X7030000Y2770000D03*
X7120000Y3190000D03*
X7040000Y3155000D03*
X6765000Y3865000D03*
X7070000Y3940000D03*
X6770000Y4710000D03*
X7030000Y4452000D03*
X7155000Y255000D03*
X7424500Y882000D03*
X7320000Y1820000D03*
X7420000Y1705000D03*
X7444650Y1520000D03*
X7260000Y2325000D03*
X7419500Y2540000D03*
X7290000Y3255000D03*
X7399000Y3139000D03*
X7260000Y3740000D03*
X7435000Y3965000D03*
X7572460Y255000D03*
Y1915000D03*
Y3575000D03*
X8285000Y3932500D03*
G54D22*
G01X7925000Y-1580000D02*
Y5325000D01*
X13325000D01*
Y-1580000D01*
X7925000D01*
G01Y-1055000D02*
X13325000D01*
G01X7925000Y-530000D02*
X13325000D01*
G01X7925000Y-5000D02*
X13325000D01*
G01X7925000Y520000D02*
X13325000D01*
G01X7925000Y1045000D02*
X13325000D01*
G01X7925000Y1570000D02*
X13325000D01*
G01X7925000Y2095000D02*
X13325000D01*
G01X7925000Y2620000D02*
X13325000D01*
G01X7925000Y3145000D02*
X13325000D01*
G01X7925000Y3670000D02*
X13325000D01*
G01X7925000Y4195000D02*
X13325000D01*
G01X7925000Y4675000D02*
X13325000D01*
G01X7925000Y4435000D02*
X13325000D01*
G01X8645000D02*
Y-1580000D01*
G01X10165000Y4435000D02*
Y-1580000D01*
G01X11685000Y4435000D02*
Y-1580000D01*
G01X12705000Y4435000D02*
Y-1580000D01*
G54D13*
X605000Y830580D03*
X8285000Y-267500D03*
G54D14*
X415000Y2417000D03*
Y2917000D03*
X8285000Y782500D03*
G54D15*
X925000Y350580D03*
X8285000Y-792500D03*
G54D16*
X1205000Y830580D03*
X8285000Y-1317500D03*
G54D17*
X1524000Y5080000D03*
X6604000Y762000D03*
Y3556000D03*
X8285000Y1307500D03*
G54D18*
X1815000Y580000D03*
Y1070000D03*
X2285000Y580000D03*
Y1070000D03*
X5950470Y2037000D03*
X5825000Y3185000D03*
X5935000Y3565000D03*
X5964200Y1340520D03*
X6350000Y1395000D03*
X6215000Y1305000D03*
X6177490Y1650630D03*
X6140000Y2235000D03*
X6075000Y3285000D03*
X6195000Y3565000D03*
X6430000Y2212000D03*
X6390000Y2080000D03*
X7205000Y1376000D03*
Y3034000D03*
X7509000Y3085000D03*
X7205000Y4692000D03*
X7595000Y642000D03*
Y1376000D03*
Y2300000D03*
Y3958000D03*
Y4692000D03*
X8285000Y2882500D03*
G54D19*
X1879600Y5080000D03*
X2133600D03*
X2387600D03*
X2641600D03*
X3048000Y254000D03*
X2794000D03*
X2895600Y5080000D03*
X3149600D03*
X3556000Y254000D03*
X3302000D03*
X3403600Y5080000D03*
X3810000Y254000D03*
X3657600Y5080000D03*
X3911600D03*
X4318000Y254000D03*
X4064000D03*
X4165600Y5080000D03*
X4572000Y254000D03*
Y5080000D03*
X5080000Y254000D03*
X4826000Y5080000D03*
X5080000D03*
X5588000Y254000D03*
X5334000D03*
Y5080000D03*
X5588000D03*
X5842000Y254000D03*
Y5080000D03*
X6350000Y254000D03*
X6096000D03*
Y5080000D03*
X6350000D03*
X8285000Y2357500D03*
M02*
