G04 ================== begin FILE IDENTIFICATION RECORD ==================*
G04 Layout Name:  Netduino3_16Dec16_0800.brd*
G04 Film Name:    SILKS_TOP*
G04 File Format:  Gerber RS274X*
G04 File Origin:  Cadence Allegro 16.6-2015-S069*
G04 Origin Date:  Fri Dec 16 09:48:39 2016*
G04 *
G04 Layer:  REF DES/SILKSCREEN_TOP*
G04 Layer:  PACKAGE GEOMETRY/SILKSCREEN_TOP*
G04 Layer:  BOARD GEOMETRY/SILKSCREEN_TOP*
G04 *
G04 Offset:    (0.0000 0.0000)*
G04 Mirror:    No*
G04 Mode:      Positive*
G04 Rotation:  0*
G04 FullContactRelief:  No*
G04 UndefLineWidth:     0.1270*
G04 ================== end FILE IDENTIFICATION RECORD ====================*
%FSLAX25Y25*MOMM*%
%IR0*IPPOS*OFA0.00000B0.00000*MIA0B0*SFA1.00000B1.00000*%
%ADD10C,.2*%
%ADD11C,.3*%
%ADD12C,.15*%
%ADD13C,.25*%
%ADD14C,.18*%
%ADD15C,1.2*%
%ADD16C,1.6*%
G75*
%LPD*%
G75*
G36*
G01X1435000Y724370D02*
G02X1415000I-10000J-79371D01*
G01Y745630D01*
G02X1345000Y825000I9997J79370D01*
G01X1365000D01*
G03X1485000I60000J0D01*
G01X1505000D01*
G02X1435000Y745630I-79997J0D01*
G01Y724370D01*
G37*
G36*
G01X1415000Y925630D02*
G02X1435000I10000J79371D01*
G01Y853280D01*
G02X1415000I-10000J-28281D01*
G01Y925630D01*
G37*
G36*
G01X4490000Y3800000D02*
Y3940000D01*
G02X4590000Y4040000I100000J0D01*
G02X4690000Y3940000I0J-100000D01*
G01Y3800000D01*
X4650000D01*
Y3940000D01*
G03X4590000Y4000000I-60000J0D01*
G03X4530000Y3940000I0J-60000D01*
G01Y3800000D01*
X4490000D01*
G37*
G36*
G01X4953680Y3881580D02*
G02X4954130Y3957070I-113681J38424D01*
G01X4930000Y3945000D01*
X4810000Y3885000D01*
X4790000Y3920000D01*
X4898700Y3974350D01*
G03X4914690Y3891330I-58700J-54356D01*
G01X4953680Y3881580D01*
G37*
G36*
G01X4985000Y4100000D02*
Y3860000D01*
G03X5045000Y3800000I60000J0D01*
G01X5105000D01*
Y3840000D01*
X5045000D01*
G02X5025000Y3860000I0J20000D01*
G01Y4000000D01*
X5105000D01*
Y4040000D01*
X5025000D01*
Y4100000D01*
X4985000D01*
G37*
G36*
G01X5365000Y3920000D02*
G02X5300000Y4026650I-119994J0D01*
G01Y3978090D01*
G03X5325000Y3920000I-54989J-58090D01*
G01Y4160000D01*
X5365000D01*
Y3920000D01*
G37*
G36*
G01X5395000Y4040000D02*
Y3900000D01*
G03X5495000Y3800000I100000J0D01*
G03X5595000Y3900000I0J100000D01*
G01Y4040000D01*
X5555000D01*
Y3900000D01*
G02X5495000Y3840000I-60000J0D01*
G02X5435000Y3900000I0J60000D01*
G01Y4040000D01*
X5395000D01*
G37*
G36*
G01X5715000Y3940000D02*
Y3800000D01*
X5755000D01*
Y3940000D01*
G02X5815000Y4000000I60000J0D01*
G02X5875000Y3940000I0J-60000D01*
G01Y3800000D01*
X5915000D01*
Y3940000D01*
G03X5815000Y4040000I-100000J0D01*
G03X5715000Y3940000I0J-100000D01*
G37*
G36*
G01X5635000Y4040000D02*
Y3800000D01*
X5675000D01*
Y4040000D01*
X5635000D01*
G37*
G36*
G01X5685000Y4100000D02*
G03I-30000J0D01*
G37*
G36*
G01X6185000Y3920000D02*
G03I-120000J0D01*
G37*
G36*
G01X6484330Y4013440D02*
G02X6483710Y3800000I0J-106721D01*
G01X6350930D01*
Y3840020D01*
X6484330D01*
G03Y3973420I0J66700D01*
G01X6390950D01*
Y4013440D01*
X6514520Y4120160D01*
X6350930D01*
Y4160180D01*
X6531020D01*
G02X6551030Y4100150I0J-33350D01*
G01X6450630Y4013440D01*
X6484330D01*
G37*
%LPC*%
G75*
G54D15*
X1425000Y645000D03*
Y1005000D03*
G54D16*
X6065000Y3920000D03*
%LPD*%
G75*
G36*
G01X1435000Y615000D02*
Y675000D01*
G03X1415000I-10000J0D01*
G01Y615000D01*
G03X1435000I10000J0D01*
G37*
G36*
G01X1455000Y995000D02*
X1435000D01*
Y975000D01*
G02X1415000I-10000J0D01*
G01Y995000D01*
X1395000D01*
G02Y1015000I0J10000D01*
G01X1415000D01*
Y1035000D01*
G02X1435000I10000J0D01*
G01Y1015000D01*
X1455000D01*
G02Y995000I0J-10000D01*
G37*
G54D10*
G01X685000Y1400000D02*
X165000D01*
G01X685000Y1700000D02*
X165000D01*
G01Y3900000D02*
X285000D01*
G01X340000Y1865000D02*
Y1945000D01*
G01X570000Y2630000D02*
G03I-10000J0D01*
G01X580000Y3029750D02*
Y3149750D01*
G01X955000Y1950000D02*
Y2050000D01*
G01X1050000Y3200000D02*
Y2950000D01*
G01X750000Y3029750D02*
Y3149750D01*
G01X900000Y3575000D02*
X800000D01*
Y4225000D01*
X900000D01*
G01X1060000Y4297500D02*
X690000D01*
G01X1060000Y4602500D02*
X690000D01*
G01X1000000Y5011700D02*
G03I-125000J0D01*
G01X700000Y5186700D02*
Y4836700D01*
X1050000D01*
Y5186700D01*
X700000D01*
G01X1897500Y1140000D02*
X1875000D01*
Y510000D01*
X1897500D01*
G01X1810000Y1550000D02*
X1890000D01*
G01X1825000Y2200000D02*
X1875000D01*
Y2350000D01*
X1825000D01*
Y2200000D01*
G01X1785000Y2602000D02*
X1965000D01*
G01X1850000Y3050000D02*
Y3200000D01*
X1900000D01*
Y3050000D01*
X1850000D01*
G01X1785000Y2948000D02*
X1965000D01*
G01X1850000Y3160000D02*
X1890000Y3200000D01*
G01X1850000Y3180000D02*
X1870000Y3200000D01*
G01X1875000Y3535000D02*
Y3615000D01*
G01X1795000Y4025000D02*
Y3925000D01*
G01X1752600Y4572000D02*
Y4953000D01*
G01Y4572000D02*
X2006600D01*
Y4953000D01*
G01X2202500Y1140000D02*
X2225000D01*
Y510000D01*
X2202500D01*
G01X2175000Y1575000D02*
Y1525000D01*
X2325000D01*
Y1575000D01*
X2175000D01*
G01X2255000Y3760000D02*
Y3880000D01*
G01X2195000Y3975000D02*
X2235000D01*
Y4215000D01*
X2195000D01*
Y3975000D01*
G01X1975000Y4025000D02*
Y3925000D01*
G01X2006600Y4572000D02*
X2260600D01*
Y4953000D01*
G01Y4572000D02*
X2514600D01*
Y4953000D01*
G01X2667000Y381000D02*
Y1079500D01*
X2921000D01*
G01X2577000Y1640000D02*
Y1460000D01*
G01X2500000Y2235000D02*
Y2315000D01*
G01Y3115000D02*
Y3035000D01*
G01Y3235000D02*
Y3315000D01*
G01Y3435000D02*
Y3515000D01*
G01X2514600Y4572000D02*
X2768600D01*
Y4953000D01*
G01X2921000Y381000D02*
Y1079500D01*
X3175000D01*
G01X2923000Y1640000D02*
Y1460000D01*
G01X2840000Y2000000D02*
X2760000D01*
G01X3075000Y3715000D02*
Y3635000D01*
G01X2977000Y4165000D02*
Y3985000D01*
G01X2768600Y4699000D02*
X3022600D01*
Y4953000D01*
G01Y4699000D02*
X3276600D01*
Y4953000D01*
G01X3175000Y381000D02*
Y1079500D01*
X3429000D01*
Y381000D01*
G01Y762000D02*
X3683000D01*
Y381000D01*
G01X3210000Y1550000D02*
X3290000D01*
G01X3128200Y3283120D02*
Y2033120D01*
X4378200D01*
Y3283120D01*
X3128200D01*
G01X3278200Y3183120D02*
G03I-50000J0D01*
G01X3323000Y4165000D02*
Y3985000D01*
G01X3276600Y4699000D02*
X3530600D01*
Y4953000D01*
G01X3683000Y762000D02*
X3937000D01*
Y381000D01*
G01X3640000Y1550000D02*
X3560000D01*
G01X3675000Y4050000D02*
Y4100000D01*
X3525000D01*
Y4050000D01*
X3675000D01*
G01X3530600Y4699000D02*
X3784600D01*
Y4953000D01*
G01Y4699000D02*
X4038600D01*
Y4953000D01*
G01X3937000Y762000D02*
X4191000D01*
Y381000D01*
G01Y762000D02*
X4445000D01*
Y381000D01*
G01X4035000Y1550000D02*
X3915000D01*
G01X4038600Y4699000D02*
X4292600D01*
Y4953000D01*
G01X4445000Y762000D02*
X4699000D01*
Y381000D01*
G01X4390000Y1550000D02*
X4310000D01*
G01X4740000D02*
X4660000D01*
G01Y3375000D02*
X4740000D01*
G01X4445000Y4953000D02*
Y4699000D01*
X4699000D01*
Y4953000D01*
G01Y4699000D02*
X4953000D01*
Y4953000D01*
G01Y381000D02*
Y635000D01*
X5207000D01*
Y381000D01*
G01X4977000Y1460000D02*
Y1640000D01*
G01X4860000Y3375000D02*
X4940000D01*
G01X4953000Y4699000D02*
X5207000D01*
Y4953000D01*
G01Y635000D02*
X5461000D01*
Y381000D01*
G01Y635000D02*
X5715000D01*
Y381000D01*
G01X5323000Y1460000D02*
Y1640000D01*
G01X5125000Y2925000D02*
Y2875000D01*
X5275000D01*
Y2925000D01*
X5125000D01*
G01X5207000Y4699000D02*
X5461000D01*
Y4953000D01*
G01Y4699000D02*
X5715000D01*
Y4953000D01*
G01Y635000D02*
X5969000D01*
Y381000D01*
G01X5675000Y1525000D02*
Y1575000D01*
X5525000D01*
Y1525000D01*
X5675000D01*
G01Y2200000D02*
Y2250000D01*
X5525000D01*
Y2200000D01*
X5675000D01*
G01Y2875000D02*
Y2925000D01*
X5525000D01*
Y2875000D01*
X5675000D01*
G01X5715000Y4699000D02*
X5969000D01*
Y4953000D01*
G01Y635000D02*
X6223000D01*
Y381000D01*
G01Y635000D02*
X6477000D01*
Y381000D01*
G01X6075000Y1525000D02*
Y1575000D01*
X5925000D01*
Y1525000D01*
X6075000D01*
G01Y2200000D02*
Y2250000D01*
X5925000D01*
Y2200000D01*
X6075000D01*
G01X6237000Y3170000D02*
Y2408000D01*
X6745000D01*
Y3170000D01*
X6237000D01*
G01X6075000Y2875000D02*
Y2925000D01*
X5925000D01*
Y2875000D01*
X6075000D01*
G01X5969000Y4699000D02*
X6223000D01*
Y4953000D01*
G01Y4699000D02*
X6477000D01*
Y4953000D01*
G01X6071000Y4325000D02*
Y4425000D01*
G01X7150000Y1634000D02*
X6825000D01*
Y384000D01*
X7150000D01*
G01Y3292000D02*
X6825000D01*
Y2042000D01*
X7150000D01*
G01Y4950000D02*
X6825000D01*
Y3700000D01*
X7150000D01*
G01X7400000Y290000D02*
Y220000D01*
G01Y1950000D02*
Y1880000D01*
G01Y3610000D02*
Y3540000D01*
G54D11*
G01X3865000Y1195000D02*
X3889000Y1075000D01*
X3915000Y1195000D01*
X3941000Y1075000D01*
X3965000Y1195000D01*
G01X4015000D02*
X4039000Y1075000D01*
X4065000Y1195000D01*
X4091000Y1075000D01*
X4115000Y1195000D01*
G01X4165000D02*
X4189000Y1075000D01*
X4215000Y1195000D01*
X4241000Y1075000D01*
X4265000Y1195000D01*
G01X4365000Y1069000D02*
X4361000Y1072000D01*
Y1078000D01*
X4365000Y1081000D01*
X4369000Y1078000D01*
Y1072000D01*
X4365000Y1069000D01*
G01X4481000Y1075000D02*
Y1195000D01*
G01Y1165000D02*
X4489000Y1180000D01*
X4501000Y1192000D01*
X4517000Y1195000D01*
X4531000Y1192000D01*
X4543000Y1180000D01*
X4549000Y1159000D01*
Y1075000D01*
G01X4635000Y1156000D02*
X4699000D01*
X4693000Y1177000D01*
X4683000Y1189000D01*
X4669000Y1195000D01*
X4655000Y1192000D01*
X4643000Y1183000D01*
X4635000Y1162000D01*
X4631000Y1144000D01*
Y1126000D01*
X4635000Y1108000D01*
X4645000Y1090000D01*
X4657000Y1078000D01*
X4671000Y1075000D01*
X4685000Y1081000D01*
X4699000Y1098990D01*
G01X4815000Y1255000D02*
Y1075000D01*
G01X4787000Y1195000D02*
X4843000D01*
G01X5001000Y1255000D02*
Y1075000D01*
G01Y1101990D02*
X4993000Y1087000D01*
X4981000Y1078000D01*
X4967000Y1075000D01*
X4951000Y1081000D01*
X4939000Y1096000D01*
X4931000Y1114000D01*
X4929000Y1135000D01*
X4931000Y1156000D01*
X4939000Y1174000D01*
X4951000Y1189000D01*
X4967000Y1195000D01*
X4981000Y1192000D01*
X4991000Y1186000D01*
X5001000Y1174000D01*
G01X5081000Y1195000D02*
Y1111000D01*
X5089000Y1090000D01*
X5101000Y1078000D01*
X5115000Y1075000D01*
X5129000Y1078000D01*
X5141000Y1090000D01*
X5149000Y1111000D01*
G01Y1075000D02*
Y1195000D01*
G01X5265000D02*
Y1075000D01*
G01Y1243000D02*
X5261000Y1246000D01*
Y1252000D01*
X5265000Y1255000D01*
X5269000Y1252000D01*
Y1246000D01*
X5265000Y1243000D01*
G01X5381000Y1075000D02*
Y1195000D01*
G01Y1165000D02*
X5389000Y1180000D01*
X5401000Y1192000D01*
X5417000Y1195000D01*
X5431000Y1192000D01*
X5443000Y1180000D01*
X5449000Y1159000D01*
Y1075000D01*
G01X5565000D02*
X5553000Y1078000D01*
X5541000Y1090000D01*
X5533000Y1111000D01*
X5529000Y1135000D01*
X5533000Y1159000D01*
X5541000Y1180000D01*
X5553000Y1192000D01*
X5565000Y1195000D01*
X5577000Y1192000D01*
X5589000Y1180000D01*
X5597000Y1159000D01*
X5599000Y1135000D01*
X5597000Y1111000D01*
X5589000Y1090000D01*
X5577000Y1078000D01*
X5565000Y1075000D01*
G01X5715000Y1069000D02*
X5711000Y1072000D01*
Y1078000D01*
X5715000Y1081000D01*
X5719000Y1078000D01*
Y1072000D01*
X5715000Y1069000D01*
G01X5897000Y1180000D02*
X5883000Y1192000D01*
X5871000Y1195000D01*
X5855000Y1189000D01*
X5843000Y1177000D01*
X5835000Y1156000D01*
X5833000Y1135000D01*
X5835000Y1114000D01*
X5843000Y1096000D01*
X5855000Y1081000D01*
X5871000Y1075000D01*
X5885000Y1081000D01*
X5897000Y1093000D01*
G01X6015000Y1075000D02*
X6003000Y1078000D01*
X5991000Y1090000D01*
X5983000Y1111000D01*
X5979000Y1135000D01*
X5983000Y1159000D01*
X5991000Y1180000D01*
X6003000Y1192000D01*
X6015000Y1195000D01*
X6027000Y1192000D01*
X6039000Y1180000D01*
X6047000Y1159000D01*
X6049000Y1135000D01*
X6047000Y1111000D01*
X6039000Y1090000D01*
X6027000Y1078000D01*
X6015000Y1075000D01*
G01X6105000D02*
Y1195000D01*
G01Y1162000D02*
X6111000Y1177000D01*
X6121000Y1189000D01*
X6135000Y1195000D01*
X6149000Y1189000D01*
X6159000Y1177000D01*
X6165000Y1162000D01*
Y1075000D01*
G01Y1162000D02*
X6171000Y1177000D01*
X6181000Y1189000D01*
X6195000Y1195000D01*
X6209000Y1189000D01*
X6219000Y1177000D01*
X6225000Y1159000D01*
Y1075000D01*
G01X7025000Y1010000D02*
X6875000D01*
X6905000Y986000D01*
G01X7025000D02*
Y1034000D01*
G01X6900000Y2632000D02*
X6885000Y2644000D01*
X6877500Y2658000D01*
X6875000Y2674000D01*
X6880000Y2694000D01*
X6892500Y2708000D01*
X6907500Y2712000D01*
X6922500Y2710000D01*
X6935000Y2702000D01*
X6960000Y2662000D01*
X6977500Y2644000D01*
X7002500Y2632000D01*
X7025000Y2628000D01*
Y2712000D01*
G01X6995000Y4281000D02*
X7012500Y4293000D01*
X7022500Y4309000D01*
X7025000Y4327000D01*
X7022500Y4343000D01*
X7010000Y4359000D01*
X6995000Y4369000D01*
X6980000Y4371000D01*
X6962500Y4367000D01*
X6950000Y4353000D01*
X6945000Y4339000D01*
Y4321000D01*
G01Y4339000D02*
X6937500Y4351000D01*
X6925000Y4361000D01*
X6910000Y4365000D01*
X6895000Y4361000D01*
X6882500Y4351000D01*
X6875000Y4333000D01*
X6877500Y4315000D01*
X6887500Y4297000D01*
G54D12*
G01X6182500Y4150000D02*
Y4100000D01*
G01X6165250Y4150000D02*
X6199750D01*
G01X6223000Y4100000D02*
Y4150000D01*
X6242500Y4108330D01*
X6262000Y4150000D01*
Y4100000D01*
G54D13*
G01X767500Y1395000D02*
G02I-12500J0D01*
G01X922500Y3255000D02*
G02I-12500J0D01*
G01X1182500Y2000000D02*
G02I-12500J0D01*
G01X1137500Y4280000D02*
G02I-12500J0D01*
G01X1742500Y2415000D02*
G02I-12500J0D01*
G01Y2975000D02*
G02I-12500J0D01*
G01X1677500Y3190000D02*
G03I-12500J0D01*
G01X2232500Y1205000D02*
G02I-12500J0D01*
G01X2067500Y4275000D02*
G02I-12500J0D01*
G01X2402500Y1670000D02*
G02I-12500J0D01*
G01X2962500Y1695000D02*
G02I-12500J0D01*
G01X2757500Y2435000D02*
G03I-12500J0D01*
G01X2985700Y3333120D02*
G03I-12500J0D01*
G01X3462500Y3950000D02*
G02I-12500J0D01*
G01X3362500Y4220000D02*
G02I-12500J0D01*
G01X4962500Y1405000D02*
G02I-12500J0D01*
G01X5472500Y1430000D02*
G02I-12500J0D01*
G01Y2105000D02*
G02I-12500J0D01*
G01Y2780000D02*
G02I-12500J0D01*
G01X5362500Y3025000D02*
G02I-12500J0D01*
G01X5862500Y1425000D02*
G02I-12500J0D01*
G01Y2100000D02*
G02I-12500J0D01*
G01Y2775000D02*
G02I-12500J0D01*
G01X6298500Y4375000D02*
G02I-12500J0D01*
G01X7112500Y1384000D02*
G03I-12500J0D01*
G01Y3042000D02*
G03I-12500J0D01*
G01Y4700000D02*
G03I-12500J0D01*
G01X7237500Y255000D02*
G02I-12500J0D01*
G01Y1915000D02*
G02I-12500J0D01*
G01Y3575000D02*
G02I-12500J0D01*
G54D14*
G01X389000Y123330D02*
X391000Y140660D01*
X394000Y155330D01*
X398000Y168660D01*
X403000Y183330D01*
X411000Y203330D01*
X371000D01*
G01X469000Y120660D02*
X467000Y122000D01*
Y124660D01*
X469000Y126000D01*
X471000Y124660D01*
Y122000D01*
X469000Y120660D01*
G01X525000Y135330D02*
X531000Y128660D01*
X538000Y124660D01*
X547000Y123330D01*
X556000Y126000D01*
X563000Y131330D01*
X568000Y140660D01*
X569000Y151330D01*
X567000Y162000D01*
X562000Y168660D01*
X555000Y174000D01*
X548000Y175330D01*
X541000Y174000D01*
X532000Y168660D01*
X535000Y203330D01*
X562000D01*
G01X612000Y150000D02*
X638000D01*
G01X703000Y123330D02*
Y203330D01*
X691000Y187330D01*
G01Y123330D02*
X715000D01*
G01X762000Y190000D02*
X768000Y198000D01*
X775000Y202000D01*
X783000Y203330D01*
X793000Y200660D01*
X800000Y194000D01*
X802000Y186000D01*
X801000Y177990D01*
X797000Y171330D01*
X777000Y158000D01*
X768000Y148660D01*
X762000Y135330D01*
X760000Y123330D01*
X802000D01*
G01X834000Y203330D02*
X859000Y123330D01*
X884000Y203330D01*
G01X828330Y2135000D02*
Y2255000D01*
X860330D01*
X871000Y2249000D01*
X879000Y2235000D01*
X881670Y2219000D01*
X879000Y2203000D01*
X872330Y2191000D01*
X860330Y2185000D01*
X828330D01*
G01X915000Y2255000D02*
X933670Y2135000D01*
X955000Y2255000D01*
X976330Y2135000D01*
X995000Y2255000D01*
G01X1028330Y2135000D02*
Y2255000D01*
X1061670D01*
X1072330Y2249000D01*
X1079000Y2241000D01*
X1081670Y2225000D01*
X1079000Y2209000D01*
X1071000Y2199000D01*
X1061670Y2193000D01*
X1028330D01*
G01X1061670D02*
X1081670Y2135000D01*
G01X1929000Y4647000D02*
X1939000Y4657670D01*
X1945000Y4669670D01*
Y4680330D01*
X1939000Y4691000D01*
X1929000Y4699000D01*
X1915000Y4703000D01*
X1901000Y4700330D01*
X1889000Y4693670D01*
X1881000Y4681670D01*
X1877000Y4665670D01*
X1869000Y4656330D01*
X1855000Y4652330D01*
X1841000Y4655000D01*
X1831000Y4661670D01*
X1825000Y4671000D01*
Y4680330D01*
X1829000Y4689670D01*
X1839000Y4697670D01*
G01X1835000Y4804330D02*
X1829000Y4796330D01*
X1825000Y4787000D01*
Y4776330D01*
X1831000Y4764330D01*
X1841000Y4755000D01*
X1853000Y4748330D01*
X1873000Y4743000D01*
X1891000Y4741670D01*
X1909000Y4744330D01*
X1921000Y4748330D01*
X1933000Y4756330D01*
X1941000Y4765670D01*
X1945000Y4775000D01*
Y4784330D01*
X1941000Y4793670D01*
X1935000Y4801670D01*
X1927000Y4808330D01*
G01X1825000Y4848330D02*
X1945000D01*
Y4901670D01*
G01X2183000Y4647000D02*
X2193000Y4657670D01*
X2199000Y4669670D01*
Y4680330D01*
X2193000Y4691000D01*
X2183000Y4699000D01*
X2169000Y4703000D01*
X2155000Y4700330D01*
X2143000Y4693670D01*
X2135000Y4681670D01*
X2131000Y4665670D01*
X2123000Y4656330D01*
X2109000Y4652330D01*
X2095000Y4655000D01*
X2085000Y4661670D01*
X2079000Y4671000D01*
Y4680330D01*
X2083000Y4689670D01*
X2093000Y4697670D01*
G01X2199000Y4745670D02*
X2079000D01*
Y4772330D01*
X2085000Y4783000D01*
X2093000Y4791000D01*
X2105000Y4797670D01*
X2119000Y4803000D01*
X2139000Y4804330D01*
X2159000Y4803000D01*
X2173000Y4797670D01*
X2185000Y4791000D01*
X2193000Y4783000D01*
X2199000Y4772330D01*
Y4745670D01*
G01Y4841670D02*
X2079000Y4875000D01*
X2199000Y4908330D01*
G01X2157000Y4896330D02*
Y4853670D01*
G01X2647000Y4683000D02*
Y4709670D01*
X2683000D01*
X2695000Y4701670D01*
X2703000Y4692330D01*
X2707000Y4679000D01*
X2703000Y4665670D01*
X2695000Y4656330D01*
X2683000Y4648330D01*
X2669000Y4643000D01*
X2653000Y4640330D01*
X2639000D01*
X2627000Y4643000D01*
X2613000Y4648330D01*
X2601000Y4656330D01*
X2593000Y4664330D01*
X2587000Y4675000D01*
Y4684330D01*
X2591000Y4695000D01*
X2599000Y4703000D01*
G01X2707000Y4744330D02*
X2587000D01*
X2707000Y4805670D01*
X2587000D01*
G01X2707000Y4845670D02*
X2587000D01*
Y4872330D01*
X2593000Y4883000D01*
X2601000Y4891000D01*
X2613000Y4897670D01*
X2627000Y4903000D01*
X2647000Y4904330D01*
X2667000Y4903000D01*
X2681000Y4897670D01*
X2693000Y4891000D01*
X2701000Y4883000D01*
X2707000Y4872330D01*
Y4845670D01*
G01X2991500Y449000D02*
Y481000D01*
G01Y465000D02*
X3111500D01*
G01Y449000D02*
Y481000D01*
G01Y565000D02*
X3109500Y554330D01*
X3101500Y545000D01*
X3089500Y537000D01*
X3075500Y531670D01*
X3059500Y529000D01*
X3043500D01*
X3027500Y531670D01*
X3013500Y537000D01*
X3001500Y545000D01*
X2993500Y554330D01*
X2991500Y565000D01*
X2993500Y575670D01*
X3001500Y585000D01*
X3013500Y593000D01*
X3027500Y598330D01*
X3043500Y601000D01*
X3059500D01*
X3075500Y598330D01*
X3089500Y593000D01*
X3101500Y585000D01*
X3109500Y575670D01*
X3111500Y565000D01*
G01Y638330D02*
X2991500D01*
Y671670D01*
X2997500Y682330D01*
X3005500Y689000D01*
X3021500Y691670D01*
X3037500Y689000D01*
X3047500Y681000D01*
X3053500Y671670D01*
Y638330D01*
G01Y671670D02*
X3111500Y691670D01*
G01Y791670D02*
Y738330D01*
X2991500D01*
Y791670D01*
G01X3049500Y770330D02*
Y738330D01*
G01X3111500Y839670D02*
X2991500D01*
Y890330D01*
G01X3049500Y871670D02*
Y839670D01*
G01X2959100Y4765000D02*
X2839100D01*
X2863100Y4749000D01*
G01X2959100D02*
Y4781000D01*
G01X2935100Y4835670D02*
X2949100Y4843670D01*
X2957100Y4854330D01*
X2959100Y4866330D01*
X2957100Y4877000D01*
X2947100Y4887670D01*
X2935100Y4894330D01*
X2923100Y4895670D01*
X2909100Y4893000D01*
X2899100Y4883670D01*
X2895100Y4874330D01*
Y4862330D01*
G01Y4874330D02*
X2889100Y4882330D01*
X2879100Y4889000D01*
X2867100Y4891670D01*
X2855100Y4889000D01*
X2845100Y4882330D01*
X2839100Y4870330D01*
X2841100Y4858330D01*
X2849100Y4846330D01*
G01X3369500Y441000D02*
X3245500Y489000D01*
G01X3365500Y538330D02*
X3245500D01*
Y571670D01*
X3251500Y582330D01*
X3259500Y589000D01*
X3275500Y591670D01*
X3291500Y589000D01*
X3301500Y581000D01*
X3307500Y571670D01*
Y538330D01*
G01Y571670D02*
X3365500Y591670D01*
G01Y691670D02*
Y638330D01*
X3245500D01*
Y691670D01*
G01X3303500Y670330D02*
Y638330D01*
G01X3349500Y737000D02*
X3359500Y747670D01*
X3365500Y759670D01*
Y770330D01*
X3359500Y781000D01*
X3349500Y789000D01*
X3335500Y793000D01*
X3321500Y790330D01*
X3309500Y783670D01*
X3301500Y771670D01*
X3297500Y755670D01*
X3289500Y746330D01*
X3275500Y742330D01*
X3261500Y745000D01*
X3251500Y751670D01*
X3245500Y761000D01*
Y770330D01*
X3249500Y779670D01*
X3259500Y787670D01*
G01X3365500Y891670D02*
Y838330D01*
X3245500D01*
Y891670D01*
G01X3303500Y870330D02*
Y838330D01*
G01X3245500Y965000D02*
X3365500D01*
G01X3245500Y934330D02*
Y995670D01*
G01X3467100Y4765000D02*
X3347100D01*
X3371100Y4749000D01*
G01X3467100D02*
Y4781000D01*
G01Y4865000D02*
X3347100D01*
X3371100Y4849000D01*
G01X3467100D02*
Y4881000D01*
G01X3213100Y4765000D02*
X3093100D01*
X3117100Y4749000D01*
G01X3213100D02*
Y4781000D01*
G01X3113100Y4839670D02*
X3101100Y4847670D01*
X3095100Y4857000D01*
X3093100Y4867670D01*
X3097100Y4881000D01*
X3107100Y4890330D01*
X3119100Y4893000D01*
X3131100Y4891670D01*
X3141100Y4886330D01*
X3161100Y4859670D01*
X3175100Y4847670D01*
X3195100Y4839670D01*
X3213100Y4837000D01*
Y4893000D01*
G01X3595500Y435670D02*
X3609500Y443670D01*
X3617500Y454330D01*
X3619500Y466330D01*
X3617500Y477000D01*
X3607500Y487670D01*
X3595500Y494330D01*
X3583500Y495670D01*
X3569500Y493000D01*
X3559500Y483670D01*
X3555500Y474330D01*
Y462330D01*
G01Y474330D02*
X3549500Y482330D01*
X3539500Y489000D01*
X3527500Y491670D01*
X3515500Y489000D01*
X3505500Y482330D01*
X3499500Y470330D01*
X3501500Y458330D01*
X3509500Y446330D01*
G01X3499500Y531670D02*
X3619500Y565000D01*
X3499500Y598330D01*
G01X3595500Y635670D02*
X3609500Y643670D01*
X3617500Y654330D01*
X3619500Y666330D01*
X3617500Y677000D01*
X3607500Y687670D01*
X3595500Y694330D01*
X3583500Y695670D01*
X3569500Y693000D01*
X3559500Y683670D01*
X3555500Y674330D01*
Y662330D01*
G01Y674330D02*
X3549500Y682330D01*
X3539500Y689000D01*
X3527500Y691670D01*
X3515500Y689000D01*
X3505500Y682330D01*
X3499500Y670330D01*
X3501500Y658330D01*
X3509500Y646330D01*
G01X3855500Y435670D02*
X3865500Y443670D01*
X3871500Y453000D01*
X3873500Y465000D01*
X3869500Y477000D01*
X3861500Y486330D01*
X3847500Y493000D01*
X3831500Y494330D01*
X3815500Y491670D01*
X3805500Y485000D01*
X3797500Y475670D01*
X3795500Y466330D01*
X3797500Y457000D01*
X3805500Y445000D01*
X3753500Y449000D01*
Y485000D01*
G01Y531670D02*
X3873500Y565000D01*
X3753500Y598330D01*
G01X3673330Y825000D02*
Y945000D01*
X3705330D01*
X3716000Y939000D01*
X3724000Y925000D01*
X3726670Y909000D01*
X3724000Y893000D01*
X3717330Y881000D01*
X3705330Y875000D01*
X3673330D01*
G01X3800000Y825000D02*
X3792000Y827000D01*
X3784000Y835000D01*
X3778670Y849000D01*
X3776000Y865000D01*
X3778670Y881000D01*
X3784000Y895000D01*
X3792000Y903000D01*
X3800000Y905000D01*
X3808000Y903000D01*
X3816000Y895000D01*
X3821330Y881000D01*
X3822670Y865000D01*
X3821330Y849000D01*
X3816000Y835000D01*
X3808000Y827000D01*
X3800000Y825000D01*
G01X3866670Y905000D02*
X3882670Y825000D01*
X3900000Y905000D01*
X3917330Y825000D01*
X3933330Y905000D01*
G01X3980000Y879000D02*
X4022670D01*
X4018670Y893000D01*
X4012000Y901000D01*
X4002670Y905000D01*
X3993330Y903000D01*
X3985330Y897000D01*
X3980000Y883000D01*
X3977330Y871000D01*
Y859000D01*
X3980000Y847000D01*
X3986670Y835000D01*
X3994670Y827000D01*
X4004000Y825000D01*
X4013330Y829000D01*
X4022670Y841000D01*
G01X4081330Y825000D02*
Y905000D01*
G01Y889000D02*
X4088000Y897000D01*
X4094670Y903000D01*
X4104000Y905000D01*
X4110670Y903000D01*
X4118670Y897000D01*
G01X3961100Y4842330D02*
X3971100Y4851670D01*
X3975100Y4862330D01*
X3971100Y4873000D01*
X3959100Y4882330D01*
X3941100Y4889000D01*
X3923100Y4891670D01*
X3901100D01*
X3883100Y4889000D01*
X3867100Y4882330D01*
X3859100Y4874330D01*
X3855100Y4865000D01*
X3859100Y4854330D01*
X3867100Y4846330D01*
X3879100Y4841000D01*
X3895100Y4838330D01*
X3909100Y4841000D01*
X3923100Y4847670D01*
X3931100Y4855670D01*
X3933100Y4865000D01*
X3929100Y4875670D01*
X3919100Y4883670D01*
X3901100Y4891670D01*
G01X3721100Y4765000D02*
X3601100D01*
X3625100Y4749000D01*
G01X3721100D02*
Y4781000D01*
G01X3601100Y4865000D02*
X3605100Y4854330D01*
X3615100Y4846330D01*
X3627100Y4841000D01*
X3643100Y4837000D01*
X3661100Y4835670D01*
X3679100Y4837000D01*
X3695100Y4841000D01*
X3707100Y4846330D01*
X3717100Y4854330D01*
X3721100Y4865000D01*
X3717100Y4875670D01*
X3707100Y4883670D01*
X3695100Y4889000D01*
X3679100Y4893000D01*
X3661100Y4894330D01*
X3643100Y4893000D01*
X3627100Y4889000D01*
X3615100Y4883670D01*
X3605100Y4875670D01*
X3601100Y4865000D01*
G01X4067500Y473000D02*
Y499670D01*
X4103500D01*
X4115500Y491670D01*
X4123500Y482330D01*
X4127500Y469000D01*
X4123500Y455670D01*
X4115500Y446330D01*
X4103500Y438330D01*
X4089500Y433000D01*
X4073500Y430330D01*
X4059500D01*
X4047500Y433000D01*
X4033500Y438330D01*
X4021500Y446330D01*
X4013500Y454330D01*
X4007500Y465000D01*
Y474330D01*
X4011500Y485000D01*
X4019500Y493000D01*
G01X4127500Y534330D02*
X4007500D01*
X4127500Y595670D01*
X4007500D01*
G01X4127500Y635670D02*
X4007500D01*
Y662330D01*
X4013500Y673000D01*
X4021500Y681000D01*
X4033500Y687670D01*
X4047500Y693000D01*
X4067500Y694330D01*
X4087500Y693000D01*
X4101500Y687670D01*
X4113500Y681000D01*
X4121500Y673000D01*
X4127500Y662330D01*
Y635670D01*
G01X4321500Y473000D02*
Y499670D01*
X4357500D01*
X4369500Y491670D01*
X4377500Y482330D01*
X4381500Y469000D01*
X4377500Y455670D01*
X4369500Y446330D01*
X4357500Y438330D01*
X4343500Y433000D01*
X4327500Y430330D01*
X4313500D01*
X4301500Y433000D01*
X4287500Y438330D01*
X4275500Y446330D01*
X4267500Y454330D01*
X4261500Y465000D01*
Y474330D01*
X4265500Y485000D01*
X4273500Y493000D01*
G01X4381500Y534330D02*
X4261500D01*
X4381500Y595670D01*
X4261500D01*
G01X4381500Y635670D02*
X4261500D01*
Y662330D01*
X4267500Y673000D01*
X4275500Y681000D01*
X4287500Y687670D01*
X4301500Y693000D01*
X4321500Y694330D01*
X4341500Y693000D01*
X4355500Y687670D01*
X4367500Y681000D01*
X4375500Y673000D01*
X4381500Y662330D01*
Y635670D01*
G01X3910670Y4500000D02*
Y4620000D01*
X3937330D01*
X3948000Y4614000D01*
X3956000Y4606000D01*
X3962670Y4594000D01*
X3968000Y4580000D01*
X3969330Y4560000D01*
X3968000Y4540000D01*
X3962670Y4526000D01*
X3956000Y4514000D01*
X3948000Y4506000D01*
X3937330Y4500000D01*
X3910670D01*
G01X4040000Y4580000D02*
Y4500000D01*
G01Y4612000D02*
X4037330Y4614000D01*
Y4618000D01*
X4040000Y4620000D01*
X4042670Y4618000D01*
Y4614000D01*
X4040000Y4612000D01*
G01X4121330Y4470000D02*
X4130670Y4462000D01*
X4141330Y4460000D01*
X4150670Y4462000D01*
X4158670Y4472000D01*
X4164000Y4486000D01*
Y4580000D01*
G01Y4564000D02*
X4158670Y4572000D01*
X4150670Y4578000D01*
X4141330Y4580000D01*
X4130670Y4576000D01*
X4124000Y4568000D01*
X4118670Y4554000D01*
X4116000Y4540000D01*
X4117330Y4528000D01*
X4122670Y4514000D01*
X4130670Y4504000D01*
X4141330Y4500000D01*
X4149330Y4502000D01*
X4158670Y4510000D01*
X4164000Y4518000D01*
G01X4240000Y4580000D02*
Y4500000D01*
G01Y4612000D02*
X4237330Y4614000D01*
Y4618000D01*
X4240000Y4620000D01*
X4242670Y4618000D01*
Y4614000D01*
X4240000Y4612000D01*
G01X4340000Y4620000D02*
Y4500000D01*
G01X4321330Y4580000D02*
X4358670D01*
G01X4464000Y4500000D02*
Y4580000D01*
G01Y4566000D02*
X4458670Y4574000D01*
X4450670Y4578000D01*
X4441330Y4580000D01*
X4432000Y4576000D01*
X4424000Y4568000D01*
X4418670Y4556000D01*
X4416000Y4540000D01*
X4418670Y4524000D01*
X4424000Y4512000D01*
X4432000Y4504000D01*
X4441330Y4500000D01*
X4450670Y4502000D01*
X4458670Y4508000D01*
X4464000Y4516000D01*
G01X4540000Y4500000D02*
Y4620000D01*
G01X4724000D02*
X4756000D01*
G01X4740000D02*
Y4500000D01*
G01X4724000D02*
X4756000D01*
G01X4816000Y4496000D02*
X4864000Y4620000D01*
G01X4940000Y4500000D02*
X4929330Y4502000D01*
X4920000Y4510000D01*
X4912000Y4522000D01*
X4906670Y4536000D01*
X4904000Y4552000D01*
Y4568000D01*
X4906670Y4584000D01*
X4912000Y4598000D01*
X4920000Y4610000D01*
X4929330Y4618000D01*
X4940000Y4620000D01*
X4950670Y4618000D01*
X4960000Y4610000D01*
X4968000Y4598000D01*
X4973330Y4584000D01*
X4976000Y4568000D01*
Y4552000D01*
X4973330Y4536000D01*
X4968000Y4522000D01*
X4960000Y4510000D01*
X4950670Y4502000D01*
X4940000Y4500000D01*
G01X4229100Y4865000D02*
X4227100Y4874330D01*
X4221100Y4885000D01*
X4211100Y4891670D01*
X4197100Y4894330D01*
X4183100Y4891670D01*
X4171100Y4883670D01*
X4165100Y4871670D01*
Y4858330D01*
X4161100Y4850330D01*
X4151100Y4843670D01*
X4137100Y4841000D01*
X4123100Y4845000D01*
X4113100Y4854330D01*
X4109100Y4865000D01*
X4113100Y4875670D01*
X4123100Y4885000D01*
X4137100Y4889000D01*
X4151100Y4886330D01*
X4161100Y4879670D01*
X4165100Y4871670D01*
Y4858330D01*
X4171100Y4846330D01*
X4183100Y4838330D01*
X4197100Y4835670D01*
X4211100Y4838330D01*
X4221100Y4845000D01*
X4227100Y4855670D01*
X4229100Y4865000D01*
G01X4515500Y431670D02*
X4635500Y465000D01*
X4515500Y498330D01*
G01Y549000D02*
Y581000D01*
G01Y565000D02*
X4635500D01*
G01Y549000D02*
Y581000D01*
G01Y634330D02*
X4515500D01*
X4635500Y695670D01*
X4515500D01*
G01X4635500Y4862330D02*
X4609500Y4865000D01*
X4587500Y4869000D01*
X4567500Y4874330D01*
X4545500Y4881000D01*
X4515500Y4891670D01*
Y4838330D01*
G01X5023500Y465000D02*
X5027500Y454330D01*
X5037500Y446330D01*
X5049500Y441000D01*
X5065500Y437000D01*
X5083500Y435670D01*
X5101500Y437000D01*
X5117500Y441000D01*
X5129500Y446330D01*
X5139500Y454330D01*
X5143500Y465000D01*
X5139500Y475670D01*
X5129500Y483670D01*
X5117500Y489000D01*
X5101500Y493000D01*
X5083500Y494330D01*
X5065500Y493000D01*
X5049500Y489000D01*
X5037500Y483670D01*
X5027500Y475670D01*
X5023500Y465000D01*
G01X5125500Y4835670D02*
X5135500Y4843670D01*
X5141500Y4853000D01*
X5143500Y4865000D01*
X5139500Y4877000D01*
X5131500Y4886330D01*
X5117500Y4893000D01*
X5101500Y4894330D01*
X5085500Y4891670D01*
X5075500Y4885000D01*
X5067500Y4875670D01*
X5065500Y4866330D01*
X5067500Y4857000D01*
X5075500Y4845000D01*
X5023500Y4849000D01*
Y4885000D01*
G01X4839500Y4839670D02*
X4825500Y4849000D01*
X4817500Y4857000D01*
X4813500Y4867670D01*
X4817500Y4877000D01*
X4825500Y4883670D01*
X4837500Y4889000D01*
X4851500Y4890330D01*
X4863500Y4889000D01*
X4875500Y4883670D01*
X4885500Y4875670D01*
X4889500Y4866330D01*
X4885500Y4855670D01*
X4873500Y4846330D01*
X4855500Y4841000D01*
X4835500Y4839670D01*
X4809500Y4842330D01*
X4795500Y4846330D01*
X4781500Y4853000D01*
X4771500Y4862330D01*
X4769500Y4871670D01*
X4773500Y4881000D01*
X4783500Y4887670D01*
G01X5397500Y465000D02*
X5277500D01*
X5301500Y449000D01*
G01X5397500D02*
Y481000D01*
G01X5286670Y720000D02*
X5320000Y840000D01*
X5353330Y720000D01*
G01X5341330Y762000D02*
X5298670D01*
G01X5397330Y720000D02*
Y800000D01*
G01Y780000D02*
X5402670Y790000D01*
X5410670Y798000D01*
X5421330Y800000D01*
X5430670Y798000D01*
X5438670Y790000D01*
X5442670Y776000D01*
Y720000D01*
G01X5544000D02*
Y800000D01*
G01Y786000D02*
X5538670Y794000D01*
X5530670Y798000D01*
X5521330Y800000D01*
X5512000Y796000D01*
X5504000Y788000D01*
X5498670Y776000D01*
X5496000Y760000D01*
X5498670Y744000D01*
X5504000Y732000D01*
X5512000Y724000D01*
X5521330Y720000D01*
X5530670Y722000D01*
X5538670Y728000D01*
X5544000Y736000D01*
G01X5620000Y720000D02*
Y840000D01*
G01X5720000Y720000D02*
X5712000Y722000D01*
X5704000Y730000D01*
X5698670Y744000D01*
X5696000Y760000D01*
X5698670Y776000D01*
X5704000Y790000D01*
X5712000Y798000D01*
X5720000Y800000D01*
X5728000Y798000D01*
X5736000Y790000D01*
X5741330Y776000D01*
X5742670Y760000D01*
X5741330Y744000D01*
X5736000Y730000D01*
X5728000Y722000D01*
X5720000Y720000D01*
G01X5801330Y690000D02*
X5810670Y682000D01*
X5821330Y680000D01*
X5830670Y682000D01*
X5838670Y692000D01*
X5844000Y706000D01*
Y800000D01*
G01Y784000D02*
X5838670Y792000D01*
X5830670Y798000D01*
X5821330Y800000D01*
X5810670Y796000D01*
X5804000Y788000D01*
X5798670Y774000D01*
X5796000Y760000D01*
X5797330Y748000D01*
X5802670Y734000D01*
X5810670Y724000D01*
X5821330Y720000D01*
X5829330Y722000D01*
X5838670Y730000D01*
X5844000Y738000D01*
G01X6004000Y840000D02*
X6036000D01*
G01X6020000D02*
Y720000D01*
G01X6004000D02*
X6036000D01*
G01X6097330D02*
Y800000D01*
G01Y780000D02*
X6102670Y790000D01*
X6110670Y798000D01*
X6121330Y800000D01*
X6130670Y798000D01*
X6138670Y790000D01*
X6142670Y776000D01*
Y720000D01*
G01X5397500Y4881000D02*
X5277500D01*
X5363500Y4831670D01*
Y4898330D01*
G01X5551500Y439670D02*
X5539500Y447670D01*
X5533500Y457000D01*
X5531500Y467670D01*
X5535500Y481000D01*
X5545500Y490330D01*
X5557500Y493000D01*
X5569500Y491670D01*
X5579500Y486330D01*
X5599500Y459670D01*
X5613500Y447670D01*
X5633500Y439670D01*
X5651500Y437000D01*
Y493000D01*
G01X5881500Y435670D02*
X5895500Y443670D01*
X5903500Y454330D01*
X5905500Y466330D01*
X5903500Y477000D01*
X5893500Y487670D01*
X5881500Y494330D01*
X5869500Y495670D01*
X5855500Y493000D01*
X5845500Y483670D01*
X5841500Y474330D01*
Y462330D01*
G01Y474330D02*
X5835500Y482330D01*
X5825500Y489000D01*
X5813500Y491670D01*
X5801500Y489000D01*
X5791500Y482330D01*
X5785500Y470330D01*
X5787500Y458330D01*
X5795500Y446330D01*
G01X5805500Y4839670D02*
X5793500Y4847670D01*
X5787500Y4857000D01*
X5785500Y4867670D01*
X5789500Y4881000D01*
X5799500Y4890330D01*
X5811500Y4893000D01*
X5823500Y4891670D01*
X5833500Y4886330D01*
X5853500Y4859670D01*
X5867500Y4847670D01*
X5887500Y4839670D01*
X5905500Y4837000D01*
Y4893000D01*
G01X5627500Y4835670D02*
X5641500Y4843670D01*
X5649500Y4854330D01*
X5651500Y4866330D01*
X5649500Y4877000D01*
X5639500Y4887670D01*
X5627500Y4894330D01*
X5615500Y4895670D01*
X5601500Y4893000D01*
X5591500Y4883670D01*
X5587500Y4874330D01*
Y4862330D01*
G01Y4874330D02*
X5581500Y4882330D01*
X5571500Y4889000D01*
X5559500Y4891670D01*
X5547500Y4889000D01*
X5537500Y4882330D01*
X5531500Y4870330D01*
X5533500Y4858330D01*
X5541500Y4846330D01*
G01X6159500Y481000D02*
X6039500D01*
X6125500Y431670D01*
Y498330D01*
G01X6395500Y435670D02*
X6405500Y443670D01*
X6411500Y453000D01*
X6413500Y465000D01*
X6409500Y477000D01*
X6401500Y486330D01*
X6387500Y493000D01*
X6371500Y494330D01*
X6355500Y491670D01*
X6345500Y485000D01*
X6337500Y475670D01*
X6335500Y466330D01*
X6337500Y457000D01*
X6345500Y445000D01*
X6293500Y449000D01*
Y485000D01*
G01X6420000Y3225000D02*
X6300000D01*
X6324000Y3209000D01*
G01X6420000D02*
Y3241000D01*
G01X5944330Y4630000D02*
Y4510000D01*
X5997670D01*
G01X6097670D02*
X6044330D01*
Y4630000D01*
X6097670D01*
G01X6076330Y4572000D02*
X6044330D01*
G01X6141670Y4510000D02*
Y4630000D01*
X6168330D01*
X6179000Y4624000D01*
X6187000Y4616000D01*
X6193670Y4604000D01*
X6199000Y4590000D01*
X6200330Y4570000D01*
X6199000Y4550000D01*
X6193670Y4536000D01*
X6187000Y4524000D01*
X6179000Y4516000D01*
X6168330Y4510000D01*
X6141670D01*
G01X6293500Y4865000D02*
X6297500Y4854330D01*
X6307500Y4846330D01*
X6319500Y4841000D01*
X6335500Y4837000D01*
X6353500Y4835670D01*
X6371500Y4837000D01*
X6387500Y4841000D01*
X6399500Y4846330D01*
X6409500Y4854330D01*
X6413500Y4865000D01*
X6409500Y4875670D01*
X6399500Y4883670D01*
X6387500Y4889000D01*
X6371500Y4893000D01*
X6353500Y4894330D01*
X6335500Y4893000D01*
X6319500Y4889000D01*
X6307500Y4883670D01*
X6297500Y4875670D01*
X6293500Y4865000D01*
G01X6159500D02*
X6039500D01*
X6063500Y4849000D01*
G01X6159500D02*
Y4881000D01*
G01X6424000Y998330D02*
Y1078330D01*
X6449000D01*
X6457000Y1074330D01*
X6462000Y1069000D01*
X6464000Y1058330D01*
X6462000Y1047660D01*
X6456000Y1041000D01*
X6449000Y1037000D01*
X6424000D01*
G01X6449000D02*
X6464000Y998330D01*
G01X6542000D02*
X6502000D01*
Y1078330D01*
X6542000D01*
G01X6526000Y1039660D02*
X6502000D01*
G01X6575000Y1078330D02*
X6600000Y998330D01*
X6625000Y1078330D01*
G01X6678000Y995660D02*
X6676000Y997000D01*
Y999660D01*
X6678000Y1001000D01*
X6680000Y999660D01*
Y997000D01*
X6678000Y995660D01*
G01X6731000Y998330D02*
X6756000Y1078330D01*
X6781000Y998330D01*
G01X6772000Y1026330D02*
X6740000D01*
M02*
