G04 ================== begin FILE IDENTIFICATION RECORD ==================*
G04 Layout Name:  netduino2_20Dec16_0600.brd*
G04 Film Name:    L1-TOP*
G04 File Format:  Gerber RS274X*
G04 File Origin:  Cadence Allegro 16.6-2015-S069*
G04 Origin Date:  Tue Dec 20 07:05:13 2016*
G04 *
G04 Layer:  ETCH/TOP*
G04 Layer:  PIN/TOP*
G04 Layer:  VIA CLASS/TOP*
G04 *
G04 Offset:    (0.0000 0.0000)*
G04 Mirror:    No*
G04 Mode:      Positive*
G04 Rotation:  0*
G04 FullContactRelief:  No*
G04 UndefLineWidth:     0.1270*
G04 ================== end FILE IDENTIFICATION RECORD ====================*
%FSLAX25Y25*MOIN*%
%IR0*IPPOS*OFA0.00000B0.00000*MIA0B0*SFA1.00000B1.00000*%
%ADD44R,.011811X.047244*%
%ADD45R,.047244X.011811*%
%ADD30R,.023622X.047244*%
%ADD16R,.05315X.015748*%
%ADD43R,.017717X.041339*%
%ADD24C,.023622*%
%ADD39R,.037402X.039402*%
%ADD17C,.035433*%
%ADD31R,.039402X.037402*%
%ADD51C,.038189*%
%ADD37R,.035402X.039402*%
%ADD32R,.039402X.035402*%
%ADD13R,.082677X.043307*%
%ADD22R,.047244X.047244*%
%ADD14O,.070866X.15748*%
%ADD21O,.15748X.070866*%
%ADD20R,.041339X.055118*%
%ADD18R,.11811X.062992*%
%ADD49R,.059055X.055118*%
%ADD38R,.047244X.070866*%
%ADD15R,.045276X.055118*%
%ADD40R,.045276X.129921*%
%ADD11R,.070866X.086614*%
%ADD46R,.015748X.023622*%
%ADD28O,.070866X.177165*%
%ADD10C,.03937*%
%ADD48R,.011811X.031496*%
%ADD27R,.045276X.070866*%
%ADD35R,.070866X.045276*%
%ADD33R,.045276X.057087*%
%ADD19R,.057087X.045276*%
%ADD25R,.041339X.068898*%
%ADD50R,.09252X.088583*%
%ADD12R,.066929X.052165*%
%ADD41R,.023622X.025591*%
%ADD26R,.244094X.228346*%
%ADD23R,.025591X.023622*%
%ADD29C,.000004*%
%ADD47R,.029528X.01378*%
%ADD34R,.031496X.037402*%
%ADD36C,.072835*%
%ADD42R,.072835X.072835*%
%ADD52C,.011811*%
%ADD53C,.015748*%
%ADD54C,.019685*%
%ADD55C,.027559*%
%ADD56C,.009843*%
%ADD57C,.031496*%
%ADD58C,.01*%
G75*
%LPD*%
G75*
G36*
G01X33740Y142598D02*
X31772Y144567D01*
Y173110D01*
X41614D01*
Y182953D01*
X63268D01*
Y142598D01*
X33740D01*
G37*
G36*
G01X78937Y143307D02*
X71457Y150787D01*
Y163386D01*
X78150D01*
Y158071D01*
X82283D01*
Y163386D01*
X88976D01*
Y158661D01*
X91929Y155709D01*
X92322D01*
Y153444D01*
X96654D01*
Y155709D01*
X103150D01*
Y143307D01*
X78937D01*
G37*
G54D10*
X6890Y6890D03*
X252953Y178150D03*
X263780Y60039D03*
G54D11*
X6890Y62992D03*
X24606D03*
G54D20*
X17205Y179016D03*
X24685D03*
G54D12*
X4921Y91762D03*
Y118238D03*
G54D21*
X36417Y13802D03*
G54D30*
X73031Y67913D03*
Y58071D03*
X80512Y67913D03*
Y58071D03*
X76772D03*
X101575Y171850D03*
X105315Y162795D03*
X101575D03*
X109055Y171850D03*
Y162795D03*
G54D40*
X101083Y149606D03*
X109547D03*
G54D22*
X37537Y82921D03*
Y74654D03*
X235630Y171457D03*
Y163189D03*
G54D13*
X5709Y98504D03*
Y111496D03*
G54D31*
X62008Y59843D03*
Y66142D03*
X70866Y83858D03*
Y77559D03*
X100394Y59843D03*
Y66142D03*
X173228Y75591D03*
Y81890D03*
X178150Y170472D03*
Y164173D03*
G54D23*
X24606Y100591D03*
Y104134D03*
Y119882D03*
Y116339D03*
Y112008D03*
Y108465D03*
X79921Y20669D03*
X83465D03*
G54D41*
X94488Y155709D03*
Y159252D03*
Y172047D03*
Y168504D03*
X107283Y103543D03*
Y107087D03*
G54D50*
X239370Y73819D03*
X258661D03*
G54D14*
X23819Y32700D03*
G54D32*
X62008Y83858D03*
Y77559D03*
X79724Y83858D03*
Y77559D03*
X91535Y59843D03*
Y66142D03*
X188976Y164173D03*
Y170472D03*
X199803Y164173D03*
Y170472D03*
G54D42*
X110000Y10000D03*
X164000Y200000D03*
X200000Y10000D03*
X250000Y200000D03*
G54D33*
X72244Y94488D03*
X79331D03*
X141142Y76772D03*
X148228D03*
G54D15*
X16339Y95157D03*
Y114843D03*
G54D51*
X254035Y97441D03*
Y102441D03*
Y107441D03*
Y112441D03*
Y117441D03*
X259035Y97441D03*
Y102441D03*
Y107441D03*
Y112441D03*
Y117441D03*
G54D24*
G01X44291Y133858D02*
X49213D01*
G01X71457Y125984D02*
X75787D01*
G01X79528Y118110D02*
X84646D01*
G01X105315Y162795D02*
Y167913D01*
G01X99350Y168248D02*
X101575Y170472D01*
Y171850D01*
G01X109055Y162795D02*
Y150098D01*
X109547Y149606D01*
G01X109055Y171850D02*
X116732D01*
X118110Y173228D01*
X28051Y100591D03*
Y112008D03*
Y119882D03*
X38661Y150472D03*
Y155394D03*
Y170157D03*
Y165236D03*
Y160315D03*
X42323Y73819D03*
X43583Y150472D03*
X48504D03*
X53425D03*
Y155394D03*
X48504D03*
X43583D03*
Y160315D03*
Y165236D03*
Y170157D03*
X53425Y160315D03*
Y165236D03*
Y170157D03*
X48504D03*
Y160315D03*
Y165236D03*
X62008Y55807D03*
X73031Y72441D03*
X70866Y87894D03*
X62008Y73624D03*
Y89567D03*
X67717Y94488D03*
X58346Y150472D03*
Y155394D03*
Y170157D03*
Y165236D03*
Y160315D03*
X88778Y31496D03*
X76772Y53543D03*
X79724Y87794D03*
X88287Y91535D03*
X83858Y94488D03*
X88189Y129921D03*
X100394Y55807D03*
Y70177D03*
X91535Y70077D03*
X92323Y80510D03*
X98622D03*
X102657Y123031D03*
X102756Y129921D03*
X101575Y158268D03*
X116535Y54331D03*
Y70374D03*
X119069Y99803D03*
X109646Y98031D03*
X109252Y92323D03*
X123425Y96654D03*
X119957Y96576D03*
X118868Y122448D03*
X119685Y111306D03*
X121850Y119094D03*
X119291Y129921D03*
X123425Y134843D03*
X121654Y146654D03*
X123425Y187598D03*
X112795Y182283D03*
X134252Y55906D03*
X124803Y72636D03*
X131102D03*
X134252Y70669D03*
X136614Y76772D03*
X125984Y89173D03*
X134646Y105118D03*
X136792Y102424D03*
X140157Y95276D03*
X127559Y97244D03*
X140059Y103150D03*
X136024Y118307D03*
X128937Y108169D03*
X132234Y107593D03*
X130315Y120669D03*
X125000Y117520D03*
X124016Y125394D03*
X127756Y135039D03*
X133858Y125394D03*
X132283Y135039D03*
X135752Y134449D03*
X132087Y142518D03*
X127756Y186122D03*
X133858Y177953D03*
X148031Y55906D03*
X150689Y50197D03*
X144291Y44488D03*
X153150Y70079D03*
X142323Y66732D03*
X154724Y83465D03*
X143075Y90094D03*
X152165Y104528D03*
X148592Y91107D03*
X154921Y102362D03*
X146228Y96121D03*
X154921Y98425D03*
Y95079D03*
X141357Y98997D03*
X152952Y110033D03*
X154528Y120472D03*
X151575Y125394D03*
X149606Y134449D03*
X141142D03*
X145669Y125394D03*
X147835Y142518D03*
X141535D03*
X142717Y184646D03*
X161220Y36811D03*
X173425Y45866D03*
X173228Y71457D03*
X168952Y81205D03*
X165518Y83173D03*
X159449Y89764D03*
X164173Y99409D03*
Y96063D03*
X173228Y134055D03*
X163976Y123622D03*
X164469Y180610D03*
X179134Y56102D03*
X176378Y49606D03*
X181102Y73031D03*
X189370Y86220D03*
X183661Y101772D03*
X185630Y98425D03*
X186614Y94488D03*
X188976Y156496D03*
X177953Y159449D03*
X178150Y174508D03*
X188976Y174408D03*
X189173Y182283D03*
X183465Y185630D03*
X199409Y55610D03*
X193110D03*
X196260Y70374D03*
X205906Y73031D03*
X199016Y86220D03*
X199654Y93583D03*
X194291Y117717D03*
X204724Y170866D03*
X194094Y179134D03*
X213780Y55610D03*
X220079Y54724D03*
Y42520D03*
X223228Y70374D03*
X213780Y70866D03*
Y76378D03*
X209055Y92520D03*
X221260Y115228D03*
X212516Y107039D03*
X215354Y121060D03*
X215551Y132874D03*
X235689Y93988D03*
X239366Y97490D03*
X224882Y108689D03*
X225043Y113283D03*
X237205Y127953D03*
X231102Y171457D03*
X229724Y163189D03*
X241142Y132874D03*
G54D52*
G01X42323Y73819D02*
X38372D01*
X37537Y74654D01*
G01X62008Y59843D02*
Y55807D01*
G01X70866Y83858D02*
Y87894D01*
G01X62008Y77559D02*
Y73624D01*
G01X84843Y31496D02*
X88778D01*
G01X76772Y58071D02*
Y53543D01*
G01X73031Y67913D02*
Y72441D01*
G01X79724Y83858D02*
Y87794D01*
G01X92323Y91535D02*
X88287D01*
G01X100394Y59843D02*
Y55807D01*
G01Y66142D02*
Y70177D01*
G01X91535Y66142D02*
Y70077D01*
G01X92323Y84646D02*
Y80510D01*
G01X98622Y84646D02*
Y80510D01*
G01X92323Y91535D02*
Y97835D01*
X90748Y99409D01*
G01X100197D02*
X98622Y97835D01*
Y91535D01*
G01Y123031D02*
Y116732D01*
X100197Y115157D01*
G01X90748D02*
X92323Y116732D01*
Y123031D01*
G01X98622D02*
X102657D01*
G01X116535Y66142D02*
Y70374D01*
G01X139370Y66732D02*
X142323D01*
G01X134252Y59252D02*
Y55906D01*
G01X153150Y66732D02*
Y70079D01*
G01X148031Y59252D02*
Y55906D01*
G01X179134Y59843D02*
Y56102D01*
G01X178150Y170472D02*
Y174508D01*
G01X188976Y170472D02*
Y174408D01*
G01X193110Y59843D02*
Y55610D01*
G01X199409Y59843D02*
Y55610D01*
G01X196260Y66142D02*
Y70374D01*
G01X213780Y59843D02*
Y55610D01*
G01X223228Y66142D02*
Y70374D01*
G01X235630Y171457D02*
X231102D01*
G54D34*
X72047Y118110D03*
X79528D03*
X75787Y125984D03*
G54D25*
X32480Y133858D03*
X44291D03*
G54D43*
X122835Y59843D03*
X119685D03*
X116535D03*
X113386D03*
Y66142D03*
X116535D03*
X119685D03*
X122835D03*
X202559Y59843D03*
X199409D03*
X196260D03*
X193110D03*
Y66142D03*
X196260D03*
X199409D03*
X202559D03*
X223228Y59843D03*
X220079D03*
X216929D03*
X213780D03*
Y66142D03*
X216929D03*
X220079D03*
X223228D03*
G54D16*
X16437Y105000D03*
Y102441D03*
Y99882D03*
Y110118D03*
Y107559D03*
G54D53*
G01Y99882D02*
X19803D01*
X23031Y96654D01*
G01X16437Y110118D02*
X19390D01*
X21358Y112087D01*
Y114862D01*
X22835Y116339D01*
X24606D01*
G01X72244Y94488D02*
X67717D01*
G01X79331D02*
X83858D01*
G01X92323Y129921D02*
X88189D01*
G01X98622D02*
X102756D01*
G01X125787Y146654D02*
X121654D01*
G01X140000Y10000D02*
Y33898D01*
X157874Y51772D01*
Y64764D01*
X159843Y66732D01*
X161811D01*
G01X124803Y76772D02*
Y72636D01*
G01X131102Y76772D02*
Y72636D01*
G01X132087Y146654D02*
Y142518D01*
G01X166929Y59252D02*
Y50984D01*
X150000Y34055D01*
Y10000D01*
G01X147835Y146654D02*
Y142518D01*
G01X141535Y146654D02*
Y142518D01*
G01X161811Y59252D02*
Y55315D01*
G01X173228Y75591D02*
Y71457D01*
G01X166929Y66732D02*
Y70669D01*
G01X173228Y81890D02*
X169778D01*
X169093Y81205D01*
X168952D01*
G54D26*
X49213Y160315D03*
G54D35*
X74803Y173228D03*
Y161417D03*
X85630Y173228D03*
Y161417D03*
X118110D03*
Y173228D03*
X128937Y161417D03*
Y173228D03*
X173228Y90551D03*
Y102362D03*
G54D17*
G01X10118Y156772D02*
X10315D01*
X15772Y151315D01*
X20945D01*
G01D02*
Y144094D01*
G01X17205Y179016D02*
Y172323D01*
X20213Y169315D01*
G01D02*
X20945D01*
G01D02*
Y163189D01*
G01X20213Y169315D02*
X15772D01*
X10315Y163858D01*
X10118D01*
G01X24606Y62992D02*
Y72835D01*
G01X24685Y179016D02*
X31772D01*
G01X75787Y43898D02*
X70669D01*
G01X69882Y107283D02*
Y100984D01*
G01X87598Y43898D02*
Y50197D01*
G01X81693Y107283D02*
Y100984D01*
G01X173228Y102362D02*
X166929D01*
G01X173228Y90551D02*
X179528D01*
G01X239370Y73819D02*
Y81102D01*
G01X254921Y60039D02*
Y66339D01*
G01X243110Y60039D02*
Y66339D01*
G01X258661Y73819D02*
Y81693D01*
X23031Y96654D03*
X20945Y144094D03*
Y163189D03*
X24606Y72835D03*
X34724Y145551D03*
X33740Y155394D03*
Y150472D03*
X39646Y145551D03*
X33740Y170157D03*
Y165236D03*
Y160315D03*
X49213Y133858D03*
X54409Y145551D03*
X49488D03*
X44567D03*
X54409Y180000D03*
X49488D03*
Y175079D03*
X54409D03*
X70669Y43898D03*
X69882Y100984D03*
X71457Y125984D03*
X73228Y151870D03*
Y156398D03*
X59331Y145551D03*
Y180000D03*
Y175079D03*
X87598Y50197D03*
X81693Y100984D03*
X84646Y118110D03*
X85630Y178248D03*
X74803D03*
X105315Y167913D03*
X118110Y156398D03*
Y178248D03*
X128937Y156398D03*
Y178248D03*
X161811Y55315D03*
X166929Y70669D03*
Y102362D03*
X179528Y90551D03*
X239370Y81102D03*
X254921Y66339D03*
X243110D03*
X258661Y81693D03*
G54D44*
X122047Y84646D03*
Y129921D03*
X137795Y84646D03*
X135827D03*
X133858D03*
X131890D03*
X129921D03*
X127953D03*
X125984D03*
X124016D03*
Y129921D03*
X125984D03*
X127953D03*
X129921D03*
X131890D03*
X133858D03*
X135827D03*
X137795D03*
X151575Y84646D03*
X149606D03*
X147638D03*
X145669D03*
X143701D03*
X141732D03*
X139764D03*
Y129921D03*
X141732D03*
X143701D03*
X145669D03*
X147638D03*
X149606D03*
X151575D03*
G54D54*
G01X24606Y100591D02*
X28051D01*
G01X24606Y119882D02*
X28051D01*
G01X24606Y112008D02*
X28051D01*
G01X32480Y133858D02*
Y119685D01*
X29134Y116339D01*
X24606D01*
G01X94488Y168504D02*
Y159252D01*
G01Y168504D02*
X94744Y168248D01*
X99350D01*
G54D36*
X74000Y200000D03*
X84000D03*
X94000D03*
X104000D03*
X120000Y10000D03*
X114000Y200000D03*
X124000D03*
X140000Y10000D03*
X130000D03*
X134000Y200000D03*
X150000Y10000D03*
X144000Y200000D03*
X154000D03*
X170000Y10000D03*
X160000D03*
X180000D03*
Y200000D03*
X190000D03*
X200000D03*
X220000Y10000D03*
X210000D03*
Y200000D03*
X220000D03*
X240000Y10000D03*
X230000D03*
Y200000D03*
X240000D03*
X250000Y10000D03*
G54D27*
X31772Y179016D03*
X43583D03*
X69882Y107283D03*
X87598Y43898D03*
X75787D03*
X81693Y107283D03*
X254921Y60039D03*
X243110D03*
G54D18*
X20945Y151315D03*
Y169315D03*
G54D45*
X114173Y92520D03*
Y94488D03*
Y96457D03*
Y98425D03*
Y100394D03*
Y102362D03*
Y104331D03*
Y106299D03*
Y108268D03*
Y110236D03*
Y112205D03*
Y114173D03*
Y116142D03*
Y118110D03*
Y120079D03*
Y122047D03*
X159449Y104331D03*
Y102362D03*
Y100394D03*
Y98425D03*
Y96457D03*
Y94488D03*
Y92520D03*
Y122047D03*
Y120079D03*
Y118110D03*
Y116142D03*
Y114173D03*
Y112205D03*
Y110236D03*
Y108268D03*
Y106299D03*
G54D55*
G01X94488Y172047D02*
X93110Y173425D01*
G01X203720Y100842D02*
Y95920D01*
X201383Y93583D01*
X199654D01*
G54D19*
X10118Y156772D03*
Y163858D03*
X173228Y122441D03*
Y129528D03*
G54D28*
X47441Y32700D03*
G54D46*
X139370Y59252D03*
X136811D03*
X134252D03*
Y66732D03*
X136811D03*
X139370D03*
X153150Y59252D03*
X150591D03*
X148031D03*
Y66732D03*
X150591D03*
X153150D03*
X161811D03*
X164370D03*
X166929D03*
Y59252D03*
X164370D03*
X161811D03*
G54D37*
X84843Y31496D03*
X78543D03*
G54D56*
G01X24606Y104134D02*
X23425Y105315D01*
X16752D01*
X16437Y105000D01*
G01X24606Y108465D02*
X23425Y107283D01*
X16713D01*
X16437Y107559D01*
G01X83465Y20669D02*
Y17953D01*
X81850Y16339D01*
X74016D01*
X62008Y28346D01*
Y44094D01*
X43110Y62992D01*
X24606D01*
G01X37537Y82921D02*
X49654D01*
X50591Y83858D01*
X62008D01*
G01X175591Y113484D02*
X180413D01*
X182480Y115551D01*
Y130118D01*
X174803Y137795D01*
X78346D01*
X77362Y136811D01*
Y133858D01*
X76378Y132874D01*
X75394Y132874D01*
X74409Y133858D01*
Y135827D01*
X74410Y136811D01*
X73425Y137795D01*
X69291D01*
X36811Y105315D01*
X25787D01*
X24606Y104134D01*
G01X175591Y110925D02*
X180807D01*
X184449Y114567D01*
Y131102D01*
X175787Y139764D01*
X68307D01*
X35827Y107283D01*
X25787D01*
X24606Y108465D01*
G01X78543Y31496D02*
X75394D01*
X66929Y39961D01*
Y46850D01*
X73031Y52953D01*
Y58071D01*
G01X72047Y118110D02*
X66732D01*
X65059Y116437D01*
Y89665D01*
X66339Y88386D01*
Y67520D01*
X70472Y63386D01*
X78937D01*
X80512Y64961D01*
Y67913D01*
G01X73031Y58071D02*
X70472D01*
X67126Y61417D01*
Y63780D01*
X64764Y66142D01*
X62008D01*
G01X79724Y77559D02*
X70866D01*
G01X62008Y83858D02*
Y89567D01*
G01X78543Y31496D02*
Y22047D01*
X79921Y20669D01*
G01X80512Y58071D02*
X85039D01*
X86811Y59843D01*
G01D02*
X91535D01*
G01X79724Y77559D02*
X83071D01*
X86811Y73819D01*
Y59843D01*
G01X159449Y110236D02*
X156496D01*
X155709Y109449D01*
Y109031D01*
X154053Y107375D01*
X151680D01*
X138091Y120965D01*
X134547D01*
X131594Y118012D01*
X129035D01*
X125984Y121063D01*
X124213D01*
X118994Y126281D01*
X79628D01*
X79331Y125984D01*
X75787D01*
G01X107283Y103543D02*
Y102165D01*
X106102Y100984D01*
X101772D01*
X100197Y99409D01*
G01X114173Y114173D02*
X107283D01*
X101575Y108465D01*
X96260D01*
X90748Y113976D01*
Y115157D01*
G01X101575Y162795D02*
Y158268D01*
G01X122835Y59843D02*
Y56693D01*
X121260Y55118D01*
X119685D01*
G01Y59843D02*
Y55118D01*
G01D02*
Y53543D01*
X130000Y43228D01*
Y10000D01*
G01X116535Y54331D02*
Y59843D01*
G01Y70374D02*
X116437Y70276D01*
X114173D01*
X113386Y69488D01*
Y66142D01*
G01X116535Y70374D02*
X116634Y70276D01*
X118898D01*
X119685Y69488D01*
Y66142D01*
G01X139370Y59252D02*
Y62008D01*
X137992Y63386D01*
X132087D01*
X125591Y69882D01*
X122076D01*
X118926Y73031D01*
X109252D01*
G01D02*
Y61417D01*
X110827Y59843D01*
X113386D01*
G01X122835Y66142D02*
X124606D01*
X127362Y63386D01*
Y59037D01*
X133151Y53248D01*
X135353D01*
X136909Y54805D01*
Y57007D01*
X136811Y57105D01*
Y59252D01*
G01X109252Y92323D02*
Y73031D01*
G01X140059Y103150D02*
Y101932D01*
X137893Y99766D01*
X135790D01*
X127854Y91831D01*
X124883D01*
X122047Y88995D01*
Y84646D01*
G01X119069Y99803D02*
X118829Y100043D01*
X118322D01*
X117972Y100394D01*
X114173D01*
G01Y98425D02*
X110039D01*
X109646Y98031D01*
G01X114173Y106299D02*
X116621D01*
X116719Y106398D01*
X122041D01*
X122927Y105512D01*
X130038D01*
X132120Y107593D01*
X132234D01*
G01X114173Y104331D02*
X117437D01*
X117535Y104429D01*
X121225D01*
X122111Y103543D01*
X130854D01*
X131641Y104331D01*
X133465D01*
X134252Y105118D01*
X134646D01*
G01X114173Y102362D02*
X118252D01*
X118351Y102461D01*
X120409D01*
X121295Y101575D01*
X131670D01*
X132457Y102362D01*
X136731D01*
X136792Y102424D01*
G01X127559Y97244D02*
Y97029D01*
X124526Y93996D01*
X124114D01*
X122069Y91950D01*
X117695D01*
X117126Y92520D01*
X114173D01*
G01X123425Y96654D02*
X122638Y95866D01*
Y95499D01*
X121057Y93919D01*
X118680D01*
X118110Y94488D01*
X114173D01*
G01Y96457D02*
X119837D01*
X119957Y96576D01*
G01X114173Y122047D02*
X118467D01*
X118868Y122448D01*
G01X119685Y111306D02*
X118713Y110335D01*
X115088D01*
X114989Y110236D01*
X114173D01*
G01X107283Y107087D02*
Y110827D01*
X108661Y112205D01*
X114173D01*
G01X121850Y119094D02*
X121555Y119390D01*
X118472D01*
X117881Y119980D01*
X117009D01*
X116911Y120079D01*
X114173D01*
G01X128937Y108169D02*
X128740Y108366D01*
X115904D01*
X115805Y108268D01*
X114173D01*
G01X125000Y117520D02*
X123819Y116339D01*
X118739D01*
X117066Y118012D01*
X116193D01*
X116095Y118110D01*
X114173D01*
G01X122047Y129921D02*
X119291D01*
G01X114000Y200000D02*
Y193265D01*
X123801Y183465D01*
X129724D01*
X133563Y187303D01*
X171897D01*
X184449Y174751D01*
Y156084D01*
X190354Y150178D01*
Y105512D01*
X188780Y103937D01*
Y96654D01*
X186614Y94488D01*
G01X164469Y180610D02*
X159350D01*
X158465Y181496D01*
X122019D01*
X121231Y182283D01*
X112795D01*
G01X134252Y66732D02*
Y70669D01*
G01D02*
X134449Y70472D01*
X136220D01*
X136811Y69882D01*
Y66732D01*
G01X124016Y84646D02*
Y77559D01*
X124803Y76772D01*
G01X141142D02*
X136614D01*
G01X125984Y84646D02*
Y89173D01*
G01X140157Y95276D02*
X135827Y90945D01*
Y84646D01*
G01X148592Y91107D02*
X148885Y91400D01*
Y97222D01*
X147328Y98778D01*
X145127D01*
X143504Y97156D01*
Y94685D01*
X137795Y88976D01*
Y84646D01*
G01X141357Y98997D02*
X141179Y98819D01*
X139961D01*
X138780Y97638D01*
X137992D01*
X131890Y91535D01*
Y84646D01*
G01X151378Y89567D02*
Y97513D01*
X143084Y105807D01*
X138287D01*
X133957Y110138D01*
X126575Y117520D01*
X125000D01*
G01X136024Y118307D02*
X149803Y104528D01*
X152165D01*
G01X130315Y120669D02*
X129921Y121063D01*
Y129921D01*
G01X124016D02*
Y125394D01*
G01X139764Y129921D02*
Y133071D01*
X141142Y134449D01*
G01X127953Y129921D02*
Y134759D01*
X127756Y134956D01*
Y135039D01*
G01X123425Y134843D02*
X124016D01*
X125984Y132874D01*
Y129921D01*
G01X133858D02*
Y125394D01*
G01X132283Y135039D02*
X131890Y134646D01*
Y129921D01*
G01X135827D02*
Y134374D01*
X135752Y134449D01*
G01X127756Y186122D02*
X131201Y189567D01*
X196063D01*
X200000Y193504D01*
Y200000D01*
G01X190000D02*
Y194724D01*
X187008Y191732D01*
X127559D01*
X123425Y187598D01*
G01X133858Y177953D02*
X146260D01*
X186417Y137795D01*
Y107706D01*
X183661Y104950D01*
Y101772D01*
G01X150689Y50197D02*
Y57007D01*
X150591Y57105D01*
Y59252D01*
G01Y66732D02*
Y64173D01*
X149409Y62992D01*
X146654D01*
X144291Y60630D01*
Y44488D01*
G01X165518Y83173D02*
X162485D01*
X148031Y68719D01*
Y66732D01*
G01X153150Y59252D02*
Y62008D01*
X155610Y64469D01*
Y66634D01*
X158858Y69882D01*
X162992D01*
X164370Y68504D01*
Y66732D01*
G01X151575Y84646D02*
X153543D01*
X154724Y83465D01*
G01X143701Y84646D02*
Y87598D01*
X143075Y88224D01*
Y90094D01*
G01X149606Y84646D02*
Y78150D01*
X148228Y76772D01*
G01X146228Y96121D02*
Y93078D01*
X145866Y92717D01*
Y88976D01*
X145669Y88780D01*
Y84646D01*
G01X193110Y78740D02*
X182087D01*
X174996Y85831D01*
X166978D01*
X166490Y86319D01*
X157972D01*
X154724Y89567D01*
X151378D01*
G01D02*
X150197Y88386D01*
X148425D01*
X147638Y87598D01*
Y84646D01*
G01X159449Y102362D02*
X154921D01*
G01X159449Y98425D02*
X154921D01*
G01X159449Y94488D02*
X156102D01*
X155512Y95079D01*
X154921D01*
G01X152952Y110033D02*
X152953Y110033D01*
Y110236D01*
X154921Y112205D01*
X159449D01*
G01Y118110D02*
X156496D01*
X155709Y118898D01*
Y119291D01*
X154528Y120472D01*
G01X151575Y129921D02*
Y125394D01*
G01X149606Y129921D02*
Y134449D01*
G01X145669Y129921D02*
Y125394D01*
G01X185630Y98425D02*
Y99981D01*
X186319Y100670D01*
Y104823D01*
X188386Y106890D01*
Y149363D01*
X182480Y155268D01*
Y173935D01*
X171770Y184646D01*
X142717D01*
G01X161220Y36811D02*
X214370D01*
X220079Y42520D01*
G01X164370Y62795D02*
X168504D01*
X170669Y60630D01*
Y44864D01*
X172324Y43209D01*
X215453D01*
X223228Y50984D01*
Y59843D01*
G01X164370Y66732D02*
Y62795D01*
G01D02*
Y59252D01*
G01X173425Y45866D02*
Y63976D01*
X175591Y66142D01*
X177165D01*
G01X159449Y92520D02*
Y89764D01*
G01Y100394D02*
X163189D01*
X164173Y99409D01*
G01X159449Y96457D02*
X163780D01*
X164173Y96063D01*
G01X163976Y123622D02*
X162402Y122047D01*
X159449D01*
G01Y120079D02*
X164567D01*
X166929Y122441D01*
X173228D01*
G01X170866Y110925D02*
X165650D01*
X162402Y114173D01*
X159449D01*
G01X170866Y113484D02*
X166043D01*
X163386Y116142D01*
X159449D01*
G01X173228Y129528D02*
Y134055D01*
G01X216929Y59843D02*
Y54528D01*
X212008Y49606D01*
X176378D01*
G01X181102Y66142D02*
Y73031D01*
G01X189370Y86220D02*
X190748Y87598D01*
Y102953D01*
X193305Y105510D01*
Y112148D01*
X197047Y115890D01*
Y129921D01*
X199803Y132677D01*
Y164173D01*
G01X177953Y159449D02*
Y163976D01*
X178150Y164173D01*
G01X188976Y156496D02*
Y164173D01*
G01X199016Y86220D02*
X206398Y93602D01*
Y93621D01*
X209220Y96444D01*
Y117867D01*
X208760Y118327D01*
Y120530D01*
X208759Y120530D01*
Y172934D01*
X199409Y182283D01*
X189173D01*
G01X183465Y185630D02*
X200394D01*
X209783Y176240D01*
Y174694D01*
X210728Y173750D01*
Y121346D01*
X210728Y121345D01*
Y119143D01*
X211189Y118682D01*
Y118232D01*
X212516Y116906D01*
Y107039D01*
G01X196260Y59843D02*
Y54921D01*
X198228Y52953D01*
X205118D01*
X208465Y56299D01*
Y71850D01*
X210335Y73720D01*
G01X215551Y132874D02*
X218626Y129799D01*
Y120572D01*
X219024Y120175D01*
Y116751D01*
X218602Y116330D01*
Y114127D01*
X219110Y113619D01*
Y113450D01*
X219209Y113352D01*
Y97104D01*
X219110Y97006D01*
Y95094D01*
X202559Y78543D01*
Y66142D01*
G01X205906Y73031D02*
Y61417D01*
X204331Y59843D01*
X202559D01*
G01X193110Y66142D02*
Y78740D01*
G01X215354Y121060D02*
Y119635D01*
X216453Y118537D01*
Y113493D01*
X217055Y112890D01*
Y112721D01*
X217240Y112536D01*
Y97920D01*
X217055Y97735D01*
Y96583D01*
X199409Y78937D01*
Y66142D01*
G01X203720Y112653D02*
X199735D01*
X197299Y110217D01*
Y104780D01*
X193110Y100591D01*
Y78740D01*
G01X194291Y117717D02*
Y159843D01*
X194094Y160039D01*
Y179134D01*
G01X204724Y170866D02*
X200197D01*
X199803Y170472D01*
G01X220079Y59843D02*
Y54724D01*
G01X210335Y73720D02*
X215560D01*
X216929Y72352D01*
Y66142D01*
G01X213780Y76378D02*
X217520D01*
X220079Y73819D01*
Y66142D01*
G01X213780Y70866D02*
Y66142D01*
G01X224882Y108689D02*
Y91239D01*
X210335Y76692D01*
Y73720D01*
G01X209055Y92520D02*
X215272Y98736D01*
Y111720D01*
X214484Y112508D01*
Y117721D01*
X213157Y119048D01*
Y119498D01*
X212697Y119959D01*
Y133778D01*
X213157Y134239D01*
Y174104D01*
X212598Y174663D01*
Y182874D01*
X210000Y185472D01*
Y200000D01*
G01X221260Y115228D02*
Y117886D01*
X221170Y117975D01*
Y193711D01*
X220000Y194882D01*
Y200000D01*
G01X240000D02*
Y155794D01*
X227012Y142806D01*
Y125043D01*
X236122Y115933D01*
Y94421D01*
X235689Y93988D01*
G01X250000Y200000D02*
Y193701D01*
X246260Y189961D01*
Y159270D01*
X228980Y141991D01*
Y127394D01*
X239366Y117008D01*
Y97490D01*
G01X225043Y113283D02*
Y176500D01*
X230000Y181457D01*
Y200000D01*
G01X237205Y127953D02*
X242126D01*
X248622Y121457D01*
X259808D01*
X262421Y118844D01*
Y105335D01*
X259528Y102441D01*
X259035D01*
G01X235630Y163189D02*
X229724D01*
G01X241142Y132874D02*
X250591Y123425D01*
X260624D01*
X264390Y119659D01*
Y99429D01*
X262402Y97441D01*
X259035D01*
G54D47*
X170866Y113484D03*
Y110925D03*
X175591Y113484D03*
Y110925D03*
G54D29*
X60000Y200000D03*
X260000Y30000D03*
Y140000D03*
G54D38*
X90748Y99409D03*
Y115157D03*
X100197Y99409D03*
Y115157D03*
G54D57*
G01X47441Y32700D02*
Y45276D01*
X39567Y53150D01*
X10827D01*
X6890Y57087D01*
Y62992D01*
G01X74803Y173228D02*
Y178248D01*
G01X85630Y173228D02*
Y178248D01*
G01X74803Y173228D02*
X85630D01*
G01X93110Y173425D02*
X85827D01*
X85630Y173228D01*
G01X118110Y161417D02*
Y156398D01*
G01Y173228D02*
Y178248D01*
G01Y173228D02*
X128937D01*
G01Y161417D02*
Y156398D01*
G01Y173228D02*
Y178248D01*
G54D48*
X179134Y59843D03*
X177165Y66142D03*
X181102D03*
G54D39*
X92323Y84646D03*
X98622D03*
X92323Y91535D03*
X98622D03*
Y123031D03*
X92323D03*
Y129921D03*
X98622D03*
X124803Y76772D03*
X131102D03*
X125787Y146654D03*
X132087D03*
X147835D03*
X141535D03*
G54D58*
G01X94488Y152659D02*
Y155709D01*
G01X91537D02*
X94488D01*
G01D02*
X97439D01*
G54D49*
X203720Y100842D03*
Y112653D03*
X230886Y100842D03*
Y112653D03*
M02*
