G04 ================== begin FILE IDENTIFICATION RECORD ==================*
G04 Layout Name:  netduino2_20Dec16_0600.brd*
G04 Film Name:    L2-GND*
G04 File Format:  Gerber RS274X*
G04 File Origin:  Cadence Allegro 16.6-2015-S069*
G04 Origin Date:  Tue Dec 20 07:05:13 2016*
G04 *
G04 Layer:  VIA CLASS/L2-GND*
G04 Layer:  PIN/L2-GND*
G04 Layer:  ETCH/L2-GND*
G04 *
G04 Offset:    (0.0000 0.0000)*
G04 Mirror:    No*
G04 Mode:      Positive*
G04 Rotation:  0*
G04 FullContactRelief:  No*
G04 UndefLineWidth:     0.1270*
G04 ================== end FILE IDENTIFICATION RECORD ====================*
%FSLAX25Y25*MOIN*%
%IR0*IPPOS*OFA0.00000B0.00000*MIA0B0*SFA1.00000B1.00000*%
%ADD13C,.023622*%
%ADD11C,.035433*%
%ADD15C,.038189*%
%ADD10O,.070866X.15748*%
%ADD12O,.15748X.070866*%
%ADD14C,.072835*%
%ADD20R,.334661X.423244*%
%ADD21O,.090567X.196866*%
%ADD16C,.043323*%
%ADD18C,.055134*%
%ADD19C,.092535*%
%ADD17R,.064976X.074819*%
G75*
%LPD*%
G75*
G36*
G01X254627Y202213D02*
G02X257307Y203323I1570J0D01*
G01X257874Y202756D01*
Y157480D01*
X267717Y147638D01*
Y145905D01*
G02X266600Y145194I-785J0D01*
G01X266334Y145318D01*
X266225Y145443D01*
G03X265166Y133544I-6225J-5443D01*
G02X267717Y132318I981J-1226D01*
G01Y37682D01*
G02X265166Y36456I-1570J0D01*
G03Y23544I-5166J-6456D01*
G02X267717Y22318I981J-1226D01*
G01Y20669D01*
X257874Y10827D01*
Y1969D01*
X1969D01*
Y88169D01*
X9253D01*
Y95355D01*
X1969D01*
Y114645D01*
X9253D01*
Y121831D01*
X1969D01*
Y207677D01*
X52286D01*
G02X53517Y205133I0J-1570D01*
G03X67636Y196828I6483J-5132D01*
G02X70331Y197181I1450J-602D01*
G03X77733Y197267I3669J2819D01*
G02X80267I1267J-928D01*
G03X87733I3733J2733D01*
G02X90267I1267J-928D01*
G03Y202733I3733J2733D01*
G02X87733I-1267J928D01*
G03X80267I-3733J-2733D01*
G02X77733I-1267J928D01*
G03X70331Y202819I-3733J-2733D01*
G02X67636Y203172I-1245J956D01*
G03X66483Y205133I-7636J-3173D01*
G02X67714Y207677I1231J974D01*
G01X252953D01*
X253323Y207307D01*
G02X252213Y204627I-1110J-1110D01*
G01X245350D01*
G02X242840Y203653I-1547J266D01*
G03X236267Y202733I-2840J-3653D01*
G02X233733I-1267J928D01*
G03X226267I-3733J-2733D01*
G02X223733I-1267J928D01*
G03X216267I-3733J-2733D01*
G02X213733I-1267J928D01*
G03X206267I-3733J-2733D01*
G02X203733I-1267J928D01*
G03X196267I-3733J-2733D01*
G02X193733I-1267J928D01*
G03X186267I-3733J-2733D01*
G02X183733I-1267J928D01*
G03Y197267I-3733J-2733D01*
G02X186267I1267J-928D01*
G03X193733I3733J2733D01*
G02X196267I1267J-928D01*
G03X203733I3733J2733D01*
G02X206267I1267J-928D01*
G03X213733I3733J2733D01*
G02X216267I1267J-928D01*
G03X223733I3733J2733D01*
G02X226267I1267J-928D01*
G03X233733I3733J2733D01*
G02X236267I1267J-928D01*
G03X242840Y196347I3733J2733D01*
G02X245350Y195373I963J-1240D01*
G01X254627D01*
Y202213D01*
G37*
%LPC*%
G75*
G36*
G01X237851Y93853D02*
G02X235659Y96154I-2162J135D01*
G03X237204Y97626I-22J1570D01*
G02X239396Y95324I2162J-135D01*
G03X237851Y93853I22J-1570D01*
G37*
G36*
G01X114650Y5373D02*
X105373D01*
Y14627D01*
X114650D01*
G03X117160Y13653I1547J266D01*
G02X123733Y12733I2840J-3653D01*
G03X126267I1267J928D01*
G02X133733I3733J-2733D01*
G03X136267I1267J928D01*
G02X143733I3733J-2733D01*
G03X146267I1267J928D01*
G02Y7267I3733J-2733D01*
G03X143733I-1267J-928D01*
G02X136267I-3733J2733D01*
G03X133733I-1267J-928D01*
G02X126267I-3733J2733D01*
G03X123733I-1267J-928D01*
G02X117160Y6347I-3733J2733D01*
G03X114650Y5373I-963J-1240D01*
G37*
G36*
G01X204650D02*
X195373D01*
Y14627D01*
X204650D01*
G03X207160Y13653I1547J266D01*
G02X213733Y12733I2840J-3653D01*
G03X216267I1267J928D01*
G02X223733I3733J-2733D01*
G03X226267I1267J928D01*
G02X233733I3733J-2733D01*
G03X236267I1267J928D01*
G02X243733I3733J-2733D01*
G03X246267I1267J928D01*
G02Y7267I3733J-2733D01*
G03X243733I-1267J-928D01*
G02X236267I-3733J2733D01*
G03X233733I-1267J-928D01*
G02X226267I-3733J2733D01*
G03X223733I-1267J-928D01*
G02X216267I-3733J2733D01*
G03X213733I-1267J-928D01*
G02X207160Y6347I-3733J2733D01*
G03X204650Y5373I-963J-1240D01*
G37*
G36*
G01X175591Y45917D02*
G02X172972Y47984I-2166J-50D01*
G03X174212Y49556I-329J1535D01*
G02X176831Y47488I2166J50D01*
G03X175591Y45917I329J-1535D01*
G37*
G36*
G01X215242Y72464D02*
G02X212317I-1463J-1598D01*
G03Y74780I-1060J1158D01*
G02X215242I1463J1598D01*
G03Y72464I1060J-1158D01*
G37*
G36*
G01X144933Y88980D02*
G02X144416Y91795I-1858J1114D01*
G03X146734Y92221I972J1233D01*
G02X147052Y92630I1857J-1115D01*
G03X146422Y93963I-558J552D01*
G02X144126Y96644I-195J2157D01*
G03X142830Y97409I-762J189D01*
G02X142461Y97133I-1472J1589D01*
G03X142142Y96144I400J-675D01*
G02X139054Y97139I-1985J-868D01*
G03X139372Y98129I-400J675D01*
G02X139194Y98872I1985J868D01*
G03X137276Y100312I-1567J-91D01*
G02X134629Y102317I-484J2111D01*
G03X134057Y103033I-784J-39D01*
G02X132503Y104801I588J2085D01*
G03X131861Y105459I-777J-115D01*
G02X130717Y106047I373J2134D01*
G03X129840Y106200I-550J-560D01*
G02X130454Y109715I-903J1969D01*
G03X131331Y109562I550J560D01*
G02X134377Y107910I903J-1969D01*
G03X135018Y107252I777J115D01*
G02X136809Y105225I-373J-2134D01*
G03X137380Y104508I784J39D01*
G02X137604Y104432I-587J-2085D01*
G03X138473Y104625I295J728D01*
G02X142116Y102471I1586J-1475D01*
G03X142662Y100726I1491J-491D01*
G02X143489Y99382I-1305J-1729D01*
G03X145535Y98174I1545J279D01*
G02X148227Y95287I692J-2053D01*
G03X149220Y93180I1449J-605D01*
G02X147251Y89406I-628J-2073D01*
G03X144933Y88980I-972J-1233D01*
G37*
G36*
G01X110756Y93882D02*
G02X107976Y94074I-1504J-1559D01*
G03X108142Y96472I-925J1269D01*
G02X110921Y96281I1504J1559D01*
G03X110756Y93882I925J-1269D01*
G37*
G36*
G01X156706Y96307D02*
G02X153137I-1784J-1228D01*
G03Y97197I-647J445D01*
G02X153307Y99870I1784J1228D01*
G03Y100917I-585J524D01*
G02X152833Y101786I1614J1445D01*
G03X152100Y102363I-757J-208D01*
G02X150961Y106328I65J2165D01*
G03X151292Y108642I-873J1305D01*
G02X154157Y108232I1661J1391D01*
G03X153826Y105919I873J-1305D01*
G02X154254Y105104I-1660J-1392D01*
G03X154987Y104527I757J208D01*
G02X156535Y100917I-65J-2165D01*
G03Y99870I585J-524D01*
G02X156706Y97197I-1614J-1445D01*
G03Y96307I647J-445D01*
G37*
G36*
G01X124622Y119652D02*
G02X123067Y116543I378J-2133D01*
G03X122229Y116962I-701J-354D01*
G02X119692Y118916I-378J2133D01*
G03X118439Y120325I-1565J-130D01*
G02X121027Y122627I429J2123D01*
G03X122280Y121218I1565J130D01*
G02X123784Y120071I-430J-2123D01*
G03X124622Y119652I701J354D01*
G37*
G36*
G01X154861Y122613D02*
G02X152482Y121185I-333J-2140D01*
G03X151241Y123254I-1483J517D01*
G02X153620Y124681I333J2140D01*
G03X154861Y122613I1483J-517D01*
G37*
G36*
G01X137314Y132948D02*
G02X134187Y132951I-1562J1500D01*
G03X133264Y133108I-567J-543D01*
G02X130971Y133316I-981J1931D01*
G03X129069I-951J-1249D01*
G02X126581Y133220I-1313J1723D01*
G03X124761Y133137I-852J-1319D01*
G02X124600Y136662I-1335J1706D01*
G03X126420Y136745I852J1319D01*
G02X129069Y136763I1335J-1705D01*
G03X130971I951J1249D01*
G02X133848Y136537I1313J-1723D01*
G03X134771Y136380I567J543D01*
G02X137314Y135949I981J-1931D01*
G03X139579I1132J1087D01*
G02Y132948I1563J-1500D01*
G03X137314I-1132J-1087D01*
G37*
G36*
G01X130691Y176121D02*
G02X130933Y180150I-1754J2127D01*
G03X132821Y179854I1137J1083D01*
G02X132601Y176189I1037J-1902D01*
G03X130691Y176121I-911J-1279D01*
G37*
G36*
G01X193396Y181184D02*
G02X191940Y178909I699J-2050D01*
G03X189872Y180233I-1562J-163D01*
G02X191328Y182508I-699J2050D01*
G03X193396Y181184I1562J163D01*
G37*
G36*
G01X127053Y188171D02*
G02X125948Y184929I703J-2049D01*
G03X124128Y185550I-1311J-865D01*
G02X125233Y188791I-703J2049D01*
G03X127053Y188171I1311J865D01*
G37*
G36*
G01X117733Y197267D02*
G02Y202733I-3733J2733D01*
G03X120267I1267J928D01*
G02X127733I3733J-2733D01*
G03X130267I1267J928D01*
G02X137733I3733J-2733D01*
G03X140267I1267J928D01*
G02X147733I3733J-2733D01*
G03X150267I1267J928D01*
G02X156840Y203653I3733J-2733D01*
G03X159350Y204627I963J1240D01*
G01X168627D01*
Y195373D01*
X159350D01*
G03X156840Y196347I-1547J-266D01*
G02X150267Y197267I-2840J3653D01*
G03X147733I-1267J-928D01*
G02X140267I-3733J2733D01*
G03X137733I-1267J-928D01*
G02X130267I-3733J2733D01*
G03X127733I-1267J-928D01*
G02X120267I-3733J2733D01*
G03X117733I-1267J-928D01*
G37*
G36*
G01X133150Y73343D02*
G03X133988Y72819I742J256D01*
G02X132204Y69963I264J-2150D01*
G03X131367Y70486I-742J-256D01*
G02X133150Y73343I-264J2150D01*
G37*
G36*
G01X167577Y83845D02*
G03X168491Y83321I746J243D01*
G02X166893Y80533I461J-2116D01*
G03X165979Y81057I-746J-243D01*
G02X167577Y83845I-461J2116D01*
G37*
G36*
G01X187517Y97362D02*
G03X187779Y96315I684J-385D01*
G02X184727Y95552I-1165J-1826D01*
G03X184465Y96599I-684J385D01*
G02X183501Y98826I1165J1826D01*
G03X182978Y99716I-771J145D01*
G02X185790Y101371I684J2055D01*
G03X186314Y100481I771J-145D01*
G02X187517Y97362I-684J-2055D01*
G37*
G36*
G01X165957Y98181D02*
G03Y97291I647J-445D01*
G02X162389I-1784J-1228D01*
G03Y98181I-647J445D01*
G02X165957I1784J1228D01*
G37*
G36*
G01X122191Y94873D02*
G03X121269Y94853I-447J-645D01*
G02X121191Y98357I-1312J1724D01*
G03X122113Y98377I447J645D01*
G02X124726Y98386I1312J-1724D01*
G03X125826Y98543I471J628D01*
G02X126258Y95512I1733J-1299D01*
G03X125159Y95355I-471J-628D01*
G02X122191Y94873I-1733J1299D01*
G37*
G36*
G01X261159Y100474D02*
G03Y99407I576J-533D01*
G02X256912I-2124J-1967D01*
G03Y100474I-576J533D01*
G02Y104407I2124J1967D01*
G03Y105474I-576J533D01*
G02Y109407I2124J1967D01*
G03Y110474I-576J533D01*
G02X256165Y112812I2124J1967D01*
G03X254406Y114570I-1557J201D01*
G02X256002Y119565I-371J2871D01*
G03X257069I533J576D01*
G02X261159Y115474I1967J-2124D01*
G03Y114407I576J-533D01*
G02Y110474I-2124J-1967D01*
G03Y109407I576J-533D01*
G02Y105474I-2124J-1967D01*
G03Y104407I576J-533D01*
G02Y100474I-2124J-1967D01*
G37*
G36*
G01X75348Y154636D02*
G03Y153632I604J-502D01*
G02X71108I-2120J-1762D01*
G03Y154636I-604J502D01*
G02X75348I2120J1762D01*
G37*
G36*
G01X226698Y111885D02*
G03X226635Y109961I1209J-1002D01*
G02X223222Y110081I-1753J-1272D01*
G03X223290Y112011I-1203J1009D01*
G02X223132Y112263I1754J1271D01*
G03X221542Y113081I-1385J-739D01*
G02X223171Y116248I-282J2148D01*
G03X224761Y115431I1385J739D01*
G02X225261Y115439I282J-2148D01*
G02X226698Y111885I-218J-2155D01*
G37*
G54D20*
X46260Y162894D03*
G54D21*
X47441Y32700D03*
G54D16*
X212516Y107039D03*
X241142Y132874D03*
X229724Y163189D03*
X231102Y171457D03*
X237205Y127953D03*
X215551Y132874D03*
X215354Y121060D03*
X209055Y92520D03*
X223228Y70374D03*
X220079Y42520D03*
Y54724D03*
X204724Y170866D03*
X194291Y117717D03*
X199016Y86220D03*
X205906Y73031D03*
X196260Y70374D03*
X183465Y185630D03*
X188976Y174408D03*
X177953Y159449D03*
X188976Y156496D03*
X189370Y86220D03*
X181102Y73031D03*
X164469Y180610D03*
X163976Y123622D03*
X159449Y89764D03*
X161220Y36811D03*
X142717Y184646D03*
X141535Y142518D03*
X145669Y125394D03*
X149606Y134449D03*
X154724Y83465D03*
X144291Y44488D03*
X150689Y50197D03*
X132087Y142518D03*
X133858Y125394D03*
X130315Y120669D03*
X136024Y118307D03*
X125984Y89173D03*
X112795Y182283D03*
X119291Y129921D03*
X119685Y111306D03*
X116535Y70374D03*
Y54331D03*
X101575Y158268D03*
X102756Y129921D03*
X98622Y80510D03*
X91535Y70077D03*
X100394Y70177D03*
X83858Y94488D03*
X62008Y89567D03*
Y73624D03*
X73031Y72441D03*
X199654Y93583D03*
G54D18*
X243110Y66339D03*
X239370Y81102D03*
X179528Y90551D03*
X166929Y70669D03*
X161811Y55315D03*
X118110Y178248D03*
X84646Y118110D03*
X71457Y125984D03*
X69882Y100984D03*
X70669Y43898D03*
X49213Y133858D03*
X24606Y72835D03*
X20945Y144094D03*
G54D19*
X180000Y10000D03*
G54D17*
X16339Y95157D03*
Y114843D03*
%LPD*%
G75*
G36*
G01X30512Y142717D02*
Y183071D01*
X62008D01*
Y142717D01*
X30512D01*
G37*
G54D10*
X23819Y32700D03*
G54D11*
X23031Y96654D03*
X20945Y163189D03*
X34724Y145551D03*
X33740Y155394D03*
Y150472D03*
X39646Y145551D03*
X33740Y170157D03*
Y165236D03*
Y160315D03*
X54409Y145551D03*
X49488D03*
X44567D03*
X54409Y180000D03*
X49488D03*
Y175079D03*
X54409D03*
X59331Y145551D03*
Y180000D03*
Y175079D03*
X87598Y50197D03*
X81693Y100984D03*
X85630Y178248D03*
X74803D03*
X105315Y167913D03*
X118110Y156398D03*
X128937D03*
X166929Y102362D03*
X254921Y66339D03*
X258661Y81693D03*
G54D12*
X36417Y13802D03*
G54D13*
X28051Y100591D03*
Y112008D03*
Y119882D03*
X38661Y150472D03*
Y155394D03*
Y170157D03*
Y165236D03*
Y160315D03*
X42323Y73819D03*
X43583Y150472D03*
X48504D03*
X53425D03*
Y155394D03*
X48504D03*
X43583D03*
Y160315D03*
Y165236D03*
Y170157D03*
X53425Y160315D03*
Y165236D03*
Y170157D03*
X48504D03*
Y160315D03*
Y165236D03*
X62008Y55807D03*
X70866Y87894D03*
X67717Y94488D03*
X58346Y150472D03*
Y155394D03*
Y170157D03*
Y165236D03*
Y160315D03*
X88778Y31496D03*
X76772Y53543D03*
X79724Y87794D03*
X88287Y91535D03*
X88189Y129921D03*
X100394Y55807D03*
X92323Y80510D03*
X102657Y123031D03*
X119069Y99803D03*
X121654Y146654D03*
X134252Y55906D03*
X124803Y72636D03*
X136614Y76772D03*
X124016Y125394D03*
X148031Y55906D03*
X153150Y70079D03*
X142323Y66732D03*
X147835Y142518D03*
X173228Y71457D03*
Y134055D03*
X179134Y56102D03*
X178150Y174508D03*
X199409Y55610D03*
X193110D03*
X213780D03*
G54D14*
X104000Y200000D03*
X170000Y10000D03*
X160000D03*
G54D15*
X254035Y97441D03*
Y102441D03*
Y107441D03*
Y112441D03*
M02*
