G04 ================== begin FILE IDENTIFICATION RECORD ==================*
G04 Layout Name:  netduino2_20Dec16_0600.brd*
G04 Film Name:    NC_DRL_1-4*
G04 File Format:  Gerber RS274X*
G04 File Origin:  Cadence Allegro 16.6-2015-S069*
G04 Origin Date:  Tue Dec 20 07:05:13 2016*
G04 *
G04 Layer:  MANUFACTURING/NCLEGEND-1-4*
G04 *
G04 Offset:    (0.0000 0.0000)*
G04 Mirror:    No*
G04 Mode:      Positive*
G04 Rotation:  0*
G04 FullContactRelief:  No*
G04 UndefLineWidth:     0.1270*
G04 ================== end FILE IDENTIFICATION RECORD ====================*
%FSLAX25Y25*MOIN*%
%IR0*IPPOS*OFA0.00000B0.00000*MIA0B0*SFA1.00000B1.00000*%
%AMMACRO13*
1,1,.005,.019685,0.0*
20,1,.005,.019685,0.0,-.019685,0.0,0.0*
1,1,.005,-.019685,0.0*
1,1,.005,0.0,.019685*
20,1,.005,0.0,.019685,0.0,-.019685,0.0*
1,1,.005,0.0,-.019685*
1,1,.005,.012469,.0105*
20,1,.005,.012469,.0105,.01378,.011484,0.0*
1,1,.005,.01378,.011484*
20,1,.005,.01378,.011484,.014764,.013122,0.0*
1,1,.005,.014764,.013122*
20,1,.005,.014764,.013122,.015421,.015421,0.0*
1,1,.005,.015421,.015421*
20,1,.005,.015421,.015421,.014764,.01739,0.0*
1,1,.005,.014764,.01739*
20,1,.005,.014764,.01739,.013453,.018701,0.0*
1,1,.005,.013453,.018701*
20,1,.005,.013453,.018701,.011154,.019685,0.0*
1,1,.005,.011154,.019685*
20,1,.005,.011154,.019685,.002295,.019685,0.0*
1,1,.005,.002295,.019685*
20,1,.005,.002295,.019685,.002295,0.0,0.0*
1,1,.005,.002295,0.0*
20,1,.005,.002295,0.0,.013122,0.0,0.0*
1,1,.005,.013122,0.0*
20,1,.005,.013122,0.0,.015421,.001311,0.0*
1,1,.005,.015421,.001311*
20,1,.005,.015421,.001311,.016732,.00328,0.0*
1,1,.005,.016732,.00328*
20,1,.005,.016732,.00328,.01739,.005579,0.0*
1,1,.005,.01739,.005579*
20,1,.005,.01739,.005579,.016732,.007874,0.0*
1,1,.005,.016732,.007874*
20,1,.005,.016732,.007874,.014764,.009843,0.0*
1,1,.005,.014764,.009843*
20,1,.005,.014764,.009843,.012469,.0105,0.0*
1,1,.005,.012469,.0105*
20,1,.005,.012469,.0105,.002295,.0105,0.0*
1,1,.005,.002295,.0105*
%
%ADD13MACRO13*%
%AMMACRO19*
1,1,.005,.019685,0.0*
20,1,.005,.019685,0.0,-.019685,0.0,0.0*
1,1,.005,-.019685,0.0*
1,1,.005,0.0,.019685*
20,1,.005,0.0,.019685,0.0,-.019685,0.0*
1,1,.005,0.0,-.019685*
1,1,.005,.017059,.018043*
20,1,.005,.017059,.018043,.015091,.019028,0.0*
1,1,.005,.015091,.019028*
20,1,.005,.015091,.019028,.012795,.019685,0.0*
1,1,.005,.012795,.019685*
20,1,.005,.012795,.019685,.010169,.019685,0.0*
1,1,.005,.010169,.019685*
20,1,.005,.010169,.019685,.007217,.018701,0.0*
1,1,.005,.007217,.018701*
20,1,.005,.007217,.018701,.004921,.017059,0.0*
1,1,.005,.004921,.017059*
20,1,.005,.004921,.017059,.00328,.015091,0.0*
1,1,.005,.00328,.015091*
20,1,.005,.00328,.015091,.001969,.011811,0.0*
1,1,.005,.001969,.011811*
20,1,.005,.001969,.011811,.001642,.008858,0.0*
1,1,.005,.001642,.008858*
20,1,.005,.001642,.008858,.002295,.005906,0.0*
1,1,.005,.002295,.005906*
20,1,.005,.002295,.005906,.00328,.003937,0.0*
1,1,.005,.00328,.003937*
20,1,.005,.00328,.003937,.005248,.001969,0.0*
1,1,.005,.005248,.001969*
20,1,.005,.005248,.001969,.007547,.000657,0.0*
1,1,.005,.007547,.000657*
20,1,.005,.007547,.000657,.009843,0.0,0.0*
1,1,.005,.009843,0.0*
20,1,.005,.009843,0.0,.012138,0.0,0.0*
1,1,.005,.012138,0.0*
20,1,.005,.012138,0.0,.014437,.000657,0.0*
1,1,.005,.014437,.000657*
20,1,.005,.014437,.000657,.016406,.001642,0.0*
1,1,.005,.016406,.001642*
20,1,.005,.016406,.001642,.018043,.002953,0.0*
1,1,.005,.018043,.002953*
%
%ADD19MACRO19*%
%AMMACRO18*
1,1,.005,.019685,0.0*
20,1,.005,.019685,0.0,-.019685,0.0,0.0*
1,1,.005,-.019685,0.0*
1,1,.005,0.0,.019685*
20,1,.005,0.0,.019685,0.0,-.019685,0.0*
1,1,.005,0.0,-.019685*
1,1,.005,.002626,0.0*
20,1,.005,.002626,0.0,.002626,.019685,0.0*
1,1,.005,.002626,.019685*
20,1,.005,.002626,.019685,.009185,.019685,0.0*
1,1,.005,.009185,.019685*
20,1,.005,.009185,.019685,.011811,.018701,0.0*
1,1,.005,.011811,.018701*
20,1,.005,.011811,.018701,.01378,.01739,0.0*
1,1,.005,.01378,.01739*
20,1,.005,.01378,.01739,.015421,.015421,0.0*
1,1,.005,.015421,.015421*
20,1,.005,.015421,.015421,.016732,.013122,0.0*
1,1,.005,.016732,.013122*
20,1,.005,.016732,.013122,.017059,.009843,0.0*
1,1,.005,.017059,.009843*
20,1,.005,.017059,.009843,.016732,.006563,0.0*
1,1,.005,.016732,.006563*
20,1,.005,.016732,.006563,.015421,.004264,0.0*
1,1,.005,.015421,.004264*
20,1,.005,.015421,.004264,.01378,.002295,0.0*
1,1,.005,.01378,.002295*
20,1,.005,.01378,.002295,.011811,.000984,0.0*
1,1,.005,.011811,.000984*
20,1,.005,.011811,.000984,.009185,0.0,0.0*
1,1,.005,.009185,0.0*
20,1,.005,.009185,0.0,.002626,0.0,0.0*
1,1,.005,.002626,0.0*
%
%ADD18MACRO18*%
%AMMACRO15*
1,1,.005,.009843,0.0*
20,1,.005,.009843,0.0,-.009843,0.0,0.0*
1,1,.005,-.009843,0.0*
1,1,.005,0.0,.009843*
20,1,.005,0.0,.009843,0.0,-.009843,0.0*
1,1,.005,0.0,-.009843*
1,1,.005,.000819,0.0*
20,1,.005,.000819,0.0,.004921,.009843,0.0*
1,1,.005,.004921,.009843*
20,1,.005,.004921,.009843,.009024,0.0,0.0*
1,1,.005,.009024,0.0*
1,1,.005,.007547,.003445*
20,1,.005,.007547,.003445,.002295,.003445,0.0*
1,1,.005,.002295,.003445*
%
%ADD15MACRO15*%
%AMMACRO12*
1,1,.005,-.014764,-.004921*
20,1,.005,-.014764,-.004921,-.014764,.004921,0.0*
1,1,.005,-.014764,.004921*
20,1,.005,-.014764,.004921,-.014539,.007485,0.0*
1,1,.005,-.014539,.007485*
20,1,.005,-.014539,.007485,-.013873,.009971,0.0*
1,1,.005,-.013873,.009971*
20,1,.005,-.013873,.009971,-.012786,.012303,0.0*
1,1,.005,-.012786,.012303*
20,1,.005,-.012786,.012303,-.01131,.014411,0.0*
1,1,.005,-.01131,.014411*
20,1,.005,-.01131,.014411,-.00949,.016231,0.0*
1,1,.005,-.00949,.016231*
20,1,.005,-.00949,.016231,-.007382,.017707,0.0*
1,1,.005,-.007382,.017707*
20,1,.005,-.007382,.017707,-.00505,.018795,0.0*
1,1,.005,-.00505,.018795*
20,1,.005,-.00505,.018795,-.002564,.019461,0.0*
1,1,.005,-.002564,.019461*
20,1,.005,-.002564,.019461,0.0,.019685,0.0*
1,1,.005,0.0,.019685*
20,1,.005,0.0,.019685,.002564,.019461,0.0*
1,1,.005,.002564,.019461*
20,1,.005,.002564,.019461,.00505,.018795,0.0*
1,1,.005,.00505,.018795*
20,1,.005,.00505,.018795,.007382,.017707,0.0*
1,1,.005,.007382,.017707*
20,1,.005,.007382,.017707,.00949,.016231,0.0*
1,1,.005,.00949,.016231*
20,1,.005,.00949,.016231,.01131,.014411,0.0*
1,1,.005,.01131,.014411*
20,1,.005,.01131,.014411,.012786,.012303,0.0*
1,1,.005,.012786,.012303*
20,1,.005,.012786,.012303,.013873,.009971,0.0*
1,1,.005,.013873,.009971*
20,1,.005,.013873,.009971,.014539,.007485,0.0*
1,1,.005,.014539,.007485*
20,1,.005,.014539,.007485,.014764,.004921,0.0*
1,1,.005,.014764,.004921*
20,1,.005,.014764,.004921,.014764,-.004921,0.0*
1,1,.005,.014764,-.004921*
20,1,.005,.014764,-.004921,.014539,-.007485,0.0*
1,1,.005,.014539,-.007485*
20,1,.005,.014539,-.007485,.013873,-.009971,0.0*
1,1,.005,.013873,-.009971*
20,1,.005,.013873,-.009971,.012786,-.012303,0.0*
1,1,.005,.012786,-.012303*
20,1,.005,.012786,-.012303,.01131,-.014411,0.0*
1,1,.005,.01131,-.014411*
20,1,.005,.01131,-.014411,.00949,-.016231,0.0*
1,1,.005,.00949,-.016231*
20,1,.005,.00949,-.016231,.007382,-.017707,0.0*
1,1,.005,.007382,-.017707*
20,1,.005,.007382,-.017707,.00505,-.018795,0.0*
1,1,.005,.00505,-.018795*
20,1,.005,.00505,-.018795,.002564,-.019461,0.0*
1,1,.005,.002564,-.019461*
20,1,.005,.002564,-.019461,0.0,-.019685,0.0*
1,1,.005,0.0,-.019685*
20,1,.005,0.0,-.019685,-.002564,-.019461,0.0*
1,1,.005,-.002564,-.019461*
20,1,.005,-.002564,-.019461,-.00505,-.018795,0.0*
1,1,.005,-.00505,-.018795*
20,1,.005,-.00505,-.018795,-.007382,-.017707,0.0*
1,1,.005,-.007382,-.017707*
20,1,.005,-.007382,-.017707,-.00949,-.016231,0.0*
1,1,.005,-.00949,-.016231*
20,1,.005,-.00949,-.016231,-.01131,-.014411,0.0*
1,1,.005,-.01131,-.014411*
20,1,.005,-.01131,-.014411,-.012786,-.012303,0.0*
1,1,.005,-.012786,-.012303*
20,1,.005,-.012786,-.012303,-.013873,-.009971,0.0*
1,1,.005,-.013873,-.009971*
20,1,.005,-.013873,-.009971,-.014539,-.007485,0.0*
1,1,.005,-.014539,-.007485*
20,1,.005,-.014539,-.007485,-.014764,-.004921,0.0*
1,1,.005,-.014764,-.004921*
1,1,.005,-.005169,-.007382*
20,1,.005,-.005169,-.007382,-.005169,.007382,0.0*
1,1,.005,-.005169,.007382*
1,1,.005,.005169,.007382*
20,1,.005,.005169,.007382,.005169,-.007382,0.0*
1,1,.005,.005169,-.007382*
1,1,.005,.005169,0.0*
20,1,.005,.005169,0.0,-.005169,0.0,0.0*
1,1,.005,-.005169,0.0*
%
%ADD12MACRO12*%
%AMMACRO17*
1,1,.005,.03937,0.0*
20,1,.005,.03937,0.0,-.03937,0.0,0.0*
1,1,.005,-.03937,0.0*
1,1,.005,0.0,.03937*
20,1,.005,0.0,.03937,0.0,-.03937,0.0*
1,1,.005,0.0,-.03937*
1,1,.005,.006563,0.0*
20,1,.005,.006563,0.0,.006563,.03937,0.0*
1,1,.005,.006563,.03937*
20,1,.005,.006563,.03937,.022311,.03937,0.0*
1,1,.005,.022311,.03937*
20,1,.005,.022311,.03937,.027559,.037402,0.0*
1,1,.005,.027559,.037402*
20,1,.005,.027559,.037402,.031496,.032807,0.0*
1,1,.005,.031496,.032807*
20,1,.005,.031496,.032807,.032807,.027559,0.0*
1,1,.005,.032807,.027559*
20,1,.005,.032807,.027559,.031496,.022311,0.0*
1,1,.005,.031496,.022311*
20,1,.005,.031496,.022311,.028217,.018374,0.0*
1,1,.005,.028217,.018374*
20,1,.005,.028217,.018374,.022311,.016402,0.0*
1,1,.005,.022311,.016402*
20,1,.005,.022311,.016402,.006563,.016402,0.0*
1,1,.005,.006563,.016402*
%
%ADD17MACRO17*%
%AMMACRO10*
1,1,.005,-.010827,.014764*
20,1,.005,-.010827,.014764,.010827,.014764,0.0*
1,1,.005,.010827,.014764*
20,1,.005,.010827,.014764,.01339,.014539,0.0*
1,1,.005,.01339,.014539*
20,1,.005,.01339,.014539,.015876,.013873,0.0*
1,1,.005,.015876,.013873*
20,1,.005,.015876,.013873,.018209,.012786,0.0*
1,1,.005,.018209,.012786*
20,1,.005,.018209,.012786,.020317,.01131,0.0*
1,1,.005,.020317,.01131*
20,1,.005,.020317,.01131,.022136,.00949,0.0*
1,1,.005,.022136,.00949*
20,1,.005,.022136,.00949,.023613,.007382,0.0*
1,1,.005,.023613,.007382*
20,1,.005,.023613,.007382,.0247,.00505,0.0*
1,1,.005,.0247,.00505*
20,1,.005,.0247,.00505,.025366,.002564,0.0*
1,1,.005,.025366,.002564*
20,1,.005,.025366,.002564,.025591,0.0,0.0*
1,1,.005,.025591,0.0*
20,1,.005,.025591,0.0,.025366,-.002564,0.0*
1,1,.005,.025366,-.002564*
20,1,.005,.025366,-.002564,.0247,-.00505,0.0*
1,1,.005,.0247,-.00505*
20,1,.005,.0247,-.00505,.023613,-.007382,0.0*
1,1,.005,.023613,-.007382*
20,1,.005,.023613,-.007382,.022136,-.00949,0.0*
1,1,.005,.022136,-.00949*
20,1,.005,.022136,-.00949,.020317,-.01131,0.0*
1,1,.005,.020317,-.01131*
20,1,.005,.020317,-.01131,.018209,-.012786,0.0*
1,1,.005,.018209,-.012786*
20,1,.005,.018209,-.012786,.015876,-.013873,0.0*
1,1,.005,.015876,-.013873*
20,1,.005,.015876,-.013873,.01339,-.014539,0.0*
1,1,.005,.01339,-.014539*
20,1,.005,.01339,-.014539,.010827,-.014764,0.0*
1,1,.005,.010827,-.014764*
20,1,.005,.010827,-.014764,-.010827,-.014764,0.0*
1,1,.005,-.010827,-.014764*
20,1,.005,-.010827,-.014764,-.01339,-.014539,0.0*
1,1,.005,-.01339,-.014539*
20,1,.005,-.01339,-.014539,-.015876,-.013873,0.0*
1,1,.005,-.015876,-.013873*
20,1,.005,-.015876,-.013873,-.018209,-.012786,0.0*
1,1,.005,-.018209,-.012786*
20,1,.005,-.018209,-.012786,-.020317,-.01131,0.0*
1,1,.005,-.020317,-.01131*
20,1,.005,-.020317,-.01131,-.022136,-.00949,0.0*
1,1,.005,-.022136,-.00949*
20,1,.005,-.022136,-.00949,-.023613,-.007382,0.0*
1,1,.005,-.023613,-.007382*
20,1,.005,-.023613,-.007382,-.0247,-.00505,0.0*
1,1,.005,-.0247,-.00505*
20,1,.005,-.0247,-.00505,-.025366,-.002564,0.0*
1,1,.005,-.025366,-.002564*
20,1,.005,-.025366,-.002564,-.025591,0.0,0.0*
1,1,.005,-.025591,0.0*
20,1,.005,-.025591,0.0,-.025366,.002564,0.0*
1,1,.005,-.025366,.002564*
20,1,.005,-.025366,.002564,-.0247,.00505,0.0*
1,1,.005,-.0247,.00505*
20,1,.005,-.0247,.00505,-.023613,.007382,0.0*
1,1,.005,-.023613,.007382*
20,1,.005,-.023613,.007382,-.022136,.00949,0.0*
1,1,.005,-.022136,.00949*
20,1,.005,-.022136,.00949,-.020317,.01131,0.0*
1,1,.005,-.020317,.01131*
20,1,.005,-.020317,.01131,-.018209,.012786,0.0*
1,1,.005,-.018209,.012786*
20,1,.005,-.018209,.012786,-.015876,.013873,0.0*
1,1,.005,-.015876,.013873*
20,1,.005,-.015876,.013873,-.01339,.014539,0.0*
1,1,.005,-.01339,.014539*
20,1,.005,-.01339,.014539,-.010827,.014764,0.0*
1,1,.005,-.010827,.014764*
1,1,.005,-.004921,-.004429*
20,1,.005,-.004921,-.004429,-.003689,-.005906,0.0*
1,1,.005,-.003689,-.005906*
20,1,.005,-.003689,-.005906,-.002217,-.00689,0.0*
1,1,.005,-.002217,-.00689*
20,1,.005,-.002217,-.00689,-.000492,-.007382,0.0*
1,1,.005,-.000492,-.007382*
20,1,.005,-.000492,-.007382,.001476,-.00689,0.0*
1,1,.005,.001476,-.00689*
20,1,.005,.001476,-.00689,.002953,-.005906,0.0*
1,1,.005,.002953,-.005906*
20,1,.005,.002953,-.005906,.004429,-.004429,0.0*
1,1,.005,.004429,-.004429*
20,1,.005,.004429,-.004429,.004921,-.002461,0.0*
1,1,.005,.004921,-.002461*
20,1,.005,.004921,-.002461,.004921,.007382,0.0*
1,1,.005,.004921,.007382*
%
%ADD10MACRO10*%
%AMMACRO11*
1,1,.005,-.015748,-.043307*
20,1,.005,-.015748,-.043307,-.015748,.043307,0.0*
1,1,.005,-.015748,.043307*
20,1,.005,-.015748,.043307,-.015509,.046042,0.0*
1,1,.005,-.015509,.046042*
20,1,.005,-.015509,.046042,-.014798,.048693,0.0*
1,1,.005,-.014798,.048693*
20,1,.005,-.014798,.048693,-.013638,.051181,0.0*
1,1,.005,-.013638,.051181*
20,1,.005,-.013638,.051181,-.012064,.05343,0.0*
1,1,.005,-.012064,.05343*
20,1,.005,-.012064,.05343,-.010123,.055371,0.0*
1,1,.005,-.010123,.055371*
20,1,.005,-.010123,.055371,-.007874,.056945,0.0*
1,1,.005,-.007874,.056945*
20,1,.005,-.007874,.056945,-.005386,.058105,0.0*
1,1,.005,-.005386,.058105*
20,1,.005,-.005386,.058105,-.002735,.058816,0.0*
1,1,.005,-.002735,.058816*
20,1,.005,-.002735,.058816,0.0,.059055,0.0*
1,1,.005,0.0,.059055*
20,1,.005,0.0,.059055,.002735,.058816,0.0*
1,1,.005,.002735,.058816*
20,1,.005,.002735,.058816,.005386,.058105,0.0*
1,1,.005,.005386,.058105*
20,1,.005,.005386,.058105,.007874,.056945,0.0*
1,1,.005,.007874,.056945*
20,1,.005,.007874,.056945,.010123,.055371,0.0*
1,1,.005,.010123,.055371*
20,1,.005,.010123,.055371,.012064,.05343,0.0*
1,1,.005,.012064,.05343*
20,1,.005,.012064,.05343,.013638,.051181,0.0*
1,1,.005,.013638,.051181*
20,1,.005,.013638,.051181,.014798,.048693,0.0*
1,1,.005,.014798,.048693*
20,1,.005,.014798,.048693,.015509,.046042,0.0*
1,1,.005,.015509,.046042*
20,1,.005,.015509,.046042,.015748,.043307,0.0*
1,1,.005,.015748,.043307*
20,1,.005,.015748,.043307,.015748,-.043307,0.0*
1,1,.005,.015748,-.043307*
20,1,.005,.015748,-.043307,.015509,-.046042,0.0*
1,1,.005,.015509,-.046042*
20,1,.005,.015509,-.046042,.014798,-.048693,0.0*
1,1,.005,.014798,-.048693*
20,1,.005,.014798,-.048693,.013638,-.051181,0.0*
1,1,.005,.013638,-.051181*
20,1,.005,.013638,-.051181,.012064,-.05343,0.0*
1,1,.005,.012064,-.05343*
20,1,.005,.012064,-.05343,.010123,-.055371,0.0*
1,1,.005,.010123,-.055371*
20,1,.005,.010123,-.055371,.007874,-.056945,0.0*
1,1,.005,.007874,-.056945*
20,1,.005,.007874,-.056945,.005386,-.058105,0.0*
1,1,.005,.005386,-.058105*
20,1,.005,.005386,-.058105,.002735,-.058816,0.0*
1,1,.005,.002735,-.058816*
20,1,.005,.002735,-.058816,0.0,-.059055,0.0*
1,1,.005,0.0,-.059055*
20,1,.005,0.0,-.059055,-.002735,-.058816,0.0*
1,1,.005,-.002735,-.058816*
20,1,.005,-.002735,-.058816,-.005386,-.058105,0.0*
1,1,.005,-.005386,-.058105*
20,1,.005,-.005386,-.058105,-.007874,-.056945,0.0*
1,1,.005,-.007874,-.056945*
20,1,.005,-.007874,-.056945,-.010123,-.055371,0.0*
1,1,.005,-.010123,-.055371*
20,1,.005,-.010123,-.055371,-.012064,-.05343,0.0*
1,1,.005,-.012064,-.05343*
20,1,.005,-.012064,-.05343,-.013638,-.051181,0.0*
1,1,.005,-.013638,-.051181*
20,1,.005,-.013638,-.051181,-.014798,-.048693,0.0*
1,1,.005,-.014798,-.048693*
20,1,.005,-.014798,-.048693,-.015509,-.046042,0.0*
1,1,.005,-.015509,-.046042*
20,1,.005,-.015509,-.046042,-.015748,-.043307,0.0*
1,1,.005,-.015748,-.043307*
1,1,.005,-.005248,-.007874*
20,1,.005,-.005248,-.007874,-.005248,.007874,0.0*
1,1,.005,-.005248,.007874*
20,1,.005,-.005248,.007874,.001311,.007874,0.0*
1,1,.005,.001311,.007874*
20,1,.005,.001311,.007874,.003413,.007087,0.0*
1,1,.005,.003413,.007087*
20,1,.005,.003413,.007087,.004724,.006035,0.0*
1,1,.005,.004724,.006035*
20,1,.005,.004724,.006035,.005248,.003937,0.0*
1,1,.005,.005248,.003937*
20,1,.005,.005248,.003937,.004724,.001839,0.0*
1,1,.005,.004724,.001839*
20,1,.005,.004724,.001839,.00315,.000524,0.0*
1,1,.005,.00315,.000524*
20,1,.005,.00315,.000524,.001311,-.000264,0.0*
1,1,.005,.001311,-.000264*
20,1,.005,.001311,-.000264,-.005248,-.000264,0.0*
1,1,.005,-.005248,-.000264*
1,1,.005,.001311,-.000264*
20,1,.005,.001311,-.000264,.005248,-.007874,0.0*
1,1,.005,.005248,-.007874*
%
%ADD11MACRO11*%
%AMMACRO14*
1,1,.005,-.043307,.015748*
20,1,.005,-.043307,.015748,.043307,.015748,0.0*
1,1,.005,.043307,.015748*
20,1,.005,.043307,.015748,.046042,.015509,0.0*
1,1,.005,.046042,.015509*
20,1,.005,.046042,.015509,.048693,.014798,0.0*
1,1,.005,.048693,.014798*
20,1,.005,.048693,.014798,.051181,.013638,0.0*
1,1,.005,.051181,.013638*
20,1,.005,.051181,.013638,.05343,.012064,0.0*
1,1,.005,.05343,.012064*
20,1,.005,.05343,.012064,.055371,.010123,0.0*
1,1,.005,.055371,.010123*
20,1,.005,.055371,.010123,.056945,.007874,0.0*
1,1,.005,.056945,.007874*
20,1,.005,.056945,.007874,.058105,.005386,0.0*
1,1,.005,.058105,.005386*
20,1,.005,.058105,.005386,.058816,.002735,0.0*
1,1,.005,.058816,.002735*
20,1,.005,.058816,.002735,.059055,0.0,0.0*
1,1,.005,.059055,0.0*
20,1,.005,.059055,0.0,.058816,-.002735,0.0*
1,1,.005,.058816,-.002735*
20,1,.005,.058816,-.002735,.058105,-.005386,0.0*
1,1,.005,.058105,-.005386*
20,1,.005,.058105,-.005386,.056945,-.007874,0.0*
1,1,.005,.056945,-.007874*
20,1,.005,.056945,-.007874,.055371,-.010123,0.0*
1,1,.005,.055371,-.010123*
20,1,.005,.055371,-.010123,.05343,-.012064,0.0*
1,1,.005,.05343,-.012064*
20,1,.005,.05343,-.012064,.051181,-.013638,0.0*
1,1,.005,.051181,-.013638*
20,1,.005,.051181,-.013638,.048693,-.014798,0.0*
1,1,.005,.048693,-.014798*
20,1,.005,.048693,-.014798,.046042,-.015509,0.0*
1,1,.005,.046042,-.015509*
20,1,.005,.046042,-.015509,.043307,-.015748,0.0*
1,1,.005,.043307,-.015748*
20,1,.005,.043307,-.015748,-.043307,-.015748,0.0*
1,1,.005,-.043307,-.015748*
20,1,.005,-.043307,-.015748,-.046042,-.015509,0.0*
1,1,.005,-.046042,-.015509*
20,1,.005,-.046042,-.015509,-.048693,-.014798,0.0*
1,1,.005,-.048693,-.014798*
20,1,.005,-.048693,-.014798,-.051181,-.013638,0.0*
1,1,.005,-.051181,-.013638*
20,1,.005,-.051181,-.013638,-.05343,-.012064,0.0*
1,1,.005,-.05343,-.012064*
20,1,.005,-.05343,-.012064,-.055371,-.010123,0.0*
1,1,.005,-.055371,-.010123*
20,1,.005,-.055371,-.010123,-.056945,-.007874,0.0*
1,1,.005,-.056945,-.007874*
20,1,.005,-.056945,-.007874,-.058105,-.005386,0.0*
1,1,.005,-.058105,-.005386*
20,1,.005,-.058105,-.005386,-.058816,-.002735,0.0*
1,1,.005,-.058816,-.002735*
20,1,.005,-.058816,-.002735,-.059055,0.0,0.0*
1,1,.005,-.059055,0.0*
20,1,.005,-.059055,0.0,-.058816,.002735,0.0*
1,1,.005,-.058816,.002735*
20,1,.005,-.058816,.002735,-.058105,.005386,0.0*
1,1,.005,-.058105,.005386*
20,1,.005,-.058105,.005386,-.056945,.007874,0.0*
1,1,.005,-.056945,.007874*
20,1,.005,-.056945,.007874,-.055371,.010123,0.0*
1,1,.005,-.055371,.010123*
20,1,.005,-.055371,.010123,-.05343,.012064,0.0*
1,1,.005,-.05343,.012064*
20,1,.005,-.05343,.012064,-.051181,.013638,0.0*
1,1,.005,-.051181,.013638*
20,1,.005,-.051181,.013638,-.048693,.014798,0.0*
1,1,.005,-.048693,.014798*
20,1,.005,-.048693,.014798,-.046042,.015509,0.0*
1,1,.005,-.046042,.015509*
20,1,.005,-.046042,.015509,-.043307,.015748,0.0*
1,1,.005,-.043307,.015748*
1,1,.005,-.005248,-.007874*
20,1,.005,-.005248,-.007874,-.005248,.007874,0.0*
1,1,.005,-.005248,.007874*
20,1,.005,-.005248,.007874,.001311,.007874,0.0*
1,1,.005,.001311,.007874*
20,1,.005,.001311,.007874,.003413,.007087,0.0*
1,1,.005,.003413,.007087*
20,1,.005,.003413,.007087,.004724,.006035,0.0*
1,1,.005,.004724,.006035*
20,1,.005,.004724,.006035,.005248,.003937,0.0*
1,1,.005,.005248,.003937*
20,1,.005,.005248,.003937,.004724,.001839,0.0*
1,1,.005,.004724,.001839*
20,1,.005,.004724,.001839,.00315,.000524,0.0*
1,1,.005,.00315,.000524*
20,1,.005,.00315,.000524,.001311,-.000264,0.0*
1,1,.005,.001311,-.000264*
20,1,.005,.001311,-.000264,-.005248,-.000264,0.0*
1,1,.005,-.005248,-.000264*
1,1,.005,.001311,-.000264*
20,1,.005,.001311,-.000264,.005248,-.007874,0.0*
1,1,.005,.005248,-.007874*
%
%ADD14MACRO14*%
%AMMACRO16*
1,1,.005,-.015748,-.05315*
20,1,.005,-.015748,-.05315,-.015748,.05315,0.0*
1,1,.005,-.015748,.05315*
20,1,.005,-.015748,.05315,-.015509,.055884,0.0*
1,1,.005,-.015509,.055884*
20,1,.005,-.015509,.055884,-.014798,.058536,0.0*
1,1,.005,-.014798,.058536*
20,1,.005,-.014798,.058536,-.013638,.061024,0.0*
1,1,.005,-.013638,.061024*
20,1,.005,-.013638,.061024,-.012064,.063272,0.0*
1,1,.005,-.012064,.063272*
20,1,.005,-.012064,.063272,-.010123,.065213,0.0*
1,1,.005,-.010123,.065213*
20,1,.005,-.010123,.065213,-.007874,.066788,0.0*
1,1,.005,-.007874,.066788*
20,1,.005,-.007874,.066788,-.005386,.067948,0.0*
1,1,.005,-.005386,.067948*
20,1,.005,-.005386,.067948,-.002735,.068658,0.0*
1,1,.005,-.002735,.068658*
20,1,.005,-.002735,.068658,0.0,.068898,0.0*
1,1,.005,0.0,.068898*
20,1,.005,0.0,.068898,.002735,.068658,0.0*
1,1,.005,.002735,.068658*
20,1,.005,.002735,.068658,.005386,.067948,0.0*
1,1,.005,.005386,.067948*
20,1,.005,.005386,.067948,.007874,.066788,0.0*
1,1,.005,.007874,.066788*
20,1,.005,.007874,.066788,.010123,.065213,0.0*
1,1,.005,.010123,.065213*
20,1,.005,.010123,.065213,.012064,.063272,0.0*
1,1,.005,.012064,.063272*
20,1,.005,.012064,.063272,.013638,.061024,0.0*
1,1,.005,.013638,.061024*
20,1,.005,.013638,.061024,.014798,.058536,0.0*
1,1,.005,.014798,.058536*
20,1,.005,.014798,.058536,.015509,.055884,0.0*
1,1,.005,.015509,.055884*
20,1,.005,.015509,.055884,.015748,.05315,0.0*
1,1,.005,.015748,.05315*
20,1,.005,.015748,.05315,.015748,-.05315,0.0*
1,1,.005,.015748,-.05315*
20,1,.005,.015748,-.05315,.015509,-.055884,0.0*
1,1,.005,.015509,-.055884*
20,1,.005,.015509,-.055884,.014798,-.058536,0.0*
1,1,.005,.014798,-.058536*
20,1,.005,.014798,-.058536,.013638,-.061024,0.0*
1,1,.005,.013638,-.061024*
20,1,.005,.013638,-.061024,.012064,-.063272,0.0*
1,1,.005,.012064,-.063272*
20,1,.005,.012064,-.063272,.010123,-.065213,0.0*
1,1,.005,.010123,-.065213*
20,1,.005,.010123,-.065213,.007874,-.066788,0.0*
1,1,.005,.007874,-.066788*
20,1,.005,.007874,-.066788,.005386,-.067948,0.0*
1,1,.005,.005386,-.067948*
20,1,.005,.005386,-.067948,.002735,-.068658,0.0*
1,1,.005,.002735,-.068658*
20,1,.005,.002735,-.068658,0.0,-.068898,0.0*
1,1,.005,0.0,-.068898*
20,1,.005,0.0,-.068898,-.002735,-.068658,0.0*
1,1,.005,-.002735,-.068658*
20,1,.005,-.002735,-.068658,-.005386,-.067948,0.0*
1,1,.005,-.005386,-.067948*
20,1,.005,-.005386,-.067948,-.007874,-.066788,0.0*
1,1,.005,-.007874,-.066788*
20,1,.005,-.007874,-.066788,-.010123,-.065213,0.0*
1,1,.005,-.010123,-.065213*
20,1,.005,-.010123,-.065213,-.012064,-.063272,0.0*
1,1,.005,-.012064,-.063272*
20,1,.005,-.012064,-.063272,-.013638,-.061024,0.0*
1,1,.005,-.013638,-.061024*
20,1,.005,-.013638,-.061024,-.014798,-.058536,0.0*
1,1,.005,-.014798,-.058536*
20,1,.005,-.014798,-.058536,-.015509,-.055884,0.0*
1,1,.005,-.015509,-.055884*
20,1,.005,-.015509,-.055884,-.015748,-.05315,0.0*
1,1,.005,-.015748,-.05315*
1,1,.005,-.005512,-.005776*
20,1,.005,-.005512,-.005776,-.003413,-.007087,0.0*
1,1,.005,-.003413,-.007087*
20,1,.005,-.003413,-.007087,-.001051,-.007874,0.0*
1,1,.005,-.001051,-.007874*
20,1,.005,-.001051,-.007874,.001051,-.007874,0.0*
1,1,.005,.001051,-.007874*
20,1,.005,.001051,-.007874,.00315,-.007087,0.0*
1,1,.005,.00315,-.007087*
20,1,.005,.00315,-.007087,.004724,-.005776,0.0*
1,1,.005,.004724,-.005776*
20,1,.005,.004724,-.005776,.005512,-.003937,0.0*
1,1,.005,.005512,-.003937*
20,1,.005,.005512,-.003937,.004988,-.002098,0.0*
1,1,.005,.004988,-.002098*
20,1,.005,.004988,-.002098,.003673,-.000524,0.0*
1,1,.005,.003673,-.000524*
20,1,.005,.003673,-.000524,.001311,.000524,0.0*
1,1,.005,.001311,.000524*
20,1,.005,.001311,.000524,-.001839,.001051,0.0*
1,1,.005,-.001839,.001051*
20,1,.005,-.001839,.001051,-.003673,.002098,0.0*
1,1,.005,-.003673,.002098*
20,1,.005,-.003673,.002098,-.004461,.003937,0.0*
1,1,.005,-.004461,.003937*
20,1,.005,-.004461,.003937,-.003937,.005776,0.0*
1,1,.005,-.003937,.005776*
20,1,.005,-.003937,.005776,-.002626,.007087,0.0*
1,1,.005,-.002626,.007087*
20,1,.005,-.002626,.007087,-.000787,.007874,0.0*
1,1,.005,-.000787,.007874*
20,1,.005,-.000787,.007874,.001051,.007874,0.0*
1,1,.005,.001051,.007874*
20,1,.005,.001051,.007874,.002886,.00735,0.0*
1,1,.005,.002886,.00735*
20,1,.005,.002886,.00735,.004461,.006035,0.0*
1,1,.005,.004461,.006035*
%
%ADD16MACRO16*%
%ADD20C,.007087*%
%ADD21C,.005*%
G75*
%LPD*%
G75*
G54D10*
X4921Y91417D03*
Y118583D03*
X309449Y30807D03*
G54D20*
G01X298609Y167520D02*
Y172244D01*
X300604D01*
G01X299869Y169961D02*
X298609D01*
G01X302913Y172244D02*
X304173D01*
G01X303543D02*
Y167520D01*
G01X302913D02*
X304173D01*
G01X307795Y169882D02*
X308845D01*
Y168465D01*
X308530Y167992D01*
X308163Y167677D01*
X307638Y167520D01*
X307113Y167677D01*
X306745Y167992D01*
X306430Y168465D01*
X306220Y169016D01*
X306115Y169646D01*
Y170197D01*
X306220Y170669D01*
X306430Y171220D01*
X306745Y171693D01*
X307060Y172008D01*
X307480Y172244D01*
X307848D01*
X308268Y172087D01*
X308583Y171772D01*
G01X310263Y172244D02*
Y168858D01*
X310472Y168150D01*
X310893Y167677D01*
X311417Y167520D01*
X311942Y167677D01*
X312362Y168150D01*
X312572Y168858D01*
Y172244D01*
G01X314304Y167520D02*
Y172244D01*
X315617D01*
X316037Y172008D01*
X316299Y171693D01*
X316404Y171063D01*
X316299Y170433D01*
X315984Y170039D01*
X315617Y169803D01*
X314304D01*
G01X315617D02*
X316404Y167520D01*
G01X320341D02*
X318241D01*
Y172244D01*
X320341D01*
G01X319501Y169961D02*
X318241D01*
G01X340578Y-32618D02*
X340893Y-33169D01*
X341312Y-33484D01*
X341785Y-33563D01*
X342205Y-33484D01*
X342625Y-33091D01*
X342887Y-32618D01*
X342940Y-32146D01*
X342835Y-31594D01*
X342467Y-31201D01*
X342100Y-31043D01*
X341627D01*
G01X342100D02*
X342415Y-30807D01*
X342677Y-30413D01*
X342782Y-29941D01*
X342677Y-29469D01*
X342415Y-29075D01*
X341942Y-28839D01*
X341470Y-28917D01*
X340997Y-29232D01*
G01X345669Y-33720D02*
X345564Y-33642D01*
Y-33484D01*
X345669Y-33406D01*
X345774Y-33484D01*
Y-33642D01*
X345669Y-33720D01*
G01X348452Y-32854D02*
X348767Y-33248D01*
X349134Y-33484D01*
X349606Y-33563D01*
X350079Y-33406D01*
X350446Y-33091D01*
X350709Y-32539D01*
X350761Y-31909D01*
X350656Y-31280D01*
X350394Y-30886D01*
X350026Y-30571D01*
X349659Y-30492D01*
X349291Y-30571D01*
X348819Y-30886D01*
X348976Y-28839D01*
X350394D01*
G01X352756Y-30413D02*
X354331Y-33563D01*
G01Y-30413D02*
X352756Y-33563D01*
G01X357480Y-28839D02*
X357060Y-28996D01*
X356745Y-29390D01*
X356535Y-29862D01*
X356378Y-30492D01*
X356326Y-31201D01*
X356378Y-31909D01*
X356535Y-32539D01*
X356745Y-33012D01*
X357060Y-33406D01*
X357480Y-33563D01*
X357900Y-33406D01*
X358215Y-33012D01*
X358425Y-32539D01*
X358583Y-31909D01*
X358635Y-31201D01*
X358583Y-30492D01*
X358425Y-29862D01*
X358215Y-29390D01*
X357900Y-28996D01*
X357480Y-28839D01*
G01X361417Y-33720D02*
X361312Y-33642D01*
Y-33484D01*
X361417Y-33406D01*
X361522Y-33484D01*
Y-33642D01*
X361417Y-33720D01*
G01X365354Y-33563D02*
X365722Y-33484D01*
X366142Y-33248D01*
X366404Y-32854D01*
X366509Y-32303D01*
X366404Y-31752D01*
X366089Y-31280D01*
X365617Y-31043D01*
X365092D01*
X364777Y-30886D01*
X364515Y-30492D01*
X364409Y-29941D01*
X364567Y-29390D01*
X364934Y-28996D01*
X365354Y-28839D01*
X365774Y-28996D01*
X366142Y-29390D01*
X366299Y-29941D01*
X366194Y-30492D01*
X365932Y-30886D01*
X365617Y-31043D01*
X365092D01*
X364619Y-31280D01*
X364304Y-31752D01*
X364200Y-32303D01*
X364304Y-32854D01*
X364567Y-33248D01*
X364987Y-33484D01*
X365354Y-33563D01*
G01X340578Y-11949D02*
X340893Y-12500D01*
X341312Y-12815D01*
X341785Y-12894D01*
X342205Y-12815D01*
X342625Y-12421D01*
X342887Y-11949D01*
X342940Y-11476D01*
X342835Y-10925D01*
X342467Y-10531D01*
X342100Y-10374D01*
X341627D01*
G01X342100D02*
X342415Y-10138D01*
X342677Y-9744D01*
X342782Y-9272D01*
X342677Y-8799D01*
X342415Y-8406D01*
X341942Y-8169D01*
X341470Y-8248D01*
X340997Y-8563D01*
G01X345669Y-13051D02*
X345564Y-12972D01*
Y-12815D01*
X345669Y-12736D01*
X345774Y-12815D01*
Y-12972D01*
X345669Y-13051D01*
G01X349606Y-8169D02*
X349186Y-8327D01*
X348871Y-8720D01*
X348661Y-9193D01*
X348504Y-9823D01*
X348452Y-10531D01*
X348504Y-11240D01*
X348661Y-11870D01*
X348871Y-12343D01*
X349186Y-12736D01*
X349606Y-12894D01*
X350026Y-12736D01*
X350341Y-12343D01*
X350551Y-11870D01*
X350709Y-11240D01*
X350761Y-10531D01*
X350709Y-9823D01*
X350551Y-9193D01*
X350341Y-8720D01*
X350026Y-8327D01*
X349606Y-8169D01*
G01X352756Y-9744D02*
X354331Y-12894D01*
G01Y-9744D02*
X352756Y-12894D01*
G01X357480Y-8169D02*
X357060Y-8327D01*
X356745Y-8720D01*
X356535Y-9193D01*
X356378Y-9823D01*
X356326Y-10531D01*
X356378Y-11240D01*
X356535Y-11870D01*
X356745Y-12343D01*
X357060Y-12736D01*
X357480Y-12894D01*
X357900Y-12736D01*
X358215Y-12343D01*
X358425Y-11870D01*
X358583Y-11240D01*
X358635Y-10531D01*
X358583Y-9823D01*
X358425Y-9193D01*
X358215Y-8720D01*
X357900Y-8327D01*
X357480Y-8169D01*
G01X361417Y-13051D02*
X361312Y-12972D01*
Y-12815D01*
X361417Y-12736D01*
X361522Y-12815D01*
Y-12972D01*
X361417Y-13051D01*
G01X365354Y-12894D02*
X365722Y-12815D01*
X366142Y-12579D01*
X366404Y-12185D01*
X366509Y-11634D01*
X366404Y-11083D01*
X366089Y-10610D01*
X365617Y-10374D01*
X365092D01*
X364777Y-10217D01*
X364515Y-9823D01*
X364409Y-9272D01*
X364567Y-8720D01*
X364934Y-8327D01*
X365354Y-8169D01*
X365774Y-8327D01*
X366142Y-8720D01*
X366299Y-9272D01*
X366194Y-9823D01*
X365932Y-10217D01*
X365617Y-10374D01*
X365092D01*
X364619Y-10610D01*
X364304Y-11083D01*
X364200Y-11634D01*
X364304Y-12185D01*
X364567Y-12579D01*
X364987Y-12815D01*
X365354Y-12894D01*
G01X340578Y8720D02*
X340893Y8169D01*
X341312Y7854D01*
X341785Y7776D01*
X342205Y7854D01*
X342625Y8248D01*
X342887Y8720D01*
X342940Y9193D01*
X342835Y9744D01*
X342467Y10138D01*
X342100Y10295D01*
X341627D01*
G01X342100D02*
X342415Y10531D01*
X342677Y10925D01*
X342782Y11398D01*
X342677Y11870D01*
X342415Y12264D01*
X341942Y12500D01*
X341470Y12421D01*
X340997Y12106D01*
G01X345669Y7618D02*
X345564Y7697D01*
Y7854D01*
X345669Y7933D01*
X345774Y7854D01*
Y7697D01*
X345669Y7618D01*
G01X349606Y12500D02*
X349186Y12343D01*
X348871Y11949D01*
X348661Y11476D01*
X348504Y10846D01*
X348452Y10138D01*
X348504Y9429D01*
X348661Y8799D01*
X348871Y8327D01*
X349186Y7933D01*
X349606Y7776D01*
X350026Y7933D01*
X350341Y8327D01*
X350551Y8799D01*
X350709Y9429D01*
X350761Y10138D01*
X350709Y10846D01*
X350551Y11476D01*
X350341Y11949D01*
X350026Y12343D01*
X349606Y12500D01*
G01X352756Y10925D02*
X354331Y7776D01*
G01Y10925D02*
X352756Y7776D01*
G01X357480Y12500D02*
X357060Y12343D01*
X356745Y11949D01*
X356535Y11476D01*
X356378Y10846D01*
X356326Y10138D01*
X356378Y9429D01*
X356535Y8799D01*
X356745Y8327D01*
X357060Y7933D01*
X357480Y7776D01*
X357900Y7933D01*
X358215Y8327D01*
X358425Y8799D01*
X358583Y9429D01*
X358635Y10138D01*
X358583Y10846D01*
X358425Y11476D01*
X358215Y11949D01*
X357900Y12343D01*
X357480Y12500D01*
G01X361417Y7618D02*
X361312Y7697D01*
Y7854D01*
X361417Y7933D01*
X361522Y7854D01*
Y7697D01*
X361417Y7618D01*
G01X365354Y7776D02*
X365722Y7854D01*
X366142Y8091D01*
X366404Y8484D01*
X366509Y9035D01*
X366404Y9587D01*
X366089Y10059D01*
X365617Y10295D01*
X365092D01*
X364777Y10453D01*
X364515Y10846D01*
X364409Y11398D01*
X364567Y11949D01*
X364934Y12343D01*
X365354Y12500D01*
X365774Y12343D01*
X366142Y11949D01*
X366299Y11398D01*
X366194Y10846D01*
X365932Y10453D01*
X365617Y10295D01*
X365092D01*
X364619Y10059D01*
X364304Y9587D01*
X364200Y9035D01*
X364304Y8484D01*
X364567Y8091D01*
X364987Y7854D01*
X365354Y7776D01*
G01X339764Y28445D02*
Y33169D01*
X339134Y32224D01*
G01Y28445D02*
X340394D01*
G01X343701Y28287D02*
X343596Y28366D01*
Y28524D01*
X343701Y28602D01*
X343806Y28524D01*
Y28366D01*
X343701Y28287D01*
G01X346483Y29390D02*
X346798Y28839D01*
X347218Y28524D01*
X347690Y28445D01*
X348110Y28524D01*
X348530Y28917D01*
X348793Y29390D01*
X348845Y29862D01*
X348740Y30413D01*
X348373Y30807D01*
X348005Y30965D01*
X347533D01*
G01X348005D02*
X348320Y31201D01*
X348583Y31594D01*
X348688Y32067D01*
X348583Y32539D01*
X348320Y32933D01*
X347848Y33169D01*
X347375Y33091D01*
X346903Y32776D01*
G01X350787Y31594D02*
X352362Y28445D01*
G01Y31594D02*
X350787Y28445D01*
G01X355512Y33169D02*
X355092Y33012D01*
X354777Y32618D01*
X354567Y32146D01*
X354409Y31516D01*
X354357Y30807D01*
X354409Y30098D01*
X354567Y29469D01*
X354777Y28996D01*
X355092Y28602D01*
X355512Y28445D01*
X355932Y28602D01*
X356247Y28996D01*
X356457Y29469D01*
X356614Y30098D01*
X356667Y30807D01*
X356614Y31516D01*
X356457Y32146D01*
X356247Y32618D01*
X355932Y33012D01*
X355512Y33169D01*
G01X359449Y28287D02*
X359344Y28366D01*
Y28524D01*
X359449Y28602D01*
X359554Y28524D01*
Y28366D01*
X359449Y28287D01*
G01X363281Y28445D02*
X363386Y29469D01*
X363543Y30335D01*
X363753Y31122D01*
X364016Y31988D01*
X364436Y33169D01*
X362336D01*
G01X366168Y29154D02*
X366483Y28760D01*
X366850Y28524D01*
X367323Y28445D01*
X367795Y28602D01*
X368163Y28917D01*
X368425Y29469D01*
X368478Y30098D01*
X368373Y30728D01*
X368110Y31122D01*
X367743Y31437D01*
X367375Y31516D01*
X367008Y31437D01*
X366535Y31122D01*
X366693Y33169D01*
X368110D01*
G01X339764Y49114D02*
Y53839D01*
X339134Y52894D01*
G01Y49114D02*
X340394D01*
G01X343701Y48957D02*
X343596Y49035D01*
Y49193D01*
X343701Y49272D01*
X343806Y49193D01*
Y49035D01*
X343701Y48957D01*
G01X347638Y53839D02*
X347218Y53681D01*
X346903Y53287D01*
X346693Y52815D01*
X346535Y52185D01*
X346483Y51476D01*
X346535Y50768D01*
X346693Y50138D01*
X346903Y49665D01*
X347218Y49272D01*
X347638Y49114D01*
X348058Y49272D01*
X348373Y49665D01*
X348583Y50138D01*
X348740Y50768D01*
X348793Y51476D01*
X348740Y52185D01*
X348583Y52815D01*
X348373Y53287D01*
X348058Y53681D01*
X347638Y53839D01*
G01X350787Y52264D02*
X352362Y49114D01*
G01Y52264D02*
X350787Y49114D01*
G01X355512Y53839D02*
X355092Y53681D01*
X354777Y53287D01*
X354567Y52815D01*
X354409Y52185D01*
X354357Y51476D01*
X354409Y50768D01*
X354567Y50138D01*
X354777Y49665D01*
X355092Y49272D01*
X355512Y49114D01*
X355932Y49272D01*
X356247Y49665D01*
X356457Y50138D01*
X356614Y50768D01*
X356667Y51476D01*
X356614Y52185D01*
X356457Y52815D01*
X356247Y53287D01*
X355932Y53681D01*
X355512Y53839D01*
G01X359449Y48957D02*
X359344Y49035D01*
Y49193D01*
X359449Y49272D01*
X359554Y49193D01*
Y49035D01*
X359449Y48957D01*
G01X363281Y49114D02*
X363386Y50138D01*
X363543Y51004D01*
X363753Y51791D01*
X364016Y52657D01*
X364436Y53839D01*
X362336D01*
G01X366168Y49823D02*
X366483Y49429D01*
X366850Y49193D01*
X367323Y49114D01*
X367795Y49272D01*
X368163Y49587D01*
X368425Y50138D01*
X368478Y50768D01*
X368373Y51398D01*
X368110Y51791D01*
X367743Y52106D01*
X367375Y52185D01*
X367008Y52106D01*
X366535Y51791D01*
X366693Y53839D01*
X368110D01*
G01X348452Y70728D02*
X348767Y70177D01*
X349186Y69862D01*
X349659Y69783D01*
X350079Y69862D01*
X350499Y70256D01*
X350761Y70728D01*
X350814Y71201D01*
X350709Y71752D01*
X350341Y72146D01*
X349974Y72303D01*
X349501D01*
G01X349974D02*
X350289Y72539D01*
X350551Y72933D01*
X350656Y73406D01*
X350551Y73878D01*
X350289Y74272D01*
X349816Y74508D01*
X349344Y74429D01*
X348871Y74114D01*
G01X353543Y69626D02*
X353438Y69705D01*
Y69862D01*
X353543Y69941D01*
X353648Y69862D01*
Y69705D01*
X353543Y69626D01*
G01X356483Y73720D02*
X356798Y74193D01*
X357165Y74429D01*
X357585Y74508D01*
X358110Y74350D01*
X358478Y73957D01*
X358583Y73484D01*
X358530Y73012D01*
X358320Y72618D01*
X357270Y71831D01*
X356798Y71280D01*
X356483Y70492D01*
X356378Y69783D01*
X358583D01*
G01X349606Y95177D02*
X349186Y95020D01*
X348871Y94626D01*
X348661Y94154D01*
X348504Y93524D01*
X348452Y92815D01*
X348504Y92106D01*
X348661Y91476D01*
X348871Y91004D01*
X349186Y90610D01*
X349606Y90453D01*
X350026Y90610D01*
X350341Y91004D01*
X350551Y91476D01*
X350709Y92106D01*
X350761Y92815D01*
X350709Y93524D01*
X350551Y94154D01*
X350341Y94626D01*
X350026Y95020D01*
X349606Y95177D01*
G01X353543Y90295D02*
X353438Y90374D01*
Y90531D01*
X353543Y90610D01*
X353648Y90531D01*
Y90374D01*
X353543Y90295D01*
G01X357480Y90453D02*
X357848Y90531D01*
X358268Y90768D01*
X358530Y91161D01*
X358635Y91713D01*
X358530Y92264D01*
X358215Y92736D01*
X357743Y92972D01*
X357218D01*
X356903Y93130D01*
X356641Y93524D01*
X356535Y94075D01*
X356693Y94626D01*
X357060Y95020D01*
X357480Y95177D01*
X357900Y95020D01*
X358268Y94626D01*
X358425Y94075D01*
X358320Y93524D01*
X358058Y93130D01*
X357743Y92972D01*
X357218D01*
X356745Y92736D01*
X356430Y92264D01*
X356326Y91713D01*
X356430Y91161D01*
X356693Y90768D01*
X357113Y90531D01*
X357480Y90453D01*
G01X347638Y115846D02*
X347218Y115689D01*
X346903Y115295D01*
X346693Y114823D01*
X346535Y114193D01*
X346483Y113484D01*
X346535Y112776D01*
X346693Y112146D01*
X346903Y111673D01*
X347218Y111280D01*
X347638Y111122D01*
X348058Y111280D01*
X348373Y111673D01*
X348583Y112146D01*
X348740Y112776D01*
X348793Y113484D01*
X348740Y114193D01*
X348583Y114823D01*
X348373Y115295D01*
X348058Y115689D01*
X347638Y115846D01*
G01X351575Y110965D02*
X351470Y111043D01*
Y111201D01*
X351575Y111280D01*
X351680Y111201D01*
Y111043D01*
X351575Y110965D01*
G01X354515Y113091D02*
X354882Y113642D01*
X355197Y113957D01*
X355617Y114114D01*
X355984Y113957D01*
X356247Y113642D01*
X356457Y113169D01*
X356509Y112618D01*
X356457Y112146D01*
X356247Y111673D01*
X355932Y111280D01*
X355564Y111122D01*
X355144Y111280D01*
X354777Y111752D01*
X354567Y112461D01*
X354515Y113248D01*
X354619Y114272D01*
X354777Y114823D01*
X355039Y115374D01*
X355407Y115768D01*
X355774Y115846D01*
X356142Y115689D01*
X356404Y115295D01*
G01X358294Y111831D02*
X358609Y111437D01*
X358976Y111201D01*
X359449Y111122D01*
X359921Y111280D01*
X360289Y111594D01*
X360551Y112146D01*
X360604Y112776D01*
X360499Y113406D01*
X360236Y113799D01*
X359869Y114114D01*
X359501Y114193D01*
X359134Y114114D01*
X358661Y113799D01*
X358819Y115846D01*
X360236D01*
G01X349606Y136516D02*
X349186Y136358D01*
X348871Y135965D01*
X348661Y135492D01*
X348504Y134862D01*
X348452Y134154D01*
X348504Y133445D01*
X348661Y132815D01*
X348871Y132343D01*
X349186Y131949D01*
X349606Y131791D01*
X350026Y131949D01*
X350341Y132343D01*
X350551Y132815D01*
X350709Y133445D01*
X350761Y134154D01*
X350709Y134862D01*
X350551Y135492D01*
X350341Y135965D01*
X350026Y136358D01*
X349606Y136516D01*
G01X353543Y131634D02*
X353438Y131713D01*
Y131870D01*
X353543Y131949D01*
X353648Y131870D01*
Y131713D01*
X353543Y131634D01*
G01X356326Y132500D02*
X356641Y132106D01*
X357008Y131870D01*
X357480Y131791D01*
X357953Y131949D01*
X358320Y132264D01*
X358583Y132815D01*
X358635Y133445D01*
X358530Y134075D01*
X358268Y134469D01*
X357900Y134783D01*
X357533Y134862D01*
X357165Y134783D01*
X356693Y134469D01*
X356850Y136516D01*
X358268D01*
G01X347638Y157185D02*
X347218Y157028D01*
X346903Y156634D01*
X346693Y156161D01*
X346535Y155531D01*
X346483Y154823D01*
X346535Y154114D01*
X346693Y153484D01*
X346903Y153012D01*
X347218Y152618D01*
X347638Y152461D01*
X348058Y152618D01*
X348373Y153012D01*
X348583Y153484D01*
X348740Y154114D01*
X348793Y154823D01*
X348740Y155531D01*
X348583Y156161D01*
X348373Y156634D01*
X348058Y157028D01*
X347638Y157185D01*
G01X351575Y152303D02*
X351470Y152382D01*
Y152539D01*
X351575Y152618D01*
X351680Y152539D01*
Y152382D01*
X351575Y152303D01*
G01X354515Y156398D02*
X354830Y156870D01*
X355197Y157106D01*
X355617Y157185D01*
X356142Y157028D01*
X356509Y156634D01*
X356614Y156161D01*
X356562Y155689D01*
X356352Y155295D01*
X355302Y154508D01*
X354830Y153957D01*
X354515Y153169D01*
X354409Y152461D01*
X356614D01*
G01X358294Y153169D02*
X358609Y152776D01*
X358976Y152539D01*
X359449Y152461D01*
X359921Y152618D01*
X360289Y152933D01*
X360551Y153484D01*
X360604Y154114D01*
X360499Y154744D01*
X360236Y155138D01*
X359869Y155453D01*
X359501Y155531D01*
X359134Y155453D01*
X358661Y155138D01*
X358819Y157185D01*
X360236D01*
G01X346535Y168150D02*
X346956Y167756D01*
X347428Y167520D01*
X347848D01*
X348268Y167756D01*
X348583Y168150D01*
X348740Y168701D01*
X348635Y169252D01*
X348373Y169724D01*
X347900Y170039D01*
X347270Y170197D01*
X346903Y170512D01*
X346745Y171063D01*
X346850Y171614D01*
X347113Y172008D01*
X347480Y172244D01*
X347848D01*
X348215Y172087D01*
X348530Y171693D01*
G01X350945Y172244D02*
X352205D01*
G01X351575D02*
Y167520D01*
G01X350945D02*
X352205D01*
G01X354515Y172244D02*
X356509D01*
X354515Y167520D01*
X356509D01*
G01X360499D02*
X358399D01*
Y172244D01*
X360499D01*
G01X359659Y169961D02*
X358399D01*
G01X347113Y176969D02*
X348425Y181693D01*
X349737Y176969D01*
G01X349265Y178622D02*
X347585D01*
G01X351312Y181693D02*
Y176969D01*
X353412D01*
G01X355249Y181693D02*
Y176969D01*
X357349D01*
G01X363019Y181693D02*
Y178307D01*
X363228Y177598D01*
X363648Y177126D01*
X364173Y176969D01*
X364698Y177126D01*
X365118Y177598D01*
X365328Y178307D01*
Y181693D01*
G01X366903Y176969D02*
Y181693D01*
X369318Y176969D01*
Y181693D01*
G01X371417D02*
X372677D01*
G01X372047D02*
Y176969D01*
G01X371417D02*
X372677D01*
G01X375984Y181693D02*
Y176969D01*
G01X374777Y181693D02*
X377192D01*
G01X378819Y177598D02*
X379239Y177205D01*
X379711Y176969D01*
X380131D01*
X380551Y177205D01*
X380866Y177598D01*
X381024Y178150D01*
X380919Y178701D01*
X380656Y179173D01*
X380184Y179488D01*
X379554Y179646D01*
X379186Y179961D01*
X379029Y180512D01*
X379134Y181063D01*
X379396Y181457D01*
X379764Y181693D01*
X380131D01*
X380499Y181535D01*
X380814Y181142D01*
G01X386483Y176969D02*
X387795Y181693D01*
X389107Y176969D01*
G01X388635Y178622D02*
X386956D01*
G01X390682Y176969D02*
Y181693D01*
X391995D01*
X392415Y181457D01*
X392677Y181142D01*
X392782Y180512D01*
X392677Y179882D01*
X392362Y179488D01*
X391995Y179252D01*
X390682D01*
G01X391995D02*
X392782Y176969D01*
G01X396719D02*
X394619D01*
Y181693D01*
X396719D01*
G01X395879Y179409D02*
X394619D01*
G01X402913Y181693D02*
X404173D01*
G01X403543D02*
Y176969D01*
G01X402913D02*
X404173D01*
G01X406273D02*
Y181693D01*
X408688Y176969D01*
Y181693D01*
G01X413989Y176969D02*
Y181693D01*
X415354Y177756D01*
X416719Y181693D01*
Y176969D01*
G01X418661Y181693D02*
X419921D01*
G01X419291D02*
Y176969D01*
G01X418661D02*
X419921D01*
G01X422178Y181693D02*
Y176969D01*
X424278D01*
G01X426115Y181693D02*
Y176969D01*
X428215D01*
G01X430472Y181693D02*
X431732D01*
G01X431102D02*
Y176969D01*
G01X430472D02*
X431732D01*
G01X433674D02*
Y181693D01*
X435039Y177756D01*
X436404Y181693D01*
Y176969D01*
G01X440026D02*
X437926D01*
Y181693D01*
X440026D01*
G01X439186Y179409D02*
X437926D01*
G01X442913Y181693D02*
Y176969D01*
G01X441706Y181693D02*
X444121D01*
G01X447900Y176969D02*
X445800D01*
Y181693D01*
X447900D01*
G01X447060Y179409D02*
X445800D01*
G01X449737Y176969D02*
Y181693D01*
X451050D01*
X451470Y181457D01*
X451732Y181142D01*
X451837Y180512D01*
X451732Y179882D01*
X451417Y179488D01*
X451050Y179252D01*
X449737D01*
G01X451050D02*
X451837Y176969D01*
G01X453622Y177598D02*
X454042Y177205D01*
X454515Y176969D01*
X454934D01*
X455354Y177205D01*
X455669Y177598D01*
X455827Y178150D01*
X455722Y178701D01*
X455459Y179173D01*
X454987Y179488D01*
X454357Y179646D01*
X453989Y179961D01*
X453832Y180512D01*
X453937Y181063D01*
X454200Y181457D01*
X454567Y181693D01*
X454934D01*
X455302Y181535D01*
X455617Y181142D01*
G01X351207Y202559D02*
Y207283D01*
X352257D01*
X352677Y207047D01*
X352992Y206732D01*
X353255Y206260D01*
X353465Y205709D01*
X353517Y204921D01*
X353465Y204134D01*
X353255Y203583D01*
X352992Y203110D01*
X352677Y202795D01*
X352257Y202559D01*
X351207D01*
G01X355249D02*
Y207283D01*
X356562D01*
X356981Y207047D01*
X357244Y206732D01*
X357349Y206102D01*
X357244Y205472D01*
X356929Y205079D01*
X356562Y204843D01*
X355249D01*
G01X356562D02*
X357349Y202559D01*
G01X359606Y207283D02*
X360866D01*
G01X360236D02*
Y202559D01*
G01X359606D02*
X360866D01*
G01X363123Y207283D02*
Y202559D01*
X365223D01*
G01X367060Y207283D02*
Y202559D01*
X369160D01*
G01X377139Y206890D02*
X376824Y207126D01*
X376457Y207283D01*
X376037D01*
X375564Y207047D01*
X375197Y206654D01*
X374934Y206181D01*
X374724Y205394D01*
X374672Y204685D01*
X374777Y203976D01*
X374934Y203504D01*
X375249Y203031D01*
X375617Y202717D01*
X375984Y202559D01*
X376352D01*
X376719Y202717D01*
X377034Y202953D01*
X377296Y203268D01*
G01X378819Y202559D02*
Y207283D01*
G01X381024D02*
Y202559D01*
G01Y204921D02*
X378819D01*
G01X382546Y202559D02*
X383858Y207283D01*
X385170Y202559D01*
G01X384698Y204213D02*
X383019D01*
G01X386745Y202559D02*
Y207283D01*
X388058D01*
X388478Y207047D01*
X388740Y206732D01*
X388845Y206102D01*
X388740Y205472D01*
X388425Y205079D01*
X388058Y204843D01*
X386745D01*
G01X388058D02*
X388845Y202559D01*
G01X391732Y207283D02*
Y202559D01*
G01X390525Y207283D02*
X392940D01*
G01X395669Y202402D02*
X395564Y202480D01*
Y202638D01*
X395669Y202717D01*
X395774Y202638D01*
Y202480D01*
X395669Y202402D01*
G01Y204528D02*
X395564Y204606D01*
Y204764D01*
X395669Y204843D01*
X395774Y204764D01*
Y204606D01*
X395669Y204528D01*
G01X403543Y207283D02*
Y202559D01*
G01X402336Y207283D02*
X404751D01*
G01X407480Y202559D02*
X407060Y202638D01*
X406693Y202953D01*
X406378Y203425D01*
X406168Y203976D01*
X406063Y204606D01*
Y205236D01*
X406168Y205866D01*
X406378Y206417D01*
X406693Y206890D01*
X407060Y207205D01*
X407480Y207283D01*
X407900Y207205D01*
X408268Y206890D01*
X408583Y206417D01*
X408793Y205866D01*
X408898Y205236D01*
Y204606D01*
X408793Y203976D01*
X408583Y203425D01*
X408268Y202953D01*
X407900Y202638D01*
X407480Y202559D01*
G01X410367D02*
Y207283D01*
X411627D01*
X412047Y207047D01*
X412362Y206496D01*
X412467Y205866D01*
X412362Y205236D01*
X412100Y204764D01*
X411627Y204528D01*
X410367D01*
G01X419291Y207283D02*
Y202559D01*
G01X418556Y205709D02*
X420026D01*
G01X423228Y202559D02*
X422913Y202638D01*
X422598Y202953D01*
X422389Y203504D01*
X422283Y204134D01*
X422389Y204764D01*
X422598Y205315D01*
X422913Y205630D01*
X423228Y205709D01*
X423543Y205630D01*
X423858Y205315D01*
X424068Y204764D01*
X424121Y204134D01*
X424068Y203504D01*
X423858Y202953D01*
X423543Y202638D01*
X423228Y202559D01*
G01X431522Y205079D02*
X431732Y205315D01*
X431890Y205709D01*
X431995Y206260D01*
X431890Y206732D01*
X431680Y207047D01*
X431312Y207283D01*
X429895D01*
Y202559D01*
X431627D01*
X431995Y202874D01*
X432205Y203346D01*
X432310Y203898D01*
X432205Y204449D01*
X431890Y204921D01*
X431522Y205079D01*
X429895D01*
G01X435039Y202559D02*
X434619Y202638D01*
X434252Y202953D01*
X433937Y203425D01*
X433727Y203976D01*
X433622Y204606D01*
Y205236D01*
X433727Y205866D01*
X433937Y206417D01*
X434252Y206890D01*
X434619Y207205D01*
X435039Y207283D01*
X435459Y207205D01*
X435827Y206890D01*
X436142Y206417D01*
X436352Y205866D01*
X436457Y205236D01*
Y204606D01*
X436352Y203976D01*
X436142Y203425D01*
X435827Y202953D01*
X435459Y202638D01*
X435039Y202559D01*
G01X438976Y207283D02*
Y202559D01*
G01X437769Y207283D02*
X440184D01*
G01X442913D02*
Y202559D01*
G01X441706Y207283D02*
X444121D01*
G01X446850Y202559D02*
X446430Y202638D01*
X446063Y202953D01*
X445748Y203425D01*
X445538Y203976D01*
X445433Y204606D01*
Y205236D01*
X445538Y205866D01*
X445748Y206417D01*
X446063Y206890D01*
X446430Y207205D01*
X446850Y207283D01*
X447270Y207205D01*
X447638Y206890D01*
X447953Y206417D01*
X448163Y205866D01*
X448268Y205236D01*
Y204606D01*
X448163Y203976D01*
X447953Y203425D01*
X447638Y202953D01*
X447270Y202638D01*
X446850Y202559D01*
G01X449422D02*
Y207283D01*
X450787Y203346D01*
X452152Y207283D01*
Y202559D01*
G01X393123Y-31988D02*
X394383D01*
G01X393701Y-30965D02*
Y-33012D01*
G01X397638Y-28839D02*
X397218Y-28996D01*
X396903Y-29390D01*
X396693Y-29862D01*
X396535Y-30492D01*
X396483Y-31201D01*
X396535Y-31909D01*
X396693Y-32539D01*
X396903Y-33012D01*
X397218Y-33406D01*
X397638Y-33563D01*
X398058Y-33406D01*
X398373Y-33012D01*
X398583Y-32539D01*
X398740Y-31909D01*
X398793Y-31201D01*
X398740Y-30492D01*
X398583Y-29862D01*
X398373Y-29390D01*
X398058Y-28996D01*
X397638Y-28839D01*
G01X401575Y-33720D02*
X401470Y-33642D01*
Y-33484D01*
X401575Y-33406D01*
X401680Y-33484D01*
Y-33642D01*
X401575Y-33720D01*
G01X405512Y-28839D02*
X405092Y-28996D01*
X404777Y-29390D01*
X404567Y-29862D01*
X404409Y-30492D01*
X404357Y-31201D01*
X404409Y-31909D01*
X404567Y-32539D01*
X404777Y-33012D01*
X405092Y-33406D01*
X405512Y-33563D01*
X405932Y-33406D01*
X406247Y-33012D01*
X406457Y-32539D01*
X406614Y-31909D01*
X406667Y-31201D01*
X406614Y-30492D01*
X406457Y-29862D01*
X406247Y-29390D01*
X405932Y-28996D01*
X405512Y-28839D01*
G01X409449Y-33563D02*
X409816Y-33484D01*
X410236Y-33248D01*
X410499Y-32854D01*
X410604Y-32303D01*
X410499Y-31752D01*
X410184Y-31280D01*
X409711Y-31043D01*
X409186D01*
X408871Y-30886D01*
X408609Y-30492D01*
X408504Y-29941D01*
X408661Y-29390D01*
X409029Y-28996D01*
X409449Y-28839D01*
X409869Y-28996D01*
X410236Y-29390D01*
X410394Y-29941D01*
X410289Y-30492D01*
X410026Y-30886D01*
X409711Y-31043D01*
X409186D01*
X408714Y-31280D01*
X408399Y-31752D01*
X408294Y-32303D01*
X408399Y-32854D01*
X408661Y-33248D01*
X409081Y-33484D01*
X409449Y-33563D01*
G01X412441Y-33720D02*
X414331Y-28839D01*
G01X416641Y-31988D02*
X418005D01*
G01X421260Y-28839D02*
X420840Y-28996D01*
X420525Y-29390D01*
X420315Y-29862D01*
X420157Y-30492D01*
X420105Y-31201D01*
X420157Y-31909D01*
X420315Y-32539D01*
X420525Y-33012D01*
X420840Y-33406D01*
X421260Y-33563D01*
X421680Y-33406D01*
X421995Y-33012D01*
X422205Y-32539D01*
X422362Y-31909D01*
X422415Y-31201D01*
X422362Y-30492D01*
X422205Y-29862D01*
X421995Y-29390D01*
X421680Y-28996D01*
X421260Y-28839D01*
G01X425197Y-33720D02*
X425092Y-33642D01*
Y-33484D01*
X425197Y-33406D01*
X425302Y-33484D01*
Y-33642D01*
X425197Y-33720D01*
G01X429134Y-28839D02*
X428714Y-28996D01*
X428399Y-29390D01*
X428189Y-29862D01*
X428031Y-30492D01*
X427979Y-31201D01*
X428031Y-31909D01*
X428189Y-32539D01*
X428399Y-33012D01*
X428714Y-33406D01*
X429134Y-33563D01*
X429554Y-33406D01*
X429869Y-33012D01*
X430079Y-32539D01*
X430236Y-31909D01*
X430289Y-31201D01*
X430236Y-30492D01*
X430079Y-29862D01*
X429869Y-29390D01*
X429554Y-28996D01*
X429134Y-28839D01*
G01X433071Y-33563D02*
X433438Y-33484D01*
X433858Y-33248D01*
X434121Y-32854D01*
X434226Y-32303D01*
X434121Y-31752D01*
X433806Y-31280D01*
X433333Y-31043D01*
X432808D01*
X432493Y-30886D01*
X432231Y-30492D01*
X432126Y-29941D01*
X432283Y-29390D01*
X432651Y-28996D01*
X433071Y-28839D01*
X433491Y-28996D01*
X433858Y-29390D01*
X434016Y-29941D01*
X433911Y-30492D01*
X433648Y-30886D01*
X433333Y-31043D01*
X432808D01*
X432336Y-31280D01*
X432021Y-31752D01*
X431916Y-32303D01*
X432021Y-32854D01*
X432283Y-33248D01*
X432704Y-33484D01*
X433071Y-33563D01*
G01X393123Y-11319D02*
X394383D01*
G01X393701Y-10295D02*
Y-12343D01*
G01X397638Y-8169D02*
X397218Y-8327D01*
X396903Y-8720D01*
X396693Y-9193D01*
X396535Y-9823D01*
X396483Y-10531D01*
X396535Y-11240D01*
X396693Y-11870D01*
X396903Y-12343D01*
X397218Y-12736D01*
X397638Y-12894D01*
X398058Y-12736D01*
X398373Y-12343D01*
X398583Y-11870D01*
X398740Y-11240D01*
X398793Y-10531D01*
X398740Y-9823D01*
X398583Y-9193D01*
X398373Y-8720D01*
X398058Y-8327D01*
X397638Y-8169D01*
G01X401575Y-13051D02*
X401470Y-12972D01*
Y-12815D01*
X401575Y-12736D01*
X401680Y-12815D01*
Y-12972D01*
X401575Y-13051D01*
G01X405512Y-8169D02*
X405092Y-8327D01*
X404777Y-8720D01*
X404567Y-9193D01*
X404409Y-9823D01*
X404357Y-10531D01*
X404409Y-11240D01*
X404567Y-11870D01*
X404777Y-12343D01*
X405092Y-12736D01*
X405512Y-12894D01*
X405932Y-12736D01*
X406247Y-12343D01*
X406457Y-11870D01*
X406614Y-11240D01*
X406667Y-10531D01*
X406614Y-9823D01*
X406457Y-9193D01*
X406247Y-8720D01*
X405932Y-8327D01*
X405512Y-8169D01*
G01X409449Y-12894D02*
X409816Y-12815D01*
X410236Y-12579D01*
X410499Y-12185D01*
X410604Y-11634D01*
X410499Y-11083D01*
X410184Y-10610D01*
X409711Y-10374D01*
X409186D01*
X408871Y-10217D01*
X408609Y-9823D01*
X408504Y-9272D01*
X408661Y-8720D01*
X409029Y-8327D01*
X409449Y-8169D01*
X409869Y-8327D01*
X410236Y-8720D01*
X410394Y-9272D01*
X410289Y-9823D01*
X410026Y-10217D01*
X409711Y-10374D01*
X409186D01*
X408714Y-10610D01*
X408399Y-11083D01*
X408294Y-11634D01*
X408399Y-12185D01*
X408661Y-12579D01*
X409081Y-12815D01*
X409449Y-12894D01*
G01X412441Y-13051D02*
X414331Y-8169D01*
G01X416641Y-11319D02*
X418005D01*
G01X421260Y-8169D02*
X420840Y-8327D01*
X420525Y-8720D01*
X420315Y-9193D01*
X420157Y-9823D01*
X420105Y-10531D01*
X420157Y-11240D01*
X420315Y-11870D01*
X420525Y-12343D01*
X420840Y-12736D01*
X421260Y-12894D01*
X421680Y-12736D01*
X421995Y-12343D01*
X422205Y-11870D01*
X422362Y-11240D01*
X422415Y-10531D01*
X422362Y-9823D01*
X422205Y-9193D01*
X421995Y-8720D01*
X421680Y-8327D01*
X421260Y-8169D01*
G01X425197Y-13051D02*
X425092Y-12972D01*
Y-12815D01*
X425197Y-12736D01*
X425302Y-12815D01*
Y-12972D01*
X425197Y-13051D01*
G01X429134Y-8169D02*
X428714Y-8327D01*
X428399Y-8720D01*
X428189Y-9193D01*
X428031Y-9823D01*
X427979Y-10531D01*
X428031Y-11240D01*
X428189Y-11870D01*
X428399Y-12343D01*
X428714Y-12736D01*
X429134Y-12894D01*
X429554Y-12736D01*
X429869Y-12343D01*
X430079Y-11870D01*
X430236Y-11240D01*
X430289Y-10531D01*
X430236Y-9823D01*
X430079Y-9193D01*
X429869Y-8720D01*
X429554Y-8327D01*
X429134Y-8169D01*
G01X433071Y-12894D02*
X433438Y-12815D01*
X433858Y-12579D01*
X434121Y-12185D01*
X434226Y-11634D01*
X434121Y-11083D01*
X433806Y-10610D01*
X433333Y-10374D01*
X432808D01*
X432493Y-10217D01*
X432231Y-9823D01*
X432126Y-9272D01*
X432283Y-8720D01*
X432651Y-8327D01*
X433071Y-8169D01*
X433491Y-8327D01*
X433858Y-8720D01*
X434016Y-9272D01*
X433911Y-9823D01*
X433648Y-10217D01*
X433333Y-10374D01*
X432808D01*
X432336Y-10610D01*
X432021Y-11083D01*
X431916Y-11634D01*
X432021Y-12185D01*
X432283Y-12579D01*
X432704Y-12815D01*
X433071Y-12894D01*
G01X393123Y9350D02*
X394383D01*
G01X393701Y10374D02*
Y8327D01*
G01X397638Y12500D02*
X397218Y12343D01*
X396903Y11949D01*
X396693Y11476D01*
X396535Y10846D01*
X396483Y10138D01*
X396535Y9429D01*
X396693Y8799D01*
X396903Y8327D01*
X397218Y7933D01*
X397638Y7776D01*
X398058Y7933D01*
X398373Y8327D01*
X398583Y8799D01*
X398740Y9429D01*
X398793Y10138D01*
X398740Y10846D01*
X398583Y11476D01*
X398373Y11949D01*
X398058Y12343D01*
X397638Y12500D01*
G01X401575Y7618D02*
X401470Y7697D01*
Y7854D01*
X401575Y7933D01*
X401680Y7854D01*
Y7697D01*
X401575Y7618D01*
G01X405512Y12500D02*
X405092Y12343D01*
X404777Y11949D01*
X404567Y11476D01*
X404409Y10846D01*
X404357Y10138D01*
X404409Y9429D01*
X404567Y8799D01*
X404777Y8327D01*
X405092Y7933D01*
X405512Y7776D01*
X405932Y7933D01*
X406247Y8327D01*
X406457Y8799D01*
X406614Y9429D01*
X406667Y10138D01*
X406614Y10846D01*
X406457Y11476D01*
X406247Y11949D01*
X405932Y12343D01*
X405512Y12500D01*
G01X409449Y7776D02*
X409816Y7854D01*
X410236Y8091D01*
X410499Y8484D01*
X410604Y9035D01*
X410499Y9587D01*
X410184Y10059D01*
X409711Y10295D01*
X409186D01*
X408871Y10453D01*
X408609Y10846D01*
X408504Y11398D01*
X408661Y11949D01*
X409029Y12343D01*
X409449Y12500D01*
X409869Y12343D01*
X410236Y11949D01*
X410394Y11398D01*
X410289Y10846D01*
X410026Y10453D01*
X409711Y10295D01*
X409186D01*
X408714Y10059D01*
X408399Y9587D01*
X408294Y9035D01*
X408399Y8484D01*
X408661Y8091D01*
X409081Y7854D01*
X409449Y7776D01*
G01X412441Y7618D02*
X414331Y12500D01*
G01X416641Y9350D02*
X418005D01*
G01X421260Y12500D02*
X420840Y12343D01*
X420525Y11949D01*
X420315Y11476D01*
X420157Y10846D01*
X420105Y10138D01*
X420157Y9429D01*
X420315Y8799D01*
X420525Y8327D01*
X420840Y7933D01*
X421260Y7776D01*
X421680Y7933D01*
X421995Y8327D01*
X422205Y8799D01*
X422362Y9429D01*
X422415Y10138D01*
X422362Y10846D01*
X422205Y11476D01*
X421995Y11949D01*
X421680Y12343D01*
X421260Y12500D01*
G01X425197Y7618D02*
X425092Y7697D01*
Y7854D01*
X425197Y7933D01*
X425302Y7854D01*
Y7697D01*
X425197Y7618D01*
G01X429134Y12500D02*
X428714Y12343D01*
X428399Y11949D01*
X428189Y11476D01*
X428031Y10846D01*
X427979Y10138D01*
X428031Y9429D01*
X428189Y8799D01*
X428399Y8327D01*
X428714Y7933D01*
X429134Y7776D01*
X429554Y7933D01*
X429869Y8327D01*
X430079Y8799D01*
X430236Y9429D01*
X430289Y10138D01*
X430236Y10846D01*
X430079Y11476D01*
X429869Y11949D01*
X429554Y12343D01*
X429134Y12500D01*
G01X433071Y7776D02*
X433438Y7854D01*
X433858Y8091D01*
X434121Y8484D01*
X434226Y9035D01*
X434121Y9587D01*
X433806Y10059D01*
X433333Y10295D01*
X432808D01*
X432493Y10453D01*
X432231Y10846D01*
X432126Y11398D01*
X432283Y11949D01*
X432651Y12343D01*
X433071Y12500D01*
X433491Y12343D01*
X433858Y11949D01*
X434016Y11398D01*
X433911Y10846D01*
X433648Y10453D01*
X433333Y10295D01*
X432808D01*
X432336Y10059D01*
X432021Y9587D01*
X431916Y9035D01*
X432021Y8484D01*
X432283Y8091D01*
X432704Y7854D01*
X433071Y7776D01*
G01X393123Y30020D02*
X394383D01*
G01X393701Y31043D02*
Y28996D01*
G01X397638Y33169D02*
X397218Y33012D01*
X396903Y32618D01*
X396693Y32146D01*
X396535Y31516D01*
X396483Y30807D01*
X396535Y30098D01*
X396693Y29469D01*
X396903Y28996D01*
X397218Y28602D01*
X397638Y28445D01*
X398058Y28602D01*
X398373Y28996D01*
X398583Y29469D01*
X398740Y30098D01*
X398793Y30807D01*
X398740Y31516D01*
X398583Y32146D01*
X398373Y32618D01*
X398058Y33012D01*
X397638Y33169D01*
G01X401575Y28287D02*
X401470Y28366D01*
Y28524D01*
X401575Y28602D01*
X401680Y28524D01*
Y28366D01*
X401575Y28287D01*
G01X405512Y33169D02*
X405092Y33012D01*
X404777Y32618D01*
X404567Y32146D01*
X404409Y31516D01*
X404357Y30807D01*
X404409Y30098D01*
X404567Y29469D01*
X404777Y28996D01*
X405092Y28602D01*
X405512Y28445D01*
X405932Y28602D01*
X406247Y28996D01*
X406457Y29469D01*
X406614Y30098D01*
X406667Y30807D01*
X406614Y31516D01*
X406457Y32146D01*
X406247Y32618D01*
X405932Y33012D01*
X405512Y33169D01*
G01X409449Y28445D02*
X409816Y28524D01*
X410236Y28760D01*
X410499Y29154D01*
X410604Y29705D01*
X410499Y30256D01*
X410184Y30728D01*
X409711Y30965D01*
X409186D01*
X408871Y31122D01*
X408609Y31516D01*
X408504Y32067D01*
X408661Y32618D01*
X409029Y33012D01*
X409449Y33169D01*
X409869Y33012D01*
X410236Y32618D01*
X410394Y32067D01*
X410289Y31516D01*
X410026Y31122D01*
X409711Y30965D01*
X409186D01*
X408714Y30728D01*
X408399Y30256D01*
X408294Y29705D01*
X408399Y29154D01*
X408661Y28760D01*
X409081Y28524D01*
X409449Y28445D01*
G01X412441Y28287D02*
X414331Y33169D01*
G01X416641Y30020D02*
X418005D01*
G01X421260Y33169D02*
X420840Y33012D01*
X420525Y32618D01*
X420315Y32146D01*
X420157Y31516D01*
X420105Y30807D01*
X420157Y30098D01*
X420315Y29469D01*
X420525Y28996D01*
X420840Y28602D01*
X421260Y28445D01*
X421680Y28602D01*
X421995Y28996D01*
X422205Y29469D01*
X422362Y30098D01*
X422415Y30807D01*
X422362Y31516D01*
X422205Y32146D01*
X421995Y32618D01*
X421680Y33012D01*
X421260Y33169D01*
G01X425197Y28287D02*
X425092Y28366D01*
Y28524D01*
X425197Y28602D01*
X425302Y28524D01*
Y28366D01*
X425197Y28287D01*
G01X429134Y33169D02*
X428714Y33012D01*
X428399Y32618D01*
X428189Y32146D01*
X428031Y31516D01*
X427979Y30807D01*
X428031Y30098D01*
X428189Y29469D01*
X428399Y28996D01*
X428714Y28602D01*
X429134Y28445D01*
X429554Y28602D01*
X429869Y28996D01*
X430079Y29469D01*
X430236Y30098D01*
X430289Y30807D01*
X430236Y31516D01*
X430079Y32146D01*
X429869Y32618D01*
X429554Y33012D01*
X429134Y33169D01*
G01X433071Y28445D02*
X433438Y28524D01*
X433858Y28760D01*
X434121Y29154D01*
X434226Y29705D01*
X434121Y30256D01*
X433806Y30728D01*
X433333Y30965D01*
X432808D01*
X432493Y31122D01*
X432231Y31516D01*
X432126Y32067D01*
X432283Y32618D01*
X432651Y33012D01*
X433071Y33169D01*
X433491Y33012D01*
X433858Y32618D01*
X434016Y32067D01*
X433911Y31516D01*
X433648Y31122D01*
X433333Y30965D01*
X432808D01*
X432336Y30728D01*
X432021Y30256D01*
X431916Y29705D01*
X432021Y29154D01*
X432283Y28760D01*
X432704Y28524D01*
X433071Y28445D01*
G01X393123Y50689D02*
X394383D01*
G01X393701Y51713D02*
Y49665D01*
G01X397638Y53839D02*
X397218Y53681D01*
X396903Y53287D01*
X396693Y52815D01*
X396535Y52185D01*
X396483Y51476D01*
X396535Y50768D01*
X396693Y50138D01*
X396903Y49665D01*
X397218Y49272D01*
X397638Y49114D01*
X398058Y49272D01*
X398373Y49665D01*
X398583Y50138D01*
X398740Y50768D01*
X398793Y51476D01*
X398740Y52185D01*
X398583Y52815D01*
X398373Y53287D01*
X398058Y53681D01*
X397638Y53839D01*
G01X401575Y48957D02*
X401470Y49035D01*
Y49193D01*
X401575Y49272D01*
X401680Y49193D01*
Y49035D01*
X401575Y48957D01*
G01X405512Y53839D02*
X405092Y53681D01*
X404777Y53287D01*
X404567Y52815D01*
X404409Y52185D01*
X404357Y51476D01*
X404409Y50768D01*
X404567Y50138D01*
X404777Y49665D01*
X405092Y49272D01*
X405512Y49114D01*
X405932Y49272D01*
X406247Y49665D01*
X406457Y50138D01*
X406614Y50768D01*
X406667Y51476D01*
X406614Y52185D01*
X406457Y52815D01*
X406247Y53287D01*
X405932Y53681D01*
X405512Y53839D01*
G01X409449Y49114D02*
X409816Y49193D01*
X410236Y49429D01*
X410499Y49823D01*
X410604Y50374D01*
X410499Y50925D01*
X410184Y51398D01*
X409711Y51634D01*
X409186D01*
X408871Y51791D01*
X408609Y52185D01*
X408504Y52736D01*
X408661Y53287D01*
X409029Y53681D01*
X409449Y53839D01*
X409869Y53681D01*
X410236Y53287D01*
X410394Y52736D01*
X410289Y52185D01*
X410026Y51791D01*
X409711Y51634D01*
X409186D01*
X408714Y51398D01*
X408399Y50925D01*
X408294Y50374D01*
X408399Y49823D01*
X408661Y49429D01*
X409081Y49193D01*
X409449Y49114D01*
G01X412441Y48957D02*
X414331Y53839D01*
G01X416641Y50689D02*
X418005D01*
G01X421260Y53839D02*
X420840Y53681D01*
X420525Y53287D01*
X420315Y52815D01*
X420157Y52185D01*
X420105Y51476D01*
X420157Y50768D01*
X420315Y50138D01*
X420525Y49665D01*
X420840Y49272D01*
X421260Y49114D01*
X421680Y49272D01*
X421995Y49665D01*
X422205Y50138D01*
X422362Y50768D01*
X422415Y51476D01*
X422362Y52185D01*
X422205Y52815D01*
X421995Y53287D01*
X421680Y53681D01*
X421260Y53839D01*
G01X425197Y48957D02*
X425092Y49035D01*
Y49193D01*
X425197Y49272D01*
X425302Y49193D01*
Y49035D01*
X425197Y48957D01*
G01X429134Y53839D02*
X428714Y53681D01*
X428399Y53287D01*
X428189Y52815D01*
X428031Y52185D01*
X427979Y51476D01*
X428031Y50768D01*
X428189Y50138D01*
X428399Y49665D01*
X428714Y49272D01*
X429134Y49114D01*
X429554Y49272D01*
X429869Y49665D01*
X430079Y50138D01*
X430236Y50768D01*
X430289Y51476D01*
X430236Y52185D01*
X430079Y52815D01*
X429869Y53287D01*
X429554Y53681D01*
X429134Y53839D01*
G01X433071Y49114D02*
X433438Y49193D01*
X433858Y49429D01*
X434121Y49823D01*
X434226Y50374D01*
X434121Y50925D01*
X433806Y51398D01*
X433333Y51634D01*
X432808D01*
X432493Y51791D01*
X432231Y52185D01*
X432126Y52736D01*
X432283Y53287D01*
X432651Y53681D01*
X433071Y53839D01*
X433491Y53681D01*
X433858Y53287D01*
X434016Y52736D01*
X433911Y52185D01*
X433648Y51791D01*
X433333Y51634D01*
X432808D01*
X432336Y51398D01*
X432021Y50925D01*
X431916Y50374D01*
X432021Y49823D01*
X432283Y49429D01*
X432704Y49193D01*
X433071Y49114D01*
G01X393123Y71358D02*
X394383D01*
G01X393701Y72382D02*
Y70335D01*
G01X397638Y74508D02*
X397218Y74350D01*
X396903Y73957D01*
X396693Y73484D01*
X396535Y72854D01*
X396483Y72146D01*
X396535Y71437D01*
X396693Y70807D01*
X396903Y70335D01*
X397218Y69941D01*
X397638Y69783D01*
X398058Y69941D01*
X398373Y70335D01*
X398583Y70807D01*
X398740Y71437D01*
X398793Y72146D01*
X398740Y72854D01*
X398583Y73484D01*
X398373Y73957D01*
X398058Y74350D01*
X397638Y74508D01*
G01X401575Y69626D02*
X401470Y69705D01*
Y69862D01*
X401575Y69941D01*
X401680Y69862D01*
Y69705D01*
X401575Y69626D01*
G01X405512Y74508D02*
X405092Y74350D01*
X404777Y73957D01*
X404567Y73484D01*
X404409Y72854D01*
X404357Y72146D01*
X404409Y71437D01*
X404567Y70807D01*
X404777Y70335D01*
X405092Y69941D01*
X405512Y69783D01*
X405932Y69941D01*
X406247Y70335D01*
X406457Y70807D01*
X406614Y71437D01*
X406667Y72146D01*
X406614Y72854D01*
X406457Y73484D01*
X406247Y73957D01*
X405932Y74350D01*
X405512Y74508D01*
G01X409449Y69783D02*
X409816Y69862D01*
X410236Y70098D01*
X410499Y70492D01*
X410604Y71043D01*
X410499Y71594D01*
X410184Y72067D01*
X409711Y72303D01*
X409186D01*
X408871Y72461D01*
X408609Y72854D01*
X408504Y73406D01*
X408661Y73957D01*
X409029Y74350D01*
X409449Y74508D01*
X409869Y74350D01*
X410236Y73957D01*
X410394Y73406D01*
X410289Y72854D01*
X410026Y72461D01*
X409711Y72303D01*
X409186D01*
X408714Y72067D01*
X408399Y71594D01*
X408294Y71043D01*
X408399Y70492D01*
X408661Y70098D01*
X409081Y69862D01*
X409449Y69783D01*
G01X412441Y69626D02*
X414331Y74508D01*
G01X416641Y71358D02*
X418005D01*
G01X421260Y74508D02*
X420840Y74350D01*
X420525Y73957D01*
X420315Y73484D01*
X420157Y72854D01*
X420105Y72146D01*
X420157Y71437D01*
X420315Y70807D01*
X420525Y70335D01*
X420840Y69941D01*
X421260Y69783D01*
X421680Y69941D01*
X421995Y70335D01*
X422205Y70807D01*
X422362Y71437D01*
X422415Y72146D01*
X422362Y72854D01*
X422205Y73484D01*
X421995Y73957D01*
X421680Y74350D01*
X421260Y74508D01*
G01X425197Y69626D02*
X425092Y69705D01*
Y69862D01*
X425197Y69941D01*
X425302Y69862D01*
Y69705D01*
X425197Y69626D01*
G01X429134Y74508D02*
X428714Y74350D01*
X428399Y73957D01*
X428189Y73484D01*
X428031Y72854D01*
X427979Y72146D01*
X428031Y71437D01*
X428189Y70807D01*
X428399Y70335D01*
X428714Y69941D01*
X429134Y69783D01*
X429554Y69941D01*
X429869Y70335D01*
X430079Y70807D01*
X430236Y71437D01*
X430289Y72146D01*
X430236Y72854D01*
X430079Y73484D01*
X429869Y73957D01*
X429554Y74350D01*
X429134Y74508D01*
G01X433071Y69783D02*
X433438Y69862D01*
X433858Y70098D01*
X434121Y70492D01*
X434226Y71043D01*
X434121Y71594D01*
X433806Y72067D01*
X433333Y72303D01*
X432808D01*
X432493Y72461D01*
X432231Y72854D01*
X432126Y73406D01*
X432283Y73957D01*
X432651Y74350D01*
X433071Y74508D01*
X433491Y74350D01*
X433858Y73957D01*
X434016Y73406D01*
X433911Y72854D01*
X433648Y72461D01*
X433333Y72303D01*
X432808D01*
X432336Y72067D01*
X432021Y71594D01*
X431916Y71043D01*
X432021Y70492D01*
X432283Y70098D01*
X432704Y69862D01*
X433071Y69783D01*
G01X397060Y92028D02*
X398320D01*
G01X397638Y93051D02*
Y91004D01*
G01X401575Y95177D02*
X401155Y95020D01*
X400840Y94626D01*
X400630Y94154D01*
X400472Y93524D01*
X400420Y92815D01*
X400472Y92106D01*
X400630Y91476D01*
X400840Y91004D01*
X401155Y90610D01*
X401575Y90453D01*
X401995Y90610D01*
X402310Y91004D01*
X402520Y91476D01*
X402677Y92106D01*
X402730Y92815D01*
X402677Y93524D01*
X402520Y94154D01*
X402310Y94626D01*
X401995Y95020D01*
X401575Y95177D01*
G01X405512Y90295D02*
X405407Y90374D01*
Y90531D01*
X405512Y90610D01*
X405617Y90531D01*
Y90374D01*
X405512Y90295D01*
G01X409449Y90453D02*
Y95177D01*
X408819Y94232D01*
G01Y90453D02*
X410079D01*
G01X412441Y90295D02*
X414331Y95177D01*
G01X416641Y92028D02*
X418005D01*
G01X421260Y95177D02*
X420840Y95020D01*
X420525Y94626D01*
X420315Y94154D01*
X420157Y93524D01*
X420105Y92815D01*
X420157Y92106D01*
X420315Y91476D01*
X420525Y91004D01*
X420840Y90610D01*
X421260Y90453D01*
X421680Y90610D01*
X421995Y91004D01*
X422205Y91476D01*
X422362Y92106D01*
X422415Y92815D01*
X422362Y93524D01*
X422205Y94154D01*
X421995Y94626D01*
X421680Y95020D01*
X421260Y95177D01*
G01X425197Y90295D02*
X425092Y90374D01*
Y90531D01*
X425197Y90610D01*
X425302Y90531D01*
Y90374D01*
X425197Y90295D01*
G01X429134Y95177D02*
X428714Y95020D01*
X428399Y94626D01*
X428189Y94154D01*
X428031Y93524D01*
X427979Y92815D01*
X428031Y92106D01*
X428189Y91476D01*
X428399Y91004D01*
X428714Y90610D01*
X429134Y90453D01*
X429554Y90610D01*
X429869Y91004D01*
X430079Y91476D01*
X430236Y92106D01*
X430289Y92815D01*
X430236Y93524D01*
X430079Y94154D01*
X429869Y94626D01*
X429554Y95020D01*
X429134Y95177D01*
G01X395092Y112697D02*
X396352D01*
G01X395669Y113720D02*
Y111673D01*
G01X399606Y115846D02*
X399186Y115689D01*
X398871Y115295D01*
X398661Y114823D01*
X398504Y114193D01*
X398452Y113484D01*
X398504Y112776D01*
X398661Y112146D01*
X398871Y111673D01*
X399186Y111280D01*
X399606Y111122D01*
X400026Y111280D01*
X400341Y111673D01*
X400551Y112146D01*
X400709Y112776D01*
X400761Y113484D01*
X400709Y114193D01*
X400551Y114823D01*
X400341Y115295D01*
X400026Y115689D01*
X399606Y115846D01*
G01X403543Y110965D02*
X403438Y111043D01*
Y111201D01*
X403543Y111280D01*
X403648Y111201D01*
Y111043D01*
X403543Y110965D01*
G01X407480Y115846D02*
X407060Y115689D01*
X406745Y115295D01*
X406535Y114823D01*
X406378Y114193D01*
X406326Y113484D01*
X406378Y112776D01*
X406535Y112146D01*
X406745Y111673D01*
X407060Y111280D01*
X407480Y111122D01*
X407900Y111280D01*
X408215Y111673D01*
X408425Y112146D01*
X408583Y112776D01*
X408635Y113484D01*
X408583Y114193D01*
X408425Y114823D01*
X408215Y115295D01*
X407900Y115689D01*
X407480Y115846D01*
G01X410263Y111831D02*
X410578Y111437D01*
X410945Y111201D01*
X411417Y111122D01*
X411890Y111280D01*
X412257Y111594D01*
X412520Y112146D01*
X412572Y112776D01*
X412467Y113406D01*
X412205Y113799D01*
X411837Y114114D01*
X411470Y114193D01*
X411102Y114114D01*
X410630Y113799D01*
X410787Y115846D01*
X412205D01*
G01X414409Y110965D02*
X416299Y115846D01*
G01X418609Y112697D02*
X419974D01*
G01X423228Y115846D02*
X422808Y115689D01*
X422493Y115295D01*
X422283Y114823D01*
X422126Y114193D01*
X422074Y113484D01*
X422126Y112776D01*
X422283Y112146D01*
X422493Y111673D01*
X422808Y111280D01*
X423228Y111122D01*
X423648Y111280D01*
X423963Y111673D01*
X424173Y112146D01*
X424331Y112776D01*
X424383Y113484D01*
X424331Y114193D01*
X424173Y114823D01*
X423963Y115295D01*
X423648Y115689D01*
X423228Y115846D01*
G01X427165Y110965D02*
X427060Y111043D01*
Y111201D01*
X427165Y111280D01*
X427270Y111201D01*
Y111043D01*
X427165Y110965D01*
G01X431102Y115846D02*
X430682Y115689D01*
X430367Y115295D01*
X430157Y114823D01*
X430000Y114193D01*
X429948Y113484D01*
X430000Y112776D01*
X430157Y112146D01*
X430367Y111673D01*
X430682Y111280D01*
X431102Y111122D01*
X431522Y111280D01*
X431837Y111673D01*
X432047Y112146D01*
X432205Y112776D01*
X432257Y113484D01*
X432205Y114193D01*
X432047Y114823D01*
X431837Y115295D01*
X431522Y115689D01*
X431102Y115846D01*
G01X393123Y133366D02*
X394383D01*
G01X393701Y134390D02*
Y132343D01*
G01X397638Y136516D02*
X397218Y136358D01*
X396903Y135965D01*
X396693Y135492D01*
X396535Y134862D01*
X396483Y134154D01*
X396535Y133445D01*
X396693Y132815D01*
X396903Y132343D01*
X397218Y131949D01*
X397638Y131791D01*
X398058Y131949D01*
X398373Y132343D01*
X398583Y132815D01*
X398740Y133445D01*
X398793Y134154D01*
X398740Y134862D01*
X398583Y135492D01*
X398373Y135965D01*
X398058Y136358D01*
X397638Y136516D01*
G01X401575Y131634D02*
X401470Y131713D01*
Y131870D01*
X401575Y131949D01*
X401680Y131870D01*
Y131713D01*
X401575Y131634D01*
G01X405512Y136516D02*
X405092Y136358D01*
X404777Y135965D01*
X404567Y135492D01*
X404409Y134862D01*
X404357Y134154D01*
X404409Y133445D01*
X404567Y132815D01*
X404777Y132343D01*
X405092Y131949D01*
X405512Y131791D01*
X405932Y131949D01*
X406247Y132343D01*
X406457Y132815D01*
X406614Y133445D01*
X406667Y134154D01*
X406614Y134862D01*
X406457Y135492D01*
X406247Y135965D01*
X405932Y136358D01*
X405512Y136516D01*
G01X409449Y131791D02*
X409816Y131870D01*
X410236Y132106D01*
X410499Y132500D01*
X410604Y133051D01*
X410499Y133602D01*
X410184Y134075D01*
X409711Y134311D01*
X409186D01*
X408871Y134469D01*
X408609Y134862D01*
X408504Y135413D01*
X408661Y135965D01*
X409029Y136358D01*
X409449Y136516D01*
X409869Y136358D01*
X410236Y135965D01*
X410394Y135413D01*
X410289Y134862D01*
X410026Y134469D01*
X409711Y134311D01*
X409186D01*
X408714Y134075D01*
X408399Y133602D01*
X408294Y133051D01*
X408399Y132500D01*
X408661Y132106D01*
X409081Y131870D01*
X409449Y131791D01*
G01X412441Y131634D02*
X414331Y136516D01*
G01X416641Y133366D02*
X418005D01*
G01X421260Y136516D02*
X420840Y136358D01*
X420525Y135965D01*
X420315Y135492D01*
X420157Y134862D01*
X420105Y134154D01*
X420157Y133445D01*
X420315Y132815D01*
X420525Y132343D01*
X420840Y131949D01*
X421260Y131791D01*
X421680Y131949D01*
X421995Y132343D01*
X422205Y132815D01*
X422362Y133445D01*
X422415Y134154D01*
X422362Y134862D01*
X422205Y135492D01*
X421995Y135965D01*
X421680Y136358D01*
X421260Y136516D01*
G01X425197Y131634D02*
X425092Y131713D01*
Y131870D01*
X425197Y131949D01*
X425302Y131870D01*
Y131713D01*
X425197Y131634D01*
G01X429134Y136516D02*
X428714Y136358D01*
X428399Y135965D01*
X428189Y135492D01*
X428031Y134862D01*
X427979Y134154D01*
X428031Y133445D01*
X428189Y132815D01*
X428399Y132343D01*
X428714Y131949D01*
X429134Y131791D01*
X429554Y131949D01*
X429869Y132343D01*
X430079Y132815D01*
X430236Y133445D01*
X430289Y134154D01*
X430236Y134862D01*
X430079Y135492D01*
X429869Y135965D01*
X429554Y136358D01*
X429134Y136516D01*
G01X433071Y131791D02*
X433438Y131870D01*
X433858Y132106D01*
X434121Y132500D01*
X434226Y133051D01*
X434121Y133602D01*
X433806Y134075D01*
X433333Y134311D01*
X432808D01*
X432493Y134469D01*
X432231Y134862D01*
X432126Y135413D01*
X432283Y135965D01*
X432651Y136358D01*
X433071Y136516D01*
X433491Y136358D01*
X433858Y135965D01*
X434016Y135413D01*
X433911Y134862D01*
X433648Y134469D01*
X433333Y134311D01*
X432808D01*
X432336Y134075D01*
X432021Y133602D01*
X431916Y133051D01*
X432021Y132500D01*
X432283Y132106D01*
X432704Y131870D01*
X433071Y131791D01*
G01X393123Y154035D02*
X394383D01*
G01X393701Y155059D02*
Y153012D01*
G01X397638Y157185D02*
X397218Y157028D01*
X396903Y156634D01*
X396693Y156161D01*
X396535Y155531D01*
X396483Y154823D01*
X396535Y154114D01*
X396693Y153484D01*
X396903Y153012D01*
X397218Y152618D01*
X397638Y152461D01*
X398058Y152618D01*
X398373Y153012D01*
X398583Y153484D01*
X398740Y154114D01*
X398793Y154823D01*
X398740Y155531D01*
X398583Y156161D01*
X398373Y156634D01*
X398058Y157028D01*
X397638Y157185D01*
G01X401575Y152303D02*
X401470Y152382D01*
Y152539D01*
X401575Y152618D01*
X401680Y152539D01*
Y152382D01*
X401575Y152303D01*
G01X405512Y157185D02*
X405092Y157028D01*
X404777Y156634D01*
X404567Y156161D01*
X404409Y155531D01*
X404357Y154823D01*
X404409Y154114D01*
X404567Y153484D01*
X404777Y153012D01*
X405092Y152618D01*
X405512Y152461D01*
X405932Y152618D01*
X406247Y153012D01*
X406457Y153484D01*
X406614Y154114D01*
X406667Y154823D01*
X406614Y155531D01*
X406457Y156161D01*
X406247Y156634D01*
X405932Y157028D01*
X405512Y157185D01*
G01X409449Y152461D02*
X409816Y152539D01*
X410236Y152776D01*
X410499Y153169D01*
X410604Y153720D01*
X410499Y154272D01*
X410184Y154744D01*
X409711Y154980D01*
X409186D01*
X408871Y155138D01*
X408609Y155531D01*
X408504Y156083D01*
X408661Y156634D01*
X409029Y157028D01*
X409449Y157185D01*
X409869Y157028D01*
X410236Y156634D01*
X410394Y156083D01*
X410289Y155531D01*
X410026Y155138D01*
X409711Y154980D01*
X409186D01*
X408714Y154744D01*
X408399Y154272D01*
X408294Y153720D01*
X408399Y153169D01*
X408661Y152776D01*
X409081Y152539D01*
X409449Y152461D01*
G01X412441Y152303D02*
X414331Y157185D01*
G01X416641Y154035D02*
X418005D01*
G01X421260Y157185D02*
X420840Y157028D01*
X420525Y156634D01*
X420315Y156161D01*
X420157Y155531D01*
X420105Y154823D01*
X420157Y154114D01*
X420315Y153484D01*
X420525Y153012D01*
X420840Y152618D01*
X421260Y152461D01*
X421680Y152618D01*
X421995Y153012D01*
X422205Y153484D01*
X422362Y154114D01*
X422415Y154823D01*
X422362Y155531D01*
X422205Y156161D01*
X421995Y156634D01*
X421680Y157028D01*
X421260Y157185D01*
G01X425197Y152303D02*
X425092Y152382D01*
Y152539D01*
X425197Y152618D01*
X425302Y152539D01*
Y152382D01*
X425197Y152303D01*
G01X429134Y157185D02*
X428714Y157028D01*
X428399Y156634D01*
X428189Y156161D01*
X428031Y155531D01*
X427979Y154823D01*
X428031Y154114D01*
X428189Y153484D01*
X428399Y153012D01*
X428714Y152618D01*
X429134Y152461D01*
X429554Y152618D01*
X429869Y153012D01*
X430079Y153484D01*
X430236Y154114D01*
X430289Y154823D01*
X430236Y155531D01*
X430079Y156161D01*
X429869Y156634D01*
X429554Y157028D01*
X429134Y157185D01*
G01X433071Y152461D02*
X433438Y152539D01*
X433858Y152776D01*
X434121Y153169D01*
X434226Y153720D01*
X434121Y154272D01*
X433806Y154744D01*
X433333Y154980D01*
X432808D01*
X432493Y155138D01*
X432231Y155531D01*
X432126Y156083D01*
X432283Y156634D01*
X432651Y157028D01*
X433071Y157185D01*
X433491Y157028D01*
X433858Y156634D01*
X434016Y156083D01*
X433911Y155531D01*
X433648Y155138D01*
X433333Y154980D01*
X432808D01*
X432336Y154744D01*
X432021Y154272D01*
X431916Y153720D01*
X432021Y153169D01*
X432283Y152776D01*
X432704Y152539D01*
X433071Y152461D01*
G01X397638Y172244D02*
Y167520D01*
G01X396430Y172244D02*
X398845D01*
G01X401575Y167520D02*
X401155Y167598D01*
X400787Y167913D01*
X400472Y168386D01*
X400263Y168937D01*
X400157Y169567D01*
Y170197D01*
X400263Y170827D01*
X400472Y171378D01*
X400787Y171850D01*
X401155Y172165D01*
X401575Y172244D01*
X401995Y172165D01*
X402362Y171850D01*
X402677Y171378D01*
X402887Y170827D01*
X402992Y170197D01*
Y169567D01*
X402887Y168937D01*
X402677Y168386D01*
X402362Y167913D01*
X401995Y167598D01*
X401575Y167520D01*
G01X404462Y172244D02*
Y167520D01*
X406562D01*
G01X410499D02*
X408399D01*
Y172244D01*
X410499D01*
G01X409659Y169961D02*
X408399D01*
G01X412336Y167520D02*
Y172244D01*
X413648D01*
X414068Y172008D01*
X414331Y171693D01*
X414436Y171063D01*
X414331Y170433D01*
X414016Y170039D01*
X413648Y169803D01*
X412336D01*
G01X413648D02*
X414436Y167520D01*
G01X416011D02*
X417323Y172244D01*
X418635Y167520D01*
G01X418163Y169173D02*
X416483D01*
G01X420052Y167520D02*
Y172244D01*
X422467Y167520D01*
Y172244D01*
G01X426352Y171850D02*
X426037Y172087D01*
X425669Y172244D01*
X425249D01*
X424777Y172008D01*
X424409Y171614D01*
X424147Y171142D01*
X423937Y170354D01*
X423885Y169646D01*
X423989Y168937D01*
X424147Y168465D01*
X424462Y167992D01*
X424830Y167677D01*
X425197Y167520D01*
X425564D01*
X425932Y167677D01*
X426247Y167913D01*
X426509Y168228D01*
G01X430184Y167520D02*
X428084D01*
Y172244D01*
X430184D01*
G01X429344Y169961D02*
X428084D01*
G01X452493Y-33563D02*
Y-28839D01*
X453753D01*
X454173Y-29075D01*
X454488Y-29626D01*
X454593Y-30256D01*
X454488Y-30886D01*
X454226Y-31358D01*
X453753Y-31594D01*
X452493D01*
G01X456430Y-28839D02*
Y-33563D01*
X458530D01*
G01X460105D02*
X461417Y-28839D01*
X462730Y-33563D01*
G01X462257Y-31909D02*
X460578D01*
G01X465354Y-28839D02*
Y-33563D01*
G01X464147Y-28839D02*
X466562D01*
G01X470341Y-33563D02*
X468241D01*
Y-28839D01*
X470341D01*
G01X469501Y-31122D02*
X468241D01*
G01X472074Y-33563D02*
Y-28839D01*
X473123D01*
X473543Y-29075D01*
X473858Y-29390D01*
X474121Y-29862D01*
X474331Y-30413D01*
X474383Y-31201D01*
X474331Y-31988D01*
X474121Y-32539D01*
X473858Y-33012D01*
X473543Y-33327D01*
X473123Y-33563D01*
X472074D01*
G01X452493Y-12894D02*
Y-8169D01*
X453753D01*
X454173Y-8406D01*
X454488Y-8957D01*
X454593Y-9587D01*
X454488Y-10217D01*
X454226Y-10689D01*
X453753Y-10925D01*
X452493D01*
G01X456430Y-8169D02*
Y-12894D01*
X458530D01*
G01X460105D02*
X461417Y-8169D01*
X462730Y-12894D01*
G01X462257Y-11240D02*
X460578D01*
G01X465354Y-8169D02*
Y-12894D01*
G01X464147Y-8169D02*
X466562D01*
G01X470341Y-12894D02*
X468241D01*
Y-8169D01*
X470341D01*
G01X469501Y-10453D02*
X468241D01*
G01X472074Y-12894D02*
Y-8169D01*
X473123D01*
X473543Y-8406D01*
X473858Y-8720D01*
X474121Y-9193D01*
X474331Y-9744D01*
X474383Y-10531D01*
X474331Y-11319D01*
X474121Y-11870D01*
X473858Y-12343D01*
X473543Y-12657D01*
X473123Y-12894D01*
X472074D01*
G01X452493Y7776D02*
Y12500D01*
X453753D01*
X454173Y12264D01*
X454488Y11713D01*
X454593Y11083D01*
X454488Y10453D01*
X454226Y9980D01*
X453753Y9744D01*
X452493D01*
G01X456430Y12500D02*
Y7776D01*
X458530D01*
G01X460105D02*
X461417Y12500D01*
X462730Y7776D01*
G01X462257Y9429D02*
X460578D01*
G01X465354Y12500D02*
Y7776D01*
G01X464147Y12500D02*
X466562D01*
G01X470341Y7776D02*
X468241D01*
Y12500D01*
X470341D01*
G01X469501Y10217D02*
X468241D01*
G01X472074Y7776D02*
Y12500D01*
X473123D01*
X473543Y12264D01*
X473858Y11949D01*
X474121Y11476D01*
X474331Y10925D01*
X474383Y10138D01*
X474331Y9350D01*
X474121Y8799D01*
X473858Y8327D01*
X473543Y8012D01*
X473123Y7776D01*
X472074D01*
G01X452493Y28445D02*
Y33169D01*
X453753D01*
X454173Y32933D01*
X454488Y32382D01*
X454593Y31752D01*
X454488Y31122D01*
X454226Y30650D01*
X453753Y30413D01*
X452493D01*
G01X456430Y33169D02*
Y28445D01*
X458530D01*
G01X460105D02*
X461417Y33169D01*
X462730Y28445D01*
G01X462257Y30098D02*
X460578D01*
G01X465354Y33169D02*
Y28445D01*
G01X464147Y33169D02*
X466562D01*
G01X470341Y28445D02*
X468241D01*
Y33169D01*
X470341D01*
G01X469501Y30886D02*
X468241D01*
G01X472074Y28445D02*
Y33169D01*
X473123D01*
X473543Y32933D01*
X473858Y32618D01*
X474121Y32146D01*
X474331Y31594D01*
X474383Y30807D01*
X474331Y30020D01*
X474121Y29469D01*
X473858Y28996D01*
X473543Y28681D01*
X473123Y28445D01*
X472074D01*
G01X452493Y49114D02*
Y53839D01*
X453753D01*
X454173Y53602D01*
X454488Y53051D01*
X454593Y52421D01*
X454488Y51791D01*
X454226Y51319D01*
X453753Y51083D01*
X452493D01*
G01X456430Y53839D02*
Y49114D01*
X458530D01*
G01X460105D02*
X461417Y53839D01*
X462730Y49114D01*
G01X462257Y50768D02*
X460578D01*
G01X465354Y53839D02*
Y49114D01*
G01X464147Y53839D02*
X466562D01*
G01X470341Y49114D02*
X468241D01*
Y53839D01*
X470341D01*
G01X469501Y51555D02*
X468241D01*
G01X472074Y49114D02*
Y53839D01*
X473123D01*
X473543Y53602D01*
X473858Y53287D01*
X474121Y52815D01*
X474331Y52264D01*
X474383Y51476D01*
X474331Y50689D01*
X474121Y50138D01*
X473858Y49665D01*
X473543Y49350D01*
X473123Y49114D01*
X472074D01*
G01X444462Y69783D02*
Y74508D01*
X446877Y69783D01*
Y74508D01*
G01X449606Y69783D02*
X449186Y69862D01*
X448819Y70177D01*
X448504Y70650D01*
X448294Y71201D01*
X448189Y71831D01*
Y72461D01*
X448294Y73091D01*
X448504Y73642D01*
X448819Y74114D01*
X449186Y74429D01*
X449606Y74508D01*
X450026Y74429D01*
X450394Y74114D01*
X450709Y73642D01*
X450919Y73091D01*
X451024Y72461D01*
Y71831D01*
X450919Y71201D01*
X450709Y70650D01*
X450394Y70177D01*
X450026Y69862D01*
X449606Y69783D01*
G01X452336D02*
Y74508D01*
X454751Y69783D01*
Y74508D01*
G01X456798Y71358D02*
X458163D01*
G01X460367Y69783D02*
Y74508D01*
X461627D01*
X462047Y74272D01*
X462362Y73720D01*
X462467Y73091D01*
X462362Y72461D01*
X462100Y71988D01*
X461627Y71752D01*
X460367D01*
G01X464304Y74508D02*
Y69783D01*
X466404D01*
G01X467979D02*
X469291Y74508D01*
X470604Y69783D01*
G01X470131Y71437D02*
X468452D01*
G01X473228Y74508D02*
Y69783D01*
G01X472021Y74508D02*
X474436D01*
G01X478215Y69783D02*
X476115D01*
Y74508D01*
X478215D01*
G01X477375Y72224D02*
X476115D01*
G01X479948Y69783D02*
Y74508D01*
X480997D01*
X481417Y74272D01*
X481732Y73957D01*
X481995Y73484D01*
X482205Y72933D01*
X482257Y72146D01*
X482205Y71358D01*
X481995Y70807D01*
X481732Y70335D01*
X481417Y70020D01*
X480997Y69783D01*
X479948D01*
G01X452493Y90453D02*
Y95177D01*
X453753D01*
X454173Y94941D01*
X454488Y94390D01*
X454593Y93760D01*
X454488Y93130D01*
X454226Y92657D01*
X453753Y92421D01*
X452493D01*
G01X456430Y95177D02*
Y90453D01*
X458530D01*
G01X460105D02*
X461417Y95177D01*
X462730Y90453D01*
G01X462257Y92106D02*
X460578D01*
G01X465354Y95177D02*
Y90453D01*
G01X464147Y95177D02*
X466562D01*
G01X470341Y90453D02*
X468241D01*
Y95177D01*
X470341D01*
G01X469501Y92894D02*
X468241D01*
G01X472074Y90453D02*
Y95177D01*
X473123D01*
X473543Y94941D01*
X473858Y94626D01*
X474121Y94154D01*
X474331Y93602D01*
X474383Y92815D01*
X474331Y92028D01*
X474121Y91476D01*
X473858Y91004D01*
X473543Y90689D01*
X473123Y90453D01*
X472074D01*
G01X452493Y111122D02*
Y115846D01*
X453753D01*
X454173Y115610D01*
X454488Y115059D01*
X454593Y114429D01*
X454488Y113799D01*
X454226Y113327D01*
X453753Y113091D01*
X452493D01*
G01X456430Y115846D02*
Y111122D01*
X458530D01*
G01X460105D02*
X461417Y115846D01*
X462730Y111122D01*
G01X462257Y112776D02*
X460578D01*
G01X465354Y115846D02*
Y111122D01*
G01X464147Y115846D02*
X466562D01*
G01X470341Y111122D02*
X468241D01*
Y115846D01*
X470341D01*
G01X469501Y113563D02*
X468241D01*
G01X472074Y111122D02*
Y115846D01*
X473123D01*
X473543Y115610D01*
X473858Y115295D01*
X474121Y114823D01*
X474331Y114272D01*
X474383Y113484D01*
X474331Y112697D01*
X474121Y112146D01*
X473858Y111673D01*
X473543Y111358D01*
X473123Y111122D01*
X472074D01*
G01X452493Y131791D02*
Y136516D01*
X453753D01*
X454173Y136280D01*
X454488Y135728D01*
X454593Y135098D01*
X454488Y134469D01*
X454226Y133996D01*
X453753Y133760D01*
X452493D01*
G01X456430Y136516D02*
Y131791D01*
X458530D01*
G01X460105D02*
X461417Y136516D01*
X462730Y131791D01*
G01X462257Y133445D02*
X460578D01*
G01X465354Y136516D02*
Y131791D01*
G01X464147Y136516D02*
X466562D01*
G01X470341Y131791D02*
X468241D01*
Y136516D01*
X470341D01*
G01X469501Y134232D02*
X468241D01*
G01X472074Y131791D02*
Y136516D01*
X473123D01*
X473543Y136280D01*
X473858Y135965D01*
X474121Y135492D01*
X474331Y134941D01*
X474383Y134154D01*
X474331Y133366D01*
X474121Y132815D01*
X473858Y132343D01*
X473543Y132028D01*
X473123Y131791D01*
X472074D01*
G01X452493Y152461D02*
Y157185D01*
X453753D01*
X454173Y156949D01*
X454488Y156398D01*
X454593Y155768D01*
X454488Y155138D01*
X454226Y154665D01*
X453753Y154429D01*
X452493D01*
G01X456430Y157185D02*
Y152461D01*
X458530D01*
G01X460105D02*
X461417Y157185D01*
X462730Y152461D01*
G01X462257Y154114D02*
X460578D01*
G01X465354Y157185D02*
Y152461D01*
G01X464147Y157185D02*
X466562D01*
G01X470341Y152461D02*
X468241D01*
Y157185D01*
X470341D01*
G01X469501Y154902D02*
X468241D01*
G01X472074Y152461D02*
Y157185D01*
X473123D01*
X473543Y156949D01*
X473858Y156634D01*
X474121Y156161D01*
X474331Y155610D01*
X474383Y154823D01*
X474331Y154035D01*
X474121Y153484D01*
X473858Y153012D01*
X473543Y152697D01*
X473123Y152461D01*
X472074D01*
G01X452493Y167520D02*
Y172244D01*
X453753D01*
X454173Y172008D01*
X454488Y171457D01*
X454593Y170827D01*
X454488Y170197D01*
X454226Y169724D01*
X453753Y169488D01*
X452493D01*
G01X456430Y172244D02*
Y167520D01*
X458530D01*
G01X460105D02*
X461417Y172244D01*
X462730Y167520D01*
G01X462257Y169173D02*
X460578D01*
G01X465354Y172244D02*
Y167520D01*
G01X464147Y172244D02*
X466562D01*
G01X470341Y167520D02*
X468241D01*
Y172244D01*
X470341D01*
G01X469501Y169961D02*
X468241D01*
G01X472074Y167520D02*
Y172244D01*
X473123D01*
X473543Y172008D01*
X473858Y171693D01*
X474121Y171220D01*
X474331Y170669D01*
X474383Y169882D01*
X474331Y169094D01*
X474121Y168543D01*
X473858Y168071D01*
X473543Y167756D01*
X473123Y167520D01*
X472074D01*
G01X492546Y91398D02*
X492861Y90846D01*
X493281Y90531D01*
X493753Y90453D01*
X494173Y90531D01*
X494593Y90925D01*
X494856Y91398D01*
X494908Y91870D01*
X494803Y92421D01*
X494436Y92815D01*
X494068Y92972D01*
X493596D01*
G01X494068D02*
X494383Y93209D01*
X494646Y93602D01*
X494751Y94075D01*
X494646Y94547D01*
X494383Y94941D01*
X493911Y95177D01*
X493438Y95098D01*
X492966Y94783D01*
G01X496641Y94390D02*
X496956Y94862D01*
X497323Y95098D01*
X497743Y95177D01*
X498268Y95020D01*
X498635Y94626D01*
X498740Y94154D01*
X498688Y93681D01*
X498478Y93287D01*
X497428Y92500D01*
X496956Y91949D01*
X496641Y91161D01*
X496535Y90453D01*
X498740D01*
G01X493701Y111122D02*
Y115846D01*
X493071Y114902D01*
G01Y111122D02*
X494331D01*
G01X497638Y115846D02*
X497218Y115689D01*
X496903Y115295D01*
X496693Y114823D01*
X496535Y114193D01*
X496483Y113484D01*
X496535Y112776D01*
X496693Y112146D01*
X496903Y111673D01*
X497218Y111280D01*
X497638Y111122D01*
X498058Y111280D01*
X498373Y111673D01*
X498583Y112146D01*
X498740Y112776D01*
X498793Y113484D01*
X498740Y114193D01*
X498583Y114823D01*
X498373Y115295D01*
X498058Y115689D01*
X497638Y115846D01*
G01X494331Y131791D02*
Y136516D01*
X492389Y133130D01*
X495013D01*
G01X496483Y132500D02*
X496798Y132106D01*
X497165Y131870D01*
X497638Y131791D01*
X498110Y131949D01*
X498478Y132264D01*
X498740Y132815D01*
X498793Y133445D01*
X498688Y134075D01*
X498425Y134469D01*
X498058Y134783D01*
X497690Y134862D01*
X497323Y134783D01*
X496850Y134469D01*
X497008Y136516D01*
X498425D01*
G01X491732Y152461D02*
Y157185D01*
X491102Y156240D01*
G01Y152461D02*
X492362D01*
G01X494672Y154429D02*
X495039Y154980D01*
X495354Y155295D01*
X495774Y155453D01*
X496142Y155295D01*
X496404Y154980D01*
X496614Y154508D01*
X496667Y153957D01*
X496614Y153484D01*
X496404Y153012D01*
X496089Y152618D01*
X495722Y152461D01*
X495302Y152618D01*
X494934Y153091D01*
X494724Y153799D01*
X494672Y154587D01*
X494777Y155610D01*
X494934Y156161D01*
X495197Y156713D01*
X495564Y157106D01*
X495932Y157185D01*
X496299Y157028D01*
X496562Y156634D01*
G01X498452Y153406D02*
X498767Y152854D01*
X499186Y152539D01*
X499659Y152461D01*
X500079Y152539D01*
X500499Y152933D01*
X500761Y153406D01*
X500814Y153878D01*
X500709Y154429D01*
X500341Y154823D01*
X499974Y154980D01*
X499501D01*
G01X499974D02*
X500289Y155217D01*
X500551Y155610D01*
X500656Y156083D01*
X500551Y156555D01*
X500289Y156949D01*
X499816Y157185D01*
X499344Y157106D01*
X498871Y156791D01*
G01X491732Y167520D02*
X491312Y167598D01*
X490945Y167913D01*
X490630Y168386D01*
X490420Y168937D01*
X490315Y169567D01*
Y170197D01*
X490420Y170827D01*
X490630Y171378D01*
X490945Y171850D01*
X491312Y172165D01*
X491732Y172244D01*
X492152Y172165D01*
X492520Y171850D01*
X492835Y171378D01*
X493044Y170827D01*
X493150Y170197D01*
Y169567D01*
X493044Y168937D01*
X492835Y168386D01*
X492520Y167913D01*
X492152Y167598D01*
X491732Y167520D01*
G01X492152Y168780D02*
X492782Y167520D01*
G01X495669Y172244D02*
Y167520D01*
G01X494462Y172244D02*
X496877D01*
G01X499606Y167520D02*
Y169646D01*
X498556Y172244D01*
G01X500656D02*
X499606Y169646D01*
G01X495669Y-33563D02*
Y-28839D01*
X495039Y-29783D01*
G01Y-33563D02*
X496299D01*
G01X495669Y-12894D02*
Y-8169D01*
X495039Y-9114D01*
G01Y-12894D02*
X496299D01*
G01X495669Y7776D02*
Y12500D01*
X495039Y11555D01*
G01Y7776D02*
X496299D01*
G01X494672Y32382D02*
X494987Y32854D01*
X495354Y33091D01*
X495774Y33169D01*
X496299Y33012D01*
X496667Y32618D01*
X496772Y32146D01*
X496719Y31673D01*
X496509Y31280D01*
X495459Y30492D01*
X494987Y29941D01*
X494672Y29154D01*
X494567Y28445D01*
X496772D01*
G01X494672Y53051D02*
X494987Y53524D01*
X495354Y53760D01*
X495774Y53839D01*
X496299Y53681D01*
X496667Y53287D01*
X496772Y52815D01*
X496719Y52343D01*
X496509Y51949D01*
X495459Y51161D01*
X494987Y50610D01*
X494672Y49823D01*
X494567Y49114D01*
X496772D01*
G01X494515Y70728D02*
X494830Y70177D01*
X495249Y69862D01*
X495722Y69783D01*
X496142Y69862D01*
X496562Y70256D01*
X496824Y70728D01*
X496877Y71201D01*
X496772Y71752D01*
X496404Y72146D01*
X496037Y72303D01*
X495564D01*
G01X496037D02*
X496352Y72539D01*
X496614Y72933D01*
X496719Y73406D01*
X496614Y73878D01*
X496352Y74272D01*
X495879Y74508D01*
X495407Y74429D01*
X494934Y74114D01*
G54D11*
X23819Y32700D03*
X309449Y10138D03*
G54D21*
G01X295276Y-41535D02*
Y209646D01*
X507874D01*
Y-41535D01*
X295276D01*
G01Y-20866D02*
X507874D01*
G01X295276Y-197D02*
X507874D01*
G01X295276Y20472D02*
X507874D01*
G01X295276Y41142D02*
X507874D01*
G01X295276Y61811D02*
X507874D01*
G01X295276Y82480D02*
X507874D01*
G01X295276Y103150D02*
X507874D01*
G01X295276Y123819D02*
X507874D01*
G01X295276Y144488D02*
X507874D01*
G01X295276Y165157D02*
X507874D01*
G01X295276Y184055D02*
X507874D01*
G01X295276Y174606D02*
X507874D01*
G01X323622D02*
Y-41535D01*
G01X383465Y174606D02*
Y-41535D01*
G01X443307Y174606D02*
Y-41535D01*
G01X483465Y174606D02*
Y-41535D01*
G54D12*
X16339Y95157D03*
Y114843D03*
X309449Y51476D03*
G54D13*
X23031Y96654D03*
X20945Y144094D03*
Y163189D03*
X24606Y72835D03*
X34724Y145551D03*
X33740Y155394D03*
Y150472D03*
X39646Y145551D03*
X33740Y170157D03*
Y165236D03*
Y160315D03*
X49213Y133858D03*
X54409Y145551D03*
X49488D03*
X44567D03*
X54409Y180000D03*
X49488D03*
Y175079D03*
X54409D03*
X70669Y43898D03*
X69882Y100984D03*
X71457Y125984D03*
X73228Y151870D03*
Y156398D03*
X59331Y145551D03*
Y180000D03*
Y175079D03*
X87598Y50197D03*
X81693Y100984D03*
X84646Y118110D03*
X85630Y178248D03*
X74803D03*
X105315Y167913D03*
X118110Y156398D03*
Y178248D03*
X128937Y156398D03*
Y178248D03*
X161811Y55315D03*
X166929Y70669D03*
Y102362D03*
X179528Y90551D03*
X239370Y81102D03*
X254921Y66339D03*
X243110D03*
X258661Y81693D03*
X309449Y134154D03*
G54D14*
X36417Y13802D03*
X309449Y-10531D03*
G54D15*
X28051Y100591D03*
Y112008D03*
Y119882D03*
X38661Y150472D03*
Y155394D03*
Y170157D03*
Y165236D03*
Y160315D03*
X42323Y73819D03*
X43583Y150472D03*
X48504D03*
X53425D03*
Y155394D03*
X48504D03*
X43583D03*
Y160315D03*
Y165236D03*
Y170157D03*
X53425Y160315D03*
Y165236D03*
Y170157D03*
X48504D03*
Y160315D03*
Y165236D03*
X62008Y55807D03*
X73031Y72441D03*
X70866Y87894D03*
X62008Y73624D03*
Y89567D03*
X67717Y94488D03*
X58346Y150472D03*
Y155394D03*
Y170157D03*
Y165236D03*
Y160315D03*
X88778Y31496D03*
X76772Y53543D03*
X79724Y87794D03*
X88287Y91535D03*
X83858Y94488D03*
X88189Y129921D03*
X100394Y55807D03*
Y70177D03*
X91535Y70077D03*
X92323Y80510D03*
X98622D03*
X102657Y123031D03*
X102756Y129921D03*
X101575Y158268D03*
X116535Y54331D03*
Y70374D03*
X119069Y99803D03*
X109646Y98031D03*
X109252Y92323D03*
X123425Y96654D03*
X119957Y96576D03*
X118868Y122448D03*
X119685Y111306D03*
X121850Y119094D03*
X119291Y129921D03*
X123425Y134843D03*
X121654Y146654D03*
X123425Y187598D03*
X112795Y182283D03*
X134252Y55906D03*
X124803Y72636D03*
X131102D03*
X134252Y70669D03*
X136614Y76772D03*
X125984Y89173D03*
X134646Y105118D03*
X136792Y102424D03*
X140157Y95276D03*
X127559Y97244D03*
X140059Y103150D03*
X136024Y118307D03*
X128937Y108169D03*
X132234Y107593D03*
X130315Y120669D03*
X125000Y117520D03*
X124016Y125394D03*
X127756Y135039D03*
X133858Y125394D03*
X132283Y135039D03*
X135752Y134449D03*
X132087Y142518D03*
X127756Y186122D03*
X133858Y177953D03*
X148031Y55906D03*
X150689Y50197D03*
X144291Y44488D03*
X153150Y70079D03*
X142323Y66732D03*
X154724Y83465D03*
X143075Y90094D03*
X152165Y104528D03*
X148592Y91107D03*
X154921Y102362D03*
X146228Y96121D03*
X154921Y98425D03*
Y95079D03*
X141357Y98997D03*
X152952Y110033D03*
X154528Y120472D03*
X151575Y125394D03*
X149606Y134449D03*
X141142D03*
X145669Y125394D03*
X147835Y142518D03*
X141535D03*
X142717Y184646D03*
X161220Y36811D03*
X173425Y45866D03*
X173228Y71457D03*
X168952Y81205D03*
X165518Y83173D03*
X159449Y89764D03*
X164173Y99409D03*
Y96063D03*
X173228Y134055D03*
X163976Y123622D03*
X164469Y180610D03*
X179134Y56102D03*
X176378Y49606D03*
X181102Y73031D03*
X189370Y86220D03*
X183661Y101772D03*
X185630Y98425D03*
X186614Y94488D03*
X188976Y156496D03*
X177953Y159449D03*
X178150Y174508D03*
X188976Y174408D03*
X189173Y182283D03*
X183465Y185630D03*
X199409Y55610D03*
X193110D03*
X196260Y70374D03*
X205906Y73031D03*
X199016Y86220D03*
X199654Y93583D03*
X194291Y117717D03*
X204724Y170866D03*
X194094Y179134D03*
X213780Y55610D03*
X220079Y54724D03*
Y42520D03*
X223228Y70374D03*
X213780Y70866D03*
Y76378D03*
X209055Y92520D03*
X221260Y115228D03*
X212516Y107039D03*
X215354Y121060D03*
X215551Y132874D03*
X235689Y93988D03*
X239366Y97490D03*
X224882Y108689D03*
X225043Y113283D03*
X237205Y127953D03*
X231102Y171457D03*
X229724Y163189D03*
X241142Y132874D03*
X309449Y154823D03*
G54D16*
X47441Y32700D03*
X309449Y-31201D03*
G54D17*
X60000Y200000D03*
X260000Y30000D03*
Y140000D03*
X309449Y72146D03*
G54D18*
X74000Y200000D03*
X84000D03*
X94000D03*
X104000D03*
X120000Y10000D03*
X110000D03*
X114000Y200000D03*
X124000D03*
X140000Y10000D03*
X130000D03*
X134000Y200000D03*
X150000Y10000D03*
X144000Y200000D03*
X154000D03*
X170000Y10000D03*
X160000D03*
X164000Y200000D03*
X180000Y10000D03*
Y200000D03*
X190000D03*
X200000Y10000D03*
Y200000D03*
X220000Y10000D03*
X210000D03*
Y200000D03*
X220000D03*
X240000Y10000D03*
X230000D03*
Y200000D03*
X240000D03*
X250000Y10000D03*
Y200000D03*
X309449Y92815D03*
G54D19*
X254035Y97441D03*
Y102441D03*
Y107441D03*
Y112441D03*
Y117441D03*
X259035Y97441D03*
Y102441D03*
Y107441D03*
Y112441D03*
Y117441D03*
X309449Y113484D03*
M02*
