G04 ================== begin FILE IDENTIFICATION RECORD ==================*
G04 Layout Name:  Netduino3Ethernet_17Dec16.brd*
G04 Film Name:    L1-TOP*
G04 File Format:  Gerber RS274X*
G04 File Origin:  Cadence Allegro 16.6-2015-S069*
G04 Origin Date:  Sat Dec 17 09:35:35 2016*
G04 *
G04 Layer:  ETCH/TOP*
G04 Layer:  PIN/TOP*
G04 Layer:  VIA CLASS/TOP*
G04 *
G04 Offset:    (0.0000 0.0000)*
G04 Mirror:    No*
G04 Mode:      Positive*
G04 Rotation:  0*
G04 FullContactRelief:  No*
G04 UndefLineWidth:     0.1270*
G04 ================== end FILE IDENTIFICATION RECORD ====================*
%FSLAX25Y25*MOIN*%
%IR0*IPPOS*OFA0.00000B0.00000*MIA0B0*SFA1.00000B1.00000*%
%ADD59R,.007874X.047244*%
%ADD65R,.011811X.047244*%
%ADD60R,.047244X.007874*%
%ADD64R,.047244X.011811*%
%ADD57R,.047244X.023622*%
%ADD35R,.027559X.047244*%
%ADD33R,.03937X.031496*%
%ADD21R,.05315X.015748*%
%ADD53R,.037402X.03937*%
%ADD39R,.017323X.045276*%
%ADD47R,.045276X.017323*%
%ADD38R,.024803X.045276*%
%ADD26R,.03937X.037402*%
%ADD46R,.045276X.024803*%
%ADD70R,.094488X.029921*%
%ADD69C,.035433*%
%ADD27C,.021654*%
%ADD54R,.023622X.023622*%
%ADD42R,.065748X.029921*%
%ADD15C,.026*%
%ADD34R,.03937X.047244*%
%ADD28R,.047244X.047244*%
%ADD12R,.082677X.043307*%
%ADD37R,.11811X.062992*%
%ADD32R,.03937X.110236*%
%ADD24R,.059055X.055118*%
%ADD22R,.045276X.055118*%
%ADD11R,.070866X.086614*%
%ADD62R,.129921X.045276*%
%ADD45R,.051181X.074803*%
%ADD50R,.015748X.023622*%
%ADD25C,.03937*%
%ADD63R,.023622X.015748*%
%ADD16R,.015748X.027559*%
%ADD52R,.045276X.057087*%
%ADD41R,.070866X.045276*%
%ADD20R,.011811X.017717*%
%ADD61R,.074803X.102362*%
%ADD56R,.017717X.011811*%
%ADD36R,.057087X.045276*%
%ADD51R,.088583X.070866*%
%ADD30R,.035433X.015748*%
%ADD58R,.09252X.088583*%
%ADD23R,.068898X.041339*%
%ADD13R,.066929X.052165*%
%ADD44R,.244094X.228346*%
%ADD19R,.023622X.025591*%
%ADD67R,.017717X.01378*%
%ADD18R,.025591X.023622*%
%ADD68R,.009843X.029528*%
%ADD66R,.01378X.029528*%
%ADD31R,.029528X.009843*%
%ADD10C,.000004*%
%ADD29R,.029528X.01378*%
%ADD17C,.100394*%
%ADD43C,.072835*%
%ADD14R,.037402X.031496*%
%ADD40C,.062598*%
%ADD55R,.018X.015*%
%ADD49R,.072835X.072835*%
%ADD48R,.015X.018*%
%ADD71R,.035402X.037402*%
%ADD72C,.007874*%
%ADD73C,.011811*%
%ADD74C,.015748*%
%ADD75C,.019685*%
%ADD76C,.023622*%
%ADD77C,.005906*%
%ADD78C,.009843*%
%ADD79C,.027559*%
%ADD80C,.031496*%
%ADD81C,.007087*%
%ADD82C,.01*%
%ADD83C,.029921*%
%ADD84C,.092535*%
G75*
%LPD*%
G75*
G36*
G01X1969Y1969D02*
Y28020D01*
G02X4717Y29057I1570J0D01*
G03X11926Y28117I4141J3643D01*
G02X14328Y27169I873J-1305D01*
G01X23956Y17542D01*
X28039D01*
X28254Y17098D01*
G03Y22318I5408J2610D01*
G01X28039Y21874D01*
X25750D01*
X18702Y28922D01*
Y40070D01*
X9914Y48858D01*
Y51771D01*
X12276D01*
Y62402D01*
X1969D01*
Y73021D01*
X9253D01*
Y73119D01*
X14960D01*
Y69704D01*
X18130Y66535D01*
X21653D01*
Y65649D01*
X29528D01*
Y69684D01*
X29627D01*
Y74017D01*
X21554D01*
Y73229D01*
X17717D01*
Y76269D01*
X19587D01*
Y82962D01*
X20080D01*
Y88208D01*
X24212D01*
Y85432D01*
X26377D01*
Y85039D01*
X27245Y84170D01*
X27294Y83945D01*
G03X27996Y82733I2233J483D01*
G02X27931Y80347I-1052J-1165D01*
G03X28843Y76709I1301J-1607D01*
G02X30101Y75393I-296J-1542D01*
G01X32046D01*
Y65081D01*
G02X30176Y63540I-1570J0D01*
G03X27880Y62697I-452J-2319D01*
G01X27644Y62402D01*
X19220D01*
Y51771D01*
X28276D01*
Y54724D01*
X33661D01*
G03Y59450I0J2363D01*
G01X32087D01*
Y61220D01*
G03X32084Y61343I-2363J1D01*
G02X33652Y62995I1568J82D01*
G01X37954D01*
Y64319D01*
X42920Y69286D01*
G02X44025Y69291I555J-555D01*
G03X44332Y69043I1447J1477D01*
G01X44684Y68810D01*
Y57875D01*
X43306D01*
Y51180D01*
X44684D01*
Y37401D01*
X49015D01*
Y32678D01*
X43306D01*
Y27558D01*
X49015D01*
Y20276D01*
X43306D01*
Y11261D01*
G02X40781Y10015I-1570J0D01*
G03X35261Y4494I-2396J-3125D01*
G02X34015Y1969I-1246J-955D01*
G01X1969D01*
G37*
G36*
G01X8858Y111417D02*
X13583D01*
Y108268D01*
X5315D01*
Y118504D01*
X8858D01*
Y111417D01*
G37*
G36*
G01X22638Y75591D02*
Y85433D01*
X24212D01*
Y85432D01*
X25983D01*
X26575Y84841D01*
Y75591D01*
X22638D01*
G37*
G36*
G01X185755Y31003D02*
Y27681D01*
X195206D01*
Y32602D01*
X198450D01*
X199706Y33859D01*
X200963Y32602D01*
X202684D01*
Y27681D01*
X212135D01*
Y31003D01*
X215946D01*
Y33544D01*
G02X217444Y35112I1570J0D01*
G03X219386Y36818I-94J2066D01*
G02X220932Y38115I1546J-273D01*
G01X221385D01*
Y42519D01*
X224999D01*
Y34645D01*
X228559D01*
X228725Y34081D01*
G03X232776Y34665I1983J584D01*
G01Y35452D01*
X236123D01*
Y41320D01*
X233170D01*
Y44068D01*
G02X234510Y44623I785J0D01*
G01X235374Y43759D01*
X262976D01*
X271205Y35531D01*
X274157D01*
X276047Y33641D01*
X277952D01*
Y27243D01*
X289371D01*
Y28193D01*
X291044Y29866D01*
Y33415D01*
X292013Y33817D01*
X292189Y33641D01*
X293306D01*
Y27243D01*
X305118D01*
Y6890D01*
X300197Y1969D01*
X265198D01*
G02X263952Y4494I0J1570D01*
G03X257702I-3125J2396D01*
G02X256456Y1969I-1246J-955D01*
G01X42757D01*
G02X41511Y4494I0J1570D01*
G03X42310Y6563I-3125J2395D01*
G01X42370Y7283D01*
X49213D01*
Y16731D01*
X51772D01*
Y45472D01*
X84646D01*
Y51772D01*
X51771D01*
Y46654D01*
X47639D01*
Y51180D01*
X49213D01*
Y57875D01*
X47639D01*
Y62641D01*
G02X49635Y64152I1570J0D01*
G03X51934Y65021I562J1990D01*
G02X54364Y65280I1319J-851D01*
G01X56843Y62801D01*
X56803Y62427D01*
G03X60137Y60580I2056J-222D01*
G01X60685Y61011D01*
X65102Y56594D01*
X84787D01*
X104276Y37106D01*
X113638D01*
X113991Y37459D01*
X114960Y37057D01*
Y32106D01*
X117243Y29822D01*
Y13716D01*
G03X116078Y12454I2757J-3716D01*
G01X114627Y12870D01*
Y14627D01*
X105373D01*
Y5373D01*
X114650D01*
G02X117160Y6347I1547J-266D01*
G03X123733Y7267I2840J3653D01*
G02X126267I1267J-928D01*
G03X133733I3733J2733D01*
G02X136267I1267J-928D01*
G03X143733I3733J2733D01*
G02X146267I1267J-928D01*
G03Y12733I3733J2733D01*
G02X143733I-1267J928D01*
G03X142757Y13716I-3733J-2733D01*
G01Y32381D01*
X141833Y33305D01*
X142530Y34002D01*
X142723Y34058D01*
G03X144681Y36329I-773J2646D01*
G01X144774Y37007D01*
X158690D01*
X160667Y38984D01*
G02X162007Y38429I555J-555D01*
G01Y37991D01*
X164569D01*
Y34602D01*
X161564D01*
Y30831D01*
X165961D01*
X167755Y29037D01*
X169655D01*
G02X170870Y28462I0J-1570D01*
G03X173960Y25886I2359J-313D01*
G01X176520Y23326D01*
X185963D01*
G02X187527Y21618I0J-1570D01*
G03X191149Y20083I2060J-181D01*
G01X191384Y20354D01*
X245634D01*
X247780Y18208D01*
X261785D01*
X262020Y17937D01*
G03X264889Y20894I1562J1354D01*
G02X264942Y23371I991J1217D01*
G03X258215Y21926I-4942J6629D01*
G01X258831Y21790D01*
Y20375D01*
X254392D01*
G02X252836Y21734I0J1570D01*
G03X250640Y23519I-2049J-277D01*
G01X250283Y23494D01*
X248283Y25493D01*
X177417D01*
X175492Y27418D01*
G03X175575Y28542I-2264J731D01*
G01X179209Y32176D01*
G02X181889Y31065I1110J-1110D01*
G01Y31003D01*
X185755D01*
G37*
G36*
G01X37954Y71174D02*
Y73333D01*
X39029Y74409D01*
X39072D01*
X40056Y75393D01*
X45699D01*
X45831Y75344D01*
G03X46654Y75196I822J2215D01*
G01X47637D01*
Y74357D01*
G02X45810Y72807I-1570J0D01*
G03X43910Y72122I-338J-2040D01*
G01X43675Y71851D01*
X42421D01*
X40634Y70064D01*
G02X37954Y71174I-1110J1110D01*
G37*
G36*
G01X36812Y77386D02*
Y82087D01*
X33305D01*
G02X31767Y83971I0J1570D01*
G03X31651Y85273I-2239J457D01*
G01X31460Y85753D01*
X32380Y86673D01*
X33050Y86003D01*
G03X33858Y85669I808J808D01*
G01X35316D01*
X36486Y86839D01*
Y88208D01*
X37856D01*
X42284Y92637D01*
Y94823D01*
X48700Y101239D01*
X48702D01*
X50533Y103070D01*
X55905D01*
Y96162D01*
X47539D01*
Y82578D01*
X48031D01*
Y79922D01*
X46654D01*
G03X46651I-1J-2363D01*
G02X45080Y81492I-2J1570D01*
G01Y82087D01*
X38385D01*
Y77064D01*
X38152Y76831D01*
G02X36812Y77386I-555J555D01*
G37*
G36*
G01X229754Y136954D02*
G02X227770Y137148I-874J1304D01*
G01X219360Y145558D01*
X219385Y145916D01*
G03X215548Y147125I-2063J147D01*
G02X213091Y146821I-1347J806D01*
G01X212107Y147805D01*
Y159669D01*
G02X214316Y161104I1570J0D01*
G03X215305Y160930I842J1888D01*
G01X215662Y160955D01*
X218252Y158365D01*
X235291D01*
X244233Y167307D01*
Y168897D01*
X246497D01*
Y175591D01*
X239802D01*
Y168897D01*
X240863D01*
G02X241418Y167557I0J-785D01*
G01X234394Y160532D01*
X219150D01*
X217194Y162487D01*
X217220Y162845D01*
G03X215905Y164920I-2063J147D01*
G02X215362Y167494I567J1464D01*
G01X227461Y179594D01*
Y181274D01*
X227732Y181508D01*
G03X228435Y183274I-1354J1562D01*
G02X229998Y184999I1562J155D01*
G01X239878D01*
X240637Y185758D01*
X240994Y185733D01*
G03X242715Y189137I147J2062D01*
G02X242799Y191267I1195J1019D01*
G01X246906Y195373D01*
X254627D01*
Y204627D01*
X245350D01*
G02X242840Y203653I-1547J266D01*
G03X236267Y202733I-2840J-3653D01*
G02X233733I-1267J928D01*
G03X226267I-3733J-2733D01*
G02X223733I-1267J928D01*
G03X216267I-3733J-2733D01*
G02X213733I-1267J928D01*
G03X206267I-3733J-2733D01*
G02X203733I-1267J928D01*
G03X196267I-3733J-2733D01*
G02X193733I-1267J928D01*
G03X186267I-3733J-2733D01*
G02X183733I-1267J928D01*
G03X175778Y198108I-3733J-2733D01*
G01X175999Y197615D01*
X167165Y188780D01*
Y186740D01*
G02X165824Y186185I-785J0D01*
G01X165143Y186867D01*
Y195373D01*
X168627D01*
Y204627D01*
X159350D01*
G02X156840Y203653I-1547J266D01*
G03X150267Y202733I-2840J-3653D01*
G02X147733I-1267J928D01*
G03X140267I-3733J-2733D01*
G02X137733I-1267J928D01*
G03X130267I-3733J-2733D01*
G02X127733I-1267J928D01*
G03X120267I-3733J-2733D01*
G02X117733I-1267J928D01*
G03Y197267I-3733J-2733D01*
G02X120267I1267J-928D01*
G03X127733I3733J2733D01*
G02X130267I1267J-928D01*
G03X137733I3733J2733D01*
G02X140267I1267J-928D01*
G03X145941Y195800I3733J2733D01*
G01X146438Y196030D01*
X159940Y182528D01*
Y175887D01*
X156497D01*
Y176969D01*
X147046D01*
Y172048D01*
X146361D01*
X143406Y169093D01*
X140450Y172048D01*
X139568D01*
Y176969D01*
X132231D01*
X132181Y177700D01*
G03X132166Y177846I-2063J-145D01*
G01X132158Y177900D01*
Y178739D01*
X139272D01*
Y184646D01*
X127136D01*
G02X125989Y183724I-1443J619D01*
G03X124316Y181849I389J-2031D01*
G01X124294Y181559D01*
X122854Y180119D01*
X121654D01*
Y181005D01*
X113779D01*
Y174981D01*
X112991Y174193D01*
Y173758D01*
X112802Y173537D01*
G03X112303Y172157I1569J-1347D01*
G01Y171359D01*
X103070D01*
Y170257D01*
X101574D01*
X86146Y154828D01*
G02X83465Y155938I-1110J1110D01*
G01Y161201D01*
X79410Y165257D01*
X78032D01*
Y171359D01*
X69487D01*
Y170257D01*
X67914D01*
X63760Y174410D01*
X54026D01*
X53810Y174848D01*
G03X52985Y175984I-3692J-1817D01*
G02X54078Y178680I1094J1126D01*
G01X71751D01*
Y178149D01*
X81398D01*
Y178680D01*
X83209D01*
X84410Y179881D01*
Y180723D01*
X84665Y180956D01*
G03X84957Y181288I-1398J1523D01*
G02X87350Y181492I1283J-906D01*
G01X89106Y179736D01*
X88698Y179191D01*
G03X92383Y178352I1656J-1239D01*
G02X93403Y180136I1541J303D01*
G03X92873Y184148I-686J1950D01*
G01X92583Y184170D01*
X88760Y187993D01*
X61430D01*
X60273Y189149D01*
G02X61163Y191814I1110J1110D01*
G03X67636Y196828I-1162J8186D01*
G02X70331Y197181I1450J-602D01*
G03X77733Y197267I3669J2819D01*
G02X80267I1267J-928D01*
G03X87733I3733J2733D01*
G02X90267I1267J-928D01*
G03Y202733I3733J2733D01*
G02X87733I-1267J928D01*
G03X80267I-3733J-2733D01*
G02X77733I-1267J928D01*
G03X70331Y202819I-3733J-2733D01*
G02X67636Y203172I-1245J956D01*
G03X66483Y205133I-7636J-3173D01*
G02X67714Y207677I1231J974D01*
G01X256456D01*
G02X257702Y205152I0J-1570D01*
G03X263952I3125J-2396D01*
G02X265198Y207677I1246J955D01*
G01X300197D01*
X305118Y202756D01*
Y182757D01*
X303338D01*
G02X301769Y184400I0J1570D01*
G03X296262I-2754J128D01*
G02X294694Y182757I-1568J-73D01*
G01X293406D01*
Y186276D01*
X291801Y187881D01*
X291826Y188239D01*
G03X287754Y188870I-2062J147D01*
G01X287609Y188269D01*
X277456D01*
X262696Y173509D01*
Y168559D01*
X231410Y137273D01*
X231053Y137299D01*
G03X229754Y136954I-147J-2063D01*
G37*
G36*
G01X65714Y62955D02*
X63240Y65429D01*
G02X64350Y68109I1110J1110D01*
G01X65590D01*
Y66850D01*
X68144Y64295D01*
G02X67589Y62955I-555J-555D01*
G01X65714D01*
G37*
G36*
G01X70669Y75591D02*
Y103070D01*
X73847D01*
X74144Y102773D01*
X109507D01*
X109661Y102928D01*
X110630Y102526D01*
Y90157D01*
X121260D01*
Y83465D01*
X110630D01*
Y80117D01*
X110548Y79953D01*
G03Y78118I1853J-917D01*
G01X110630Y77954D01*
Y75591D01*
X70669D01*
G37*
G36*
G01X76118Y107539D02*
X75683Y107973D01*
X70867D01*
Y113879D01*
X61457D01*
Y119192D01*
X70867D01*
Y121062D01*
X72735D01*
Y109743D01*
X80414D01*
Y112794D01*
X84942D01*
Y112906D01*
G02X86282Y113461I785J0D01*
G01X89094Y110649D01*
X89960D01*
Y109802D01*
X104135D01*
Y110649D01*
X105598D01*
X108065Y113115D01*
X110885D01*
Y118137D01*
G02X112857Y119655I1570J0D01*
G03X112996Y119623I530J1999D01*
G02X114271Y118081I-296J-1542D01*
G01Y110729D01*
X110575D01*
X107384Y107539D01*
X76118D01*
G37*
G36*
G01X117979Y42900D02*
G02X117424Y44240I0J785D01*
G01X117639Y44454D01*
Y55806D01*
X121259D01*
Y54941D01*
X123444Y52755D01*
X126377D01*
Y51968D01*
X133072D01*
Y56300D01*
X126576D01*
Y59448D01*
X133072D01*
Y63780D01*
X132875D01*
Y68208D01*
X140847D01*
Y69778D01*
G02X142299Y71344I1570J0D01*
G03X142640Y71396I-172J2278D01*
G01X142727Y71416D01*
X143602D01*
Y70417D01*
X146968Y67051D01*
G02X145857Y64371I-1110J-1110D01*
G01X143897D01*
Y63780D01*
X137007D01*
Y59448D01*
X143897D01*
Y57873D01*
X157691D01*
Y57047D01*
X157687Y57006D01*
G03X157677Y56719I2056J-217D01*
G01X157678Y56705D01*
Y55906D01*
X144306D01*
X144109Y56103D01*
X143873D01*
Y56472D01*
X136835D01*
Y51796D01*
X137204D01*
Y51153D01*
X136642D01*
Y42941D01*
X136909D01*
Y42900D01*
X117979D01*
G37*
G36*
G01X119094Y45079D02*
Y49213D01*
X126378D01*
Y51575D01*
X126575Y51772D01*
X133071D01*
Y51968D01*
X133072D01*
Y56300D01*
X133071D01*
Y56890D01*
X127559D01*
Y58661D01*
X127756Y58858D01*
X133071D01*
Y59448D01*
X133072D01*
Y62008D01*
X137007D01*
Y59448D01*
X137008D01*
Y56300D01*
X137007D01*
Y52755D01*
X134843Y50591D01*
Y45079D01*
X119094D01*
G37*
G36*
G01X117520Y65200D02*
G02X119517Y66711I1570J0D01*
G03X121641Y67346I562J1990D01*
G01X121876Y67617D01*
X122857D01*
X125121Y69882D01*
X129625D01*
Y68208D01*
X131890D01*
Y60630D01*
X125000D01*
Y57480D01*
X118898D01*
Y60630D01*
X117520D01*
Y65200D01*
G37*
G36*
G01X105513Y65355D02*
Y68503D01*
X110137D01*
Y68449D01*
X111362Y67224D01*
X112310D01*
G02X112865Y65883I0J-785D01*
G01X112337Y65355D01*
X105513D01*
G37*
G36*
G01X111615Y102757D02*
Y104881D01*
X112638Y105905D01*
X126087D01*
G02X127657Y104333I0J-1570D01*
G03X127717Y103835I2068J-2D01*
G02X126452Y103045I-762J-188D01*
G03X123715Y102968I-1325J-1587D01*
G01X123488Y102757D01*
X111615D01*
G37*
G36*
G01X112406Y133428D02*
X113091Y134113D01*
Y140413D01*
X115619D01*
Y135123D01*
X115910D01*
Y134207D01*
X115868Y134084D01*
G03X115761Y133553I1957J-668D01*
G02X114195Y132087I-1567J105D01*
G01X112961D01*
G02X112406Y133428I0J785D01*
G37*
G36*
G01X113702Y143997D02*
X113347Y144351D01*
Y148359D01*
X115480Y150491D01*
X123524D01*
Y151574D01*
X125075D01*
G03X125760Y150953I1697J1182D01*
G02X126160Y150242I-384J-685D01*
G03X127744Y148163I2067J-69D01*
G01X128346Y148019D01*
Y145434D01*
X125828D01*
X124391Y143997D01*
X113702D01*
G37*
G36*
G01X137601Y101232D02*
X135609Y103224D01*
G02X136719Y105905I1110J1110D01*
G01X141331D01*
G02X142864Y103993I0J-1570D01*
G03X142829Y103791I2018J-449D01*
G01X142746Y103099D01*
X138755D01*
Y101232D01*
X137601D01*
G37*
G36*
G01X127855Y110729D02*
Y111553D01*
G02X129215Y113109I1570J0D01*
G03Y117206I-278J2049D01*
G02X127863Y118603I211J1556D01*
G01X126280D01*
Y123770D01*
G03X126315Y123798I-1283J1622D01*
G01X128346D01*
Y122440D01*
X130550D01*
Y120787D01*
X131807Y119530D01*
X131793Y119184D01*
G03X133418Y117074I2066J-90D01*
G02X134607Y115163I-335J-1534D01*
G03X138681Y114738I2007J-497D01*
G01X138680Y114752D01*
Y115550D01*
X140847D01*
Y114752D01*
X140847Y114738D01*
G03X141212Y113491I2066J-72D01*
G02X141030Y111488I-1292J-892D01*
G01X140271Y110729D01*
X127855D01*
G37*
G36*
G01X135040Y122245D02*
Y124970D01*
G02X136315Y126513I1570J0D01*
G03X135853Y130610I-389J2031D01*
G02X135040Y131394I-28J785D01*
G01Y132060D01*
X135558Y132578D01*
X137156D01*
G03X137083Y135040I1624J1280D01*
G01X135040D01*
Y136934D01*
G02X136442Y138495I1570J0D01*
G03X138011Y141585I-222J2056D01*
G02X138065Y142452I680J393D01*
G03X136527Y145766I-1648J1249D01*
G02X135040Y147333I83J1568D01*
G01Y148820D01*
X132875D01*
Y150120D01*
X131320Y151675D01*
Y154650D01*
X133318D01*
Y155511D01*
X135235D01*
Y149015D01*
X137974D01*
G02X139541Y147354I0J-1570D01*
G03X142654Y145451I2064J-120D01*
G01X143177Y145758D01*
X144209Y144726D01*
X144194Y144381D01*
G03X146539Y142243I2066J-90D01*
G02X148321Y140687I212J-1556D01*
G01Y135173D01*
X142167Y129019D01*
X141822Y129034D01*
G03X140074Y125733I-90J-2066D01*
G02X139966Y124676I-629J-469D01*
G03X139308Y123519I1372J-1547D01*
G02X137766Y122245I-1542J296D01*
G01X135040D01*
G37*
G36*
G01X129069Y158420D02*
X129013Y158476D01*
Y161594D01*
X129423Y162004D01*
Y162398D01*
X129709Y162634D01*
G03X130456Y164048I-1313J1598D01*
G01X130520Y164763D01*
X134153D01*
Y158420D01*
X129069D01*
G37*
G36*
G01X138189Y44291D02*
Y55118D01*
X143701D01*
X144094Y54724D01*
X157677D01*
Y50591D01*
X153543D01*
X153011Y50058D01*
X152831D01*
X149409Y46636D01*
Y45275D01*
X148425Y44291D01*
X138189D01*
G37*
G36*
G01X157185Y99749D02*
G02X154790Y99956I-1110J1110D01*
G03X152552Y100762I-1692J-1189D01*
G02X150567Y102276I-415J1514D01*
G01Y103099D01*
X149485D01*
Y103547D01*
X148467Y104565D01*
G02X149022Y105905I555J555D01*
G01X159489D01*
X166277Y112693D01*
G02X167617Y112138I555J-555D01*
G01Y111613D01*
X169852D01*
G02X171394Y110339I0J-1570D01*
G03X173269Y108667I2031J389D01*
G01X173559Y108644D01*
X174011Y108193D01*
X174731D01*
Y106224D01*
X186976D01*
Y106094D01*
X187879Y105190D01*
X187930Y104971D01*
G03X187979Y104794I2014J470D01*
G01X188018Y104676D01*
Y103765D01*
X172765D01*
Y104257D01*
X166070D01*
Y100493D01*
X157929D01*
X157185Y99749D01*
G37*
G36*
G01X150606Y140444D02*
G02X153287Y141554I1570J0D01*
G01X155550Y139291D01*
Y137584D01*
X155296Y137351D01*
G03X155869Y133930I1397J-1524D01*
G02X156676Y131849I-626J-1440D01*
G03X158710Y128941I1887J-845D01*
G01X159068Y128967D01*
X160826Y127209D01*
Y122245D01*
X151210D01*
G02X149669Y123519I0J1570D01*
G03X149556Y123903I-2031J-389D01*
G02X150320Y125900I1456J587D01*
G03X147344Y127666I-911J1856D01*
G01X147359Y127321D01*
X146338Y126300D01*
X146324D01*
X144468Y124443D01*
Y124431D01*
X144008Y123971D01*
X143272D01*
X143038Y124308D01*
G03X142996Y124366I-1699J-1178D01*
G01X142841Y124835D01*
X143105Y125422D01*
G03X143798Y127058I-1372J1547D01*
G01X143783Y127404D01*
X150606Y134227D01*
Y140444D01*
G37*
G36*
G01X145867Y155709D02*
Y161713D01*
X145575D01*
G02X145020Y163054I0J785D01*
G01X145276Y163310D01*
Y167621D01*
X145706Y168051D01*
G02X147046Y167496I555J-555D01*
G01Y164763D01*
X156497D01*
Y167814D01*
X160237D01*
Y170435D01*
G02X162917Y171546I1570J0D01*
G01X163893Y170570D01*
X164243D01*
G02X165657Y168319I0J-1570D01*
G03X165489Y167811I1863J-897D01*
G02X163947Y166536I-1542J296D01*
G01X161712D01*
Y157383D01*
X157070D01*
X157024Y158119D01*
G03X155000Y160059I-2064J-127D01*
G02X153460Y161629I30J1570D01*
G01Y162334D01*
X149690D01*
Y155709D01*
X145867D01*
G37*
G36*
G01X195206Y34966D02*
Y39887D01*
X185755D01*
Y39076D01*
X181989D01*
Y39622D01*
X181663Y39948D01*
X181689Y40306D01*
G03X179054Y42440I-2063J147D01*
G01X178948Y42409D01*
X178052D01*
Y44118D01*
X179359D01*
Y45201D01*
X189003D01*
Y41461D01*
X196779D01*
Y38755D01*
X197637Y37896D01*
Y35132D01*
X197471Y34966D01*
X195206D01*
G37*
G36*
G01X177822Y126123D02*
G02X176264Y127890I0J1570D01*
G03X175275Y129924I-2051J259D01*
G01X174893Y130152D01*
Y133854D01*
X174081D01*
G02X172513Y135491I0J1570D01*
G03X172507Y135761I-2066J90D01*
G01X172504Y135795D01*
Y136615D01*
X173885D01*
Y141792D01*
G02X176565Y142902I1570J0D01*
G01X178446Y141022D01*
Y133885D01*
X179375Y132956D01*
Y129891D01*
X180463Y128804D01*
G02X179352Y126123I-1110J-1110D01*
G01X177822D01*
G37*
G36*
G01X193100Y51895D02*
G02X191575Y53839I0J1570D01*
G03X190059Y56339I-2008J492D01*
G01X189846Y56391D01*
X189135Y57102D01*
X189755Y57721D01*
Y63206D01*
G02X191793Y64705I1570J0D01*
G03X193556Y64957I617J1974D01*
G02X195537Y64761I871J-1307D01*
G01X200394Y59904D01*
G02X199839Y58564I-555J-555D01*
G01X199512D01*
X198660Y57712D01*
X198113Y58133D01*
G03X195131Y55347I-1263J-1637D01*
G02X194969Y54297I-653J-436D01*
G03X194192Y52681I1291J-1615D01*
G01Y51895D01*
X193100D01*
G37*
G36*
G01X206300Y39887D02*
Y45201D01*
X210361D01*
Y44394D01*
G03X210781Y43403I1379J0D01*
G01X210785Y43399D01*
X212664Y41521D01*
X212724Y41368D01*
G03X212863Y41095I1467J575D01*
G01X212986Y40902D01*
Y39887D01*
X206300D01*
G37*
G36*
G01X242127Y100099D02*
Y106989D01*
X237599D01*
Y111123D01*
X233267D01*
Y106694D01*
X232080D01*
X231859Y106883D01*
G03X229670Y107204I-1347J-1569D01*
G02X227461Y108638I-639J1434D01*
G01Y116002D01*
X229704Y118244D01*
X230216Y117974D01*
G03X231025Y117741I965J1829D01*
G01X231315Y117719D01*
X231791Y117243D01*
X233611D01*
Y116737D01*
X239381D01*
Y120507D01*
X233862D01*
G02X233307Y121847I0J785D01*
G01X233565Y122106D01*
X237800D01*
X244729Y129035D01*
X249183D01*
G02X250725Y127760I0J-1570D01*
G03X254319Y126795I2031J389D01*
G01X254553Y127066D01*
X259590D01*
X259825Y126832D01*
G02X259180Y124222I-1110J-1110D01*
G03X257711Y123456I1371J-4419D01*
G02X255201Y124430I-963J1240D01*
G01X245924D01*
Y115154D01*
G02X246898Y112643I-266J-1547D01*
G03X247818Y106070I3653J-2840D01*
G02Y103536I-928J-1267D01*
G03X246018Y100728I2733J-3733D01*
G01X245890Y100099D01*
X242127D01*
G37*
G36*
G01X254972Y84946D02*
X253415Y86503D01*
X253441Y86861D01*
G03X253426Y87294I-2063J146D01*
G01X253418Y87348D01*
Y88188D01*
X255169D01*
X255366Y88057D01*
G03X258414I1524J2297D01*
G01X258611Y88188D01*
X259179D01*
G02X260740Y86446I0J-1570D01*
G03X260739Y86442I2059J-189D01*
G02X259178Y85040I-1561J168D01*
G01X258611D01*
X258414Y85171D01*
G03X255496Y85252I-1524J-2297D01*
G01X254972Y84946D01*
G37*
G36*
G01X264181Y96934D02*
G03X263284Y103536I-3630J2869D01*
G02Y106070I928J1267D01*
G03X263479Y106220I-2728J3737D01*
G02X266043Y105005I993J-1216D01*
G01Y103613D01*
X272585Y97071D01*
G02X271475Y94391I-1110J-1110D01*
G01X265413D01*
G02X264181Y96934I0J1570D01*
G37*
G36*
G01X254284Y102536D02*
G03X253284Y103536I-3733J-2733D01*
G02Y106070I928J1267D01*
G03X254284Y107070I-2733J3733D01*
G02X256818I1267J-928D01*
G03X257818Y106070I3733J2733D01*
G02Y103536I-928J-1267D01*
G03X256818Y102536I2733J-3733D01*
G02X254284I-1267J928D01*
G37*
G36*
G01X299922Y52206D02*
Y53352D01*
X298090Y55184D01*
X298035Y55387D01*
G03X295426Y57426I-2662J-716D01*
G02X293886Y58996I30J1570D01*
G01Y61583D01*
X292028Y63441D01*
Y68281D01*
X292299Y68516D01*
G03X292950Y70585I-1354J1562D01*
G02X294472Y72539I1522J384D01*
G01X297406D01*
G02X299156Y73376I1408J-695D01*
G03Y77412I451J2018D01*
G02X297406Y78249I-342J1532D01*
G01X286617D01*
Y80754D01*
X286669Y80806D01*
X292603D01*
X295965Y84169D01*
Y89257D01*
X295383Y89839D01*
G02X296494Y92519I1110J1110D01*
G01X305118D01*
Y52206D01*
X299922D01*
G37*
G36*
G01X293209Y117481D02*
Y121512D01*
X292378Y122344D01*
G02X292209Y124365I1110J1110D01*
G03X292072Y126935I-1684J1199D01*
G02X292137Y129086I1175J1041D01*
G01X302461Y139411D01*
Y145724D01*
X293406Y154780D01*
Y157794D01*
X305118D01*
Y117481D01*
X303336D01*
G02X301768Y119138I0J1570D01*
G03X296263I-2752J153D01*
G02X294696Y117481I-1568J-87D01*
G01X293209D01*
G37*
%LPC*%
G75*
G36*
G01X299070Y8000D02*
G03X297425Y7184I-257J-1549D01*
G01X285434D01*
Y8897D01*
X283057D01*
X282824Y8642D01*
G02Y11437I-1524J1397D01*
G01X283057Y11182D01*
X285434D01*
Y12894D01*
X297425D01*
G03X299070Y12079I1388J734D01*
G02Y8000I339J-2040D01*
G37*
G36*
G01X95865Y16733D02*
X102954D01*
Y7283D01*
X95865D01*
Y8267D01*
X84054D01*
Y13583D01*
X95865D01*
Y16733D01*
G37*
G36*
G01X204650Y5373D02*
X195373D01*
Y14627D01*
X204650D01*
G03X207160Y13653I1547J266D01*
G02X213733Y12733I2840J-3653D01*
G03X216267I1267J928D01*
G02X223733I3733J-2733D01*
G03X226267I1267J928D01*
G02X233733I3733J-2733D01*
G03X236267I1267J928D01*
G02X243733I3733J-2733D01*
G03X246267I1267J928D01*
G02Y7267I3733J-2733D01*
G03X243733I-1267J-928D01*
G02X236267I-3733J2733D01*
G03X233733I-1267J-928D01*
G02X226267I-3733J2733D01*
G03X223733I-1267J-928D01*
G02X216267I-3733J2733D01*
G03X213733I-1267J-928D01*
G02X207160Y6347I-3733J2733D01*
G03X204650Y5373I-963J-1240D01*
G37*
G36*
G01X238229Y168883D02*
G03X236883Y167580I203J-1557D01*
G02X232802I-2041J333D01*
G03X231535Y168871I-1550J-253D01*
G01Y175591D01*
X238229D01*
Y168883D01*
G37*
G54D84*
X180000Y10000D03*
%LPD*%
G75*
G54D10*
X8858Y32700D03*
X19606Y133268D03*
Y177756D03*
X60000Y200000D03*
X260000Y30000D03*
Y140000D03*
G54D20*
X25787Y87303D03*
Y92618D03*
X29724Y87303D03*
X27756D03*
Y92618D03*
X29724D03*
G54D11*
X7748Y57087D03*
X23748D03*
G54D30*
X40551Y117913D03*
X31890D03*
Y120472D03*
X40551Y123031D03*
X31890D03*
G54D12*
X5709Y83356D03*
Y96348D03*
G54D21*
X16437Y84734D03*
Y87293D03*
Y89852D03*
Y92411D03*
Y94970D03*
G54D40*
X60118Y138031D03*
X50118Y143031D03*
X60118Y148031D03*
X50118Y153031D03*
X60118Y158031D03*
X50118Y163031D03*
X60118Y168031D03*
X50118Y173031D03*
G54D31*
X38583Y107480D03*
Y109449D03*
X43307D03*
Y107480D03*
X106890Y54134D03*
Y56102D03*
X111614D03*
Y54134D03*
X133047Y98177D03*
Y96209D03*
X128322D03*
Y98177D03*
X146654Y88780D03*
Y86811D03*
X141929D03*
Y88780D03*
X175591Y40354D03*
Y38386D03*
X170866D03*
Y40354D03*
X209055Y123819D03*
Y121850D03*
X204331D03*
Y123819D03*
G54D13*
X4921Y76614D03*
Y103091D03*
G54D22*
X16339Y80010D03*
Y99695D03*
G54D14*
X11811Y109843D03*
Y117323D03*
X19685Y113583D03*
G54D23*
X27165Y97638D03*
Y109449D03*
G54D41*
X66339Y122441D03*
Y110630D03*
X122047Y47244D03*
Y59055D03*
G54D50*
X108661Y70669D03*
X111220D03*
X113780D03*
Y63189D03*
X111220D03*
X108661D03*
X248425Y58858D03*
Y51378D03*
Y74606D03*
Y67126D03*
Y90354D03*
Y82874D03*
X250984Y58858D03*
X253543D03*
Y51378D03*
X250984D03*
X260236Y58858D03*
X262795D03*
Y51378D03*
X260236D03*
X250984Y74606D03*
X253543D03*
Y67126D03*
X250984D03*
X260236Y74606D03*
X262795D03*
Y67126D03*
X260236D03*
X250984Y90354D03*
X253543D03*
Y82874D03*
X250984D03*
X260236Y90354D03*
X262795D03*
Y82874D03*
X260236D03*
X265354Y58858D03*
Y51378D03*
Y74606D03*
Y67126D03*
Y90354D03*
Y82874D03*
G54D32*
X46260Y13780D03*
G54D51*
X117126Y86811D03*
Y98228D03*
G54D24*
X20866Y203217D03*
Y191406D03*
X48031Y203217D03*
Y191406D03*
G54D15*
X6693Y117126D03*
Y113780D03*
Y110433D03*
X24606Y80512D03*
Y77165D03*
Y83858D03*
X33661Y57087D03*
X29724D03*
Y61220D03*
X29528Y84428D03*
X54134Y77559D03*
X46654D03*
X50394D03*
X45079Y95276D03*
Y91535D03*
X51378Y100197D03*
X72835Y89567D03*
Y81693D03*
Y77756D03*
Y85630D03*
Y101378D03*
Y97441D03*
Y93504D03*
X76772Y89567D03*
Y77756D03*
Y85630D03*
Y81693D03*
Y101378D03*
Y97441D03*
Y93504D03*
X82677Y111692D03*
X76575Y108641D03*
X105315Y78013D03*
Y81693D03*
Y85630D03*
Y89567D03*
Y93504D03*
Y97441D03*
Y101378D03*
X122244Y37402D03*
X117717Y37205D03*
X121063Y63976D03*
X109252Y77756D03*
Y81693D03*
Y85630D03*
Y89567D03*
Y93504D03*
Y97441D03*
Y101378D03*
X137992Y37205D03*
X127953Y50000D03*
Y46457D03*
X135039Y57283D03*
Y53740D03*
Y60827D03*
X124803Y63976D03*
X126969Y67323D03*
X141950Y36704D03*
X147316Y45622D03*
X149289Y48405D03*
X144882Y47835D03*
X147441Y73622D03*
X142126D03*
X163386Y51161D03*
Y61438D03*
G54D42*
X73760Y133878D03*
Y138878D03*
Y143878D03*
Y148878D03*
Y153878D03*
Y158878D03*
Y163878D03*
Y168878D03*
X107343Y133878D03*
Y153878D03*
Y148878D03*
Y143878D03*
Y138878D03*
Y168878D03*
Y163878D03*
Y158878D03*
G54D33*
X46260Y30118D03*
G54D60*
X131693Y123819D03*
Y125394D03*
Y126969D03*
Y128543D03*
Y130118D03*
Y131693D03*
Y133268D03*
Y134843D03*
Y136417D03*
Y137992D03*
Y139567D03*
Y141142D03*
Y142717D03*
Y144291D03*
Y145866D03*
Y147441D03*
X165157Y136417D03*
Y134843D03*
Y133268D03*
Y131693D03*
Y130118D03*
Y128543D03*
Y126969D03*
Y125394D03*
Y123819D03*
Y147441D03*
Y145866D03*
Y144291D03*
Y142717D03*
Y141142D03*
Y139567D03*
Y137992D03*
G54D43*
X74000Y200000D03*
X84000D03*
X94000D03*
X104000D03*
X120000Y10000D03*
X114000Y200000D03*
X124000D03*
X140000Y10000D03*
X130000D03*
X134000Y200000D03*
X150000Y10000D03*
X144000Y200000D03*
X154000D03*
X170000Y10000D03*
X160000D03*
X180000D03*
Y200000D03*
X190000D03*
X200000D03*
X220000Y10000D03*
X210000D03*
Y200000D03*
X220000D03*
X230000Y10000D03*
Y200000D03*
X250000Y10000D03*
X240000D03*
X250551Y99803D03*
Y109803D03*
X240000Y200000D03*
X260551Y99803D03*
Y119803D03*
Y109803D03*
G54D61*
X134843Y170866D03*
X151772D03*
X190480Y33784D03*
X207409D03*
G54D52*
X117520Y114764D03*
X133071Y47047D03*
X124606Y114764D03*
X140157Y47047D03*
G54D16*
X9449Y198228D03*
Y193110D03*
X12205Y198228D03*
Y193110D03*
G54D25*
G01X117717Y37205D02*
Y33247D01*
X120000Y30964D01*
Y10000D01*
G01X122244Y37402D02*
X117913D01*
X117717Y37205D01*
G01X140000Y10000D02*
Y31239D01*
X137992Y33247D01*
Y37205D01*
G01X141950Y36704D02*
X141449Y37205D01*
X137992D01*
X38386Y6890D03*
X260827D03*
Y202756D03*
G54D34*
X46260Y54528D03*
X90157Y71457D03*
G54D70*
X283661Y29724D03*
Y34724D03*
Y39724D03*
Y44724D03*
Y49724D03*
Y95000D03*
Y100000D03*
Y105000D03*
Y110000D03*
Y115000D03*
Y160276D03*
Y165276D03*
Y170276D03*
Y175276D03*
Y180276D03*
X299016Y29724D03*
Y34724D03*
Y39724D03*
Y44724D03*
Y49724D03*
Y95000D03*
Y100000D03*
Y105000D03*
Y110000D03*
Y115000D03*
Y160276D03*
Y165276D03*
Y170276D03*
Y175276D03*
Y180276D03*
G54D80*
G01X23748Y57087D02*
X29724D01*
G01X27165Y109449D02*
X23031Y113583D01*
X19685D01*
G01X29724Y57087D02*
Y61220D01*
G01Y57087D02*
X33661D01*
G01X51378Y92913D02*
X50000Y91535D01*
X45079D01*
G01X54134Y77559D02*
X50394D01*
G01X46654D02*
X50394D01*
G01D02*
Y84843D01*
X51378Y85827D01*
G01D02*
X54583D01*
X60039Y80370D01*
X62795D01*
G01X45079Y95276D02*
Y91535D01*
G01X51378Y92913D02*
X54583D01*
X60039Y98370D01*
X62795D01*
G01X51378Y100197D02*
Y92913D01*
G01X117126Y98228D02*
Y104134D01*
G01D02*
X120472D01*
G01X113780D02*
X117126D01*
G54D71*
X294488Y10039D03*
X288189D03*
X294488Y75394D03*
X288189D03*
X294488Y140748D03*
X288189D03*
G54D17*
X24606Y32700D03*
X33661Y19708D03*
Y45692D03*
G54D44*
X91063Y89370D03*
G54D62*
X151378Y52657D03*
Y61122D03*
G54D26*
X35000Y65850D03*
Y72150D03*
G54D53*
X117126Y121654D03*
X123425D03*
X136417Y181693D03*
X130118D03*
X164567Y159449D03*
X170866D03*
G54D35*
X50000Y71457D03*
X53740D03*
X58071D03*
X62402D03*
X66732D03*
X71063D03*
X75394D03*
X79724D03*
X84055D03*
G54D81*
G01X9449Y193110D02*
Y189902D01*
X11752Y187598D01*
X26772D01*
X35217Y179154D01*
X48904D01*
X49574Y179823D01*
X74213D01*
G01X9449Y198228D02*
Y200405D01*
X10028Y200984D01*
X14370D01*
X16339Y199016D01*
X27559D01*
X41594Y184980D01*
X48091D01*
G01X25787Y89351D02*
X32696D01*
X33465Y88583D01*
Y87205D01*
X33858Y86811D01*
X34843D01*
X35344Y87312D01*
Y88868D01*
X35827Y89351D01*
X37382D01*
X41142Y93110D01*
Y95296D01*
X48227Y102382D01*
X48229D01*
X50059Y104213D01*
X74320D01*
X74617Y103916D01*
X109033D01*
X112165Y107047D01*
X159015D01*
X166142Y114174D01*
Y116076D01*
X173747Y123681D01*
X182480D01*
X183760Y122402D01*
Y119882D01*
G01X16437Y89852D02*
X20138D01*
X20639Y89351D01*
X25787D01*
G01D02*
Y87303D01*
G01X186319Y119882D02*
Y122402D01*
X183740Y124981D01*
X173209D01*
X172270Y124043D01*
Y124042D01*
X164843Y116614D01*
Y114712D01*
X158477Y108346D01*
X111627D01*
X108495Y105215D01*
X75156D01*
X74859Y105512D01*
X49520D01*
X48878Y104870D01*
Y104869D01*
X47691Y103681D01*
X47689D01*
X39842Y95834D01*
Y94759D01*
X39843Y94758D01*
Y93780D01*
X36752Y90689D01*
X25787D01*
G01X16437Y92411D02*
X20138D01*
X21860Y90689D01*
X25787D01*
G01D02*
Y92618D01*
G01X12205Y193110D02*
X14823D01*
X17854Y196142D01*
X26430D01*
X42119Y180453D01*
X48366D01*
X50295Y182382D01*
X74213D01*
G01X12205Y198228D02*
X14035D01*
X14823Y197441D01*
X26969D01*
X41929Y182480D01*
X46457D01*
G01X50197Y66142D02*
Y71260D01*
X50000Y71457D01*
G01X58071D02*
Y68051D01*
X60433Y65689D01*
X61365D01*
X65241Y61813D01*
X87137D01*
X103182Y45768D01*
X114469D01*
G01X53740Y71457D02*
Y67520D01*
X56870Y64389D01*
X60610D01*
X64486Y60513D01*
X86599D01*
X103372Y43740D01*
X115309D01*
X116496Y44928D01*
Y54239D01*
X114633Y56102D01*
X111614D01*
G01X75091Y63993D02*
X70062D01*
X66732Y67323D01*
Y71457D01*
G01X73858Y66991D02*
X75394Y68527D01*
Y71457D01*
G01X111614Y54134D02*
X114134D01*
X114764Y53504D01*
Y49790D01*
X112454Y47480D01*
X104626D01*
X84055Y68051D01*
Y71457D01*
G01X79724D02*
Y67913D01*
X80157Y67480D01*
Y65748D01*
G01X78937Y182382D02*
X82776D01*
X82874Y182480D01*
X83268D01*
G01D02*
Y180354D01*
X82736Y179823D01*
X78937D01*
G01X104068Y56168D02*
Y54134D01*
G01Y56168D02*
X104134Y56102D01*
X106890D01*
G01X103740Y56496D02*
X104068Y56168D01*
G01Y54134D02*
Y52678D01*
X104777Y51969D01*
X106890D01*
G01X104068Y54134D02*
X106890D01*
G01X111220Y63189D02*
Y60394D01*
X111614Y60000D01*
Y58268D01*
G01X115157Y58858D02*
X114567Y58268D01*
X111614D01*
G01X124409Y78937D02*
X120571D01*
X120472Y79035D01*
G01X131693Y142717D02*
X126563D01*
X125402Y141555D01*
X112598D01*
X111949Y140906D01*
Y134587D01*
X111024Y133661D01*
X107559D01*
X107343Y133878D01*
G01X125309Y134843D02*
X131693D01*
G01X112205Y143878D02*
X107343D01*
G01X131693Y144291D02*
X126301D01*
X124864Y142854D01*
X113228D01*
X112205Y143878D01*
G01X116634Y166142D02*
X116339D01*
X115010Y164813D01*
Y163179D01*
X115157Y163031D01*
Y151785D01*
X112205Y148832D01*
Y143878D01*
G01X116634Y168110D02*
X119291D01*
G01X113583Y167913D02*
Y169094D01*
X114567Y170079D01*
X116634D01*
G01X107343Y168878D02*
X111240D01*
X112205Y167913D01*
X113583D01*
G01X113076Y160486D02*
X111468Y158878D01*
X107343D01*
G01X122047Y59055D02*
X122638Y58465D01*
G01X124803Y98621D02*
X125395D01*
X125839Y98177D01*
X128322D01*
G01X125126Y101457D02*
X126241Y100343D01*
X128322D01*
G01X136614Y118898D02*
Y114665D01*
G01X131693Y123819D02*
Y121260D01*
X133858Y119094D01*
G01X125518Y137662D02*
X127644D01*
X127974Y137992D01*
X131693D01*
G01Y126969D02*
X127461D01*
G01X125000Y125394D02*
X125453Y124941D01*
X128301D01*
X128754Y125394D01*
X131693D01*
G01Y130118D02*
X128543D01*
X127832Y129407D01*
X125977D01*
G01X131693Y128543D02*
X135925D01*
G01X131693Y139567D02*
X127953D01*
X127351Y140169D01*
X126883D01*
G01X121949Y166142D02*
X124419D01*
X126339Y164222D01*
Y161718D01*
X125531Y160911D01*
Y156864D01*
X128799Y153596D01*
Y151916D01*
X128227Y151343D01*
Y150174D01*
G01X131693Y142717D02*
X135440Y142723D01*
X136417Y143701D01*
G01X125000Y169882D02*
X124803Y170079D01*
X121949D01*
G01X138165Y90008D02*
X139051Y90894D01*
X141878D01*
X141929Y90945D01*
G01Y84646D02*
X141878Y84594D01*
X139937D01*
X138559Y85972D01*
G01X141929Y86811D02*
X139397D01*
X138559Y85972D01*
G01X141929Y88780D02*
X139393D01*
X138165Y90008D01*
G01X146654Y84646D02*
X150148D01*
X151326Y83468D01*
G01X148401Y98768D02*
X153098D01*
G01X149213Y118898D02*
Y114665D01*
G01X147638Y118898D02*
Y123130D01*
G01X142913Y118898D02*
Y114665D01*
G01X141339Y118898D02*
Y123130D01*
G01X146063Y118898D02*
Y114665D01*
G01X144488Y118898D02*
Y122835D01*
X145610Y123957D01*
Y123970D01*
X146798Y125157D01*
X146811D01*
X149409Y127756D01*
G01X141732Y126969D02*
X149464Y134700D01*
Y147756D01*
X147638Y149582D01*
Y152362D01*
G01X141606Y147233D02*
X142913Y148541D01*
Y152362D01*
G01X146260Y144291D02*
X144488Y146063D01*
Y152362D01*
G01X149213D02*
Y149844D01*
X150952Y148106D01*
Y145505D01*
X156693Y139764D01*
Y135827D01*
G01X169020Y32089D02*
X170866Y33936D01*
Y36220D01*
G01X154486Y89703D02*
X154969Y89220D01*
X155032D01*
X155819Y88433D01*
X157653D01*
G01Y90992D02*
X155775D01*
X154486Y89703D01*
G01X159646Y136220D02*
X159843Y136417D01*
X165157D01*
G01Y141142D02*
X168992D01*
X169850Y142000D01*
G01X165157Y139567D02*
X168783D01*
X169850Y138500D01*
G01X165157Y137992D02*
X161756D01*
X161032Y138716D01*
G01X168307Y173622D02*
Y188307D01*
X180000Y200000D01*
G01X165331Y174150D02*
Y185063D01*
X164000Y186394D01*
Y200000D01*
G01X183760Y115157D02*
Y112894D01*
X184181Y112472D01*
Y109572D01*
G01X169850Y142000D02*
X170000Y142150D01*
Y143622D01*
X170500Y144122D01*
G01X200197Y54724D02*
X200591Y54331D01*
X201489D01*
X203866Y51954D01*
Y48548D01*
G01X189944Y105438D02*
X189247D01*
X188118Y106567D01*
Y109572D01*
G01X190087D02*
Y114047D01*
G01X186150Y109572D02*
Y112724D01*
X186319Y112894D01*
Y115157D01*
G01X205835Y48548D02*
Y53417D01*
X203740Y55512D01*
G01X207803Y48548D02*
Y54402D01*
G01X209772Y48548D02*
Y52653D01*
X210997Y53879D01*
Y53905D01*
G01X221850Y37717D02*
X223189D01*
X223819Y38346D01*
Y39606D01*
X223189Y40236D01*
X221850D01*
G01X230441Y92839D02*
X225861D01*
G01X234252Y37126D02*
X236102D01*
X237402Y38425D01*
G01X234252Y39646D02*
X236181D01*
G01D02*
X237402Y38425D01*
G01X248138Y48425D02*
X248161Y48448D01*
X248425D01*
Y51378D01*
G01Y67126D02*
X245866D01*
G01X248425Y85827D02*
Y82874D01*
G01X250984Y51378D02*
Y48228D01*
X250986D01*
G01X253543Y58858D02*
Y61811D01*
G01Y74606D02*
Y76969D01*
X252854Y77657D01*
X252711D01*
G01X253543Y90354D02*
Y88976D01*
X255709Y86811D01*
G01X283661Y100000D02*
X278599D01*
X277144Y98545D01*
Y96829D01*
G01X276378Y139370D02*
X283998D01*
X285376Y140748D01*
X288189D01*
G01X281299Y10039D02*
X288189D01*
G54D72*
G01X25000Y117323D02*
X25098D01*
X29035Y113386D01*
X30906D01*
X32283Y112008D01*
Y96063D01*
X34449Y93898D01*
G01X35000Y72150D02*
X35098D01*
X38539Y75591D01*
X38583D01*
X41732Y78740D01*
G01X38583Y105315D02*
Y102854D01*
G01X37205Y94685D02*
Y97244D01*
X43307Y103346D01*
Y105315D01*
G01X31890Y117913D02*
Y114567D01*
X34055Y112402D01*
Y110863D01*
X35433Y109485D01*
G01X38583Y107480D02*
X36220D01*
X35433Y108267D01*
Y109485D01*
G01D02*
X35469Y109449D01*
X38583D01*
G01X43307Y107480D02*
X45079D01*
X46850Y105709D01*
G01Y108858D02*
X46260Y109449D01*
X43307D01*
G01Y111614D02*
X45914D01*
X46850Y110678D01*
Y108858D01*
G01X124311Y162890D02*
X124193Y162772D01*
Y161398D01*
X123622Y160827D01*
X119685D01*
G01X126772Y152756D02*
X124606D01*
X123622Y153740D01*
X119685D01*
G01X131693Y131693D02*
X135925D01*
G01X131693Y136417D02*
X135925D01*
G01X131693Y133268D02*
X134577D01*
X135069Y133760D01*
X136516D01*
X136614Y133858D01*
X138780D01*
G01X131693Y145866D02*
X135039D01*
X136811Y147638D01*
G01X138189Y148974D02*
X136852Y147638D01*
X136811D01*
G01X129283Y156535D02*
Y155362D01*
X130138Y154507D01*
Y151186D01*
X131693Y149631D01*
Y147441D01*
G01X136614Y152362D02*
Y157480D01*
X136417Y157677D01*
G01X128397Y164231D02*
X128241Y164076D01*
Y162493D01*
X127831Y162083D01*
Y160174D01*
X127756Y160098D01*
Y158957D01*
X127831Y158881D01*
Y157987D01*
X129283Y156535D01*
G01X134843Y170866D02*
X139961D01*
X142717Y168110D01*
Y164370D01*
X140748Y162402D01*
Y160236D01*
X140157Y159646D01*
Y159449D01*
G01X128543Y173622D02*
X132087D01*
X134843Y170866D01*
G01X150787Y118898D02*
Y123130D01*
G01X138189Y118898D02*
Y123130D01*
G01X146063Y152362D02*
Y155955D01*
G01X138189Y152362D02*
Y148974D01*
G01X143701Y159449D02*
X143011Y158759D01*
Y156988D01*
X141339Y155315D01*
Y152362D01*
G01X140157Y159449D02*
X140748Y158858D01*
Y156890D01*
X139764Y155906D01*
Y152362D01*
G01X151772Y170866D02*
X146850D01*
X144094Y168110D01*
Y163799D01*
X143110Y162815D01*
Y160236D01*
X143701Y159646D01*
Y159449D01*
G01X158071Y173622D02*
X154528D01*
X151772Y170866D01*
G01X164173Y39764D02*
X163587Y39178D01*
Y37096D01*
G01X168307Y46063D02*
Y40945D01*
X168898Y40354D01*
X170866D01*
G01X156693Y44882D02*
X153642D01*
G01X168307Y46063D02*
X169094D01*
X170866Y44291D01*
Y42520D01*
G01X178937Y36220D02*
Y37992D01*
X178543Y38386D01*
X175591D01*
G01Y36220D02*
X178937D01*
G01X197961Y48548D02*
Y39244D01*
X198819Y38386D01*
Y34643D01*
X197961Y33784D01*
X190480D01*
G01X204134Y43701D02*
X203740Y43307D01*
Y41339D01*
X200787Y38386D01*
Y34449D01*
X201452Y33784D01*
X207409D01*
G01X199929Y48548D02*
Y44362D01*
X200591Y43701D01*
G01X243110Y71260D02*
Y67913D01*
G54D18*
X23819Y71850D03*
X25000Y120866D03*
Y117323D03*
X27362Y71850D03*
X82677Y118504D03*
Y114961D03*
X136417Y161220D03*
Y157677D03*
X169882Y113780D03*
X163976Y164370D03*
X167520D03*
X175591Y117520D03*
X179134D03*
X173425Y113780D03*
X191268Y43627D03*
X194811D03*
X230906Y43898D03*
X227362D03*
G54D36*
X51378Y85827D03*
Y92913D03*
X76575Y120079D03*
Y112992D03*
X119685Y153740D03*
Y160827D03*
X241142Y53543D03*
Y60630D03*
G54D63*
X148401Y101327D03*
Y98768D03*
Y96209D03*
X140921D03*
Y98768D03*
Y101327D03*
X164173Y42323D03*
Y39764D03*
X156693D03*
Y42323D03*
X164173Y44882D03*
X156693D03*
X197835Y120079D03*
X190354D03*
X197835Y125197D03*
Y122638D03*
X190354D03*
Y125197D03*
G54D45*
X99409Y12008D03*
G54D54*
X114764Y129921D03*
Y126378D03*
X124606Y177953D03*
Y174409D03*
X171654Y164567D03*
Y168110D03*
X227165Y36811D03*
Y40354D03*
G54D27*
X30413Y67913D03*
X30512Y71850D03*
X29232Y78740D03*
X38583Y102854D03*
X34449Y93898D03*
X37205Y94685D03*
X28248Y120472D03*
X50197Y66142D03*
X45472Y70768D03*
X46850Y105709D03*
Y108858D03*
X44685Y116732D03*
Y126575D03*
X48091Y184980D03*
X46457Y182480D03*
X62992Y66929D03*
X73858Y66991D03*
X58858Y62205D03*
X71016Y66728D03*
X75091Y63993D03*
X80157Y65748D03*
X90551Y79724D03*
X85630D03*
X80709D03*
X90551Y84646D03*
X85630D03*
X80709D03*
Y89567D03*
X85630D03*
X90551D03*
Y99409D03*
Y94488D03*
X85630Y99409D03*
X80709D03*
X85630Y94488D03*
X80709D03*
X83268Y182480D03*
X90354Y177953D03*
X103740Y60531D03*
X105118Y72441D03*
X96063Y68701D03*
X100394Y79724D03*
X95472D03*
X100394Y84646D03*
X95472D03*
X100394Y89567D03*
X95472D03*
X100394Y99409D03*
X95472D03*
X100394Y94488D03*
X95472D03*
X102185Y138878D03*
Y163878D03*
X92717Y182087D03*
X112500Y40354D03*
X111614Y49508D03*
X114469Y45768D03*
X107766Y66336D03*
X116339Y71063D03*
X115157Y58858D03*
X115161Y66647D03*
X120079Y68701D03*
X112402Y79035D03*
X120472Y104134D03*
X113780D03*
X117126D03*
X113189Y113189D03*
X112598Y117402D03*
X113386Y121654D03*
X121417Y133031D03*
X114492Y137008D03*
X108181Y123819D03*
X117824Y133415D03*
X119291Y168110D03*
X113583Y167913D03*
X113076Y160486D03*
X115945Y181890D03*
X119488D03*
X114370Y172190D03*
X123743Y76161D03*
X138165Y90008D03*
X124409Y78937D03*
X136393Y98177D03*
X131496Y91584D03*
X137968Y102117D03*
X125007Y95774D03*
X124803Y98621D03*
X125126Y101457D03*
X129724Y104331D03*
X123425Y92717D03*
X127559Y90945D03*
X127067Y122047D03*
X128937Y115157D03*
X136614Y114665D03*
X133858Y119094D03*
X135925Y136417D03*
Y131693D03*
X138189Y123130D03*
X125518Y137662D03*
X127461Y126969D03*
X125000Y125394D03*
X125977Y129407D03*
X135925Y128543D03*
X136811Y147638D03*
X126883Y140169D03*
X136417Y143701D03*
X128227Y150174D03*
X136220Y140551D03*
X126772Y152756D03*
X133661Y163780D03*
X129331Y166929D03*
X124311Y162890D03*
X125000Y169882D03*
X128397Y164231D03*
X130118Y177559D03*
X126378Y181693D03*
X153642Y44882D03*
X138559Y85972D03*
X152362Y87795D03*
X151326Y83468D03*
X151452Y96209D03*
X144882Y103543D03*
X153098Y98768D03*
X144291Y110433D03*
X149213Y114665D03*
X142913D03*
X146063D03*
X150787Y123130D03*
X138780Y133858D03*
X147638Y123130D03*
X141339D03*
X149409Y127756D03*
X141732Y126969D03*
X143110Y142520D03*
X141606Y147233D03*
X146260Y144291D03*
X139173Y163976D03*
X140157Y181693D03*
X163587Y37096D03*
X169020Y32089D03*
X167620Y37206D03*
X168307Y46063D03*
X161024Y44488D03*
X159744Y56791D03*
X164956Y65743D03*
X162008Y73720D03*
Y70866D03*
X164847Y74018D03*
X160236Y64961D03*
X154486Y89703D03*
X164292Y76818D03*
X162795Y79331D03*
X158352Y83577D03*
X163583Y85630D03*
X165157Y92913D03*
X154242Y95389D03*
X156978Y94574D03*
X164370Y97441D03*
X169882Y110728D03*
X157317Y114561D03*
X159055Y127362D03*
X158563Y131004D03*
X156693Y135827D03*
X159646Y136220D03*
X161032Y138716D03*
X154764Y161850D03*
X164567Y155610D03*
X163976Y167421D03*
X158071Y166929D03*
X167520Y167421D03*
X154961Y157992D03*
X168307Y173622D03*
X162992Y175787D03*
X165331Y174150D03*
X178937Y36220D03*
X184055Y40157D03*
X179626Y40453D03*
X173228Y28150D03*
X183858Y64173D03*
X173778Y81991D03*
X181102Y78937D03*
X177557Y86809D03*
X175548Y88838D03*
X173622Y84843D03*
X176575Y104724D03*
X173622Y90945D03*
X173551Y94882D03*
X172287Y117365D03*
X173425Y110728D03*
X181102Y121654D03*
X173974Y135474D03*
X174213Y128150D03*
X184449Y129134D03*
X170447Y135578D03*
X175000Y142500D03*
X170500Y145000D03*
X170866Y155610D03*
X182283Y171654D03*
X189587Y21437D03*
X194024Y54848D03*
X188118Y43627D03*
X196260Y52682D03*
X186150Y52780D03*
X196850Y56496D03*
X200197Y54724D03*
X189567Y54331D03*
X196457Y70079D03*
X193739Y69204D03*
X186703Y64411D03*
X192410Y66678D03*
X198562Y81706D03*
X198557Y89764D03*
X198423Y76994D03*
X201772Y80512D03*
X193504Y78937D03*
X195571Y76870D03*
X189944Y105438D03*
X196579Y101224D03*
X201604Y105438D03*
X186800Y99411D03*
X192913Y99409D03*
X189647Y99198D03*
X197598Y117520D03*
X190087Y114047D03*
X195039Y134843D03*
X190354Y128150D03*
X193307Y125984D03*
X194882Y123031D03*
X198819Y128543D03*
X197441Y147244D03*
X211220Y41339D03*
X217350Y37178D03*
X213709Y52780D03*
X211089Y56758D03*
X203740Y55512D03*
X207803Y54402D03*
X210997Y53905D03*
X205709Y74409D03*
X215871Y73942D03*
X207502Y89567D03*
X203740Y78150D03*
X212008Y82874D03*
X210236Y85433D03*
X216806Y79060D03*
X207744Y102868D03*
X211567Y96110D03*
X208465Y95276D03*
X214883Y93327D03*
X215748Y105315D03*
X204724Y100787D03*
X205752Y113706D03*
X202860Y113872D03*
X215945Y114370D03*
X213386Y121457D03*
X212269Y118136D03*
X209617Y117080D03*
X205118Y135236D03*
X217717Y125984D03*
X217323Y146063D03*
X215157Y162992D03*
X202559Y163976D03*
X216929Y182945D03*
X230709Y34665D03*
X222840Y69117D03*
X224769Y71221D03*
X219220Y72737D03*
X220398Y77091D03*
X225910Y82997D03*
X230512Y105315D03*
X225861Y92839D03*
X218110Y95669D03*
X230354Y109803D03*
X230945Y114803D03*
X231181Y119803D03*
X229331Y124803D03*
X219659Y131573D03*
X222835Y130821D03*
X230906Y135236D03*
X232015Y127237D03*
X226378Y183071D03*
X219614Y180976D03*
X222291Y178740D03*
X237402Y38425D03*
X248138Y48425D03*
X233957Y43841D03*
X239370Y49508D03*
X235236Y53150D03*
X245866Y67126D03*
X235236Y62992D03*
X239124Y64665D03*
X243110Y67913D03*
X234733Y68169D03*
X237246Y66815D03*
X248425Y85827D03*
X237402Y82087D03*
X238872Y79232D03*
X243715Y81541D03*
X234575Y79346D03*
X245656Y85134D03*
X245669Y75984D03*
X244489Y104724D03*
X244488Y101870D03*
X239829Y95866D03*
X237002Y95471D03*
X234843Y167913D03*
X241142Y187795D03*
X263583Y19291D03*
X250787Y21457D03*
X250986Y48228D03*
X253346Y55118D03*
X253543Y61811D03*
X250984Y71654D03*
X255118Y70866D03*
X252711Y77657D03*
X255709Y86811D03*
X262795Y86220D03*
X251378Y87008D03*
X252756Y128150D03*
X281299Y10039D03*
X271654Y42126D03*
X276983Y37022D03*
X276969Y45276D03*
X280512Y72441D03*
X279528Y86417D03*
X277144Y96829D03*
X276575Y100844D03*
Y121457D03*
X276378Y139370D03*
X271161Y176476D03*
X265748Y171063D03*
X292421Y38583D03*
X289653Y57286D03*
X290748Y43898D03*
X287795Y70276D03*
X290945Y70079D03*
X292913Y87992D03*
X291535Y84055D03*
X292520Y105000D03*
X281596Y125467D03*
X290524Y125564D03*
X289764Y188386D03*
X299409Y10039D03*
X299606Y75394D03*
X299409Y140748D03*
G54D82*
G01X46260Y26773D02*
Y30118D01*
G01D02*
Y33463D01*
G01X42521Y30118D02*
X46260D01*
G01X136417Y177954D02*
Y181693D01*
G01D02*
Y185431D01*
G01X151575Y160599D02*
Y163119D01*
G01X148905Y160599D02*
X151575D01*
G01D02*
X154245D01*
G01X163299Y30046D02*
Y32717D01*
G01D02*
Y35387D01*
G01X160779Y32717D02*
X163299D01*
G01X219650Y37330D02*
Y40000D01*
G01D02*
X222170D01*
G01X235433Y108858D02*
Y111908D01*
G01Y108858D02*
X238384D01*
G01X237646Y115952D02*
Y118622D01*
G01D02*
Y121292D01*
G01Y118622D02*
X240166D01*
G01X260551Y99803D02*
X265963D01*
G01X260551D02*
X265163Y104415D01*
G01X255939D02*
X260551Y99803D01*
G01D02*
X265163Y95191D01*
G54D73*
G01X23819Y71850D02*
X16339D01*
G01D02*
Y70276D01*
X18701Y67913D01*
X23819D01*
G01X16339Y71850D02*
Y80010D01*
G01X27362Y71850D02*
X30512D01*
G01X27362Y67913D02*
X30413D01*
G01X33465Y78740D02*
X29232D01*
G01X29528Y84428D02*
X28937D01*
X27756Y85610D01*
Y87303D01*
G01X27165Y97638D02*
X27756Y97047D01*
Y92618D01*
G01X31890Y120472D02*
X28248D01*
G01X40551Y123031D02*
X44291D01*
X44685Y123425D01*
G01Y119882D02*
Y116732D01*
G01X49035Y115059D02*
X49409Y114685D01*
Y112185D01*
X50374Y111220D01*
X52559D01*
G01X55709Y115059D02*
Y111220D01*
G01D02*
X52559D01*
G01X59232D02*
X55709D01*
G01X52559D02*
Y115059D01*
G01X44685Y123425D02*
Y126575D01*
G01X50118Y143031D02*
Y135709D01*
X52559Y133268D01*
Y122736D01*
G01X50118Y153031D02*
X45413Y148327D01*
Y136673D01*
X49035Y133051D01*
Y122736D01*
G01X73760Y138878D02*
X78327D01*
X79331Y137874D01*
Y131890D01*
X77756Y130315D01*
X59744D01*
X55709Y126280D01*
Y122736D01*
G01X50118Y143031D02*
X55118D01*
X60118Y138031D01*
G01X50118Y153031D02*
X55118D01*
X60118Y158031D01*
G01X50118Y163031D02*
X61772D01*
X65945Y158858D01*
Y147126D01*
X69193Y143878D01*
X73760D01*
G01X50118Y173031D02*
X63189D01*
X67343Y168878D01*
X73760D01*
G01X48031Y203217D02*
Y199441D01*
X60858Y186614D01*
X88189D01*
X92717Y182087D01*
G01X62402Y71457D02*
Y67520D01*
X62992Y66929D01*
G01X59232Y115059D02*
Y111220D01*
G01D02*
X59823Y110630D01*
X66339D01*
G01X59232Y122736D02*
Y126969D01*
X60413Y128150D01*
X79134D01*
X82087Y131102D01*
Y160630D01*
X78839Y163878D01*
X73760D01*
G01X60118Y148031D02*
X66732Y141417D01*
Y136535D01*
X69390Y133878D01*
X73760D01*
G01X76575Y120079D02*
X75984D01*
X73622Y122441D01*
X66339D01*
G01X73760Y158878D02*
X69272D01*
X60118Y168031D01*
G01X93209Y112028D02*
X89665D01*
X85630Y116063D01*
Y152362D01*
X102146Y168878D01*
X107343D01*
G01Y143878D02*
X101949D01*
X89764Y131693D01*
Y119232D01*
X90295Y118701D01*
X93209D01*
G01Y115551D02*
X89665D01*
X87402Y117815D01*
Y143504D01*
X102776Y158878D01*
X107343D01*
G01X76575Y120079D02*
X81102D01*
X82677Y118504D01*
G01X106890Y58268D02*
X106004D01*
X103740Y60531D01*
G01X100591Y65157D02*
Y59646D01*
X103740Y56496D01*
G01X103346Y68701D02*
X106299D01*
X107480Y67520D01*
G01X105118Y72441D02*
X102956D01*
X100591Y70076D01*
Y65157D01*
G01D02*
X103346D01*
G01X100886Y118701D02*
X103937D01*
X104252Y118386D01*
X106736D01*
X106850Y118500D01*
G01D02*
Y120680D01*
X105305Y122224D01*
X100886D01*
G01X106850Y115000D02*
X106299Y115551D01*
X100886D01*
G01X106850Y115000D02*
Y113850D01*
X105027Y112028D01*
X100886D01*
G01X107343Y133878D02*
X100413D01*
X93209Y126673D01*
Y122224D01*
G01X107343Y138878D02*
X102185D01*
G01X107343Y163878D02*
X102185D01*
G01X107480Y67520D02*
Y66621D01*
X107766Y66336D01*
G01X117126Y121654D02*
X113386D01*
G01X111299Y124047D02*
X111189Y123937D01*
X108299D01*
X108181Y123819D01*
G01X114764Y126378D02*
X114409Y126732D01*
X111685D01*
X111299Y126347D01*
G01X118850Y130000D02*
X118456Y129606D01*
X115079D01*
X114764Y129921D01*
G01X119488Y178740D02*
Y181890D01*
G01X115945Y178740D02*
Y181890D01*
G01X124606Y177953D02*
X122686D01*
X121850Y177117D01*
Y175787D01*
X121260Y175197D01*
X119488D01*
G01X115945D02*
X119488D01*
G01X115945D02*
X114370Y173622D01*
Y172190D01*
G01X122638Y58465D02*
Y55512D01*
X124016Y54134D01*
X129724D01*
G01X127067Y122047D02*
X123819D01*
X123425Y121654D01*
G01X139173Y163976D02*
X136417Y161220D01*
G01X128543Y170079D02*
Y167913D01*
X129331Y167126D01*
Y166929D01*
G01X132008Y159055D02*
X131583Y158630D01*
G01X133740Y154567D02*
X133577Y154730D01*
G01D02*
X133238D01*
X131583Y156385D01*
Y156535D01*
G01Y158630D02*
Y156535D01*
G01X136417Y181693D02*
X140157D01*
G01X130118D02*
X126378D01*
G01X124606Y177953D02*
Y179921D01*
X126378Y181693D01*
G01X152393Y112756D02*
X151122D01*
X149213Y114665D01*
G01X151575Y158299D02*
X154654D01*
X154961Y157992D01*
G01X169417Y57406D02*
X164050D01*
X163386Y58071D01*
G01D02*
Y61438D01*
G01Y54528D02*
Y51161D01*
G01X169417Y55438D02*
X166265D01*
X165354Y54528D01*
X163386D01*
G01X154693Y112756D02*
Y112906D01*
X156348Y114561D01*
X157317D01*
G01X158071Y170079D02*
Y166929D01*
G01X154764Y161850D02*
Y161608D01*
G01X184055Y36811D02*
Y40157D01*
G01Y33268D02*
X189964D01*
X190480Y33784D01*
G01X176575Y104724D02*
X176843Y104992D01*
X178276D01*
G01D02*
Y109572D01*
G01X176307D02*
X174582D01*
X173425Y110728D01*
G01X179134Y117520D02*
Y114764D01*
X180244Y113654D01*
Y109572D01*
G01X173974Y135474D02*
X172150Y137299D01*
Y138500D01*
G01X173974Y135474D02*
X173158Y134658D01*
G01D02*
Y131969D01*
G01X170858D02*
Y135167D01*
X170447Y135578D01*
G01X194575Y130787D02*
Y133237D01*
X195039Y133701D01*
Y134843D01*
G01X192275Y130787D02*
Y130070D01*
X190354Y128150D01*
G01X211220Y41339D02*
X213386Y39173D01*
Y37205D01*
X213780Y36811D01*
G01X211594Y41339D02*
X211220D01*
G01X214190Y41944D02*
X211741Y44394D01*
X211740D01*
Y48548D01*
G01X213780Y33268D02*
X207926D01*
X207409Y33784D01*
G01X213709Y48548D02*
Y52780D01*
G01X215677Y48548D02*
Y44811D01*
X216394Y44094D01*
X217646D01*
G01X230709Y37126D02*
X227480D01*
X227165Y36811D01*
G01X230709Y37126D02*
Y34665D01*
G01X227165Y40354D02*
Y43701D01*
X227362Y43898D01*
G01X230709Y39646D02*
X230591Y39764D01*
X227756D01*
X227165Y40354D01*
G01X230906Y43898D02*
X233900D01*
G01X217646Y44094D02*
X217843Y43898D01*
X227362D01*
G01X217646Y44094D02*
Y48548D01*
G01X230512Y105315D02*
X230502Y105311D01*
X230441Y105223D01*
Y102682D01*
G01X235433Y105315D02*
X230512D01*
G01X235433Y108858D02*
X231299D01*
G01D02*
X230354Y109803D01*
G01X235346Y118622D02*
X232362D01*
X231181Y119803D01*
G01X233900Y43898D02*
X233957Y43841D01*
G01X294488Y10039D02*
X299409D01*
G01X294488Y75394D02*
X299606D01*
G01X294488Y140748D02*
X299409D01*
G54D55*
X111299Y126347D03*
Y124047D03*
X151575Y158299D03*
Y160599D03*
G54D19*
X23819Y67913D03*
X27362D03*
X44685Y119882D03*
Y123425D03*
X103346Y68701D03*
Y65157D03*
X115945Y178740D03*
Y175197D03*
X119488Y178740D03*
Y175197D03*
X128543Y170079D03*
Y173622D03*
X140157Y159449D03*
X143701D03*
X163386Y58071D03*
Y54528D03*
X158071Y170079D03*
Y173622D03*
X184055Y36811D03*
Y33268D03*
X200591Y43701D03*
X213780Y36811D03*
Y33268D03*
X204134Y43701D03*
X235236Y56299D03*
Y59843D03*
X239961Y104724D03*
Y101181D03*
X235433Y105315D03*
Y108858D03*
G54D37*
X62795Y80370D03*
Y98370D03*
G54D28*
X33465Y78740D03*
X41732D03*
X234882Y172244D03*
X243150D03*
G54D46*
X100886Y122224D03*
Y112028D03*
X93209D03*
Y122224D03*
G54D64*
X169417Y55438D03*
Y57406D03*
Y59375D03*
Y61343D03*
Y63312D03*
Y65280D03*
Y67249D03*
Y69217D03*
Y71186D03*
Y73154D03*
Y75123D03*
Y77091D03*
Y79060D03*
Y81028D03*
Y82997D03*
Y84965D03*
Y86934D03*
Y88902D03*
Y102682D03*
Y100713D03*
Y98745D03*
Y96776D03*
Y94808D03*
Y92839D03*
Y90871D03*
X230441Y55438D03*
Y57406D03*
Y73154D03*
Y71186D03*
Y69217D03*
Y67249D03*
Y65280D03*
Y63312D03*
Y61343D03*
Y59375D03*
Y88902D03*
Y86934D03*
Y84965D03*
Y82997D03*
Y81028D03*
Y79060D03*
Y77091D03*
Y75123D03*
Y102682D03*
Y100713D03*
Y98745D03*
Y96776D03*
Y94808D03*
Y92839D03*
Y90871D03*
G54D83*
G01X283661Y49724D02*
Y53976D01*
G01X295373Y54670D02*
X297638Y52406D01*
Y51102D01*
X299016Y49724D01*
G01X283661Y115000D02*
Y117717D01*
X285630Y119685D01*
G01X283661Y180276D02*
Y184528D01*
G01X299016Y29724D02*
Y25472D01*
G01Y95000D02*
Y90748D01*
G01Y119291D02*
Y115000D01*
G01Y160276D02*
Y156024D01*
G01Y180276D02*
Y184528D01*
G54D74*
G01X16437Y84734D02*
X20384D01*
G01X16437Y94970D02*
X23120D01*
X25787Y97638D01*
X27165D01*
G01X71063Y71457D02*
Y66775D01*
X71016Y66728D01*
G01X108661Y63189D02*
X106398D01*
X103740Y60531D01*
G01X105118Y72441D02*
X107087D01*
X108661Y70866D01*
Y70669D01*
G01X113780D02*
X115945D01*
X116339Y71063D01*
G01X117520Y114764D02*
X115945Y113189D01*
X113189D01*
G01X109150Y115000D02*
X110197D01*
X112598Y117402D01*
G01X109150Y118500D02*
X111500D01*
G01D02*
X112598Y117402D01*
G01X118850Y126500D02*
Y123378D01*
X117126Y121654D01*
G01X121150Y126500D02*
Y123929D01*
X123425Y121654D01*
G01X117354Y137008D02*
X114492D01*
G01X121150Y130000D02*
X121686Y130536D01*
Y132763D01*
X121417Y133031D01*
G01X118850Y126500D02*
X114886D01*
X114764Y126378D01*
G01X118850Y130000D02*
Y132174D01*
X117824Y133199D01*
Y133415D01*
G01X119654Y137008D02*
X122000D01*
X124165Y134843D01*
X125309D01*
G01X117824Y133415D02*
X117932Y133307D01*
X118079D01*
X119654Y134882D01*
Y137008D01*
G01X124606Y114764D02*
X128543D01*
X128937Y115157D01*
G01X169850Y138500D02*
Y136175D01*
X170447Y135578D01*
G01X172150Y142000D02*
X174500D01*
G01D02*
X175000Y142500D01*
G01X217350Y40000D02*
Y40150D01*
X215556Y41944D01*
X214190D01*
G01X217350Y40000D02*
Y37178D01*
G01X234882Y172244D02*
Y167953D01*
X234843Y167913D01*
G01X260236Y51378D02*
X256890D01*
G01X259252Y70972D02*
Y69882D01*
X260236Y68898D01*
Y67126D01*
G01Y58858D02*
X256890D01*
G01X260236Y74606D02*
X258661D01*
X256890Y76378D01*
G01X260236Y82874D02*
X256890D01*
G01X260236Y90354D02*
X256890D01*
G01X265354Y58858D02*
X269685D01*
X271260Y57283D01*
G01X265354Y51378D02*
X271260D01*
G01X269672Y73745D02*
Y74128D01*
X269193Y74606D01*
X265354D01*
G01Y67126D02*
X268602D01*
G01X265354Y90354D02*
X267717D01*
X268012Y90650D01*
X271260D01*
G01X271824Y82604D02*
X266970D01*
X266700Y82874D01*
X265354D01*
G54D29*
X38583Y105315D03*
Y111614D03*
X43307Y105315D03*
Y111614D03*
X74213Y182382D03*
Y179823D03*
X78937Y182382D03*
Y179823D03*
X106890Y51969D03*
Y58268D03*
X111614Y51969D03*
Y58268D03*
X120472Y76476D03*
X115748D03*
X120472Y79035D03*
X115748D03*
X133047Y94043D03*
X128322D03*
X133047Y100343D03*
X128322D03*
X146654Y84646D03*
X141929D03*
X146654Y90945D03*
X141929D03*
X162378Y88433D03*
X157653D03*
X162378Y90992D03*
X157653D03*
X175591Y36220D03*
X170866D03*
X175591Y42520D03*
X170866D03*
X209055Y119685D03*
X204331D03*
X209055Y125984D03*
X204331D03*
G54D56*
X121949Y168110D03*
Y166142D03*
X116634D03*
Y168110D03*
X121949Y170079D03*
X116634D03*
G54D38*
X49035Y115059D03*
Y122736D03*
X59232Y115059D03*
Y122736D03*
G54D47*
X100886Y118701D03*
Y115551D03*
X93209D03*
Y118701D03*
G54D65*
X176307Y48548D03*
X178276D03*
X184181D03*
X182213D03*
X180244D03*
X176307Y109572D03*
X178276D03*
X180244D03*
X182213D03*
X184181D03*
X199929Y48548D03*
X197961D03*
X195992D03*
X194024D03*
X192055D03*
X190087D03*
X188118D03*
X186150D03*
Y109572D03*
X188118D03*
X190087D03*
X192055D03*
X194024D03*
X195992D03*
X197961D03*
X199929D03*
X215677Y48548D03*
X213709D03*
X211740D03*
X209772D03*
X207803D03*
X205835D03*
X203866D03*
X201898D03*
X215677Y109572D03*
X213709D03*
X211740D03*
X201898D03*
X203866D03*
X205835D03*
X207803D03*
X209772D03*
X223551Y48548D03*
X221583D03*
X219614D03*
X217646D03*
X223551Y109572D03*
X219614D03*
X221583D03*
X217646D03*
G54D75*
G01X169882Y113780D02*
Y110728D01*
G01X163976Y164370D02*
Y167421D01*
G01X164567Y159449D02*
Y155610D01*
G01X167520Y164370D02*
Y167421D01*
G01X171654Y168110D02*
X168209D01*
X167520Y167421D01*
G01X175591Y117520D02*
X172595D01*
X172441Y117365D01*
X172287D01*
G01X173425Y113780D02*
Y110728D01*
G01X170866Y159449D02*
Y155610D01*
G01X171654Y164567D02*
Y160236D01*
X170866Y159449D01*
G01X241142Y53543D02*
X239370Y51772D01*
Y49508D01*
G01X239124Y64665D02*
Y62647D01*
X241142Y60630D01*
G54D48*
X106850Y118500D03*
Y115000D03*
X109150Y118500D03*
Y115000D03*
X118850Y126500D03*
X121150D03*
X119654Y137008D03*
X117354D03*
X118850Y130000D03*
X121150D03*
X129283Y156535D03*
X131583D03*
X152393Y112756D03*
X165599Y32717D03*
X163299D03*
X154693Y112756D03*
X169850Y138500D03*
Y142000D03*
X172150Y138500D03*
X170858Y131969D03*
X173158D03*
X172150Y142000D03*
X192275Y130787D03*
X194575D03*
X217350Y40000D03*
X219650D03*
X235346Y118622D03*
X237646D03*
G54D66*
X183760Y115157D03*
Y119882D03*
X186319Y115157D03*
Y119882D03*
X243110Y71260D03*
X236811D03*
X243110Y75984D03*
X236811D03*
X243110Y87008D03*
X236811D03*
X243110Y91732D03*
X236811D03*
G54D39*
X55709Y115059D03*
X52559D03*
Y122736D03*
X55709D03*
G54D57*
X129724Y54134D03*
Y57874D03*
Y61614D03*
X140354Y54134D03*
Y61614D03*
G54D76*
G01X82677Y114961D02*
Y111692D01*
G01X76575Y112992D02*
Y108641D01*
G01X135236Y73622D02*
X142126D01*
G01X154528D02*
X147441D01*
G01X140354Y61614D02*
X150886D01*
X151378Y61122D01*
G54D49*
X110000Y10000D03*
X164000Y200000D03*
X200000Y10000D03*
X250551Y119803D03*
X250000Y200000D03*
G54D67*
X230709Y37126D03*
Y39646D03*
X234252D03*
Y37126D03*
G54D58*
X135236Y73622D03*
X154528D03*
G54D77*
G01X11811Y117323D02*
X16929D01*
X18406Y118799D01*
Y121089D01*
X22161Y124844D01*
X26077D01*
X27512Y126280D01*
X35570D01*
X36319Y125531D01*
Y125530D01*
X37205Y124644D01*
Y120276D01*
X39567Y117913D01*
X40551D01*
G01X25000Y120866D02*
X26181Y122047D01*
X26900D01*
X27884Y123031D01*
X31890D01*
G01X19685Y113583D02*
Y120558D01*
X22454Y123327D01*
X26369D01*
X28043Y125000D01*
X35039D01*
X35925Y124114D01*
Y116634D01*
X37795Y114764D01*
X41535D01*
X42323Y113976D01*
X45361D01*
X47933Y111405D01*
Y111376D01*
X52420Y106890D01*
X75235D01*
X75669Y106455D01*
X107833D01*
X111024Y109646D01*
X140720D01*
X143476Y112402D01*
X145107D01*
X145894Y111614D01*
X146848D01*
X147556Y110906D01*
X157464D01*
X161909Y115351D01*
Y127657D01*
X158563Y131004D01*
G01X35000Y65850D02*
X37953D01*
X42870Y70768D01*
X45472D01*
G01X31890Y123031D02*
X33282D01*
X34646Y121668D01*
Y113976D01*
X35433Y113189D01*
Y112244D01*
X36063Y111614D01*
X38583D01*
G01X90354Y177953D02*
Y180020D01*
X85925Y184449D01*
X51713D01*
X48031Y188130D01*
Y191406D01*
G01X130000Y40551D02*
X115551D01*
X113189Y38189D01*
X104724D01*
X85236Y57677D01*
X65551D01*
X61024Y62205D01*
X58858D01*
G01X96063Y68701D02*
X101772Y74409D01*
X108661D01*
X110039Y73031D01*
X117154D01*
X117174Y73012D01*
X125048D01*
X127559Y75522D01*
Y83857D01*
X137797Y94094D01*
X140330D01*
X140921Y94685D01*
Y96209D01*
G01X112500Y40354D02*
X113962Y41816D01*
X148214D01*
X150492Y44094D01*
Y46187D01*
X153280Y48975D01*
X164291D01*
X164529Y49213D01*
X171437D01*
X175448Y45202D01*
X178276D01*
Y48548D01*
G01X111614Y51969D02*
Y49508D01*
G01X113780Y63189D02*
Y65266D01*
X115161Y66647D01*
G01X120079Y68701D02*
X115032D01*
X114934Y68602D01*
X114236D01*
X113941Y68307D01*
X111811D01*
X111220Y68898D01*
Y70669D01*
G01X146654Y90945D02*
X146457Y91142D01*
Y92126D01*
X145669Y92913D01*
X138286D01*
X128740Y83367D01*
Y75033D01*
X122408Y68701D01*
X120079D01*
G01X127559Y90945D02*
X126378Y89764D01*
Y76012D01*
X124559Y74193D01*
X117663D01*
X117644Y74213D01*
X116339D01*
X115748Y74803D01*
Y76476D01*
G01X130000Y10000D02*
Y40551D01*
G01D02*
X142424D01*
X144885Y38091D01*
X158241D01*
X160433Y40283D01*
Y41142D01*
X161614Y42323D01*
G01X129724Y104331D02*
X132970D01*
X137152Y100148D01*
X137206D01*
X138362Y98993D01*
Y97361D01*
X137209Y96209D01*
X133047D01*
G01X123425Y92717D02*
X125000D01*
X126327Y94043D01*
X128322D01*
G01X136220Y140551D02*
X135898Y140873D01*
X135827D01*
X135558Y141142D01*
X131693D01*
G01X156693Y39764D02*
X154134D01*
X153543Y40355D01*
Y42323D01*
G01D02*
X153417D01*
X151673Y44066D01*
Y45698D01*
X153769Y47794D01*
X164781D01*
X165019Y48031D01*
X170079D01*
X173418Y44692D01*
Y43905D01*
X174803Y42520D01*
X175591D01*
G01X162795Y79331D02*
X147244D01*
X144685Y76772D01*
Y70866D01*
X148622Y66929D01*
X158268D01*
X160236Y64961D01*
G01X146654Y88780D02*
X151378D01*
X152362Y87795D01*
G01X158352Y83577D02*
X154218D01*
X152362Y85433D01*
X151940D01*
X150562Y86811D01*
X146654D01*
G01X162378Y90992D02*
Y92665D01*
X161933Y93110D01*
X159173D01*
X158661Y92598D01*
X148790D01*
X142621Y98768D01*
X140921D01*
G01X144882Y103543D02*
X147956D01*
X148401Y103098D01*
Y101327D01*
G01X144291Y110433D02*
X146358D01*
X147067Y109724D01*
X157953D01*
X163583Y115354D01*
Y117520D01*
X174213Y128150D01*
G01X144000Y200000D02*
X161024Y182976D01*
Y174972D01*
X164342Y171654D01*
X182283D01*
G01X165652Y32770D02*
X165599Y32717D01*
G01X165652Y32770D02*
Y32673D01*
X168204Y30121D01*
X175622D01*
X180906Y35405D01*
Y39173D01*
X179626Y40453D01*
G01X165652Y32770D02*
Y38021D01*
X166732Y39102D01*
Y44094D01*
X165945Y44882D01*
X164173D01*
G01X167620Y37206D02*
X168801Y38386D01*
X170866D01*
G01X161614Y42323D02*
X161024Y42913D01*
Y44488D01*
G01X161614Y42323D02*
X164173D01*
G01X153543D02*
X156693D01*
G01X164292Y76818D02*
X163261Y75787D01*
X161194D01*
X160039Y74633D01*
Y67717D01*
X160827Y66929D01*
X161052D01*
X162205Y65776D01*
Y63348D01*
X161200Y62343D01*
Y58247D01*
X159744Y56791D01*
G01X164956Y65743D02*
X165137Y65563D01*
X165788D01*
X166071Y65280D01*
X169417D01*
G01X162008Y73720D02*
X164543Y71186D01*
X169417D01*
G01X162008Y70866D02*
X163657Y69217D01*
X169417D01*
G01X164847Y74018D02*
X165711Y73154D01*
X169417D01*
G01X163583Y85630D02*
Y87795D01*
X162944Y88433D01*
X162378D01*
G01Y90992D02*
X163236D01*
X165157Y92913D01*
G01X154242Y95389D02*
X154357D01*
X158378Y99409D01*
X165186D01*
X165850Y98745D01*
X169417D01*
G01X156978Y94574D02*
X159281D01*
X159590Y94882D01*
X165973D01*
X166047Y94808D01*
X169417D01*
G01Y96776D02*
X166609D01*
X165945Y97441D01*
X164370D01*
G01X195992Y109572D02*
Y114446D01*
X192766D01*
X188228Y118983D01*
Y122570D01*
X180458Y130340D01*
Y140542D01*
X168835Y152165D01*
X165144D01*
X161010Y156299D01*
X155986D01*
X155512Y155825D01*
Y152362D01*
G01X162992Y175787D02*
Y184646D01*
X154000Y193638D01*
Y200000D01*
G01X173228Y28150D02*
X176969Y24409D01*
X247835D01*
X250787Y21457D01*
G01X179626Y40453D02*
X175689D01*
X175591Y40354D01*
G01X186703Y64411D02*
Y61703D01*
X182213Y57213D01*
Y48548D01*
G01X274606Y36614D02*
X271654D01*
X263425Y44843D01*
X235823D01*
X231886Y48779D01*
X228780D01*
X228661Y48898D01*
X228566D01*
X228448Y49016D01*
X228352D01*
X219035Y58333D01*
X217894D01*
X212626Y63602D01*
X205801D01*
X197356Y72047D01*
X193798D01*
X188671Y66920D01*
Y58170D01*
X184181Y53680D01*
Y48548D01*
G01X176307D02*
Y59406D01*
X190129Y73228D01*
X198012D01*
X206354Y64887D01*
X213179D01*
X218551Y59515D01*
X219524D01*
X228842Y50197D01*
X228937D01*
X229055Y50079D01*
X232424D01*
X236361Y46142D01*
X267638D01*
X271654Y42126D01*
G01X180244Y48548D02*
Y60559D01*
X183858Y64173D01*
G01X181102Y78937D02*
Y71650D01*
X172764Y63312D01*
X169417D01*
G01Y67249D02*
X172441D01*
X173031Y67839D01*
Y72564D01*
X172441Y73154D01*
X169417D01*
G01X193504Y78937D02*
X190945D01*
X173351Y61343D01*
X169417D01*
G01X195571Y76870D02*
X191993D01*
X174498Y59375D01*
X169417D01*
G01X173778Y81991D02*
X176282D01*
X177559Y83268D01*
X196457D01*
X196556Y83168D01*
X197100D01*
X198562Y81706D01*
G01X198423Y76994D02*
X194511Y80906D01*
X180287D01*
X176472Y77091D01*
X169417D01*
G01Y79060D02*
X176770D01*
X179797Y82087D01*
X195001D01*
X198125Y78963D01*
X199239D01*
X200391Y77810D01*
Y76577D01*
X210901Y66068D01*
X213835D01*
X219089Y60814D01*
X219895D01*
X229331Y51378D01*
X232962D01*
X236801Y47539D01*
X241509D01*
X245669Y51700D01*
Y51843D01*
X250984Y57158D01*
Y58858D01*
G01X177557Y86809D02*
X174792D01*
X172699Y88902D01*
X169417D01*
G01X175548Y88838D02*
X175394Y88992D01*
Y89932D01*
X175591Y90129D01*
Y91761D01*
X174438Y92913D01*
X172838D01*
X172764Y92839D01*
X169417D01*
G01X173622Y84843D02*
X174409D01*
X174606Y84646D01*
X198407D01*
X201772Y81281D01*
Y80512D01*
G01X230441Y61343D02*
X224156D01*
X222087Y63412D01*
X220165D01*
X215148Y68430D01*
X213587D01*
X210359Y71658D01*
Y75057D01*
X205315Y80101D01*
Y80617D01*
X199318Y86614D01*
X183886D01*
X175618Y94882D01*
X173551D01*
G01X169417Y102682D02*
X190512D01*
X192203Y104373D01*
X199884D01*
X200788Y103469D01*
X205076D01*
X205677Y102868D01*
X207744D01*
G01X198557Y89764D02*
X190551D01*
X179602Y100713D01*
X169417D01*
G01X173622Y90945D02*
X172441D01*
X172367Y90871D01*
X169417D01*
G01X181102Y121654D02*
Y119587D01*
X182185Y118504D01*
Y113314D01*
X182213Y113287D01*
Y109572D01*
G01X200000Y200000D02*
Y146485D01*
X202953Y143532D01*
Y141901D01*
X201800Y140748D01*
X196063D01*
X184449Y129134D01*
G01X189587Y21437D02*
X246083D01*
X248228Y19291D01*
X263583D01*
G01X211089Y56758D02*
X208202D01*
X207480Y57480D01*
X199961D01*
X198976Y56496D01*
X196850D01*
G01D02*
Y54876D01*
X198970Y52756D01*
X201036D01*
X201898Y51894D01*
Y48548D01*
G01X188118D02*
Y52882D01*
X189567Y54331D01*
G01X223551Y48548D02*
Y52118D01*
X218478Y57152D01*
X217405D01*
X212254Y62303D01*
X204232D01*
X196457Y70079D01*
G01X221583Y48548D02*
Y52280D01*
X217873Y55971D01*
X216916D01*
X211883Y61004D01*
X202664D01*
X194463Y69204D01*
X193739D01*
G01X219614Y48548D02*
Y52440D01*
X217262Y54790D01*
X216426D01*
X211512Y59705D01*
X202126D01*
X195152Y66678D01*
X192410D01*
G01X230441Y63312D02*
X224024D01*
X222625Y64711D01*
X220704D01*
X215804Y69611D01*
X214076D01*
X211540Y72147D01*
Y75546D01*
X206496Y80590D01*
Y81107D01*
X200809Y86794D01*
Y89730D01*
X200809Y90530D01*
X199606Y91732D01*
X194328D01*
X186800Y99260D01*
Y99411D01*
G01X196579Y101224D02*
X199367D01*
X205533Y95057D01*
Y88751D01*
X206686Y87598D01*
X214494D01*
X223672Y96776D01*
X230441D01*
G01X192913Y99409D02*
X194375Y97948D01*
X195147D01*
X195274Y98074D01*
X198383D01*
X203171Y93285D01*
Y88751D01*
X203171Y87773D01*
X208858Y82085D01*
Y81569D01*
X213902Y76525D01*
Y73126D01*
X215055Y71973D01*
X217117D01*
X221941Y67149D01*
X223656D01*
X223756Y67249D01*
X230441D01*
G01Y65280D02*
X223893D01*
X223206Y65968D01*
X221285D01*
X216460Y70792D01*
X214566D01*
X212721Y72637D01*
Y76035D01*
X207677Y81080D01*
Y81596D01*
X201990Y87283D01*
Y89240D01*
X201990Y89241D01*
Y92796D01*
X197893Y96893D01*
X195763D01*
X195637Y96767D01*
X193886D01*
X193211Y97441D01*
X191404D01*
X189647Y99198D01*
G01X230441Y81028D02*
X212946D01*
X212824Y80906D01*
X211192D01*
X210039Y82058D01*
Y82575D01*
X204352Y88262D01*
Y94073D01*
X199170Y99255D01*
X195763D01*
X194610Y100408D01*
Y102039D01*
X195763Y103192D01*
X199395D01*
X201800Y100787D01*
X204724D01*
G01X197835Y120079D02*
Y117685D01*
X197598D01*
Y117520D01*
G01X199929Y109572D02*
Y113725D01*
X202044Y115841D01*
X206401D01*
X208311Y113930D01*
X212518D01*
X216535Y117948D01*
Y123353D01*
X214292Y125597D01*
Y137406D01*
X206299Y145398D01*
Y175493D01*
X216889Y186083D01*
X239429D01*
X241142Y187795D01*
G01X250000Y200000D02*
X237382Y187382D01*
X216518D01*
X205118Y175982D01*
Y144908D01*
X212402Y137625D01*
Y125817D01*
X215354Y122864D01*
Y118437D01*
X212029Y115111D01*
X208801D01*
X206891Y117022D01*
X201555D01*
X197961Y113428D01*
Y109572D01*
G01X204331Y119685D02*
X201870D01*
X199567Y117381D01*
Y116704D01*
X198414Y115551D01*
X196557D01*
X192030Y120079D01*
X190354D01*
G01Y125197D02*
Y128150D01*
G01X202559Y163976D02*
Y145596D01*
X204134Y144022D01*
Y141411D01*
X200591Y137868D01*
Y134420D01*
X204331Y130680D01*
Y125984D01*
G01X197835Y125197D02*
X199606D01*
X200197Y124606D01*
Y123524D01*
X201870Y121850D01*
X204331D01*
G01X190354Y122638D02*
X192323D01*
X192913Y123228D01*
Y123847D01*
X193307Y124241D01*
Y125984D01*
G01X197835Y122638D02*
X195276D01*
X194882Y123031D01*
G01X204331Y123819D02*
X201870D01*
X201378Y124311D01*
Y125984D01*
X198819Y128543D01*
G01X197441Y147244D02*
X195979Y148706D01*
X194995D01*
X190000Y153701D01*
Y200000D01*
G01X205709Y74409D02*
X212869Y67249D01*
X214491D01*
X219627Y62113D01*
X220419D01*
X227094Y55438D01*
X230441D01*
G01X215871Y73942D02*
X217052Y75123D01*
X230441D01*
G01X207502Y89567D02*
X209294Y91359D01*
X216584D01*
X223970Y98745D01*
X230441D01*
G01X212008Y82874D02*
Y83268D01*
X213706Y84965D01*
X230441D01*
G01X210236Y85433D02*
X212303D01*
X213017Y86146D01*
X214887D01*
X217643Y88902D01*
X230441D01*
G01Y79060D02*
X216806D01*
G01X211567Y96110D02*
Y98866D01*
X210894Y99539D01*
Y105670D01*
X209772Y106792D01*
Y109572D01*
G01X207803D02*
Y105593D01*
X209713Y103683D01*
Y102052D01*
X208465Y100804D01*
Y95276D01*
G01X211740Y109572D02*
Y106494D01*
X212529Y105706D01*
X212598Y104010D01*
Y99511D01*
X214883Y97226D01*
Y93327D01*
G01X201604Y105438D02*
X201898Y105731D01*
Y109572D01*
G01X283661Y110000D02*
X282638Y111024D01*
X276969D01*
X269685Y118307D01*
Y121063D01*
X260630Y130118D01*
X244280D01*
X237351Y123189D01*
X230945D01*
X226378Y118622D01*
Y107283D01*
X224409Y105315D01*
X215748D01*
G01X218110Y95669D02*
X213780Y100000D01*
Y106154D01*
X213709Y106225D01*
Y109572D01*
G01X205835D02*
Y113623D01*
X205752D01*
Y113706D01*
G01X202860Y113872D02*
X203866Y112866D01*
Y109572D01*
G01X213386Y121457D02*
X211924Y122919D01*
Y123115D01*
X211220Y123819D01*
X209055D01*
G01X215945Y114370D02*
X215677Y114102D01*
Y109572D01*
G01X212269Y118136D02*
X212131Y118273D01*
Y119927D01*
X211417Y120641D01*
Y121457D01*
X211024Y121850D01*
X209055D01*
G01X209617Y117080D02*
Y119123D01*
X209055Y119685D01*
G01X205118Y135236D02*
Y132677D01*
X209055Y128740D01*
Y125984D01*
G01X216929Y182945D02*
Y180405D01*
X207480Y170956D01*
Y145888D01*
X217587Y135781D01*
Y126107D01*
X217710Y125984D01*
G01X226378Y183071D02*
Y180043D01*
X211024Y164688D01*
Y147356D01*
X224803Y133576D01*
Y129724D01*
X223551Y128472D01*
Y109572D01*
G01X219659Y131573D02*
Y135380D01*
X208661Y146377D01*
Y170024D01*
X219614Y180976D01*
G01X222835Y130821D02*
Y133874D01*
X209843Y146867D01*
Y166291D01*
X222291Y178740D01*
G01X243150Y172244D02*
Y167756D01*
X234843Y159449D01*
X218701D01*
X215157Y162992D01*
G01X222840Y69117D02*
X225528D01*
X225628Y69217D01*
X230441D01*
G01X224769Y71221D02*
X226891D01*
X226926Y71186D01*
X230441D01*
G01X219220Y72737D02*
X221346D01*
X221799Y73190D01*
X225664D01*
X225699Y73154D01*
X230441D01*
G01Y77091D02*
X220398D01*
G01X250984Y90354D02*
Y92520D01*
X249804Y93701D01*
X248023D01*
X243889Y97835D01*
X236581D01*
X234870Y96124D01*
Y88017D01*
X233787Y86934D01*
X230441D01*
G01Y82997D02*
X225910D01*
G01X230441Y90871D02*
X233070D01*
X233689Y91489D01*
Y96613D01*
X236092Y99016D01*
X244379D01*
X248513Y94882D01*
X251181D01*
X252756Y93307D01*
X275422D01*
X281496Y87233D01*
Y86614D01*
X286220Y81890D01*
G01X219659Y131573D02*
Y129506D01*
X219685Y129479D01*
Y125169D01*
X219614Y125097D01*
Y109572D01*
G01X217710Y125984D02*
Y124022D01*
X217913Y123819D01*
Y113554D01*
X217646Y113287D01*
Y109572D01*
G01X221583D02*
Y129299D01*
X222835Y130551D01*
Y130821D01*
G01X229331Y124803D02*
Y134055D01*
X217323Y146063D01*
G01X217710Y125984D02*
X217717D01*
G01X230906Y135236D02*
X263780Y168110D01*
Y173060D01*
X277905Y187185D01*
X286634D01*
X290748Y183071D01*
Y171850D01*
X292323Y170276D01*
X299016D01*
G01X281596Y125467D02*
X279724Y123595D01*
Y121528D01*
X277684Y119488D01*
X273819D01*
X262008Y131299D01*
X238583D01*
X234520Y127237D01*
X232015D01*
G01X241043Y67913D02*
X240945Y67815D01*
X239567D01*
X238976Y68406D01*
Y71260D01*
G01X240945D02*
Y68012D01*
X241043Y67913D01*
G01D02*
X243110D01*
G01X236811Y71260D02*
Y70247D01*
X234733Y68169D01*
G01X243110Y75984D02*
Y75197D01*
X248622Y69685D01*
X253150D01*
X253543Y69291D01*
G01X248425Y58858D02*
Y61024D01*
X251378Y63976D01*
X261811D01*
X262795Y64961D01*
Y67126D01*
G01X237246Y66815D02*
X238798D01*
X238979Y66634D01*
X239940D01*
X241810Y64764D01*
X250098D01*
X250984Y65650D01*
Y67126D01*
G01X237402Y82087D02*
X236811Y81496D01*
Y75984D01*
G01X240945D02*
Y77756D01*
X241535Y78346D01*
X250461D01*
X251740Y79626D01*
X253670D01*
X254261Y79035D01*
X260591D01*
X262795Y76831D01*
Y74606D01*
G01X238872Y79232D02*
Y79217D01*
X238976Y79113D01*
Y75984D01*
G01X250984Y82874D02*
Y82212D01*
X249580Y80807D01*
X246516D01*
X245782Y81541D01*
X243715D01*
G01X234575Y79346D02*
Y82311D01*
X236811Y84547D01*
Y87008D01*
G01X238976D02*
Y83298D01*
X242702Y79572D01*
X250015D01*
X251250Y80807D01*
X255198D01*
X255789Y80217D01*
X267440D01*
X272066Y75591D01*
X277362D01*
X280512Y72441D01*
G01X240945Y87008D02*
Y84547D01*
X241820Y83672D01*
X244194D01*
X245656Y85134D01*
G01X248425Y74606D02*
X246654D01*
X245669Y75591D01*
Y75984D01*
G01X248425Y90354D02*
Y90748D01*
X246942Y92231D01*
Y93112D01*
X245861Y94193D01*
X241535D01*
X240945Y93602D01*
Y91732D01*
G01X239829Y95866D02*
X238970Y95007D01*
Y91739D01*
X238976Y91732D01*
G01X237002Y95471D02*
X236811Y95280D01*
Y91732D01*
G01X262795Y51378D02*
Y49213D01*
X261811Y48228D01*
X254469D01*
X253543Y49154D01*
Y51378D01*
G01X262795D02*
Y58858D01*
G01X253543Y51378D02*
Y54921D01*
X253346Y55118D01*
G01X250984Y74606D02*
Y71654D01*
G01X253543Y67126D02*
Y69291D01*
G01D02*
X255118Y70866D01*
G01X262795Y67126D02*
Y74606D01*
G01Y82874D02*
Y86220D01*
G01D02*
Y90354D01*
G01X251378Y87008D02*
X253346Y85039D01*
Y83071D01*
X253543Y82874D01*
G01X252756Y128150D02*
X260039D01*
X267126Y121063D01*
Y104062D01*
X287133Y84055D01*
X291535D01*
G01X279528Y86417D02*
Y76209D01*
X282480Y73257D01*
Y71542D01*
X274606Y63668D01*
Y36614D01*
G01X283661Y34724D02*
X276496D01*
X274606Y36614D01*
G01X276983Y37022D02*
Y39089D01*
X277618Y39724D01*
X283661D01*
G01Y44724D02*
X277520D01*
X276969Y45276D01*
G01X276575Y100844D02*
Y103642D01*
X277933Y105000D01*
X283661D01*
G01X276575Y121457D02*
X270276Y127756D01*
Y162598D01*
X272953Y165276D01*
X283661D01*
G01X289656Y94925D02*
Y101193D01*
X289370Y101479D01*
Y120478D01*
X274409Y135439D01*
Y148484D01*
X283661Y157736D01*
Y160276D01*
G01Y175276D02*
X274429D01*
X273228Y176476D01*
X271161D01*
G01X265748Y171063D02*
X277165D01*
X277953Y170276D01*
X283661D01*
G01X292421Y38583D02*
X293563Y39724D01*
X299016D01*
G01X290748Y43898D02*
Y41364D01*
X289272Y39888D01*
Y36420D01*
X289961Y35731D01*
Y30315D01*
X289370Y29724D01*
X283661D01*
G01X286220Y81890D02*
X285533Y81202D01*
Y64270D01*
X291621Y58181D01*
Y55995D01*
X291535Y55909D01*
Y45895D01*
X292717Y44713D01*
Y41662D01*
X290453Y39398D01*
Y36909D01*
X292638Y34724D01*
X299016D01*
G01X290748Y43898D02*
X289653Y44993D01*
Y57286D01*
G01X299016Y44724D02*
X297910Y45830D01*
X293270D01*
X292716Y46385D01*
Y55306D01*
X292802Y55392D01*
Y61135D01*
X290945Y62992D01*
Y70079D01*
G01X287795Y70276D02*
Y75000D01*
X288189Y75394D01*
G01X292913Y87992D02*
X289656Y91249D01*
Y94925D01*
G01X286220Y81890D02*
X292154D01*
X294882Y84617D01*
Y88808D01*
X292520Y91170D01*
Y100000D01*
G01X299016Y105000D02*
X292520D01*
G01X283661Y95000D02*
X283736Y94925D01*
X289656D01*
G01X299016Y165276D02*
X298898Y165157D01*
X293307D01*
X292323Y164173D01*
Y154331D01*
X301378Y145276D01*
Y139859D01*
X288556Y127037D01*
Y122963D01*
X290551Y120967D01*
Y101969D01*
X292520Y100000D01*
G01X299016D02*
X292520D01*
G01X290524Y125564D02*
Y122665D01*
X292126Y121063D01*
Y111181D01*
X293307Y110000D01*
X299016D01*
G01Y175276D02*
X293307D01*
X292323Y176260D01*
Y185827D01*
X289764Y188386D01*
G54D68*
X240945Y71260D03*
X238976D03*
Y75984D03*
X240945D03*
Y87008D03*
X238976D03*
Y91732D03*
X240945D03*
G54D59*
X136614Y118898D03*
Y152362D03*
X152362Y118898D03*
X150787D03*
X149213D03*
X147638D03*
X146063D03*
X144488D03*
X142913D03*
X141339D03*
X139764D03*
X138189D03*
Y152362D03*
X139764D03*
X141339D03*
X142913D03*
X144488D03*
X146063D03*
X147638D03*
X149213D03*
X150787D03*
X152362D03*
X160236Y118898D03*
X158661D03*
X157087D03*
X155512D03*
X153937D03*
Y152362D03*
X155512D03*
X157087D03*
X158661D03*
X160236D03*
G54D78*
G01X123743Y76161D02*
X123819Y76237D01*
Y76476D01*
X120472D01*
G01X115748Y79035D02*
X112402D01*
G01X133047Y98177D02*
X136393D01*
G01D02*
Y98959D01*
X135009Y100343D01*
X133047D01*
G01X131496Y91584D02*
X132062D01*
X133047Y92569D01*
Y94043D01*
G01X125007Y95774D02*
X124976Y95806D01*
Y96209D01*
X128322D01*
G01X130118Y177559D02*
X128346D01*
X125787Y175000D01*
X125197D01*
X124606Y174409D01*
G01X148401Y96209D02*
X151452D01*
G01X140921Y101327D02*
X138758D01*
X137968Y102117D01*
G01X170500Y144122D02*
Y145000D01*
G01X194024Y48548D02*
Y54848D01*
G01X191268Y43627D02*
X188118D01*
G01X195992Y48548D02*
Y44808D01*
X194811Y43627D01*
G01X195992Y48548D02*
Y52291D01*
X196260Y52559D01*
Y52682D01*
G01X186150Y48548D02*
Y52780D01*
G01X235236Y56299D02*
X234375D01*
X233268Y57406D01*
X230441D01*
G01Y59375D02*
X234769D01*
X235236Y59843D01*
G01X230441Y100713D02*
X235507D01*
X235975Y101181D01*
X239961D01*
G01X235236Y56299D02*
Y53150D01*
G01Y59843D02*
Y62992D01*
G01X239961Y104724D02*
X244489D01*
G54D69*
X256890Y51378D03*
Y58858D03*
X259252Y70972D03*
X256890Y82874D03*
Y90354D03*
Y76378D03*
X271260Y57283D03*
Y51378D03*
X269672Y73745D03*
X268602Y67126D03*
X271260Y90650D03*
X271824Y82604D03*
X283661Y53976D03*
X295373Y54670D03*
X285630Y119685D03*
X283661Y184528D03*
X299016Y25472D03*
Y90748D03*
Y119291D03*
Y156024D03*
Y184528D03*
G54D79*
G01X7748Y57087D02*
Y47961D01*
X16535Y39173D01*
Y28025D01*
X24853Y19708D01*
X33661D01*
M02*
