G04 ================== begin FILE IDENTIFICATION RECORD ==================*
G04 Layout Name:  Netduino3Ethernet_17Dec16.brd*
G04 Film Name:    SILKS_TOP*
G04 File Format:  Gerber RS274X*
G04 File Origin:  Cadence Allegro 16.6-2015-S069*
G04 Origin Date:  Sat Dec 17 09:35:35 2016*
G04 *
G04 Layer:  REF DES/SILKSCREEN_TOP*
G04 Layer:  PACKAGE GEOMETRY/SILKSCREEN_TOP*
G04 Layer:  BOARD GEOMETRY/SILKSCREEN_TOP*
G04 *
G04 Offset:    (0.0000 0.0000)*
G04 Mirror:    No*
G04 Mode:      Positive*
G04 Rotation:  0*
G04 FullContactRelief:  No*
G04 UndefLineWidth:     0.1270*
G04 ================== end FILE IDENTIFICATION RECORD ====================*
%FSLAX25Y25*MOIN*%
%IR0*IPPOS*OFA0.00000B0.00000*MIA0B0*SFA1.00000B1.00000*%
%ADD10C,.007874*%
%ADD11C,.011811*%
%ADD12C,.005906*%
%ADD13C,.023622*%
%ADD14C,.009843*%
%ADD15C,.007087*%
%ADD16C,.006*%
%ADD17C,.005*%
%ADD18C,.047244*%
%ADD19C,.062992*%
G75*
%LPD*%
G75*
G36*
G01X11786Y13386D02*
G02Y14173I-3125J394D01*
G01X12623D01*
G02X15748Y16929I3125J-394D01*
G01Y16142D01*
G03Y11417I0J-2362D01*
G01Y10630D01*
G02X12623Y13386I0J3149D01*
G01X11786D01*
G37*
G36*
G01X19710Y14173D02*
G02Y13386I3125J-394D01*
G01X16861D01*
G02Y14173I-1113J394D01*
G01X19710D01*
G37*
G36*
G01X193714Y136274D02*
G02X193731Y139246I-4476J1513D01*
G01X192781Y138771D01*
X188057Y136409D01*
X187270Y137787D01*
X191549Y139927D01*
G03X192179Y136658I-2311J-2140D01*
G01X193714Y136274D01*
G37*
G36*
G01X176772Y149606D02*
Y155118D01*
G02X180709Y159055I3937J0D01*
G02X184646Y155118I0J-3937D01*
G01Y149606D01*
X183071D01*
Y155118D01*
G03X180709Y157480I-2362J0D01*
G03X178346Y155118I0J-2362D01*
G01Y149606D01*
X176772D01*
G37*
G36*
G01X194947Y144874D02*
Y135425D01*
G03X197309Y133063I2362J0D01*
G01X199671D01*
Y134637D01*
X197309D01*
G02X196522Y135425I0J787D01*
G01Y140937D01*
X199671D01*
Y142511D01*
X196522D01*
Y144874D01*
X194947D01*
G37*
G36*
G01X195027Y152818D02*
G02X195044Y155790I-4476J1513D01*
G01X194094Y155315D01*
X189370Y152953D01*
X188583Y154331D01*
X192862Y156470D01*
G03X193492Y153202I-2311J-2140D01*
G01X195027Y152818D01*
G37*
G36*
G01X196260Y161417D02*
Y151969D01*
G03X198622Y149606I2362J0D01*
G01X200984D01*
Y151181D01*
X198622D01*
G02X197835Y151969I0J787D01*
G01Y157480D01*
X200984D01*
Y159055D01*
X197835D01*
Y161417D01*
X196260D01*
G37*
G36*
G01X200931Y133063D02*
Y147243D01*
X202506D01*
Y141724D01*
G02X208805Y138574I2362J-3150D01*
G01Y133063D01*
X207230D01*
Y138574D01*
G03X202506Y138635I-2362J0D01*
G01Y133063D01*
X200931D01*
G37*
G36*
G01X219448Y136274D02*
G02X219466Y139246I-4476J1513D01*
G01X218516Y138771D01*
X213792Y136409D01*
X213004Y137787D01*
X217284Y139927D01*
G03X217913Y136658I-2311J-2140D01*
G01X219448Y136274D01*
G37*
G36*
G01X211220Y154331D02*
G02X208661Y158530I-4724J0D01*
G01Y156618D01*
G03X209646Y154331I-2165J-2287D01*
G01Y163780D01*
X211220D01*
Y154331D01*
G37*
G36*
G01X212402Y159055D02*
Y153543D01*
G03X216339Y149606I3937J0D01*
G03X220276Y153543I0J3937D01*
G01Y159055D01*
X218701D01*
Y153543D01*
G02X216339Y151181I-2362J0D01*
G02X213976Y153543I0J2362D01*
G01Y159055D01*
X212402D01*
G37*
G36*
G01X226928Y133063D02*
Y138574D01*
G02X230865Y142511I3937J0D01*
G02X234802Y138574I0J-3937D01*
G01Y133063D01*
X233227D01*
Y138574D01*
G03X230865Y140937I-2362J0D01*
G03X228503Y138574I0J-2362D01*
G01Y133063D01*
X226928D01*
G37*
G36*
G01X220888D02*
Y142516D01*
X222464D01*
Y141313D01*
G02X225615Y142516I3151J-3524D01*
G01Y140941D01*
G03X222464Y137789I0J-3151D01*
G01Y133063D01*
X220888D01*
G37*
G36*
G01X225000Y155118D02*
Y149606D01*
X226575D01*
Y155118D01*
G02X228937Y157480I2362J0D01*
G02X231299Y155118I0J-2362D01*
G01Y149606D01*
X232874D01*
Y155118D01*
G03X228937Y159055I-3937J0D01*
G03X225000Y155118I0J-3937D01*
G37*
G36*
G01X221850Y159055D02*
Y149606D01*
X223425D01*
Y159055D01*
X221850D01*
G37*
G36*
G01X223819Y161417D02*
G03I-1181J0D01*
G37*
G36*
G01X246416Y144874D02*
Y135425D01*
G03X248778Y133063I2362J0D01*
G01X251141D01*
Y134637D01*
X248778D01*
G02X247991Y135425I0J787D01*
G01Y140937D01*
X251141D01*
Y142511D01*
X247991D01*
Y144874D01*
X246416D01*
G37*
G36*
G01X245183Y136274D02*
G02X245201Y139246I-4476J1513D01*
G01X244251Y138771D01*
X239526Y136409D01*
X238739Y137787D01*
X243019Y139927D01*
G03X243648Y136658I-2311J-2140D01*
G01X245183Y136274D01*
G37*
G36*
G01X243504Y154331D02*
G03I-4724J0D01*
G37*
G36*
G01X255289Y158009D02*
G02X255264Y149606I0J-4202D01*
G01X250037D01*
Y151182D01*
X255289D01*
G03Y156434I0J2626D01*
G01X251612D01*
Y158009D01*
X256477Y162211D01*
X250037D01*
Y163787D01*
X257127D01*
G02X257915Y161423I0J-1313D01*
G01X253962Y158009D01*
X255289D01*
G37*
%LPC*%
G75*
G54D18*
X8661Y13780D03*
X22835D03*
G54D19*
X238780Y154331D03*
%LPD*%
G75*
G36*
G01X7480Y13386D02*
X9843D01*
G03Y14173I0J394D01*
G01X7480D01*
G03Y13386I0J-394D01*
G37*
G36*
G01X22441Y12598D02*
Y13386D01*
X21654D01*
G02Y14173I0J394D01*
G01X22441D01*
Y14961D01*
G02X23228I394J0D01*
G01Y14173D01*
X24016D01*
G02Y13386I0J-394D01*
G01X23228D01*
Y12598D01*
G02X22441I-394J0D01*
G37*
G54D10*
G01X25984Y51181D02*
X5512D01*
G01X25984Y62992D02*
X5512D01*
G01X23622Y87205D02*
G03I-394J0D01*
G01X23819Y101181D02*
Y105906D01*
G01X15748Y118504D02*
Y108661D01*
G01X36575Y69000D02*
X33425D01*
G01X37598Y76772D02*
Y80709D01*
G01X30512Y101181D02*
Y105906D01*
G01X35236Y121850D02*
X36811Y123425D01*
G01X35236Y117520D02*
Y123425D01*
X37205D01*
Y117520D01*
X35236D01*
G01Y122638D02*
X36024Y123425D01*
G01X39370Y197311D02*
G03I-4921J0D01*
G01X27559Y204201D02*
Y190421D01*
X41339D01*
Y204201D01*
X27559D01*
G01X49016Y89370D02*
X53740D01*
G01X77559Y76575D02*
X73622D01*
Y102165D01*
X77559D01*
G01X62795Y114567D02*
Y118504D01*
G01X69882Y114567D02*
Y118504D01*
G01X69000Y185000D02*
X79000D01*
Y195000D01*
G01X69000Y185000D02*
Y195000D01*
G01X74213Y116535D02*
X78937D01*
G01X78740Y127756D02*
X102362D01*
Y175000D01*
X78740D01*
Y127756D01*
G01X89000Y185000D02*
X99000D01*
G01X79000D02*
X89000D01*
Y195000D01*
G01X105000Y15000D02*
Y42500D01*
X115000D01*
G01X99000Y180000D02*
X109000D01*
Y195000D01*
G01X99000Y180000D02*
Y195000D01*
G01X115000Y15000D02*
Y42500D01*
X125000D01*
G01X118504Y55118D02*
Y51181D01*
G01X114173Y65945D02*
Y67913D01*
X108268D01*
Y65945D01*
X114173D01*
G01X111122Y85236D02*
Y99803D01*
G01X121063Y112402D02*
Y117126D01*
G01X120276Y123228D02*
Y120079D01*
G01X117323Y157283D02*
X122047D01*
G01X109000Y185000D02*
X119000D01*
Y195000D01*
G01Y185000D02*
X129000D01*
Y195000D01*
G01X116929Y172638D02*
G03I-394J0D01*
G01X125000Y15000D02*
Y42500D01*
X135000D01*
Y15000D01*
G01Y30000D02*
X145000D01*
Y15000D01*
G01X136614Y44685D02*
Y49409D01*
G01X134252Y53150D02*
X135827D01*
Y62598D01*
X134252D01*
Y53150D01*
G01X125591Y55118D02*
Y51181D01*
G01X132480Y67618D02*
Y66732D01*
X157283D01*
Y67618D01*
G01X123130Y85236D02*
Y99803D01*
G01X132480Y79626D02*
Y80512D01*
X157283D01*
Y79626D01*
G01X136614Y147441D02*
X160236D01*
Y123819D01*
X136614D01*
Y147441D01*
G01X129000Y185000D02*
X139000D01*
Y195000D01*
G01X133268Y183268D02*
Y180118D01*
G01X145000Y30000D02*
X155000D01*
Y15000D01*
G01X143677Y95815D02*
X145645D01*
Y101720D01*
X143677D01*
Y95815D01*
G01X142520Y143504D02*
G03I-1969J0D01*
G01X139000Y185000D02*
X149000D01*
Y195000D01*
G01Y185000D02*
X159000D01*
Y195000D01*
G01X155000Y30000D02*
X165000D01*
Y15000D01*
G01Y30000D02*
X175000D01*
Y15000D01*
G01X159449Y39370D02*
X161417D01*
Y45276D01*
X159449D01*
Y39370D01*
G01X167717Y157874D02*
Y161024D01*
G01X159000Y185000D02*
X169000D01*
Y195000D01*
G01X175000Y30000D02*
X185000D01*
Y15000D01*
G01X181228Y58391D02*
G03I-1969J0D01*
G01X175323Y54454D02*
X224535D01*
Y103666D01*
X175323D01*
Y54454D01*
G01X175000Y195000D02*
Y185000D01*
X185000D01*
Y195000D01*
G01Y185000D02*
X195000D01*
Y195000D01*
G01Y15000D02*
Y25000D01*
X205000D01*
Y15000D01*
G01X193110Y119685D02*
X195079D01*
Y125591D01*
X193110D01*
Y119685D01*
G01X195000Y185000D02*
X205000D01*
Y195000D01*
G01Y25000D02*
X215000D01*
Y15000D01*
G01Y25000D02*
X225000D01*
Y15000D01*
G01X205000Y185000D02*
X215000D01*
Y195000D01*
G01Y185000D02*
X225000D01*
Y195000D01*
G01Y25000D02*
X235000D01*
Y15000D01*
G01X225000Y185000D02*
X235000D01*
Y195000D01*
G01Y25000D02*
X245000D01*
Y15000D01*
G01Y25000D02*
X255000D01*
Y15000D01*
G01X253937Y54134D02*
Y56102D01*
X248031D01*
Y54134D01*
X253937D01*
G01X243504Y57087D02*
X238780D01*
G01X253937Y69882D02*
Y71850D01*
X248031D01*
Y69882D01*
X253937D01*
G01Y85630D02*
Y87598D01*
X248031D01*
Y85630D01*
X253937D01*
G01X245551Y124803D02*
Y94803D01*
X265551D01*
Y124803D01*
X245551D01*
G01X235000Y185000D02*
X245000D01*
Y195000D01*
G01Y185000D02*
X255000D01*
Y195000D01*
G01X239016Y170276D02*
Y174213D01*
G01X265748Y54134D02*
Y56102D01*
X259843D01*
Y54134D01*
X265748D01*
G01Y69882D02*
Y71850D01*
X259843D01*
Y69882D01*
X265748D01*
G01Y85630D02*
Y87598D01*
X259843D01*
Y85630D01*
X265748D01*
G01X281496Y64331D02*
X268701D01*
Y15118D01*
X281496D01*
G01Y129606D02*
X268701D01*
Y80394D01*
X281496D01*
G01Y194882D02*
X268701D01*
Y145669D01*
X281496D01*
G01X291339Y11417D02*
Y8661D01*
G01Y76772D02*
Y74016D01*
G01Y142126D02*
Y139370D01*
G54D11*
G01X276575Y39764D02*
X270669D01*
X271850Y38819D01*
G01X276575D02*
Y40709D01*
G01X271654Y103622D02*
X271063Y104094D01*
X270768Y104646D01*
X270669Y105276D01*
X270866Y106063D01*
X271358Y106614D01*
X271949Y106772D01*
X272539Y106693D01*
X273031Y106378D01*
X274016Y104803D01*
X274705Y104094D01*
X275689Y103622D01*
X276575Y103465D01*
Y106772D01*
G01X275394Y168543D02*
X276083Y169016D01*
X276476Y169646D01*
X276575Y170354D01*
X276476Y170984D01*
X275984Y171614D01*
X275394Y172008D01*
X274803Y172087D01*
X274114Y171929D01*
X273622Y171378D01*
X273425Y170827D01*
Y170118D01*
G01Y170827D02*
X273130Y171299D01*
X272638Y171693D01*
X272047Y171850D01*
X271457Y171693D01*
X270965Y171299D01*
X270669Y170591D01*
X270768Y169882D01*
X271161Y169173D01*
G54D12*
G01X243406Y163386D02*
Y161417D01*
G01X242726Y163386D02*
X244085D01*
G01X245000Y161417D02*
Y163386D01*
X245768Y161745D01*
X246535Y163386D01*
Y161417D01*
G54D13*
G01X83858Y171063D02*
G02I-1181J0D01*
G54D14*
G01X10728Y120669D02*
G02I-492J0D01*
G01X11319Y189567D02*
G02I-492J0D01*
G01X29232Y50984D02*
G02I-492J0D01*
G01X28445Y123031D02*
G03I-492J0D01*
G01X46555Y78740D02*
G02I-492J0D01*
G01X73327Y173031D02*
G02I-492J0D01*
G01X105807Y62008D02*
G02I-492J0D01*
G01X110925Y82677D02*
G02I-492J0D01*
G01X129232Y64961D02*
G02I-492J0D01*
G01X130413Y80315D02*
G02I-492J0D01*
G01X132087Y150394D02*
G03I-492J0D01*
G01X140429Y104280D02*
G02I-492J0D01*
G01X156201Y47835D02*
G02I-492J0D01*
G01X173846Y48351D02*
G03I-492J0D01*
G01X189665Y128543D02*
G02I-492J0D01*
G01X245965Y50394D02*
G02I-492J0D01*
G01Y66142D02*
G02I-492J0D01*
G01Y81890D02*
G02I-492J0D01*
G01X247972Y172244D02*
G02I-492J0D01*
G01X257382Y50197D02*
G02I-492J0D01*
G01Y65945D02*
G02I-492J0D01*
G01Y81693D02*
G02I-492J0D01*
G01X280020Y54488D02*
G03I-492J0D01*
G01Y119764D02*
G03I-492J0D01*
G01Y185039D02*
G03I-492J0D01*
G01X284941Y10039D02*
G02I-492J0D01*
G01Y75394D02*
G02I-492J0D01*
G01Y140748D02*
G02I-492J0D01*
G54D15*
G01X6417Y4921D02*
X6496Y5604D01*
X6614Y6181D01*
X6772Y6706D01*
X6969Y7283D01*
X7283Y8071D01*
X5709D01*
G01X9567Y4816D02*
X9488Y4869D01*
Y4974D01*
X9567Y5026D01*
X9646Y4974D01*
Y4869D01*
X9567Y4816D01*
G01X11772Y5394D02*
X12008Y5131D01*
X12283Y4974D01*
X12638Y4921D01*
X12992Y5026D01*
X13268Y5236D01*
X13465Y5604D01*
X13504Y6024D01*
X13425Y6444D01*
X13228Y6706D01*
X12953Y6916D01*
X12677Y6969D01*
X12402Y6916D01*
X12047Y6706D01*
X12165Y8071D01*
X13228D01*
G01X15197Y5971D02*
X16220D01*
G01X18780Y4921D02*
Y8071D01*
X18307Y7441D01*
G01Y4921D02*
X19252D01*
G01X21102Y7546D02*
X21339Y7861D01*
X21614Y8019D01*
X21929Y8071D01*
X22323Y7966D01*
X22598Y7704D01*
X22677Y7389D01*
X22638Y7073D01*
X22480Y6811D01*
X21693Y6286D01*
X21339Y5919D01*
X21102Y5394D01*
X21024Y4921D01*
X22677D01*
G01X23937Y8071D02*
X24921Y4921D01*
X25906Y8071D01*
G01X6772Y203017D02*
X7756Y206167D01*
X8740Y203017D01*
G01X8386Y204119D02*
X7126D01*
G01X11693Y205904D02*
X11457Y206061D01*
X11181Y206167D01*
X10866D01*
X10512Y206009D01*
X10236Y205746D01*
X10039Y205431D01*
X9882Y204907D01*
X9843Y204434D01*
X9921Y203962D01*
X10039Y203647D01*
X10276Y203332D01*
X10551Y203122D01*
X10827Y203017D01*
X11102D01*
X11378Y203122D01*
X11614Y203280D01*
X11811Y203489D01*
G01X13898Y206167D02*
Y203017D01*
G01X12992Y206167D02*
X14803D01*
G01X32611Y84055D02*
Y88780D01*
X33871D01*
X34291Y88543D01*
X34606Y87992D01*
X34711Y87362D01*
X34606Y86732D01*
X34344Y86260D01*
X33871Y86024D01*
X32611D01*
G01X36024Y88780D02*
X36759Y84055D01*
X37598Y88780D01*
X38438Y84055D01*
X39173Y88780D01*
G01X40485Y84055D02*
Y88780D01*
X41798D01*
X42218Y88543D01*
X42480Y88228D01*
X42585Y87598D01*
X42480Y86969D01*
X42165Y86575D01*
X41798Y86339D01*
X40485D01*
G01X41798D02*
X42585Y84055D01*
G01X62992Y3871D02*
Y7021D01*
X64016Y4396D01*
X65039Y7021D01*
Y3871D01*
G01X67087Y5971D02*
Y3871D01*
G01Y6811D02*
X67008Y6863D01*
Y6969D01*
X67087Y7021D01*
X67165Y6969D01*
Y6863D01*
X67087Y6811D01*
G01X70787Y5709D02*
X70512Y5919D01*
X70276Y5971D01*
X69961Y5866D01*
X69724Y5656D01*
X69567Y5289D01*
X69528Y4921D01*
X69567Y4554D01*
X69724Y4239D01*
X69961Y3976D01*
X70276Y3871D01*
X70551Y3976D01*
X70787Y4186D01*
G01X72677Y3871D02*
Y5971D01*
G01Y5551D02*
X72874Y5761D01*
X73071Y5919D01*
X73346Y5971D01*
X73543Y5919D01*
X73780Y5761D01*
G01X76299Y3871D02*
X76063Y3924D01*
X75827Y4134D01*
X75669Y4501D01*
X75591Y4921D01*
X75669Y5341D01*
X75827Y5709D01*
X76063Y5919D01*
X76299Y5971D01*
X76535Y5919D01*
X76772Y5709D01*
X76929Y5341D01*
X76969Y4921D01*
X76929Y4501D01*
X76772Y4134D01*
X76535Y3924D01*
X76299Y3871D01*
G01X78543Y4291D02*
X78858Y4029D01*
X79213Y3871D01*
X79528D01*
X79843Y4029D01*
X80079Y4291D01*
X80197Y4659D01*
X80118Y5026D01*
X79921Y5341D01*
X79567Y5551D01*
X79094Y5656D01*
X78819Y5866D01*
X78701Y6233D01*
X78780Y6601D01*
X78976Y6863D01*
X79252Y7021D01*
X79528D01*
X79803Y6916D01*
X80039Y6654D01*
G01X81575Y3871D02*
Y7021D01*
X82362D01*
X82677Y6863D01*
X82913Y6654D01*
X83110Y6339D01*
X83268Y5971D01*
X83307Y5446D01*
X83268Y4921D01*
X83110Y4554D01*
X82913Y4239D01*
X82677Y4029D01*
X82362Y3871D01*
X81575D01*
G01X75870Y186496D02*
X76264Y186916D01*
X76500Y187389D01*
Y187808D01*
X76264Y188228D01*
X75870Y188543D01*
X75319Y188701D01*
X74768Y188596D01*
X74295Y188333D01*
X73980Y187861D01*
X73823Y187231D01*
X73508Y186863D01*
X72957Y186706D01*
X72406Y186811D01*
X72012Y187074D01*
X71776Y187441D01*
Y187808D01*
X71933Y188176D01*
X72327Y188491D01*
G01X72169Y192690D02*
X71933Y192375D01*
X71776Y192008D01*
Y191588D01*
X72012Y191115D01*
X72406Y190748D01*
X72878Y190485D01*
X73665Y190276D01*
X74374Y190223D01*
X75083Y190328D01*
X75555Y190485D01*
X76028Y190800D01*
X76343Y191168D01*
X76500Y191535D01*
Y191903D01*
X76343Y192270D01*
X76106Y192585D01*
X75791Y192848D01*
G01X85870Y186496D02*
X86264Y186916D01*
X86500Y187389D01*
Y187808D01*
X86264Y188228D01*
X85870Y188543D01*
X85319Y188701D01*
X84768Y188596D01*
X84295Y188333D01*
X83980Y187861D01*
X83823Y187231D01*
X83508Y186863D01*
X82957Y186706D01*
X82406Y186811D01*
X82012Y187074D01*
X81776Y187441D01*
Y187808D01*
X81933Y188176D01*
X82327Y188491D01*
G01X86500Y190381D02*
X81776D01*
Y191430D01*
X82012Y191850D01*
X82327Y192165D01*
X82799Y192428D01*
X83350Y192638D01*
X84138Y192690D01*
X84925Y192638D01*
X85476Y192428D01*
X85949Y192165D01*
X86264Y191850D01*
X86500Y191430D01*
Y190381D01*
G01X104213Y184370D02*
Y185420D01*
X105630D01*
X106102Y185105D01*
X106417Y184737D01*
X106575Y184213D01*
X106417Y183688D01*
X106102Y183320D01*
X105630Y183005D01*
X105079Y182795D01*
X104449Y182690D01*
X103898D01*
X103425Y182795D01*
X102874Y183005D01*
X102402Y183320D01*
X102087Y183635D01*
X101850Y184055D01*
Y184422D01*
X102008Y184843D01*
X102323Y185157D01*
G01X106575Y186785D02*
X101850D01*
X106575Y189200D01*
X101850D01*
G01X106575Y190774D02*
X101850D01*
Y191824D01*
X102087Y192244D01*
X102402Y192559D01*
X102874Y192822D01*
X103425Y193031D01*
X104213Y193084D01*
X105000Y193031D01*
X105551Y192822D01*
X106024Y192559D01*
X106339Y192244D01*
X106575Y191824D01*
Y190774D01*
G01X117776Y17677D02*
Y18937D01*
G01Y18307D02*
X122500D01*
G01Y17677D02*
Y18937D01*
G01Y22244D02*
X122421Y21824D01*
X122106Y21457D01*
X121634Y21142D01*
X121083Y20932D01*
X120453Y20827D01*
X119823D01*
X119193Y20932D01*
X118642Y21142D01*
X118169Y21457D01*
X117854Y21824D01*
X117776Y22244D01*
X117854Y22664D01*
X118169Y23031D01*
X118642Y23346D01*
X119193Y23556D01*
X119823Y23661D01*
X120453D01*
X121083Y23556D01*
X121634Y23346D01*
X122106Y23031D01*
X122421Y22664D01*
X122500Y22244D01*
G01Y25131D02*
X117776D01*
Y26444D01*
X118012Y26863D01*
X118327Y27126D01*
X118957Y27231D01*
X119587Y27126D01*
X119980Y26811D01*
X120217Y26444D01*
Y25131D01*
G01Y26444D02*
X122500Y27231D01*
G01Y31168D02*
Y29068D01*
X117776D01*
Y31168D01*
G01X120059Y30328D02*
Y29068D01*
G01X122500Y33058D02*
X117776D01*
Y35052D01*
G01X120059Y34318D02*
Y33058D01*
G01X116500Y187598D02*
X111776D01*
X112720Y186969D01*
G01X116500D02*
Y188228D01*
G01X115555Y190381D02*
X116106Y190696D01*
X116421Y191115D01*
X116500Y191588D01*
X116421Y192008D01*
X116028Y192428D01*
X115555Y192690D01*
X115083Y192743D01*
X114531Y192638D01*
X114138Y192270D01*
X113980Y191903D01*
Y191430D01*
G01Y191903D02*
X113744Y192218D01*
X113350Y192480D01*
X112878Y192585D01*
X112406Y192480D01*
X112012Y192218D01*
X111776Y191745D01*
X111854Y191273D01*
X112169Y190800D01*
G01X132657Y17362D02*
X127776Y19252D01*
G01X132500Y21194D02*
X127776D01*
Y22507D01*
X128012Y22926D01*
X128327Y23189D01*
X128957Y23294D01*
X129587Y23189D01*
X129980Y22874D01*
X130217Y22507D01*
Y21194D01*
G01Y22507D02*
X132500Y23294D01*
G01Y27231D02*
Y25131D01*
X127776D01*
Y27231D01*
G01X130059Y26391D02*
Y25131D01*
G01X131870Y29016D02*
X132264Y29436D01*
X132500Y29908D01*
Y30328D01*
X132264Y30748D01*
X131870Y31063D01*
X131319Y31220D01*
X130768Y31115D01*
X130295Y30853D01*
X129980Y30381D01*
X129823Y29751D01*
X129508Y29383D01*
X128957Y29226D01*
X128406Y29331D01*
X128012Y29593D01*
X127776Y29961D01*
Y30328D01*
X127933Y30696D01*
X128327Y31011D01*
G01X132500Y35105D02*
Y33005D01*
X127776D01*
Y35105D01*
G01X130059Y34265D02*
Y33005D01*
G01X127776Y37992D02*
X132500D01*
G01X127776Y36785D02*
Y39200D01*
G01X136500Y187598D02*
X131776D01*
X132720Y186969D01*
G01X136500D02*
Y188228D01*
G01Y191535D02*
X131776D01*
X132720Y190906D01*
G01X136500D02*
Y192165D01*
G01X126500Y187598D02*
X121776D01*
X122720Y186969D01*
G01X126500D02*
Y188228D01*
G01X122563Y190538D02*
X122091Y190853D01*
X121854Y191220D01*
X121776Y191641D01*
X121933Y192165D01*
X122327Y192533D01*
X122799Y192638D01*
X123272Y192585D01*
X123665Y192375D01*
X124453Y191326D01*
X125004Y190853D01*
X125791Y190538D01*
X126500Y190433D01*
Y192638D01*
G01X141555Y17152D02*
X142106Y17467D01*
X142421Y17887D01*
X142500Y18359D01*
X142421Y18780D01*
X142028Y19200D01*
X141555Y19462D01*
X141083Y19515D01*
X140531Y19409D01*
X140138Y19042D01*
X139980Y18674D01*
Y18202D01*
G01Y18674D02*
X139744Y18989D01*
X139350Y19252D01*
X138878Y19357D01*
X138406Y19252D01*
X138012Y18989D01*
X137776Y18517D01*
X137854Y18044D01*
X138169Y17572D01*
G01X137776Y20932D02*
X142500Y22244D01*
X137776Y23556D01*
G01X141555Y25026D02*
X142106Y25341D01*
X142421Y25761D01*
X142500Y26233D01*
X142421Y26654D01*
X142028Y27074D01*
X141555Y27336D01*
X141083Y27389D01*
X140531Y27283D01*
X140138Y26916D01*
X139980Y26548D01*
Y26076D01*
G01Y26548D02*
X139744Y26863D01*
X139350Y27126D01*
X138878Y27231D01*
X138406Y27126D01*
X138012Y26863D01*
X137776Y26391D01*
X137854Y25919D01*
X138169Y25446D01*
G01X151791Y17152D02*
X152185Y17467D01*
X152421Y17835D01*
X152500Y18307D01*
X152343Y18780D01*
X152028Y19147D01*
X151476Y19409D01*
X150846Y19462D01*
X150217Y19357D01*
X149823Y19094D01*
X149508Y18727D01*
X149429Y18359D01*
X149508Y17992D01*
X149823Y17520D01*
X147776Y17677D01*
Y19094D01*
G01Y20932D02*
X152500Y22244D01*
X147776Y23556D01*
G01X141706Y31850D02*
Y36575D01*
X142966D01*
X143386Y36339D01*
X143701Y35787D01*
X143806Y35157D01*
X143701Y34528D01*
X143438Y34055D01*
X142966Y33819D01*
X141706D01*
G01X146693Y31850D02*
X146378Y31929D01*
X146063Y32244D01*
X145853Y32795D01*
X145748Y33425D01*
X145853Y34055D01*
X146063Y34606D01*
X146378Y34921D01*
X146693Y35000D01*
X147008Y34921D01*
X147323Y34606D01*
X147533Y34055D01*
X147585Y33425D01*
X147533Y32795D01*
X147323Y32244D01*
X147008Y31929D01*
X146693Y31850D01*
G01X149318Y35000D02*
X149948Y31850D01*
X150630Y35000D01*
X151312Y31850D01*
X151942Y35000D01*
G01X153780Y33976D02*
X155459D01*
X155302Y34528D01*
X155039Y34843D01*
X154672Y35000D01*
X154304Y34921D01*
X153989Y34685D01*
X153780Y34134D01*
X153674Y33661D01*
Y33189D01*
X153780Y32717D01*
X154042Y32244D01*
X154357Y31929D01*
X154724Y31850D01*
X155092Y32008D01*
X155459Y32480D01*
G01X157769Y31850D02*
Y35000D01*
G01Y34370D02*
X158031Y34685D01*
X158294Y34921D01*
X158661Y35000D01*
X158924Y34921D01*
X159239Y34685D01*
G01X155949Y190643D02*
X156343Y191011D01*
X156500Y191430D01*
X156343Y191850D01*
X155870Y192218D01*
X155161Y192480D01*
X154453Y192585D01*
X153587D01*
X152878Y192480D01*
X152248Y192218D01*
X151933Y191903D01*
X151776Y191535D01*
X151933Y191115D01*
X152248Y190800D01*
X152720Y190591D01*
X153350Y190485D01*
X153902Y190591D01*
X154453Y190853D01*
X154768Y191168D01*
X154846Y191535D01*
X154689Y191956D01*
X154295Y192270D01*
X153587Y192585D01*
G01X146500Y187598D02*
X141776D01*
X142720Y186969D01*
G01X146500D02*
Y188228D01*
G01X141776Y191535D02*
X141933Y191115D01*
X142327Y190800D01*
X142799Y190591D01*
X143429Y190433D01*
X144138Y190381D01*
X144846Y190433D01*
X145476Y190591D01*
X145949Y190800D01*
X146343Y191115D01*
X146500Y191535D01*
X146343Y191956D01*
X145949Y192270D01*
X145476Y192480D01*
X144846Y192638D01*
X144138Y192690D01*
X143429Y192638D01*
X142799Y192480D01*
X142327Y192270D01*
X141933Y191956D01*
X141776Y191535D01*
G01X160138Y18622D02*
Y19672D01*
X161555D01*
X162028Y19357D01*
X162343Y18989D01*
X162500Y18465D01*
X162343Y17940D01*
X162028Y17572D01*
X161555Y17257D01*
X161004Y17047D01*
X160374Y16942D01*
X159823D01*
X159350Y17047D01*
X158799Y17257D01*
X158327Y17572D01*
X158012Y17887D01*
X157776Y18307D01*
Y18674D01*
X157933Y19094D01*
X158248Y19409D01*
G01X162500Y21037D02*
X157776D01*
X162500Y23452D01*
X157776D01*
G01X162500Y25026D02*
X157776D01*
Y26076D01*
X158012Y26496D01*
X158327Y26811D01*
X158799Y27074D01*
X159350Y27283D01*
X160138Y27336D01*
X160925Y27283D01*
X161476Y27074D01*
X161949Y26811D01*
X162264Y26496D01*
X162500Y26076D01*
Y25026D01*
G01X170138Y18622D02*
Y19672D01*
X171555D01*
X172028Y19357D01*
X172343Y18989D01*
X172500Y18465D01*
X172343Y17940D01*
X172028Y17572D01*
X171555Y17257D01*
X171004Y17047D01*
X170374Y16942D01*
X169823D01*
X169350Y17047D01*
X168799Y17257D01*
X168327Y17572D01*
X168012Y17887D01*
X167776Y18307D01*
Y18674D01*
X167933Y19094D01*
X168248Y19409D01*
G01X172500Y21037D02*
X167776D01*
X172500Y23452D01*
X167776D01*
G01X172500Y25026D02*
X167776D01*
Y26076D01*
X168012Y26496D01*
X168327Y26811D01*
X168799Y27074D01*
X169350Y27283D01*
X170138Y27336D01*
X170925Y27283D01*
X171476Y27074D01*
X171949Y26811D01*
X172264Y26496D01*
X172500Y26076D01*
Y25026D01*
G01X160263Y177559D02*
Y182283D01*
X161312D01*
X161732Y182047D01*
X162047Y181732D01*
X162310Y181260D01*
X162520Y180709D01*
X162572Y179921D01*
X162520Y179134D01*
X162310Y178583D01*
X162047Y178110D01*
X161732Y177795D01*
X161312Y177559D01*
X160263D01*
G01X165354Y180709D02*
Y177559D01*
G01Y181969D02*
X165249Y182047D01*
Y182205D01*
X165354Y182283D01*
X165459Y182205D01*
Y182047D01*
X165354Y181969D01*
G01X168556Y176378D02*
X168924Y176063D01*
X169344Y175984D01*
X169711Y176063D01*
X170026Y176457D01*
X170236Y177008D01*
Y180709D01*
G01Y180079D02*
X170026Y180394D01*
X169711Y180630D01*
X169344Y180709D01*
X168924Y180551D01*
X168661Y180236D01*
X168452Y179685D01*
X168346Y179134D01*
X168399Y178661D01*
X168609Y178110D01*
X168924Y177717D01*
X169344Y177559D01*
X169659Y177638D01*
X170026Y177953D01*
X170236Y178268D01*
G01X173228Y180709D02*
Y177559D01*
G01Y181969D02*
X173123Y182047D01*
Y182205D01*
X173228Y182283D01*
X173333Y182205D01*
Y182047D01*
X173228Y181969D01*
G01X177165Y182283D02*
Y177559D01*
G01X176430Y180709D02*
X177900D01*
G01X182047Y177559D02*
Y180709D01*
G01Y180157D02*
X181837Y180472D01*
X181522Y180630D01*
X181155Y180709D01*
X180787Y180551D01*
X180472Y180236D01*
X180263Y179764D01*
X180157Y179134D01*
X180263Y178504D01*
X180472Y178031D01*
X180787Y177717D01*
X181155Y177559D01*
X181522Y177638D01*
X181837Y177874D01*
X182047Y178189D01*
G01X185039Y177559D02*
Y182283D01*
G01X192283D02*
X193543D01*
G01X192913D02*
Y177559D01*
G01X192283D02*
X193543D01*
G01X195906Y177402D02*
X197795Y182283D01*
G01X200787Y177559D02*
X200367Y177638D01*
X200000Y177953D01*
X199685Y178425D01*
X199475Y178976D01*
X199370Y179606D01*
Y180236D01*
X199475Y180866D01*
X199685Y181417D01*
X200000Y181890D01*
X200367Y182205D01*
X200787Y182283D01*
X201207Y182205D01*
X201575Y181890D01*
X201890Y181417D01*
X202100Y180866D01*
X202205Y180236D01*
Y179606D01*
X202100Y178976D01*
X201890Y178425D01*
X201575Y177953D01*
X201207Y177638D01*
X200787Y177559D01*
G01X166500Y191535D02*
X166421Y191903D01*
X166185Y192323D01*
X165791Y192585D01*
X165240Y192690D01*
X164689Y192585D01*
X164217Y192270D01*
X163980Y191798D01*
Y191273D01*
X163823Y190958D01*
X163429Y190696D01*
X162878Y190591D01*
X162327Y190748D01*
X161933Y191115D01*
X161776Y191535D01*
X161933Y191956D01*
X162327Y192323D01*
X162878Y192480D01*
X163429Y192375D01*
X163823Y192113D01*
X163980Y191798D01*
Y191273D01*
X164217Y190800D01*
X164689Y190485D01*
X165240Y190381D01*
X165791Y190485D01*
X166185Y190748D01*
X166421Y191168D01*
X166500Y191535D01*
G01X177776Y16995D02*
X182500Y18307D01*
X177776Y19619D01*
G01Y21614D02*
Y22874D01*
G01Y22244D02*
X182500D01*
G01Y21614D02*
Y22874D01*
G01Y24974D02*
X177776D01*
X182500Y27389D01*
X177776D01*
G01X182500Y191430D02*
X181476Y191535D01*
X180610Y191693D01*
X179823Y191903D01*
X178957Y192165D01*
X177776Y192585D01*
Y190485D01*
G01X197776Y18307D02*
X197933Y17887D01*
X198327Y17572D01*
X198799Y17362D01*
X199429Y17205D01*
X200138Y17152D01*
X200846Y17205D01*
X201476Y17362D01*
X201949Y17572D01*
X202343Y17887D01*
X202500Y18307D01*
X202343Y18727D01*
X201949Y19042D01*
X201476Y19252D01*
X200846Y19409D01*
X200138Y19462D01*
X199429Y19409D01*
X198799Y19252D01*
X198327Y19042D01*
X197933Y18727D01*
X197776Y18307D01*
G01X201791Y190381D02*
X202185Y190696D01*
X202421Y191063D01*
X202500Y191535D01*
X202343Y192008D01*
X202028Y192375D01*
X201476Y192638D01*
X200846Y192690D01*
X200217Y192585D01*
X199823Y192323D01*
X199508Y191956D01*
X199429Y191588D01*
X199508Y191220D01*
X199823Y190748D01*
X197776Y190906D01*
Y192323D01*
G01X190531Y190538D02*
X189980Y190906D01*
X189665Y191220D01*
X189508Y191641D01*
X189665Y192008D01*
X189980Y192270D01*
X190453Y192480D01*
X191004Y192533D01*
X191476Y192480D01*
X191949Y192270D01*
X192343Y191956D01*
X192500Y191588D01*
X192343Y191168D01*
X191870Y190800D01*
X191161Y190591D01*
X190374Y190538D01*
X189350Y190643D01*
X188799Y190800D01*
X188248Y191063D01*
X187854Y191430D01*
X187776Y191798D01*
X187933Y192165D01*
X188327Y192428D01*
G01X212500Y18307D02*
X207776D01*
X208720Y17677D01*
G01X212500D02*
Y18937D01*
G01X217192Y28543D02*
X218504Y33268D01*
X219816Y28543D01*
G01X219344Y30197D02*
X217664D01*
G01X221548Y28543D02*
Y31693D01*
G01Y30906D02*
X221759Y31299D01*
X222074Y31614D01*
X222493Y31693D01*
X222861Y31614D01*
X223176Y31299D01*
X223333Y30748D01*
Y28543D01*
G01X227323D02*
Y31693D01*
G01Y31142D02*
X227113Y31457D01*
X226798Y31614D01*
X226430Y31693D01*
X226063Y31535D01*
X225748Y31220D01*
X225538Y30748D01*
X225433Y30118D01*
X225538Y29488D01*
X225748Y29016D01*
X226063Y28701D01*
X226430Y28543D01*
X226798Y28622D01*
X227113Y28858D01*
X227323Y29173D01*
G01X230315Y28543D02*
Y33268D01*
G01X234252Y28543D02*
X233937Y28622D01*
X233622Y28937D01*
X233412Y29488D01*
X233307Y30118D01*
X233412Y30748D01*
X233622Y31299D01*
X233937Y31614D01*
X234252Y31693D01*
X234567Y31614D01*
X234882Y31299D01*
X235092Y30748D01*
X235144Y30118D01*
X235092Y29488D01*
X234882Y28937D01*
X234567Y28622D01*
X234252Y28543D01*
G01X237454Y27362D02*
X237822Y27047D01*
X238241Y26969D01*
X238609Y27047D01*
X238924Y27441D01*
X239134Y27992D01*
Y31693D01*
G01Y31063D02*
X238924Y31378D01*
X238609Y31614D01*
X238241Y31693D01*
X237822Y31535D01*
X237559Y31220D01*
X237349Y30669D01*
X237244Y30118D01*
X237296Y29646D01*
X237507Y29094D01*
X237822Y28701D01*
X238241Y28543D01*
X238556Y28622D01*
X238924Y28937D01*
X239134Y29252D01*
G01X245433Y33268D02*
X246693D01*
G01X246063D02*
Y28543D01*
G01X245433D02*
X246693D01*
G01X249107D02*
Y31693D01*
G01Y30906D02*
X249318Y31299D01*
X249633Y31614D01*
X250052Y31693D01*
X250420Y31614D01*
X250735Y31299D01*
X250893Y30748D01*
Y28543D01*
G01X212500Y192165D02*
X207776D01*
X211161Y190223D01*
Y192848D01*
G01X218563Y17310D02*
X218091Y17625D01*
X217854Y17992D01*
X217776Y18412D01*
X217933Y18937D01*
X218327Y19304D01*
X218799Y19409D01*
X219272Y19357D01*
X219665Y19147D01*
X220453Y18097D01*
X221004Y17625D01*
X221791Y17310D01*
X222500Y17205D01*
Y19409D01*
G01X231555Y17152D02*
X232106Y17467D01*
X232421Y17887D01*
X232500Y18359D01*
X232421Y18780D01*
X232028Y19200D01*
X231555Y19462D01*
X231083Y19515D01*
X230531Y19409D01*
X230138Y19042D01*
X229980Y18674D01*
Y18202D01*
G01Y18674D02*
X229744Y18989D01*
X229350Y19252D01*
X228878Y19357D01*
X228406Y19252D01*
X228012Y18989D01*
X227776Y18517D01*
X227854Y18044D01*
X228169Y17572D01*
G01X228563Y190538D02*
X228091Y190853D01*
X227854Y191220D01*
X227776Y191641D01*
X227933Y192165D01*
X228327Y192533D01*
X228799Y192638D01*
X229272Y192585D01*
X229665Y192375D01*
X230453Y191326D01*
X231004Y190853D01*
X231791Y190538D01*
X232500Y190433D01*
Y192638D01*
G01X221555Y190381D02*
X222106Y190696D01*
X222421Y191115D01*
X222500Y191588D01*
X222421Y192008D01*
X222028Y192428D01*
X221555Y192690D01*
X221083Y192743D01*
X220531Y192638D01*
X220138Y192270D01*
X219980Y191903D01*
Y191430D01*
G01Y191903D02*
X219744Y192218D01*
X219350Y192480D01*
X218878Y192585D01*
X218406Y192480D01*
X218012Y192218D01*
X217776Y191745D01*
X217854Y191273D01*
X218169Y190800D01*
G01X242500Y18937D02*
X237776D01*
X241161Y16995D01*
Y19619D01*
G01X251791Y17152D02*
X252185Y17467D01*
X252421Y17835D01*
X252500Y18307D01*
X252343Y18780D01*
X252028Y19147D01*
X251476Y19409D01*
X250846Y19462D01*
X250217Y19357D01*
X249823Y19094D01*
X249508Y18727D01*
X249429Y18359D01*
X249508Y17992D01*
X249823Y17520D01*
X247776Y17677D01*
Y19094D01*
G01X252756Y126969D02*
X248031D01*
X248976Y126339D01*
G01X252756D02*
Y127598D01*
G01X234029Y182283D02*
Y177559D01*
X236129D01*
G01X240066D02*
X237966D01*
Y182283D01*
X240066D01*
G01X239226Y180000D02*
X237966D01*
G01X241798Y177559D02*
Y182283D01*
X242848D01*
X243268Y182047D01*
X243583Y181732D01*
X243845Y181260D01*
X244055Y180709D01*
X244107Y179921D01*
X244055Y179134D01*
X243845Y178583D01*
X243583Y178110D01*
X243268Y177795D01*
X242848Y177559D01*
X241798D01*
G01X247776Y191535D02*
X247933Y191115D01*
X248327Y190800D01*
X248799Y190591D01*
X249429Y190433D01*
X250138Y190381D01*
X250846Y190433D01*
X251476Y190591D01*
X251949Y190800D01*
X252343Y191115D01*
X252500Y191535D01*
X252343Y191956D01*
X251949Y192270D01*
X251476Y192480D01*
X250846Y192638D01*
X250138Y192690D01*
X249429Y192638D01*
X248799Y192480D01*
X248327Y192270D01*
X247933Y191956D01*
X247776Y191535D01*
G01X242500D02*
X237776D01*
X238720Y190906D01*
G01X242500D02*
Y192165D01*
G01X252913Y39304D02*
Y42454D01*
X253898D01*
X254213Y42296D01*
X254409Y42087D01*
X254488Y41667D01*
X254409Y41246D01*
X254173Y40984D01*
X253898Y40827D01*
X252913D01*
G01X253898D02*
X254488Y39304D01*
G01X257559D02*
X255984D01*
Y42454D01*
X257559D01*
G01X256929Y40931D02*
X255984D01*
G01X258858Y42454D02*
X259843Y39304D01*
X260827Y42454D01*
G01X262913Y39199D02*
X262835Y39252D01*
Y39357D01*
X262913Y39409D01*
X262992Y39357D01*
Y39252D01*
X262913Y39199D01*
G01X265000Y39304D02*
X265984Y42454D01*
X266969Y39304D01*
G01X266614Y40407D02*
X265354D01*
G54D16*
G01X105200Y120300D02*
X110800D01*
Y116700D01*
X105200D01*
Y120300D01*
G01Y116800D02*
X110800D01*
Y113200D01*
X105200D01*
Y116800D01*
G01X113099Y127997D02*
Y122397D01*
X109499D01*
Y127997D01*
X113099D01*
G01X117200Y128300D02*
X122800D01*
Y124700D01*
X117200D01*
Y128300D01*
G01X121304Y135208D02*
X115704D01*
Y138808D01*
X121304D01*
Y135208D01*
G01X117200Y131800D02*
X122800D01*
Y128200D01*
X117200D01*
Y131800D01*
G01X127633Y158335D02*
X133233D01*
Y154735D01*
X127633D01*
Y158335D01*
G01X150743Y114556D02*
X156343D01*
Y110956D01*
X150743D01*
Y114556D01*
G01X149775Y156649D02*
Y162249D01*
X153375D01*
Y156649D01*
X149775D01*
G01X167249Y30917D02*
X161649D01*
Y34517D01*
X167249D01*
Y30917D01*
G01X168200Y140300D02*
X173800D01*
Y136700D01*
X168200D01*
Y140300D01*
G01X169208Y133769D02*
X174808D01*
Y130169D01*
X169208D01*
Y133769D01*
G01X168200Y143800D02*
X173800D01*
Y140200D01*
X168200D01*
Y143800D01*
G01X190625Y132587D02*
X196225D01*
Y128987D01*
X190625D01*
Y132587D01*
G01X215700Y41800D02*
X221300D01*
Y38200D01*
X215700D01*
Y41800D01*
G01X233696Y120422D02*
X239296D01*
Y116822D01*
X233696D01*
Y120422D01*
G54D17*
G01X106300Y120300D02*
X109400D01*
G01X106300Y116800D02*
X109400D01*
G01X113099Y126897D02*
Y123797D01*
G01X118300Y128300D02*
X121400D01*
G01X120204Y135208D02*
X117104D01*
G01X118300Y131800D02*
X121400D01*
G01X128733Y158335D02*
X131833D01*
G01X151843Y114556D02*
X154943D01*
G01X149775Y157749D02*
Y160849D01*
G01X166149Y30917D02*
X163049D01*
G01X170308Y133769D02*
X173408D01*
G01X169300Y140300D02*
X172400D01*
G01X169300Y143800D02*
X172400D01*
G01X191725Y132587D02*
X194825D01*
G01X216800Y41800D02*
X219900D01*
G01X234796Y120422D02*
X237896D01*
M02*
