G04 ================== begin FILE IDENTIFICATION RECORD ==================*
G04 Layout Name:  Netduino3Wifi_13Dec16.brd*
G04 Film Name:    L3-PWR*
G04 File Format:  Gerber RS274X*
G04 File Origin:  Cadence Allegro 16.6-2015-S069*
G04 Origin Date:  Tue Dec 13 09:13:06 2016*
G04 *
G04 Layer:  VIA CLASS/L3-PWR*
G04 Layer:  PIN/L3-PWR*
G04 Layer:  ETCH/L3-PWR*
G04 *
G04 Offset:    (0.0000 0.0000)*
G04 Mirror:    No*
G04 Mode:      Positive*
G04 Rotation:  0*
G04 FullContactRelief:  No*
G04 UndefLineWidth:     0.0000*
G04 ================== end FILE IDENTIFICATION RECORD ====================*
%FSLAX25Y25*MOMM*%
%IR0*IPPOS*OFA0.00000B0.00000*MIA0B0*SFA1.00000B1.00000*%
%ADD13C,.9*%
%ADD10C,.55*%
%ADD11C,.6604*%
%ADD12C,1.85*%
%ADD14C,.254*%
%ADD17C,.9504*%
%ADD19C,1.3004*%
%ADD15C,3.0504*%
%ADD18C,1.0608*%
%ADD16R,1.6504X1.9004*%
G75*
%LPD*%
G75*
G36*
G01X1328070Y5275000D02*
G02X1359340Y5210370I1J-39879D01*
G03X1525000Y4869980I164659J-130371D01*
G01Y4425000D01*
X740000Y3640000D01*
X260000D01*
X225000Y3605000D01*
Y3285000D01*
X20000D01*
X-585000Y3890000D01*
Y3989980D01*
X45020D01*
Y4580020D01*
X-585000D01*
Y4685000D01*
X5000Y5275000D01*
X1328070D01*
G37*
G36*
G01X50000Y50000D02*
Y711810D01*
G02X119830Y738140I39879J-1D01*
G03Y923020I105170J92440D01*
G02X50000Y949350I-29951J26331D01*
G01Y1854730D01*
X235020D01*
Y2037270D01*
X50000D01*
Y2527230D01*
X235020D01*
Y2709770D01*
X50000D01*
Y3264980D01*
X249130D01*
G02X303200Y3282780I35771J-17636D01*
G03Y3367220I21800J42220D01*
G02X245020Y3402660I-18299J35435D01*
G01Y3409550D01*
X245760Y3412180D01*
G03Y3437820I-45760J12820D01*
G01X245020Y3440450D01*
Y3464180D01*
X277150D01*
X282710Y3453330D01*
G03X303200Y3517220I42291J21668D01*
G02X245020Y3552660I-18299J35435D01*
G01Y3596710D01*
X268290Y3619980D01*
X464980D01*
Y3507750D01*
X461290Y3502560D01*
G03X507170Y3428020I38711J-27563D01*
G01X517140Y3429550D01*
X565440Y3381250D01*
X539820Y3355630D01*
X526230Y3364630D01*
G03X546280Y3314220I-26231J-39625D01*
G02X613320Y3333370I38840J-9050D01*
G01X629980Y3316710D01*
Y3270450D01*
X629240Y3267820D01*
G03Y3242180I45760J-12820D01*
G01X629980Y3239550D01*
Y2951710D01*
X658480Y2923210D01*
X647590Y2909300D01*
G03X730370Y2894120I37409J-29302D01*
G01X729470Y2897010D01*
Y2919980D01*
X766710D01*
X869100Y2817590D01*
G02X867870Y2760010I-28199J-28201D01*
G03X935010Y2692870I32130J-35010D01*
G02X992590Y2694100I29379J-26969D01*
G01X1406710Y2279980D01*
X2093290D01*
X2365020Y2551710D01*
Y4071710D01*
X2409860Y4116540D01*
G02X2466320Y4116480I28200J-28197D01*
G03X2533520Y4183680I33680J33520D01*
G02X2533460Y4240140I28137J28260D01*
G01X2562860Y4269550D01*
X2572830Y4268020D01*
G03X2626980Y4322170I7170J46980D01*
G01X2625450Y4332140D01*
X2715020Y4421710D01*
Y4436710D01*
X2858290Y4579980D01*
X2986710D01*
X3097820Y4468870D01*
G02X3099830Y4414630I-28199J-28202D01*
G03X3098240Y4347300I40171J-34632D01*
G02Y4322700I-15695J-12300D01*
G03Y4257300I41760J-32700D01*
G02Y4232700I-15695J-12300D01*
G03X3181760I41760J-32700D01*
G02Y4257300I15695J12300D01*
G03Y4322700I-41760J32700D01*
G02Y4347300I15695J12300D01*
G03X3183620Y4349820I-41727J32745D01*
G01X3184640Y4351300D01*
X3200010Y4366670D01*
X3334980Y4231710D01*
Y4021710D01*
X3421710Y3934980D01*
X3662440D01*
G02X3701250Y3885930I1J-39878D01*
G03X3793750I46250J-10930D01*
G02X3832560Y3934980I38809J9172D01*
G01X4211710D01*
X4249980Y3896710D01*
Y3737200D01*
G02X4207770Y3697390I-39879J1D01*
G03X4158220Y3641620I-2767J-47438D01*
G02X4135400Y3598290I-39262J-6996D01*
G03X4107480Y3554950I19600J-43290D01*
G02X4067600Y3515020I-39880J-50D01*
G01X3903290D01*
X3828290Y3590020D01*
X3786710D01*
X3754980Y3558290D01*
Y3246710D01*
X3832950Y3168730D01*
X3820020Y3154660D01*
G03X3855050Y3074980I34982J-32161D01*
G02X3894980Y3035100I50J-39880D01*
G01Y2928290D01*
X3738400Y2771710D01*
X3725600Y2777990D01*
G03X3662290Y2756800I-20920J-42669D01*
G02X3643850Y2745880I-17789J9010D01*
G03X3606830Y2666740I-1571J-47494D01*
G01X3619380Y2652690D01*
X3518210Y2551520D01*
X3504300Y2562410D01*
G03X3437590Y2495700I-29300J-37410D01*
G01X3448480Y2481790D01*
X2649980Y1683290D01*
Y1531710D01*
X2820010Y1361680D01*
G02X2811520Y1298810I-28201J-28200D01*
G03X2824210Y1211220I23481J-41312D01*
G02X2854780Y1167870I-9052J-38837D01*
G03X2898250Y1115130I47217J-5367D01*
G02X2934980Y1075370I-3150J-39756D01*
G01Y921710D01*
X2981710Y874980D01*
X3433910D01*
G02X3473190Y828210I2J-39878D01*
G03X3566810I46810J-8210D01*
G02X3606090Y874980I39278J6892D01*
G01X4150260D01*
X4154610Y860940D01*
G03X4245390I45390J14060D01*
G01X4249740Y874980D01*
X4971250D01*
X4972610Y856510D01*
G03X5067390I47390J3490D01*
G01X5068750Y874980D01*
X5163290D01*
X5518290Y1229980D01*
X6045640D01*
X6051490Y1224070D01*
G03X6119030I33770J33430D01*
G01X6124880Y1229980D01*
X6252970D01*
X6257320Y1215940D01*
G03X6325420Y1188260I45391J14061D01*
G02X6346800Y1186770I9521J-17520D01*
G03X6421380Y1214460I28240J38219D01*
G01X6424910Y1229980D01*
X6543290D01*
X6595020Y1281710D01*
Y1328290D01*
X6548040Y1375270D01*
G02X6556760Y1438270I28201J28200D01*
G03X6523230Y1560000I-31762J56734D01*
G02X6484660Y1586240I-1091J39863D01*
G03X6429450Y1523670I-44659J-16237D01*
G02X6460290Y1488670I-8852J-38887D01*
G03X6463680Y1473370I64713J6313D01*
G02X6441960Y1447010I-18801J-6637D01*
G03X6396710Y1428150I-6962J-47009D01*
G01X6390740Y1420020D01*
X6308290D01*
X6140020Y1588290D01*
Y1736710D01*
X6258290Y1854980D01*
X6291710D01*
X6327020Y1819660D01*
X6327980Y1813120D01*
G03X6368120Y1772980I47020J6880D01*
G01X6374660Y1772020D01*
X6416710Y1729980D01*
X6608290D01*
X6770020Y1891710D01*
Y2137720D01*
G02X6788490Y2157610I19940J4D01*
G03Y2252390I-3490J47390D01*
G02X6770020Y2272280I1470J19886D01*
G01Y2358290D01*
X6688990Y2439320D01*
X6702590Y2453420D01*
G03X6687420Y2629820I-84591J81578D01*
G02Y2694180I23562J32180D01*
G03Y2883820I-69420J94820D01*
G02Y2948180I23562J32180D01*
G03X6548970Y3138110I-69421J94822D01*
G01X6535200Y3128110D01*
X6500480Y3162830D01*
G02X6504190Y3222500I28202J28197D01*
G03X6437500Y3289190I-29190J37500D01*
G02X6377830Y3285480I-31473J24492D01*
G01X6321920Y3341390D01*
X6330310Y3354840D01*
G03X6264840Y3420310I-40310J25160D01*
G01X6251390Y3411920D01*
X6021730Y3641590D01*
X6020770Y3648130D01*
G03X6004760Y3677250I-47016J-6888D01*
G02X6000770Y3733720I26031J30215D01*
G03X5928720Y3795690I-35771J31281D01*
G02X5870070Y3793240I-30452J25751D01*
G01X5472400Y4190910D01*
X5472520Y4199340D01*
G03X5436730Y4246050I-47517J658D01*
G02X5421960Y4262310I4932J19318D01*
G03X5415870Y4279250I-46956J-7316D01*
G02X5420070Y4304600I17143J10183D01*
G03X5352960Y4371450I-30828J36163D01*
G02X5294310Y4369000I-30452J25751D01*
G01X4937400Y4725910D01*
X4937520Y4734340D01*
G03X4889340Y4782520I-47520J660D01*
G01X4880910Y4782400D01*
X4800020Y4863290D01*
Y4923220D01*
G02X4836380Y4962940I39880J-4D01*
G03X4920820Y5010580I-10384J117059D01*
G02X4985180I32180J-23562D01*
G03X5174820I94820J69420D01*
G02X5239180I32180J-23562D01*
G03X5428820I94820J69420D01*
G02X5493180I32180J-23562D01*
G03X5682820I94820J69420D01*
G02X5747180I32180J-23562D01*
G03X5936820I94820J69420D01*
G02X6001180I32180J-23562D01*
G03X6168130Y4987220I94823J69421D01*
G02X6231900Y4962480I24467J-31490D01*
G01X6467520D01*
Y5137910D01*
G02X6504020Y5177650I39880J4D01*
G03X6547200Y5230500I-4020J47350D01*
G02X6586810Y5275000I39611J4620D01*
G01X6663190D01*
G02X6702800Y5230500I-1J-39880D01*
G03X6797200I47200J-5500D01*
G02X6836810Y5275000I39611J4620D01*
G01X6863190D01*
G02X6902800Y5230500I-1J-39880D01*
G03X6997200I47200J-5500D01*
G02X7036810Y5275000I39611J4620D01*
G01X7063190D01*
G02X7102800Y5230500I-1J-39880D01*
G03X7197200I47200J-5500D01*
G02X7236810Y5275000I39611J4620D01*
G01X7263190D01*
G02X7302800Y5230500I-1J-39880D01*
G03X7397200I47200J-5500D01*
G02X7436810Y5275000I39611J4620D01*
G01X7463190D01*
G02X7502800Y5230500I-1J-39880D01*
G03X7592540Y5246170I47199J-5503D01*
G01X7590450Y5250370D01*
Y5275000D01*
X7625000D01*
X7676400Y5223600D01*
G02X7671840Y5163280I-28197J-28201D01*
G03X7705500Y5077800I28159J-38279D01*
G02X7750000Y5038190I4620J-39611D01*
G01Y5011810D01*
G02X7705500Y4972200I-39880J1D01*
G03Y4877800I-5500J-47200D01*
G02X7750000Y4838190I4620J-39611D01*
G01Y4811810D01*
G02X7705500Y4772200I-39880J1D01*
G03X7664850Y4756980I-5502J-47201D01*
G02X7620020Y4747010I-29494J26844D01*
G03X7652630Y4656900I-25021J-60011D01*
G02X7693460Y4677930I35345J-18471D01*
G03X7705500Y4677800I6529J47070D01*
G02X7750000Y4638190I4620J-39611D01*
G01Y4061810D01*
G02X7705500Y4022200I-39880J1D01*
G03X7667520Y4009690I-5503J-47201D01*
G02X7640070Y4009870I-13630J14551D01*
G03X7649480Y3927510I-45069J-46867D01*
G02X7676180Y3933880I16707J-10884D01*
G03X7705500Y3927800I23817J41120D01*
G02X7750000Y3888190I4620J-39611D01*
G01Y3861810D01*
G02X7705500Y3822200I-39880J1D01*
G03Y3727800I-5500J-47200D01*
G02X7750000Y3688190I4620J-39611D01*
G01Y3586810D01*
G02X7705500Y3547200I-39880J1D01*
G03Y3452800I-5500J-47200D01*
G02X7750000Y3413190I4620J-39611D01*
G01Y3386810D01*
G02X7705500Y3347200I-39880J1D01*
G03Y3252800I-5500J-47200D01*
G02X7750000Y3213190I4620J-39611D01*
G01Y3186810D01*
G02X7705500Y3147200I-39880J1D01*
G03X7655820Y3117500I-5500J-47200D01*
G02X7609710Y3093330I-37083J14676D01*
G03X7659120Y3019220I-14709J-63333D01*
G02X7699160Y3052490I39330J-6604D01*
G03X7705500Y3052800I854J47511D01*
G02X7750000Y3013190I4620J-39611D01*
G01Y2386810D01*
G02X7705500Y2347200I-39880J1D01*
G03X7673770Y2339620I-5495J-47200D01*
G02X7646860Y2344220I-11006J16629D01*
G03X7642900Y2261030I-51860J-39221D01*
G02X7670120Y2263050I14686J-13487D01*
G03X7705500Y2252800I29880J36950D01*
G02X7750000Y2213190I4620J-39611D01*
G01Y2186810D01*
G02X7705500Y2147200I-39880J1D01*
G03Y2052800I-5500J-47200D01*
G02X7750000Y2013190I4620J-39611D01*
G01Y1986810D01*
G02X7705500Y1947200I-39880J1D01*
G03Y1852800I-5500J-47200D01*
G02X7750000Y1813190I4620J-39611D01*
G01Y1786810D01*
G02X7705500Y1747200I-39880J1D01*
G03Y1652800I-5500J-47200D01*
G02X7750000Y1613190I4620J-39611D01*
G01Y1586810D01*
G02X7705500Y1547200I-39880J1D01*
G03Y1452800I-5500J-47200D01*
G02X7750000Y1413190I4620J-39611D01*
G01Y736810D01*
G02X7705500Y697200I-39880J1D01*
G03X7670860Y687540I-5504J-47201D01*
G02X7643700Y690080I-12226J15751D01*
G03X7646080Y606770I-48700J-43080D01*
G02X7673050Y610860I15666J-12336D01*
G03X7705500Y602800I26948J39140D01*
G02X7750000Y563190I4620J-39611D01*
G01Y536810D01*
G02X7705500Y497200I-39880J1D01*
G03Y402800I-5500J-47200D01*
G02X7750000Y363190I4620J-39611D01*
G01Y336810D01*
G02X7705500Y297200I-39880J1D01*
G03X7721170Y207460I-5503J-47199D01*
G01X7725370Y209550D01*
X7750000D01*
Y175000D01*
X7682830Y107830D01*
G02X7618290Y119590I-28204J28197D01*
G03X7527800Y94500I-43290J-19595D01*
G02X7488190Y50000I-39611J-4620D01*
G01X7461810D01*
G02X7422200Y94500I1J39880D01*
G03X7327800I-47200J5500D01*
G02X7288190Y50000I-39611J-4620D01*
G01X7261810D01*
G02X7222200Y94500I1J39880D01*
G03X7127800I-47200J5500D01*
G02X7088190Y50000I-39611J-4620D01*
G01X7061810D01*
G02X7022200Y94500I1J39880D01*
G03X6927800I-47200J5500D01*
G02X6888190Y50000I-39611J-4620D01*
G01X6861810D01*
G02X6822200Y94500I1J39880D01*
G03X6727800I-47200J5500D01*
G02X6688190Y50000I-39611J-4620D01*
G01X6586810D01*
G02X6547200Y94500I1J39880D01*
G03X6452800I-47200J5500D01*
G02X6413190Y50000I-39611J-4620D01*
G01X4936810D01*
G02X4897200Y94500I1J39880D01*
G03X4802800I-47200J5500D01*
G02X4763190Y50000I-39611J-4620D01*
G01X4636810D01*
G02X4597200Y94500I1J39880D01*
G03X4597170Y105730I-47201J5489D01*
G02X4620350Y146890I39590J4811D01*
G03X4463420Y298970I-48353J107112D01*
G02X4426580I-18420J7625D01*
G03X4418200Y315410I-108571J-44986D01*
G02X4423320Y341840I17002J10417D01*
G03X4348120Y387790I-28322J38159D01*
G02X4326940Y371180I-19669J3271D01*
G03X4223180Y323420I-8935J-117179D01*
G02X4158820I-32180J23562D01*
G03Y184580I-94820J-69420D01*
G02X4223180I32180J-23562D01*
G03X4412820I94820J69420D01*
G02X4477180I32180J-23562D01*
G03X4495590Y164710I94835J69403D01*
G02X4506320Y118710I-25929J-30300D01*
G03X4502800Y94500I43680J-18712D01*
G02X4463190Y50000I-39611J-4620D01*
G01X50000D01*
G37*
G36*
G01X2990000Y895000D02*
X2955000Y930000D01*
Y1255000D01*
X2670000Y1540000D01*
Y1601930D01*
G02X2722370Y1639800I39880J-3D01*
G03X2770600Y1718780I14879J45130D01*
G02X2770390Y1775390I27988J28409D01*
G01X3472020Y2477020D01*
X3479230Y2477670D01*
G03X3513730Y2497460I-4225J47332D01*
G02X3566200Y2508870I32501J-23109D01*
G03X3626560Y2580360I23802J41130D01*
G02X3629040Y2634040I30677J25480D01*
G01X3645600Y2650600D01*
X3651540Y2651780D01*
G03X3684670Y2676910I-9259J46610D01*
G01X3687300Y2682100D01*
X3697790Y2688310D01*
G03X3751380Y2744100I6891J47015D01*
G01X3749440Y2754440D01*
X3915000Y2920000D01*
Y2962110D01*
X3950150D01*
X3954170Y2947440D01*
G03X3975470Y3000700I45830J12561D01*
G02X3915000Y3034850I-20591J34153D01*
G01Y3115000D01*
X3902620Y3127380D01*
X3901350Y3133000D01*
G03X3865500Y3168850I-46350J-10500D01*
G01X3859880Y3170120D01*
X3775000Y3255000D01*
Y3550000D01*
X3795000Y3570000D01*
X3820000D01*
X3895000Y3495000D01*
X4130000D01*
X4143120Y3508120D01*
X4152090Y3507570D01*
G03X4202430Y3557910I2910J47430D01*
G01X4201880Y3566880D01*
X4270000Y3635000D01*
Y3905000D01*
X4219920Y3955080D01*
G02X4182520Y3994930I2479J39802D01*
G03X4087480I-47520J70D01*
G02X4047600Y3955000I-39880J-50D01*
G01X3956810D01*
G02X3917200Y3999500I1J39880D01*
G03X3864470Y4052200I-47201J5502D01*
G02X3821120Y4082190I-4649J39606D01*
G03X3731290Y4089370I-46118J-11460D01*
G02X3713600Y4077260I-18344J7821D01*
G03X3671600Y4010800I1569J-47493D01*
G02X3635040Y3955000I-36564J-15921D01*
G01X3430000D01*
X3355000Y4030000D01*
Y4240000D01*
X3178110Y4416890D01*
G03X3176890Y4418110I-38110J-36890D01*
G01X3005370Y4589630D01*
G02X3000000Y4639350I28203J28196D01*
G03X2914490Y4651340I-39999J25652D01*
G02X2876290Y4600000I-38199J-11459D01*
G01X2850000D01*
X2748110Y4498110D01*
G03X2746890Y4496890I36890J-38110D01*
G01X2695000Y4445000D01*
Y4430000D01*
X2615170Y4350170D01*
X2602170Y4357030D01*
G03X2537970Y4292830I-22170J-42030D01*
G01X2544830Y4279830D01*
X2345000Y4080000D01*
Y3807040D01*
G02X2291380Y3769610I-39879J7D01*
G03Y3680390I-16380J-44610D01*
G02X2345000Y3642960I13741J-37437D01*
G01Y3442260D01*
G02X2307350Y3402450I-39878J6D01*
G03X2277490Y3320340I2649J-47448D01*
G02Y3262160I-27278J-29090D01*
G03X2277350Y3192970I32509J-34661D01*
G02Y3135030I-27404J-28970D01*
G03X2320610Y3054180I32648J-34529D01*
G01X2322810Y3054680D01*
X2345000D01*
Y3014640D01*
G02X2322060Y2994930I-19940J3D01*
G01X2319200Y2995360D01*
X2317990Y2995710D01*
G03X2305070Y2902480I-12990J-45710D01*
G02X2345000Y2862600I50J-39880D01*
G01Y2560000D01*
X2085000Y2300000D01*
X1912810D01*
G02X1872980Y2338010I6J39880D01*
G03X1767020I-52980J-2490D01*
G02X1727190Y2300000I-39836J1870D01*
G01X1415000D01*
X1121770Y2593230D01*
G02X1122610Y2650430I28205J28192D01*
G03X1126280Y2654310I-32635J34544D01*
G01X1130940Y2659820D01*
X1145870Y2662460D01*
G03X1204930Y2663090I29133J37541D01*
G01X1207350Y2665060D01*
X1220570Y2670200D01*
X1232010Y2666510D01*
X1234220Y2665090D01*
G03X1285780I25780J39910D01*
G01X1287990Y2666510D01*
X1299430Y2670200D01*
X1312650Y2665060D01*
X1315070Y2663090D01*
G03X1319220Y2739910I29932J36905D01*
G01X1317010Y2738490D01*
X1305570Y2734800D01*
X1292350Y2739940D01*
X1289930Y2741910D01*
G03X1230070I-29930J-36910D01*
G01X1227650Y2739940D01*
X1214430Y2734800D01*
X1202990Y2738490D01*
X1200780Y2739910D01*
G03X1140970Y2733170I-25787J-39912D01*
G01X1138410Y2730540D01*
X1123490Y2723620D01*
X1113780Y2726200D01*
X1111840Y2727200D01*
G03X1093170Y2732410I-21839J-42202D01*
G02X1057480Y2761260I2660J39791D01*
G03X981420Y2784780I-45698J-13038D01*
G02X927740Y2787260I-25480J30677D01*
G01X775000Y2940000D01*
X670000D01*
X650000Y2960000D01*
Y3168880D01*
G02X683090Y3208170I39878J-6D01*
G03X671760Y3302410I-8099J46827D01*
G01X671720D01*
X671410Y3302390D01*
X670770Y3302360D01*
G02X650000Y3322290I-829J19924D01*
G01Y3325000D01*
X535170Y3439830D01*
X542030Y3452830D01*
G03X509350Y3521590I-42031J22170D01*
G01X503050Y3522860D01*
X485000Y3542270D01*
Y3619980D01*
X588190D01*
G02X627800Y3575490I-3J-39880D01*
G03X717550Y3591160I47202J-5490D01*
G01X715460Y3595360D01*
Y3619980D01*
X748290D01*
X748310Y3620000D01*
X750000D01*
X843790Y3713790D01*
G02X907580Y3703570I28196J-28200D01*
G03X971430Y3767420I42420J21430D01*
G02X961210Y3831210I17980J35594D01*
G01X1545000Y4415000D01*
Y4416690D01*
X1545020Y4416710D01*
Y4870370D01*
X1561410Y4873340D01*
G03X1717950Y4999420I-37406J206663D01*
G02X1786400Y5008410I36825J-15303D01*
G03X1974420Y5010580I93196J71591D01*
G02X2038780I32180J-23562D01*
G03X2228420I94820J69420D01*
G02X2292780I32180J-23562D01*
G03X2482420I94820J69420D01*
G02X2546780I32180J-23562D01*
G03X2736420I94820J69420D01*
G02X2800780I32180J-23562D01*
G03X2990420I94820J69420D01*
G02X3054780I32180J-23562D01*
G03X3244420I94820J69420D01*
G02X3308780I32180J-23562D01*
G03X3498420I94820J69420D01*
G02X3562780I32180J-23562D01*
G03X3752420I94820J69420D01*
G02X3816780I32180J-23562D01*
G03X3983730Y4987220I94823J69421D01*
G02X4047500Y4962480I24467J-31490D01*
G01X4283120D01*
Y5197520D01*
X4111510D01*
G02X4072040Y5231740I6J39880D01*
G03X4067540Y5246170I-47037J-6752D01*
G01X4065450Y5250370D01*
Y5275000D01*
X4338190D01*
G02X4377800Y5230500I-1J-39880D01*
G03X4472200I47200J-5500D01*
G02X4511810Y5275000I39611J4620D01*
G01X4613190D01*
G02X4652800Y5230500I-1J-39880D01*
G03X4652630Y5228800I47192J-5578D01*
G02X4602520Y5193490I-39750J3199D01*
G03X4666820Y5010580I-30522J-113487D01*
G02X4731180I32180J-23562D01*
G03X4769630Y4976880I94830J69412D01*
G01X4780000Y4971210D01*
Y4855000D01*
X4859800Y4775200D01*
X4850610Y4761570D01*
G03X4916570Y4695610I39390J-26570D01*
G01X4930200Y4704800D01*
X5342230Y4292770D01*
X5334240Y4279420D01*
G03X5358910Y4210280I40762J-24427D01*
G01X5363580Y4208600D01*
X5377730Y4193040D01*
X5378960Y4188230D01*
G03X5451570Y4160610I46037J11773D01*
G01X5465200Y4169800D01*
X5504640Y4130360D01*
X5489270Y4114990D01*
X5487830Y4113980D01*
G03X5545360Y4038440I27181J-38977D01*
G02X5599040Y4035960I25480J-30677D01*
G01X5949160Y3685840D01*
X5937380Y3671840D01*
G03X5960210Y3595700I36368J-30588D01*
G02X5985880Y3542650I-11354J-38230D01*
G03X6069400Y3498430I44120J-17652D01*
G02X6130660Y3504340I33066J-22293D01*
G01X6243120Y3391880D01*
X6242570Y3382910D01*
G03X6292910Y3332570I47430J-2910D01*
G01X6301880Y3333120D01*
X6500000Y3135000D01*
Y3096720D01*
X6469100D01*
X6463220Y3105980D01*
G03X6294580Y2948180I-99220J-62976D01*
G02Y2883820I-23562J-32180D01*
G03X6248870Y2765410I69418J-94825D01*
G02X6209890Y2717520I-39066J-8011D01*
G03X6212170Y2622530I108J-47520D01*
G02X6252000Y2570610I1827J-39836D01*
G03X6246890Y2544840I112001J-35601D01*
G01X6246320Y2538000D01*
X6229070Y2519370D01*
X6223040Y2518000D01*
G03X6210960Y2429850I10517J-46344D01*
G02X6229870Y2382300I-18972J-35080D01*
G03X6322200Y2372970I45134J-14870D01*
G02X6362360Y2417490I39606J4646D01*
G01X6362850D01*
G02X6402320Y2376500I-396J-39880D01*
G03X6434340Y2330250I47502J-1323D01*
G02X6461120Y2289740I-12999J-37700D01*
G03X6467680Y2256350I64860J-4597D01*
G01X6472150Y2247300D01*
X6464970Y2233460D01*
G02X6436830Y2225650I-17701J9178D01*
G01X6427780Y2231210D01*
X6425300Y2235180D01*
G03X6346660Y2238070I-40299J-25181D01*
G01X6344100Y2234570D01*
X6327020Y2225000D01*
X6319710Y2226520D01*
G03X6277740Y2214890I-9706J-46519D01*
G01X6275220Y2212560D01*
X6259930Y2205980D01*
X6253030Y2208000D01*
G03X6192610Y2155780I-13369J-45595D01*
G02X6170110Y2114130I-39490J-5569D01*
G03X6237410Y2077770I20246J-42989D01*
G02X6259910Y2119420I39490J5569D01*
G03X6274160Y2129730I-20249J42990D01*
G01X6278160Y2133950D01*
X6289980Y2136910D01*
G03X6348340Y2151930I20022J43093D01*
G01X6350900Y2155430D01*
X6367980Y2165000D01*
X6375290Y2163480D01*
G03X6406510Y2167630I9702J46519D01*
G02X6454420Y2158500I18048J-35563D01*
G03X6536240Y2200940I35577J31501D01*
G02X6548680Y2224220I19403J4595D01*
G03X6532210Y2349870I-22700J60929D01*
G02X6496690Y2383000I3816J39698D01*
G03X6474960Y2415510I-46874J-7814D01*
G02X6462600Y2471050I21096J33840D01*
G03X6472580Y2490030I-98595J63957D01*
G01X6491000Y2502330D01*
X6509220Y2490160D01*
X6511580Y2485130D01*
G03X6658790Y2424790I106414J49872D01*
G01X6670780Y2429220D01*
X6750000Y2350000D01*
Y2237770D01*
X6746300Y2232580D01*
G03X6742610Y2226470I38717J-27552D01*
G02X6710090Y2222040I-17789J9012D01*
G03X6694100Y2146490I-35092J-32040D01*
G02X6750000Y2109970I16020J-36522D01*
G01Y1900000D01*
X6600000Y1750000D01*
X6566810D01*
G02X6527200Y1794500I1J39880D01*
G03X6522170Y1821900I-47200J5497D01*
G02X6545180Y1878190I35392J18381D01*
G03X6497190Y1998770I-20176J61810D01*
G02X6452180Y2006380I-17053J36051D01*
G03X6427490Y1925770I-33320J-33880D01*
G02X6469050Y1906870I7244J-39215D01*
G03X6472580Y1901530I55941J33143D01*
G02X6459010Y1842640I-32146J-23601D01*
G01X6458480Y1842370D01*
G02X6410580Y1851500I-18041J35564D01*
G03X6344410Y1856370I-35582J-31499D01*
G01X6330410Y1844590D01*
X6300000Y1875000D01*
X6277830D01*
Y1902580D01*
X6282930Y1908260D01*
G03X6217100Y1903530I-35365J31740D01*
G02X6219730Y1844730I-25569J-30602D01*
G01X6120000Y1745000D01*
Y1580000D01*
X6300000Y1400000D01*
X6385250D01*
X6389600Y1385950D01*
G03X6469570Y1367390I45399J14048D01*
G02X6526770Y1368230I29008J-27365D01*
G01X6575000Y1320000D01*
Y1290000D01*
X6535000Y1250000D01*
X6416420D01*
X6410470Y1256650D01*
G03X6352340Y1266730I-35429J-31663D01*
G02X6330960Y1268210I-9529J17518D01*
G03X6264410Y1258130I-28251J-38210D01*
G01X6258440Y1250000D01*
X6135020D01*
X6131970Y1266260D01*
G03X6038550I-46710J-8760D01*
G01X6035500Y1250000D01*
X5657310D01*
G02X5617470Y1288110I1J39881D01*
G03X5523490Y1276260I-47472J-2102D01*
G01X5525700Y1265700D01*
X5155000Y895000D01*
X5052770D01*
X5047580Y898700D01*
G03X5027670Y906900I-27582J-38699D01*
G02X4995730Y957090I6441J39357D01*
G03X4923340Y1009330I-45731J12906D01*
G02X4870860Y1016180I-22378J33012D01*
G03X4861660Y945670I-35861J-31176D01*
G02X4914140Y938820I22378J-33012D01*
G03X4922540Y931210I35879J31163D01*
G01X4930950Y925250D01*
Y895000D01*
X4244270D01*
X4238300Y903130D01*
G03X4161700I-38300J-28130D01*
G01X4155730Y895000D01*
X4077890D01*
Y930150D01*
X4092560Y934170D01*
G03X4049650Y1016560I-12556J45830D01*
G02X4001740Y1014280I-25470J30690D01*
G03X3932780Y953190I-26740J-39282D01*
G02X3897360Y895000I-35427J-18311D01*
G01X2990000D01*
G37*
%LPC*%
G75*
G36*
G01X3001760Y4072300D02*
G03Y4047700I15695J-12300D01*
G02X2918240I-41760J-32700D01*
G03Y4072300I-15695J12300D01*
G02X3001760I41760J32700D01*
G37*
G36*
G01X7067240Y2810480D02*
G03X7065760Y2787840I15623J-12390D01*
G02X6987760Y2792930I-40760J-24430D01*
G03X6989240Y2815570I-15623J12390D01*
G02X7067240Y2810480I40760J24430D01*
G37*
G36*
G01X2918010Y2692410D02*
G03X2916650Y2718360I-15784J12183D01*
G02X2996990Y2722590I38352J36639D01*
G03X2998350Y2696640I15784J-12183D01*
G02X2918010Y2692410I-38352J-36639D01*
G37*
G36*
G01X2725990Y2544300D02*
G03X2700410I-12790J-15298D01*
G02Y2625700I-34010J40700D01*
G03X2725990I12790J15298D01*
G02Y2544300I34010J-40700D01*
G37*
G36*
G01X7340560Y1821390D02*
G03X7364210Y1819910I12827J15268D01*
G02X7359440Y1743610I25791J-39911D01*
G03X7335790Y1745090I-12827J-15268D01*
G02X7340560Y1821390I-25791J39911D01*
G37*
G36*
G01X1921850Y1689070D02*
G03X1931100Y1666570I19235J-5244D01*
G02X1860610Y1616650I-23788J-41138D01*
G03X1813380Y1648340I-39194J-7374D01*
G02X1825530Y1737140I-9582J46542D01*
G03X1846870Y1739120I9116J17735D01*
G02X1921850Y1689070I29135J-37542D01*
G37*
G36*
G01X7291380Y1417560D02*
G03X7269660Y1377790I17944J-35616D01*
G02X7191790Y1434660I-64662J-6791D01*
G03X7223070Y1467450I-8108J39049D01*
G02X7302760Y1494430I46934J-7448D01*
G03X7328520Y1492970I13740J14446D01*
G02X7324420Y1420630I28658J-37910D01*
G03X7298660Y1422090I-13740J-14446D01*
G02X7291380Y1417560I-28645J37919D01*
G37*
G36*
G01X5840860Y885400D02*
G03X5866090Y881070I15201J12903D01*
G02X5853780Y809240I23910J-41067D01*
G03X5828550Y813570I-15201J-12903D01*
G02X5840860Y885400I-23910J41067D01*
G37*
G36*
G01X4814500Y423580D02*
G03Y401420I16577J-11080D01*
G02X4735500I-39500J-26420D01*
G03Y423580I-16577J11080D01*
G02X4814500I39500J26420D01*
G37*
G36*
G01X5931580Y4763710D02*
G02X5924730Y4824450I-39581J26292D01*
G03X5985420Y4831290I27472J28910D01*
G02X5992270Y4770550I39581J-26292D01*
G03X5931580Y4763710I-27472J-28910D01*
G37*
G36*
G01X6461270Y3710070D02*
G02X6395890Y3584250I142732J-154065D01*
G03X6364870Y3628570I-39518J5357D01*
G02X6407170Y3709970I10128J46428D01*
G03X6461270Y3710070I26996J29354D01*
G37*
G36*
G01X7228860Y3089480D02*
G02X7152190Y3066930I-23862J-60482D01*
G03X7140420Y3124330I-32390J23265D01*
G02X7207680Y3144110I24578J40670D01*
G03X7228860Y3089480I35821J-17533D01*
G37*
G36*
G01X2515150Y2627030D02*
G02X2449850I-32650J-34530D01*
G03Y2684970I-27404J28970D01*
G02X2515150I32650J34530D01*
G03Y2627030I27404J-28970D01*
G37*
G36*
G01X2978610Y2163940D02*
G02X2923770Y2222140I-46110J11489D01*
G03X2939460Y2236920I-3658J19602D01*
G02X2975230Y2271810I46109J-11491D01*
G03X2990360Y2286990I-4345J19461D01*
G02X3041220Y2324080I46408J-10221D01*
G03X3080660Y2346040I3726J39705D01*
G02X3118770Y2277590I42559J-21139D01*
G03X3079330Y2255630I-3726J-39705D01*
G02X3047110Y2230390I-42558J21142D01*
G03X3031980Y2215210I4345J-19461D01*
G02X2994300Y2178720I-46408J10222D01*
G03X2978610Y2163940I3658J-19602D01*
G37*
G36*
G01X7450190Y2149700D02*
G02X7378840Y2174670I-45189J-14700D01*
G03X7394810Y2220300I-21954J33293D01*
G02X7466160Y2195330I45189J14700D01*
G03X7450190Y2149700I21954J-33293D01*
G37*
G36*
G01X668120Y1990890D02*
G02X581880I-43120J-30890D01*
G03Y2014110I-16208J11610D01*
G02Y2075890I43120J30890D01*
G03Y2099110I-16208J11610D01*
G02X656180Y2172900I43119J30884D01*
G03X709830Y2179120I23445J32261D01*
G02X707670Y2112520I40169J-34638D01*
G03X673520Y2108570I-15914J-12013D01*
G02X668120Y2099110I-48521J21426D01*
G03Y2075890I16208J-11610D01*
G02Y2014110I-43120J-30890D01*
G03Y1990890I16208J-11610D01*
G37*
G36*
G01X812140Y1751210D02*
G02X734220Y1753160I-39640J-26209D01*
G03X735360Y1798790I-32122J23632D01*
G02X813280Y1796840I39640J26209D01*
G03X812140Y1751210I32122J-23632D01*
G37*
G36*
G01X7193370Y1765600D02*
G02X7136730Y1739640I-13369J-45600D01*
G03X7111630Y1794400I-36312J16488D01*
G02X7168270Y1820360I13369J45600D01*
G03X7193370Y1765600I36312J-16488D01*
G37*
G36*
G01X1108760Y1669970D02*
G02X1021240I-43760J-29970D01*
G03Y1715030I-32907J22530D01*
G02X1071910Y1797590I43760J29972D01*
G03X1112650Y1819050I5194J39540D01*
G02X1152910Y1750030I42351J-21548D01*
G03X1114180Y1725130I-1755J-39842D01*
G02X1108760Y1715030I-49173J19883D01*
G03Y1669970I32907J-22530D01*
G37*
G36*
G01X6781280Y1609200D02*
G02X6725540Y1666570I-46278J10800D01*
G03X6757480Y1705400I-7938J39081D01*
G02X6821020Y1640000I65018J-397D01*
G03X6781280Y1609200I-905J-39869D01*
G37*
G36*
G01X6944340Y1085670D02*
G02X6865970Y1102470I-44538J-16570D01*
G03X6870460Y1123430I-14196J14002D01*
G02X6944760Y1177050I44538J16572D01*
G03X6999520Y1181610I24981J31085D01*
G02X7005240Y1112950I35480J-31612D01*
G03X6950480Y1108390I-24981J-31085D01*
G02X6948830Y1106630I-35481J31610D01*
G03X6944340Y1085670I14196J-14002D01*
G37*
G36*
G01X6444390Y898510D02*
G02X6394400Y775210I159615J-136497D01*
G03X6352500Y817550I-39803J2513D01*
G02X6384840Y897310I-2503J47451D01*
G03X6444390Y898510I29241J27118D01*
G37*
G36*
G01X5553730Y497460D02*
G02X5538800Y566130I-38729J27538D01*
G03X5591270Y577540I19969J34519D01*
G02X5606200Y508870I38729J-27538D01*
G03X5553730Y497460I-19969J-34519D01*
G37*
G36*
G01X7113270Y290370D02*
G02X7106050Y227780I31731J-35372D01*
G03X7046730Y234630I-32693J-22840D01*
G02X7053950Y297220I-31731J35372D01*
G03X7113270Y290370I32693J22840D01*
G37*
G36*
G01X5198100Y136480D02*
X4962480D01*
Y371520D01*
X5198100D01*
G03X5261870Y346780I39303J6750D01*
G02X5428820Y323420I72127J-92781D01*
G03X5493180I32180J23562D01*
G02X5682820I94820J-69420D01*
G03X5747180I32180J23562D01*
G02X5936820I94820J-69420D01*
G03X6001180I32180J23562D01*
G02X6190820I94820J-69420D01*
G03X6255180I32180J23562D01*
G02X6445170Y322950I94824J-69421D01*
G03X6496870Y311510I32293J23399D01*
G02X6505020Y224900I23129J-41512D01*
G03X6456360Y204020I-12570J-37847D01*
G02X6255180Y184580I-106359J49982D01*
G03X6190820I-32180J-23562D01*
G02X6001180I-94820J69420D01*
G03X5936820I-32180J-23562D01*
G02X5747180I-94820J69420D01*
G03X5682820I-32180J-23562D01*
G02X5493180I-94820J69420D01*
G03X5428820I-32180J-23562D01*
G02X5261870Y161220I-94823J69421D01*
G03X5198100Y136480I-24467J-31490D01*
G37*
G36*
G01X2912100D02*
X2676480D01*
Y371520D01*
X2912100D01*
G03X2975870Y346780I39303J6750D01*
G02X3142820Y323420I72127J-92781D01*
G03X3207180I32180J23562D01*
G02X3210170Y327340I94915J-69296D01*
G03X3203580Y357580I-15580J12443D01*
G02X3272140Y406040I21423J42419D01*
G03X3309240Y371300I39554J5061D01*
G02X3396820Y323420I-7248J-117296D01*
G03X3461180I32180J23562D01*
G02Y184580I94820J-69420D01*
G03X3396820I-32180J-23562D01*
G02X3207180I-94820J69420D01*
G03X3142820I-32180J-23562D01*
G02X2975870Y161220I-94823J69421D01*
G03X2912100Y136480I-24467J-31490D01*
G37*
G36*
G01X4422950Y1669510D02*
G02X4424810Y1635620I45250J-14513D01*
G03X4421020Y1642290I-36406J-16275D01*
G02X4420650Y1664680I16312J11468D01*
G03X4422950Y1669510I-16691J10911D01*
G37*
G36*
G01X4365530Y1652010D02*
G02X4332940Y1738160I-27256J38929D01*
G03X4367950Y1783360I-4480J39629D01*
G02X4420330Y1742780I47053J6639D01*
G03X4385320Y1697580I4480J-39629D01*
G02X4384550Y1680140I-47051J-6660D01*
G03X4384040Y1674810I19413J-4547D01*
G02X4372210Y1655790I-19925J-796D01*
G03X4365530Y1652010I16207J-36434D01*
G37*
G36*
G01X4313330Y4041780D02*
G02X4258610Y4005310I-8333J-46783D01*
G03X4226670Y4053220I-38932J8647D01*
G02X4281390Y4089690I8333J46783D01*
G03X4313330Y4041780I38932J-8647D01*
G37*
G36*
G01X4458070Y3659120D02*
G02X4394640Y3661560I-33074J-34120D01*
G03X4396930Y3720880I-25470J30687D01*
G02X4394140Y3786190I33069J34127D01*
G03X4391860Y3840940I-30089J26169D01*
G02X4460860Y3843810I33143J34058D01*
G03X4463140Y3789060I30089J-26169D01*
G02X4460360Y3718440I-33139J-34060D01*
G03X4458070Y3659120I25470J-30687D01*
G37*
G36*
G01X5641240Y3354040D02*
G02X5548430Y3374450I-46240J10957D01*
G03X5540730Y3394450I-19543J3958D01*
G02X5596820Y3471170I28239J38218D01*
G03X5642920Y3470720I23368J32317D01*
G02X5675460Y3384460I27077J-39053D01*
G03X5641240Y3354040I4584J-39613D01*
G37*
G36*
G01X5068330Y3272360D02*
G02X5066320Y3194440I26178J-39661D01*
G03X5020690Y3195610I-23653J-32106D01*
G02X4969710Y3194730I-26182J39659D01*
G03X4948290Y3194340I-10404J-17008D01*
G02X4881030Y3257970I-26265J39600D01*
G03X4874520Y3284890I-17203J10087D01*
G02X4947500Y3323570I25481J40111D01*
G03X4990620Y3282630I39861J-1194D01*
G02X5022700Y3273530I3896J-47361D01*
G03X5068330Y3272360I23653J32106D01*
G37*
G36*
G01X4750340Y3256410D02*
G02X4749850Y3182550I29660J-37128D01*
G03X4699660Y3182870I-25293J-30832D01*
G02X4700150Y3256730I-29660J37128D01*
G03X4750340Y3256410I25293J30832D01*
G37*
G36*
G01X4014880Y3256900D02*
G02X3974980Y3209900I7618J-46904D01*
G03X3928700Y3249180I-39881J-85D01*
G02X3968600Y3296180I-7618J46904D01*
G03X4014880Y3256900I39881J85D01*
G37*
G36*
G01X5654830Y3149250D02*
G02X5607430Y3212450I-44832J15751D01*
G03X5625170Y3225750I-1073J19912D01*
G02X5691440Y3252410I44833J-15749D01*
G03X5737060Y3259260I17980J35594D01*
G02X5748560Y3182590I32937J-34257D01*
G03X5702940Y3175740I-17980J-35594D01*
G02X5672570Y3162550I-32930J34263D01*
G03X5654830Y3149250I1073J-19912D01*
G37*
G36*
G01X4852540Y2728480D02*
G02X4850370Y2803220I-30409J36519D01*
G03X4899590Y2804640I23705J32067D01*
G02X4901760Y2729900I30409J-36519D01*
G03X4852540Y2728480I-23705J-32067D01*
G37*
G36*
G01X4133680Y2749180D02*
G02X4048430Y2717090I-47400J-3359D01*
G03X4003810Y2730730I-31765J-24110D01*
G02X4032010Y2794840I-15307J44990D01*
G03X4060910Y2786000I18255J8019D01*
G02X4063220Y2787370I25386J-40171D01*
G03X4073430Y2806210I-9680J17433D01*
G02X4143890Y2768020I47401J3360D01*
G03X4133680Y2749180I9680J-17433D01*
G37*
G36*
G01X5909960Y2657700D02*
G02X5830040I-39960J-25720D01*
G03Y2679280I-16766J10790D01*
G02X5836760Y2738960I39959J25719D01*
G03X5839720Y2763790I-13944J14254D01*
G02X5847350Y2823530I40280J25213D01*
G03Y2881470I-27404J28970D01*
G02X5912650I32650J34530D01*
G03Y2823530I27404J-28970D01*
G02X5913240Y2755040I-32649J-34529D01*
G03X5910280Y2730210I13944J-14254D01*
G02X5909960Y2679280I-40280J-25213D01*
G03Y2657700I16766J-10790D01*
G37*
G36*
G01X5654170Y2321190D02*
G02X5585260Y2337280I-41668J-22849D01*
G03X5597360Y2389130I-22864J32672D01*
G02X5666270Y2373040I41668J22849D01*
G03X5654170Y2321190I22864J-32672D01*
G37*
G36*
G01X5957570Y2305240D02*
G02X5887300Y2335060I-46193J-11149D01*
G03X5905870Y2378800I-20198J34387D01*
G02X5905400Y2380960I46184J11180D01*
G03X5872670Y2412770I-39159J-7548D01*
G02X5926990Y2468660I7659J46899D01*
G03X5959720Y2436850I39159J7548D01*
G02X5967160Y2435010I-7652J-46901D01*
G03X6018260Y2462170I12670J37813D01*
G02X6048950Y2404410I45791J-12703D01*
G03X5997850Y2377250I-12670J-37813D01*
G02X5976140Y2348980I-45793J12696D01*
G03X5957570Y2305240I20198J-34387D01*
G37*
G36*
G01X4279820Y2286990D02*
G02X4213170Y2280020I-29821J-36993D01*
G03X4210230Y2308150I-15457J12603D01*
G02X4276880Y2315120I29821J36993D01*
G03X4279820Y2286990I15457J-12603D01*
G37*
G36*
G01X5296300Y2163990D02*
G02X5217260Y2177280I-43755J-18539D01*
G03X5220820Y2198410I-14803J13359D01*
G02X5219380Y2231660I43750J18551D01*
G03X5214030Y2252410I-18959J6177D01*
G02X5219810Y2326500I32421J34741D01*
G03X5228280Y2384840I-22349J33030D01*
G02X5222470Y2436190I36721J30159D01*
G03X5218030Y2459840I-17849J8891D01*
G02X5292530Y2473810I31967J35160D01*
G03X5296970Y2450160I17849J-8891D01*
G02X5291640Y2375650I-31970J-35159D01*
G03X5283170Y2317310I22349J-33030D01*
G02X5291640Y2272440I-36719J-30166D01*
G03X5296990Y2251690I18959J-6177D01*
G02X5299860Y2185120I-32419J-34745D01*
G03X5296300Y2163990I14803J-13359D01*
G37*
G36*
G01X3444100Y2166990D02*
G02X3435220Y2104900I30901J-36099D01*
G03X3375900Y2113390I-33389J-21810D01*
G02X3384780Y2175480I-30901J36099D01*
G03X3444100Y2166990I33389J21810D01*
G37*
G36*
G01X4765680Y2162320D02*
G02X4722680Y2119320I4320J-47320D01*
G03X4679330Y2162670I-39716J3634D01*
G02X4665160Y2163500I-4338J47321D01*
G03X4619530Y2138410I-8261J-39014D01*
G02X4584850Y2201490I-44530J16591D01*
G03X4630480Y2226580I8261J39014D01*
G02X4722330Y2205670I44528J-16594D01*
G03X4765680Y2162320I39716J-3634D01*
G37*
G36*
G01X5932900Y1952120D02*
G02X5849740Y1996180I-38479J27882D01*
G03X5837750Y2040410I-37499J13575D01*
G02X5834750Y2043130I30389J36532D01*
G03X5804260Y2040170I-14011J-14189D01*
G02X5754320Y2020640I-39258J26772D01*
G03X5705580Y1984700I-8965J-38861D01*
G02X5612920Y2002650I-47392J3493D01*
G03X5583810Y2053670I-37985J12142D01*
G02X5639650Y2085540I10572J46330D01*
G03X5668760Y2034520I37985J-12142D01*
G02X5668870Y2034490I-12437J-45821D01*
G03X5717610Y2070430I8965J38861D01*
G02X5789350Y2107750I47392J-3489D01*
G03X5836410Y2112310I20432J34248D01*
G02X5914780Y2086050I31732J-35372D01*
G03X5957540Y2053980I39141J7646D01*
G02X5988440Y2046050I4323J-47323D01*
G03X6036570Y2048710I22312J33053D01*
G02X6040750Y1973110I30769J-36214D01*
G03X5992620Y1970450I-22312J-33053D01*
G02X5952830Y1960000I-30776J36208D01*
G03X5932900Y1952120I-3782J-19577D01*
G37*
G36*
G01X3253030Y1917660D02*
G02X3186000Y1938510I-43029J-20162D01*
G03X3201970Y1989840I-20148J34418D01*
G02X3269000Y1968990I43029J20162D01*
G03X3253030Y1917660I20148J-34418D01*
G37*
G36*
G01X5596740Y1676090D02*
G02X5544040Y1714640I-46736J-8594D01*
G03X5578260Y1761410I-5004J39565D01*
G02X5666320Y1793460I46737J8587D01*
G03X5695880Y1787550I17340J9849D01*
G02X5700580Y1790760I29102J-37564D01*
G03X5710170Y1809930I-10246J17110D01*
G02X5781850Y1774090I47260J4920D01*
G03X5772260Y1754920I10246J-17110D01*
G02X5690250Y1717590I-47263J-4917D01*
G03X5644620Y1726720I-29170J-27195D01*
G02X5630960Y1722860I-19607J43285D01*
G03X5596740Y1676090I5004J-39565D01*
G37*
G36*
G01X4946890Y1693100D02*
G02X4934880Y1616740I21309J-42476D01*
G03X4911960Y1620340I-13976J-14220D01*
G02X4843760Y1670560I-21312J42477D01*
G03X4806200Y1716900I-39345J6501D01*
G02X4809220Y1811880I2130J47470D01*
G03X4827930Y1823980I373J19938D01*
G02X4888170Y1849850I43696J-18677D01*
G03X4909120Y1854350I6944J18691D01*
G02X4925960Y1775990I33390J-33814D01*
G03X4905010Y1771490I-6944J-18691D01*
G02X4870730Y1757790I-33390J33811D01*
G03X4852020Y1745690I-373J-19938D01*
G02X4846460Y1736010I-43700J18663D01*
G03X4870790Y1705990I15996J-11905D01*
G02X4923970Y1696700I19860J-43170D01*
G03X4946890Y1693100I13976J14220D01*
G37*
G36*
G01X3480940Y1477940D02*
G02X3421730Y1492740I-38439J-27940D01*
G03X3436560Y1552060I-17427J35870D01*
G02X3503800Y1617790I38441J27933D01*
G03X3560840Y1626920I24173J31721D01*
G02X3571200Y1562210I39161J-26915D01*
G03X3514160Y1553080I-24173J-31721D01*
G02X3495770Y1537260I-39159J26921D01*
G03X3480940Y1477940I17427J-35870D01*
G37*
G36*
G01X4180150Y1362300D02*
G02X4177810Y1300420I34851J-32302D01*
G03X4117350Y1302700I-31209J-24829D01*
G02X4119690Y1364580I-34851J32302D01*
G03X4180150Y1362300I31209J24829D01*
G37*
G36*
G01X3596810Y1091720D02*
G02X3543880Y1050650I-5803J-47163D01*
G03X3509200Y1095340I-39552J5108D01*
G02X3562130Y1136410I5803J47163D01*
G03X3596810Y1091720I39552J-5108D01*
G37*
G36*
G01X3773730Y1060950D02*
G03X3791830Y1047480I18868J6457D01*
G02X3745050Y984590I-1829J-47483D01*
G03X3726950Y998060I-18868J-6457D01*
G02X3773730Y1060950I1829J47483D01*
G37*
G36*
G01X4678870Y1624620D02*
G03X4653060Y1620970I-10792J-16767D01*
G02X4643000Y1692200I-35780J31272D01*
G03X4668810Y1695850I10792J16767D01*
G02X4678870Y1624620I35780J-31272D01*
G37*
G36*
G01X4069980Y2038160D02*
G03X4042610Y2036090I-12594J-15458D01*
G02X3961220Y2056690I-35231J31890D01*
G03X3945740Y2071510I-19369J-4736D01*
G02X4001160Y2129410I9260J46610D01*
G03X4016640Y2114590I19369J4736D01*
G02X4037400Y2104820I-9257J-46611D01*
G03X4064770Y2106890I12594J15458D01*
G02X4069980Y2038160I35230J-31892D01*
G37*
G36*
G01X5082150Y2568050D02*
G03X5084020Y2546700I17685J-9208D01*
G02X5004170Y2539720I-37701J-28929D01*
G03X5002300Y2561070I-17685J9208D01*
G02X5082150Y2568050I37701J28929D01*
G37*
G36*
G01X3993850Y2601680D02*
G03X4001440Y2577230I18397J-7692D01*
G02X3931850Y2555610I-25744J-39942D01*
G03X3924260Y2580060I-18397J7692D01*
G02X3993850Y2601680I25744J39942D01*
G37*
G36*
G01X5286580Y2625510D02*
G03X5269310Y2612830I1317J-19895D01*
G02X5177510Y2631550I-44307J17174D01*
G03X5166580Y2649990I-19929J647D01*
G02X5221870Y2725770I21472J42394D01*
G03X5265390Y2716890I28383J28016D01*
G02X5286580Y2625510I18039J-43964D01*
G37*
G36*
G01X1876550Y2658670D02*
G03X1852900Y2655710I-9840J-17343D01*
G02X1843450Y2731330I-32900J34289D01*
G03X1867100Y2734290I9840J17343D01*
G02X1876550Y2658670I32900J-34289D01*
G37*
G36*
G01X4816250Y2923270D02*
G03X4802010Y2939290I-19687J-3161D01*
G02X4861920Y2992540I12991J45710D01*
G03X4876160Y2976520I19687J3161D01*
G02X4816250Y2923270I-12991J-45710D01*
G37*
G36*
G01X5659880Y3713520D02*
G03X5644520Y3698160I4145J-19505D01*
G02X5588160Y3754520I-46480J9880D01*
G03X5603520Y3769880I-4145J19505D01*
G02X5659880Y3713520I46480J-9880D01*
G37*
G36*
G01X4365210Y4369900D02*
G03X4343780Y4369880I-10699J-16827D01*
G02X4292620I-25580J40040D01*
G03X4271190Y4369900I-10731J-16807D01*
G02X4271280Y4450050I-25491J40104D01*
G03X4292710Y4450030I10731J16807D01*
G02X4343690I25490J-40110D01*
G03X4365120Y4450050I10699J16827D01*
G02X4365210Y4369900I25581J-40046D01*
G37*
G36*
G01X4945920Y1378180D02*
G02X4912850Y1365650I-908J-47510D01*
G03X4888050Y1396760I-13491J14685D01*
G02X4866730Y1388720I-26939J39147D01*
G03X4850140Y1375150I2351J-19801D01*
G02X4799390Y1437190I-45140J14852D01*
G03X4815980Y1450760I-2351J19801D01*
G02X4907640Y1426200I45143J-14843D01*
G03X4945920Y1378180I39038J-8148D01*
G37*
G54D17*
X1000000Y2425000D03*
X700000Y2592500D03*
X1175000Y677500D03*
X1275000Y1680000D03*
X1600000Y1700000D03*
X2036000Y1670000D03*
X2670000Y1840000D03*
X2500000Y2925000D03*
X3500000Y2975000D03*
X3865000Y665000D03*
X3725000Y400000D03*
X3650000Y3775000D03*
X4092500Y3735000D03*
X4745000Y660000D03*
X5005000Y575000D03*
X5125000Y4775000D03*
X5440000Y4480000D03*
X5510000Y4646800D03*
X5925000Y530000D03*
X5598750Y1051250D03*
X5625000Y4300000D03*
X5825000D03*
X5625000Y4550000D03*
X5825000D03*
X6180000Y680000D03*
X6155000Y1065000D03*
X6105000Y880000D03*
X6245000Y1705000D03*
X6200000Y3675000D03*
X6325000Y4775000D03*
X6620000Y440000D03*
X6370000Y545000D03*
X6650000Y4100000D03*
Y3925000D03*
X6375000Y4425000D03*
X6730000Y4325000D03*
X7035000Y445000D03*
X6895000Y660000D03*
X7035360Y940360D03*
X7005000Y1730000D03*
X7100000Y2195000D03*
X7040000Y2540000D03*
X7025000Y3085000D03*
X7020000Y3540000D03*
X7027500Y3761140D03*
X6975000Y3925000D03*
Y4100000D03*
X6925000Y4650000D03*
X6750000Y4775000D03*
X7335000Y645000D03*
X7427500Y980000D03*
X7385000Y1115000D03*
X7430000Y2667000D03*
X7379320Y3189320D03*
X7360000Y4785000D03*
X5950000Y3155000D03*
X5880000Y3347980D03*
X5739890Y1579890D03*
X5877210Y1720350D03*
X5920000Y1360000D03*
X5443600Y3676240D03*
X5150000Y2870000D03*
X5440000Y2995000D03*
X5498200Y2427180D03*
X5194580Y1925610D03*
X5482500Y1423560D03*
X4995000Y4430000D03*
X5075000Y4175000D03*
X4775000Y3750000D03*
X5025000D03*
X5050000Y3450000D03*
X4772130Y2315000D03*
X4995000Y1955000D03*
X4970000Y2245000D03*
X4750000Y1975000D03*
X4575000Y4775000D03*
X4620000Y4355000D03*
X4710000Y4130000D03*
X4525000Y3395000D03*
X4370830Y2988120D03*
X4542130Y2684260D03*
X4495400Y2404260D03*
X4385000Y2120000D03*
X4365000Y1975000D03*
X4345000Y985000D03*
X3925000Y4775000D03*
X4250000D03*
X3975000Y4465000D03*
X3940000Y4200000D03*
X4290280Y2505570D03*
X4118200Y1700000D03*
X4000000Y1167500D03*
X4318200Y1418120D03*
X3680000Y4605000D03*
X3635000Y2095000D03*
X3738200Y2210890D03*
X3790000Y1595000D03*
X3550000Y1885000D03*
X3600000Y1750000D03*
X3831840Y1168780D03*
X3635000Y1385000D03*
X3695120Y1252230D03*
X3240000Y4805000D03*
X3235000Y4545000D03*
X3360000Y1880000D03*
X3355000Y1740000D03*
X2482500Y4497500D03*
X2325000Y4650000D03*
X2555000Y4645000D03*
X2275000Y4375000D03*
X2075000Y4650000D03*
X2275000Y4150000D03*
X2125000Y4225000D03*
X1906410Y3528590D03*
Y3828590D03*
Y3228590D03*
X2225000Y2705000D03*
X1825000Y4650000D03*
X1500000Y4225000D03*
X1800000D03*
X1606410Y3828590D03*
Y3528590D03*
Y3228590D03*
X1525000Y2700000D03*
X1306410Y3828590D03*
Y3528590D03*
Y3228590D03*
X872500Y3227500D03*
X950000Y3375000D03*
X925000Y2950000D03*
X5145000Y1340000D03*
G54D19*
X6890000Y1305000D03*
X6904320Y2098130D03*
X7502480Y1388620D03*
X7205000Y4687000D03*
G54D15*
X625000Y830580D03*
X855000Y500580D03*
Y1160580D03*
G54D18*
X2670000Y2335520D03*
X3503020Y3230000D03*
X3603020Y3490000D03*
X3690000Y1870520D03*
X3190000Y1425000D03*
G54D16*
X415000Y2032250D03*
Y2532250D03*
%LPD*%
G75*
G54D10*
X-550000Y3950000D03*
Y4675000D03*
X-150000Y3500000D03*
Y3700000D03*
X-350000D03*
X-450000Y3850000D03*
X-350000D03*
X-250000D03*
X-150000D03*
Y3950000D03*
X-250000D03*
X-350000D03*
X-450000D03*
X-150000Y4725000D03*
X-250000D03*
X-350000D03*
X-150000Y4625000D03*
X-250000D03*
X-350000D03*
X-450000Y4675000D03*
X-200000Y5025000D03*
X-325000Y4900000D03*
X-450000Y4775000D03*
X200000Y3425000D03*
X50000Y3325000D03*
Y3500000D03*
X200000Y3675000D03*
X50000Y3700000D03*
X-50000Y3850000D03*
X50000D03*
X150000Y3900000D03*
X250000D03*
X75000Y4230000D03*
X150000Y4300000D03*
X250000D03*
Y4000000D03*
X150000D03*
X50000Y3950000D03*
X-50000D03*
X275000Y4400000D03*
X175000Y4500000D03*
Y4400000D03*
X150000Y4725000D03*
Y4625000D03*
X50000Y4725000D03*
X-50000D03*
X75000Y4525000D03*
Y4425000D03*
Y4325000D03*
X-50000Y4625000D03*
X50000D03*
X125000Y4950000D03*
X-50000D03*
X140000Y5225000D03*
X50000D03*
X-75000Y5150000D03*
X680000Y2970000D03*
X675000Y3480000D03*
Y3345000D03*
Y3725000D03*
X350000Y3900000D03*
X450000D03*
X550000D03*
X650000D03*
X517500Y3765000D03*
Y3585000D03*
X350000Y4225000D03*
X450000D03*
X550000D03*
X650000D03*
Y4000000D03*
X550000D03*
X450000D03*
X350000D03*
X300000Y4650000D03*
X425000Y4525000D03*
X625000D03*
X350000Y4325000D03*
X450000D03*
X550000D03*
X650000D03*
X400000Y4925000D03*
X675000Y4750000D03*
X655000Y4925000D03*
Y5225000D03*
X400000Y5195000D03*
X742500Y2000000D03*
X872500Y3989500D03*
Y4243500D03*
X900000Y4375000D03*
X955000Y4587500D03*
X785000Y4585000D03*
X1080000Y5235000D03*
X880000D03*
X1150000Y4225000D03*
X1125000Y4600000D03*
X1375000D03*
X1625000Y4850000D03*
X2645000Y3275000D03*
Y3375000D03*
Y3475000D03*
Y3575000D03*
Y3675000D03*
Y3775000D03*
X2708870Y1542500D03*
X2955000Y1795000D03*
X2745000Y3275000D03*
X2845000D03*
X2945000D03*
X3045000D03*
Y3375000D03*
X2945000D03*
X2845000D03*
X2745000D03*
Y3475000D03*
X2845000D03*
X2945000D03*
X3045000D03*
Y3575000D03*
X2945000D03*
X2845000D03*
X2745000D03*
Y3675000D03*
X2845000D03*
X2945000D03*
X3045000D03*
Y3775000D03*
X2945000D03*
X2845000D03*
X2745000D03*
X3300000Y2260000D03*
X3167850Y2116720D03*
X3145000Y3275000D03*
Y3375000D03*
Y3475000D03*
Y3575000D03*
Y3675000D03*
Y3775000D03*
X3815000Y1480000D03*
X3806380Y3540000D03*
X4268200Y1650620D03*
X3945000Y3122500D03*
X4195000Y3900000D03*
X4103270Y3605810D03*
X4105000Y4350000D03*
X4544850Y1655450D03*
X5045000Y1270000D03*
X5400000Y1190500D03*
X5370000Y3020000D03*
X5550000Y1912500D03*
X5875000Y3043000D03*
X6073760Y1642500D03*
X6175000Y1725000D03*
X6115000Y3130000D03*
X5965000Y4265000D03*
X7605000Y255000D03*
X7610000Y1915000D03*
X7605000Y3575000D03*
G54D11*
X95000Y3055000D03*
Y3225000D03*
Y3140000D03*
X1435000Y2333020D03*
X2070000D03*
X2640000Y3075000D03*
Y3160000D03*
X2550000Y3120000D03*
Y3205000D03*
Y3290000D03*
Y3375000D03*
Y3460000D03*
Y3545000D03*
Y3630000D03*
Y3715000D03*
Y3800000D03*
X3110000Y930000D03*
X3005000D03*
X2725000Y3075000D03*
X2810000D03*
X2895000D03*
X2980000D03*
X3065000D03*
Y3160000D03*
X2980000D03*
X2895000D03*
X2810000D03*
X2725000D03*
X2935000Y4545000D03*
X2880000Y4460000D03*
X2785000D03*
X3190000Y1560000D03*
X3150000Y3075000D03*
X3240000Y3120000D03*
Y3205000D03*
Y3290000D03*
Y3375000D03*
Y3460000D03*
X3150000Y3160000D03*
X3240000Y3545000D03*
Y3630000D03*
Y3715000D03*
Y3800000D03*
X3390000Y4050000D03*
X3501940Y4064480D03*
X3451820Y3993800D03*
X3690000Y1609480D03*
G54D12*
X3810000Y254000D03*
X6618000Y3043000D03*
G54D13*
X6525000Y1305000D03*
X6585000Y1802700D03*
X6525000Y2105000D03*
X6890000Y1455000D03*
X6849660Y1873130D03*
X6890000Y2302500D03*
G54D14*
G01X6618000Y3043000D02*
Y3180460D01*
G01Y3043000D02*
X6755460D01*
G01X6618000D02*
X6735140Y3160140D01*
G01X6618000Y3043000D02*
X6735140Y2925860D01*
M02*
