G04 ================== begin FILE IDENTIFICATION RECORD ==================*
G04 Layout Name:  Netduino3Wifi_13Dec16.brd*
G04 Film Name:    SILKS_TOP*
G04 File Format:  Gerber RS274X*
G04 File Origin:  Cadence Allegro 16.6-2015-S069*
G04 Origin Date:  Tue Dec 13 09:17:11 2016*
G04 *
G04 Layer:  REF DES/SILKSCREEN_TOP*
G04 Layer:  PACKAGE GEOMETRY/SILKSCREEN_TOP*
G04 Layer:  BOARD GEOMETRY/SILKSCREEN_TOP*
G04 *
G04 Offset:    (0.0000 0.0000)*
G04 Mirror:    No*
G04 Mode:      Positive*
G04 Rotation:  0*
G04 FullContactRelief:  No*
G04 UndefLineWidth:     0.0000*
G04 ================== end FILE IDENTIFICATION RECORD ====================*
%FSLAX25Y25*MOMM*%
%IR0*IPPOS*OFA0.00000B0.00000*MIA0B0*SFA1.00000B1.00000*%
%ADD10C,.2*%
%ADD11C,.3*%
%ADD12C,.15*%
%ADD13C,.25*%
%ADD14C,.18*%
%ADD15C,.1524*%
%ADD16C,1.2*%
%ADD17C,1.6*%
G75*
%LPD*%
G75*
G36*
G01X299370Y340000D02*
G02Y360000I-79371J10000D01*
G01X320630D01*
G02X400000Y430000I79370J-9997D01*
G01Y410000D01*
G03Y290000I0J-60000D01*
G01Y270000D01*
G02X320630Y340000I0J79997D01*
G01X299370D01*
G37*
G36*
G01X500630Y360000D02*
G02Y340000I79371J-10000D01*
G01X428280D01*
G02Y360000I-28281J10000D01*
G01X500630D01*
G37*
G36*
G01X4490000Y3800000D02*
Y3940000D01*
G02X4590000Y4040000I100000J0D01*
G02X4690000Y3940000I0J-100000D01*
G01Y3800000D01*
X4650000D01*
Y3940000D01*
G03X4590000Y4000000I-60000J0D01*
G03X4530000Y3940000I0J-60000D01*
G01Y3800000D01*
X4490000D01*
G37*
G36*
G01X4953680Y3881580D02*
G02X4954130Y3957070I-113681J38424D01*
G01X4930000Y3945000D01*
X4810000Y3885000D01*
X4790000Y3920000D01*
X4898700Y3974350D01*
G03X4914690Y3891330I-58700J-54356D01*
G01X4953680Y3881580D01*
G37*
G36*
G01X4985000Y4100000D02*
Y3860000D01*
G03X5045000Y3800000I60000J0D01*
G01X5105000D01*
Y3840000D01*
X5045000D01*
G02X5025000Y3860000I0J20000D01*
G01Y4000000D01*
X5105000D01*
Y4040000D01*
X5025000D01*
Y4100000D01*
X4985000D01*
G37*
G36*
G01X5303740Y3406890D02*
G02X5163670Y3459830I-60031J52940D01*
G01Y3619910D01*
X5203690D01*
Y3459830D01*
G03X5283730I40020J0D01*
G01Y3619910D01*
X5323750D01*
Y3459830D01*
G03X5403790I40020J0D01*
G01Y3619910D01*
X5443810D01*
Y3459830D01*
G02X5303740Y3406890I-80039J0D01*
G37*
G36*
G01X5494930Y3619790D02*
Y3379790D01*
X5534930D01*
Y3619790D01*
X5494930D01*
G37*
G36*
G01X5544930Y3679790D02*
G03I-30000J0D01*
G37*
G36*
G01X5365000Y3920000D02*
G02X5300000Y4026650I-119994J0D01*
G01Y3978090D01*
G03X5325000Y3920000I-54989J-58090D01*
G01Y4160000D01*
X5365000D01*
Y3920000D01*
G37*
G36*
G01X5395000Y4040000D02*
Y3900000D01*
G03X5495000Y3800000I100000J0D01*
G03X5595000Y3900000I0J100000D01*
G01Y4040000D01*
X5555000D01*
Y3900000D01*
G02X5495000Y3840000I-60000J0D01*
G02X5435000Y3900000I0J60000D01*
G01Y4040000D01*
X5395000D01*
G37*
G36*
G01X5703940Y3379790D02*
Y3679290D01*
G02X5764620Y3739970I60030J650D01*
G01X5824000D01*
Y3699950D01*
X5763970D01*
G03X5743960Y3679940I0J-20010D01*
G01Y3619910D01*
X5824000D01*
Y3579890D01*
X5743960D01*
Y3379790D01*
X5703940D01*
G37*
G36*
G01X5875120Y3619790D02*
Y3379790D01*
X5915120D01*
Y3619790D01*
X5875120D01*
G37*
G36*
G01X5663920Y3619910D02*
Y3579890D01*
X5583880D01*
Y3619910D01*
X5663920D01*
G37*
G36*
G01X5925120Y3679790D02*
G03I-30000J0D01*
G37*
G36*
G01X5715000Y3940000D02*
Y3800000D01*
X5755000D01*
Y3940000D01*
G02X5815000Y4000000I60000J0D01*
G02X5875000Y3940000I0J-60000D01*
G01Y3800000D01*
X5915000D01*
Y3940000D01*
G03X5815000Y4040000I-100000J0D01*
G03X5715000Y3940000I0J-100000D01*
G37*
G36*
G01X5635000Y4040000D02*
Y3800000D01*
X5675000D01*
Y4040000D01*
X5635000D01*
G37*
G36*
G01X5685000Y4100000D02*
G03I-30000J0D01*
G37*
G36*
G01X6185000Y3920000D02*
G03I-120000J0D01*
G37*
G36*
G01X6484330Y4013440D02*
G02X6483710Y3800000I0J-106721D01*
G01X6350930D01*
Y3840020D01*
X6484330D01*
G03Y3973420I0J66700D01*
G01X6390950D01*
Y4013440D01*
X6514520Y4120160D01*
X6350930D01*
Y4160180D01*
X6531020D01*
G02X6551030Y4100150I0J-33350D01*
G01X6450630Y4013440D01*
X6484330D01*
G37*
%LPC*%
G75*
G54D16*
X220000Y350000D03*
X580000D03*
G54D17*
X6065000Y3920000D03*
%LPD*%
G75*
G36*
G01X190000Y340000D02*
X250000D01*
G03Y360000I0J10000D01*
G01X190000D01*
G03Y340000I0J-10000D01*
G37*
G36*
G01X570000Y320000D02*
Y340000D01*
X550000D01*
G02Y360000I0J10000D01*
G01X570000D01*
Y380000D01*
G02X590000I10000J0D01*
G01Y360000D01*
X610000D01*
G02Y340000I0J-10000D01*
G01X590000D01*
Y320000D01*
G02X570000I-10000J0D01*
G37*
G54D10*
G01X660000Y1300000D02*
X140000D01*
G01X660000Y1600000D02*
X140000D01*
G01X335000Y2740000D02*
X215000D01*
G01X335000Y2910000D02*
X215000D01*
G01X600000Y2215000D02*
G03I-10000J0D01*
G01X325000Y3260000D02*
Y3010000D01*
G01X340000Y3675000D02*
X460000D01*
G01X955000Y1950000D02*
Y2050000D01*
G01X890000Y2695000D02*
X2290000D01*
Y4395000D01*
X890000D01*
Y2695000D01*
G01X1000000Y5011700D02*
G03I-125000J0D01*
G01X700000Y5186700D02*
Y4836700D01*
X1050000D01*
Y5186700D01*
X700000D01*
G01X1260000Y2017500D02*
Y1995000D01*
X1890000D01*
Y2017500D01*
G01X1260000Y2322500D02*
Y2345000D01*
X1890000D01*
Y2322500D01*
G01X1752600Y4699000D02*
X2006600D01*
Y4953000D01*
G01X1752600Y4699000D02*
Y4953000D01*
G01X2110000Y2017500D02*
Y1995000D01*
X2740000D01*
Y2017500D01*
G01X2110000Y2322500D02*
Y2345000D01*
X2740000D01*
Y2322500D01*
G01X2290000Y2820000D02*
X2165000Y2695000D01*
G01X2290000Y2795000D02*
X2190000Y2695000D01*
G01X2290000Y2720000D02*
X2265000Y2695000D01*
G01X2290000Y2745000D02*
X2240000Y2695000D01*
G01X2215000D02*
X2290000Y2770000D01*
G01X2260600Y4699000D02*
X2514600D01*
G01X2006600D02*
X2260600D01*
Y4953000D01*
G01X2667000Y381000D02*
Y1079500D01*
X2921000D01*
G01X3220000Y3180000D02*
Y3080000D01*
X2570000D01*
Y3180000D01*
G01X2514600Y4572000D02*
X2768600D01*
Y4953000D01*
G01X2514600Y4572000D02*
Y4953000D01*
G01X2921000Y381000D02*
Y1079500D01*
X3175000D01*
G01X3037500Y1805000D02*
X3015000D01*
Y1175000D01*
X3037500D01*
G01X2900000Y1675000D02*
Y1725000D01*
X2750000D01*
Y1675000D01*
X2900000D01*
G01Y4235000D02*
Y4135000D01*
G01X2720000Y4235000D02*
Y4135000D01*
G01X2768600Y4699000D02*
X3022600D01*
Y4953000D01*
G01Y4699000D02*
X3276600D01*
Y4953000D01*
G01X3175000Y381000D02*
Y1079500D01*
X3429000D01*
Y381000D01*
G01Y762000D02*
X3683000D01*
Y381000D01*
G01X3342500Y1805000D02*
X3365000D01*
Y1175000D01*
X3342500D01*
G01X3430000Y1940000D02*
X3480000D01*
Y2090000D01*
X3430000D01*
Y1940000D01*
G01X3287500Y3780000D02*
Y3410000D01*
G01X3320000Y3140000D02*
X3440000D01*
G01X3180000Y3970000D02*
Y4090000D01*
G01X3120000Y4185000D02*
X3160000D01*
Y4425000D01*
X3120000D01*
Y4185000D01*
G01X3276600Y4699000D02*
X3530600D01*
Y4953000D01*
G01X3683000Y762000D02*
X3937000D01*
Y381000D01*
G01X3590000Y1310000D02*
X3640000D01*
Y1460000D01*
X3590000D01*
Y1310000D01*
G01X3592500Y3780000D02*
Y3410000D01*
G01X3530600Y4699000D02*
X3784600D01*
Y4953000D01*
G01Y4699000D02*
X4038600D01*
Y4953000D01*
G01X3937000Y762000D02*
X4191000D01*
Y381000D01*
G01Y762000D02*
X4445000D01*
Y381000D01*
G01X4143200Y1793120D02*
G03I-50000J0D01*
G01X3993200Y1693120D02*
X5243200D01*
Y2943120D01*
X3993200D01*
Y1693120D01*
G01X3925000Y3800000D02*
Y3950000D01*
X3975000D01*
Y3800000D01*
X3925000D01*
G01Y3910000D02*
X3965000Y3950000D01*
G01X3925000Y3930000D02*
X3945000Y3950000D01*
G01X3920000Y4060000D02*
X3970000D01*
Y4210000D01*
X3920000D01*
Y4060000D01*
G01X4038600Y4699000D02*
X4292600D01*
Y4953000D01*
G01X4445000Y762000D02*
X4699000D01*
Y381000D01*
G01X4445000Y4953000D02*
Y4699000D01*
X4699000D01*
Y4953000D01*
G01Y4699000D02*
X4953000D01*
Y4953000D01*
G01Y381000D02*
Y635000D01*
X5207000D01*
Y381000D01*
G01X4953000Y4699000D02*
X5207000D01*
Y4953000D01*
G01Y635000D02*
X5461000D01*
Y381000D01*
G01Y635000D02*
X5715000D01*
Y381000D01*
G01X5207000Y4699000D02*
X5461000D01*
Y4953000D01*
G01Y4699000D02*
X5715000D01*
Y4953000D01*
G01Y635000D02*
X5969000D01*
Y381000D01*
G01X5715000Y4699000D02*
X5969000D01*
Y4953000D01*
G01Y635000D02*
X6223000D01*
Y381000D01*
G01Y635000D02*
X6477000D01*
Y381000D01*
G01X6450000Y1375000D02*
Y1425000D01*
X6300000D01*
Y1375000D01*
X6450000D01*
G01X6185000Y1450000D02*
X6065000D01*
G01X6450000Y1775000D02*
Y1825000D01*
X6300000D01*
Y1775000D01*
X6450000D01*
G01Y2175000D02*
Y2225000D01*
X6300000D01*
Y2175000D01*
X6450000D01*
G01X6237000Y3170000D02*
Y2408000D01*
X6745000D01*
Y3170000D01*
X6237000D01*
G01X6080000Y2910000D02*
Y2960000D01*
X5930000D01*
Y2910000D01*
X6080000D01*
G01X5969000Y4699000D02*
X6223000D01*
Y4953000D01*
G01Y4699000D02*
X6477000D01*
Y4953000D01*
G01X6071000Y4325000D02*
Y4425000D01*
G01X6750000Y1375000D02*
Y1425000D01*
X6600000D01*
Y1375000D01*
X6750000D01*
G01Y1775000D02*
Y1825000D01*
X6600000D01*
Y1775000D01*
X6750000D01*
G01Y2175000D02*
Y2225000D01*
X6600000D01*
Y2175000D01*
X6750000D01*
G01X7150000Y1634000D02*
X6825000D01*
Y384000D01*
X7150000D01*
G01Y3292000D02*
X6825000D01*
Y2042000D01*
X7150000D01*
G01Y4950000D02*
X6825000D01*
Y3700000D01*
X7150000D01*
G01X7400000Y290000D02*
Y220000D01*
G01Y1950000D02*
Y1880000D01*
G01Y3610000D02*
Y3540000D01*
G54D11*
G01X7025000Y1010000D02*
X6875000D01*
X6905000Y986000D01*
G01X7025000D02*
Y1034000D01*
G01X6900000Y2632000D02*
X6885000Y2644000D01*
X6877500Y2658000D01*
X6875000Y2674000D01*
X6880000Y2694000D01*
X6892500Y2708000D01*
X6907500Y2712000D01*
X6922500Y2710000D01*
X6935000Y2702000D01*
X6960000Y2662000D01*
X6977500Y2644000D01*
X7002500Y2632000D01*
X7025000Y2628000D01*
Y2712000D01*
G01X6995000Y4281000D02*
X7012500Y4293000D01*
X7022500Y4309000D01*
X7025000Y4327000D01*
X7022500Y4343000D01*
X7010000Y4359000D01*
X6995000Y4369000D01*
X6980000Y4371000D01*
X6962500Y4367000D01*
X6950000Y4353000D01*
X6945000Y4339000D01*
Y4321000D01*
G01Y4339000D02*
X6937500Y4351000D01*
X6925000Y4361000D01*
X6910000Y4365000D01*
X6895000Y4361000D01*
X6882500Y4351000D01*
X6875000Y4333000D01*
X6877500Y4315000D01*
X6887500Y4297000D01*
G54D12*
G01X6182500Y4150000D02*
Y4100000D01*
G01X6165250Y4150000D02*
X6199750D01*
G01X6223000Y4100000D02*
Y4150000D01*
X6242500Y4108330D01*
X6262000Y4150000D01*
Y4100000D01*
G54D13*
G01X-587500Y4260000D02*
G03I-12500J0D01*
G01X197500Y3315000D02*
G02I-12500J0D01*
G01X287500Y4815000D02*
G02I-12500J0D01*
G01X742500Y1295000D02*
G02I-12500J0D01*
G01X1182500Y2000000D02*
G02I-12500J0D01*
G01X1207500Y2340000D02*
G02I-12500J0D01*
G01X2057500D02*
G02I-12500J0D01*
G01X2687500Y1575000D02*
G02I-12500J0D01*
G01X2552500Y2595000D02*
G03I-12500J0D01*
G01X2992500Y4485000D02*
G02I-12500J0D01*
G01X3372500Y1870000D02*
G02I-12500J0D01*
G01X3507500Y1525000D02*
G02I-12500J0D01*
G01X3347500Y2155000D02*
G02I-12500J0D01*
G01X3622500Y3845000D02*
G02I-12500J0D01*
G01X3752500Y3940000D02*
G03I-12500J0D01*
G01X3837500Y4275000D02*
G02I-12500J0D01*
G01X3955700Y1538120D02*
G03I-12500J0D01*
G01X5867500Y2810000D02*
G02I-12500J0D01*
G01X6247500Y1280000D02*
G02I-12500J0D01*
G01Y1680000D02*
G02I-12500J0D01*
G01Y2080000D02*
G02I-12500J0D01*
G01X6298500Y4375000D02*
G02I-12500J0D01*
G01X6537500Y1275000D02*
G02I-12500J0D01*
G01Y1675000D02*
G02I-12500J0D01*
G01Y2075000D02*
G02I-12500J0D01*
G01X7112500Y1384000D02*
G03I-12500J0D01*
G01Y3042000D02*
G03I-12500J0D01*
G01Y4700000D02*
G03I-12500J0D01*
G01X7237500Y255000D02*
G02I-12500J0D01*
G01Y1915000D02*
G02I-12500J0D01*
G01Y3575000D02*
G02I-12500J0D01*
G54D14*
G01X163000Y125000D02*
X165000Y142330D01*
X168000Y157000D01*
X172000Y170330D01*
X177000Y185000D01*
X185000Y205000D01*
X145000D01*
G01X243000Y122330D02*
X241000Y123670D01*
Y126330D01*
X243000Y127670D01*
X245000Y126330D01*
Y123670D01*
X243000Y122330D01*
G01X299000Y137000D02*
X305000Y130330D01*
X312000Y126330D01*
X321000Y125000D01*
X330000Y127670D01*
X337000Y133000D01*
X342000Y142330D01*
X343000Y153000D01*
X341000Y163670D01*
X336000Y170330D01*
X329000Y175670D01*
X322000Y177000D01*
X315000Y175670D01*
X306000Y170330D01*
X309000Y205000D01*
X336000D01*
G01X386000Y151670D02*
X412000D01*
G01X477000Y125000D02*
Y205000D01*
X465000Y189000D01*
G01Y125000D02*
X489000D01*
G01X536000Y191670D02*
X542000Y199670D01*
X549000Y203670D01*
X557000Y205000D01*
X567000Y202330D01*
X574000Y195670D01*
X576000Y187670D01*
X575000Y179660D01*
X571000Y173000D01*
X551000Y159670D01*
X542000Y150330D01*
X536000Y137000D01*
X534000Y125000D01*
X576000D01*
G01X608000Y205000D02*
X633000Y125000D01*
X658000Y205000D01*
G01X172000Y5156630D02*
X197000Y5236630D01*
X222000Y5156630D01*
G01X213000Y5184630D02*
X181000D01*
G01X297000Y5229960D02*
X291000Y5233960D01*
X284000Y5236630D01*
X276000D01*
X267000Y5232630D01*
X260000Y5225960D01*
X255000Y5217960D01*
X251000Y5204630D01*
X250000Y5192630D01*
X252000Y5180630D01*
X255000Y5172630D01*
X261000Y5164630D01*
X268000Y5159300D01*
X275000Y5156630D01*
X282000D01*
X289000Y5159300D01*
X295000Y5163300D01*
X300000Y5168630D01*
G01X353000Y5236630D02*
Y5156630D01*
G01X330000Y5236630D02*
X376000D01*
G01X828330Y2135000D02*
Y2255000D01*
X860330D01*
X871000Y2249000D01*
X879000Y2235000D01*
X881670Y2219000D01*
X879000Y2203000D01*
X872330Y2191000D01*
X860330Y2185000D01*
X828330D01*
G01X915000Y2255000D02*
X933670Y2135000D01*
X955000Y2255000D01*
X976330Y2135000D01*
X995000Y2255000D01*
G01X1028330Y2135000D02*
Y2255000D01*
X1061670D01*
X1072330Y2249000D01*
X1079000Y2241000D01*
X1081670Y2225000D01*
X1079000Y2209000D01*
X1071000Y2199000D01*
X1061670Y2193000D01*
X1028330D01*
G01X1061670D02*
X1081670Y2135000D01*
G01X1600000Y98330D02*
Y178330D01*
X1626000Y111660D01*
X1652000Y178330D01*
Y98330D01*
G01X1704000Y151660D02*
Y98330D01*
G01Y173000D02*
X1702000Y174330D01*
Y177000D01*
X1704000Y178330D01*
X1706000Y177000D01*
Y174330D01*
X1704000Y173000D01*
G01X1798000Y145000D02*
X1791000Y150330D01*
X1785000Y151660D01*
X1777000Y149000D01*
X1771000Y143660D01*
X1767000Y134330D01*
X1766000Y125000D01*
X1767000Y115660D01*
X1771000Y107660D01*
X1777000Y101000D01*
X1785000Y98330D01*
X1792000Y101000D01*
X1798000Y106330D01*
G01X1846000Y98330D02*
Y151660D01*
G01Y141000D02*
X1851000Y146330D01*
X1856000Y150330D01*
X1863000Y151660D01*
X1868000Y150330D01*
X1874000Y146330D01*
G01X1938000Y98330D02*
X1932000Y99660D01*
X1926000Y105000D01*
X1922000Y114330D01*
X1920000Y125000D01*
X1922000Y135660D01*
X1926000Y145000D01*
X1932000Y150330D01*
X1938000Y151660D01*
X1944000Y150330D01*
X1950000Y145000D01*
X1954000Y135660D01*
X1955000Y125000D01*
X1954000Y114330D01*
X1950000Y105000D01*
X1944000Y99660D01*
X1938000Y98330D01*
G01X1995000Y108990D02*
X2003000Y102330D01*
X2012000Y98330D01*
X2020000D01*
X2028000Y102330D01*
X2034000Y108990D01*
X2037000Y118330D01*
X2035000Y127660D01*
X2030000Y135660D01*
X2021000Y141000D01*
X2009000Y143660D01*
X2002000Y149000D01*
X1999000Y158330D01*
X2001000Y167660D01*
X2006000Y174330D01*
X2013000Y178330D01*
X2020000D01*
X2027000Y175660D01*
X2033000Y169000D01*
G01X2072000Y98330D02*
Y178330D01*
X2092000D01*
X2100000Y174330D01*
X2106000Y169000D01*
X2111000Y161000D01*
X2115000Y151660D01*
X2116000Y138330D01*
X2115000Y125000D01*
X2111000Y115660D01*
X2106000Y107660D01*
X2100000Y102330D01*
X2092000Y98330D01*
X2072000D01*
G01X1927100Y4737000D02*
X1937100Y4747670D01*
X1943100Y4759670D01*
Y4770330D01*
X1937100Y4781000D01*
X1927100Y4789000D01*
X1913100Y4793000D01*
X1899100Y4790330D01*
X1887100Y4783670D01*
X1879100Y4771670D01*
X1875100Y4755670D01*
X1867100Y4746330D01*
X1853100Y4742330D01*
X1839100Y4745000D01*
X1829100Y4751670D01*
X1823100Y4761000D01*
Y4770330D01*
X1827100Y4779670D01*
X1837100Y4787670D01*
G01X1833100Y4894330D02*
X1827100Y4886330D01*
X1823100Y4877000D01*
Y4866330D01*
X1829100Y4854330D01*
X1839100Y4845000D01*
X1851100Y4838330D01*
X1871100Y4833000D01*
X1889100Y4831670D01*
X1907100Y4834330D01*
X1919100Y4838330D01*
X1931100Y4846330D01*
X1939100Y4855670D01*
X1943100Y4865000D01*
Y4874330D01*
X1939100Y4883670D01*
X1933100Y4891670D01*
X1925100Y4898330D01*
G01X2181100Y4737000D02*
X2191100Y4747670D01*
X2197100Y4759670D01*
Y4770330D01*
X2191100Y4781000D01*
X2181100Y4789000D01*
X2167100Y4793000D01*
X2153100Y4790330D01*
X2141100Y4783670D01*
X2133100Y4771670D01*
X2129100Y4755670D01*
X2121100Y4746330D01*
X2107100Y4742330D01*
X2093100Y4745000D01*
X2083100Y4751670D01*
X2077100Y4761000D01*
Y4770330D01*
X2081100Y4779670D01*
X2091100Y4787670D01*
G01X2197100Y4835670D02*
X2077100D01*
Y4862330D01*
X2083100Y4873000D01*
X2091100Y4881000D01*
X2103100Y4887670D01*
X2117100Y4893000D01*
X2137100Y4894330D01*
X2157100Y4893000D01*
X2171100Y4887670D01*
X2183100Y4881000D01*
X2191100Y4873000D01*
X2197100Y4862330D01*
Y4835670D01*
G01X2647000Y4683000D02*
Y4709670D01*
X2683000D01*
X2695000Y4701670D01*
X2703000Y4692330D01*
X2707000Y4679000D01*
X2703000Y4665670D01*
X2695000Y4656330D01*
X2683000Y4648330D01*
X2669000Y4643000D01*
X2653000Y4640330D01*
X2639000D01*
X2627000Y4643000D01*
X2613000Y4648330D01*
X2601000Y4656330D01*
X2593000Y4664330D01*
X2587000Y4675000D01*
Y4684330D01*
X2591000Y4695000D01*
X2599000Y4703000D01*
G01X2707000Y4744330D02*
X2587000D01*
X2707000Y4805670D01*
X2587000D01*
G01X2707000Y4845670D02*
X2587000D01*
Y4872330D01*
X2593000Y4883000D01*
X2601000Y4891000D01*
X2613000Y4897670D01*
X2627000Y4903000D01*
X2647000Y4904330D01*
X2667000Y4903000D01*
X2681000Y4897670D01*
X2693000Y4891000D01*
X2701000Y4883000D01*
X2707000Y4872330D01*
Y4845670D01*
G01X2991500Y449000D02*
Y481000D01*
G01Y465000D02*
X3111500D01*
G01Y449000D02*
Y481000D01*
G01Y565000D02*
X3109500Y554330D01*
X3101500Y545000D01*
X3089500Y537000D01*
X3075500Y531670D01*
X3059500Y529000D01*
X3043500D01*
X3027500Y531670D01*
X3013500Y537000D01*
X3001500Y545000D01*
X2993500Y554330D01*
X2991500Y565000D01*
X2993500Y575670D01*
X3001500Y585000D01*
X3013500Y593000D01*
X3027500Y598330D01*
X3043500Y601000D01*
X3059500D01*
X3075500Y598330D01*
X3089500Y593000D01*
X3101500Y585000D01*
X3109500Y575670D01*
X3111500Y565000D01*
G01Y638330D02*
X2991500D01*
Y671670D01*
X2997500Y682330D01*
X3005500Y689000D01*
X3021500Y691670D01*
X3037500Y689000D01*
X3047500Y681000D01*
X3053500Y671670D01*
Y638330D01*
G01Y671670D02*
X3111500Y691670D01*
G01Y791670D02*
Y738330D01*
X2991500D01*
Y791670D01*
G01X3049500Y770330D02*
Y738330D01*
G01X3111500Y839670D02*
X2991500D01*
Y890330D01*
G01X3049500Y871670D02*
Y839670D01*
G01X2959100Y4765000D02*
X2839100D01*
X2863100Y4749000D01*
G01X2959100D02*
Y4781000D01*
G01X2935100Y4835670D02*
X2949100Y4843670D01*
X2957100Y4854330D01*
X2959100Y4866330D01*
X2957100Y4877000D01*
X2947100Y4887670D01*
X2935100Y4894330D01*
X2923100Y4895670D01*
X2909100Y4893000D01*
X2899100Y4883670D01*
X2895100Y4874330D01*
Y4862330D01*
G01Y4874330D02*
X2889100Y4882330D01*
X2879100Y4889000D01*
X2867100Y4891670D01*
X2855100Y4889000D01*
X2845100Y4882330D01*
X2839100Y4870330D01*
X2841100Y4858330D01*
X2849100Y4846330D01*
G01X3369500Y441000D02*
X3245500Y489000D01*
G01X3365500Y538330D02*
X3245500D01*
Y571670D01*
X3251500Y582330D01*
X3259500Y589000D01*
X3275500Y591670D01*
X3291500Y589000D01*
X3301500Y581000D01*
X3307500Y571670D01*
Y538330D01*
G01Y571670D02*
X3365500Y591670D01*
G01Y691670D02*
Y638330D01*
X3245500D01*
Y691670D01*
G01X3303500Y670330D02*
Y638330D01*
G01X3349500Y737000D02*
X3359500Y747670D01*
X3365500Y759670D01*
Y770330D01*
X3359500Y781000D01*
X3349500Y789000D01*
X3335500Y793000D01*
X3321500Y790330D01*
X3309500Y783670D01*
X3301500Y771670D01*
X3297500Y755670D01*
X3289500Y746330D01*
X3275500Y742330D01*
X3261500Y745000D01*
X3251500Y751670D01*
X3245500Y761000D01*
Y770330D01*
X3249500Y779670D01*
X3259500Y787670D01*
G01X3365500Y891670D02*
Y838330D01*
X3245500D01*
Y891670D01*
G01X3303500Y870330D02*
Y838330D01*
G01X3245500Y965000D02*
X3365500D01*
G01X3245500Y934330D02*
Y995670D01*
G01X3467100Y4765000D02*
X3347100D01*
X3371100Y4749000D01*
G01X3467100D02*
Y4781000D01*
G01Y4865000D02*
X3347100D01*
X3371100Y4849000D01*
G01X3467100D02*
Y4881000D01*
G01X3213100Y4765000D02*
X3093100D01*
X3117100Y4749000D01*
G01X3213100D02*
Y4781000D01*
G01X3113100Y4839670D02*
X3101100Y4847670D01*
X3095100Y4857000D01*
X3093100Y4867670D01*
X3097100Y4881000D01*
X3107100Y4890330D01*
X3119100Y4893000D01*
X3131100Y4891670D01*
X3141100Y4886330D01*
X3161100Y4859670D01*
X3175100Y4847670D01*
X3195100Y4839670D01*
X3213100Y4837000D01*
Y4893000D01*
G01X3595500Y435670D02*
X3609500Y443670D01*
X3617500Y454330D01*
X3619500Y466330D01*
X3617500Y477000D01*
X3607500Y487670D01*
X3595500Y494330D01*
X3583500Y495670D01*
X3569500Y493000D01*
X3559500Y483670D01*
X3555500Y474330D01*
Y462330D01*
G01Y474330D02*
X3549500Y482330D01*
X3539500Y489000D01*
X3527500Y491670D01*
X3515500Y489000D01*
X3505500Y482330D01*
X3499500Y470330D01*
X3501500Y458330D01*
X3509500Y446330D01*
G01X3499500Y531670D02*
X3619500Y565000D01*
X3499500Y598330D01*
G01X3595500Y635670D02*
X3609500Y643670D01*
X3617500Y654330D01*
X3619500Y666330D01*
X3617500Y677000D01*
X3607500Y687670D01*
X3595500Y694330D01*
X3583500Y695670D01*
X3569500Y693000D01*
X3559500Y683670D01*
X3555500Y674330D01*
Y662330D01*
G01Y674330D02*
X3549500Y682330D01*
X3539500Y689000D01*
X3527500Y691670D01*
X3515500Y689000D01*
X3505500Y682330D01*
X3499500Y670330D01*
X3501500Y658330D01*
X3509500Y646330D01*
G01X3855500Y435670D02*
X3865500Y443670D01*
X3871500Y453000D01*
X3873500Y465000D01*
X3869500Y477000D01*
X3861500Y486330D01*
X3847500Y493000D01*
X3831500Y494330D01*
X3815500Y491670D01*
X3805500Y485000D01*
X3797500Y475670D01*
X3795500Y466330D01*
X3797500Y457000D01*
X3805500Y445000D01*
X3753500Y449000D01*
Y485000D01*
G01Y531670D02*
X3873500Y565000D01*
X3753500Y598330D01*
G01X3673330Y825000D02*
Y945000D01*
X3705330D01*
X3716000Y939000D01*
X3724000Y925000D01*
X3726670Y909000D01*
X3724000Y893000D01*
X3717330Y881000D01*
X3705330Y875000D01*
X3673330D01*
G01X3800000Y825000D02*
X3792000Y827000D01*
X3784000Y835000D01*
X3778670Y849000D01*
X3776000Y865000D01*
X3778670Y881000D01*
X3784000Y895000D01*
X3792000Y903000D01*
X3800000Y905000D01*
X3808000Y903000D01*
X3816000Y895000D01*
X3821330Y881000D01*
X3822670Y865000D01*
X3821330Y849000D01*
X3816000Y835000D01*
X3808000Y827000D01*
X3800000Y825000D01*
G01X3866670Y905000D02*
X3882670Y825000D01*
X3900000Y905000D01*
X3917330Y825000D01*
X3933330Y905000D01*
G01X3980000Y879000D02*
X4022670D01*
X4018670Y893000D01*
X4012000Y901000D01*
X4002670Y905000D01*
X3993330Y903000D01*
X3985330Y897000D01*
X3980000Y883000D01*
X3977330Y871000D01*
Y859000D01*
X3980000Y847000D01*
X3986670Y835000D01*
X3994670Y827000D01*
X4004000Y825000D01*
X4013330Y829000D01*
X4022670Y841000D01*
G01X4081330Y825000D02*
Y905000D01*
G01Y889000D02*
X4088000Y897000D01*
X4094670Y903000D01*
X4104000Y905000D01*
X4110670Y903000D01*
X4118670Y897000D01*
G01X3961100Y4842330D02*
X3971100Y4851670D01*
X3975100Y4862330D01*
X3971100Y4873000D01*
X3959100Y4882330D01*
X3941100Y4889000D01*
X3923100Y4891670D01*
X3901100D01*
X3883100Y4889000D01*
X3867100Y4882330D01*
X3859100Y4874330D01*
X3855100Y4865000D01*
X3859100Y4854330D01*
X3867100Y4846330D01*
X3879100Y4841000D01*
X3895100Y4838330D01*
X3909100Y4841000D01*
X3923100Y4847670D01*
X3931100Y4855670D01*
X3933100Y4865000D01*
X3929100Y4875670D01*
X3919100Y4883670D01*
X3901100Y4891670D01*
G01X3721100Y4765000D02*
X3601100D01*
X3625100Y4749000D01*
G01X3721100D02*
Y4781000D01*
G01X3601100Y4865000D02*
X3605100Y4854330D01*
X3615100Y4846330D01*
X3627100Y4841000D01*
X3643100Y4837000D01*
X3661100Y4835670D01*
X3679100Y4837000D01*
X3695100Y4841000D01*
X3707100Y4846330D01*
X3717100Y4854330D01*
X3721100Y4865000D01*
X3717100Y4875670D01*
X3707100Y4883670D01*
X3695100Y4889000D01*
X3679100Y4893000D01*
X3661100Y4894330D01*
X3643100Y4893000D01*
X3627100Y4889000D01*
X3615100Y4883670D01*
X3605100Y4875670D01*
X3601100Y4865000D01*
G01X4067500Y473000D02*
Y499670D01*
X4103500D01*
X4115500Y491670D01*
X4123500Y482330D01*
X4127500Y469000D01*
X4123500Y455670D01*
X4115500Y446330D01*
X4103500Y438330D01*
X4089500Y433000D01*
X4073500Y430330D01*
X4059500D01*
X4047500Y433000D01*
X4033500Y438330D01*
X4021500Y446330D01*
X4013500Y454330D01*
X4007500Y465000D01*
Y474330D01*
X4011500Y485000D01*
X4019500Y493000D01*
G01X4127500Y534330D02*
X4007500D01*
X4127500Y595670D01*
X4007500D01*
G01X4127500Y635670D02*
X4007500D01*
Y662330D01*
X4013500Y673000D01*
X4021500Y681000D01*
X4033500Y687670D01*
X4047500Y693000D01*
X4067500Y694330D01*
X4087500Y693000D01*
X4101500Y687670D01*
X4113500Y681000D01*
X4121500Y673000D01*
X4127500Y662330D01*
Y635670D01*
G01X4321500Y473000D02*
Y499670D01*
X4357500D01*
X4369500Y491670D01*
X4377500Y482330D01*
X4381500Y469000D01*
X4377500Y455670D01*
X4369500Y446330D01*
X4357500Y438330D01*
X4343500Y433000D01*
X4327500Y430330D01*
X4313500D01*
X4301500Y433000D01*
X4287500Y438330D01*
X4275500Y446330D01*
X4267500Y454330D01*
X4261500Y465000D01*
Y474330D01*
X4265500Y485000D01*
X4273500Y493000D01*
G01X4381500Y534330D02*
X4261500D01*
X4381500Y595670D01*
X4261500D01*
G01X4381500Y635670D02*
X4261500D01*
Y662330D01*
X4267500Y673000D01*
X4275500Y681000D01*
X4287500Y687670D01*
X4301500Y693000D01*
X4321500Y694330D01*
X4341500Y693000D01*
X4355500Y687670D01*
X4367500Y681000D01*
X4375500Y673000D01*
X4381500Y662330D01*
Y635670D01*
G01X4070670Y4510000D02*
Y4630000D01*
X4097330D01*
X4108000Y4624000D01*
X4116000Y4616000D01*
X4122670Y4604000D01*
X4128000Y4590000D01*
X4129330Y4570000D01*
X4128000Y4550000D01*
X4122670Y4536000D01*
X4116000Y4524000D01*
X4108000Y4516000D01*
X4097330Y4510000D01*
X4070670D01*
G01X4200000Y4590000D02*
Y4510000D01*
G01Y4622000D02*
X4197330Y4624000D01*
Y4628000D01*
X4200000Y4630000D01*
X4202670Y4628000D01*
Y4624000D01*
X4200000Y4622000D01*
G01X4281330Y4480000D02*
X4290670Y4472000D01*
X4301330Y4470000D01*
X4310670Y4472000D01*
X4318670Y4482000D01*
X4324000Y4496000D01*
Y4590000D01*
G01Y4574000D02*
X4318670Y4582000D01*
X4310670Y4588000D01*
X4301330Y4590000D01*
X4290670Y4586000D01*
X4284000Y4578000D01*
X4278670Y4564000D01*
X4276000Y4550000D01*
X4277330Y4538000D01*
X4282670Y4524000D01*
X4290670Y4514000D01*
X4301330Y4510000D01*
X4309330Y4512000D01*
X4318670Y4520000D01*
X4324000Y4528000D01*
G01X4400000Y4590000D02*
Y4510000D01*
G01Y4622000D02*
X4397330Y4624000D01*
Y4628000D01*
X4400000Y4630000D01*
X4402670Y4628000D01*
Y4624000D01*
X4400000Y4622000D01*
G01X4500000Y4630000D02*
Y4510000D01*
G01X4481330Y4590000D02*
X4518670D01*
G01X4624000Y4510000D02*
Y4590000D01*
G01Y4576000D02*
X4618670Y4584000D01*
X4610670Y4588000D01*
X4601330Y4590000D01*
X4592000Y4586000D01*
X4584000Y4578000D01*
X4578670Y4566000D01*
X4576000Y4550000D01*
X4578670Y4534000D01*
X4584000Y4522000D01*
X4592000Y4514000D01*
X4601330Y4510000D01*
X4610670Y4512000D01*
X4618670Y4518000D01*
X4624000Y4526000D01*
G01X4700000Y4510000D02*
Y4630000D01*
G01X4884000D02*
X4916000D01*
G01X4900000D02*
Y4510000D01*
G01X4884000D02*
X4916000D01*
G01X4976000Y4506000D02*
X5024000Y4630000D01*
G01X5100000Y4510000D02*
X5089330Y4512000D01*
X5080000Y4520000D01*
X5072000Y4532000D01*
X5066670Y4546000D01*
X5064000Y4562000D01*
Y4578000D01*
X5066670Y4594000D01*
X5072000Y4608000D01*
X5080000Y4620000D01*
X5089330Y4628000D01*
X5100000Y4630000D01*
X5110670Y4628000D01*
X5120000Y4620000D01*
X5128000Y4608000D01*
X5133330Y4594000D01*
X5136000Y4578000D01*
Y4562000D01*
X5133330Y4546000D01*
X5128000Y4532000D01*
X5120000Y4520000D01*
X5110670Y4512000D01*
X5100000Y4510000D01*
G01X4229100Y4865000D02*
X4227100Y4874330D01*
X4221100Y4885000D01*
X4211100Y4891670D01*
X4197100Y4894330D01*
X4183100Y4891670D01*
X4171100Y4883670D01*
X4165100Y4871670D01*
Y4858330D01*
X4161100Y4850330D01*
X4151100Y4843670D01*
X4137100Y4841000D01*
X4123100Y4845000D01*
X4113100Y4854330D01*
X4109100Y4865000D01*
X4113100Y4875670D01*
X4123100Y4885000D01*
X4137100Y4889000D01*
X4151100Y4886330D01*
X4161100Y4879670D01*
X4165100Y4871670D01*
Y4858330D01*
X4171100Y4846330D01*
X4183100Y4838330D01*
X4197100Y4835670D01*
X4211100Y4838330D01*
X4221100Y4845000D01*
X4227100Y4855670D01*
X4229100Y4865000D01*
G01X4515500Y431670D02*
X4635500Y465000D01*
X4515500Y498330D01*
G01Y549000D02*
Y581000D01*
G01Y565000D02*
X4635500D01*
G01Y549000D02*
Y581000D01*
G01Y634330D02*
X4515500D01*
X4635500Y695670D01*
X4515500D01*
G01X4635500Y4862330D02*
X4609500Y4865000D01*
X4587500Y4869000D01*
X4567500Y4874330D01*
X4545500Y4881000D01*
X4515500Y4891670D01*
Y4838330D01*
G01X5023500Y465000D02*
X5027500Y454330D01*
X5037500Y446330D01*
X5049500Y441000D01*
X5065500Y437000D01*
X5083500Y435670D01*
X5101500Y437000D01*
X5117500Y441000D01*
X5129500Y446330D01*
X5139500Y454330D01*
X5143500Y465000D01*
X5139500Y475670D01*
X5129500Y483670D01*
X5117500Y489000D01*
X5101500Y493000D01*
X5083500Y494330D01*
X5065500Y493000D01*
X5049500Y489000D01*
X5037500Y483670D01*
X5027500Y475670D01*
X5023500Y465000D01*
G01X5125500Y4835670D02*
X5135500Y4843670D01*
X5141500Y4853000D01*
X5143500Y4865000D01*
X5139500Y4877000D01*
X5131500Y4886330D01*
X5117500Y4893000D01*
X5101500Y4894330D01*
X5085500Y4891670D01*
X5075500Y4885000D01*
X5067500Y4875670D01*
X5065500Y4866330D01*
X5067500Y4857000D01*
X5075500Y4845000D01*
X5023500Y4849000D01*
Y4885000D01*
G01X4839500Y4839670D02*
X4825500Y4849000D01*
X4817500Y4857000D01*
X4813500Y4867670D01*
X4817500Y4877000D01*
X4825500Y4883670D01*
X4837500Y4889000D01*
X4851500Y4890330D01*
X4863500Y4889000D01*
X4875500Y4883670D01*
X4885500Y4875670D01*
X4889500Y4866330D01*
X4885500Y4855670D01*
X4873500Y4846330D01*
X4855500Y4841000D01*
X4835500Y4839670D01*
X4809500Y4842330D01*
X4795500Y4846330D01*
X4781500Y4853000D01*
X4771500Y4862330D01*
X4769500Y4871670D01*
X4773500Y4881000D01*
X4783500Y4887670D01*
G01X5397500Y465000D02*
X5277500D01*
X5301500Y449000D01*
G01X5397500D02*
Y481000D01*
G01X5286670Y720000D02*
X5320000Y840000D01*
X5353330Y720000D01*
G01X5341330Y762000D02*
X5298670D01*
G01X5397330Y720000D02*
Y800000D01*
G01Y780000D02*
X5402670Y790000D01*
X5410670Y798000D01*
X5421330Y800000D01*
X5430670Y798000D01*
X5438670Y790000D01*
X5442670Y776000D01*
Y720000D01*
G01X5544000D02*
Y800000D01*
G01Y786000D02*
X5538670Y794000D01*
X5530670Y798000D01*
X5521330Y800000D01*
X5512000Y796000D01*
X5504000Y788000D01*
X5498670Y776000D01*
X5496000Y760000D01*
X5498670Y744000D01*
X5504000Y732000D01*
X5512000Y724000D01*
X5521330Y720000D01*
X5530670Y722000D01*
X5538670Y728000D01*
X5544000Y736000D01*
G01X5620000Y720000D02*
Y840000D01*
G01X5720000Y720000D02*
X5712000Y722000D01*
X5704000Y730000D01*
X5698670Y744000D01*
X5696000Y760000D01*
X5698670Y776000D01*
X5704000Y790000D01*
X5712000Y798000D01*
X5720000Y800000D01*
X5728000Y798000D01*
X5736000Y790000D01*
X5741330Y776000D01*
X5742670Y760000D01*
X5741330Y744000D01*
X5736000Y730000D01*
X5728000Y722000D01*
X5720000Y720000D01*
G01X5801330Y690000D02*
X5810670Y682000D01*
X5821330Y680000D01*
X5830670Y682000D01*
X5838670Y692000D01*
X5844000Y706000D01*
Y800000D01*
G01Y784000D02*
X5838670Y792000D01*
X5830670Y798000D01*
X5821330Y800000D01*
X5810670Y796000D01*
X5804000Y788000D01*
X5798670Y774000D01*
X5796000Y760000D01*
X5797330Y748000D01*
X5802670Y734000D01*
X5810670Y724000D01*
X5821330Y720000D01*
X5829330Y722000D01*
X5838670Y730000D01*
X5844000Y738000D01*
G01X6004000Y840000D02*
X6036000D01*
G01X6020000D02*
Y720000D01*
G01X6004000D02*
X6036000D01*
G01X6097330D02*
Y800000D01*
G01Y780000D02*
X6102670Y790000D01*
X6110670Y798000D01*
X6121330Y800000D01*
X6130670Y798000D01*
X6138670Y790000D01*
X6142670Y776000D01*
Y720000D01*
G01X5397500Y4881000D02*
X5277500D01*
X5363500Y4831670D01*
Y4898330D01*
G01X5551500Y439670D02*
X5539500Y447670D01*
X5533500Y457000D01*
X5531500Y467670D01*
X5535500Y481000D01*
X5545500Y490330D01*
X5557500Y493000D01*
X5569500Y491670D01*
X5579500Y486330D01*
X5599500Y459670D01*
X5613500Y447670D01*
X5633500Y439670D01*
X5651500Y437000D01*
Y493000D01*
G01X5881500Y435670D02*
X5895500Y443670D01*
X5903500Y454330D01*
X5905500Y466330D01*
X5903500Y477000D01*
X5893500Y487670D01*
X5881500Y494330D01*
X5869500Y495670D01*
X5855500Y493000D01*
X5845500Y483670D01*
X5841500Y474330D01*
Y462330D01*
G01Y474330D02*
X5835500Y482330D01*
X5825500Y489000D01*
X5813500Y491670D01*
X5801500Y489000D01*
X5791500Y482330D01*
X5785500Y470330D01*
X5787500Y458330D01*
X5795500Y446330D01*
G01X5805500Y4839670D02*
X5793500Y4847670D01*
X5787500Y4857000D01*
X5785500Y4867670D01*
X5789500Y4881000D01*
X5799500Y4890330D01*
X5811500Y4893000D01*
X5823500Y4891670D01*
X5833500Y4886330D01*
X5853500Y4859670D01*
X5867500Y4847670D01*
X5887500Y4839670D01*
X5905500Y4837000D01*
Y4893000D01*
G01X5627500Y4835670D02*
X5641500Y4843670D01*
X5649500Y4854330D01*
X5651500Y4866330D01*
X5649500Y4877000D01*
X5639500Y4887670D01*
X5627500Y4894330D01*
X5615500Y4895670D01*
X5601500Y4893000D01*
X5591500Y4883670D01*
X5587500Y4874330D01*
Y4862330D01*
G01Y4874330D02*
X5581500Y4882330D01*
X5571500Y4889000D01*
X5559500Y4891670D01*
X5547500Y4889000D01*
X5537500Y4882330D01*
X5531500Y4870330D01*
X5533500Y4858330D01*
X5541500Y4846330D01*
G01X6159500Y481000D02*
X6039500D01*
X6125500Y431670D01*
Y498330D01*
G01X6395500Y435670D02*
X6405500Y443670D01*
X6411500Y453000D01*
X6413500Y465000D01*
X6409500Y477000D01*
X6401500Y486330D01*
X6387500Y493000D01*
X6371500Y494330D01*
X6355500Y491670D01*
X6345500Y485000D01*
X6337500Y475670D01*
X6335500Y466330D01*
X6337500Y457000D01*
X6345500Y445000D01*
X6293500Y449000D01*
Y485000D01*
G01X6420000Y3225000D02*
X6300000D01*
X6324000Y3209000D01*
G01X6420000D02*
Y3241000D01*
G01X5944330Y4630000D02*
Y4510000D01*
X5997670D01*
G01X6097670D02*
X6044330D01*
Y4630000D01*
X6097670D01*
G01X6076330Y4572000D02*
X6044330D01*
G01X6141670Y4510000D02*
Y4630000D01*
X6168330D01*
X6179000Y4624000D01*
X6187000Y4616000D01*
X6193670Y4604000D01*
X6199000Y4590000D01*
X6200330Y4570000D01*
X6199000Y4550000D01*
X6193670Y4536000D01*
X6187000Y4524000D01*
X6179000Y4516000D01*
X6168330Y4510000D01*
X6141670D01*
G01X6293500Y4865000D02*
X6297500Y4854330D01*
X6307500Y4846330D01*
X6319500Y4841000D01*
X6335500Y4837000D01*
X6353500Y4835670D01*
X6371500Y4837000D01*
X6387500Y4841000D01*
X6399500Y4846330D01*
X6409500Y4854330D01*
X6413500Y4865000D01*
X6409500Y4875670D01*
X6399500Y4883670D01*
X6387500Y4889000D01*
X6371500Y4893000D01*
X6353500Y4894330D01*
X6335500Y4893000D01*
X6319500Y4889000D01*
X6307500Y4883670D01*
X6297500Y4875670D01*
X6293500Y4865000D01*
G01X6159500D02*
X6039500D01*
X6063500Y4849000D01*
G01X6159500D02*
Y4881000D01*
G01X6424000Y998330D02*
Y1078330D01*
X6449000D01*
X6457000Y1074330D01*
X6462000Y1069000D01*
X6464000Y1058330D01*
X6462000Y1047660D01*
X6456000Y1041000D01*
X6449000Y1037000D01*
X6424000D01*
G01X6449000D02*
X6464000Y998330D01*
G01X6542000D02*
X6502000D01*
Y1078330D01*
X6542000D01*
G01X6526000Y1039660D02*
X6502000D01*
G01X6575000Y1078330D02*
X6600000Y998330D01*
X6625000Y1078330D01*
G01X6678000Y995660D02*
X6676000Y997000D01*
Y999660D01*
X6678000Y1001000D01*
X6680000Y999660D01*
Y997000D01*
X6678000Y995660D01*
G01X6731000Y998330D02*
X6756000Y1078330D01*
X6781000Y998330D01*
G01X6772000Y1026330D02*
X6740000D01*
G54D15*
G01X4978880Y1385720D02*
X5121120D01*
Y1294280D01*
X4978880D01*
Y1385720D01*
G01X5078880Y1185720D02*
X5221120D01*
Y1094280D01*
X5078880D01*
Y1185720D01*
M02*
